<svg xmlns="http://www.w3.org/2000/svg" width="420" height="256" viewBox="0 0 420 256" fill="none"><path d="M37.298 25.4836L38.2309 25.2881L38.2891 25.2752C43.7796 24.184 48.9738 24.1728 53.7861 24.9767C61.3609 25.5774 70.8471 23.8969 79.9611 21.3196C88.9252 18.7847 97.0369 15.5247 101.767 13.3017C105.269 11.2163 109.381 9.45599 114.105 8.40553L114.108 8.4049L115.118 8.19229L115.121 8.19166C117.498 7.72239 119.92 7.45304 122.363 7.39476C130.973 7.18942 138.324 7.35416 145.054 5.02037C153.585 2.06197 159.46 0.873531 163.828 1.0611C166.119 1.15949 168.083 1.6375 169.811 2.48684C171.234 3.18631 172.296 4.04899 173.095 4.78794C178.572 8.2447 189.482 17.206 194.854 29.4461L195.106 30.0322L195.108 30.0358L195.612 31.2922L195.617 31.3032L195.616 31.3034L195.709 31.5717L195.712 31.5782C196.859 35.177 199.401 40.4095 203.072 44.2476C206.652 47.9912 210.725 49.9009 215.568 48.8241L275.667 35.4611C276.654 35.1749 281.096 32.938 283.212 26.2113L283.216 26.1953L283.219 26.1868C285.145 20.1672 290.496 15.9971 295.088 13.3404C299.291 10.9088 303.808 9.20246 307.171 8.23185L307.175 8.231L308.536 7.86031L308.539 7.85968C322.886 4.15616 333.772 4.05816 341.713 5.72646C349.487 7.35972 354.889 10.8138 357.362 14.673C358.425 16.332 359.298 18.1056 360.018 19.6158C360.792 21.2392 361.355 22.4775 361.959 23.564C362.232 24.0563 362.456 24.4032 362.626 24.6431C370.796 23.3391 379.048 24.4344 386.352 27.502C394.621 30.9752 403.909 38.064 408.93 49.7831L409.166 50.3439L409.167 50.3475L409.166 50.3477L409.631 51.523L409.635 51.534L409.744 51.852L409.832 52.1836L418.919 90.7417C418.944 90.8487 418.965 90.9566 418.983 91.0616C422.405 110.956 411.685 125.893 401.391 133.406C400.492 134.149 399.331 135.743 398.156 138.518C397.006 141.236 396.032 144.635 395.258 148.422C393.708 155.999 393.08 164.539 393.196 170.989C393.204 171.435 393.157 171.883 393.054 172.317C389.62 186.76 378.099 197.878 363.554 200.806L288.068 217.601C277.877 219.866 267.849 216.452 260.214 211.632C254.352 207.932 249.249 202.99 246.165 198.107L182.778 211.969C180.915 217.353 178.123 223.013 174.445 227.886C170.091 233.654 164.123 238.806 156.557 240.489C156.398 240.524 156.238 240.552 156.077 240.572L130.658 243.825C123.548 248.353 115.572 251.6 106.97 253.512C91.3614 256.983 74.8738 255.598 59.6255 247.469C59.4286 247.364 59.2377 247.26 59.0574 247.16C42.6784 238.066 32.8 223.302 28.7432 206.848L28.7426 206.845L28.3697 205.253L28.369 205.25C25.2787 191.351 27.038 177.669 32.6672 165.388C31.2886 162.284 30.1368 158.987 29.2997 155.49L29.2896 155.444L29.1069 154.649C29.0997 154.618 29.092 154.584 29.085 154.551L28.8123 153.248L28.8114 153.248L28.7972 153.185L28.7981 153.184C27.8067 148.174 27.4431 143.067 27.7659 137.973C21.4188 132.84 15.5087 125.108 13.0952 114.777L13.095 114.776L12.2419 111.083L12.2416 111.082C9.69764 99.8809 3.70963 72.5974 3.43681 71.3704C0.579444 58.5184 4.05924 47.8927 11.0035 40.0448C17.7762 32.391 27.5755 27.6454 37.2398 25.4965L37.298 25.4836Z" fill="white" stroke="#B4B4B4" stroke-width="0.5" stroke-linejoin="round"></path><path d="M115.261 13.6012C111.023 14.5434 107.355 16.1352 104.248 18.0185C94.3504 22.7037 70.2759 31.7125 53.1553 30.2657C48.9091 29.5259 44.2806 29.5114 39.3272 30.4959L38.3952 30.6922C20.625 34.6434 3.67312 47.9108 8.63268 70.216C8.96004 71.6882 16.7149 107.023 18.272 113.54C20.645 123.731 26.9358 131.064 33.3315 135.501C32.6725 141.035 32.9293 146.641 34.0195 152.15L34.2939 153.454L34.4772 154.251C35.4325 158.242 36.8375 161.961 38.5602 165.422C32.5622 177.262 30.5557 190.561 33.5649 204.095C37.0776 219.892 46.2246 233.948 61.6405 242.506C61.8027 242.596 61.9662 242.685 62.1299 242.773C76.13 250.236 91.2985 251.545 105.816 248.317C114.256 246.44 121.991 243.208 128.788 238.7L155.401 235.293C167.155 232.68 175.357 218.89 178.642 207.425L249.005 192.039C252.604 201.42 270.236 216.114 286.912 212.406L362.404 195.611C374.96 193.124 384.914 183.541 387.874 171.086C387.628 157.486 390.5 135.357 398.085 129.235C407.317 122.577 416.739 109.409 413.738 91.9627L404.652 53.4051C400.456 42.2854 391.914 35.6119 384.29 32.4097C377.628 29.6116 370.064 28.6835 362.629 30.0424C357.954 30.8966 356.358 22.9721 352.88 17.5446C350.014 13.0709 337.394 5.90295 309.845 13.0201C303.743 14.5648 290.888 19.6849 288.289 27.8088C285.584 36.4067 279.616 39.9347 276.971 40.6239L216.723 54.02C202.198 57.2497 193.282 41.4818 190.64 33.1942C186.045 21.1545 174.85 12.0591 169.827 9.0164C166.93 6.1817 162.893 3.84876 141.922 11.8274C137.405 13.5458 132.457 13.5281 127.658 12.9584C123.484 12.4628 119.302 12.7026 115.261 13.6012Z" fill="#FFD048"></path><path d="M372.432 155.726L374.366 155.342L369.652 175.172L367.739 175.551L369.307 169.236L360.717 158.377L362.642 157.949L369.783 166.994L372.432 155.726Z" fill="black"></path><path d="M361.965 170.032L363.823 169.619C364.033 174.843 360.685 177.537 357.146 178.324C352.013 179.465 347.905 176.548 346.646 170.885C346.007 168.009 346.333 165.406 347.579 163.387C348.744 161.527 350.659 160.219 353.004 159.697C357.207 158.763 360.708 160.515 362.537 164.357L360.679 164.77C358.975 161.597 355.995 160.936 353.407 161.511C350.155 162.234 347.265 165.106 348.46 170.481C349.695 176.034 353.49 177.233 356.742 176.51C360.105 175.762 361.985 173.464 361.965 170.032Z" fill="black"></path><path d="M334.994 165.931L336.258 171.617L344.864 169.703L345.252 171.451L336.637 173.32L338.201 180.355L348.422 178.082L348.805 179.808L336.793 182.479L332.814 164.582L344.826 161.911L345.215 163.659L334.994 165.931Z" fill="black"></path><path d="M332.558 183.42L330.615 174.682L320.438 176.945L322.381 185.683L320.567 186.086L316.588 168.189L318.402 167.786L320.055 175.219L330.231 172.956L328.578 165.523L330.392 165.12L334.372 183.017L332.558 183.42Z" fill="black"></path><path d="M317.537 181.606C318.339 185.212 316.518 187.358 312.359 188.283C305.766 189.749 304.706 185.713 304.342 184.076L306.024 183.702C306.23 184.631 307.13 187.635 311.732 186.612C315.758 185.717 316.392 183.556 315.691 181.553C315.17 180.043 313.083 179.114 309.897 179.823L309.528 178.164C313.953 177.18 313.648 174.555 313.436 173.603C312.959 171.458 310.69 170.964 308.854 171.372C305.912 172.026 304.97 173.953 305.113 175.849L303.299 176.252C302.898 173.509 304.306 170.549 308.2 169.683C312.337 168.764 314.596 170.467 315.299 173.63C315.983 176.705 313.444 178.129 313.444 178.129C313.444 178.129 316.706 177.868 317.537 181.606Z" fill="black"></path><path d="M298.653 174.36L291.043 192.651L288.919 193.123L284.94 175.227L286.754 174.823L290.271 190.641L297.837 172.359L300.005 171.877L303.984 189.774L302.17 190.177L298.653 174.36Z" fill="black"></path><path d="M279.519 184.696C283.28 183.86 285.647 186.05 286.164 188.373C286.975 192.023 285.508 193.882 281.371 194.801L274.358 196.361L270.379 178.464L281.595 175.97L281.989 177.74L272.564 179.835L273.922 185.941L279.519 184.696ZM281.314 192.98C283.571 192.478 284.928 191.271 284.431 189.037C284.027 187.223 282.253 185.923 279.819 186.464L274.311 187.689L275.762 194.215L281.314 192.98Z" fill="black"></path><path d="M116.894 168.244C118.568 167.871 120.221 168.976 120.432 170.678C121.347 178.046 120.943 184.904 119.219 191.251C118.883 192.487 119.298 193.818 120.323 194.587L137.334 207.338C139.385 208.876 138.688 212.111 136.186 212.667L128.759 214.319C127.896 214.51 126.993 214.312 126.29 213.777L117.262 206.905C115.698 205.715 113.436 206.331 112.507 208.062C107.617 217.175 99.6914 222.95 88.7297 225.387C80.2794 227.266 72.6097 226.37 65.7205 222.698C58.9028 218.914 54.5548 212.797 52.6763 204.349C51.2471 197.922 52.1652 191.646 55.4307 185.524C58.0807 180.449 61.6122 176.013 66.0251 172.217C67.5329 170.92 67.5743 168.54 66.0698 167.239C58.9456 161.08 54.7453 155.13 53.4688 149.389C52.1008 143.237 53.1006 137.763 56.4682 132.966C59.9277 128.15 65.01 124.996 71.7151 123.505C78.3283 122.035 84.1304 122.768 89.1212 125.706C94.1835 128.531 97.3782 132.928 98.7053 138.897C100.86 148.586 97.6396 157.596 89.0453 165.927C87.683 167.248 87.7176 169.489 89.2089 170.662L105.138 183.192C106.927 184.598 109.529 183.57 109.626 181.297C109.739 178.622 109.609 175.814 109.237 172.872C109.036 171.282 110.041 169.767 111.605 169.42L116.894 168.244ZM76.7235 160.986C77.7284 161.702 79.0739 161.607 79.9385 160.726C86.3336 154.215 88.8948 148.097 87.622 142.373C86.8666 138.976 85.1416 136.42 82.4472 134.706C79.8446 132.972 76.9359 132.463 73.7211 133.178C70.5064 133.892 68.0316 135.551 66.2967 138.153C64.5415 140.663 64.0008 143.434 64.6746 146.464C64.8175 147.107 65.0165 147.785 65.2717 148.499C65.6188 149.193 66.0117 149.877 66.4506 150.55C66.8895 151.223 67.3182 151.851 67.7367 152.432C68.1348 152.922 68.7114 153.565 69.4667 154.36C70.2016 155.064 70.7578 155.615 71.1355 156.013C71.5131 156.411 72.1357 157.043 73.0032 157.911C73.7296 158.494 74.2483 158.923 74.5593 159.195C74.7079 159.326 74.8638 159.447 75.0227 159.564C75.3918 159.837 75.9588 160.311 76.7235 160.986ZM79.0477 177.395C77.9399 176.535 76.3781 176.55 75.3304 177.483C66.5596 185.288 63.0548 193.152 64.8159 201.072C65.9389 206.122 68.7355 210.03 73.2058 212.794C77.6558 215.467 82.4985 216.221 87.734 215.057C95.721 213.281 101.476 208.331 105 200.209C105.519 199.011 105.113 197.629 104.082 196.828L79.0477 177.395Z" fill="black"></path><path d="M375.142 106.168C378.854 104.797 379.787 101.864 379.31 99.2449C378.903 96.9371 376.699 94.1565 372.547 94.9707C370.107 95.4042 368.609 97.6995 367.259 100.18C366.187 102.49 363.011 108.647 359.61 109.512C357.116 110.176 356.272 109.709 354.585 108.776C352.055 107.376 347.18 103.991 345.346 102.872C343.288 101.695 333.436 96.3628 332.682 92.4968C332.121 89.0238 329.178 77.6863 329.034 74.6657C328.713 71.7937 330.636 69.5127 333.355 68.9081C338.29 67.8109 345.642 66.1762 349.368 65.3477C353.195 64.4968 354.431 66.7294 355.459 68.027C356.827 69.9031 364.081 83.9889 364.891 86.2071C365.949 88.5883 368.572 90.4035 371.369 89.6727C372.454 89.3225 375.003 88.4286 375.619 85.021C376.797 78.4361 376.503 66.1823 376.84 62.9458C377.278 59.6869 379.355 58.571 381.168 58.1679C383.562 57.5266 386.751 58.5618 387.654 61.1955C388.433 63.7478 391.498 76.5845 392.307 80.2204C393.462 85.4145 394.963 92.1668 395.686 96.3669C396.047 98.467 395.107 100.42 392.921 101.996C391.247 103.023 378.676 110.179 375.817 111.578C374.376 112.225 372.408 112.881 371.76 116.622C371.494 118.753 370.706 135.172 370.805 136.567C370.988 138.816 369.853 141.793 367.18 142.606C365.089 143.18 353.809 145.688 350.463 146.323C347.597 146.742 346.437 145.801 345.4 144.941C343.946 143.629 342.772 140.729 343.999 138.167C345.172 135.834 355.928 118.616 357.115 116.826C358.256 114.828 373.275 106.801 375.142 106.168Z" fill="black"></path><path d="M330.17 48.2285C329.747 46.8198 328.359 46.238 327.211 46.4931C325.687 46.7764 325.228 48.1584 325.277 48.871C325.531 53.2113 326.468 63.5772 326.409 65.0372C326.351 66.4972 325.286 67.1236 324.399 67.3207C322.991 67.6338 321.741 66.6874 321.481 65.5207C320.791 62.1681 318.675 52.8992 318.326 51.0845C318.114 50.1299 318.373 49.5715 318.845 48.7429C319.947 47.051 323.527 41.2461 323.89 40.6644C324.185 40.2651 324.629 39.5542 325.62 39.3338C326.454 39.1483 327.591 39.3406 328.204 40.3731C329.313 42.4083 332.007 47.8756 332.7 48.7789C333.341 49.6937 334.306 50.0915 335.244 49.8828C336.131 49.6857 337.027 49.0411 337.242 47.5463C337.434 45.9454 337.493 39.8105 337.76 38.3041C337.998 36.9153 338.918 36.3768 339.701 36.2029C341.422 35.8202 342.297 37.2952 342.735 38.0327C343.021 38.5813 353.132 55.2553 353.657 56.1403C354.106 56.9309 354.352 57.5441 354.47 58.0744C354.788 59.5062 353.969 60.7458 352.822 61.0009C350.684 61.4763 347.398 62.2069 345.521 62.6243C344.478 62.8562 343.217 62.3573 342.773 61.3431C342.475 60.7415 342.291 59.6692 342.989 58.6236C343.941 57.2432 345.135 55.4751 345.756 53.8345C346.359 52.3646 345.216 50.6708 343.598 50.5298C342.925 50.4568 341.974 50.6125 341.369 51.582C340.279 53.3269 338.907 55.5243 338.508 55.9468C338.254 56.2815 337.879 56.8102 336.888 57.0305C335.011 57.4479 331.14 58.253 329.796 58.6076C328.335 58.9322 327.218 57.845 326.942 56.849C326.741 55.9475 326.965 55.2299 327.49 54.3898C328.135 53.3557 329.334 51.3638 329.876 50.353C330.32 49.6421 330.311 48.8648 330.17 48.2285Z" fill="black"></path><path d="M318.96 70.2449C319.382 71.6569 325.079 97.2779 325.352 98.5077C325.762 100.352 324.942 103.439 322.196 104.157C319.142 104.943 298.383 109.344 294.099 110.404C291.536 110.974 289.986 109.813 289.109 109.255C287.354 108.14 279.72 102.846 274.422 99.8297C272.69 98.8166 271.597 97.7692 271.209 96.027C270.503 92.85 268.236 83.1368 267.939 81.8045C267.711 80.7797 268.03 79.3106 268.987 77.8072C269.945 76.3038 277.396 64.3221 279.139 61.9986C279.823 61.2013 280.393 59.8915 282.341 59.4583C286.26 58.6944 293.108 57.0643 296.367 56.2322C297.905 55.8902 299.215 56.4592 300.297 56.9714C303.237 58.5764 314.539 65.8503 316.214 67.0912C317.012 67.7743 318.413 68.7533 318.96 70.2449ZM305.151 73.9607C304.581 71.3986 302.075 69.8049 299.511 70.3749C296.948 70.945 295.352 73.4506 295.922 76.0127C296.469 78.4724 298.998 80.1685 301.562 79.5985C304.126 79.0285 305.698 76.4203 305.151 73.9607Z" fill="black"></path><path d="M248.01 56.6102C248.745 56.4469 249.705 56.686 250.223 57.3855C250.957 58.4444 253.236 63.1884 253.75 64.07C254.172 64.7456 255.113 65.3059 256.063 65.0946C257.081 64.7777 257.638 64.0202 257.662 63.1095C257.672 62.3378 257.798 56.3801 258.034 55.6035C258.303 54.7742 258.74 54.0886 259.892 53.9682C260.636 53.848 261.807 54.2213 262.081 55.6543C262.109 55.7837 262.311 56.282 261.778 57.3511C261.312 58.3147 260.587 59.336 259.972 60.6496C259.823 60.9995 259.573 61.5077 259.727 62.1978C260.235 64.4838 260.494 65.6484 261.103 68.1836C261.285 69.0031 262.173 69.5299 262.692 69.822C263.517 70.2721 264.218 70.9764 264.904 71.4122C266.128 72.2264 266.022 73.3815 265.993 73.6596C265.859 74.6853 265.316 75.3039 264.399 75.4625C263.439 75.6307 262.647 75.1278 262.215 74.4091C261.687 73.6665 259.053 68.9563 258.751 68.2087C258.285 67.1353 257.383 66.7475 256.389 66.9685C255.309 67.2087 254.747 68.1484 254.809 69.0398C254.881 69.9744 254.717 74.5374 254.447 76.1815C254.294 77.121 253.727 77.8355 252.949 78.0084C251.999 78.2197 248.283 79.046 246.857 79.363C246.252 79.4975 244.942 79.1099 244.606 78.0077C244.376 77.3799 244.371 76.7472 245.039 75.8746C245.485 75.2321 246.46 73.7027 246.984 72.5905C247.358 71.8282 247.296 71.3441 247.248 71.1285C246.955 69.6092 246.121 66.2641 245.9 65.2721C245.805 64.8408 245.656 64.3759 244.907 63.8635C244.053 63.2839 243.03 62.5607 241.658 61.689C240.645 61.0089 240.607 60.429 240.655 59.8299C240.693 59.1876 240.967 58.1761 242.22 57.8975C244.208 57.4556 247.492 56.7255 248.01 56.6102Z" fill="black"></path><path d="M254.806 79.8487C257.17 79.323 260.456 80.4064 261.242 83.4328C262.774 89.8145 264.441 96.8063 264.882 99.8027C265.159 101.555 264.293 103.241 263.337 104.521C261.917 106.757 259.966 109.645 258.523 111.78C256.803 114.19 253.432 119.314 251.39 121.796C250.326 123.099 249.449 123.721 247.753 124.205C241.95 125.495 235.394 126.953 231.848 127.741C229.162 128.339 227.408 127.555 225.61 126.568C223.314 125.371 220.209 123.074 215.595 120.578C212.648 118.993 206.868 116.33 205.879 112.388C204.415 106.312 202.934 100.666 201.487 94.1583C200.018 87.5494 197.988 80.9582 199.193 78.7696C201.162 75.4509 209.382 64.2334 211.56 60.3346C213.042 57.871 214.241 57.1775 216.068 56.7713C220.751 55.5166 225.36 59.5069 230.003 62.636C234.103 65.3522 236.834 66.9857 239.351 68.6669C243.083 71.2515 242.647 74.8696 240.922 76.7471C238.111 79.8264 224.734 86.1085 222.353 87.0648C219.327 88.1644 217.997 90.8075 218.494 93.0444C218.771 94.7968 219.975 102.745 222.134 109.414C223.112 112.291 226.115 113.117 228.48 112.592C229.554 112.353 232.495 111.379 232.994 107.533C233.464 103.054 233.6 101.637 233.663 95.327C233.715 85.9255 235.401 84.3769 238.709 83.5345C240.084 83.1222 254.054 80.0159 254.806 79.8487ZM225.94 75.8102C225.33 73.0649 222.361 71.3776 219.459 72.0228C216.45 72.6918 214.583 75.4544 215.194 78.1997C215.827 81.0466 218.688 82.7578 221.697 82.0888C224.599 81.4436 226.573 78.6572 225.94 75.8102ZM248.604 102.675C247.994 99.9298 245.11 98.1169 242.208 98.7621C239.199 99.4311 237.355 102.295 237.965 105.041C238.576 107.786 241.46 109.599 244.469 108.93C247.37 108.285 249.215 105.42 248.604 102.675Z" fill="black"></path><path d="M162.784 122.53C162.365 121.02 161.6 118.705 161.812 116.654C162.012 114.925 164.562 112.114 166.252 109.573C167.613 107.426 169.036 105.186 170.397 103.039C171.319 101.551 173.014 100.533 174.776 100.943C176.811 101.453 177.713 103.257 177.621 104.72C177.585 106.813 174.563 110.13 173.066 112.788C172.456 113.806 172.342 114.793 172.461 115.328C172.913 118.114 174.46 123.943 174.919 126.006C175.06 127.017 175.968 128.097 177.298 128.443C179.896 129.229 181.5 127.429 182.235 126.223C183.157 124.735 188.434 116.908 189.498 115.308C190.375 113.991 190.649 112.968 190.627 111.369C190.738 108.859 191.011 101.823 191.553 99.3774C191.85 97.7079 192.858 96.602 194.609 96.2126C196.121 95.8763 198.27 96.5211 198.859 98.7953C199.312 100.458 199.788 102.597 200.144 104.202C200.484 105.73 200.988 107.622 201.271 109.644C201.497 111.036 200.524 112.295 200.148 112.86C198.879 114.665 197.655 116.3 196.351 119.076C195.776 120.246 196.16 122.726 198.41 123.829C200.081 124.58 202.933 126.511 204.74 127.874C205.853 128.748 206.408 130.87 205.469 132.281C204.547 133.769 203.074 134.658 200.766 134.049C198.811 133.521 195.232 130.95 193.783 130.069C191.834 128.819 189.224 129.479 188.239 131.061C187.021 133.096 185.307 136.283 183.35 138.001C182.639 138.56 180.989 139.408 179.336 138.733C176.96 137.818 173.705 135.576 172.063 134.578C169.762 133.246 167.33 131.702 165.75 130.61C165.057 130.123 164.359 129.236 164.087 128.013C163.498 125.739 163.158 124.211 162.784 122.53Z" fill="black"></path><path d="M179.014 79.3783C177.6 79.7724 176.389 81.0789 176.41 82.6702C176.418 84.5833 177.529 85.4533 178.702 86.2296C180.517 87.2623 185.213 89.2501 185.913 91.6477C186.658 93.8756 188.264 101.098 188.506 102.561C188.623 104.21 188.223 105.416 186.706 106.471C185.962 106.876 183.152 107.741 181.363 104.947C179.608 102.305 176.331 96.5709 175.573 94.6648C175.098 93.6534 174.584 92.0921 172.173 91.7507C170.8 91.5772 167.803 91.6052 165.283 91.5272C161.68 91.4508 159.875 91.2137 158.377 91.2277C157.963 91.24 155.631 90.8809 155.225 89.0561C154.515 85.8629 153.163 79.7806 152.757 77.9559C152.402 76.3592 153.586 74.1811 155.255 73.8099C157.225 73.2921 174.632 69.4217 177.271 68.9146C180.388 68.3014 183.885 71.2739 187.003 73.2933C189.526 74.8866 191.613 76.0184 193.676 77.7938C195.013 78.9326 195.089 81.1498 194.054 82.4969C193.286 83.5453 191.435 84.5954 189.512 83.8261C188.31 83.2955 184.278 80.9206 182.736 79.9869C181.5 79.3043 180.57 78.8728 179.014 79.3783Z" fill="black"></path><path d="M177.735 50.1614C178.786 55.2624 180.171 60.3727 179.824 62.5338C179.554 63.9275 178.17 65.152 176.987 65.4152C175.33 65.7835 173.874 65.1905 172.969 63.7246C171.72 61.8349 170.217 59.1684 169.021 56.767C167.974 54.6657 167.392 52.7945 166.065 50.9223C165.705 50.4189 164.3 49.3142 162.565 49.7001C161.224 49.9983 160.269 50.544 159.648 51.849C158.905 53.3479 158.803 60.706 158.688 66.1496C158.595 68.3376 157.589 69.395 156.695 69.8438C155.941 70.178 154.715 70.6175 153.144 69.8832C149.116 67.778 142.665 63.7108 139.645 61.2982C138.819 60.5648 138.371 59.6643 138.212 58.9494C137.293 54.8191 136.12 50.6619 135.826 47.4765C135.595 45.6939 136.926 44.2311 138.565 43.7833C141.703 43.0022 147.128 41.7125 149.452 41.3626C151.915 40.8983 153.829 42.8066 155.971 44.2476C158.13 45.768 159.991 46.688 161.569 46.3372C163.602 45.8017 164.818 44.1976 164.438 42.1149C164.164 40.5087 163.101 39.078 160.654 38.8718C157.856 38.577 150.981 38.1884 147.982 38.105C145.238 38.0485 144.34 36.2474 144.075 35.056C143.863 34.1028 144.227 31.2711 146.831 30.6923C148.961 30.2187 154.369 28.8495 157.463 28.2448C158.664 28.0611 159.19 28.1942 159.655 28.4242C162.279 29.4247 168.739 33.9065 173.427 37.1154C174.796 38.0613 174.964 39.1908 175.185 39.8087C175.908 42.3154 177.019 46.5695 177.735 50.1614ZM156.04 54.9851C155.599 52.9994 153.668 51.7616 151.696 52.2001C149.802 52.6211 148.499 54.5781 148.94 56.5638C149.382 58.5496 151.392 59.7698 153.285 59.3488C155.257 58.9103 156.482 56.9709 156.04 54.9851Z" fill="black"></path><path d="M144.213 66.1771C145.429 66.2272 148.61 68.2444 146.864 71.5975C145.638 74.0337 142.317 79.3396 138.793 84.4505C137.507 86.2588 134.529 87.3217 131.814 88.4862C128.964 89.7611 125.943 90.9937 124.555 93.0652C123.797 94.3556 123.855 97.1473 126.246 98.1383C127.862 98.9008 129.989 98.3477 131.147 96.3273C132.586 93.7636 134.502 89.7316 137.242 89.0423C140.731 88.1063 145.878 87.0418 147.733 86.7096C149.528 86.4706 151.476 87.6402 151.858 89.7189C152.189 91.5685 150.742 93.0121 149.925 93.6746C148.503 94.8721 143.235 99.7297 140.196 102.328C137.719 104.562 132.638 109.538 129.048 108.573C126.93 108.083 115.235 101.388 114.284 98.5544C113.4 96.0263 112.229 90.7577 111.66 87.1178C111.38 85.4973 113.356 82.0931 115.484 78.6549C117.809 75.0129 119.997 71.4813 122.107 70.8519C124.064 70.2565 142.273 66.1277 144.213 66.1771ZM128.992 83.7448C128.568 81.8359 126.697 80.6493 124.782 81.075C122.868 81.5007 121.676 83.3683 122.1 85.2773C122.525 87.1862 124.396 88.3728 126.31 87.9471C128.225 87.5215 129.417 85.6538 128.992 83.7448Z" fill="black"></path><path d="M104.783 95.496C104.658 98.2751 102.893 99.2511 101.476 99.5661C99.509 100.004 96.9699 98.9841 96.3966 96.7772C95.6386 94.1112 85.339 47.047 84.8364 45.1579C84.4301 43.3307 85.5095 40.7564 88.3425 40.1265C90.0738 39.7415 91.4052 40.5293 92.3078 41.2456C93.1927 41.8826 98.1327 44.7859 99.289 45.5292C100.699 46.2994 101.679 46.2483 102.702 46.0209C103.882 45.7584 104.974 45.0987 105.567 44.0499C106.544 42.4989 110.04 37.0528 110.424 36.5506C110.886 36.0309 111.558 34.9645 113.21 34.5971C115.178 34.1596 116.334 34.9029 117.815 35.991C120.277 37.7779 129.246 43.2033 130.945 44.1594C131.716 44.655 133.415 45.6111 133.857 47.5971C134.308 49.9978 136.444 58.8603 136.807 60.8638C137.276 63.344 135.565 65.3083 133.677 65.7283C132.024 66.0957 124.015 67.96 120.885 68.7393C119.547 69.0368 118.557 68.6732 117.629 68.2127C116.972 67.8585 111.48 64.3277 110.613 63.7702C109.132 62.6822 108.081 62.4155 106.429 62.783C104.776 63.1505 102.741 64.7701 102.948 67.5586C103.164 70.0118 104.891 92.6375 104.783 95.496ZM121.275 50.8115C120.763 48.5077 118.512 46.9241 116.151 47.4491C113.868 47.9565 112.421 50.3625 112.934 52.6663C113.464 55.0495 115.758 56.4567 118.041 55.9493C120.402 55.4244 121.805 53.1947 121.275 50.8115Z" fill="black"></path><path d="M55.1458 69.4295C55.2725 67.8609 55.6315 55.5762 56.0869 51.2092C56.2013 49.0508 57.4355 47.1175 60.2421 46.375C63.4135 45.6698 72.8145 43.5795 75.6461 42.9499C79.1825 42.2821 81.3077 44.8904 81.5961 46.7221C82.2991 49.8837 84.7723 60.4721 85.136 62.6426C85.7888 65.5783 83.6986 67.939 81.4584 68.5556C79.5329 68.9837 78.3629 68.5329 77.0545 67.9944C74.2491 66.6038 70.098 63.972 68.6641 62.8689C67.6955 62.2548 66.0981 60.9511 63.6063 61.5051C60.3216 62.2355 58.8853 65.3987 59.5007 67.6317C60.9948 73.8167 62.3377 80.3907 63.0155 83.4393C63.7313 86.124 66.3855 87.9037 69.2422 87.387C71.7592 86.9459 72.792 85.1758 73.3209 84.3472C74.3158 82.9411 77.0738 78.773 78.2199 76.9778C79.3911 75.2954 79.958 74.1029 82.4498 73.5489C85.3947 72.8941 88.1493 75.1254 88.4879 77.183C88.9772 79.9181 91.3623 90.6447 91.9397 93.2417C92.4921 95.7257 91.0938 98.525 87.8972 99.1172C84.7258 99.8224 74.985 101.988 72.7197 102.492C70.3411 103.021 68.0892 101.981 67.3098 100.614C65.0719 96.9643 59.126 85.7261 57.7055 83.0796C56.8758 81.4867 54.6999 79.7191 51.8682 80.3487C49.2631 80.928 47.9156 82.8865 47.6249 85.321C47.2711 88.0065 46.5583 102.977 46.4316 104.545C46.2799 106.001 45.4228 108.561 42.2514 109.267C39.1932 109.947 36.4637 107.828 35.9867 105.683C35.1454 102.434 26.1954 61.6474 25.618 59.0504C25.0656 56.5663 26.9421 53.7792 29.7737 53.1496C32.7186 52.4948 34.7562 54.1746 35.5357 55.5418C38.2512 60.2702 41.7332 66.8426 43.9705 71.5588C45.5037 75.2467 48.3599 75.7966 50.6252 75.2929C53.7966 74.5877 54.8551 71.864 55.1458 69.4295Z" fill="black"></path><path d="M306.353 125.699C306.87 125.145 307.411 124.633 307.977 124.162C308.537 123.661 309.129 123.232 309.752 122.873C310.407 122.509 311.069 122.252 311.739 122.103C312.439 121.947 313.17 121.926 313.93 122.039C314.764 122.198 315.463 122.607 316.025 123.266C316.587 123.925 316.91 124.731 316.994 125.685C317.078 126.638 316.876 127.671 316.388 128.783C315.894 129.865 315.01 130.924 313.738 131.959C311.605 133.719 310.062 135.332 309.109 136.799C308.187 138.258 307.671 139.533 307.562 140.623C307.453 141.714 307.656 142.625 308.17 143.357C308.708 144.053 309.341 144.524 310.067 144.77C310.816 144.98 311.577 144.952 312.349 144.686C313.121 144.42 313.698 143.853 314.08 142.984C314.469 142.145 314.825 141.015 315.149 139.595C315.496 138.138 315.823 136.591 316.131 134.955C316.462 133.282 316.805 131.591 317.16 129.881C317.515 128.172 317.918 126.608 318.37 125.191C318.853 123.766 319.37 122.57 319.921 121.6C320.503 120.624 321.19 120.048 321.982 119.872C323.14 119.615 324.299 119.655 325.461 119.992C326.616 120.3 327.684 121.003 328.663 122.102C329.666 123.165 330.543 124.663 331.293 126.598C332.066 128.495 332.647 130.891 333.034 133.784C333.803 139.54 333.48 143.908 332.065 146.888C330.643 149.838 328.246 151.563 324.873 152.062C323.763 152.246 322.647 152.259 321.525 152.1C320.396 151.912 319.346 151.644 318.374 151.296C317.395 150.918 316.549 150.494 315.838 150.025C315.119 149.526 314.624 149.025 314.353 148.521C314.074 147.987 314.047 147.507 314.272 147.081C314.497 146.655 315.075 146.307 316.006 146.037C317.515 145.638 319.009 145.024 320.486 144.194C321.987 143.327 323.386 142.357 324.682 141.285C325.978 140.213 327.117 139.082 328.099 137.892C329.074 136.671 329.79 135.508 330.248 134.403C330.698 133.268 330.851 132.231 330.706 131.291C330.585 130.314 330.045 129.541 329.087 128.97C328.241 128.468 327.507 128.333 326.888 128.565C326.261 128.767 325.695 129.238 325.188 129.978C324.675 130.688 324.189 131.595 323.732 132.701C323.268 133.776 322.756 134.924 322.197 136.146C321.637 137.368 321.002 138.607 320.29 139.863C319.572 141.089 318.717 142.204 317.726 143.208C316.158 144.78 314.548 145.734 312.896 146.07C311.238 146.376 309.719 146.227 308.339 145.625C306.952 144.993 305.769 143.985 304.79 142.604C303.805 141.192 303.189 139.573 302.943 137.746C302.769 136.531 302.729 135.348 302.825 134.198C302.952 133.041 303.171 131.941 303.482 130.9C303.825 129.852 304.236 128.898 304.716 128.039C305.22 127.143 305.766 126.363 306.353 125.699Z" fill="black"></path><path d="M274.672 146.875C274.605 145.889 274.431 144.832 274.15 143.705C273.891 142.542 273.328 141.103 272.459 139.387C272.001 138.425 271.769 137.382 271.763 136.256C271.756 135.131 271.968 134.099 272.398 133.158C272.829 132.217 273.461 131.435 274.297 130.811C275.162 130.181 276.222 129.883 277.478 129.916C278.301 129.921 279.113 130.147 279.913 130.595C280.712 131.043 281.468 131.564 282.178 132.157C282.888 132.75 283.541 133.356 284.135 133.975C284.723 134.564 285.226 135.047 285.645 135.423C286.057 135.769 286.35 135.923 286.524 135.885C286.698 135.846 286.738 135.477 286.643 134.778C286.445 133.477 286.564 132.23 286.999 131.038C287.434 129.846 288.071 128.875 288.909 128.126C289.77 127.34 290.772 126.851 291.917 126.659C293.091 126.46 294.292 126.725 295.519 127.454C295.94 127.704 296.304 127.968 296.609 128.244C296.936 128.484 297.244 128.776 297.534 129.118C297.823 129.461 298.114 129.881 298.408 130.379C298.701 130.877 299.032 131.476 299.401 132.176C299.797 132.996 300.129 133.876 300.399 134.818C300.699 135.752 300.943 136.715 301.133 137.706C301.323 138.696 301.466 139.681 301.562 140.661C301.658 141.641 301.726 142.565 301.767 143.432C301.821 145.047 301.994 146.37 302.284 147.401C302.603 148.425 302.932 149.291 303.272 149.997C303.606 150.674 303.904 151.265 304.169 151.769C304.427 152.244 304.536 152.736 304.497 153.246C304.43 154.45 303.956 155.4 303.076 156.096C302.224 156.786 301.218 157.26 300.058 157.518C298.919 157.74 297.741 157.783 296.524 157.647C295.328 157.475 294.371 157.14 293.651 156.643C292.967 156.169 292.487 155.65 292.209 155.086C291.96 154.515 291.856 153.975 291.895 153.466C291.956 152.92 292.135 152.427 292.433 151.985C292.76 151.537 293.153 151.183 293.613 150.925C294.292 150.555 295.096 150.063 296.025 149.449C296.955 148.836 297.8 148.116 298.56 147.29C299.313 146.434 299.86 145.468 300.199 144.391C300.567 143.308 300.5 142.118 299.999 140.821C299.471 139.405 298.823 138.204 298.055 137.216C297.288 136.229 296.47 135.425 295.601 134.805C294.761 134.178 293.915 133.725 293.061 133.445C292.229 133.13 291.463 132.971 290.763 132.971C290.091 132.963 289.543 133.101 289.119 133.383C288.688 133.635 288.461 133.983 288.437 134.426C288.4 135.217 288.587 135.989 288.998 136.743C289.432 137.46 289.97 138.169 290.613 138.871C291.25 139.543 291.945 140.202 292.697 140.849C293.45 141.495 294.138 142.124 294.761 142.737C295.385 143.349 295.885 143.958 296.263 144.562C296.641 145.166 296.788 145.759 296.705 146.341C296.593 147.211 296.16 147.933 295.405 148.508C294.643 149.053 293.751 149.423 292.729 149.619C291.707 149.815 290.645 149.832 289.543 149.67C288.435 149.479 287.464 149.084 286.631 148.487C285.863 147.907 285.119 147.165 284.401 146.261C283.704 145.32 282.998 144.335 282.282 143.305C281.595 142.269 280.896 141.251 280.187 140.251C279.471 139.221 278.712 138.341 277.91 137.612C277.371 137.106 276.758 136.742 276.069 136.519C275.409 136.291 274.857 136.273 274.412 136.465C273.961 136.628 273.715 137.027 273.674 137.662C273.661 138.291 274.019 139.213 274.745 140.428C275.613 141.862 276.549 143.062 277.556 144.028C278.584 144.957 279.604 145.778 280.616 146.492C281.649 147.17 282.655 147.791 283.633 148.356C284.634 148.884 285.539 149.465 286.35 150.099C287.183 150.696 287.891 151.415 288.474 152.255C289.086 153.089 289.527 154.118 289.799 155.34C289.885 155.728 289.927 156.188 289.923 156.721C289.92 157.253 289.78 157.785 289.502 158.316C289.253 158.841 288.799 159.333 288.14 159.793C287.51 160.246 286.6 160.604 285.411 160.869C282.974 161.411 280.936 161.285 279.298 160.491C277.689 159.691 276.589 158.371 275.997 156.531C275.704 155.626 275.47 154.709 275.293 153.778C275.139 152.811 275.013 151.9 274.914 151.046C274.844 150.185 274.791 149.399 274.755 148.687C274.748 147.969 274.72 147.365 274.672 146.875Z" fill="black"></path><path d="M253.736 135C255.796 134.542 257.827 134.529 259.828 134.962C261.822 135.365 263.639 136.136 265.281 137.276C266.946 138.379 268.376 139.8 269.57 141.541C270.788 143.245 271.639 145.187 272.124 147.367C272.602 149.518 272.654 151.638 272.279 153.727C271.935 155.81 271.246 157.718 270.212 159.453C269.201 161.151 267.882 162.62 266.253 163.859C264.618 165.069 262.77 165.903 260.709 166.362C258.679 166.813 256.667 166.837 254.673 166.434C252.703 165.995 250.886 165.223 249.22 164.12C247.579 162.981 246.146 161.544 244.921 159.81C243.727 158.07 242.891 156.124 242.413 153.974C241.928 151.793 241.861 149.677 242.211 147.624C242.586 145.535 243.279 143.641 244.289 141.943C245.324 140.209 246.643 138.74 248.248 137.537C249.876 136.297 251.706 135.451 253.736 135ZM269.04 158.538C269.395 157.958 269.42 157.2 269.115 156.264C268.811 155.329 268.245 154.311 267.419 153.209C266.593 152.108 265.536 150.98 264.246 149.824C262.95 148.639 261.487 147.507 259.859 146.427C258.262 145.34 256.686 144.421 255.131 143.67C253.576 142.919 252.148 142.374 250.846 142.037C249.575 141.693 248.484 141.575 247.572 141.683C246.66 141.792 246.027 142.137 245.672 142.717C245.323 143.328 245.301 144.1 245.606 145.036C245.935 145.934 246.512 146.934 247.338 148.036C248.164 149.137 249.21 150.284 250.476 151.476C251.765 152.631 253.224 153.748 254.852 154.828C256.449 155.915 258.01 156.837 259.534 157.595C261.083 158.317 262.492 158.85 263.763 159.194C265.065 159.532 266.175 159.661 267.093 159.582C268.036 159.467 268.685 159.119 269.04 158.538Z" fill="black"></path><path d="M214.406 174.534C213.874 173.897 213.654 173.128 213.747 172.227C213.87 171.318 214.076 170.345 214.365 169.305C214.678 168.229 214.72 166.882 214.49 165.266C214.261 163.65 213.489 161.714 212.175 159.457C211.608 158.514 211.07 157.485 210.562 156.371C210.055 155.257 209.678 154.146 209.431 153.036C209.184 151.927 209.094 150.862 209.159 149.841C209.249 148.783 209.611 147.853 210.245 147.051C211.067 145.924 212.244 145.002 213.774 144.284C215.298 143.537 216.997 143.065 218.871 142.868C220.738 142.642 222.688 142.711 224.72 143.078C226.782 143.437 228.779 144.157 230.709 145.238C232.383 146.187 233.844 147.278 235.093 148.51C236.374 149.736 237.471 151.017 238.386 152.355C239.301 153.693 240.055 155.036 240.647 156.383C241.239 157.73 241.699 158.996 242.028 160.181C242.35 161.337 242.545 162.363 242.615 163.26C242.708 164.12 242.721 164.762 242.653 165.186C242.448 166.018 242.04 166.816 241.43 167.581C240.82 168.346 240.066 169.049 239.169 169.689C238.302 170.322 237.338 170.882 236.276 171.37C235.208 171.828 234.116 172.181 233.001 172.428C231.886 172.676 231.158 172.618 230.817 172.253C230.507 171.882 230.355 171.271 230.36 170.42C230.397 169.563 230.475 168.523 230.593 167.301C230.743 166.072 230.688 164.732 230.43 163.279C230.028 160.883 229.389 158.744 228.516 156.862C227.642 154.98 226.63 153.349 225.478 151.969C224.357 150.583 223.165 149.463 221.903 148.612C220.635 147.73 219.37 147.083 218.108 146.671C216.877 146.253 215.719 146.086 214.632 146.17C213.57 146.217 212.685 146.477 211.978 146.949C211.08 147.589 210.614 148.416 210.579 149.431C210.538 150.415 210.768 151.449 211.269 152.533C211.795 153.58 212.497 154.62 213.376 155.651C214.287 156.676 215.238 157.518 216.23 158.178C217.197 158.876 218.237 159.604 219.348 160.364C220.46 161.123 221.504 161.945 222.481 162.829C223.482 163.676 224.377 164.562 225.168 165.487C225.959 166.412 226.514 167.374 226.834 168.373C227.133 169.282 227.136 170.099 226.843 170.825C226.549 171.551 226.105 172.184 225.51 172.726C224.915 173.267 224.239 173.732 223.48 174.121C222.752 174.503 222.101 174.789 221.526 174.98C220.765 175.212 220.044 175.404 219.362 175.555C218.681 175.707 218.033 175.788 217.417 175.799C216.802 175.81 216.245 175.714 215.744 175.51C215.244 175.307 214.798 174.982 214.406 174.534Z" fill="black"></path><path d="M199.776 152.068C201.383 153.032 202.794 154.134 204.008 155.374C205.222 156.614 206.266 157.908 207.141 159.255C208.016 160.602 208.74 161.951 209.312 163.302C209.885 164.653 210.331 165.907 210.648 167.063C210.966 168.22 211.164 169.245 211.242 170.14C211.348 171.029 211.355 171.672 211.262 172.07C211.089 172.927 210.727 173.747 210.174 174.53C209.615 175.284 208.921 175.973 208.091 176.598C207.262 177.223 206.34 177.774 205.326 178.251C204.334 178.692 203.304 179.031 202.237 179.268C201.199 179.499 200.518 179.43 200.193 179.062C199.898 178.687 199.747 178.076 199.74 177.228C199.762 176.374 199.82 175.338 199.912 174.122C199.999 172.876 199.925 171.524 199.692 170.066C199.28 167.672 198.653 165.531 197.809 163.642C196.965 161.753 195.999 160.128 194.909 158.766C193.812 157.374 192.65 156.232 191.423 155.341C190.195 154.45 189.007 153.802 187.857 153.397C186.701 152.962 185.613 152.763 184.592 152.802C183.571 152.84 182.737 153.104 182.089 153.594C181.23 154.225 180.789 155.031 180.765 156.012C180.741 156.993 180.971 158.027 181.455 159.115C181.961 160.166 182.647 161.209 183.513 162.243C184.378 163.278 185.28 164.131 186.216 164.804C187.131 165.513 188.113 166.254 189.163 167.027C190.212 167.801 191.215 168.632 192.169 169.521C193.146 170.373 194.01 171.266 194.763 172.2C195.515 173.134 196.062 174.097 196.404 175.091C196.698 176.001 196.698 176.819 196.405 177.545C196.141 178.264 195.721 178.892 195.144 179.429C194.596 179.96 193.971 180.414 193.267 180.791C192.564 181.167 191.945 181.446 191.41 181.628C190.709 181.878 190.027 182.077 189.363 182.225C188.7 182.372 188.081 182.447 187.506 182.449C186.96 182.445 186.438 182.341 185.938 182.137C185.468 181.927 185.046 181.596 184.673 181.144C184.16 180.472 183.94 179.687 184.013 178.79C184.115 177.886 184.308 176.915 184.592 175.877C184.869 174.809 184.874 173.471 184.607 171.863C184.369 170.248 183.605 168.31 182.316 166.049C181.772 165.1 181.258 164.082 180.774 162.994C180.283 161.876 179.914 160.763 179.668 159.654C179.421 158.544 179.335 157.478 179.41 156.455C179.508 155.395 179.844 154.455 180.418 153.635C181.177 152.554 182.266 151.667 183.686 150.974C185.128 150.244 186.738 149.792 188.515 149.617C190.286 149.412 192.138 149.504 194.071 149.892C196.032 150.273 197.934 150.999 199.776 152.068ZM184.663 157.41C184.929 156.974 185.294 156.641 185.758 156.412C186.244 156.146 186.774 156.013 187.349 156.011C187.917 155.979 188.512 156.067 189.133 156.275C189.748 156.453 190.357 156.742 190.961 157.143C191.564 157.543 192.077 158.011 192.499 158.547C192.943 159.046 193.271 159.57 193.484 160.121C193.726 160.664 193.846 161.204 193.844 161.739C193.836 162.245 193.698 162.716 193.432 163.152C193.166 163.589 192.804 163.937 192.347 164.196C191.884 164.425 191.368 164.555 190.8 164.587C190.225 164.589 189.616 164.504 188.972 164.333C188.351 164.125 187.738 163.821 187.135 163.42C186.531 163.019 186.007 162.57 185.563 162.071C185.141 161.535 184.809 160.996 184.567 160.452C184.354 159.901 184.252 159.374 184.261 158.868C184.263 158.333 184.397 157.847 184.663 157.41Z" fill="black"></path><path d="M134.842 170.206C134.752 168.751 134.498 167.193 134.083 165.533C133.702 163.819 132.858 161.701 131.552 159.178C130.865 157.763 130.523 156.225 130.526 154.564C130.529 152.903 130.865 151.376 131.533 149.982C132.201 148.589 133.177 147.426 134.46 146.496C135.788 145.555 137.41 145.102 139.327 145.137C140.584 145.134 141.82 145.459 143.036 146.11C144.252 146.762 145.399 147.522 146.477 148.389C147.554 149.256 148.543 150.143 149.443 151.05C150.334 151.912 151.096 152.619 151.731 153.17C152.356 153.676 152.801 153.9 153.067 153.841C153.334 153.782 153.399 153.237 153.263 152.206C152.976 150.287 153.172 148.445 153.85 146.68C154.529 144.915 155.513 143.475 156.801 142.358C158.124 141.188 159.661 140.454 161.411 140.157C163.205 139.85 165.036 140.227 166.901 141.288C167.541 141.653 168.093 142.038 168.555 142.442C169.052 142.793 169.519 143.219 169.957 143.722C170.395 144.224 170.835 144.841 171.277 145.573C171.719 146.304 172.217 147.185 172.772 148.214C173.366 149.42 173.864 150.716 174.265 152.102C174.711 153.479 175.073 154.897 175.351 156.357C175.629 157.817 175.836 159.27 175.971 160.715C176.106 162.161 176.2 163.524 176.251 164.803C176.316 167.187 176.563 169.138 176.994 170.656C177.469 172.165 177.962 173.439 178.472 174.478C178.973 175.474 179.422 176.342 179.82 177.084C180.208 177.781 180.369 178.506 180.304 179.259C180.187 181.037 179.452 182.446 178.1 183.484C176.792 184.513 175.25 185.225 173.475 185.619C171.735 185.96 169.936 186.037 168.078 185.851C166.255 185.611 164.797 185.128 163.705 184.402C162.666 183.711 161.938 182.95 161.521 182.121C161.148 181.282 160.994 180.486 161.06 179.733C161.16 178.927 161.44 178.196 161.9 177.54C162.404 176.875 163.008 176.349 163.714 175.961C164.755 175.407 165.988 174.671 167.414 173.755C168.841 172.838 170.139 171.766 171.309 170.537C172.47 169.264 173.315 167.831 173.846 166.238C174.421 164.634 174.333 162.878 173.583 160.97C172.793 158.886 171.818 157.119 170.658 155.671C169.498 154.223 168.258 153.046 166.939 152.14C165.665 151.224 164.377 150.565 163.077 150.163C161.811 149.706 160.644 149.482 159.574 149.489C158.549 149.486 157.711 149.696 157.059 150.117C156.398 150.495 156.047 151.011 156.007 151.666C155.94 152.833 156.216 153.971 156.835 155.078C157.489 156.132 158.302 157.173 159.276 158.202C160.24 159.187 161.293 160.151 162.434 161.097C163.576 162.042 164.619 162.963 165.564 163.86C166.508 164.756 167.265 165.649 167.835 166.536C168.405 167.424 168.623 168.298 168.488 169.158C168.308 170.443 167.638 171.515 166.478 172.372C165.309 173.185 163.942 173.743 162.38 174.044C160.817 174.346 159.195 174.383 157.515 174.157C155.825 173.888 154.348 173.317 153.083 172.445C151.916 171.598 150.79 170.511 149.703 169.185C148.651 167.804 147.585 166.358 146.503 164.846C145.467 163.325 144.412 161.83 143.341 160.362C142.26 158.85 141.111 157.56 139.896 156.493C139.079 155.752 138.147 155.222 137.097 154.902C136.093 154.572 135.25 154.552 134.569 154.841C133.879 155.087 133.498 155.679 133.427 156.617C133.401 157.545 133.935 158.902 135.031 160.687C136.338 162.795 137.754 164.555 139.279 165.969C140.838 167.328 142.386 168.529 143.922 169.571C145.492 170.559 147.02 171.464 148.507 172.287C150.028 173.055 151.404 173.902 152.635 174.828C153.899 175.699 154.972 176.752 155.852 177.986C156.776 179.21 157.438 180.723 157.839 182.525C157.966 183.096 158.024 183.775 158.012 184.561C158.001 185.348 157.78 186.135 157.35 186.922C156.964 187.7 156.265 188.432 155.253 189.118C154.286 189.794 152.893 190.334 151.073 190.739C147.346 191.568 144.236 191.406 141.745 190.254C139.298 189.091 137.633 187.156 136.751 184.447C136.315 183.114 135.968 181.762 135.709 180.389C135.486 178.963 135.303 177.621 135.163 176.361C135.067 175.091 134.995 173.931 134.948 172.88C134.945 171.82 134.91 170.929 134.842 170.206Z" fill="black"></path></svg>