<svg xmlns="http://www.w3.org/2000/svg" width="446" height="293" viewBox="0 0 446 293" fill="none"><path d="M204.965 15.4193C265.305 3.18922 322.004 1.52245 364.949 8.82897C386.409 12.4801 404.627 18.4033 418.172 26.5212C431.719 34.6403 440.918 45.1723 443.534 58.0768L443.534 58.0797L443.68 58.8424L443.68 58.8443C446.605 74.994 438.699 91.6684 423.813 107.286C408.623 123.223 385.637 138.662 357.253 152.277C356.38 152.696 355.181 154.118 354.386 157.452C353.634 160.605 353.447 164.68 353.819 168.948C354.189 173.199 355.095 177.431 356.379 180.868C357.721 184.46 359.251 186.576 360.47 187.374C368.128 192.386 373.492 198.882 375.107 206.851C376.759 215.003 374.201 223.258 368.857 231.01C363.521 238.75 355.241 246.257 344.832 253.185C323.998 267.052 294.009 279.013 259.798 285.947C225.586 292.881 193.307 293.542 168.718 288.881C156.433 286.553 145.883 282.862 137.954 277.811C130.014 272.751 124.443 266.144 122.791 257.992C121.175 250.023 123.587 241.951 128.69 234.352C129.501 233.143 130.086 230.598 129.924 226.767C129.769 223.102 128.956 218.85 127.641 214.791C126.322 210.715 124.563 207.035 122.642 204.423C120.612 201.662 118.955 200.819 117.987 200.773C86.5413 199.285 59.3572 194.016 39.1605 185.251C19.3678 176.662 5.59333 164.381 1.99917 148.367L1.99878 148.365L1.83594 147.606L1.83536 147.603C-0.780219 134.698 3.59231 121.416 12.9085 108.662C22.2233 95.9112 36.6972 83.3619 55.0418 71.6429C91.7528 48.1911 144.626 27.6493 204.965 15.4193Z" fill="white" stroke="#B4B4B4" stroke-width="0.533738"></path><path d="M205.674 18.9091C325.718 -5.42228 430.65 12.4305 440.045 58.7842C446.009 88.2119 412.036 122.052 355.714 149.067C346.247 153.608 349.735 184.604 358.521 190.353C365.661 195.026 370.249 200.803 371.618 207.559C377.219 235.193 326.839 268.726 259.091 282.457C191.343 296.189 131.882 284.919 126.281 257.285C124.912 250.529 126.889 243.422 131.646 236.337C137.5 227.62 128.644 197.713 118.156 197.217C55.7599 194.264 11.2904 176.324 5.32561 146.896C-4.06966 100.542 85.6292 43.2404 205.674 18.9091Z" fill="#B4B4B4"></path><path d="M205.674 18.9091C325.718 -5.42228 430.65 12.4304 440.045 58.7842C446.009 88.2119 412.036 122.052 355.714 149.067C346.247 153.608 349.735 184.604 358.521 190.353C365.661 195.026 370.249 200.803 371.618 207.559C377.219 235.193 326.839 268.726 259.091 282.457C191.343 296.189 131.882 284.919 126.281 257.285C124.912 250.529 126.889 243.422 131.646 236.337C137.5 227.62 128.644 197.713 118.156 197.217C55.7599 194.264 11.2904 176.324 5.32561 146.896C-4.06966 100.542 85.6292 43.2404 205.674 18.9091Z" fill="#424242"></path><circle cx="29.6438" cy="29.6438" r="29.3634" transform="matrix(0.980071 -0.198647 -0.198647 -0.980071 220.195 228.728)" fill="#B4B4B4" stroke="#B4B4B4" stroke-width="0.560723"></circle><path d="M376.868 49.9956L365.895 32.9964L369.637 51.4612L367.52 51.8904L363.285 30.998L366.668 30.3123L377.243 46.801L380.51 27.5067L383.919 26.8158L388.154 47.7082L386.01 48.1426L382.294 29.6726L378.805 49.603L376.868 49.9956Z" fill="white"></path><path d="M343.771 44.5245C348.161 43.6347 350.866 46.2322 351.415 48.9438C352.279 53.2049 350.533 55.3333 345.703 56.3122L337.517 57.9715L333.282 37.0791L335.374 36.6551L337.237 45.8488L343.771 44.5245ZM345.677 54.1935C348.311 53.6596 349.915 52.286 349.386 49.6777C348.957 47.56 346.922 46.0098 344.081 46.5856L337.651 47.889L339.195 55.5073L345.677 54.1935ZM357.17 53.9881L355.078 54.4121L350.843 33.5197L352.935 33.0958L357.17 53.9881Z" fill="white"></path><path d="M321.048 50.0713C324.241 49.908 325.575 52.2455 326.046 54.5698C326.716 57.8754 325.069 60.4945 320.24 61.4733L312.053 63.1326L307.819 42.2402L315.721 40.6385C319.363 39.9005 322.237 42.2754 322.854 45.3227C323.127 46.6656 322.921 48.9658 321.048 50.0713ZM315.52 42.8301L310.329 43.8822L311.774 51.0099C313.453 50.6697 315.674 50.2195 316.939 49.9631C319.831 49.3768 321.203 48.1847 320.664 45.5247C320.24 43.4329 318.49 42.2282 315.52 42.8301ZM320.214 59.3546C322.848 58.8207 324.452 57.4471 323.923 54.8388C323.494 52.7212 321.459 51.171 318.618 51.7467L312.188 53.0501L313.732 60.6684L320.214 59.3546Z" fill="white"></path><path d="M288.23 45.7528C294.195 44.5436 298.912 47.9163 300.273 54.6308C301.901 62.6623 297.389 66.5342 292.637 67.4974C286.646 68.7117 281.934 65.2305 280.594 58.6194C279.914 55.2621 280.35 52.2431 281.843 49.9241C283.238 47.7862 285.492 46.3076 288.23 45.7528ZM292.208 65.3797C297.037 64.4009 299.265 60.6692 298.129 55.0652C296.81 48.5574 292.43 47.1062 288.659 47.8704C284.863 48.6399 281.44 51.9147 282.712 58.1901C284.026 64.6722 288.412 66.1492 292.208 65.3797Z" fill="white"></path><path d="M271.407 49.6201L271.82 51.6602L260.922 53.8691L264.743 72.7213L262.652 73.1453L258.417 52.2529L271.407 49.6201Z" fill="white"></path><path d="M249.66 75.778L247.592 65.5772L235.713 67.985L237.78 78.1858L235.663 78.615L231.428 57.7227L233.546 57.2934L235.305 65.9706L247.184 63.5628L245.425 54.8856L247.543 54.4564L251.778 75.3488L249.66 75.778Z" fill="white"></path><path d="M219.454 62.6769L210.207 83.7746L207.728 84.2771L203.493 63.3848L205.611 62.9555L209.353 81.4204L218.549 60.3331L221.08 59.8202L225.315 80.7125L223.197 81.1417L219.454 62.6769Z" fill="white"></path><path d="M195.034 67.2235L186.279 68.998L190.1 87.8502L187.982 88.2794L184.161 69.4272L175.433 71.1964L175.019 69.1562L194.62 65.1834L195.034 67.2235Z" fill="white"></path><path d="M155.752 75.1855L157.098 81.8225L167.144 79.7864L167.557 81.8265L157.501 83.811L159.165 92.0234L171.096 89.6051L171.505 91.6194L157.482 94.4617L153.247 73.5693L167.27 70.7271L167.684 72.7673L155.752 75.1855Z" fill="white"></path><path d="M132.246 89.8712L140.489 76.1555L143.356 75.5745L137.346 85.5843L148.546 96.2732L145.989 96.7914L136.219 87.4528L132.879 92.996L134.135 99.194L132.044 99.6179L127.809 78.7256L129.901 78.3016L132.246 89.8712Z" fill="white"></path><path d="M111.699 81.9902C116.141 81.0899 119.187 83.7795 119.794 86.7752C120.401 89.7709 118.668 93.2946 114.201 94.2001L107.848 95.4878L109.607 104.165L107.463 104.599L103.229 83.707L111.699 81.9902ZM114.159 92.004C116.199 91.5904 118.236 89.8333 117.702 87.1992C117.158 84.5134 114.556 83.6158 112.542 84.0241L105.801 85.3902L107.419 93.3701L114.159 92.004Z" fill="white"></path><path d="M92.8986 101.315L83.6791 103.183L82.75 109.609L80.529 110.059L84.0936 87.5862L86.4695 87.1047L98.529 106.411L96.2564 106.872L92.8986 101.315ZM85.6793 89.3081L83.9886 100.997L91.7619 99.4211L85.6793 89.3081Z" fill="white"></path><path d="M60.2854 114.162L49.3118 97.1624L53.0544 115.627L50.9367 116.056L46.7021 95.1641L50.0852 94.4784L60.6595 110.967L63.9274 91.6728L67.3363 90.9818L71.5708 111.874L69.4274 112.309L65.7106 93.8386L62.2222 113.769L60.2854 114.162Z" fill="white"></path><path d="M332.173 232.692L321.2 215.693L324.942 234.157L322.824 234.587L318.59 213.694L321.973 213.009L332.547 229.497L335.815 210.203L339.224 209.512L343.459 230.404L341.315 230.839L337.598 212.369L334.11 232.299L332.173 232.692Z" fill="white"></path><path d="M299.037 239.407L296.558 239.91L299.772 229.768L302.225 229.271L299.037 239.407ZM299.606 217.541L308.231 215.793L312.466 236.686L310.297 237.125L308.449 228.009L306.874 228.328L299.772 229.768C298.196 229.818 294.846 229.207 293.956 224.817C293.066 220.426 296.972 218.075 299.606 217.541ZM308.02 225.891L306.502 218.402L299.632 219.795C297.386 220.25 295.618 222.141 296.073 224.387C296.612 227.047 298.284 227.865 301.15 227.284L308.02 225.891Z" fill="white"></path><path d="M281.279 223.784L272.032 244.882L269.552 245.385L265.318 224.492L267.436 224.063L271.178 242.528L280.374 221.441L282.905 220.928L287.139 241.82L285.022 242.249L281.279 223.784Z" fill="white"></path><path d="M252.282 227.133L256.119 246.063L260.303 245.215L261.554 251.387L259.539 251.796L258.686 247.586L240.066 251.36L240.92 255.57L238.905 255.978L237.654 249.806L239.978 249.335L240.856 249.157C243.081 245.937 240.854 234.02 240.041 229.614L252.282 227.133ZM243.646 248.591L254.105 246.471L250.666 229.504L242.479 231.164C242.479 231.164 244.829 242.49 243.646 248.591Z" fill="white"></path><path d="M226.797 232.245L229.055 231.842L223.14 254.791L220.909 255.19L222.869 247.883L213.121 235.071L215.367 234.616L223.472 245.287L226.797 232.245Z" fill="white"></path><path d="M206.133 238.611L197.378 240.386L201.199 259.238L199.082 259.667L195.26 240.815L186.532 242.584L186.118 240.544L205.719 236.571L206.133 238.611Z" fill="white"></path><path d="M179.353 255.735L181.523 255.295C181.652 261.372 177.702 264.431 173.57 265.269C167.578 266.483 162.867 263.002 161.527 256.391C160.846 253.034 161.283 250.014 162.775 247.696C164.17 245.558 166.425 244.079 169.162 243.524C174.069 242.53 178.1 244.643 180.143 249.149L177.973 249.589C176.062 245.863 172.613 245.029 169.592 245.642C165.795 246.411 162.372 249.686 163.644 255.962C164.958 262.444 169.344 263.921 173.14 263.151C177.066 262.356 179.302 259.725 179.353 255.735Z" fill="white"></path><path d="M247.113 97.7455C247.872 101.489 245.6 105.112 242.058 105.83L237.106 106.834L234.354 93.2539L239.306 92.2502C242.848 91.5323 246.354 94.0022 247.113 97.7455ZM235.979 94.2876L238.201 105.249L241.608 104.558C244.093 104.055 246.128 101.51 245.815 98.5853L245.805 98.5349L245.802 98.5181C245.798 98.5013 245.798 98.5013 245.795 98.4846L245.791 98.4678L245.801 98.4308C245.778 98.3133 245.75 98.179 245.72 98.0279C245.713 97.9944 245.703 97.944 245.696 97.9104L245.689 97.8769L245.686 97.8601L245.682 97.8433C244.986 94.8388 242.022 93.0628 239.387 93.597L235.979 94.2876Z" fill="white"></path><path d="M228.463 108.587L217.301 98.3536L219.734 110.356L218.357 110.635L215.605 97.0547L217.535 96.6635L228.68 106.9L226.247 94.8976L227.624 94.6187L230.376 108.199L228.463 108.587Z" fill="white"></path><path d="M201.387 101.316L202.262 105.63L208.791 104.307L209.06 105.633L202.524 106.923L203.606 112.261L211.361 110.689L211.626 111.998L202.511 113.846L199.759 100.266L208.874 98.4182L209.142 99.7443L201.387 101.316Z" fill="white"></path><circle cx="159.93" cy="155.242" r="20.3115" transform="rotate(-11.4578 159.93 155.242)" fill="white"></circle><circle cx="188.983" cy="149.354" r="20.3115" transform="rotate(-11.4578 188.983 149.354)" fill="white"></circle><circle cx="218.036" cy="143.465" r="20.3115" transform="rotate(-11.4578 218.036 143.465)" fill="white"></circle><circle cx="247.089" cy="137.576" r="20.3115" transform="rotate(-11.4578 247.089 137.576)" fill="white"></circle><circle cx="276.141" cy="131.688" r="20.3115" transform="rotate(-11.4578 276.141 131.688)" fill="white"></circle><circle cx="305.195" cy="125.8" r="20.3115" transform="rotate(-11.4578 305.195 125.8)" fill="white"></circle><path d="M313.667 134.724L296.495 118.981L300.238 137.446L298.12 137.875L293.885 116.983L296.855 116.381L314.001 132.129L310.258 113.664L312.376 113.235L316.611 134.127L313.667 134.724Z" fill="#B4B4B4"></path><path d="M277.799 133.391L277.386 131.351L285.882 129.629L287.971 139.933L286.163 140.299L285.387 138.064C284.039 140.165 281.831 141.607 278.99 142.183C272.999 143.398 268.287 139.916 266.947 133.305C266.267 129.948 266.703 126.929 268.196 124.61C269.591 122.472 271.845 120.993 274.583 120.439C278.792 119.585 282.599 120.992 285.013 125.342L282.792 125.792C280.909 122.732 277.749 122.001 275.012 122.556C271.216 123.326 267.788 126.575 269.065 132.876C270.389 139.41 275.049 140.777 278.561 140.066C281.376 139.495 285.272 137.495 284.178 132.098L277.799 133.391Z" fill="#B4B4B4"></path><path d="M250.74 147.479L248.623 147.908L244.388 127.016L246.506 126.587L250.74 147.479Z" fill="#B4B4B4"></path><path d="M212.56 138.844C213.816 145.042 225.373 137.86 227.085 146.305C227.635 149.017 226.399 152.87 220.769 154.011C215.759 155.026 212.475 151.955 211.858 148.907L213.975 148.478C214.42 150.673 216.983 152.574 220.547 151.851C224.395 151.071 225.386 148.666 224.941 146.471C223.748 140.583 212.159 147.744 210.427 139.196C209.804 136.123 211.817 133.187 216.259 132.287C220.417 131.444 223.517 133.478 224.245 137.067L222.127 137.496C221.661 135.198 219.58 133.819 216.688 134.405C213.847 134.981 212.1 136.572 212.56 138.844Z" fill="#B4B4B4"></path><path d="M183.407 141.499L184.753 148.136L194.799 146.1L195.212 148.14L185.156 150.125L186.82 158.337L198.751 155.919L199.16 157.933L185.137 160.775L180.902 139.883L194.925 137.041L195.339 139.081L183.407 141.499Z" fill="#B4B4B4"></path><path d="M170.72 152.836C171.888 158.595 168.393 164.17 162.944 165.274L155.326 166.818L151.091 145.926L158.709 144.382C164.158 143.277 169.553 147.077 170.72 152.836ZM153.591 147.516L157.009 164.38L162.252 163.318C166.074 162.543 169.206 158.628 168.724 154.128L168.708 154.051L168.703 154.025C168.698 153.999 168.698 153.999 168.692 153.973L168.687 153.947L168.702 153.891C168.666 153.71 168.624 153.503 168.577 153.271C168.566 153.219 168.551 153.142 168.54 153.09L168.53 153.038L168.524 153.012L168.519 152.987C167.448 148.364 162.888 145.632 158.834 146.454L153.591 147.516Z" fill="#B4B4B4"></path><path d="M263.813 189.686C264.382 192.494 264.392 195.248 263.843 197.947C263.288 200.618 262.249 203.081 260.728 205.339C259.235 207.59 257.353 209.494 255.08 211.051C252.836 212.602 250.311 213.662 247.503 214.231C244.695 214.8 241.941 214.81 239.242 214.261C236.572 213.706 234.096 212.685 231.816 211.199C229.558 209.677 227.654 207.794 226.103 205.551C224.546 203.278 223.483 200.738 222.914 197.93C222.345 195.122 222.338 192.383 222.893 189.713C223.442 187.013 224.463 184.538 225.955 182.287C227.471 180 229.351 178.081 231.594 176.53C233.867 174.974 236.407 173.911 239.215 173.341C242.023 172.772 244.762 172.765 247.432 173.32C250.132 173.869 252.61 174.905 254.868 176.426C257.148 177.913 259.067 179.793 260.624 182.065C262.175 184.309 263.235 186.834 263.804 189.642L263.813 189.686ZM239.456 174.754C236.824 175.288 234.453 176.286 232.344 177.749C230.258 179.176 228.516 180.946 227.116 183.056C225.746 185.161 224.798 187.469 224.272 189.981C223.769 192.458 223.785 195.013 224.318 197.646C224.852 200.278 225.835 202.652 227.269 204.767C228.726 206.846 230.51 208.586 232.62 209.985C234.731 211.384 237.025 212.335 239.502 212.838C242.014 213.364 244.586 213.361 247.218 212.827C249.851 212.293 252.207 211.298 254.287 209.841C256.402 208.408 258.159 206.636 259.558 204.525C260.957 202.415 261.908 200.121 262.411 197.644C262.937 195.132 262.933 192.559 262.4 189.927C261.866 187.295 260.871 184.938 259.414 182.859C257.981 180.744 256.209 178.987 254.098 177.587C251.987 176.188 249.679 175.24 247.173 174.743C244.69 174.211 242.132 174.212 239.5 174.745L239.456 174.754ZM240.601 183.109C240.819 183.43 241.112 183.904 241.483 184.529C241.876 185.119 242.282 185.768 242.699 186.475C243.117 187.182 243.496 187.851 243.837 188.482C244.201 189.078 244.478 189.54 244.666 189.867L242.185 191.375C241.985 190.989 241.7 190.484 241.33 189.858C240.989 189.227 240.612 188.573 240.201 187.895C239.784 187.188 239.378 186.539 238.984 185.949C238.614 185.324 238.32 184.85 238.103 184.529L240.601 183.109ZM253.435 182.655C253.372 182.942 253.328 183.255 253.306 183.594C253.277 183.905 253.24 184.171 253.194 184.393C253.109 185.629 252.952 186.955 252.721 188.372C252.491 189.789 252.181 191.191 251.793 192.579C251.404 193.967 250.925 195.283 250.354 196.525C249.627 198.043 248.758 199.467 247.749 200.798C246.763 202.094 245.748 203.244 244.703 204.247C243.658 205.251 242.686 206.088 241.786 206.757L238.832 205.026C239.86 204.392 240.929 203.581 242.039 202.595C243.171 201.574 244.237 200.444 245.234 199.207C246.261 197.963 247.124 196.662 247.823 195.302C248.684 193.544 249.294 191.518 249.651 189.222C250.037 186.921 250.207 184.679 250.16 182.496L253.435 182.655ZM232.92 186.676C233.29 187.149 233.763 187.829 234.339 188.718C234.938 189.571 235.525 190.441 236.101 191.329C236.706 192.211 237.191 192.951 237.555 193.547L235.102 195.186C234.866 194.777 234.546 194.248 234.141 193.599C233.729 192.921 233.285 192.235 232.81 191.54C232.328 190.815 231.875 190.161 231.452 189.577C231.059 188.987 230.745 188.563 230.51 188.306L232.92 186.676Z" fill="white"></path></svg>