<svg xmlns="http://www.w3.org/2000/svg" width="1359" height="426" viewBox="0 0 1359 426" fill="none"><path d="M1300.43 205.672L1305.46 318.294L1267.22 320.004L1262.18 207.382L1300.43 205.672ZM1203.77 292.03C1205.43 291.955 1206.95 291.566 1208.34 290.862C1209.78 290.156 1211.02 289.234 1212.06 288.096C1213.1 286.958 1213.91 285.67 1214.49 284.232C1215.07 282.73 1215.32 281.146 1215.24 279.481C1215.17 277.815 1214.78 276.292 1214.07 274.911C1213.37 273.466 1212.44 272.224 1211.31 271.183C1210.17 270.143 1208.85 269.336 1207.35 268.761C1205.91 268.183 1204.36 267.932 1202.69 268.006L1141.19 270.756L1142.27 294.779L1203.77 292.03ZM1208.62 236.834C1214.51 236.57 1220.1 237.443 1225.39 239.453C1230.74 241.461 1235.43 244.332 1239.45 248.068C1243.53 251.737 1246.81 256.148 1249.28 261.301C1251.76 266.39 1253.13 271.881 1253.39 277.775C1253.65 283.669 1252.78 289.292 1250.77 294.646C1248.76 299.935 1245.89 304.621 1242.16 308.703C1238.49 312.719 1234.08 315.965 1228.92 318.442C1223.83 320.917 1218.34 322.286 1212.45 322.549L1105.3 327.34L1100.26 214.526L1138.6 212.812L1139.81 239.91L1208.62 236.834Z" fill="black"></path><path d="M1043.66 217.057C1049.56 216.793 1055.15 217.667 1060.44 219.677C1065.79 221.684 1070.48 224.556 1074.5 228.292C1078.58 231.961 1081.85 236.372 1084.33 241.524C1086.81 246.613 1088.17 252.104 1088.44 257.998C1088.7 263.956 1087.83 269.58 1085.82 274.869C1083.81 280.158 1080.94 284.844 1077.21 288.927C1073.54 292.942 1069.12 296.189 1063.97 298.666C1058.88 301.14 1053.39 302.509 1047.5 302.772L978.694 305.849L979.905 332.947L941.564 334.661L936.52 221.848L1043.66 217.057ZM1050.29 259.704C1050.21 258.038 1049.83 256.515 1049.12 255.134C1048.42 253.69 1047.49 252.447 1046.36 251.407C1045.22 250.366 1043.9 249.559 1042.4 248.984C1040.96 248.406 1039.41 248.155 1037.74 248.229L976.24 250.979L977.319 275.099L1038.82 272.349C1040.48 272.274 1042.01 271.885 1043.39 271.182C1044.83 270.475 1046.08 269.553 1047.12 268.415C1048.16 267.278 1048.96 265.958 1049.54 264.456C1050.11 262.953 1050.36 261.37 1050.29 259.704Z" fill="black"></path><path d="M919.438 335.652L778.372 341.959L778.364 341.767L773.328 229.145L914.394 222.838L915.575 249.263L812.851 253.857L813.603 270.673L910.658 266.333L911.835 292.663L814.78 297.003L815.532 313.819L918.256 309.226L919.438 335.652Z" fill="black"></path><path d="M698.721 289.096L767.351 342.451L714.403 344.818L673.209 312.864L635.03 348.367L596.977 350.069L591.941 237.447L630.283 235.733L633.29 302.998L709.368 232.197L762.315 229.829L698.721 289.096Z" fill="black"></path><path d="M526.5 240.374L564.553 238.673L569.589 351.294L531.248 353.009L528.244 285.839L446.973 356.777L408.92 358.478L403.885 245.857L442.226 244.142L445.234 311.408L526.5 240.374Z" fill="black"></path><path d="M388.136 276.794L331.633 279.32L335.32 361.769L296.978 363.483L293.292 281.035L236.789 283.561L235.439 253.388L386.787 246.621L388.136 276.794Z" fill="black"></path><path d="M154.788 286.169C151.008 286.338 147.204 286.668 143.374 287.16C139.542 287.589 135.849 288.267 132.296 289.196C128.804 290.059 125.518 291.2 122.436 292.622C119.418 294.041 116.768 295.796 114.487 297.888C112.27 299.977 110.521 302.495 109.24 305.44C108.021 308.319 107.465 311.682 107.573 315.529C107.893 319.815 108.921 323.428 110.657 326.367C112.457 329.304 114.749 331.737 117.531 333.667C120.31 335.532 123.456 336.964 126.967 337.963C130.477 338.961 134.104 339.666 137.845 340.076C141.586 340.486 145.319 340.705 149.043 340.731C152.765 340.693 156.227 340.602 159.43 340.459C160.904 340.393 163.018 340.298 165.772 340.175C168.524 339.988 171.657 339.72 175.172 339.37C178.751 339.017 182.584 338.589 186.669 338.085C190.819 337.579 195.028 336.973 199.298 336.269C203.628 335.498 207.889 334.601 212.08 333.579C216.332 332.49 220.29 331.286 223.954 329.967L225.294 359.948C214.672 363.569 203.784 366.27 192.631 368.053C181.474 369.771 170.126 370.792 158.586 371.115C157.497 371.164 156.44 371.211 155.415 371.257C154.457 371.364 153.434 371.442 152.345 371.491C145.81 371.783 139.263 371.787 132.703 371.502C126.146 371.282 119.855 370.568 113.831 369.361C107.805 368.09 102.138 366.257 96.8318 363.863C91.5865 361.401 86.946 358.111 82.9103 353.99C78.9387 349.867 75.7278 344.811 73.2776 338.823C70.8914 332.831 69.5121 325.672 69.1397 317.343L69.1354 317.247C68.7602 308.855 69.5256 301.567 71.4316 295.384C73.3347 289.137 76.0801 283.782 79.6679 279.321C83.3197 274.857 87.6815 271.196 92.7531 268.337C97.8859 265.412 103.398 263.079 109.29 261.339C115.243 259.532 121.508 258.225 128.083 257.418C134.659 256.61 141.214 256.06 147.748 255.768C154.09 255.485 160.276 255.304 166.307 255.227C172.401 255.147 178.44 255.262 184.424 255.573C190.408 255.883 196.403 256.449 202.409 257.272C208.416 258.095 214.566 259.264 220.86 260.78L222.205 290.857C218.892 289.978 215.393 289.236 211.707 288.63C208.021 288.025 204.277 287.551 200.474 287.207C196.733 286.797 192.995 286.482 189.263 286.264C185.53 286.046 181.962 285.916 178.558 285.876C170.591 285.719 162.668 285.816 154.788 286.169Z" fill="black"></path><path d="M1308 163.279L1166.94 169.587L1166.93 169.395L1161.89 56.7729L1302.96 50.4655L1304.14 76.8912L1201.42 81.4843L1202.17 98.3007L1299.22 93.9611L1300.4 120.291L1203.35 124.63L1204.1 141.447L1306.82 136.854L1308 163.279Z" fill="black"></path><path d="M1096.19 59.9037L1134.24 58.2022L1139.28 170.824L1100.94 172.538L1097.94 105.369L1016.66 176.307L978.612 178.008L973.576 65.3862L1011.92 63.6719L1014.93 130.937L1096.19 59.9037Z" fill="black"></path><path d="M907.584 68.3372L945.925 66.6228L950.961 179.245L733.309 188.976L728.273 76.3547L766.615 74.6404L770.301 157.089L821.615 154.794L817.929 72.346L856.27 70.6316L859.957 153.08L911.271 150.786L907.584 68.3372Z" fill="black"></path><path d="M679.493 148.44C679.418 146.774 679.029 145.251 678.325 143.87C677.619 142.426 676.697 141.183 675.559 140.143C674.421 139.102 673.101 138.295 671.599 137.72C670.161 137.142 668.61 136.891 666.944 136.965L605.444 139.715L606.518 163.738L668.018 160.989C669.684 160.914 671.207 160.525 672.588 159.821C674.032 159.115 675.275 158.193 676.315 157.055C677.356 155.917 678.165 154.629 678.742 153.191C679.317 151.689 679.567 150.105 679.493 148.44ZM672.868 105.793C678.762 105.529 684.353 106.402 689.642 108.413C694.996 110.42 699.682 113.292 703.7 117.027C707.78 120.696 711.058 125.107 713.535 130.26C716.009 135.349 717.378 140.84 717.642 146.734C717.905 152.628 717.034 158.251 715.026 163.605C713.016 168.894 710.144 173.58 706.411 177.663C702.739 181.678 698.327 184.924 693.174 187.402C688.085 189.876 682.594 191.245 676.7 191.508L569.556 196.299L564.512 83.485L602.853 81.7706L604.065 108.869L672.868 105.793Z" fill="black"></path><path d="M545.286 84.5368L550.322 197.159L511.98 198.873L508.294 116.425L449.677 119.046C448.945 128.514 448.105 137.731 447.158 146.696C446.272 155.594 445.266 163.951 444.139 171.769C443.269 178.163 441.968 183.517 440.235 187.831C438.566 192.142 436.09 195.622 432.807 198.273C429.523 200.923 425.278 202.878 420.07 204.138C414.866 205.462 408.324 206.3 400.444 206.652C398.843 206.724 397.176 206.766 395.443 206.78C393.777 206.854 392.014 206.901 390.154 206.92L388.822 177.131C389.462 177.102 390.361 177.094 391.517 177.107C392.737 177.116 394.048 177.026 395.452 176.834C396.853 176.579 398.28 176.194 399.733 175.68C401.248 175.099 402.624 174.299 403.863 173.281C405.162 172.196 406.225 170.832 407.05 169.191C407.936 167.482 408.484 165.371 408.692 162.859C409.271 155.708 409.821 149.328 410.34 143.72C410.857 138.049 411.349 132.538 411.815 127.19C412.28 121.777 412.735 116.172 413.182 110.375C413.693 104.575 414.165 97.9099 414.599 90.3802L545.286 84.5368Z" fill="black"></path><path d="M299.201 179.597C304.903 179.342 310.59 178.767 316.263 177.872C321.997 176.909 327.128 175.364 331.654 173.236C336.181 171.108 339.807 168.217 342.532 164.565C345.318 160.846 346.645 156.068 346.513 150.233C346.344 146.453 345.491 143.186 343.956 140.43C342.485 137.671 340.552 135.351 338.156 133.468C335.759 131.521 332.961 129.977 329.765 128.836C326.569 127.695 323.16 126.821 319.538 126.212C315.916 125.604 312.145 125.259 308.226 125.177C304.368 125.029 300.548 125.007 296.765 125.112C292.985 125.281 289.149 125.613 285.255 126.108C281.426 126.6 277.735 127.311 274.182 128.24C270.693 129.167 267.407 130.34 264.325 131.762C261.244 133.184 258.563 134.972 256.285 137.128C254.067 139.218 252.349 141.701 251.13 144.58C249.91 147.459 249.353 150.79 249.458 154.573C249.758 158.411 250.645 161.741 252.119 164.564C253.655 167.319 255.621 169.671 258.019 171.617C260.414 173.5 263.178 175.014 266.31 176.157C269.507 177.298 272.914 178.141 276.533 178.685C280.152 179.229 283.891 179.576 287.749 179.724C291.604 179.809 295.422 179.766 299.201 179.597ZM299.206 179.693C299.334 179.688 299.366 179.686 299.302 179.689C299.299 179.625 299.265 179.594 299.201 179.597C299.137 179.6 299.107 179.634 299.11 179.698C299.11 179.698 299.142 179.696 299.206 179.693ZM295.399 94.5544C302.248 94.1198 309.139 93.9079 316.072 93.9189C323.069 93.927 329.799 94.4284 336.263 95.4232C342.79 96.4152 348.929 98.0343 354.678 100.281C360.427 102.527 365.481 105.735 369.84 109.905C374.196 114.011 377.702 119.214 380.359 125.515C383.08 131.812 384.61 139.479 384.95 148.514C385.407 157.288 384.559 164.9 382.409 171.351C380.322 177.8 377.293 183.263 373.32 187.741C369.348 192.22 364.602 195.898 359.082 198.777C353.559 201.591 347.593 203.816 341.182 205.45C334.836 207.082 328.179 208.214 321.211 208.847C314.309 209.541 307.428 209.977 300.568 210.155C293.783 210.587 286.89 210.767 279.89 210.694C272.893 210.686 266.129 210.154 259.599 209.098C253.133 208.039 247.023 206.355 241.271 204.044C235.58 201.667 230.525 198.427 226.105 194.324C221.749 190.218 218.244 185.047 215.59 178.81C212.936 172.574 211.413 165.068 211.021 156.291C210.617 147.258 211.457 139.486 213.541 132.974C215.625 126.461 218.652 120.966 222.625 116.488C226.658 111.942 231.406 108.296 236.867 105.548C242.393 102.798 248.33 100.639 254.679 99.0711C261.092 97.5005 267.783 96.399 274.752 95.7664C281.72 95.1339 288.602 94.7299 295.399 94.5544Z" fill="black"></path><path d="M167.14 179.436C167.037 177.13 166.117 175.213 164.38 173.686C162.704 172.092 160.713 171.347 158.406 171.45L91.7174 174.432L92.465 191.152L159.154 188.17C161.46 188.067 163.378 187.179 164.908 185.506C166.499 183.766 167.243 181.743 167.14 179.436ZM205.386 177.726C205.6 182.531 204.873 187.089 203.205 191.4C201.6 195.708 199.298 199.502 196.3 202.782C193.301 206.061 189.729 208.724 185.584 210.771C181.5 212.751 177.056 213.848 172.251 214.063L55.3052 219.292L50.2695 106.671L195.947 100.157L197.129 126.583L89.7925 131.382L90.5358 148.006L169.14 144.491C173.945 144.277 178.471 145.005 182.718 146.677C187.026 148.281 190.82 150.583 194.1 153.582C197.379 156.58 200.01 160.154 201.993 164.302C204.04 168.447 205.171 172.922 205.386 177.726Z" fill="black"></path><path d="M1262.2 207.383L1267.23 320.004L1305.48 318.294L1300.44 205.673L1262.2 207.383ZM1202.71 268.006C1204.37 267.932 1205.92 268.184 1207.36 268.761C1208.86 269.336 1210.18 270.144 1211.32 271.184C1212.46 272.224 1213.38 273.467 1214.09 274.912C1214.79 276.292 1215.18 277.815 1215.26 279.481L1215.27 280.102C1215.26 281.541 1215.01 282.919 1214.51 284.233C1213.93 285.671 1213.12 286.958 1212.08 288.096C1211.04 289.234 1209.8 290.157 1208.35 290.863C1206.97 291.567 1205.45 291.955 1203.78 292.03L1142.28 294.78L1141.21 270.756L1202.71 268.006ZM1353.53 316.146L1353.57 317.387C1354.07 343.379 1333.75 365.173 1307.63 366.341L1269.38 368.051C1261.15 368.419 1253.31 366.693 1246.37 363.347C1236.19 367.747 1225.49 370.11 1214.61 370.596L1107.47 375.387C1080.93 376.573 1058.46 356.024 1057.27 329.489L1056.02 301.551C1058.77 300.867 1061.42 299.905 1063.97 298.666C1069.13 296.189 1073.54 292.943 1077.21 288.927C1080.94 284.845 1083.81 280.159 1085.82 274.87C1087.83 269.581 1088.71 263.956 1088.44 257.999C1088.18 252.105 1086.81 246.614 1084.33 241.525C1081.86 236.372 1078.58 231.961 1074.5 228.292C1070.48 224.556 1065.79 221.684 1060.44 219.677C1057.79 218.67 1055.07 217.948 1052.27 217.512L1052.23 216.675C1051.04 190.14 1071.59 167.667 1098.13 166.48L1100.67 166.366L1100.94 172.539L1136.74 170.939L1138.62 212.812L1100.28 214.527L1105.32 327.34L1212.46 322.549C1218.36 322.286 1223.85 320.917 1228.94 318.443C1234.09 315.966 1238.5 312.719 1242.17 308.704C1245.91 304.621 1248.78 299.936 1250.79 294.646C1252.8 289.293 1253.67 283.669 1253.41 277.775C1253.14 271.881 1251.77 266.391 1249.3 261.302C1246.82 256.149 1243.54 251.737 1239.46 248.068C1235.44 244.333 1230.76 241.461 1225.41 239.453C1220.12 237.443 1214.53 236.571 1208.63 236.834L1139.83 239.911L1136.74 170.939L1139.28 170.825L1139.01 164.717C1156.99 164.849 1172.81 174.941 1180.93 189.93L1206.48 188.788C1210.25 188.619 1214.01 188.676 1217.76 188.967C1221.63 179.636 1228.37 171.752 1236.92 166.459L1308.02 163.28L1307.79 158.134C1329.99 161.541 1347.45 180.225 1348.49 203.525L1353.53 316.146Z" fill="white"></path><path d="M914.395 222.837L888.473 223.997C887.669 206.027 896.835 189.923 911.076 181.028L950.963 179.245L950.687 173.072L978.336 171.836L978.612 178.009L1016.67 176.307L1024.13 169.788L1041.52 169.011C1053.68 168.467 1065.84 170.278 1077.52 174.719L1077.52 174.72C1088.3 178.79 1098.26 184.795 1106.95 192.798C1113.68 198.903 1119.3 205.864 1123.81 213.474L1100.27 214.526L1105.32 327.34L1106.78 327.274C1100.21 333.24 1092.87 338.11 1085 341.918L1085 341.919C1084.98 341.931 1084.95 341.942 1084.93 341.953C1084.89 341.973 1084.85 341.993 1084.81 342.013L1084.81 342.011C1073.62 347.416 1061.74 350.278 1049.65 350.819L1024.09 351.962C1017.03 368.349 1001.08 380.143 982.053 380.994L943.712 382.708C917.177 383.895 894.703 363.345 893.517 336.81L919.439 335.651L918.257 309.225L892.335 310.384L891.583 293.567L911.836 292.662L910.659 266.332L890.406 267.238L889.654 250.422L915.576 249.263L914.395 222.837ZM1037.74 248.229C1039.41 248.155 1040.96 248.407 1042.4 248.984C1043.9 249.559 1045.22 250.366 1046.36 251.407C1047.49 252.447 1048.41 253.69 1049.12 255.135C1049.82 256.515 1050.21 258.038 1050.29 259.704L1050.3 260.325C1050.3 261.764 1050.04 263.142 1049.54 264.456C1048.96 265.958 1048.16 267.277 1047.12 268.415C1046.08 269.553 1044.83 270.476 1043.39 271.182C1042.01 271.886 1040.48 272.274 1038.82 272.349L977.318 275.099L976.24 250.979L1037.74 248.229ZM941.564 334.662L979.905 332.947L978.693 305.849L1047.5 302.772C1053.39 302.509 1058.88 301.14 1063.97 298.666C1069.12 296.189 1073.54 292.942 1077.21 288.927C1080.94 284.844 1083.81 280.159 1085.82 274.869C1087.83 269.58 1088.7 263.956 1088.44 257.998C1088.17 252.104 1086.81 246.613 1084.33 241.525C1081.85 236.372 1078.58 231.96 1074.5 228.291C1070.48 224.556 1065.79 221.684 1060.44 219.676C1055.15 217.666 1049.56 216.794 1043.66 217.057L936.519 221.848L941.564 334.662Z" fill="white"></path><path d="M936.092 179.91C951.07 187.498 961.636 202.72 962.44 220.689L936.518 221.848L941.562 334.662L967.484 333.503C968.67 360.038 948.121 382.511 921.585 383.698L780.52 390.005C753.984 391.192 731.511 370.642 730.325 344.107L767.351 342.451L728.915 312.569L726.699 263.021L762.315 229.829L725.289 231.485L725.281 231.293L725.241 230.052C724.903 212.584 733.972 197.015 747.884 188.325L936.092 179.91ZM773.327 229.145L778.372 341.959L919.437 335.651L918.255 309.226L815.531 313.819L814.779 297.002L911.834 292.662L910.657 266.333L813.602 270.672L812.85 253.856L915.574 249.263L914.393 222.838L773.327 229.145Z" fill="white"></path><path d="M733.042 182.996L733.309 188.978L783.647 186.727C793.789 191.748 802.08 200.302 806.661 211.215C808.875 216.488 810.089 221.994 810.356 227.49L773.328 229.146L775.739 283.062L772.818 285.783L775.97 288.233L778.372 341.959L815.399 340.304C815.648 345.863 814.936 351.523 813.181 357.036C807.07 376.24 789.634 389.598 769.5 390.499L716.552 392.866C705.508 393.36 694.643 390.034 685.777 383.467L684.926 382.821L676.028 375.918L667.782 383.588C659.426 391.359 648.579 395.905 637.179 396.415L599.125 398.117C572.59 399.303 550.117 378.754 548.93 352.218L569.588 351.295L564.552 238.672L543.894 239.596C543.036 220.396 553.559 203.325 569.494 194.903L569.556 196.3L651.63 192.63C657.81 195.698 663.254 200.058 667.589 205.377L676.602 196.991L677.393 196.271C680.125 193.84 683.107 191.745 686.276 190.011C688.652 189.352 690.952 188.483 693.174 187.402C694.043 186.985 694.889 186.542 695.715 186.081C699.431 184.981 703.293 184.326 707.219 184.15L733.042 182.996ZM596.977 350.07L635.031 348.368L673.208 312.865L714.403 344.819L767.352 342.452L698.722 289.098L762.316 229.83L709.368 232.197L633.29 302.999L630.282 235.733L591.941 237.448L596.977 350.07Z" fill="white"></path><path d="M526.498 240.373L445.231 311.408L442.224 244.142L403.883 245.856L408.918 358.478L446.972 356.777L528.243 285.839L531.246 353.009L569.587 351.294L564.552 238.672L526.498 240.373ZM596.977 350.07L617.634 349.146L617.674 350.387C618.177 376.379 597.856 398.173 571.736 399.341L533.395 401.055C516.574 401.808 501.387 393.824 492.219 381.12L478.598 393.01C470.393 400.172 460.001 404.337 449.121 404.824L411.067 406.525C384.531 407.711 362.058 387.162 360.872 360.627L357.185 278.178L388.134 276.794L386.785 246.62L355.836 248.004C354.834 225.6 369.328 206.091 389.837 199.846L390.153 206.92C392.013 206.901 393.777 206.855 395.442 206.78C397.175 206.767 398.843 206.724 400.444 206.653C408.324 206.301 414.865 205.463 420.07 204.139C425.277 202.879 429.523 200.923 432.806 198.273C433.556 197.668 434.262 197.017 434.928 196.325L440.075 196.095C456.9 195.343 472.088 203.331 481.256 216.04L494.847 204.162L495.622 203.499C500.413 199.488 505.91 196.474 511.789 194.585L511.981 198.874L550.322 197.159L550.054 191.177L562.403 190.625C564.741 190.521 567.047 190.588 569.31 190.811L569.556 196.299L585.899 195.568C601.063 203.095 611.789 218.414 612.599 236.524L591.941 237.447L596.977 350.07Z" fill="white"></path><path d="M243.457 204.886C248.565 206.769 253.946 208.173 259.599 209.098C266.13 210.154 272.893 210.687 279.89 210.695C286.89 210.768 293.783 210.587 300.568 210.155C307.428 209.977 314.309 209.542 321.21 208.848C328.179 208.215 334.837 207.082 341.183 205.451C346.787 204.021 352.053 202.141 356.979 199.81L384.637 198.573C386.371 198.496 388.087 198.514 389.782 198.617L390.153 206.92C392.014 206.901 393.777 206.854 395.442 206.78C397.175 206.767 398.843 206.724 400.444 206.653C404.682 206.463 408.532 206.131 411.996 205.66C425.092 213.737 434.093 227.942 434.832 244.472L403.883 245.856L407.24 320.94C402.018 323.201 396.306 324.571 390.283 324.84L381.827 325.219L383.365 359.621L383.404 360.862C383.907 386.853 363.587 408.648 337.466 409.816L299.124 411.53C272.589 412.716 250.116 392.167 248.929 365.632L247.391 331.23L238.935 331.608C212.576 332.786 190.228 312.517 188.769 286.238C188.933 286.247 189.098 286.254 189.262 286.264C192.995 286.482 196.732 286.797 200.473 287.207C204.276 287.551 208.02 288.025 211.706 288.63C215.391 289.236 218.892 289.978 222.205 290.857L220.86 260.779C214.565 259.264 208.415 258.095 202.408 257.272C197.398 256.586 192.395 256.079 187.4 255.75L187.391 255.536C186.204 229.001 206.754 206.527 233.289 205.341L243.457 204.886ZM235.437 253.387L236.786 283.561L293.289 281.034L296.976 363.483L335.318 361.769L331.632 279.32L388.134 276.794L386.785 246.62L235.437 253.387Z" fill="white"></path><path d="M190.643 207.766C196.746 208.171 202.844 208.788 208.933 209.622L208.934 209.622C216.636 210.677 224.368 212.155 232.12 214.022C250.734 218.505 264.691 233.51 268.132 251.926L235.436 253.388L236.785 283.561L269.954 282.078L270.25 288.709L270.276 289.426C270.473 296.01 269.313 302.471 266.963 308.449C269.942 314.403 271.693 320.987 271.999 327.819L273.339 357.8L273.374 358.8C273.878 379.758 260.724 398.684 240.808 405.472C227.588 409.978 214.048 413.336 200.219 415.546C200.13 415.56 200.04 415.574 199.951 415.588C186.949 417.59 173.784 418.78 160.474 419.175L158.78 419.25C157.32 419.381 155.887 419.475 154.49 419.537C146.697 419.886 138.894 419.894 131.086 419.569L131.086 419.57C122.636 419.286 114.269 418.399 106.026 416.84L104.38 416.519L103.903 416.421C95.257 414.598 86.8158 411.957 78.6727 408.421L77.0478 407.702C76.8305 407.604 76.6139 407.503 76.398 407.402C66.3077 402.667 57.205 396.296 49.3091 388.412L48.5489 387.644L48.27 387.356C39.8365 378.601 33.6172 368.574 29.186 358.055L28.7632 357.036L28.5943 356.618C23.7353 344.418 21.6366 331.699 21.0907 319.492L21.0864 319.396L21.0391 318.236C20.5993 306.229 21.6546 293.589 25.4683 281.217L25.4694 281.217C28.913 269.973 34.2874 259.005 42.188 249.181L42.4401 248.869C49.8653 239.793 58.7882 232.305 68.9355 226.553C74.9725 223.112 81.2495 220.218 87.7222 217.843L172.249 214.064C177.054 213.849 181.499 212.752 185.583 210.772C187.377 209.886 189.063 208.883 190.643 207.766ZM147.746 255.769C141.212 256.061 134.657 256.611 128.082 257.418C121.506 258.226 115.241 259.533 109.288 261.34C103.396 263.08 97.8843 265.413 92.7516 268.338C87.68 271.197 83.3176 274.857 79.6658 279.321C76.078 283.783 73.3326 289.137 71.4295 295.384C69.5235 301.568 68.758 308.856 69.1332 317.248L69.1375 317.344C69.5099 325.672 70.8893 332.832 73.2755 338.824C75.7256 344.812 78.9368 349.867 82.9081 353.99C86.9438 358.111 91.5849 361.402 96.8302 363.863C102.137 366.258 107.803 368.091 113.829 369.362C119.853 370.569 126.144 371.283 132.701 371.503C139.261 371.787 145.808 371.783 152.342 371.491C153.431 371.442 154.455 371.365 155.413 371.258L158.584 371.116C170.124 370.793 181.472 369.771 192.629 368.053C203.783 366.27 214.67 363.569 225.293 359.949L223.952 329.967C220.288 331.287 216.33 332.491 212.078 333.579C207.887 334.601 203.626 335.498 199.295 336.269C195.026 336.973 190.816 337.579 186.667 338.086C182.581 338.589 178.749 339.018 175.17 339.37C171.655 339.72 168.522 339.989 165.77 340.176L159.429 340.46C156.226 340.603 152.763 340.693 149.042 340.731C145.317 340.705 141.585 340.487 137.843 340.076C134.102 339.666 130.475 338.962 126.964 337.963C123.453 336.965 120.308 335.533 117.529 333.667C114.746 331.738 112.456 329.304 110.656 326.368C108.92 323.428 107.891 319.816 107.57 315.529C107.463 311.683 108.019 308.32 109.238 305.441C110.519 302.495 112.268 299.978 114.485 297.889C116.767 295.797 119.416 294.041 122.434 292.622C125.515 291.201 128.803 290.059 132.295 289.197C135.848 288.267 139.54 287.589 143.372 287.161C147.202 286.669 151.006 286.338 154.786 286.169C162.665 285.817 170.589 285.72 178.555 285.877C181.959 285.917 185.528 286.046 189.261 286.264C192.994 286.482 196.731 286.797 200.472 287.208C204.274 287.551 208.019 288.025 211.704 288.631C215.39 289.236 218.89 289.978 222.203 290.857L220.858 260.78C214.564 259.264 208.414 258.095 202.407 257.273C196.401 256.45 190.406 255.884 184.422 255.574C178.439 255.263 172.4 255.148 166.305 255.228C160.275 255.305 154.088 255.485 147.746 255.769Z" fill="white"></path><path d="M1300.83 2.41969C1327.36 1.2332 1349.84 21.7827 1351.02 48.3182L1352.2 74.7437L1352.24 75.9838C1352.39 83.7241 1350.69 91.091 1347.55 97.653L1348.2 112.303C1352.12 118.891 1354.52 126.513 1354.88 134.706L1356.07 161.132L1356.11 162.373C1356.61 188.364 1336.29 210.159 1310.17 211.327L1300.72 211.749L1300.44 205.673L1262.2 207.383L1262.47 213.46L1169.1 217.634C1142.57 218.821 1120.09 198.271 1118.91 171.736L1139.28 170.825L1134.25 58.2023L1113.87 59.1134L1113.86 58.9223L1113.82 57.6811C1113.32 31.6893 1133.64 9.89529 1159.76 8.72716L1300.83 2.41969ZM1161.91 56.774L1166.95 169.587L1308.02 163.28L1306.84 136.854L1204.11 141.447L1203.36 124.63L1300.42 120.291L1299.24 93.9614L1202.19 98.301L1201.43 81.4851L1304.16 76.892L1302.98 50.4665L1161.91 56.774Z" fill="white"></path><path d="M1096.19 59.9047L1014.92 130.939L1011.92 63.6729L973.576 65.3873L978.612 178.01L1016.67 176.308L1097.94 105.37L1100.94 172.54L1139.28 170.826L1134.25 58.2032L1096.19 59.9047ZM1166.95 169.588L1187.33 168.677L1187.37 169.918C1187.87 195.91 1167.55 217.704 1141.43 218.872L1138.89 218.986L1138.61 212.813L1100.27 214.527L1100.55 220.633C1084.74 220.517 1070.62 212.712 1061.91 200.651L1048.29 212.541C1046.34 214.243 1044.27 215.774 1042.09 217.129L956.913 220.937C941.935 213.349 931.368 198.127 930.565 180.158L950.963 179.246L945.927 66.6235L925.529 67.5356C924.343 41.0004 944.892 18.5271 971.428 17.3404L1009.77 15.6261C1026.59 14.8738 1041.78 22.8627 1050.95 35.572L1064.54 23.6934L1065.32 23.0304C1073.4 16.2618 1083.49 12.3298 1094.04 11.8579L1132.1 10.1564C1158.57 8.97296 1181 29.4213 1182.28 55.8639L1161.91 56.7749L1166.95 169.588Z" fill="white"></path><path d="M856.271 70.6316L817.928 72.346L821.615 154.795L770.301 157.089L766.614 74.6404L728.273 76.3548L733.309 188.977L950.962 179.245L945.926 66.6229L907.585 68.3372L911.271 150.786L859.957 153.08L856.271 70.6316ZM973.575 65.3866L978.61 178.009L999.008 177.097L999.048 178.338C999.386 195.806 990.317 211.376 976.405 220.065L936.518 221.849L936.794 228.022L914.669 229.011L914.393 222.838L773.328 229.145L773.604 235.318L755.56 236.125L762.316 229.829L711.961 232.081C696.797 224.554 686.072 209.235 685.262 191.125L685.225 190.287C687.975 189.602 690.625 188.641 693.174 187.402C698.327 184.924 702.739 181.678 706.411 177.662C710.144 173.58 713.016 168.894 715.026 163.605C717.033 158.252 717.905 152.628 717.641 146.734C717.378 140.84 716.009 135.349 713.535 130.261C711.058 125.108 707.779 120.696 703.7 117.027C699.681 113.291 694.995 110.419 689.642 108.412C686.993 107.405 684.268 106.683 681.467 106.247L680.226 78.5031C679.04 51.9679 699.59 29.4946 726.125 28.308L764.466 26.5936C773.901 26.1718 782.821 28.502 790.454 32.8679C797.668 27.8376 806.345 24.7212 815.78 24.2992L854.122 22.5848C863.557 22.163 872.477 24.4929 880.111 28.8591C887.324 23.829 896.001 20.7123 905.436 20.2904L943.778 18.576C970.313 17.3897 992.786 37.9394 993.973 64.4745L973.575 65.3866Z" fill="white"></path><path d="M516.465 85.6342C515.278 59.0988 535.828 36.6257 562.363 35.4391L600.704 33.7247L602.853 81.7715L564.512 83.4859L569.556 196.299L676.701 191.509C682.595 191.245 688.086 189.876 693.174 187.402C698.327 184.925 702.739 181.678 706.411 177.663C710.144 173.58 713.016 168.895 715.026 163.606C717.033 158.252 717.905 152.628 717.642 146.734C717.378 140.841 716.009 135.35 713.535 130.261C711.058 125.108 707.779 120.696 703.7 117.027C699.681 113.292 694.996 110.42 689.642 108.413C684.353 106.402 678.762 105.53 672.868 105.794L604.064 108.87L600.704 33.7247C619.73 32.874 636.666 43.1975 645.167 58.8893L670.72 57.7467C682.883 57.2029 695.044 59.0145 706.728 63.4549L706.727 63.4561C715.005 66.5811 722.799 70.8468 729.904 76.2822L728.273 76.3551L733.309 188.977L756.882 187.923C753.027 195.965 748.03 203.419 741.905 210.118C733.929 218.84 724.531 225.661 714.203 230.654L714.204 230.655C714.18 230.667 714.155 230.678 714.131 230.689C714.091 230.709 714.051 230.729 714.011 230.749L714.01 230.748C713.022 231.225 712.029 231.685 711.03 232.123L709.368 232.197L708.162 233.317C698.719 237.069 688.857 239.108 678.849 239.555L630.55 241.715L630.282 235.733L591.941 237.448L592.208 243.429L571.704 244.346C569.366 244.451 567.06 244.383 564.797 244.161L564.552 238.672L548.207 239.403C533.044 231.876 522.319 216.557 521.509 198.448L550.322 197.159L545.286 84.537L516.473 85.8253L516.465 85.6342ZM666.944 136.965C668.609 136.891 670.161 137.143 671.599 137.72C673.101 138.295 674.421 139.103 675.559 140.143C676.697 141.183 677.619 142.426 678.325 143.871C679.029 145.252 679.418 146.774 679.493 148.44L679.506 149.061C679.5 150.5 679.245 151.878 678.742 153.192C678.164 154.63 677.355 155.917 676.315 157.055C675.275 158.193 674.032 159.116 672.587 159.822C671.207 160.526 669.684 160.914 668.018 160.989L606.518 163.739L605.443 139.715L666.944 136.965Z" fill="white"></path><path d="M414.598 90.3801C414.165 97.9097 413.693 104.575 413.182 110.375C412.735 116.172 412.28 121.777 411.816 127.19C411.349 132.538 410.857 138.049 410.341 143.721C409.821 149.329 409.271 155.709 408.692 162.86C408.483 165.372 407.936 167.482 407.05 169.191C406.225 170.832 405.162 172.196 403.863 173.281C402.624 174.299 401.248 175.099 399.734 175.68C398.281 176.194 396.853 176.579 395.452 176.835C394.049 177.026 392.736 177.117 391.516 177.107C390.361 177.095 389.462 177.103 388.822 177.131L390.153 206.92C392.014 206.901 393.777 206.854 395.443 206.78C397.175 206.767 398.843 206.724 400.445 206.653C408.324 206.3 414.866 205.463 420.07 204.139C425.278 202.879 429.523 200.923 432.807 198.273C436.09 195.623 438.566 192.142 440.235 187.831C441.968 183.517 443.27 178.163 444.139 171.769C445.266 163.952 446.272 155.594 447.158 146.696C448.105 137.731 448.945 128.514 449.677 119.045L508.294 116.424L511.981 198.873L550.322 197.159L545.286 84.5366L414.598 90.3801ZM346.312 154.626C345.843 158.513 344.585 161.826 342.533 164.566C342.459 164.664 342.381 164.76 342.306 164.858C343.252 161.271 344.605 157.842 346.312 154.626ZM569.556 196.299L598.369 195.011L598.408 196.252C598.829 217.995 584.677 236.797 564.748 243.048L564.552 238.672L526.498 240.373L519.271 246.69L514.129 246.92C497.054 247.684 481.663 239.446 472.541 226.405C469.726 229.72 466.557 232.839 463.014 235.699C456.424 241.018 449.355 244.797 442.373 247.476L442.224 244.141L403.883 245.856L404.275 254.616C403.713 254.646 403.153 254.674 402.593 254.699C400.642 254.787 398.675 254.838 396.694 254.862C394.706 254.941 392.687 254.991 390.645 255.012C389.472 255.024 388.309 254.993 387.157 254.922L386.786 246.62L364.519 247.616C351.63 239.482 342.836 225.383 342.107 209.068L341.936 205.253C348.061 203.638 353.777 201.481 359.083 198.777C364.603 195.898 369.349 192.22 373.321 187.742C377.293 183.264 380.323 177.8 382.41 171.352C384.561 164.901 385.407 157.289 384.95 148.515C384.611 139.48 383.081 131.812 380.36 125.515C377.704 119.215 374.197 114.012 369.841 109.906C368.397 108.525 366.875 107.251 365.278 106.081C365.734 100.898 366.172 94.7588 366.583 87.6157L366.664 86.4654C368.622 62.3878 388.198 43.4179 412.45 42.3332L543.138 36.4898C569.61 35.3062 592.037 55.7546 593.322 82.1973L564.512 83.4855L569.556 196.299Z" fill="white"></path><path d="M293.257 46.5037C300.85 46.0409 308.474 45.8147 316.127 45.8263L316.128 45.8251C325.388 45.8358 334.553 46.4995 343.579 47.8887L343.578 47.8899C353.349 49.3809 362.927 51.8686 372.183 55.4852L372.181 55.4864C383.536 59.9229 393.88 66.414 402.828 74.9102L402.83 74.909C402.856 74.9338 402.881 74.9598 402.907 74.9847C402.967 75.0415 403.029 75.0973 403.088 75.1543L403.087 75.1555C408.008 79.8316 412.231 84.9361 415.83 90.3253L414.598 90.3803C414.165 97.91 413.693 104.576 413.182 110.376C412.735 116.172 412.28 121.777 411.816 127.19C411.349 132.539 410.857 138.049 410.341 143.721C409.821 149.329 409.271 155.709 408.692 162.86C408.483 165.372 407.936 167.482 407.05 169.191C406.225 170.833 405.162 172.196 403.863 173.281C402.624 174.3 401.248 175.099 399.734 175.68C398.281 176.195 396.853 176.58 395.452 176.835C394.049 177.026 392.736 177.117 391.516 177.107C390.36 177.095 389.462 177.103 388.821 177.131L390.153 206.92C392.014 206.901 393.777 206.855 395.443 206.78C397.175 206.767 398.843 206.725 400.445 206.653C408.324 206.301 414.866 205.463 420.07 204.139C420.174 204.114 420.276 204.085 420.379 204.06C417.311 209.522 413.644 214.761 409.302 219.656C401.286 228.693 391.826 235.944 381.321 241.423C381.188 241.492 381.054 241.56 380.921 241.629C376.595 243.833 372.165 245.777 367.65 247.476L237.062 253.315C233.014 252.188 229.015 250.872 225.075 249.355L223.346 248.674C223.141 248.592 222.936 248.508 222.733 248.423C212.272 244.053 202.671 238.01 194.201 230.322L193.384 229.573L193.116 229.322C187.811 224.322 183.301 218.823 179.5 212.998C181.609 212.455 183.638 211.715 185.584 210.772C189.729 208.725 193.301 206.061 196.3 202.782C199.298 199.503 201.6 195.709 203.205 191.401C204.874 187.09 205.601 182.532 205.386 177.727C205.171 172.923 204.04 168.447 201.993 164.302C200.011 160.154 197.379 156.581 194.1 153.583C190.82 150.584 187.027 148.282 182.718 146.677C178.471 145.005 173.945 144.277 169.14 144.492L163.026 144.765C163.332 139.217 164.016 133.605 165.187 128.012L197.129 126.584L195.948 100.157L175.072 101.09C178.23 95.3019 182.056 89.7481 186.644 84.5753L186.652 84.567C194.754 75.436 204.383 68.0531 215.254 62.5845L215.436 62.4938C224.301 58.0814 233.58 54.7423 243.15 52.3792L243.24 52.358L244.907 51.9578C253.252 50.0009 261.763 48.6539 270.404 47.8695C278.072 47.1736 285.69 46.7183 293.257 46.5037ZM316.072 93.92C309.139 93.9091 302.248 94.1208 295.399 94.5554C288.603 94.7309 281.72 95.135 274.752 95.7676C267.784 96.4001 261.093 97.5014 254.68 99.072C248.331 100.64 242.394 102.799 236.868 105.549C231.406 108.297 226.659 111.944 222.626 116.489C218.654 120.967 215.625 126.462 213.541 132.974C211.457 139.486 210.617 147.26 211.021 156.293C211.414 165.069 212.937 172.575 215.591 178.811C218.245 185.047 221.75 190.219 226.106 194.325C230.526 198.428 235.581 201.668 241.272 204.045C247.024 206.355 253.133 208.04 259.6 209.099C266.13 210.155 272.894 210.688 279.891 210.696C286.891 210.768 293.783 210.587 300.568 210.155C307.428 209.977 314.309 209.542 321.211 208.848C328.179 208.216 334.837 207.083 341.183 205.451C347.593 203.816 353.56 201.592 359.083 198.777C364.603 195.899 369.349 192.221 373.321 187.742C377.293 183.264 380.323 177.8 382.41 171.352C384.561 164.901 385.407 157.289 384.95 148.516C384.611 139.48 383.081 131.813 380.36 125.515C377.704 119.215 374.197 114.012 369.841 109.907C365.482 105.737 360.428 102.528 354.679 100.281C348.93 98.0351 342.791 96.416 336.264 95.4241C329.8 94.4293 323.069 93.9281 316.072 93.92ZM299.202 179.599C299.266 179.596 299.299 179.626 299.302 179.69L299.11 179.699C299.107 179.635 299.138 179.602 299.202 179.599ZM296.766 125.113C300.548 125.008 304.368 125.03 308.226 125.179C312.145 125.26 315.917 125.605 319.539 126.213C323.16 126.821 326.569 127.696 329.765 128.837C332.962 129.978 335.76 131.521 338.158 133.468C340.553 135.351 342.486 137.672 343.957 140.431C345.492 143.186 346.344 146.455 346.513 150.234C346.646 156.069 345.319 160.847 342.533 164.566C339.808 168.218 336.181 171.108 331.654 173.236C327.128 175.364 321.998 176.91 316.264 177.872C310.591 178.768 304.903 179.344 299.202 179.599C295.422 179.768 291.605 179.81 287.75 179.725C283.892 179.577 280.153 179.23 276.534 178.686C272.915 178.141 269.507 177.299 266.311 176.158C263.179 175.014 260.415 173.501 258.02 171.619C255.622 169.672 253.656 167.32 252.12 164.564C250.646 161.742 249.758 158.412 249.458 154.574C249.353 150.791 249.911 147.46 251.131 144.581C252.35 141.702 254.068 139.218 256.285 137.129C258.564 134.973 261.244 133.185 264.326 131.763C267.408 130.341 270.693 129.167 274.182 128.241C277.735 127.312 281.427 126.602 285.256 126.11C289.149 125.615 292.986 125.282 296.766 125.113ZM164.549 173.844C166.176 175.345 167.04 177.208 167.14 179.438C167.199 180.764 166.977 181.995 166.476 183.134C165.695 180.043 165.059 176.941 164.549 173.844Z" fill="white"></path><path d="M205.384 177.727C205.169 172.923 204.038 168.447 201.992 164.302C200.009 160.154 197.377 156.581 194.098 153.583C190.818 150.584 187.025 148.282 182.716 146.677C178.469 145.005 173.943 144.277 169.138 144.492L90.5334 148.006L89.7901 131.383L197.128 126.583L195.946 100.157L50.2674 106.67L55.3031 219.293L172.249 214.064C177.054 213.849 181.498 212.752 185.582 210.772C189.727 208.725 193.299 206.061 196.298 202.782C199.296 199.502 201.599 195.709 203.203 191.4C204.768 187.359 205.504 183.1 205.413 178.625L205.384 177.727ZM158.404 171.45C160.71 171.347 162.702 172.093 164.378 173.687C166.115 175.214 167.035 177.131 167.138 179.437L167.148 179.866C167.145 181.995 166.398 183.875 164.906 185.507C163.376 187.18 161.458 188.068 159.152 188.171L92.4626 191.153L91.715 174.432L158.404 171.45ZM249.446 153.614C250.649 157.287 251.579 161.017 252.244 164.785C252.202 164.712 252.16 164.638 252.118 164.564C250.644 161.741 249.756 158.411 249.456 154.574C249.447 154.251 249.445 153.931 249.446 153.614ZM211.019 156.292C211.412 165.069 212.935 172.575 215.589 178.811C218.243 185.047 221.748 190.219 226.104 194.325C230.524 198.428 235.579 201.667 241.27 204.045C243.726 205.031 246.247 205.903 248.834 206.662C248.584 207.363 248.325 208.063 248.055 208.762C244.373 218.435 238.961 227.396 231.791 235.238C224.601 243.101 216.157 249.313 206.877 253.895C206.773 253.947 206.669 253.998 206.564 254.049C204.348 255.123 202.105 256.083 199.84 256.937C194.692 256.294 189.553 255.839 184.422 255.573C178.438 255.263 172.399 255.148 166.305 255.228C160.274 255.305 154.088 255.485 147.745 255.768C141.211 256.061 134.657 256.611 128.081 257.418C121.506 258.226 115.241 259.533 109.288 261.34C105.434 262.478 101.742 263.871 98.2129 265.517L57.4514 267.34C30.916 268.526 8.44277 247.977 7.25629 221.441L2.22059 108.819C1.03443 82.2836 21.5839 59.8103 48.1191 58.6236L193.798 52.1099C220.333 50.9236 242.806 71.4733 243.993 98.0084L244.187 102.343C241.671 103.304 239.231 104.372 236.866 105.549C231.404 108.297 226.657 111.944 222.624 116.489C218.652 120.967 215.623 126.462 213.539 132.974C211.455 139.486 210.615 147.26 211.019 156.292Z" fill="white"></path></svg>