<svg xmlns="http://www.w3.org/2000/svg" width="327" height="85" viewBox="0 0 327 85" fill="none"><path d="M221.969 82.4899C220.528 82.4899 219.118 81.8007 217.74 80.4222L217.708 80.3909L217.677 80.3596C213.416 75.4722 211.317 66.5434 211.63 55.1082C201.542 60.2775 191.016 63.0972 181.774 63.0972C174.537 63.0972 168.741 61.3741 164.887 58.1158C162.13 59.7449 156.334 62.5646 151.447 62.5646C148.408 62.5646 146.497 61.468 145.338 60.2775C141.171 62.1886 136.472 64.3503 132.493 64.3503C130.3 64.3503 128.514 63.6611 127.23 62.3453C125.82 60.8728 125.036 58.7424 124.88 55.7974C122.092 56.4867 118.896 56.612 117.016 56.612C114.761 56.612 112.442 56.4554 110.406 56.1421C106.74 62.8779 99.9418 63.6298 97.1222 63.6298C93.582 63.6298 89.7598 62.4706 88.0993 60.4655C83.1806 62.3766 74.9411 64.1937 67.704 64.1937C63.2553 64.1937 59.4644 63.5358 56.4568 62.2199C54.5457 63.7237 52.3214 64.507 49.815 64.507C45.1157 64.507 40.3849 61.8127 36.2182 59.463C33.8371 58.1158 31.5814 56.8313 29.9836 56.4867C28.9498 60.3089 26.8507 64.2877 24.2817 67.3266C20.6789 71.5874 16.3241 73.9057 11.75 74.0311C11.656 74.0311 11.5621 74.0311 11.4994 74.0311C9.21237 74.0311 7.17597 73.1225 5.54685 71.4307C2.66456 68.3918 1.31741 63.0032 1.69336 56.2047C2.63323 39.5063 5.07691 26.4106 8.99307 17.2938C13.4418 6.86121 19.8016 1.5979 27.8846 1.5979C29.8897 1.5979 32.02 1.94252 34.2131 2.60044H34.2444C36.3748 3.28968 38.0039 4.76215 38.9751 6.82988C40.2596 9.58685 40.2283 13.0331 39.633 16.072C47.246 11.8112 59.6837 6.92387 69.3018 6.92387C78.5126 6.92387 81.7708 11.3726 82.8987 15.1008C83.7759 18.0144 83.212 20.8967 81.3635 23.309C86.8775 23.497 93.3313 25.2201 97.0908 28.729C99.1272 27.0999 102.072 26.1913 105.487 26.1913C108.307 26.1913 111.22 26.8179 113.727 27.9458C113.507 26.0347 113.789 24.3429 114.541 22.8704C115.826 20.3641 118.489 18.547 122.467 17.4505C138.696 12.7511 180.99 3.72829 196.216 3.72829C198.942 3.72829 200.697 4.01025 201.73 4.63684L201.762 4.66816C202.451 5.07544 203.297 5.95266 203.61 7.67577C203.892 9.17957 203.673 11.0593 203.203 12.7511C211.912 10.5267 222.502 9.2109 232.245 9.2109C242.051 9.2109 249.883 10.5581 254.52 13.0331C262.07 8.14571 276.764 4.54285 289.358 4.54285C298.318 4.54285 310.317 6.26595 316.552 14.5369C320.468 19.7375 321.439 26.6926 319.434 35.2142C319.622 35.2142 319.81 35.2142 319.967 35.2142C320.969 35.2142 324.071 35.2142 324.98 37.4385C326.107 40.1642 323.1 43.4224 318.024 48.4977C316.145 50.3775 313.544 52.9465 313.294 53.855C311.853 59.4316 301.702 60.7161 284.628 60.9981C275.605 60.9981 264.859 58.7737 260.285 52.6019C253.862 56.7373 244.683 59.557 238.887 59.9329C238.824 60.1522 238.762 60.4028 238.699 60.6222C237.634 64.2563 235.879 70.3655 231.243 74.3757C230.459 75.0336 229.645 76.1301 228.799 77.2893C226.95 79.6703 224.914 82.4899 221.969 82.4899Z" fill="black"></path><path d="M27.8221 3.13292C29.6705 3.13292 31.6129 3.44621 33.6807 4.0728C39.8525 6.1092 38.8187 14.7874 36.9389 19.4868C43.8313 14.8187 58.5247 8.49022 69.208 8.49022C75.0979 8.49022 79.766 10.4013 81.3011 15.5393C82.5856 19.7374 80.1732 23.027 77.0403 25.032C78.0428 24.9067 79.108 24.8441 80.2359 24.8441C86.4078 24.8441 93.7388 26.8491 96.9657 30.9533C98.6888 28.7916 101.916 27.7577 105.425 27.7577C109.121 27.7577 113.132 28.9169 116.077 31.1099C114.165 25.8779 114.823 21.1472 122.844 18.9228C138.947 14.2548 181.304 5.26331 196.185 5.26331C198.472 5.26331 200.101 5.48261 200.885 5.95255C203.266 7.42502 201.762 13.3149 200.383 15.0694C209.5 12.3124 221.499 10.7146 232.183 10.7146C241.581 10.7146 249.978 11.9678 254.52 14.8187C261.037 10.182 275.636 6.04654 289.296 6.04654C307.498 6.04654 324.009 13.4089 317.304 36.8745C318.307 36.7492 319.184 36.7178 319.904 36.7178C331.246 36.7178 312.793 49.4688 311.727 53.3537C310.412 58.4603 297.003 59.1496 284.534 59.3375C275.354 59.3375 264.201 56.9252 260.692 50.2834C254.05 55.1081 243.304 58.2724 237.665 58.2724C236.631 61.4053 235.253 68.6736 230.146 73.0597C227.609 75.1901 225.259 80.8607 221.938 80.8607C220.998 80.8607 219.964 80.3908 218.836 79.2629C214.45 74.2189 212.571 64.3502 213.291 52.3511C202.201 58.523 190.922 61.4679 181.743 61.4679C174.506 61.4679 168.553 59.6195 165.013 56.1106C163.039 57.4578 156.554 60.9353 151.385 60.9353C149.066 60.9353 146.998 60.2148 145.714 58.2724C141.547 60.1834 136.378 62.7211 132.43 62.7211C128.734 62.7211 126.102 60.5281 126.384 53.573C124.097 54.5442 120.557 54.9828 116.954 54.9828C114.322 54.9828 111.659 54.7635 109.466 54.3249C106.866 60.0581 101.602 62.0005 97.0597 62.0005C92.7363 62.0005 89.0394 60.2774 88.7888 58.3977C84.81 60.1834 75.9438 62.5644 67.6729 62.5644C63.4434 62.5644 59.3706 61.9379 56.175 60.3088C54.2013 62.1572 52.0396 62.8777 49.7839 62.8777C42.2022 62.8777 33.6807 54.7322 29.1379 54.7322C29.0126 54.7322 28.856 54.7321 28.7307 54.7635C27.1642 62.0945 20.8357 72.1199 11.6562 72.3705C11.5936 72.3705 11.4996 72.3705 11.4369 72.3705C5.57836 72.3705 2.69607 65.3528 3.19734 56.2046C4.9831 24.7501 12.3768 3.13292 27.8221 3.13292ZM27.8221 0C23.2794 0 19.1752 1.56646 15.635 4.63673C12.4708 7.3937 9.71381 11.4352 7.48944 16.6358C3.51063 25.9406 1.00429 39.1929 0.0644137 56.0793C-0.342866 63.285 1.19226 69.1123 4.35652 72.4645C6.2676 74.4696 8.71128 75.5348 11.4369 75.5348C11.5309 75.5348 11.6562 75.5348 11.7502 75.5348C16.7942 75.4094 21.5249 72.9031 25.4411 68.2977C27.7908 65.5094 29.7645 62.0005 30.955 58.4603C32.2709 59.0556 33.9626 59.9955 35.4038 60.81C39.7585 63.2537 44.6772 66.042 49.7839 66.042C52.3216 66.042 54.6086 65.3527 56.645 63.9743C59.6839 65.1334 63.3808 65.7287 67.6729 65.7287C75.3485 65.7287 82.9929 63.8803 87.6609 62.2512C89.854 64.1622 93.5508 65.1648 97.091 65.1648C100.13 65.1648 103.044 64.4442 105.519 63.097C107.868 61.8125 109.748 60.0581 111.189 57.8024C113.038 58.0217 115.011 58.147 116.985 58.147C118.583 58.147 121.027 58.053 123.47 57.6458C123.846 60.0894 124.692 62.0005 126.071 63.4103C127.668 65.0708 129.83 65.9167 132.462 65.9167C136.441 65.9167 140.921 64.0056 145.025 62.1258C146.435 63.2537 148.502 64.1309 151.447 64.1309C156.209 64.1309 161.567 61.7499 164.762 59.9955C168.866 63.0657 174.693 64.6635 181.805 64.6635C190.609 64.6635 200.477 62.1885 210.064 57.6144C210.095 68.235 212.351 76.5686 216.518 81.362L216.581 81.456L216.643 81.5186C218.304 83.1791 220.121 84.025 221.969 84.025C225.697 84.025 228.11 80.7667 230.021 78.1351C230.773 77.1012 231.587 76.0047 232.183 75.5034L232.214 75.4721L232.245 75.4408C237.101 71.274 238.981 65.1021 240.109 61.2486C245.779 60.6534 253.831 58.147 259.972 54.5128C262.196 56.9565 265.392 58.8676 269.59 60.2461C273.913 61.6559 279.239 62.4391 284.596 62.4391H284.628H284.659C290.988 62.3451 297.598 62.0945 302.893 61.2486C307.373 60.4967 313.482 58.9929 314.798 54.2309C315.236 53.3537 317.586 51.0353 319.121 49.4688C323.915 44.7068 328.019 40.5713 326.421 36.7178C325.669 34.9008 323.977 33.8669 321.346 33.6163C322.912 25.4707 321.722 18.7035 317.805 13.5029C311.164 4.73071 298.663 2.88229 289.358 2.88229C282.685 2.88229 275.292 3.85349 268.493 5.63926C262.854 7.11173 257.967 9.05414 254.426 11.1532C248.255 8.20826 239.138 7.55034 232.214 7.55034C223.222 7.55034 213.51 8.64687 205.177 10.5579C205.302 9.4301 205.302 8.30224 205.114 7.29971C204.707 5.01268 203.485 3.82217 202.545 3.25824L202.514 3.22691L202.483 3.19558C201.167 2.41235 199.224 2.06773 196.185 2.06773C180.834 2.06773 138.32 11.1219 121.998 15.8526C117.58 17.0744 114.604 19.1735 113.1 22.0558C112.536 23.1523 112.192 24.3115 112.066 25.5646C109.936 24.9067 107.68 24.5308 105.425 24.5308C102.198 24.5308 99.3154 25.2827 97.1223 26.6298C93.5195 23.7789 88.4441 22.3377 83.9014 21.8051C84.9039 19.5494 85.0606 17.0431 84.2774 14.5054C83.3062 11.2472 81.3011 8.77218 78.3248 7.20572C75.8811 5.88989 72.8109 5.23198 69.1767 5.23198C60.2478 5.23198 49.2826 9.14813 41.4503 13.1269C41.5756 10.6833 41.2937 8.17693 40.2911 6.01521C39.1319 3.57153 37.1895 1.81709 34.6205 0.971205H34.5892H34.5579C32.2709 0.37595 29.9838 0 27.8221 0Z" fill="white"></path><path d="M258.656 25.6582C242.302 11.466 220.905 16.5727 201.637 19.6743C199.131 20.6142 202.984 22.6819 203.83 23.5591C205.177 24.0917 206.65 24.593 208.154 24.593C213.354 24.7496 216.894 24.3737 222.001 23.1832C223.286 23.2145 225.322 22.2746 226.293 23.1832C225.228 29.8876 223.129 36.4668 221.844 43.1712C221.093 45.5836 216.55 43.3905 214.545 44.2677C215.234 46.3668 216.894 46.3668 217.396 46.8681C217.96 47.62 218.085 48.2779 219.087 48.6852C218.899 49.9383 220.09 49.4684 220.341 50.5023C220.56 51.3168 220.779 52.7893 219.839 53.7605C219.62 54.6377 219.745 55.6403 219.589 56.5488C218.931 61.4362 217.615 67.2634 220.654 71.5242C221.531 72.4954 222.346 70.4903 221.719 69.8324C221.155 67.796 222.784 68.7672 224.1 65.133C224.257 64.6944 224.225 64.0991 224.915 64.1931C225.416 64.2558 225.917 63.3159 225.886 62.9086C225.886 62.4074 225.761 62.1254 226.231 61.8121C227.421 60.1203 228.706 53.4159 229.363 51.4735C233.53 51.4735 240.705 48.1526 243.556 46.6174C250.479 42.8579 267.585 34.4304 258.656 25.6582ZM251.325 31.1095C246.313 37.1873 238.261 39.443 230.993 41.918C231.431 38.5972 232.716 35.5269 232.622 32.1747C233.248 28.6971 234.188 25.3136 232.058 22.118C236.037 21.648 257.748 23.5905 251.325 31.1095Z" fill="white"></path><path d="M163.352 24.4362C163.352 24.3109 163.289 24.1229 163.227 24.0916C162.412 23.8096 162.788 23.0577 162.506 22.4938C170.307 21.1153 178.672 20.1754 185.345 15.8207C185.909 15.4761 186.661 15.1941 188.165 15.0688C188.791 15.0061 189.355 14.6928 189.7 14.1916C190.358 13.283 191.204 13.377 191.768 12.6251C192.018 12.2805 192.363 12.0298 192.77 11.9045C194.932 11.3406 195.339 9.77414 195.277 9.3042C185.032 9.8368 175.194 13.4083 165.106 15.2568C150.413 17.9511 135.563 20.2068 120.995 23.3397C118.708 25.94 130.394 26.034 131.835 26.2533C140.356 26.5353 148.659 25.0628 157.024 23.5277C153.421 31.172 149.661 39.0043 149.849 47.6512C150.037 49.7816 149.943 54.4183 153.201 52.2879C154.392 52.9771 154.486 51.1914 155.332 51.63C156.773 52.4759 156.522 49.9069 157.243 48.4031C157.399 46.304 158.465 44.3616 158.872 42.3565C159.78 36.2787 162.694 30.6081 163.352 24.4362Z" fill="white"></path><path d="M145.025 32.4253C144.743 30.6709 141.829 31.1095 140.514 30.8589C138.289 31.7048 137.099 35.8089 135.971 37.908C135.031 39.6937 135.438 38.5972 131.334 38.9418C122.531 39.7251 116.265 41.1035 106.239 41.3542C106.803 38.8165 107.962 37.8453 107.9 35.3703C107.712 33.1772 102.95 32.206 101.383 33.4279C98.2504 39.2551 94.6162 45.333 93.927 52.0061C94.021 53.4473 95.5248 54.1365 96.6526 54.4498C97.4672 54.6691 98.2191 54.6064 98.7204 53.6352C100.287 53.8859 99.5976 52.8207 100.851 52.6954C102.637 50.3143 103.232 48.2466 104.548 45.7716C105.581 44.9884 107.179 46.4608 108.589 46.3042C117.925 47.996 124.943 45.2703 133.746 43.4532C133.183 45.7089 127.355 59.4938 133.934 53.8545C134.874 53.9172 135.658 53.1026 136.096 52.5387C137.945 53.4473 137.569 50.001 139.417 49.4371C141.14 45.5836 148.158 35.9969 145.025 32.4253Z" fill="white"></path><path d="M300.606 34.4616C300.606 29.6369 303.55 24.4675 302.297 19.8308C292.366 16.2906 281.275 20.3947 271.532 22.8698C268.462 24.3109 263.888 24.1856 262.885 20.3634C263.136 19.4235 261.099 18.609 262.384 17.6064C272.973 14.6928 286.131 10.4947 297.849 13.2204C313.607 19.2356 306.746 29.1669 306.84 40.8841C308.375 41.6986 310.662 40.8841 312.417 41.072C311.947 42.8265 309.754 43.1711 308.407 43.9856C308.156 45.5521 305.305 44.6436 304.804 48.685C304.741 49.2803 303.206 49.4056 302.987 49.155C302.767 48.9043 300.48 48.967 299.415 49.2176C277.046 52.9458 266.864 50.7841 265.799 39.2863C265.861 34.1796 269.903 29.3862 276.137 28.0391C285.975 24.9375 293.556 26.9426 300.606 34.4616ZM299.415 39.6935C299.415 38.4717 297.692 36.9052 293.494 35.0568C287.886 32.8324 274.352 32.5192 271.72 40.6334C277.892 47.4319 296.721 43.1084 299.415 39.6935Z" fill="white"></path><path d="M91.2951 39.1608C91.4518 33.7095 84.6533 31.6104 80.3299 30.7332C78.5755 31.2971 75.9125 28.8221 74.4713 29.95C74.6593 30.3573 75.0039 30.6079 75.3799 30.8272C75.6305 30.9838 75.5052 31.3598 75.2232 31.3598C68.8634 31.3285 49.4706 33.4589 50.1912 43.0769C52.2589 61.6238 90.8878 54.1361 91.2951 39.1608ZM81.9277 41.5731C80.5805 43.4215 78.6068 44.5807 76.821 45.9279C75.4739 46.9617 73.6568 43.9855 72.6542 43.2649C71.9337 41.0405 77.2283 39.4427 76.821 36.9677C74.8473 37.187 73.3122 39.0981 71.6204 40.1006C70.9311 40.6332 70.4612 40.1633 70.1479 39.756C69.5213 38.9728 67.8295 38.8475 66.9836 38.3149C66.7643 38.2209 66.3884 38.2522 66.3571 38.5342C66.2004 40.4766 67.9862 40.5706 68.3621 41.7298C67.8922 43.3589 63.5374 43.6095 62.5976 46.2098C64.8533 47.9956 67.1403 45.3953 69.302 44.5181C70.7118 43.9855 72.1843 46.2725 73.1868 47.0244C73.5315 47.4943 73.5001 47.745 72.9362 48.0269C68.2055 51.2225 52.2276 49.0921 57.6162 41.1972C62.0023 34.806 76.9777 33.8035 80.3926 36.0278C81.4264 36.6231 81.2071 35.2446 82.429 36.2785C83.8701 37.469 83.2748 39.9127 81.9277 41.5731Z" fill="white"></path><path d="M209.751 34.7438C207.871 31.9242 202.765 28.6033 199.851 27.8514C198.911 27.6947 197.188 26.5669 194.368 26.6922C193.648 26.6609 195.935 28.7286 194.932 28.5719C189.356 27.7887 178.986 28.1647 172.125 32.9267C156.836 43.4847 169.493 54.1679 181.899 53.7293C185.784 53.8233 188.761 52.9774 192.426 51.7556C192.959 51.5676 195.152 50.2831 195.684 50.9723C195.935 51.2856 197.376 50.659 197.533 50.2518C198.88 48.0587 200.478 48.8419 202.514 47.3381C207.057 44.6438 213.041 41.0723 209.751 34.7438ZM200.822 40.853C199.068 42.2941 196.499 43.4533 194.462 44.4245C193.115 44.4872 190.578 42.1375 189.606 41.1976C192.52 40.0698 195.34 37.9394 194.212 35.4957C193.805 35.8403 193.46 35.6523 193.272 35.2764L192.708 35.433C184.562 42.7641 190.86 37.8141 183.121 36.9682C182.996 36.9368 182.871 37.0622 182.871 37.1875C182.871 37.4694 182.777 37.6574 182.933 37.8767C186.912 42.1688 185.189 39.1299 181.367 42.7014C180.427 43.9546 179.174 43.9546 179.236 44.6125C181.085 46.273 183.811 43.5786 185.784 42.9207C187.194 42.1688 189.857 44.8945 190.891 45.7404C187.664 46.9935 178.328 49.3432 174.725 46.3043C164.982 38.0647 187.883 29.9504 197.094 32.8327C197.689 31.9242 197.909 32.0808 198.441 32.0808C200.728 32.1121 202.89 39.4745 200.822 40.853Z" fill="white"></path><path d="M40.0094 32.6755C43.3617 30.4511 47.3405 29.7618 50.8493 27.7568C56.3633 24.5925 62.3785 22.3368 68.1431 19.6738C70.7434 18.6086 74.6282 15.3504 69.6469 14.4105C66.326 15.1624 62.2845 14.6612 59.3396 16.2903C47.0898 20.1438 35.0907 27.2868 23.5616 32.6755C23.5616 24.8745 32.4278 15.2251 28.4803 11.7789C27.1018 11.3403 26.4439 10.9956 25.0967 11.5282C24.7834 11.6536 24.5015 11.9669 24.1255 11.5282C23.6242 10.6824 22.0891 11.4029 21.5565 12.4055C18.079 17.9194 16.4499 20.6137 14.4761 26.4096C10.6853 37.2182 7.67767 48.9353 9.58875 60.4018C9.71407 61.8116 11.2805 62.3756 12.8157 62.2502C14.1002 62.1563 14.7581 61.8743 15.2593 61.1851C15.9173 60.0572 16.6065 61.1851 17.0138 60.2452C19.2381 53.854 18.6429 43.766 22.6217 41.6983C26.5065 40.4764 25.504 38.6593 29.0129 42.0742C33.9316 46.1157 39.6021 49.1233 44.7088 52.9141C45.6174 53.6974 46.6199 53.5721 46.9645 52.9141C47.8104 51.379 46.1186 50.0319 45.2414 48.7787C41.2626 44.2046 36.2186 40.915 31.3626 37.1869C34.2135 35.5891 37.0958 34.1479 40.0094 32.6755Z" fill="white"></path></svg>