<svg xmlns="http://www.w3.org/2000/svg" width="561" height="215" viewBox="0 0 561 215" fill="none"><rect x="22" y="25" width="164.58" height="164.58" rx="16" fill="#36BF0C"></rect><path d="M315.502 62.0315C315.502 70.868 322.666 78.0315 331.502 78.0315H352.534C361.37 78.0315 368.534 85.1949 368.534 94.0315V120.549C368.534 129.385 361.37 136.549 352.534 136.549H331.502C322.666 136.549 315.502 143.712 315.502 152.549V173.58C315.502 182.417 308.339 189.58 299.502 189.58H272.985C264.148 189.58 256.985 182.417 256.985 173.58V152.549C256.985 143.712 249.821 136.549 240.985 136.549H219.953C211.117 136.549 203.953 129.386 203.953 120.549V94.0315C203.953 85.1949 211.117 78.0315 219.953 78.0315H240.985C249.821 78.0315 256.985 70.868 256.985 62.0315V41C256.985 32.1634 264.148 25 272.985 25H299.502C308.339 25 315.502 32.1634 315.502 41V62.0315Z" fill="#36BF0C"></path><path d="M441.589 53.0583C447.52 41.3921 464.185 41.3921 470.115 53.0583L527.695 166.33C533.106 176.974 525.373 189.58 513.432 189.58H398.272C386.332 189.58 378.599 176.974 384.009 166.33L441.589 53.0583Z" fill="#36BF0C"></path><rect x="0.5" y="0.5" width="560" height="214" rx="27.5" stroke="#FFD24E"></rect></svg>