<svg xmlns="http://www.w3.org/2000/svg" width="425" height="365" viewBox="0 0 425 365" fill="none"><mask id="path-1-outside-1_855_3133" maskUnits="userSpaceOnUse" x="-1.08973" y="-1.08701" width="426.69" height="367.002" fill="black"><rect fill="white" x="-1.08973" y="-1.08701" width="426.69" height="367.002"></rect><path d="M226.746 42.6131L226.745 42.6145C226.735 42.6159 226.727 42.6172 226.72 42.6183C226.727 42.6172 226.735 42.6148 226.746 42.6131ZM237.127 42.8562C237.131 42.8568 237.135 42.8581 237.138 42.8587C237.133 42.8579 237.128 42.8567 237.123 42.8558L237.127 42.8562Z"></path></mask><path d="M226.746 42.6131L226.745 42.6145C226.735 42.6159 226.727 42.6172 226.72 42.6183C226.727 42.6172 226.735 42.6148 226.746 42.6131ZM237.127 42.8562C237.131 42.8568 237.135 42.8581 237.138 42.8587C237.133 42.8579 237.128 42.8567 237.123 42.8558L237.127 42.8562Z" fill="white"></path><path d="M297.6 24.6256L297.61 24.3758L297.61 24.3758L297.6 24.6256ZM307.328 25.8097L307.488 26.0019C307.562 25.9401 307.594 25.841 307.57 25.7474C307.546 25.6538 307.47 25.5825 307.375 25.5642L307.328 25.8097ZM307.326 25.811L307.166 25.6189C307.092 25.6807 307.06 25.7798 307.084 25.8734C307.108 25.967 307.184 26.0383 307.279 26.0565L307.326 25.811ZM323.878 32.0214L324.004 31.8058L324.004 31.8058L323.878 32.0214ZM327.912 34.5665L327.775 34.7756L327.775 34.7756L327.912 34.5665ZM328.863 35.1803L328.73 35.392L328.734 35.3942L328.863 35.1803ZM329.421 35.5177L329.292 35.7316C329.297 35.7347 329.302 35.7376 329.307 35.7404L329.421 35.5177ZM329.436 35.5252L329.559 35.3074L329.549 35.3025L329.436 35.5252ZM329.855 35.7427L329.744 35.9665L329.745 35.967L329.855 35.7427ZM331.48 36.5424L331.596 36.3205L331.591 36.318L331.48 36.5424ZM331.512 36.5591L331.397 36.7809L331.402 36.7835L331.512 36.5591ZM338.568 40.5554L338.707 40.3479L338.707 40.3479L338.568 40.5554ZM355.731 64.2528L355.972 64.1879L355.972 64.1849L355.731 64.2528ZM356.024 65.3433L356.267 65.2845L356.266 65.2784L356.024 65.3433ZM356.04 65.4075L355.797 65.4663L355.797 65.4669L356.04 65.4075ZM356.252 66.2763L356.009 66.3357L356.252 66.2763ZM356.266 66.3373L356.51 66.2804L356.51 66.2804L356.266 66.3373ZM353.408 96.1725L353.179 96.0707C353.142 96.1531 353.153 96.249 353.207 96.3215C353.261 96.394 353.349 96.4318 353.439 96.4205L353.408 96.1725ZM185.579 57.3396L185.828 57.3592L185.828 57.3562L185.579 57.3396ZM185.516 58.1434L185.764 58.1663L185.765 58.163L185.516 58.1434ZM183.832 76.4817L183.583 76.4588C183.575 76.5426 183.61 76.6247 183.676 76.6772L183.832 76.4817ZM186.004 78.3355L186.173 78.1512L186.173 78.1511L186.004 78.3355ZM189.785 82.2775L189.594 82.4387C189.637 82.4902 189.7 82.522 189.767 82.5269C189.834 82.5318 189.9 82.5093 189.951 82.4647L189.785 82.2775ZM198.739 76.2681L198.849 76.4926C198.931 76.4521 198.985 76.3696 198.988 76.2777L198.739 76.2681ZM199.101 72.275L198.853 72.2394L198.853 72.2394L199.101 72.275ZM199.161 71.8964L199.408 71.9366C199.409 71.929 199.41 71.9214 199.411 71.9138L199.161 71.8964ZM199.261 70.7654L199.012 70.7384L199.012 70.7384L199.261 70.7654ZM209.3 50.8162L209.13 50.6324L209.13 50.6324L209.3 50.8162ZM226.706 42.6201L226.741 42.8677L226.746 42.8669L226.706 42.6201ZM226.72 42.6183L226.685 42.3707L226.68 42.3715L226.72 42.6183ZM226.771 42.6093L226.805 42.8569L226.809 42.8564L226.771 42.6093ZM226.889 42.5941L226.856 42.3463L226.856 42.3463L226.889 42.5941ZM235.373 42.5819L235.341 42.8298C235.38 42.8349 235.42 42.8306 235.457 42.8173L235.373 42.5819ZM240.811 40.9938L240.866 41.2375C240.898 41.2301 240.929 41.2166 240.955 41.1975L240.811 40.9938ZM241.387 40.586L241.245 40.3799V40.3799L241.387 40.586ZM244.313 38.7658L244.192 38.5473V38.5473L244.313 38.7658ZM248.701 36.7339L248.613 36.4998L248.613 36.4998L248.701 36.7339ZM254.55 35.1621L254.509 34.9156L254.509 34.9156L254.55 35.1621ZM267.63 35.7465L267.567 35.9884C267.655 36.0114 267.749 35.9845 267.812 35.9184L267.63 35.7465ZM277.803 28.3386L277.705 28.1086L277.695 28.113L277.803 28.3386ZM277.841 28.3222L277.94 28.5521L277.949 28.5479L277.841 28.3222ZM390.088 108.128L390.282 107.969L390.282 107.969L390.088 108.128ZM397.151 129.064L396.901 129.055C396.897 129.147 396.945 129.233 397.024 129.279L397.151 129.064ZM412.437 158.19L412.686 158.211L412.686 158.208L412.437 158.19ZM412.386 158.805L412.635 158.828L412.635 158.826L412.386 158.805ZM391.312 187.517L391.23 187.281C391.137 187.313 391.072 187.397 391.063 187.494L391.312 187.517ZM390.149 200.188L389.9 200.165C389.89 200.265 389.942 200.361 390.032 200.409L390.149 200.188ZM400.806 209.407L401.01 209.263L401.008 209.26L400.806 209.407ZM401.291 210.093L401.497 209.951L401.495 209.949L401.291 210.093ZM406.039 234.595L406.283 234.65V234.65L406.039 234.595ZM389.515 260.104L389.665 260.304V260.304L389.515 260.104ZM357.94 268.98L357.922 269.229V269.229L357.94 268.98ZM357.871 268.975L357.851 269.224V269.224L357.871 268.975ZM356.907 268.895L356.886 269.145L356.907 268.895ZM347.736 267.302L347.799 267.06C347.719 267.039 347.632 267.06 347.57 267.115C347.507 267.171 347.477 267.254 347.489 267.337L347.736 267.302ZM344.789 285.579L345.011 285.694L345.013 285.691L344.789 285.579ZM344.387 286.358L344.608 286.476L344.609 286.473L344.387 286.358ZM334.689 298.806L334.855 298.994L334.855 298.994L334.689 298.806ZM314.797 307.994L314.764 307.746C314.691 307.756 314.626 307.797 314.586 307.86C314.547 307.922 314.537 307.998 314.559 308.069L314.797 307.994ZM312.977 331.238L313.199 331.353L313.2 331.349L312.977 331.238ZM312.574 332.017L312.795 332.134L312.797 332.132L312.574 332.017ZM302.877 344.465L303.042 344.652L303.042 344.652L302.877 344.465ZM275.946 353.909L275.931 354.159V354.159L275.946 353.909ZM275.845 353.903L275.826 354.152L275.826 354.152L275.845 353.903ZM274.852 353.827L274.833 354.076L274.852 353.827ZM262.498 350.354L262.609 350.13C262.58 350.116 262.55 350.108 262.518 350.105L262.498 350.354ZM37.8969 332.019L37.8765 332.268L37.8766 332.268L37.8969 332.019ZM37.8347 332.013L37.8118 332.262L37.8118 332.262L37.8347 332.013ZM18.5168 324.248L18.3599 324.442L18.3599 324.442L18.5168 324.248ZM7.87387 309.956L7.64291 310.052L7.64291 310.052L7.87387 309.956ZM4.92689 292.034L4.6772 292.022L4.6772 292.022L4.92689 292.034ZM4.93896 291.803L4.68943 291.788V291.788L4.93896 291.803ZM4.94191 291.754L5.19131 291.771L4.94191 291.754ZM4.94652 291.687L4.78665 291.495C4.73416 291.539 4.70181 291.602 4.69711 291.67L4.94652 291.687ZM4.94818 291.686L5.10805 291.878C5.16109 291.834 5.19354 291.77 5.19772 291.701L4.94818 291.686ZM14.3725 265.032L14.1661 264.891L14.1661 264.891L14.3725 265.032ZM15.4338 263.541L15.6345 263.69C15.6878 263.618 15.6987 263.524 15.6632 263.442L15.4338 263.541ZM12.568 246.952L12.3186 246.935L12.3184 246.937L12.568 246.952ZM12.6331 246.026L12.3839 246.006L12.3837 246.009L12.6331 246.026ZM12.7754 244.61L13.0238 244.638C13.0283 244.599 13.0234 244.559 13.0095 244.522L12.7754 244.61ZM14.2112 219.474L14.4338 219.587C14.4687 219.519 14.4703 219.439 14.4382 219.369L14.2112 219.474ZM11.5885 202.387L11.3395 202.364V202.364L11.5885 202.387ZM31.878 175.955L31.9645 176.189C32.0549 176.156 32.1181 176.074 32.1269 175.978L31.878 175.955ZM41.2045 74.3839L41.4535 74.4068C41.4623 74.3108 41.4152 74.2184 41.3324 74.1691L41.2045 74.3839ZM26.1769 43.5124L25.9279 43.4895V43.4895L26.1769 43.5124ZM297.6 24.6256L297.589 24.8754C301.635 25.0458 305.208 25.656 307.281 26.0552L307.328 25.8097L307.375 25.5642C305.292 25.1629 301.691 24.5478 297.61 24.3758L297.6 24.6256ZM307.328 25.8097L307.168 25.6175L307.166 25.6189L307.326 25.811L307.486 26.0033L307.488 26.0019L307.328 25.8097ZM307.326 25.811L307.279 26.0565C314.076 27.3644 319.315 29.6343 323.751 32.2371L323.878 32.0214L324.004 31.8058C319.525 29.178 314.233 26.8855 307.374 25.5656L307.326 25.811ZM323.878 32.0214L323.751 32.2371C325.484 33.2539 327.139 34.3584 327.775 34.7756L327.912 34.5665L328.049 34.3574C327.417 33.9429 325.751 32.8304 324.004 31.8058L323.878 32.0214ZM327.912 34.5665L327.775 34.7756C328.195 35.0508 328.495 35.2443 328.73 35.392L328.863 35.1803L328.996 34.9686C328.765 34.8235 328.468 34.632 328.049 34.3574L327.912 34.5665ZM328.863 35.1803L328.734 35.3942L329.292 35.7316L329.421 35.5177L329.55 35.3038L328.992 34.9663L328.863 35.1803ZM329.421 35.5177L329.307 35.7404L329.322 35.7478L329.436 35.5252L329.549 35.3025L329.535 35.295L329.421 35.5177ZM329.436 35.5252L329.313 35.7427C329.38 35.7812 329.471 35.8308 329.744 35.9665L329.855 35.7427L329.966 35.5189C329.698 35.3853 329.616 35.3401 329.559 35.3076L329.436 35.5252ZM329.855 35.7427L329.745 35.967L331.37 36.7667L331.48 36.5424L331.591 36.318L329.965 35.5184L329.855 35.7427ZM331.48 36.5424L331.365 36.7641L331.397 36.7808L331.512 36.5591L331.628 36.3373L331.596 36.3206L331.48 36.5424ZM331.512 36.5591L331.402 36.7835C332.682 37.4121 335.495 38.7905 338.428 40.7628L338.568 40.5554L338.707 40.3479C335.744 38.3552 332.904 36.9643 331.623 36.3347L331.512 36.5591ZM338.568 40.5554L338.428 40.7628C345.7 45.6529 352.364 53.2294 355.49 64.3206L355.731 64.2528L355.972 64.1849C352.808 52.9635 346.062 45.2941 338.707 40.3479L338.568 40.5554ZM355.731 64.2528L355.49 64.3177L355.783 65.4082L356.024 65.3433L356.266 65.2784L355.972 64.1879L355.731 64.2528ZM356.024 65.3433L355.781 65.4021L355.797 65.4663L356.04 65.4075L356.283 65.3486L356.267 65.2845L356.024 65.3433ZM356.04 65.4075L355.797 65.4669L356.009 66.3357L356.252 66.2763L356.495 66.2169L356.282 65.3481L356.04 65.4075ZM356.252 66.2763L356.009 66.3357C356.014 66.3545 356.018 66.3709 356.023 66.3943L356.266 66.3373L356.51 66.2804C356.506 66.2632 356.5 66.2386 356.495 66.2169L356.252 66.2763ZM356.266 66.3373L356.023 66.3943C358.614 77.4689 356.965 87.5797 353.179 96.0707L353.408 96.1725L353.636 96.2743C357.461 87.6953 359.129 77.4731 356.51 66.2804L356.266 66.3373ZM353.408 96.1725L353.439 96.4205C355.634 96.1425 357.888 96.0958 360.17 96.3053L360.193 96.0564L360.216 95.8074C357.897 95.5945 355.607 95.642 353.376 95.9245L353.408 96.1725ZM157.29 24.2097L157.267 24.4587C174.028 25.9978 186.436 40.6252 185.329 57.3231L185.579 57.3396L185.828 57.3562C186.953 40.3883 174.344 25.5247 157.312 23.9608L157.29 24.2097ZM185.579 57.3396L185.329 57.3201L185.266 58.1238L185.516 58.1434L185.765 58.163L185.828 57.3592L185.579 57.3396ZM185.516 58.1434L185.267 58.1205L183.583 76.4588L183.832 76.4817L184.081 76.5046L185.764 58.1663L185.516 58.1434ZM183.832 76.4817L183.676 76.6772C184.411 77.2639 185.133 77.8768 185.836 78.5199L186.004 78.3355L186.173 78.1511C185.462 77.4997 184.731 76.8794 183.988 76.2863L183.832 76.4817ZM186.004 78.3355L185.836 78.5199C187.221 79.7882 188.468 81.1032 189.594 82.4387L189.785 82.2775L189.976 82.1164C188.837 80.7654 187.575 79.4347 186.173 78.1512L186.004 78.3355ZM189.785 82.2775L189.951 82.4647C192.593 80.1247 195.572 78.0998 198.849 76.4926L198.739 76.2681L198.629 76.0437C195.311 77.6713 192.294 79.7216 189.619 82.0904L189.785 82.2775ZM198.739 76.2681L198.988 76.2777C199.036 75.0263 199.147 73.7077 199.348 72.3106L199.101 72.275L198.853 72.2394C198.65 73.6549 198.537 74.9909 198.489 76.2585L198.739 76.2681ZM199.101 72.275L199.348 72.3106C199.365 72.1968 199.388 72.0615 199.408 71.9366L199.161 71.8964L198.915 71.8563C198.896 71.9737 198.87 72.1196 198.853 72.2394L199.101 72.275ZM199.161 71.8964L199.411 71.9138C199.436 71.5495 199.468 71.1738 199.509 70.7925L199.261 70.7654L199.012 70.7384C198.97 71.1277 198.938 71.51 198.912 71.8791L199.161 71.8964ZM199.261 70.7654L199.509 70.7925C200.038 65.9411 202.126 57.7778 209.469 50.9999L209.3 50.8162L209.13 50.6324C201.669 57.5189 199.549 65.8128 199.012 70.7384L199.261 70.7654ZM209.3 50.8162L209.469 50.9999C216.002 44.9713 223.163 43.3699 226.741 42.8677L226.706 42.6201L226.671 42.3725C223.041 42.8822 215.766 44.5079 209.13 50.6324L209.3 50.8162ZM226.706 42.6201L226.746 42.8669C226.742 42.8675 226.74 42.8678 226.739 42.8679C226.739 42.8679 226.738 42.8679 226.74 42.8677C226.743 42.8675 226.75 42.8666 226.759 42.8652L226.72 42.6183L226.68 42.3715C226.684 42.3709 226.687 42.3706 226.684 42.3708C226.684 42.3709 226.681 42.3712 226.679 42.3715C226.676 42.3718 226.672 42.3724 226.666 42.3733L226.706 42.6201ZM226.72 42.6183L226.754 42.8659C226.771 42.8636 226.786 42.8606 226.793 42.8591C226.798 42.8583 226.801 42.8578 226.803 42.8573C226.805 42.857 226.806 42.8569 226.805 42.8569L226.771 42.6093L226.737 42.3616C226.72 42.3639 226.705 42.367 226.698 42.3684C226.693 42.3693 226.69 42.3698 226.688 42.3702C226.686 42.3706 226.685 42.3707 226.685 42.3707L226.72 42.6183ZM226.771 42.6093L226.809 42.8564C226.839 42.8518 226.863 42.8498 226.922 42.8418L226.889 42.5941L226.856 42.3463C226.822 42.3508 226.764 42.3574 226.733 42.3621L226.771 42.6093ZM226.889 42.5941L226.922 42.8418C230.438 42.3685 233.46 42.587 235.341 42.8298L235.373 42.5819L235.405 42.3339C233.496 42.0875 230.427 41.8654 226.856 42.3463L226.889 42.5941ZM235.373 42.5819L235.457 42.8173C237.118 42.2244 238.927 41.6815 240.866 41.2375L240.811 40.9938L240.755 40.7501C238.795 41.1988 236.967 41.7474 235.289 42.3464L235.373 42.5819ZM240.811 40.9938L240.955 41.1975C241.142 41.0652 241.33 40.9285 241.528 40.7921L241.387 40.586L241.245 40.3799C241.042 40.5194 240.846 40.6617 240.666 40.79L240.811 40.9938ZM241.387 40.586L241.528 40.7921C241.935 40.5131 243.032 39.7647 244.435 38.9843L244.313 38.7658L244.192 38.5473C242.768 39.3392 241.656 40.0979 241.245 40.3799L241.387 40.586ZM244.313 38.7658L244.435 38.9843C245.049 38.6424 246.645 37.7711 248.788 36.968L248.701 36.7339L248.613 36.4998C246.436 37.3154 244.815 38.2003 244.192 38.5473L244.313 38.7658ZM248.701 36.7339L248.788 36.968C249.848 36.571 251.905 35.8589 254.591 35.4087L254.55 35.1621L254.509 34.9156C251.78 35.373 249.69 36.0964 248.613 36.4998L248.701 36.7339ZM254.55 35.1621L254.591 35.4087C256.475 35.093 261.454 34.3933 267.567 35.9884L267.63 35.7465L267.693 35.5046C261.482 33.8839 256.423 34.5947 254.509 34.9156L254.55 35.1621ZM267.63 35.7465L267.812 35.9184C270.632 32.9406 274.023 30.422 277.911 28.5641L277.803 28.3386L277.695 28.113C273.75 29.9981 270.31 32.5536 267.449 35.5745L267.63 35.7465ZM277.803 28.3386L277.902 28.5684L277.94 28.552L277.841 28.3222L277.743 28.0924L277.705 28.1088L277.803 28.3386ZM277.841 28.3222L277.949 28.5479C286.396 24.5243 294.64 24.7512 297.589 24.8754L297.6 24.6256L297.61 24.3758C294.641 24.2508 286.295 24.0184 277.734 28.0965L277.841 28.3222ZM360.193 96.0564L360.17 96.3053L368.795 97.0973L368.817 96.8483L368.84 96.5994L360.216 95.8074L360.193 96.0564ZM60.1105 15.2864L60.0877 15.5354L157.267 24.4587L157.29 24.2097L157.312 23.9608L60.1334 15.0375L60.1105 15.2864ZM368.817 96.8483L368.795 97.0973C377.041 97.8545 384.641 101.885 389.895 108.286L390.088 108.128L390.282 107.969C384.943 101.465 377.22 97.3688 368.84 96.5994L368.817 96.8483ZM390.088 108.128L389.895 108.286C394.7 114.141 397.175 121.533 396.901 129.055L397.151 129.064L397.4 129.073C397.679 121.43 395.165 113.918 390.282 107.969L390.088 108.128ZM397.151 129.064L397.024 129.279C406.842 135.073 413.061 146.082 412.187 158.172L412.437 158.19L412.686 158.208C413.574 145.922 407.253 134.735 397.278 128.849L397.151 129.064ZM412.437 158.19L412.187 158.17L412.137 158.785L412.386 158.805L412.635 158.826L412.686 158.211L412.437 158.19ZM412.386 158.805L412.137 158.783L411.947 160.852L412.196 160.875L412.445 160.898L412.635 158.828L412.386 158.805ZM412.196 160.875L411.947 160.852C410.798 173.363 402.36 183.427 391.23 187.281L391.312 187.517L391.394 187.754C402.701 183.838 411.278 173.611 412.445 160.898L412.196 160.875ZM391.312 187.517L391.063 187.494L389.9 200.165L390.149 200.188L390.397 200.21L391.561 187.54L391.312 187.517ZM390.149 200.188L390.032 200.409C394.16 202.587 397.791 205.695 400.604 209.554L400.806 209.407L401.008 209.26C398.15 205.338 394.46 202.18 390.265 199.966L390.149 200.188ZM400.806 209.407L400.602 209.551L401.086 210.237L401.291 210.093L401.495 209.949L401.01 209.263L400.806 209.407ZM401.291 210.093L401.085 210.235C405.96 217.318 407.676 226.125 405.795 234.541L406.039 234.595L406.283 234.65C408.194 226.098 406.451 217.149 401.497 209.951L401.291 210.093ZM406.039 234.595L405.795 234.541C403.723 243.811 398.361 253.175 389.365 259.904L389.515 260.104L389.665 260.304C398.763 253.498 404.187 244.027 406.283 234.65L406.039 234.595ZM389.515 260.104L389.365 259.904C380.263 266.713 369.194 269.531 357.957 268.73L357.94 268.98L357.922 269.229C369.266 270.037 380.456 267.193 389.665 260.304L389.515 260.104ZM357.94 268.98L357.957 268.73C357.928 268.728 357.913 268.727 357.892 268.726L357.871 268.975L357.851 269.224C357.874 269.226 357.905 269.228 357.922 269.229L357.94 268.98ZM357.871 268.975L357.892 268.726L356.927 268.646L356.907 268.895L356.886 269.145L357.851 269.224L357.871 268.975ZM356.907 268.895L356.927 268.646C356.909 268.645 356.893 268.643 356.87 268.641L356.847 268.89L356.825 269.139C356.841 269.14 356.865 269.143 356.886 269.145L356.907 268.895ZM356.847 268.89L356.87 268.641C353.783 268.358 350.747 267.833 347.799 267.06L347.736 267.302L347.673 267.544C350.648 268.324 353.711 268.853 356.825 269.139L356.847 268.89ZM347.736 267.302L347.489 267.337C348.362 273.485 347.375 279.812 344.565 285.468L344.789 285.579L345.013 285.691C347.869 279.943 348.871 273.513 347.984 267.267L347.736 267.302ZM344.789 285.579L344.567 285.465L344.165 286.243L344.387 286.358L344.609 286.473L345.011 285.694L344.789 285.579ZM344.387 286.358L344.166 286.241C342.667 289.057 339.66 294.084 334.524 298.619L334.689 298.806L334.855 298.994C340.054 294.403 343.094 289.318 344.608 286.476L344.387 286.358ZM334.689 298.806L334.524 298.619C330.279 302.366 323.557 306.578 314.764 307.746L314.797 307.994L314.83 308.242C323.746 307.058 330.558 302.788 334.855 298.994L334.689 298.806ZM314.797 307.994L314.559 308.069C316.95 315.675 316.322 323.942 312.753 331.127L312.977 331.238L313.2 331.349C316.828 324.049 317.465 315.648 315.036 307.919L314.797 307.994ZM312.977 331.238L312.754 331.123L312.352 331.902L312.574 332.017L312.797 332.132L313.199 331.353L312.977 331.238ZM312.574 332.017L312.354 331.899C310.855 334.716 307.848 339.742 302.711 344.278L302.877 344.465L303.042 344.652C308.241 340.062 311.282 334.977 312.795 332.134L312.574 332.017ZM302.877 344.465L302.711 344.278C297.404 348.963 288.198 354.396 275.961 353.66L275.946 353.909L275.931 354.159C288.34 354.906 297.67 349.395 303.042 344.652L302.877 344.465ZM275.946 353.909L275.961 353.66C275.923 353.657 275.895 353.656 275.865 353.654L275.845 353.903L275.826 354.152C275.862 354.155 275.902 354.157 275.931 354.159L275.946 353.909ZM275.845 353.903L275.865 353.654L274.871 353.578L274.852 353.827L274.833 354.076L275.826 354.152L275.845 353.903ZM274.852 353.827L274.871 353.578C274.841 353.576 274.816 353.573 274.779 353.569L274.756 353.818L274.733 354.067C274.759 354.07 274.799 354.074 274.833 354.076L274.852 353.827ZM274.756 353.818L274.779 353.569C270.935 353.216 266.721 352.174 262.609 350.13L262.498 350.354L262.386 350.578C266.56 352.652 270.835 353.709 274.733 354.067L274.756 353.818ZM262.498 350.354L262.518 350.105L37.9173 331.769L37.8969 332.019L37.8766 332.268L262.477 350.603L262.498 350.354ZM37.8969 332.019L37.9173 331.769C37.898 331.768 37.8818 331.766 37.8576 331.764L37.8347 332.013L37.8118 332.262C37.829 332.263 37.8543 332.266 37.8765 332.268L37.8969 332.019ZM37.8347 332.013L37.8576 331.764C31.2174 331.154 24.4659 328.724 18.6737 324.053L18.5168 324.248L18.3599 324.442C24.2354 329.18 31.0823 331.643 37.8118 332.262L37.8347 332.013ZM18.5168 324.248L18.6737 324.053C13.0998 319.558 9.90194 314.198 8.10483 309.86L7.87387 309.956L7.64291 310.052C9.46397 314.447 12.7061 319.883 18.3599 324.442L18.5168 324.248ZM7.87387 309.956L8.10483 309.86C4.8465 301.996 5.04171 294.747 5.17658 292.047L4.92689 292.034L4.6772 292.022C4.54108 294.747 4.34209 302.085 7.64291 310.052L7.87387 309.956ZM4.92689 292.034L5.17658 292.047C5.17925 291.993 5.18298 291.908 5.1885 291.818L4.93896 291.803L4.68943 291.788C4.68368 291.882 4.67969 291.972 4.6772 292.022L4.92689 292.034ZM4.93896 291.803L5.1885 291.818C5.18971 291.798 5.19026 291.787 5.19131 291.771L4.94191 291.754L4.6925 291.737C4.69132 291.754 4.69019 291.775 4.68943 291.788L4.93896 291.803ZM4.94191 291.754L5.19131 291.771L5.19593 291.704L4.94652 291.687L4.69711 291.67L4.6925 291.737L4.94191 291.754ZM4.94652 291.687L5.10639 291.879L5.10805 291.878L4.94818 291.686L4.7883 291.494L4.78665 291.495L4.94652 291.687ZM4.94818 291.686L5.19772 291.701C5.7625 282.387 9.42936 272.713 14.579 265.173L14.3725 265.032L14.1661 264.891C8.97197 272.496 5.26954 282.256 4.69863 291.671L4.94818 291.686ZM14.3725 265.032L14.579 265.173C14.8985 264.705 15.2497 264.208 15.6345 263.69L15.4338 263.541L15.2331 263.392C14.8438 263.916 14.4888 264.419 14.1661 264.891L14.3725 265.032ZM15.4338 263.541L15.6632 263.442C12.7588 256.732 12.6069 250.545 12.8175 246.967L12.568 246.952L12.3184 246.937C12.1051 250.561 12.2582 256.834 15.2044 263.64L15.4338 263.541ZM12.568 246.952L12.8174 246.97L12.8825 246.044L12.6331 246.026L12.3837 246.009L12.3186 246.935L12.568 246.952ZM12.6331 246.026L12.8823 246.046C12.9214 245.567 12.971 245.097 13.0238 244.638L12.7754 244.61L12.527 244.581C12.474 245.043 12.4237 245.519 12.3839 246.006L12.6331 246.026ZM12.7754 244.61L13.0095 244.522C9.96 236.377 10.4802 227.327 14.4338 219.587L14.2112 219.474L13.9885 219.36C9.97107 227.224 9.44246 236.421 12.5413 244.697L12.7754 244.61ZM14.2112 219.474L14.4382 219.369C12.2363 214.595 11.2142 209.196 11.7285 203.596L11.4795 203.573L11.2306 203.551C10.7081 209.241 11.7468 214.728 13.9841 219.578L14.2112 219.474ZM11.4795 203.573L11.7285 203.596L11.8374 202.41L11.5885 202.387L11.3395 202.364L11.2306 203.551L11.4795 203.573ZM11.5885 202.387L11.8374 202.41C12.9659 190.121 21.1285 180.189 31.9645 176.189L31.878 175.955L31.7914 175.72C20.7818 179.784 12.4863 189.876 11.3395 202.364L11.5885 202.387ZM31.878 175.955L32.1269 175.978L41.4535 74.4068L41.2045 74.3839L40.9556 74.3611L31.629 175.932L31.878 175.955ZM41.2045 74.3839L41.3324 74.1691C31.4062 68.2626 25.1883 57.0122 26.3167 44.7235L26.0677 44.7007L25.8188 44.6778C24.6721 57.1659 30.9915 68.5977 41.0767 74.5988L41.2045 74.3839ZM26.0677 44.7007L26.3167 44.7235L26.4258 43.5353L26.1769 43.5124L25.9279 43.4895L25.8188 44.6778L26.0677 44.7007ZM26.1769 43.5124L26.4258 43.5353C27.9894 26.508 43.0603 13.9719 60.0877 15.5354L60.1105 15.2864L60.1334 15.0375C42.831 13.4487 27.5168 26.1873 25.9279 43.4895L26.1769 43.5124ZM226.835 42.6013L226.799 42.3538C226.782 42.3562 226.725 42.3634 226.708 42.3661L226.746 42.6131L226.785 42.8601C226.811 42.856 226.814 42.8568 226.87 42.8488L226.835 42.6013ZM226.72 42.6183L226.641 42.1246C226.368 42.1682 226.183 42.4243 226.226 42.6967C226.269 42.9692 226.525 43.1551 226.798 43.1122L226.72 42.6183ZM226.746 42.6131L227.066 42.9975C227.239 42.8539 227.294 42.6129 227.202 42.4081C227.11 42.2034 226.893 42.085 226.671 42.1188L226.746 42.6131ZM226.745 42.6145L226.822 43.1085C226.911 43.0945 226.995 43.0566 227.064 42.9989L226.745 42.6145ZM237.127 42.8562L237.217 42.3643C237.202 42.3617 237.188 42.3597 237.173 42.3583L237.127 42.8562ZM237.048 43.3505C237.319 43.4003 237.58 43.2206 237.63 42.9489C237.68 42.6773 237.5 42.4168 237.228 42.3669L237.138 42.8587L237.048 43.3505ZM237.123 42.8558L237.169 42.3579C236.902 42.3334 236.664 42.5232 236.627 42.7883C236.591 43.0535 236.77 43.3001 237.034 43.3478L237.123 42.8558ZM226.746 42.6131L226.427 42.2287L226.425 42.2301L226.745 42.6145L227.064 42.9989L227.066 42.9975L226.746 42.6131ZM226.745 42.6145L226.667 42.1205C226.666 42.1206 226.647 42.1237 226.641 42.1246L226.72 42.6183L226.799 43.112C226.807 43.1107 226.804 43.1112 226.822 43.1085L226.745 42.6145ZM226.72 42.6183L226.798 43.1122C226.811 43.1101 226.822 43.1079 226.828 43.1066C226.832 43.1059 226.834 43.1053 226.836 43.1049C226.837 43.1047 226.838 43.1046 226.838 43.1045C226.839 43.1043 226.839 43.1043 226.839 43.1042C226.841 43.1039 226.833 43.1057 226.822 43.1074L226.746 42.6131L226.671 42.1188C226.649 42.1222 226.631 42.126 226.624 42.1276C226.623 42.1278 226.623 42.128 226.622 42.1281C226.621 42.1282 226.621 42.1283 226.621 42.1283C226.621 42.1284 226.621 42.1282 226.623 42.1279C226.625 42.1274 226.632 42.1259 226.642 42.1244L226.72 42.6183ZM237.127 42.8562L237.038 43.3482C237.025 43.3459 237.016 43.3436 237.012 43.3426C237.009 43.342 237.007 43.3415 237.006 43.3413C237.006 43.3411 237.005 43.3409 237.006 43.3411C237.006 43.3411 237.007 43.3415 237.009 43.3419C237.011 43.3424 237.013 43.3431 237.017 43.3439C237.023 43.3453 237.034 43.348 237.048 43.3505L237.138 42.8587L237.228 42.3669C237.24 42.3692 237.25 42.3715 237.254 42.3725C237.256 42.3731 237.258 42.3735 237.259 42.3737C237.26 42.3739 237.26 42.3741 237.26 42.3739C237.259 42.3738 237.258 42.3734 237.256 42.373C237.254 42.3725 237.252 42.3718 237.248 42.371C237.242 42.3695 237.231 42.3669 237.217 42.3643L237.127 42.8562ZM237.138 42.8587L237.228 42.3669C237.23 42.3672 237.23 42.3674 237.23 42.3673C237.23 42.3673 237.23 42.3672 237.228 42.3669C237.227 42.3666 237.224 42.3662 237.222 42.3657C237.219 42.3652 237.216 42.3645 237.212 42.3638L237.123 42.8558L237.034 43.3478C237.033 43.3477 237.032 43.3475 237.032 43.3475C237.031 43.3474 237.031 43.3473 237.031 43.3473C237.031 43.3473 237.031 43.3474 237.032 43.3474C237.032 43.3475 237.032 43.3476 237.033 43.3477C237.034 43.3479 237.036 43.3483 237.038 43.3487C237.041 43.3492 237.044 43.3498 237.048 43.3505L237.138 42.8587ZM237.123 42.8558L237.077 43.3537L237.082 43.3541L237.127 42.8562L237.173 42.3583L237.169 42.3579L237.123 42.8558Z" fill="#B4B4B4" mask="url(#path-1-outside-1_855_3133)"></path><path fill-rule="evenodd" clip-rule="evenodd" d="M297.338 30.8636C300.961 31.0162 304.207 31.5665 306.147 31.9402C312.19 33.103 316.791 35.1024 320.719 37.4069C322.294 38.331 323.804 39.3389 324.491 39.7891C325.345 40.3487 325.833 40.6572 326.324 40.9381L326.324 40.9391L326.325 40.9401C326.747 41.1812 327.098 41.3455 328.729 42.1464L328.743 42.1526C329.995 42.7679 332.502 44 335.085 45.7368C341.551 50.0853 347.403 56.8306 349.977 66.8922L350.189 67.761C354.24 85.0735 346.405 99.8493 336.922 108.67C336.745 108.836 336.628 109.061 336.594 109.301C336.435 110.427 338.167 111.1 338.935 110.263C344.063 104.676 351.631 101.54 359.623 102.274L368.247 103.066C374.897 103.677 381.027 106.926 385.264 112.088C389.501 117.251 391.494 123.895 390.797 130.537L390.721 131.252C390.627 132.143 391.141 132.981 391.952 133.363C401.179 137.712 407.157 147.489 406.17 158.235L405.98 160.306C404.978 171.226 397.085 179.854 386.989 182.295C386.113 182.507 385.438 183.23 385.355 184.127L383.664 202.542C383.58 203.465 384.144 204.318 385.003 204.668C389.258 206.402 392.999 209.294 395.761 213.085C399.988 218.887 401.514 226.229 399.949 233.236C398.163 241.226 393.535 249.303 385.776 255.106C377.946 260.964 368.339 263.464 358.383 262.755L357.418 262.675C351.84 262.163 346.535 260.789 341.742 258.533C341.527 258.432 341.288 258.392 341.052 258.418C340.495 258.477 340.033 258.882 339.901 259.426L339.879 259.519C339.813 259.784 339.733 260.108 339.642 260.481C339.534 260.923 339.582 261.388 339.764 261.805C339.802 261.893 339.84 261.98 339.877 262.069C342.763 268.977 342.396 276.817 338.878 283.426C337.547 285.926 334.941 290.259 330.559 294.128C326.389 297.81 319.514 301.922 310.495 302.068C309.447 302.085 308.549 302.851 308.351 303.881C308.268 304.314 308.173 304.746 308.065 305.177C307.999 305.442 307.92 305.767 307.829 306.139C307.721 306.581 307.77 307.046 307.952 307.464C307.99 307.551 308.027 307.639 308.064 307.727C310.95 314.636 310.584 322.476 307.066 329.085C305.734 331.586 303.129 335.917 298.747 339.787C294.22 343.783 286.506 348.292 276.322 347.679L275.327 347.604C271.937 347.292 268.212 346.336 264.635 344.44C264.386 344.308 264.113 344.224 263.831 344.201L38.4057 325.798C32.8367 325.286 27.2297 323.256 22.4355 319.39C17.8172 315.665 15.1506 311.212 13.6407 307.568C10.8916 300.933 11.041 294.745 11.1609 292.346C11.1636 292.293 11.1665 292.239 11.1698 292.185L11.174 292.118C11.6545 283.998 14.9 275.327 19.5268 268.553C20.1553 267.633 20.941 266.57 21.8824 265.434C22.4386 264.763 22.5242 263.818 22.1162 263.048C22.07 262.961 22.0237 262.873 21.9785 262.786C18.7918 256.59 18.6033 250.663 18.8005 247.318C18.8619 246.265 18.9729 245.242 19.1089 244.28C19.1541 243.959 19.1059 243.634 18.9807 243.336C15.9777 236.184 16.4702 228.041 20.3126 221.302C20.4255 221.104 20.55 220.89 20.6863 220.661C21.0786 220.001 21.0792 219.18 20.7073 218.509C18.3633 214.279 17.22 209.325 17.6956 204.145L17.8046 202.959C18.7893 192.234 26.4191 183.721 36.255 181.106C37.1087 180.879 37.7606 180.164 37.8413 179.285L47.6744 72.1981C47.7552 71.3184 47.2444 70.4967 46.4463 70.1181C37.2512 65.7561 31.2991 55.9971 32.2838 45.2727L32.393 44.0844C33.6539 30.3525 45.8083 20.2424 59.5402 21.5033L156.719 30.4266C170.451 31.6876 180.561 43.842 179.3 57.5739L177.402 78.2457C177.335 78.9812 177.68 79.6903 178.284 80.1164C179.496 80.9728 180.668 81.9129 181.79 82.94C184.095 85.0505 185.963 87.3132 187.483 89.5831C188.288 90.7857 190.074 90.9027 191.038 89.8233C194.697 85.7267 199.371 82.4302 204.831 80.4515C204.952 80.4075 205.029 80.2895 205.021 80.161L204.988 79.4637C204.906 77.523 204.95 75.4636 205.28 73.1652C205.308 72.9729 205.341 72.7877 205.369 72.6114C205.392 72.2273 205.423 71.8344 205.466 71.4425C205.897 67.4851 207.598 60.8833 213.535 55.4041C218.886 50.4658 224.768 49.1849 227.678 48.7879C227.693 48.7859 227.707 48.7829 227.721 48.781C231.817 48.2296 235.101 48.8321 236.009 48.9988L236.011 48.9989C236.025 49.0015 236.039 49.0009 236.052 48.9958C238.093 48.1867 240.415 47.4431 242.968 46.9105C243.264 46.8487 243.543 46.724 243.786 46.5443C244.101 46.3115 244.494 46.0255 244.92 45.7334C245.277 45.4882 246.192 44.8649 247.348 44.2216C247.85 43.9427 249.15 43.2331 250.891 42.5807C251.747 42.26 253.411 41.6838 255.583 41.3198C257.235 41.0428 261.857 40.3948 267.397 42.1771L267.936 42.3561L268.906 42.7159C269.363 42.896 269.886 42.7552 270.184 42.3644C272.839 38.8805 276.321 35.9669 280.496 33.9723L280.507 33.9675C287.587 30.5886 294.613 30.7488 297.338 30.8636Z" fill="#822626"></path><path d="M277.609 322.741C274.128 322.422 274.842 318.475 275.55 315.682L279.357 299.884L267.906 319.192L265.966 319.014L263.132 299.096L259.619 313.868C258.698 317.344 257.917 320.933 255.282 320.691C253.839 320.559 252.715 319.152 252.377 317.365C252.46 316.47 252.957 315.964 253.703 316.033C255.046 316.156 256.093 318.409 256.471 319.747C257.742 319.563 258.649 316.236 259.271 313.836L263.201 297.247L267.229 297.617L269.727 315.197L279.611 298.754L283.838 299.142C282.885 302.966 280.299 313.661 279.668 316.16C279.341 317.535 278.357 321.155 279.998 321.306C282.086 321.497 283.843 318.75 284.78 317.282L285.024 317.354C283.752 319.745 281.289 323.079 277.609 322.741Z" fill="white"></path><path d="M246.72 299.545L247.3 297.593C246.854 296.448 246.199 295.937 245.159 295.791C239.051 295.13 235.278 307.822 235.026 312.212C234.893 314.205 235.058 316.778 237.146 316.97C241.075 317.33 245.668 302.808 246.72 299.545ZM235.472 318.822C231.096 318.42 230.761 313.876 230.881 311.48C231.243 305.345 236.751 293.966 244.549 294.782C245.992 294.915 247.153 295.924 247.423 297.353L249.002 295.442L251.547 296.127L246.738 314.089C246.294 315.653 245.532 318.492 247.372 318.661C248.863 318.798 250.864 316.123 251.951 314.117L252.195 314.189C250.814 316.67 248.849 320.05 245.268 319.721C242.334 319.452 242.21 316.432 242.963 313.693L244.996 305.756C243.641 309.593 239.798 319.219 235.472 318.822Z" fill="white"></path><path d="M224.65 312.261C224.884 309.174 223.231 306.414 220.094 306.728C218.9 307.17 217.62 307.454 216.494 307.701C216.292 310.992 216.513 316.78 220.043 317.104C222.43 317.323 224.49 315.105 224.65 312.261ZM224.934 293.332C220.31 292.907 216.783 302.914 216.476 307.349C220.786 306.29 225.59 302.569 226.255 298.067C226.6 295.942 226.575 293.483 224.934 293.332ZM229.917 298.052C229.664 302.442 225.421 304.961 220.867 306.498C224.647 306.294 227.543 308.616 227.359 311.708C227.102 315.596 223.547 317.726 219.071 317.315C213.402 316.795 212.046 311.355 212.33 307.72C212.837 301.649 217.01 292.253 225.215 293.007C228.547 293.313 230.104 295.462 229.917 298.052Z" fill="white"></path><path d="M209.154 310.338L209.448 310.415C208.298 312.566 205.614 316.131 201.884 315.788C199.945 315.61 199.376 314.154 199.36 312.698C199.374 311.446 199.783 309.728 200.087 308.602C200.087 308.602 203.04 297.741 203.118 296.344C203.191 295.548 203.029 294.581 201.736 294.462C198.156 294.133 194.449 303.923 192.607 310.323L191.654 314.147L187.477 313.763L191.166 298.707C191.412 297.676 191.765 296.555 191.839 295.208C191.903 294.512 191.741 293.544 190.398 293.421C186.867 293.097 182.835 303.157 181.152 308.92L180.113 313.137L175.986 312.758L180.941 292.101C181.254 290.876 181.269 290.176 178.931 289.961L178.683 289.938L178.706 289.69C183.579 290.137 184.8 289.948 185.65 289.425L185.899 289.447C185.899 289.447 183.807 298.031 182.509 303.428C185.323 295.713 189.325 289.812 193.204 290.168C195.641 290.392 196.494 292.025 196.393 293.671C196.288 294.814 196.034 295.944 195.779 297.074C195.376 298.742 194.332 303.009 194.001 304.433C196.797 296.917 200.663 290.853 204.592 291.214C206.979 291.433 207.677 293.654 207.577 295.299C207.42 298.093 204.772 307.278 204.245 309.185C203.874 310.505 203.483 312.023 203.46 312.824C203.396 313.52 203.481 314.23 204.376 314.312C206.465 314.504 208.317 311.815 209.154 310.338Z" fill="white"></path><path d="M171.913 307.921L172.103 308.038C170.468 310.546 167.772 312.605 164.291 312.286C157.528 311.665 157.06 304.751 158.195 299.49C159.33 294.228 163.767 287.415 170.082 287.995C173.762 288.332 175.852 291.784 175.713 294.93C175.279 295.843 174.591 296.783 173.497 296.683C170.861 296.441 172.71 291.596 173.295 290.145C172.703 289.489 172.097 288.982 170.655 288.85C166.478 288.466 163.421 295.005 162.49 299.132C161.514 303.756 161.481 310.122 166.553 310.588C168.99 310.811 170.664 309.511 171.913 307.921Z" fill="white"></path><path d="M154.473 305.316L154.766 305.393C153.616 307.544 150.932 311.109 147.202 310.767C145.263 310.589 144.695 309.132 144.678 307.676C144.693 306.424 145.101 304.706 145.405 303.581C145.405 303.581 148.358 292.72 148.436 291.323C148.509 290.527 148.347 289.559 147.054 289.441C143.474 289.112 139.767 298.901 137.926 305.301L136.973 309.125L132.796 308.742L136.485 293.685C136.73 292.655 137.084 291.534 137.157 290.187C137.221 289.49 137.059 288.523 135.717 288.399C132.186 288.075 128.153 298.136 126.47 303.898L125.431 308.116L121.304 307.737L126.26 287.08C126.573 285.855 126.587 285.154 124.25 284.94L124.001 284.917L124.024 284.668C128.897 285.116 130.118 284.927 130.968 284.403L131.217 284.426C131.217 284.426 129.125 293.01 127.827 298.407C130.642 290.692 134.644 284.791 138.523 285.147C140.959 285.371 141.812 287.003 141.711 288.649C141.606 289.793 141.352 290.923 141.098 292.053C140.694 293.721 139.65 297.988 139.319 299.412C142.115 291.896 145.982 285.832 149.91 286.192C152.297 286.412 152.996 288.632 152.895 290.278C152.739 293.072 150.09 302.256 149.564 304.163C149.192 305.483 148.802 307.002 148.778 307.802C148.714 308.498 148.8 309.208 149.695 309.29C151.783 309.482 153.635 306.794 154.473 305.316Z" fill="white"></path><path d="M111.103 307.451C109.114 307.269 108.555 305.713 108.642 304.217C108.666 302.865 109.042 301.495 109.346 300.37L110.549 295.466L103.139 294.785C102.436 297.529 101.056 303.269 100.421 305.819L96.2937 305.44L101.249 284.783C101.562 283.558 101.577 282.857 99.2395 282.643L98.9908 282.62L99.0137 282.371C103.887 282.819 105.108 282.63 105.958 282.106L106.207 282.129C106.207 282.129 104.451 289.239 103.298 294.148L110.707 294.828L113.403 283.492L117.58 283.875C116.605 287.948 114.345 297.268 113.623 300.211C113.147 302.123 112.679 303.936 112.629 304.483C112.565 305.179 112.7 305.893 113.546 305.971C115.684 306.167 117.545 303.379 118.373 302.001L118.617 302.074C117.467 304.225 114.832 307.794 111.103 307.451Z" fill="white"></path><path d="M91.643 285.206C91.9343 283.126 91.6694 281.096 90.0781 280.95C85.4534 280.525 81.6737 290.559 81.5205 294.957C86.201 293.682 91.1326 289.672 91.643 285.206ZM95.0108 285.665C94.6349 291.398 87.4123 294.144 81.5338 295.36C81.5723 297.67 82.0022 302.273 86.229 302.661C89.0635 302.921 91.2175 300.762 92.5891 298.932L92.7291 299.046C91.1125 301.906 88.0441 305.285 83.6681 304.883C78.2975 304.39 77.1451 298.918 77.3698 295.379C77.7366 289.746 81.905 279.848 90.2095 280.611C93.5413 280.917 95.1488 283.07 95.0108 285.665Z" fill="white"></path><path d="M73.5417 297.835L73.7315 297.952C72.1423 300.514 69.2053 303.554 64.5309 303.125C61.0003 302.801 59.3658 300.394 59.5718 297.605C59.8513 293.468 63.1262 291.663 67.1065 289.822C69.6258 288.599 72.1543 287.277 72.4014 284.04C72.5023 282.394 71.9167 280.034 69.3806 279.801C66.0488 279.495 63.8715 282.454 62.88 283.968L62.6903 283.85C64.5509 281.062 66.9947 278.478 71.1718 278.862C74.7522 279.191 76.1877 281.579 75.9909 284.269C75.7433 288.058 73.0108 289.963 69.6548 291.56C66.9228 292.914 63.5982 294.715 63.41 297.857C63.2547 299.548 64.1027 301.782 66.9371 302.042C69.6224 302.289 71.9708 300.198 73.5417 297.835Z" fill="white"></path><path d="M51.9369 281.66L52.5174 279.708C52.0708 278.563 51.4157 278.052 50.376 277.906C44.2687 277.245 40.4956 289.937 40.243 294.327C40.1101 296.32 40.275 298.893 42.3636 299.085C46.2921 299.446 50.8851 284.924 51.9369 281.66ZM40.6891 300.937C36.313 300.535 35.9781 295.991 36.0978 293.595C36.4605 287.46 41.9685 276.081 49.7666 276.898C51.2087 277.03 52.3697 278.039 52.6397 279.468L54.2193 277.557L56.764 278.242L51.9554 296.205C51.5109 297.768 50.7488 300.607 52.5887 300.776C54.0805 300.913 56.0813 298.238 57.1682 296.232L57.4122 296.304C56.031 298.785 54.0658 302.165 50.4854 301.837C47.5515 301.567 47.4277 298.547 48.1806 295.808L50.2133 287.871C48.858 291.708 45.0154 301.334 40.6891 300.937Z" fill="white"></path><path d="M309.422 277.082C305.941 276.762 306.654 272.816 307.362 270.023L311.17 254.225L299.718 273.533L297.779 273.355L294.944 253.437L291.431 268.209C290.51 271.685 289.73 275.274 287.094 275.032C285.652 274.899 284.527 273.492 284.19 271.706C284.272 270.811 284.77 270.305 285.516 270.374C286.859 270.497 287.905 272.749 288.284 274.088C289.555 273.904 290.462 270.577 291.083 268.177L295.014 251.588L299.042 251.958L301.539 269.538L311.424 253.095L315.651 253.483C314.698 257.307 312.111 268.002 311.48 270.501C311.154 271.875 310.169 275.496 311.81 275.647C313.899 275.838 315.655 273.091 316.593 271.623L316.837 271.695C315.564 274.086 313.102 277.42 309.422 277.082Z" fill="white"></path><path d="M262.004 272.326C265.833 272.678 267.951 264.899 268.089 262.304C268.195 260.609 268.135 257.444 265.996 257.248C264.107 257.074 262.347 258.216 261.143 259.309C260.617 261.217 259.687 264.792 259.559 266.736C259.462 268.332 259.522 272.048 262.004 272.326ZM267.977 256.427C271.757 256.774 272.301 259.582 272.159 262.226C271.883 266.865 267.885 273.268 261.57 272.688C257.044 272.272 255.673 268.636 255.884 265.245C256.059 262.253 257.496 257.52 258.463 254.099L259.424 250.727C259.737 249.502 259.702 248.797 257.414 248.587L257.116 248.559L257.188 248.315C262.062 248.763 263.084 248.556 263.934 248.032L264.183 248.055L261.239 258.817C262.922 257.417 265.391 256.189 267.977 256.427ZM278.334 272.522C280.472 272.718 282.378 269.985 283.162 268.552L283.455 268.629C282.255 270.776 279.671 274.35 275.891 274.003C274.002 273.829 273.424 272.472 273.466 270.922C273.499 269.47 273.912 267.703 274.284 266.383L278.241 250.048L282.418 250.431L278.412 266.762C277.926 268.774 277.477 270.387 277.467 271.038C277.403 271.734 277.489 272.444 278.334 272.522Z" fill="white"></path><path d="M244.702 271.139C242.713 270.956 242.154 269.401 242.241 267.904C242.265 266.552 242.641 265.183 242.945 264.057L244.148 259.153L236.738 258.473C236.035 261.216 234.655 266.957 234.02 269.506L229.893 269.127L234.848 248.47C235.162 247.245 235.176 246.545 232.839 246.33L232.59 246.307L232.613 246.059C237.486 246.506 238.707 246.317 239.557 245.794L239.806 245.817C239.806 245.817 238.05 252.927 236.897 257.835L244.307 258.516L247.002 247.179L251.179 247.563C250.204 251.636 247.944 260.956 247.222 263.899C246.746 265.81 246.278 267.623 246.228 268.17C246.164 268.866 246.299 269.581 247.145 269.658C249.283 269.855 251.144 267.067 251.972 265.689L252.216 265.761C251.066 267.912 248.432 271.481 244.702 271.139Z" fill="white"></path><path d="M219.873 268.86C216.392 268.54 217.105 264.594 217.813 261.8L221.621 246.003L210.169 265.311L208.23 265.133L205.395 245.215L201.883 259.986C200.962 263.462 200.181 267.051 197.545 266.809C196.103 266.677 194.979 265.27 194.641 263.484C194.723 262.589 195.221 262.083 195.967 262.151C197.31 262.274 198.356 264.527 198.735 265.865C200.006 265.681 200.913 262.355 201.534 259.954L205.465 243.366L209.493 243.736L211.99 261.316L221.875 244.873L226.102 245.261C225.149 249.085 222.562 259.779 221.931 262.279C221.605 263.653 220.62 267.273 222.261 267.424C224.35 267.616 226.107 264.869 227.044 263.4L227.288 263.473C226.015 265.863 223.553 269.197 219.873 268.86Z" fill="white"></path><path d="M188.983 245.663L189.564 243.711C189.117 242.567 188.462 242.055 187.422 241.909C181.315 241.248 177.542 253.94 177.289 258.33C177.156 260.323 177.321 262.896 179.41 263.088C183.338 263.449 187.931 248.927 188.983 245.663ZM177.735 264.94C173.359 264.538 173.024 259.994 173.144 257.598C173.507 251.463 179.015 240.084 186.813 240.901C188.255 241.033 189.416 242.042 189.686 243.471L191.266 241.56L193.81 242.245L189.002 260.208C188.557 261.772 187.795 264.61 189.635 264.779C191.127 264.916 193.128 262.241 194.214 260.235L194.458 260.308C193.077 262.788 191.112 266.168 187.532 265.84C184.598 265.57 184.474 262.55 185.227 259.811L187.26 251.874C185.904 255.711 182.062 265.337 177.735 264.94Z" fill="white"></path><path d="M170.563 258.164L170.857 258.241C169.752 260.446 167.023 263.957 163.293 263.614C161.254 263.427 160.654 261.767 160.751 260.171C160.824 258.824 161.147 257.5 161.45 256.374L164.995 241.806C164.511 241.611 164.172 241.48 163.625 241.43C158.155 240.927 156.382 246.582 154.154 255.554C153.206 259.328 152.303 262.605 149.668 262.363C148.226 262.231 147.101 260.824 146.764 259.037C146.846 258.142 147.344 257.636 148.089 257.705C149.333 257.819 150.406 260.325 150.848 261.519C152.065 261.38 153.18 257.972 153.756 255.517C155.839 247.033 157.601 238.219 165.21 238.917C167.05 239.086 168.749 239.694 169.653 240.228C168.922 243.27 166.435 253.422 165.569 256.853C165.328 257.834 164.997 259.257 164.906 260.252C164.81 261.296 164.99 262.065 165.835 262.143C167.924 262.334 169.789 259.497 170.563 258.164Z" fill="white"></path><path d="M146.02 255.91L146.264 255.982C144.317 259.715 142.082 261.666 139.496 261.429C136.86 261.187 135.555 259.562 135.101 256.863L133.98 251.043C133.44 248.737 133.328 247.222 131 246.908L127.919 259.714L123.692 259.326L128.697 238.673C128.961 237.444 129.025 236.748 126.638 236.528L126.389 236.506L126.412 236.257C131.086 236.686 132.606 236.525 133.406 235.997L133.655 236.019L131.141 246.47C133.691 246.554 135.297 244.896 136.298 243.283C137.497 241.688 138.322 239.808 139.756 238.385C140.593 237.459 141.711 236.759 143.153 236.892C145.291 237.088 146.773 238.428 147.138 239.915C146.961 240.752 146.458 241.307 145.514 241.22C143.773 241.061 142.79 238.112 142.777 237.158C141.57 237.198 140.77 237.726 140.045 238.512C138.665 239.89 137.841 241.77 136.641 243.364C135.654 244.828 134.138 246.595 131.715 246.773C135.982 247.265 137.165 249.129 137.808 252.498C137.808 252.498 138.484 255.519 138.772 256.749C139.119 258.435 139.651 259.738 141.491 259.907C143.43 260.085 145.133 257.383 146.02 255.91Z" fill="white"></path><path d="M119.037 239.14C119.328 237.061 119.063 235.031 117.472 234.884C112.847 234.46 109.067 244.493 108.914 248.892C113.595 247.617 118.526 243.607 119.037 239.14ZM122.405 239.6C122.029 245.332 114.806 248.079 108.927 249.294C108.966 251.605 109.396 256.208 113.623 256.596C116.457 256.856 118.611 254.697 119.983 252.867L120.123 252.98C118.506 255.841 115.438 259.22 111.062 258.818C105.691 258.325 104.539 252.853 104.764 249.313C105.13 243.68 109.299 233.783 117.603 234.545C120.935 234.851 122.543 237.005 122.405 239.6Z" fill="white"></path><path d="M88.7491 256.368C93.3738 256.793 98.3454 248.524 98.9405 240.404C99.0643 238.51 98.842 234.378 96.0075 234.118C94.1179 233.944 92.0781 234.86 90.2732 235.948L85.8897 253.648C86.2094 255.082 86.9589 256.204 88.7491 256.368ZM99.1328 232.85C103.26 233.229 103.409 238.157 103.054 240.933C101.948 249.156 95.9231 257.428 88.6629 256.761C86.9224 256.602 86.0192 255.516 85.7218 254.385L83.0032 265.97C82.6764 267.344 83.5218 267.422 84.7152 267.532L85.1131 267.568L85.0405 267.812L75.8906 266.972L75.9632 266.728L76.1621 266.746C77.6539 266.883 78.549 266.965 78.8758 265.591L84.9935 239.926C83.016 241.801 81.6582 243.481 81.6582 243.481L80.7915 241.998C80.7915 241.998 82.8638 240.182 85.3339 238.403L86.7861 232.418L90.9632 232.802L90.3731 235.405C92.9604 233.988 96.0994 232.571 99.1328 232.85Z" fill="white"></path><path d="M60.6831 252.487C62.7716 252.679 64.6369 249.842 65.3615 248.504L65.6553 248.581C64.3827 250.972 61.8704 254.301 57.9917 253.945C56.0026 253.763 55.3033 252.094 55.3952 250.548C55.5184 249.205 55.8315 247.98 56.1446 246.755L58.0189 238.904C56.3419 243.514 51.9746 253.393 46.5046 252.89C44.1177 252.671 43.6224 250.419 43.7233 248.774C43.8106 247.277 44.1962 245.808 44.5818 244.339L47.1584 234.847C47.3807 234.065 47.9114 232.108 47.989 231.263C48.0484 230.617 47.9631 229.907 47.068 229.824C44.9795 229.633 43.1188 232.42 42.2947 233.749L42.0009 233.672C43.1964 231.575 45.7812 228.001 49.5605 228.348C51.649 228.54 52.1042 230.136 52.017 231.633C51.8891 233.025 51.4629 234.39 51.159 235.516L48.9406 243.837C48.623 245.112 48.2013 246.427 48.1278 247.774C48.0593 248.52 48.2663 249.542 49.3603 249.642C54.2834 250.094 58.5638 236.246 59.2985 233.706L60.2423 229.981L64.4692 230.369C64.4692 230.369 61.5105 242.384 60.3806 247.044C60.2172 247.731 59.895 249.055 59.7991 250.099C59.6443 251.239 59.7382 252.401 60.6831 252.487Z" fill="white"></path><path d="M364.959 233.596C369.272 233.992 373.163 231.392 374.892 227.724L375.582 227.788C374.401 233.071 369.361 238.697 359.702 237.81C344.522 236.416 343.466 225.187 344.48 214.147L350.069 155.17L336.96 153.966L337.15 151.897L350.856 152.285L357.34 127.137L365.965 127.928L363.196 154.288L381.308 155.951L381.118 158.021L362.834 156.342L357.401 215.507C356.831 221.717 355.817 232.757 364.959 233.596Z" fill="white"></path><path d="M337.249 232.618L338.456 232.729L338.377 233.591L303.878 230.424L303.958 229.561L306.717 229.815C312.065 230.306 316 231.015 316.476 225.84L321.035 178.075C321.621 171.693 322.799 153.189 311.759 152.175C303.135 151.383 294.455 158.762 289.464 163.87L284.219 222.878C283.744 228.053 287.571 228.056 292.918 228.547L295.85 228.817L295.771 229.679L261.1 226.495L261.179 225.633L262.387 225.744C267.389 226.203 270.478 226.661 270.937 221.659L277.335 153.885C277.731 149.572 274.738 146.166 269.516 146.209L268.465 146.286L268.529 145.596L291.158 145.413L289.622 162.145C295.462 155.375 305.475 146.728 317.205 147.805C334.282 149.373 334.829 168.035 333.863 178.557L329.585 227.044C329.126 232.046 332.246 232.159 337.249 232.618Z" fill="white"></path><path d="M221.445 180.063L251.804 182.85C256.806 183.31 257.299 176.049 257.599 172.772C258.534 162.595 256.811 143.476 244.046 142.304C229.729 140.989 222.742 167.832 221.445 180.063ZM268 186.425L221.255 182.133C219.877 197.14 224.059 219.789 242.861 221.515C252.175 222.371 259.784 219.068 265.107 212.251L265.765 212.66C260.096 221.358 250.634 227.795 237.697 226.607C210.615 224.121 205.525 199.996 207.235 181.367C208.756 164.808 219.318 138.816 244.157 141.097C265.029 143.013 271.064 162.528 269.734 177.017C269.449 180.122 268.975 183.383 268 186.425Z" fill="white"></path><path d="M143.568 215.703L42.5591 206.427L42.6681 205.24L48.4127 205.768C56.5509 206.515 60.4679 205.917 61.0348 199.742L74.2057 56.3046C74.8163 49.6552 71.0302 48.8286 62.892 48.0813L57.1474 47.5539L57.2564 46.3665C57.2564 46.3665 129.782 53.026 154.436 55.2898L151.318 89.2494L150.121 89.1395L151.473 74.4157C152.367 64.6791 149.387 57.7 134.547 56.3373L93.6166 52.5789L86.8131 126.672L108.116 128.629C123.674 130.057 126.787 125.074 127.768 114.388L128.532 106.076L129.728 106.186L125.04 157.244L123.843 157.134L124.606 148.822C125.566 138.373 123.413 132.907 107.854 131.478L86.5514 129.522L79.4426 206.94L118.697 210.545C138.804 212.391 143.287 205.618 144.509 192.32L146.057 175.459L147.254 175.569L143.568 215.703Z" fill="white"></path><path d="M223.232 106.164C227.498 115.536 222.08 132.001 218.115 140.618C213.439 151.663 207.046 162.801 200.26 172.904C189.645 190.14 178.243 205.307 164.618 220.77L154.45 219.836C154.892 188.445 156.082 156.874 153.838 125.486C153.437 119.213 153.143 106.463 146.607 105.863C140.071 105.263 133.761 118.154 131.612 122.946L130.205 122.318C134.616 111.497 144.717 97.2081 157.789 98.4084C170.134 99.542 170.096 113.259 170.685 122.792C171.772 150.831 172.473 183.075 171.427 210.419C186.028 192.302 204.897 167.593 211.851 145.032C210.838 137.455 205.748 123.766 206.21 116.076C206.491 110.364 209.396 102.648 217.869 103.426C219.805 103.604 221.893 104.794 223.232 106.164Z" fill="white"></path><path d="M262.774 123.486C260.665 124.924 257.486 124.724 254.917 124.084C252.06 123.374 250.459 121.895 252.039 119.379C253.62 116.86 258.062 116.612 259.1 114.007C259.632 112.673 259.583 109.211 259.199 107.775C258.924 106.74 258.17 105.715 258.278 104.626C255.149 102.789 251.359 100.695 249.41 97.7669C248.295 96.0929 247.75 94.1839 246.609 92.5245C239.875 91.3725 234.571 88.1409 232.351 82.2089C231.16 79.0232 230.25 74.6448 231.906 71.6557C230.656 70.655 230.366 69.5395 230.212 68.1622C230.058 66.7849 230.214 66.4302 230.394 65.1935C230.485 64.5773 229.913 63.8525 231.102 63.7122C231.587 63.6552 232.783 64.0299 233.282 64.2218C236.089 65.2992 237.08 67.0408 240.114 65.4154C243.79 63.4457 246.335 61.6713 251.042 61.5094C252.52 61.4599 253.936 61.6133 255.411 61.805C256.25 60.1224 257.618 58.7957 259.228 57.68C259.444 57.5296 260.505 56.7994 260.679 56.8514C262.672 59.311 265.374 62.7901 263.168 65.6083C263.455 66.1231 265.5 69.2819 265.972 69.2469C268.499 67.5802 270.259 65.1791 272.789 63.519C279.437 59.1587 293.77 57.7561 301.85 60.1098C305.049 61.0427 307.137 62.3763 309.489 64.4998C313.327 67.9624 316.134 71.9455 317.592 76.587C319.18 74.1845 321.089 71.2621 321.421 68.3981C322.286 60.9835 309.589 56.9955 303.171 55.9847C300.216 55.519 292.681 55.2969 291.384 52.2725C290.745 50.78 291.528 48.9627 293.091 48.2965C295.757 47.1619 300.792 47.7848 303.725 48.2781C309.85 49.3069 312.061 51.4484 317.158 53.9219C322.706 56.6128 327.993 57.42 330.155 63.4921C332.398 69.7892 329.509 75.802 324.362 79.808C322.546 81.222 320.045 82.1056 318.911 84.0748C317.776 86.044 317.967 88.5057 317.741 90.7444C316.841 99.6279 316.041 108.429 315.998 117.391C315.989 119.19 316.069 121.017 315.931 122.809C315.772 124.9 315.598 126.929 313.209 127.821C311.792 128.35 306.371 128.456 304.803 128.187C302.74 127.834 301.624 126.141 303.071 124.678C304.421 123.31 305.509 123.464 306.52 121.336C308.363 117.457 307.734 107.886 305.873 103.781C302.81 97.0302 292.304 93.6094 287.075 99.6747C283.709 103.576 281.238 112.632 283.171 117.518C284.147 119.983 290.299 124.61 286.012 126.839C283.771 128.004 279.086 127.311 276.818 126.108C273.578 124.391 271.744 119.584 271.699 116.481C271.678 115.056 272.233 111.213 271.095 110.146C269.958 109.079 269.099 110.875 268.961 111.653C268.548 114.001 269.739 115.339 268.342 117.935C267.626 119.267 264.136 122.562 262.772 123.494L262.774 123.486Z" fill="white"></path><path d="M307.659 84.6962C307.659 84.6962 306.829 83.6561 307.701 83.1108C308.572 82.5655 307.821 82.217 307.727 82.1265C307.632 82.036 309.521 82.8857 308.506 83.6632C307.492 84.4407 307.659 84.6962 307.659 84.6962Z" fill="#822626"></path><path d="M310.717 81.5372C310.717 81.5372 309.977 81.8375 309.796 82.7014C309.616 83.5652 308.273 83.4887 308.699 84.1139C309.124 84.7392 311.119 84.7101 310.908 84.24C310.698 83.7699 310.733 83.8854 311.024 83.2737C311.315 82.6619 310.38 82.493 310.553 82.1877C310.725 81.8823 310.717 81.5372 310.717 81.5372Z" fill="#822626"></path><path d="M308.996 80.6244C308.996 80.6244 310.663 82.4884 309.495 83.5637C308.327 84.6389 311.761 84.317 311.798 82.7883C311.807 82.4056 311.905 86.2403 309.139 86.374C306.375 86.508 306.179 82.8231 306.179 82.8231C306.179 82.8231 307.421 82.7 307.396 83.7409C307.37 84.7818 309.408 83.1771 308.772 81.9899C308.135 80.8026 308.996 80.6265 308.996 80.6265L308.996 80.6244Z" fill="#822626"></path></svg>