<svg xmlns="http://www.w3.org/2000/svg" width="356" height="369" viewBox="0 0 356 369" fill="none"><path d="M152.313 1.6909C154.919 -0.0904253 158.415 -0.31247 161.453 1.6509C170.847 7.7232 179.504 18.5978 186.717 30.0063C192.713 39.4907 197.888 49.6398 201.816 58.3675L211.114 15.0933C212.033 10.816 216.288 8.12982 220.545 9.14072L255.337 17.4039C260.883 18.7221 263.188 25.3429 259.676 29.8235C250.205 41.9062 238.046 57.7432 229.259 69.9451C227.462 72.4405 225.821 74.7635 224.381 76.8577C236.444 71.4158 250.606 68.7728 263.543 67.5431C280.772 65.9054 296.47 66.7196 303.535 67.2021C305.636 67.3456 307.745 68.3766 308.975 70.2594C309.609 71.231 310.011 72.4526 309.927 73.8005C309.842 75.1612 309.28 76.3734 308.449 77.3435C305.963 80.2476 301.701 83.1792 297.014 85.94C292.212 88.7687 286.527 91.6661 280.839 94.428C273.213 98.1306 265.745 101.526 260.032 104.297C268.414 105.601 278.855 108.391 289.69 112.947C304.406 119.135 320.113 128.687 332.481 142.497C344.894 156.357 353.894 174.459 355.122 197.506C356.346 220.495 349.823 248.08 331.799 280.959C301.483 336.259 257.125 359.541 213.99 365.986C172.396 372.199 132.048 362.761 106.458 351.703L104.03 350.629L104.024 350.627C82.6395 345.741 52.3773 330.579 30.0305 300.813C7.59213 270.925 -6.63065 226.627 3.69035 163.993C13.5506 104.155 41.2935 75.382 73.5903 64.8191C102.248 55.4466 133.655 60.7039 157.592 69.6689C156.831 67.598 156.145 65.3858 155.527 63.0991C153.989 57.4098 152.774 50.9464 151.811 44.445C149.884 31.4389 148.928 18.0025 148.481 9.73313C148.302 6.43071 149.796 3.41233 152.313 1.6909Z" fill="white" stroke="#B4B4B4" stroke-width="0.529854"></path><path d="M7.53933 164.626C27.2569 44.969 118.715 55.6358 166.375 77.5404C155.756 66.6629 152.85 20.3364 152.192 5.79903C152.094 3.62709 154.177 2.10312 156.12 3.0788C175.561 12.8418 193.623 47.9902 201.714 68.041C202.109 69.0199 203.548 68.8913 203.77 67.8591L215.311 14.1321C215.56 12.9701 216.716 12.2405 217.873 12.5151L257.153 21.8447C258.66 22.2028 259.292 23.9977 258.334 25.2156C239.526 49.1317 207.573 91.1043 215.766 86.2006C242.668 67.0311 293.902 70.3994 305.024 71.2187C306.191 71.3047 307.098 72.3493 306.52 73.3674C300.879 83.3113 257.803 99.6526 249.149 105.751C248.14 106.462 248.645 107.317 249.88 107.314C281.478 107.236 400.894 146.805 328.378 279.084C268.963 387.465 155.155 369.567 105.474 347C105.34 346.939 105.212 346.897 105.069 346.864C63.9384 337.559 -12.8238 288.201 7.53933 164.626Z" fill="#2D2A91"></path><path d="M110.628 103.28C117.512 105.248 121.499 112.426 119.531 119.312C117.562 126.197 110.383 130.183 103.499 128.214C96.6118 126.245 92.6274 119.068 94.5961 112.182C96.5649 105.297 103.741 101.311 110.628 103.28Z" stroke="white" stroke-width="0.25"></path><path d="M110.236 110.753L109.073 110.421C106.941 109.811 105.511 110.57 105.055 112.163C104.541 113.963 105.075 115.028 106.358 116.564L107.42 117.827L102.025 122.394L99.2006 121.586L104.038 117.503C102.486 115.547 101.78 113.876 102.436 111.579C103.26 108.699 105.83 107.307 109.637 108.395L113.417 109.476L109.146 124.415L106.543 123.67L110.236 110.753Z" fill="white"></path><mask id="mask0_855_3176" style="mask-type:luminance" maskUnits="userSpaceOnUse" x="127" y="110" width="33" height="33"><path d="M159.987 117.263L134.73 110.042L127.508 135.298L152.765 142.52L159.987 117.263Z" fill="white"></path></mask><g mask="url(#mask0_855_3176)"><path d="M159.829 117.35L152.678 142.362L127.665 135.211L134.817 110.198L159.829 117.35Z" stroke="white" stroke-width="0.254072"></path><path d="M151.001 116.795L150.669 117.957L153.21 118.684L151.876 123.349L153.297 123.755L154.631 119.09L157.168 119.815L157.5 118.653L151.001 116.795Z" fill="white"></path><path d="M141.863 114.182L138.901 117.504L138.148 113.12L136.118 112.54L134.452 118.367L135.878 118.775L137.07 114.606L137.876 118.647L139.172 119.018L141.993 116.013L140.801 120.182L142.222 120.589L143.888 114.761L141.863 114.182Z" fill="white"></path><path d="M150.523 137.676C150.42 137.899 150.272 138.063 150.081 138.165C149.903 138.259 149.684 138.303 149.43 138.292C149.183 138.277 148.828 138.209 148.466 138.106C148.089 137.998 147.772 137.857 147.516 137.677C147.268 137.506 147.099 137.279 147.014 137.008C146.924 136.737 146.941 136.384 147.064 135.955L147.233 135.361C147.355 134.938 147.527 134.629 147.748 134.441C147.968 134.258 148.227 134.153 148.528 134.139C148.835 134.12 149.184 134.17 149.561 134.278C149.922 134.381 150.26 134.511 150.477 134.629C150.699 134.754 150.863 134.901 150.963 135.081C151.071 135.268 151.11 135.486 151.079 135.729L152.5 136.135C152.596 135.643 152.553 135.189 152.363 134.777C152.19 134.403 151.891 134.083 151.48 133.82C151.083 133.567 150.529 133.336 149.883 133.151C149.201 132.956 148.584 132.886 148.044 132.938C147.497 132.994 147.021 133.211 146.629 133.585C146.254 133.941 145.959 134.483 145.748 135.182L145.729 135.249L145.805 135.277L145.726 135.26L145.724 135.265L145.706 135.327C145.516 136.033 145.48 136.648 145.61 137.149C145.745 137.674 146.034 138.109 146.469 138.445C146.9 138.775 147.461 139.042 148.143 139.237C148.788 139.422 149.381 139.518 149.852 139.513C150.34 139.507 150.758 139.392 151.108 139.168C151.485 138.924 151.768 138.558 151.942 138.088L150.521 137.682L150.523 137.676Z" fill="white"></path></g><path d="M180.008 120.504L180.082 122.709L182.194 123.313L180.127 124.074L180.203 126.28L178.852 124.545L176.786 125.303L178.018 123.471L176.667 121.733L178.779 122.337L180.008 120.504Z" fill="white"></path><path d="M185.891 122.187L185.966 124.392L188.076 124.995L186.011 125.757L186.089 127.963L184.736 126.228L182.672 126.986L183.903 125.154L182.551 123.415L184.663 124.019L185.891 122.187Z" fill="white"></path><path fill-rule="evenodd" clip-rule="evenodd" d="M183.12 143.271C182.076 146.604 179.894 148.824 176.456 148.912C175.559 148.93 174.691 148.601 173.866 148.126C176.252 146.396 178.479 143.253 180.54 139.879C178.826 139.048 178.022 137.872 177.767 136.613C178.141 136.424 178.514 136.219 178.88 136.003C179.654 135.537 180.396 135.011 181.038 134.438C183.692 136.419 184.245 139.686 183.12 143.271ZM177.963 133.809C178.033 133.57 178.117 133.335 178.21 133.109C178.56 133.184 178.913 133.292 179.257 133.436C179.528 133.547 179.785 133.671 180.031 133.801C179.558 134.256 179.027 134.596 178.455 134.864C178.21 134.977 177.958 135.078 177.698 135.168C177.734 134.768 177.808 134.371 177.913 133.981C177.928 133.923 177.946 133.866 177.963 133.809ZM181.274 130.191C181.67 130.448 181.577 131.109 181.024 132.481C180.381 132.16 179.697 131.89 178.977 131.679C179.771 130.519 180.735 129.84 181.274 130.191ZM169.852 148.24C169.705 148.226 169.556 148.199 169.405 148.156C169.155 148.009 168.5 147.868 168.688 147.019C168.94 146.604 169.429 146.604 169.917 146.722C170.268 146.808 170.775 147.275 171.397 147.883C170.927 148.15 170.406 148.294 169.852 148.24ZM186.882 144.197C187.909 139.981 185.972 135.632 182.224 133.172C182.657 132.607 182.983 132.011 183.155 131.397C183.571 129.925 183.27 128.373 182.132 127.975C179.991 127.369 178.294 129.362 177.346 131.333C170.702 130.443 166.275 136.354 168.609 139.823C170.781 141.609 173.057 140.869 173.709 139.109C172.098 138.855 171.859 137.727 172.225 136.474C172.84 134.361 174.667 133.11 176.71 132.993C176.647 133.221 176.597 133.434 176.562 133.629C176.543 133.739 176.525 133.848 176.504 133.957C176.406 134.523 176.31 135.059 176.218 135.577C175.509 135.735 174.764 135.864 174.002 136.012L173.439 138.055C174.152 137.966 174.995 137.75 175.884 137.429C175.817 137.785 175.753 138.138 175.684 138.491C175.27 140.69 174.693 142.616 173.469 145.42C173.218 145.991 172.836 146.604 172.356 147.114C171.266 146.305 170.275 145.471 169.415 145.207C168.61 144.93 167.329 144.997 166.834 146.092C166.105 147.702 167.566 149.1 169.157 149.422C169.416 149.475 169.675 149.506 169.932 149.516C170.803 149.55 171.656 149.345 172.491 148.951C173.552 149.959 174.806 150.994 176.114 151.318C181.011 152.537 185.575 149.368 186.882 144.197Z" fill="white"></path><rect x="199.271" y="128.007" width="104.225" height="27.8061" transform="rotate(15.9566 199.271 128.007)" stroke="white" stroke-width="0.254072"></rect><path fill-rule="evenodd" clip-rule="evenodd" d="M209.032 140.33C209.911 140.581 210.697 141.088 211.288 141.785C211.88 142.483 212.252 143.34 212.356 144.249C212.46 145.157 212.293 146.076 211.875 146.89C211.457 147.703 210.807 148.374 210.007 148.818C209.207 149.262 208.294 149.458 207.382 149.383C206.47 149.308 205.601 148.964 204.884 148.396C204.168 147.827 203.636 147.058 203.357 146.188C203.077 145.317 203.062 144.383 203.313 143.504C203.65 142.325 204.442 141.328 205.515 140.733C206.587 140.137 207.852 139.992 209.032 140.33ZM226.821 145.416C227.701 145.668 228.486 146.174 229.078 146.872C229.67 147.569 230.041 148.427 230.145 149.335C230.25 150.244 230.082 151.163 229.664 151.976C229.246 152.789 228.596 153.46 227.796 153.904C226.996 154.348 226.083 154.545 225.171 154.47C224.259 154.395 223.39 154.051 222.674 153.482C221.957 152.913 221.426 152.145 221.146 151.274C220.866 150.403 220.851 149.469 221.102 148.59C221.44 147.411 222.231 146.414 223.304 145.819C224.376 145.224 225.642 145.079 226.821 145.416Z" fill="white"></path><path fill-rule="evenodd" clip-rule="evenodd" d="M238.616 154.642L239.83 154.99C239.676 155.659 240.011 156.111 240.836 156.346C241.63 156.573 242.1 156.431 242.246 155.921C242.339 155.596 242.125 155.286 241.605 154.992L240.239 154.194C239.818 153.956 239.538 153.677 239.4 153.356C239.261 153.036 239.254 152.661 239.377 152.231C239.443 151.974 239.565 151.735 239.734 151.531C239.903 151.327 240.116 151.163 240.357 151.051C240.852 150.813 241.473 150.802 242.221 151.016C242.911 151.213 243.414 151.539 243.731 151.992C244.048 152.445 244.139 152.996 244.004 153.645L242.787 153.297C242.873 152.658 242.561 152.236 241.85 152.033C241.527 151.94 241.25 151.929 241.02 152C240.917 152.027 240.823 152.081 240.747 152.157C240.671 152.232 240.617 152.326 240.589 152.429C240.544 152.575 240.555 152.732 240.622 152.869C240.722 153.031 240.865 153.163 241.036 153.248L242.395 154.026C242.956 154.343 243.311 154.664 243.458 154.989C243.605 155.314 243.62 155.689 243.503 156.115C243.435 156.384 243.308 156.635 243.131 156.849C242.953 157.063 242.73 157.234 242.478 157.351C241.963 157.594 241.313 157.603 240.527 157.378C239.795 157.169 239.246 156.825 238.88 156.348C238.515 155.87 238.427 155.302 238.616 154.642ZM245.59 152.145L246.837 152.502L245.117 158.521L243.869 158.164L245.59 152.145ZM248.034 152.844L249.281 153.201L247.862 158.165L250.868 159.025L250.566 160.079L246.313 158.863L248.034 152.844ZM250.962 160.192L254.838 154.79L256.278 155.202L256.718 161.838L255.36 161.449L255.329 160.083L253.068 159.437L252.283 160.57L250.962 160.192ZM253.72 158.482L255.257 158.921L255.169 156.362L253.72 158.482ZM260.021 160.763L261.235 161.11C261.082 161.78 261.417 162.232 262.241 162.466C263.035 162.693 263.505 162.551 263.651 162.041C263.744 161.716 263.53 161.406 263.01 161.112L261.64 160.313C261.22 160.074 260.941 159.794 260.803 159.473C260.665 159.153 260.657 158.777 260.78 158.348C260.846 158.091 260.967 157.851 261.137 157.647C261.306 157.443 261.519 157.279 261.759 157.168C262.255 156.93 262.876 156.919 263.623 157.133C264.313 157.33 264.816 157.655 265.133 158.108C265.45 158.561 265.541 159.112 265.407 159.762L264.189 159.414C264.276 158.774 263.964 158.353 263.252 158.149C262.929 158.057 262.652 158.046 262.422 158.116C262.318 158.144 262.222 158.198 262.146 158.275C262.069 158.351 262.015 158.447 261.988 158.551C261.942 158.697 261.954 158.854 262.021 158.991C262.121 159.153 262.264 159.284 262.435 159.37L263.797 160.149C264.359 160.467 264.714 160.788 264.862 161.113C265.009 161.438 265.024 161.813 264.907 162.238C264.838 162.507 264.71 162.757 264.532 162.97C264.355 163.183 264.132 163.354 263.88 163.471C263.364 163.713 262.714 163.722 261.929 163.497C261.196 163.288 260.647 162.944 260.282 162.467C259.916 161.99 259.828 161.421 260.017 160.762L260.021 160.763ZM267.962 163.425L270.532 159.277L271.84 159.651L268.093 165.09L266.903 164.75L266.597 158.152L267.945 158.537L267.962 163.425ZM270.981 165.916L272.702 159.898L277.157 161.171L276.855 162.226L273.64 161.307L273.276 162.579L276.232 163.424L275.931 164.479L272.975 163.634L272.522 165.216L275.864 166.172L275.562 167.226L270.981 165.916ZM277.768 161.346L282.683 162.751L282.381 163.806L280.54 163.28L279.121 168.243L277.873 167.887L279.293 162.923L277.458 162.399L277.768 161.346ZM281.213 168.841L285.089 163.439L286.526 163.85L286.967 170.487L285.602 170.096L285.571 168.73L283.311 168.084L282.53 169.218L281.213 168.841ZM283.971 167.131L285.508 167.571L285.412 165.009L283.971 167.131Z" fill="white"></path><path d="M190.073 321.962L179.261 330.691L177.794 330.272L181.329 317.908L182.583 318.266L179.458 329.193L190.239 320.455L191.737 320.883L188.202 333.247L186.949 332.889L190.073 321.962Z" fill="white"></path><path d="M177.999 318.509L167.187 327.239L165.72 326.819L169.255 314.455L170.508 314.813L167.384 325.741L178.165 317.003L179.663 317.431L176.128 329.795L174.875 329.437L177.999 318.509Z" fill="white"></path><path d="M163.127 324.788L165.19 325.378L164.142 329.046L162.904 328.692L163.607 326.231L152.97 323.19L156.51 310.811L157.763 311.169L154.569 322.341L161.874 324.43L165.068 313.258L166.322 313.616L163.127 324.788Z" fill="white"></path><path d="M145.193 314.982L153.417 309.926L155.113 310.412L149.115 314.103L152.143 322.937L150.63 322.505L147.992 314.79L144.664 316.831L143.615 320.499L142.377 320.145L145.913 307.781L147.151 308.135L145.193 314.982Z" fill="white"></path><path d="M143.807 307.146L145.128 307.556L135.587 318.203L134.281 317.797L137.36 314.428L135.699 304.86L137.028 305.24L138.404 313.206L143.807 307.146Z" fill="white"></path><path d="M134.193 304.43L130.99 315.632L133.466 316.34L132.421 319.993L131.229 319.652L131.942 317.161L120.922 314.01L120.21 316.502L119.018 316.161L120.062 312.508L121.438 312.901L121.958 313.05C124.043 311.943 126.16 304.944 126.949 302.359L134.193 304.43ZM123.608 313.522L129.798 315.292L132.669 305.251L127.824 303.865C127.824 303.865 125.936 310.583 123.608 313.522Z" fill="white"></path><path d="M117.786 299.458C121.316 300.467 122.905 303.583 121.769 307.557C120.41 312.31 116.919 313.13 114.107 312.326C110.561 311.312 109.005 308.14 110.123 304.227C110.692 302.24 111.764 300.745 113.207 299.918C114.548 299.16 116.166 298.995 117.786 299.458ZM114.465 311.073C117.323 311.89 119.552 310.511 120.501 307.194C121.602 303.343 119.659 301.349 117.428 300.711C115.181 300.069 112.439 300.872 111.377 304.585C110.28 308.421 112.218 310.431 114.465 311.073Z" fill="white"></path><path d="M107.241 296.723C109.869 297.475 110.753 299.761 110.246 301.534C109.739 303.307 107.833 304.713 105.189 303.957L101.429 302.882L99.9609 308.017L98.6924 307.654L102.228 295.29L107.241 296.723ZM105.776 302.769C106.984 303.114 108.563 302.739 109.008 301.18C109.463 299.591 108.319 298.387 107.127 298.046L103.138 296.906L101.788 301.628L105.776 302.769Z" fill="white"></path><path d="M95.7672 306.818L98.9572 295.661L91.927 293.651L88.737 304.808L87.4838 304.449L91.019 292.085L100.556 294.812L97.0205 307.176L95.7672 306.818Z" fill="white"></path><path d="M219.473 309.178L218.35 313.106L224.295 314.806L223.95 316.013L218.013 314.283L216.624 319.143L223.684 321.162L223.344 322.354L215.045 319.981L218.58 307.617L226.879 309.99L226.534 311.197L219.473 309.178Z" fill="white"></path><path d="M215.25 308.219L204.438 316.948L202.97 316.529L206.506 304.165L207.759 304.523L204.634 315.45L215.416 306.712L216.914 307.141L213.378 319.505L212.125 319.146L215.25 308.219Z" fill="white"></path><path d="M200.045 315.692L201.771 309.656L194.741 307.645L193.015 313.682L191.762 313.324L195.297 300.96L196.55 301.318L195.082 306.453L202.112 308.464L203.58 303.328L204.834 303.687L201.298 316.051L200.045 315.692Z" fill="white"></path><path d="M189.333 308.794L183.877 307.234L181.595 310.417L180.281 310.041L188.431 298.997L189.837 299.399L190.933 313.087L189.588 312.702L189.333 308.794ZM188.802 300.359L184.65 306.149L189.251 307.464L188.802 300.359Z" fill="white"></path><path d="M178.939 302.747C180.694 303.546 180.759 305.169 180.366 306.544C179.806 308.5 178.197 309.445 175.339 308.628L170.494 307.243L174.03 294.879L178.706 296.216C180.861 296.832 181.741 298.902 181.225 300.706C180.998 301.5 180.249 302.675 178.939 302.747ZM177.99 297.334L174.918 296.455L173.712 300.674C174.705 300.958 176.02 301.333 176.769 301.548C178.48 302.037 179.546 301.78 179.996 300.205C180.35 298.967 179.747 297.836 177.99 297.334ZM175.914 307.486C177.473 307.932 178.713 307.642 179.154 306.098C179.512 304.845 178.853 303.45 177.172 302.969L173.367 301.881L172.078 306.39L175.914 307.486Z" fill="white"></path><path d="M167.022 292.594C170.552 293.603 172.141 296.719 171.005 300.693C169.646 305.446 166.154 306.266 163.342 305.462C159.797 304.449 158.24 301.276 159.359 297.363C159.927 295.376 160.999 293.881 162.443 293.054C163.784 292.296 165.402 292.131 167.022 292.594ZM163.701 304.209C166.558 305.026 168.788 303.647 169.736 300.33C170.837 296.479 168.895 294.485 166.663 293.847C164.417 293.205 161.674 294.008 160.612 297.722C159.515 301.558 161.454 303.567 163.701 304.209Z" fill="white"></path><path d="M156.476 289.86C159.104 290.611 159.988 292.898 159.481 294.67C158.974 296.443 157.068 297.849 154.424 297.093L150.664 296.018L149.196 301.153L147.927 300.791L151.463 288.426L156.476 289.86ZM155.011 295.905C156.219 296.251 157.798 295.875 158.243 294.317C158.698 292.727 157.554 291.524 156.362 291.183L152.373 290.042L151.023 294.765L155.011 295.905Z" fill="white"></path><path d="M148.132 289.028L137.32 297.758L135.853 297.338L139.388 284.974L140.642 285.332L137.517 296.26L148.298 287.522L149.796 287.95L146.261 300.314L145.008 299.956L148.132 289.028Z" fill="white"></path><path d="M136.131 284.043L132.928 295.245L135.404 295.953L134.36 299.606L133.168 299.265L133.88 296.774L122.861 293.623L122.148 296.115L120.956 295.774L122.001 292.121L123.376 292.514L123.896 292.663C125.981 291.556 128.098 284.557 128.887 281.972L136.131 284.043ZM125.546 293.135L131.736 294.905L134.607 284.864L129.762 283.478C129.762 283.478 127.875 290.196 125.546 293.135Z" fill="white"></path><path d="M119.63 292.7L121.356 286.663L114.326 284.653L112.6 290.689L111.346 290.331L114.882 277.967L116.135 278.325L114.666 283.46L121.697 285.471L123.165 280.335L124.418 280.694L120.883 293.058L119.63 292.7Z" fill="white"></path><path d="M106.461 276.865L105.338 280.793L111.284 282.493L110.938 283.7L105.002 281.97L103.612 286.83L110.673 288.849L110.332 290.041L102.034 287.668L105.569 275.304L113.867 277.677L113.522 278.884L106.461 276.865Z" fill="white"></path><path d="M100.492 273.853C103.121 274.604 104.005 276.89 103.498 278.663C102.991 280.436 101.084 281.842 98.4405 281.086L94.6808 280.011L93.2125 285.146L91.944 284.783L95.4792 272.419L100.492 273.853ZM99.028 279.898C100.235 280.244 101.814 279.868 102.26 278.309C102.714 276.72 101.57 275.517 100.378 275.176L96.3894 274.035L95.0391 278.758L99.028 279.898Z" fill="white"></path><path d="M88.9687 276.444C91.5668 277.186 92.2935 279.328 91.8347 280.933C91.1136 283.455 89.5873 284.11 86.7294 283.293L81.8846 281.907L85.4198 269.543L93.1684 271.759L92.8188 272.981L86.3081 271.12L85.1021 275.338L88.9687 276.444ZM87.3038 282.151C88.8627 282.596 90.1029 282.306 90.5443 280.763C90.9026 279.509 90.2435 278.114 88.5624 277.633L84.7568 276.545L83.4677 281.054L87.3038 282.151Z" fill="white"></path><path d="M76.3431 268.502L65.5313 277.231L64.0641 276.812L67.5993 264.448L68.8525 264.806L65.7281 275.734L76.5094 266.995L78.0071 267.424L74.4719 279.788L73.2187 279.429L76.3431 268.502Z" fill="white"></path><path d="M227.201 296.128C229.8 296.871 230.526 299.013 230.067 300.618C229.346 303.14 227.82 303.795 224.962 302.977L220.117 301.592L223.652 289.228L224.89 289.582L223.335 295.023L227.201 296.128ZM225.536 301.836C227.095 302.281 228.336 301.991 228.777 300.448C229.135 299.194 228.476 297.799 226.795 297.318L222.99 296.23L221.7 300.739L225.536 301.836ZM231.748 304.918L230.51 304.564L234.045 292.2L235.283 292.554L231.748 304.918Z" fill="white"></path><path d="M217.231 300.767L220.421 289.61L215.53 288.212L215.298 288.906C215.285 288.952 213.885 293.561 212.732 295.86C211.133 299.023 210.72 298.905 208.305 298.215C208.305 298.215 208.581 297.252 208.646 297.023C210.327 297.503 210.631 297.425 211.895 294.794C212.634 293.253 213.65 290.22 214.76 286.685L221.958 288.744L218.423 301.108L217.231 300.767Z" fill="white"></path><path d="M206.435 293.844L200.979 292.284L198.696 295.467L197.382 295.092L205.533 284.047L206.939 284.449L208.035 298.137L206.69 297.753L206.435 293.844ZM205.904 285.41L201.752 291.199L206.352 292.515L205.904 285.41Z" fill="white"></path><path d="M198.412 283.565L187.601 292.295L186.133 291.875L189.669 279.511L190.922 279.87L187.797 290.797L198.579 282.059L200.076 282.487L196.541 294.851L195.288 294.493L198.412 283.565Z" fill="white"></path><path d="M184.592 278.06C187.221 278.812 188.105 281.098 187.598 282.871C187.091 284.643 185.184 286.049 182.54 285.293L178.781 284.218L177.312 289.353L176.044 288.991L179.579 276.627L184.592 278.06ZM183.128 284.106C184.335 284.451 185.914 284.076 186.36 282.517C186.814 280.927 185.67 279.724 184.478 279.383L180.489 278.243L179.139 282.965L183.128 284.106Z" fill="white"></path><path d="M171.158 275.525L170.035 279.453L175.981 281.153L175.635 282.36L169.699 280.63L168.309 285.49L175.37 287.508L175.029 288.701L166.731 286.328L170.266 273.964L178.565 276.336L178.219 277.544L171.158 275.525Z" fill="white"></path><path d="M169.127 274.944L163.946 273.463L160.756 284.619L159.503 284.261L162.693 273.104L157.527 271.627L157.873 270.42L169.473 273.737L169.127 274.944Z" fill="white"></path><path d="M154.332 278.947L148.876 277.387L146.594 280.57L145.279 280.194L153.43 269.15L154.836 269.552L155.932 283.24L154.587 282.855L154.332 278.947ZM153.801 270.512L149.649 276.302L154.249 277.617L153.801 270.512Z" fill="white"></path><path d="M137.757 278.043L136.602 265.892L133.478 276.82L132.224 276.462L135.76 264.097L137.762 264.67L138.844 276.437L145.953 267.012L147.971 267.589L144.436 279.953L143.167 279.59L146.307 268.667L138.903 278.371L137.757 278.043Z" fill="white"></path><path d="M132.814 269.967L126.899 268.276L127.245 267.069L133.159 268.76L132.814 269.967Z" fill="white"></path><path d="M122.155 259.926C125.685 260.936 127.274 264.052 126.138 268.025C124.779 272.778 121.287 273.599 118.475 272.795C114.93 271.781 113.374 268.608 114.492 264.695C115.06 262.709 116.133 261.213 117.576 260.386C118.917 259.629 120.535 259.463 122.155 259.926ZM118.834 271.541C121.692 272.359 123.921 270.979 124.869 267.663C125.971 263.811 124.028 261.817 121.796 261.179C119.55 260.537 116.807 261.34 115.745 265.054C114.649 268.89 116.587 270.899 118.834 271.541Z" fill="white"></path><path d="M104.802 268.621L103.648 256.47L100.523 267.397L99.2699 267.039L102.805 254.675L104.807 255.247L105.89 267.014L112.999 257.59L115.016 258.166L111.481 270.531L110.213 270.168L113.352 259.245L105.949 268.949L104.802 268.621Z" fill="white"></path><path d="M95.7971 252.39C99.3275 253.399 100.916 256.515 99.7803 260.489C98.4213 265.242 94.9298 266.062 92.1177 265.258C88.572 264.245 87.0159 261.072 88.1345 257.159C88.7026 255.172 89.775 253.677 91.2184 252.85C92.5592 252.092 94.1771 251.927 95.7971 252.39ZM92.476 264.005C95.334 264.822 97.5635 263.443 98.5118 260.126C99.613 256.275 97.6701 254.281 95.4388 253.643C93.1922 253.001 90.4496 253.804 89.3878 257.518C88.2909 261.354 90.2294 263.363 92.476 264.005Z" fill="white"></path><path d="M85.2516 249.656C87.8803 250.407 88.7641 252.694 88.2572 254.467C87.7503 256.239 85.8439 257.645 83.1999 256.889L79.4403 255.814L77.972 260.949L76.7035 260.587L80.2387 248.223L85.2516 249.656ZM83.7875 255.701C84.9949 256.047 86.5736 255.671 87.0193 254.113C87.4738 252.523 86.3299 251.32 85.1378 250.979L81.1489 249.838L79.7986 254.561L83.7875 255.701Z" fill="white"></path><path d="M73.7783 259.75L76.9683 248.593L69.938 246.583L66.748 257.74L65.4948 257.382L69.03 245.018L78.5667 247.744L75.0315 260.108L73.7783 259.75Z" fill="white"></path><path d="M215.932 233.118L223.408 235.256C226.606 236.17 229.074 238.538 230.563 241.66C233.476 239.797 236.823 239.092 240.021 240.006L247.497 242.143L239.897 268.724C239.528 270.011 239.267 271.24 239.154 272.106L232.094 270.087C230.889 269.743 231.056 268.218 232.184 264.272L237.765 244.752C235.606 244.135 233.778 246.128 232.543 250.447L227.318 268.721L219.011 266.346L224.236 248.072C225.471 243.753 224.973 241.095 222.814 240.477L215.689 265.396L207.382 263.021L215.932 233.118Z" fill="white"></path><path d="M199.537 228.43L209.504 231.28C209.504 231.28 210.213 247.657 208.076 255.133L206.888 259.286C206.52 260.573 206.259 261.802 206.146 262.668L199.085 260.649C197.881 260.305 198.047 258.78 199.176 254.834L199.294 254.419L195.972 253.469L194.309 259.283L186.003 256.908L188.14 249.433C190.278 241.957 199.537 228.43 199.537 228.43ZM197.634 247.655L200.957 248.605L201.456 246.86C201.954 245.116 203.653 235.718 203.333 234.009C202.199 235.302 198.632 244.166 198.133 245.91L197.634 247.655Z" fill="white"></path><path d="M173.16 220.888L190.603 225.876L183.715 249.964L186.623 250.796L184.01 259.933L180.48 258.923L179.436 255.031L165.565 251.064L162.621 253.817L159.091 252.808L161.704 243.671L162.534 243.908C164.943 244.597 166.652 243.648 167.341 241.239L173.16 220.888ZM177.312 228.365L172.562 244.978C172.395 245.56 172.199 246.088 172.003 246.616L175.409 247.589L180.634 229.315L177.312 228.365Z" fill="white"></path><path d="M147.429 213.531L155.735 215.906L152.292 227.951L155.614 228.901L159.058 216.856L167.364 219.231L159.764 245.812C159.408 247.058 159.135 248.328 159.022 249.194L151.962 247.175C150.757 246.831 150.924 245.306 152.052 241.36L153.952 234.715L150.629 233.765L147.185 245.809L138.879 243.434L147.429 213.531Z" fill="white"></path><path d="M130.394 208.66L146.176 213.173L144.514 218.988L137.038 216.85L135.257 223.08L140.24 224.505L138.578 230.319L133.594 228.894L131.813 235.124L139.289 237.262L137.626 243.076L121.844 238.564L130.394 208.66Z" fill="white"></path><path d="M115.902 209.908L112.815 220.707L114.476 221.182C115.556 221.491 116.351 220.909 116.731 219.58L118.631 212.935C119.011 211.606 118.643 210.692 117.563 210.383L115.902 209.908ZM109.021 202.55L118.988 205.4C126.257 207.478 128.576 209.579 127.531 213.233L124.444 224.032C123.399 227.687 120.319 228.244 113.051 226.166L111.39 225.691L108.777 234.828L100.471 232.453L109.021 202.55Z" fill="white"></path><path d="M87.6454 196.438L105.089 201.425L103.426 207.24L94.2893 204.627L92.3893 211.272L94.0506 211.747C101.319 213.825 103.638 215.926 102.593 219.581L100.456 227.057C99.4108 230.712 96.3312 231.269 89.0631 229.191L87.4018 228.716L79.0954 226.341L87.6454 196.438ZM90.9643 216.256L88.8268 223.732L90.4881 224.207C91.5679 224.516 92.3631 223.934 92.7431 222.605L93.6931 219.283C94.0731 217.954 93.7054 217.04 92.6256 216.731L90.9643 216.256Z" fill="white"></path><path d="M260.532 187.497L271.526 190.64C276.229 191.985 279.869 195.43 282.075 199.961C286.343 197.281 291.254 196.281 295.957 197.625L306.951 200.769L295.955 239.224C295.423 241.087 295.046 242.865 294.886 244.119L284.503 241.15C282.732 240.643 282.967 238.436 284.599 232.727L292.674 204.487C289.498 203.578 286.825 206.454 285.039 212.703L277.479 239.142L265.264 235.649L272.823 209.211C274.61 202.962 273.862 199.108 270.686 198.2L260.378 234.252L248.163 230.759L260.532 187.497Z" fill="white"></path><path d="M246.786 183.566L258.803 187.002L246.433 230.265L234.416 226.829L246.786 183.566ZM217.249 214.12L219.653 214.808C221.215 215.254 222.366 214.413 222.915 212.49L224.29 207.684C224.84 205.761 224.308 204.439 222.745 203.992L220.342 203.305L217.249 214.12ZM203.17 217.895L215.54 174.632L227.558 178.068L222.404 196.094L224.807 196.782C235.322 199.788 238.678 202.828 237.166 208.115L234.074 218.931C232.562 224.219 228.106 225.025 217.591 222.018L203.17 217.895Z" fill="white"></path><path d="M182.661 165.231L195.506 168.904L190.524 186.329L195.662 187.798L200.644 170.373L213.489 174.046L202.493 212.501C201.978 214.304 201.591 216.143 201.44 217.4L190.522 214.278C188.659 213.746 188.875 211.532 190.507 205.824L193.256 196.21L188.118 194.741L183.136 212.166L170.291 208.494L182.661 165.231Z" fill="white"></path><path d="M151.512 156.325L180.627 164.65L169.632 203.105C169.116 204.908 168.722 206.745 168.561 207.999L158.249 205.051C156.49 204.548 156.727 202.341 158.359 196.632L166.091 169.593L161.238 168.206L151.273 203.056L139.142 199.588L151.512 156.325Z" fill="white"></path><path d="M120.363 147.418L132.621 150.923L128.463 165.464C127.742 167.988 128.39 173.373 128.813 175.834C130.535 173.986 132.645 169.39 133.366 166.866L137.524 152.325L149.782 155.83L146.002 169.049C143.597 177.461 132.268 184.622 132.268 184.622C131.78 184.937 122.545 189.641 121.17 194.448L108.913 190.944C110.751 184.514 116.384 181.51 120.555 179.907C119.112 176.375 114.694 167.247 116.584 160.637L120.363 147.418Z" fill="white"></path><path d="M99.4103 149.227L94.9434 164.85L97.3949 165.551C98.9884 166.006 100.156 165.17 100.706 163.247L103.454 153.633C104.004 151.711 103.455 150.384 101.862 149.928L99.4103 149.227ZM89.2142 138.512L103.923 142.718C114.649 145.784 118.083 148.846 116.571 154.134L112.104 169.756C110.592 175.044 106.059 175.828 95.3333 172.761L92.8818 172.06L89.1021 185.279L76.8443 181.774L89.2142 138.512Z" fill="white"></path><path d="M58.0651 129.606L70.1964 133.075L65.7295 148.697L68.0345 149.356C69.1869 149.686 70.9085 148.943 71.4239 147.14L75.049 134.462L86.5737 137.757L82.9659 150.376C82.1756 153.14 78.9064 154.935 75.2964 155.398C78.3587 157.768 80.4628 161.425 79.6209 164.369L76.1849 176.386C75.6523 178.249 75.2753 180.026 75.1137 181.28L64.8021 178.332C63.043 177.829 63.2804 175.622 64.9125 169.913L67.3178 161.501C67.8332 159.699 67.3883 158.271 66.2358 157.942L63.3243 157.109L57.8265 176.337L45.6952 172.868L58.0651 129.606Z" fill="white"></path></svg>