<?xml version="1.0" encoding="UTF-8"?>
<svg xmlns="http://www.w3.org/2000/svg" width="157" height="63" viewBox="0 0 157 63" fill="none">
  <path d="M106.552 61.5619C105.86 61.5619 105.184 61.0475 104.522 60.0188L104.507 59.9954L104.492 59.972C102.446 56.3246 101.439 49.661 101.589 41.127C96.7467 44.9848 91.6936 47.0891 87.2571 47.0891C83.7831 47.0891 81.0008 45.8032 79.1511 43.3716C77.8276 44.5874 75.0454 46.6917 72.6993 46.6917C71.2405 46.6917 70.3232 45.8733 69.7667 44.9848C67.7665 46.4111 65.5107 48.0244 63.6007 48.0244C62.548 48.0244 61.6908 47.51 61.0742 46.528C60.3974 45.4291 60.0215 43.8392 59.9463 41.6414C58.6078 42.1558 57.0738 42.2493 56.1715 42.2493C55.0887 42.2493 53.9758 42.1324 52.9983 41.8986C51.2387 46.9255 47.9752 47.4866 46.6217 47.4866C44.9223 47.4866 43.0876 46.6215 42.2905 45.1251C39.9294 46.5514 35.9741 47.9075 32.5001 47.9075C30.3646 47.9075 28.5449 47.4165 27.1011 46.4345C26.1837 47.5568 25.116 48.1413 23.9129 48.1413C21.657 48.1413 19.3861 46.1305 17.3859 44.3769C16.243 43.3716 15.1602 42.4129 14.3932 42.1558C13.8969 45.0082 12.8893 47.9776 11.6561 50.2456C9.9266 53.4254 7.83618 55.1555 5.64049 55.2491C5.59537 55.2491 5.55026 55.2491 5.52018 55.2491C4.42233 55.2491 3.4448 54.571 2.66277 53.3085C1.27918 51.0405 0.632507 47.019 0.812974 41.9453C1.26414 29.4833 2.43719 19.7101 4.31706 12.9062C6.45259 5.12038 9.50551 1.19238 13.3856 1.19238C14.3481 1.19238 15.3707 1.44957 16.4234 1.94057H16.4385C17.4611 2.45495 18.2432 3.55386 18.7094 5.097C19.326 7.15452 19.3109 9.72642 19.0252 11.9944C22.6797 8.81456 28.6501 5.16714 33.2671 5.16714C37.6886 5.16714 39.2526 8.48723 39.794 11.2696C40.2151 13.444 39.9444 15.595 39.0571 17.3954C41.704 17.5356 44.802 18.8216 46.6067 21.4403C47.5842 20.2245 48.9979 19.5464 50.6371 19.5464C51.9906 19.5464 53.3893 20.014 54.5924 20.8557C54.4871 19.4295 54.6225 18.1669 54.9834 17.068C55.6 15.1976 56.8783 13.8415 58.7883 13.0231C66.5785 9.51599 86.8811 2.78229 94.19 2.78229C95.4984 2.78229 96.3406 2.99271 96.8369 3.46033L96.8519 3.48371C97.1828 3.78767 97.5888 4.44233 97.7392 5.72828C97.8746 6.85057 97.7693 8.25342 97.5437 9.51599C101.725 7.85595 106.808 6.87395 111.485 6.87395C116.192 6.87395 119.952 7.87933 122.178 9.72642C125.802 6.079 132.855 3.39019 138.901 3.39019C143.202 3.39019 148.962 4.67614 151.955 10.8487C153.835 14.7299 154.301 19.9205 153.338 26.2801C153.429 26.2801 153.519 26.2801 153.594 26.2801C154.075 26.2801 155.564 26.2801 156 27.9402C156.542 29.9743 155.098 32.4059 152.662 36.1936C151.759 37.5965 150.511 39.5137 150.391 40.1918C149.699 44.3536 144.826 45.3122 136.63 45.5226C132.299 45.5226 127.14 43.8626 124.945 39.2565C121.862 42.3428 117.455 44.4471 114.673 44.7277C114.643 44.8913 114.613 45.0784 114.583 45.242C114.072 47.9542 113.229 52.5135 111.004 55.5063C110.628 55.9973 110.237 56.8156 109.831 57.6807C108.943 59.4576 107.966 61.5619 106.552 61.5619Z" fill="#282828"></path>
  <path d="M13.3555 2.33809C14.2428 2.33809 15.1752 2.5719 16.1678 3.03952C19.1304 4.55928 18.6341 11.0358 17.7318 14.5429C21.0404 11.0592 28.0937 6.33623 33.222 6.33623C36.0493 6.33623 38.2901 7.76247 39.027 11.5969C39.6436 14.73 38.4856 17.185 36.9817 18.6814C37.463 18.5878 37.9743 18.5411 38.5157 18.5411C41.4784 18.5411 44.9975 20.0374 46.5465 23.1003C47.3736 21.4871 48.9227 20.7155 50.607 20.7155C52.3816 20.7155 54.3066 21.5806 55.7203 23.2173C54.8029 19.3126 55.1187 15.7821 58.9687 14.1221C66.6987 10.6383 87.0314 3.928 94.175 3.928C95.2728 3.928 96.0548 4.09166 96.4308 4.44238C97.5738 5.54128 96.8519 9.93689 96.1902 11.2462C100.567 9.1887 106.326 7.99628 111.455 7.99628C115.966 7.99628 119.997 8.93151 122.178 11.0592C125.306 7.5988 132.314 4.51252 138.871 4.51252C147.608 4.51252 155.534 10.007 152.316 27.5193C152.797 27.4258 153.218 27.4024 153.564 27.4024C159.008 27.4024 150.15 36.9185 149.639 39.8177C149.007 43.6288 142.57 44.1432 136.585 44.2835C132.178 44.2835 126.825 42.4831 125.14 37.5264C121.952 41.127 116.794 43.4885 114.087 43.4885C113.59 45.8266 112.929 51.251 110.477 54.5243C109.259 56.1142 108.131 60.3462 106.537 60.3462C106.086 60.3462 105.59 59.9954 105.048 59.1537C102.943 55.3894 102.04 48.0244 102.386 39.0695C97.0625 43.6756 91.6484 45.8734 87.242 45.8734C83.768 45.8734 80.9106 44.4939 79.2112 41.8752C78.2637 42.8806 75.1506 45.4759 72.6692 45.4759C71.5563 45.4759 70.5638 44.9381 69.9472 43.4885C67.947 44.9148 65.4655 46.8086 63.5706 46.8086C61.796 46.8086 60.5328 45.1719 60.6681 39.9814C59.5703 40.7062 57.8709 41.0335 56.1414 41.0335C54.8781 41.0335 53.5998 40.8698 52.5471 40.5425C51.2988 44.8212 48.7723 46.2708 46.5916 46.2708C44.5162 46.2708 42.7416 44.9849 42.6213 43.582C40.7114 44.9147 36.4553 46.6917 32.485 46.6917C30.4548 46.6917 28.4997 46.2241 26.9657 45.0083C26.0183 46.3877 24.9806 46.9255 23.8978 46.9255C20.2584 46.9255 16.1678 40.8465 13.9871 40.8465C13.9269 40.8465 13.8517 40.8465 13.7916 40.8698C13.0396 46.341 10.0018 53.8229 5.59535 54.0099C5.56527 54.0099 5.52015 54.0099 5.49007 54.0099C2.67778 54.0099 1.2942 48.7726 1.53482 41.9454C2.39204 18.4709 5.94124 2.33809 13.3555 2.33809ZM13.3555 0C11.1748 0 9.2047 1.16905 7.5053 3.46038C5.98636 5.5179 4.66293 8.53404 3.59516 12.4153C1.68521 19.3594 0.48209 29.2495 0.0309206 41.8518C-0.164586 47.2295 0.572323 51.5783 2.09126 54.0801C3.00864 55.5764 4.18168 56.3714 5.49007 56.3714C5.53519 56.3714 5.59534 56.3714 5.64046 56.3714C8.06174 56.2779 10.3326 54.4074 12.2125 50.9704C13.3404 48.8895 14.2879 46.2708 14.8594 43.6288C15.491 44.073 16.3031 44.7745 16.9949 45.3824C19.0853 47.2061 21.4464 49.287 23.8978 49.287C25.1159 49.287 26.2138 48.7726 27.1913 47.7438C28.6501 48.6089 30.4247 49.0532 32.485 49.0532C36.1696 49.0532 39.8391 47.6737 42.0799 46.4579C43.1327 47.8841 44.9073 48.6323 46.6067 48.6323C48.0654 48.6323 49.4641 48.0946 50.6521 47.0892C51.7801 46.1306 52.6824 44.8212 53.3742 43.1378C54.2615 43.3015 55.209 43.395 56.1564 43.395C56.9234 43.395 58.0964 43.3248 59.2695 43.0209C59.45 44.8446 59.856 46.2708 60.5177 47.323C61.2847 48.5622 62.3224 49.1935 63.5857 49.1935C65.4956 49.1935 67.6462 47.7672 69.6163 46.3644C70.2931 47.2061 71.2856 47.8607 72.6993 47.8607C74.9852 47.8607 77.5569 46.0838 79.0909 44.7745C81.061 47.0658 83.8582 48.2582 87.2721 48.2582C91.498 48.2582 96.2353 46.4111 100.837 42.9975C100.852 50.9236 101.935 57.143 103.935 60.7202L103.965 60.7904L103.995 60.8372C104.792 62.0763 105.665 62.7076 106.552 62.7076C108.342 62.7076 109.5 60.276 110.417 58.312C110.778 57.5404 111.169 56.7221 111.455 56.348L111.47 56.3246L111.485 56.3013C113.816 53.1916 114.718 48.5856 115.26 45.7097C117.982 45.2655 121.847 43.395 124.794 40.6828C125.862 42.5065 127.396 43.9327 129.411 44.9615C131.487 46.0137 134.043 46.5982 136.615 46.5982H136.63H136.645C139.683 46.528 142.856 46.341 145.398 45.7097C147.548 45.1486 150.481 44.0263 151.113 40.4724C151.323 39.8177 152.451 38.0875 153.188 36.9185C155.489 33.3646 157.459 30.2783 156.692 27.4024C156.331 26.0463 155.519 25.2748 154.256 25.0877C155.008 19.0087 154.436 13.9584 152.556 10.0772C149.368 3.53052 143.367 2.15105 138.901 2.15105C135.698 2.15105 132.148 2.87585 128.885 4.20857C126.178 5.30747 123.832 6.75709 122.132 8.32361C119.17 6.1258 114.793 5.6348 111.47 5.6348C107.154 5.6348 102.492 6.45314 98.4912 7.87937C98.5513 7.03766 98.5513 6.19594 98.4611 5.44776C98.2656 3.74095 97.679 2.85247 97.2279 2.43162L97.2128 2.40824L97.1978 2.38486C96.5662 1.80033 95.6337 1.54314 94.175 1.54314C86.8059 1.54314 66.398 8.30023 58.5627 11.8307C56.4422 12.7426 55.0135 14.3091 54.2916 16.4602C54.0209 17.2785 53.8554 18.1436 53.7953 19.0788C52.7726 18.5878 51.6898 18.3073 50.607 18.3073C49.058 18.3073 47.6744 18.8684 46.6217 19.8738C44.8922 17.7461 42.4559 16.6706 40.2752 16.2731C40.7565 14.5897 40.8317 12.7192 40.4557 10.8254C39.9895 8.39375 39.027 6.54666 37.5983 5.37761C36.4253 4.39561 34.9514 3.90462 33.2069 3.90462C28.9208 3.90462 23.6572 6.82723 19.8974 9.79661C19.9576 7.97289 19.8222 6.10242 19.341 4.48914C18.7845 2.66543 17.8521 1.35609 16.6189 0.724808H16.6039H16.5888C15.491 0.280571 14.3932 0 13.3555 0Z" fill="white"></path>
  <path d="M124.163 19.1491C116.312 8.55756 106.041 12.3686 96.7917 14.6834C95.5886 15.3848 97.4384 16.9279 97.8445 17.5826C98.4911 17.9801 99.198 18.3542 99.9198 18.3542C102.416 18.4711 104.116 18.1905 106.567 17.302C107.184 17.3254 108.161 16.624 108.627 17.302C108.116 22.3055 107.108 27.2155 106.492 32.2191C106.131 34.0194 103.95 32.3827 102.988 33.0374C103.319 34.6039 104.116 34.6039 104.356 34.978C104.627 35.5391 104.687 36.0301 105.168 36.3341C105.078 37.2693 105.65 36.9186 105.77 37.6902C105.875 38.2981 105.981 39.397 105.529 40.1218C105.424 40.7765 105.484 41.5247 105.409 42.2027C105.093 45.8501 104.462 50.199 105.92 53.3788C106.341 54.1036 106.733 52.6072 106.432 52.1162C106.161 50.5965 106.943 51.3213 107.575 48.6091C107.65 48.2817 107.635 47.8375 107.966 47.9076C108.206 47.9544 108.447 47.253 108.432 46.949C108.432 46.5749 108.372 46.3645 108.597 46.1307C109.169 44.8681 109.785 39.8646 110.101 38.415C112.101 38.415 115.545 35.9366 116.914 34.791C120.238 31.9852 128.449 25.6958 124.163 19.1491ZM120.644 23.2174C118.237 27.7533 114.372 29.4367 110.883 31.2838C111.094 28.8054 111.71 26.5141 111.665 24.0123C111.966 21.4171 112.417 18.8919 111.395 16.5071C113.305 16.1564 123.727 17.606 120.644 23.2174Z" fill="white"></path>
  <path d="M78.4141 18.2373C78.4141 18.1438 78.384 18.0035 78.3539 17.9801C77.9629 17.7697 78.1434 17.2086 78.008 16.7877C81.7527 15.7589 85.7682 15.0575 88.9715 11.8076C89.2422 11.5504 89.6031 11.3399 90.325 11.2464C90.6258 11.1997 90.8965 10.9659 91.0619 10.5918C91.3777 9.91371 91.7838 9.98386 92.0545 9.42271C92.1748 9.16552 92.3402 8.97848 92.5357 8.88495C93.5734 8.46409 93.7689 7.29505 93.7388 6.94434C88.8211 7.34181 84.0988 10.0072 79.2563 11.3867C72.203 13.3975 65.0745 15.0809 58.0814 17.419C56.9835 19.3596 62.5931 19.4297 63.2849 19.5934C67.3755 19.8038 71.3608 18.7049 75.3762 17.5593C73.6467 23.2642 71.8421 29.1094 71.9323 35.5626C72.0225 37.1525 71.9774 40.6129 73.5415 39.023C74.1129 39.5373 74.1581 38.2046 74.5641 38.532C75.2559 39.1632 75.1356 37.246 75.4815 36.1237C75.5567 34.5572 76.068 33.1076 76.2635 31.6112C76.6997 27.0753 78.0983 22.8434 78.4141 18.2373Z" fill="white"></path>
  <path d="M69.6164 24.1993C69.481 22.89 68.0824 23.2173 67.4507 23.0303C66.383 23.6616 65.8115 26.7245 65.2701 28.291C64.8189 29.6237 65.0144 28.8054 63.0443 29.0625C58.8184 29.6471 55.8106 30.6758 50.9981 30.8629C51.2688 28.969 51.8252 28.2442 51.7952 26.3971C51.7049 24.7605 49.419 24.0357 48.667 24.9475C47.1632 29.2964 45.4186 33.8323 45.0878 38.8124C45.1329 39.8879 45.8548 40.4023 46.3962 40.6361C46.7872 40.7998 47.1481 40.753 47.3887 40.0282C48.1407 40.2153 47.8098 39.4203 48.4114 39.3268C49.2686 37.5498 49.5543 36.0067 50.186 34.1596C50.6823 33.5751 51.4493 34.674 52.126 34.5571C56.6076 35.8196 59.9764 33.7855 64.2023 32.4294C63.9316 34.1128 61.1344 44.4004 64.2925 40.1919C64.7437 40.2386 65.1197 39.6307 65.3302 39.2099C66.2175 39.8879 66.0371 37.316 66.9244 36.8952C67.7515 34.0193 71.1202 26.8647 69.6164 24.1993Z" fill="white"></path>
  <path d="M144.3 25.7189C144.3 22.1182 145.714 18.2604 145.112 14.8C140.345 12.158 135.021 15.2209 130.344 17.0679C128.87 18.1435 126.674 18.0499 126.193 15.1975C126.313 14.496 125.336 13.8881 125.952 13.14C131.035 10.9655 137.352 7.83248 142.976 9.86662C150.541 14.3558 147.248 21.7675 147.293 30.512C148.03 31.1199 149.127 30.512 149.97 30.6523C149.744 31.9616 148.691 32.2188 148.045 32.8267C147.924 33.9957 146.556 33.3177 146.315 36.3338C146.285 36.7781 145.548 36.8716 145.443 36.6845C145.338 36.4975 144.24 36.5443 143.728 36.7313C132.991 39.5136 128.103 37.9003 127.592 29.3195C127.622 25.5085 129.562 21.9312 132.554 20.9258C137.277 18.6111 140.916 20.1075 144.3 25.7189ZM143.728 29.6235C143.728 28.7116 142.901 27.5426 140.886 26.1631C138.194 24.5031 131.697 24.2693 130.434 30.3249C133.397 35.3986 142.435 32.172 143.728 29.6235Z" fill="white"></path>
  <path d="M43.8244 29.226C43.8996 25.1577 40.6361 23.5912 38.5608 22.9365C37.7186 23.3574 36.4403 21.5103 35.7485 22.352C35.8387 22.6559 36.0041 22.843 36.1846 23.0066C36.3049 23.1235 36.2448 23.4041 36.1094 23.4041C33.0565 23.3807 23.7474 24.9706 24.0932 32.1486C25.0858 45.9901 43.6289 40.402 43.8244 29.226ZM39.3277 31.0263C38.6811 32.4058 37.7336 33.2709 36.8764 34.2762C36.2297 35.0478 35.3574 32.8266 34.8762 32.2889C34.5303 30.6288 37.0719 29.4364 36.8764 27.5893C35.9289 27.753 35.192 29.1792 34.3799 29.9274C34.0491 30.3249 33.8235 29.9742 33.6731 29.6702C33.3723 29.0857 32.5602 28.9922 32.1541 28.5947C32.0489 28.5245 31.8684 28.5479 31.8534 28.7583C31.7782 30.208 32.6354 30.2781 32.8159 31.1432C32.5903 32.359 30.4999 32.5461 30.0487 34.4867C31.1315 35.8194 32.2293 33.8788 33.267 33.2241C33.9438 32.8266 34.6506 34.5334 35.1319 35.0946C35.2973 35.4453 35.2823 35.6323 35.0116 35.8428C32.7407 38.2276 25.0708 36.6377 27.6575 30.7457C29.7629 25.976 36.9516 25.2278 38.5908 26.8879C39.0871 27.3321 38.9818 26.3033 39.5684 27.0749C40.2602 27.9634 39.9744 29.7871 39.3277 31.0263Z" fill="white"></path>
  <path d="M100.687 25.9292C99.7845 23.8249 97.3332 21.3466 95.9346 20.7854C95.4834 20.6685 94.6563 19.8268 93.3027 19.9203C92.9569 19.8969 94.0547 21.4401 93.5734 21.3232C90.8965 20.7387 85.9186 21.0192 82.6251 24.5731C75.286 32.4525 81.3618 40.4254 87.3172 40.0981C89.1821 40.1682 90.6108 39.5369 92.3703 38.6251C92.626 38.4848 93.6787 37.5262 93.9344 38.0405C94.0547 38.2743 94.7465 37.8067 94.8217 37.5028C95.4684 35.8661 96.2354 36.4506 97.2129 35.3283C99.3935 33.3176 102.266 30.6522 100.687 25.9292ZM96.4008 30.4885C95.5586 31.564 94.3254 32.4291 93.3479 33.1539C92.7012 33.2007 91.483 31.4471 91.0168 30.7457C92.4154 29.904 93.769 28.3141 93.2276 26.4904C93.032 26.7475 92.8666 26.6073 92.7764 26.3267L92.5057 26.4436C88.5955 31.9147 91.6184 28.2206 87.9037 27.5893C87.8436 27.5659 87.7834 27.6594 87.7834 27.7529C87.7834 27.9634 87.7383 28.1036 87.8135 28.2673C89.7235 31.4705 88.8963 29.2025 87.0616 31.868C86.6104 32.8032 86.0088 32.8032 86.0389 33.2942C86.9262 34.5334 88.2346 32.5226 89.1821 32.0316C89.8588 31.4705 91.1371 33.5046 91.6334 34.1359C90.0844 35.0712 85.6028 36.8247 83.8733 34.5568C79.1962 28.4076 90.1897 22.3519 94.6111 24.503C94.8969 23.8249 95.0022 23.9418 95.2578 23.9418C96.3557 23.9652 97.3933 29.4597 96.4008 30.4885Z" fill="white"></path>
  <path d="M19.2056 24.3864C20.8148 22.7264 22.7247 22.212 24.4091 20.7156C27.056 18.3541 29.9434 16.6707 32.7106 14.6833C33.9588 13.8884 35.8237 11.4568 33.4325 10.7553C31.8384 11.3165 29.8983 10.9424 28.4847 12.1582C22.6044 15.0341 16.8445 20.3649 11.3101 24.3864C11.3101 18.5646 15.5662 11.3633 13.6713 8.79135C13.0095 8.46402 12.6937 8.20683 12.047 8.6043C11.8967 8.69783 11.7613 8.93164 11.5808 8.6043C11.3402 7.97302 10.6033 8.51078 10.3476 9.25897C8.67831 13.374 7.89629 15.3848 6.94883 19.7102C5.12912 27.7767 3.68537 36.5211 4.60275 45.0785C4.66291 46.1307 5.41486 46.5515 6.15177 46.458C6.76836 46.3879 7.08418 46.1774 7.32481 45.6631C7.64063 44.8213 7.97148 45.6631 8.16699 44.9616C9.23476 40.1919 8.94902 32.6633 10.859 31.1201C12.7238 30.2083 12.2426 28.8522 13.9269 31.4007C16.288 34.4168 19.0101 36.6614 21.4615 39.4905C21.8976 40.075 22.3788 39.9815 22.5443 39.4905C22.9503 38.3448 22.1382 37.3395 21.7171 36.4042C19.8072 32.9906 17.3859 30.5356 15.0548 27.7533C16.4234 26.5608 17.807 25.4853 19.2056 24.3864Z" fill="white"></path>
</svg>
