<svg xmlns="http://www.w3.org/2000/svg" width="81" height="129" viewBox="0 0 81 129" fill="none"><path d="M46.0017 5.5C46.0017 2.46243 43.5393 0 40.5017 0C37.4641 0 35.0017 2.46243 35.0017 5.5H40.5017H46.0017ZM36.6126 127.389C38.7605 129.537 42.2429 129.537 44.3908 127.389L79.3926 92.3873C81.5405 90.2394 81.5405 86.757 79.3926 84.6091C77.2447 82.4612 73.7623 82.4612 71.6144 84.6091L40.5017 115.722L9.38901 84.6091C7.24113 82.4612 3.75872 82.4612 1.61084 84.6091C-0.537048 86.757 -0.537048 90.2394 1.61084 92.3873L36.6126 127.389ZM40.5017 5.5H35.0017V123.5H40.5017H46.0017V5.5H40.5017Z" fill="#FFD24E"></path></svg>