<?xml version="1.0" encoding="utf-8"?>
<!-- Generator: Adobe Illustrator 25.2.3, SVG Export Plug-In . SVG Version: 6.00 Build 0)  -->
<svg version="1.1" id="Слой_1" xmlns="http://www.w3.org/2000/svg" xmlns:xlink="http://www.w3.org/1999/xlink" x="0px" y="0px"
	 viewBox="0 0 1213.3 379.9" style="enable-background:new 0 0 1213.3 379.9;" xml:space="preserve">
<style type="text/css">
	.st0{fill:#282828;}
	.st1{fill:#FFFFFF;}
</style>
<g>
	<g>
		<g>
			<path class="st0" d="M1098,193.3c37.4-131.1-152-104.9-200.4-70.4c-31.1-19.5-118.1-15.6-172.8,0.8c4.3-5.6,9.1-24.5,1.6-29.1
				c-19.1-11.3-189.8,24.3-249.1,41.5c-25.6,7.1-27.7,22.2-21.6,38.9c-18.4-13.8-49.7-14.6-61-0.5c-12.1-15.5-42.7-21.6-63.6-18.9
				c10-6.4,17.7-16.9,13.6-30.3c-13.8-46.3-107.5-10.5-141.6,12.6c6-15,9.3-42.7-10.4-49.2c-62.2-19-91,54.1-97.3,166.6
				c-1.7,29.6,7.8,52.1,27,51.6c29.3-0.8,49.5-32.8,54.5-56.2c18.2-2.2,59.6,44.2,87.6,17.7c30.1,15.4,84.9,2.5,104.1-6.2
				c1.7,12.3,49.9,22.6,66.1-13c16.5,3.2,41.2,3,54-2.4c-1.7,46,36.1,26.8,61.7,15.1c13,20,52.4-0.7,61.6-6.9
				c25.6,25.6,90.7,23.2,154.1-12c-2.3,38.3,3.7,69.8,17.7,85.9c16.4,16.4,25.7-11.1,36.2-19.8c16.3-14,20.7-37.3,24-47.2
				c18,0,52.3-10.2,73.5-25.5c11.2,21.2,46.9,28.9,76.1,28.9c39.8-0.7,82.6-2.8,86.8-19.1C1083.9,232.6,1150.5,187.3,1098,193.3z"/>
		</g>
		<g>
			<path class="st1" d="M212.8,179.9c10.7-7.1,23.4-9.3,34.6-15.7c17.6-10.1,36.8-17.3,55.2-25.8c8.3-3.4,20.7-13.8,4.8-16.8
				c-10.6,2.4-23.5,0.8-32.9,6c-39.1,12.3-77.4,35.1-114.2,52.3c0-24.9,28.3-55.7,15.7-66.7c-4.4-1.4-6.5-2.5-10.8-0.8
				c-1,0.4-1.9,1.4-3.1,0c-1.6-2.7-6.5-0.4-8.2,2.8c-11.1,17.6-16.3,26.2-22.6,44.7c-12.1,34.5-21.7,71.9-15.6,108.5
				c0.4,4.5,5.4,6.3,10.3,5.9c4.1-0.3,6.2-1.2,7.8-3.4c2.1-3.6,4.3,0,5.6-3c7.1-20.4,5.2-52.6,17.9-59.2c12.4-3.9,9.2-9.7,20.4,1.2
				c15.7,12.9,33.8,22.5,50.1,34.6c2.9,2.5,6.1,2.1,7.2,0c2.7-4.9-2.7-9.2-5.5-13.2c-12.7-14.6-28.8-25.1-44.3-37
				C194.4,189.2,203.5,184.6,212.8,179.9z"/>
			<path class="st1" d="M910.7,157.5c-52.2-45.3-120.5-29-182-19.1c-8,3,4.3,9.6,7,12.4c4.3,1.7,9,3.3,13.8,3.3
				c16.6,0.5,27.9-0.7,44.2-4.5c4.1,0.1,10.6-2.9,13.7,0c-3.4,21.4-10.1,42.4-14.2,63.8c-2.4,7.7-16.9,0.7-23.3,3.5
				c2.2,6.7,7.5,6.7,9.1,8.3c1.8,2.4,2.2,4.5,5.4,5.8c-0.6,4,3.2,2.5,4,5.8c0.7,2.6,1.4,7.3-1.6,10.4c-0.7,2.8-0.3,6-0.8,8.9
				c-2.1,15.6-6.3,34.2,3.4,47.8c2.8,3.1,5.4-3.3,3.4-5.4c-1.8-6.5,3.4-3.4,7.6-15c0.5-1.4,0.4-3.3,2.6-3c1.6,0.2,3.2-2.8,3.1-4.1
				c0-1.6-0.4-2.5,1.1-3.5c3.8-5.4,7.9-26.8,10-33c13.3,0,36.2-10.6,45.3-15.5C884.6,212.4,939.2,185.5,910.7,157.5z M887.3,174.9
				c-16,19.4-41.7,26.6-64.9,34.5c1.4-10.6,5.5-20.4,5.2-31.1c2-11.1,5-21.9-1.8-32.1C838.5,144.7,907.8,150.9,887.3,174.9z"/>
			<path class="st1" d="M606.5,153.6c0-0.4-0.2-1-0.4-1.1c-2.6-0.9-1.4-3.3-2.3-5.1c24.9-4.4,51.6-7.4,72.9-21.3
				c1.8-1.1,4.2-2,9-2.4c2-0.2,3.8-1.2,4.9-2.8c2.1-2.9,4.8-2.6,6.6-5c0.8-1.1,1.9-1.9,3.2-2.3c6.9-1.8,8.2-6.8,8-8.3
				c-32.7,1.7-64.1,13.1-96.3,19c-46.9,8.6-94.3,15.8-140.8,25.8c-7.3,8.3,30,8.6,34.6,9.3c27.2,0.9,53.7-3.8,80.4-8.7
				c-11.5,24.4-23.5,49.4-22.9,77c0.6,6.8,0.3,21.6,10.7,14.8c3.8,2.2,4.1-3.5,6.8-2.1c4.6,2.7,3.8-5.5,6.1-10.3
				c0.5-6.7,3.9-12.9,5.2-19.3C595.1,191.4,604.4,173.3,606.5,153.6z"/>
			<path class="st1" d="M548,179.1c-0.9-5.6-10.2-4.2-14.4-5c-7.1,2.7-10.9,15.8-14.5,22.5c-3,5.7-1.7,2.2-14.8,3.3
				c-28.1,2.5-48.1,6.9-80.1,7.7c1.8-8.1,5.5-11.2,5.3-19.1c-0.6-7-15.8-10.1-20.8-6.2c-10,18.6-21.6,38-23.8,59.3
				c0.3,4.6,5.1,6.8,8.7,7.8c2.6,0.7,5,0.5,6.6-2.6c5,0.8,2.8-2.6,6.8-3c5.7-7.6,7.6-14.2,11.8-22.1c3.3-2.5,8.4,2.2,12.9,1.7
				c29.8,5.4,52.2-3.3,80.3-9.1c-1.8,7.2-20.4,51.2,0.6,33.2c3,0.2,5.5-2.4,6.9-4.2c5.9,2.9,4.7-8.1,10.6-9.9
				C535.6,221.1,558,190.5,548,179.1z"/>
			<path class="st1" d="M1044.6,185.6c0-15.4,9.4-31.9,5.4-46.7c-31.7-11.3-67.1,1.8-98.2,9.7c-9.8,4.6-24.4,4.2-27.6-8
				c0.8-3-5.7-5.6-1.6-8.8c33.8-9.3,75.8-22.7,113.2-14c50.3,19.2,28.4,50.9,28.7,88.3c4.9,2.6,12.2,0,17.8,0.6
				c-1.5,5.6-8.5,6.7-12.8,9.3c-0.8,5-9.9,2.1-11.5,15c-0.2,1.9-5.1,2.3-5.8,1.5c-0.7-0.8-8-0.6-11.4,0.2
				c-71.4,11.9-103.9,5-107.3-31.7c0.2-16.3,13.1-31.6,33-35.9C997.9,155.2,1022.1,161.6,1044.6,185.6z M1040.8,202.3
				c0-3.9-5.5-8.9-18.9-14.8c-17.9-7.1-61.1-8.1-69.5,17.8C972.1,227,1032.2,213.2,1040.8,202.3z"/>
		</g>
	</g>
	<g>
		<path class="st1" d="M376.5,200.6c0.5-17.4-21.2-24.1-35-26.9c-5.6,1.8-14.1-6.1-18.7-2.5c0.6,1.3,1.7,2.1,2.9,2.8
			c0.8,0.5,0.4,1.7-0.5,1.7c-20.3-0.1-82.2,6.7-79.9,37.4C251.9,272.3,375.2,248.4,376.5,200.6z M346.7,208.3
			c-4.3,5.9-10.6,9.6-16.3,13.9c-4.3,3.3-10.1-6.2-13.3-8.5c-2.3-7.1,14.6-12.2,13.3-20.1c-6.3,0.7-11.2,6.8-16.6,10
			c-2.2,1.7-3.7,0.2-4.7-1.1c-2-2.5-7.4-2.9-10.1-4.6c-0.7-0.3-1.9-0.2-2,0.7c-0.5,6.2,5.2,6.5,6.4,10.2c-1.5,5.2-15.4,6-18.4,14.3
			c7.2,5.7,14.5-2.6,21.4-5.4c4.5-1.7,9.2,5.6,12.4,8c1.1,1.5,1,2.3-0.8,3.2c-15.1,10.2-66.1,3.4-48.9-21.8
			c14-20.4,61.8-23.6,72.7-16.5c3.3,1.9,2.6-2.5,6.5,0.8C352.8,195.2,351,203,346.7,208.3z"/>
		<path class="st1" d="M754.6,186.5c-6-9-22.3-19.6-31.6-22c-3-0.5-8.5-4.1-17.5-3.7c-2.3-0.1,5,6.5,1.8,6
			c-17.8-2.5-50.9-1.3-72.8,13.9c-48.8,33.7-8.4,67.8,31.2,66.4c12.4,0.3,21.9-2.4,33.6-6.3c1.7-0.6,8.7-4.7,10.4-2.5
			c0.8,1,5.4-1,5.9-2.3c4.3-7,9.4-4.5,15.9-9.3C746,218.1,765.1,206.7,754.6,186.5z M726.1,206c-5.6,4.6-13.8,8.3-20.3,11.4
			c-4.3,0.2-12.4-7.3-15.5-10.3c9.3-3.6,18.3-10.4,14.7-18.2c-1.3,1.1-2.4,0.5-3-0.7l-1.8,0.5c-26,23.4-5.9,7.6-30.6,4.9
			c-0.4-0.1-0.8,0.3-0.8,0.7c0,0.9-0.3,1.5,0.2,2.2c12.7,13.7,7.2,4-5,15.4c-3,4-7,4-6.8,6.1c5.9,5.3,14.6-3.3,20.9-5.4
			c4.5-2.4,13,6.3,16.3,9c-10.3,4-40.1,11.5-51.6,1.8c-31.1-26.3,42-52.2,71.4-43c1.9-2.9,2.6-2.4,4.3-2.4
			C725.8,178.1,732.7,201.6,726.1,206z"/>
	</g>
</g>
</svg>
