<?xml version="1.0" encoding="utf-8"?>
<!-- Generator: Adobe Illustrator 25.2.3, SVG Export Plug-In . SVG Version: 6.00 Build 0)  -->
<svg version="1.1" id="Слой_1" xmlns="http://www.w3.org/2000/svg" xmlns:xlink="http://www.w3.org/1999/xlink" x="0px" y="0px"
	 viewBox="0 0 1213.3 379.9" style="enable-background:new 0 0 1213.3 379.9;" xml:space="preserve">
<style type="text/css">
	.st0{fill:#282828;}
	.st1{fill:#FFFFFF;}
</style>
<g>
	<g>
		<g>
			<path class="st0" d="M793.6,338.9c-4.6,0-9.1-2.2-13.5-6.6l-0.1-0.1l-0.1-0.1c-13.6-15.6-20.3-44.1-19.3-80.6
				c-32.2,16.5-65.8,25.5-95.3,25.5c-23.1,0-41.6-5.5-53.9-15.9c-8.8,5.2-27.3,14.2-42.9,14.2c-9.7,0-15.8-3.5-19.5-7.3
				c-13.3,6.1-28.3,13-41,13c-7,0-12.7-2.2-16.8-6.4c-4.5-4.7-7-11.5-7.5-20.9c-8.9,2.2-19.1,2.6-25.1,2.6c-7.2,0-14.6-0.5-21.1-1.5
				c-11.7,21.5-33.4,23.9-42.4,23.9c-11.3,0-23.5-3.7-28.8-10.1c-15.7,6.1-42,11.9-65.1,11.9c-14.2,0-26.3-2.1-35.9-6.3
				c-6.1,4.8-13.2,7.3-21.2,7.3c-15,0-30.1-8.6-43.4-16.1c-7.6-4.3-14.8-8.4-19.9-9.5c-3.3,12.2-10,24.9-18.2,34.6
				c-11.5,13.6-25.4,21-40,21.4c-0.3,0-0.6,0-0.8,0c-7.3,0-13.8-2.9-19-8.3c-9.2-9.7-13.5-26.9-12.3-48.6
				c3-53.3,10.8-95.1,23.3-124.2c14.2-33.3,34.5-50.1,60.3-50.1c6.4,0,13.2,1.1,20.2,3.2l0.1,0c6.8,2.2,12,6.9,15.1,13.5
				c4.1,8.8,4,19.8,2.1,29.5c24.3-13.6,64-29.2,94.7-29.2c29.4,0,39.8,14.2,43.4,26.1c2.8,9.3,1,18.5-4.9,26.2
				c17.6,0.6,38.2,6.1,50.2,17.3c6.5-5.2,15.9-8.1,26.8-8.1c9,0,18.3,2,26.3,5.6c-0.7-6.1,0.2-11.5,2.6-16.2
				c4.1-8,12.6-13.8,25.3-17.3c51.8-15,186.8-43.8,235.4-43.8c8.7,0,14.3,0.9,17.6,2.9l0.1,0.1c2.2,1.3,4.9,4.1,5.9,9.6
				c0.9,4.8,0.2,10.8-1.3,16.2c27.8-7.1,61.6-11.3,92.7-11.3c31.3,0,56.3,4.3,71.1,12.2c24.1-15.6,71-27.1,111.2-27.1
				c28.6,0,66.9,5.5,86.8,31.9c12.5,16.6,15.6,38.8,9.2,66c0.6,0,1.2,0,1.7,0c3.2,0,13.1,0,16,7.1c3.6,8.7-6,19.1-22.2,35.3
				c-6,6-14.3,14.2-15.1,17.1c-4.6,17.8-37,21.9-91.5,22.8c-28.8,0-63.1-7.1-77.7-26.8c-20.5,13.2-49.8,22.2-68.3,23.4
				c-0.2,0.7-0.4,1.5-0.6,2.2c-3.4,11.6-9,31.1-23.8,43.9c-2.5,2.1-5.1,5.6-7.8,9.3C809.5,329.9,803,338.9,793.6,338.9z"/>
			<path class="st1" d="M173.9,85.6c5.9,0,12.1,1,18.7,3c19.7,6.5,16.4,34.2,10.4,49.2c22-14.9,68.9-35.1,103-35.1
				c18.8,0,33.7,6.1,38.6,22.5c4.1,13.4-3.6,23.9-13.6,30.3c3.2-0.4,6.6-0.6,10.2-0.6c19.7,0,43.1,6.4,53.4,19.5
				c5.5-6.9,15.8-10.2,27-10.2c11.8,0,24.6,3.7,34,10.7c-6.1-16.7-4-31.8,21.6-38.9c51.4-14.9,186.6-43.6,234.1-43.6
				c7.3,0,12.5,0.7,15,2.2c7.6,4.7,2.8,23.5-1.6,29.1c29.1-8.8,67.4-13.9,101.5-13.9c30,0,56.8,4,71.3,13.1
				c20.8-14.8,67.4-28,111-28c58.1,0,110.8,23.5,89.4,98.4c3.2-0.4,6-0.5,8.3-0.5c36.2,0-22.7,40.7-26.1,53.1
				c-4.2,16.3-47,18.5-86.8,19.1c-29.3,0-64.9-7.7-76.1-28.9c-21.2,15.4-55.5,25.5-73.5,25.5c-3.3,10-7.7,33.2-24,47.2
				c-8.1,6.8-15.6,24.9-26.2,24.9c-3,0-6.3-1.5-9.9-5.1c-14-16.1-20-47.6-17.7-85.9c-35.4,19.7-71.4,29.1-100.7,29.1
				c-23.1,0-42.1-5.9-53.4-17.1c-6.3,4.3-27,15.4-43.5,15.4c-7.4,0-14-2.3-18.1-8.5c-13.3,6.1-29.8,14.2-42.4,14.2
				c-11.8,0-20.2-7-19.3-29.2c-7.3,3.1-18.6,4.5-30.1,4.5c-8.4,0-16.9-0.7-23.9-2.1c-8.3,18.3-25.1,24.5-39.6,24.5
				c-13.8,0-25.6-5.5-26.4-11.5c-12.7,5.7-41,13.3-67.4,13.3c-13.5,0-26.5-2-36.7-7.2c-6.3,5.9-13.2,8.2-20.4,8.2
				c-24.2,0-51.4-26-65.9-26c-0.4,0-0.9,0-1.3,0.1c-5,23.4-25.2,55.4-54.5,56.2c-0.2,0-0.5,0-0.7,0c-18.7,0-27.9-22.4-26.3-51.6
				C101,154.6,124.6,85.6,173.9,85.6 M173.9,75.6L173.9,75.6L173.9,75.6c-14.5,0-27.6,5-38.9,14.8c-10.1,8.8-18.9,21.7-26,38.3
				c-12.7,29.7-20.7,72-23.7,125.9c-1.3,23,3.6,41.6,13.7,52.3c6.1,6.4,13.9,9.8,22.6,9.8c0.3,0,0.7,0,1,0
				c16.1-0.4,31.2-8.4,43.7-23.1c7.5-8.9,13.8-20.1,17.6-31.4c4.2,1.9,9.6,4.9,14.2,7.5c13.9,7.8,29.6,16.7,45.9,16.7
				c8.1,0,15.4-2.2,21.9-6.6c9.7,3.7,21.5,5.6,35.2,5.6c24.5,0,48.9-5.9,63.8-11.1c7,6.1,18.8,9.3,30.1,9.3c9.7,0,19-2.3,26.9-6.6
				c7.5-4.1,13.5-9.7,18.1-16.9c5.9,0.7,12.2,1.1,18.5,1.1c5.1,0,12.9-0.3,20.7-1.6c1.2,7.8,3.9,13.9,8.3,18.4c5.1,5.3,12,8,20.4,8
				c12.7,0,27-6.1,40.1-12.1c4.5,3.6,11.1,6.4,20.5,6.4c15.2,0,32.3-7.6,42.5-13.2c13.1,9.8,31.7,14.9,54.4,14.9
				c28.1,0,59.6-7.9,90.2-22.5c0.1,33.9,7.3,60.5,20.6,75.8l0.2,0.3l0.2,0.2c5.3,5.3,11.1,8,17,8c11.9,0,19.6-10.4,25.7-18.8
				c2.4-3.3,5-6.8,6.9-8.4l0.1-0.1l0.1-0.1c15.5-13.3,21.5-33,25.1-45.3c18.1-1.9,43.8-9.9,63.4-21.5c7.1,7.8,17.3,13.9,30.7,18.3
				c13.8,4.5,30.8,7,47.9,7h0.1l0.1,0c20.2-0.3,41.3-1.1,58.2-3.8c14.3-2.4,33.8-7.2,38-22.4c1.4-2.8,8.9-10.2,13.8-15.2
				c15.3-15.2,28.4-28.4,23.3-40.7c-2.4-5.8-7.8-9.1-16.2-9.9c5-26,1.2-47.6-11.3-64.2c-21.2-28-61.1-33.9-90.8-33.9
				c-21.3,0-44.9,3.1-66.6,8.8c-18,4.7-33.6,10.9-44.9,17.6c-19.7-9.4-48.8-11.5-70.9-11.5c-28.7,0-59.7,3.5-86.3,9.6
				c0.4-3.6,0.4-7.2-0.2-10.4c-1.3-7.3-5.2-11.1-8.2-12.9l-0.1-0.1l-0.1-0.1c-4.2-2.5-10.4-3.6-20.1-3.6c-49,0-184.7,28.9-236.8,44
				c-14.1,3.9-23.6,10.6-28.4,19.8c-1.8,3.5-2.9,7.2-3.3,11.2c-6.8-2.1-14-3.3-21.2-3.3c-10.3,0-19.5,2.4-26.5,6.7
				c-11.5-9.1-27.7-13.7-42.2-15.4c3.2-7.2,3.7-15.2,1.2-23.3c-3.1-10.4-9.5-18.3-19-23.3c-7.8-4.2-17.6-6.3-29.2-6.3
				c-28.5,0-63.5,12.5-88.5,25.2c0.4-7.8-0.5-15.8-3.7-22.7c-3.7-7.8-9.9-13.4-18.1-16.1l-0.1,0l-0.1,0
				C188.1,76.8,180.8,75.6,173.9,75.6L173.9,75.6z"/>
		</g>
		<path class="st1" d="M910.7,157.5c-52.2-45.3-120.5-29-182-19.1c-8,3,4.3,9.6,7,12.4c4.3,1.7,9,3.3,13.8,3.3
			c16.6,0.5,27.9-0.7,44.2-4.5c4.1,0.1,10.6-2.9,13.7,0c-3.4,21.4-10.1,42.4-14.2,63.8c-2.4,7.7-16.9,0.7-23.3,3.5
			c2.2,6.7,7.5,6.7,9.1,8.3c1.8,2.4,2.2,4.5,5.4,5.8c-0.6,4,3.2,2.5,4,5.8c0.7,2.6,1.4,7.3-1.6,10.4c-0.7,2.8-0.3,6-0.8,8.9
			c-2.1,15.6-6.3,34.2,3.4,47.8c2.8,3.1,5.4-3.3,3.4-5.4c-1.8-6.5,3.4-3.4,7.6-15c0.5-1.4,0.4-3.3,2.6-3c1.6,0.2,3.2-2.8,3.1-4.1
			c0-1.6-0.4-2.5,1.1-3.5c3.8-5.4,7.9-26.8,10-33c13.3,0,36.2-10.6,45.3-15.5C884.6,212.4,939.2,185.5,910.7,157.5z M887.3,174.9
			c-16,19.4-41.7,26.6-64.9,34.5c1.4-10.6,5.5-20.4,5.2-31.1c2-11.1,5-21.9-1.8-32.1C838.5,144.7,907.8,150.9,887.3,174.9z"/>
		<path class="st1" d="M606.5,153.6c0-0.4-0.2-1-0.4-1.1c-2.6-0.9-1.4-3.3-2.3-5.1c24.9-4.4,51.6-7.4,72.9-21.3c1.8-1.1,4.2-2,9-2.4
			c2-0.2,3.8-1.2,4.9-2.8c2.1-2.9,4.8-2.6,6.6-5c0.8-1.1,1.9-1.9,3.2-2.3c6.9-1.8,8.2-6.8,8-8.3c-32.7,1.7-64.1,13.1-96.3,19
			c-46.9,8.6-94.3,15.8-140.8,25.8c-7.3,8.3,30,8.6,34.6,9.3c27.2,0.9,53.7-3.8,80.4-8.7c-11.5,24.4-23.5,49.4-22.9,77
			c0.6,6.8,0.3,21.6,10.7,14.8c3.8,2.2,4.1-3.5,6.8-2.1c4.6,2.7,3.8-5.5,6.1-10.3c0.5-6.7,3.9-12.9,5.2-19.3
			C595.1,191.4,604.4,173.3,606.5,153.6z"/>
		<path class="st1" d="M548,179.1c-0.9-5.6-10.2-4.2-14.4-5c-7.1,2.7-10.9,15.8-14.5,22.5c-3,5.7-1.7,2.2-14.8,3.3
			c-28.1,2.5-48.1,6.9-80.1,7.7c1.8-8.1,5.5-11.2,5.3-19.1c-0.6-7-15.8-10.1-20.8-6.2c-10,18.6-21.6,38-23.8,59.3
			c0.3,4.6,5.1,6.8,8.7,7.8c2.6,0.7,5,0.5,6.6-2.6c5,0.8,2.8-2.6,6.8-3c5.7-7.6,7.6-14.2,11.8-22.1c3.3-2.5,8.4,2.2,12.9,1.7
			c29.8,5.4,52.2-3.3,80.3-9.1c-1.8,7.2-20.4,51.2,0.6,33.2c3,0.2,5.5-2.4,6.9-4.2c5.9,2.9,4.7-8.1,10.6-9.9
			C535.6,221.1,558,190.5,548,179.1z"/>
		<path class="st1" d="M1044.6,185.6c0-15.4,9.4-31.9,5.4-46.7c-31.7-11.3-67.1,1.8-98.2,9.7c-9.8,4.6-24.4,4.2-27.6-8
			c0.8-3-5.7-5.6-1.6-8.8c33.8-9.3,75.8-22.7,113.2-14c50.3,19.2,28.4,50.9,28.7,88.3c4.9,2.6,12.2,0,17.8,0.6
			c-1.5,5.6-8.5,6.7-12.8,9.3c-0.8,5-9.9,2.1-11.5,15c-0.2,1.9-5.1,2.3-5.8,1.5c-0.7-0.8-8-0.6-11.4,0.2
			c-71.4,11.9-103.9,5-107.3-31.7c0.2-16.3,13.1-31.6,33-35.9C997.9,155.2,1022.1,161.6,1044.6,185.6z M1040.8,202.3
			c0-3.9-5.5-8.9-18.9-14.8c-17.9-7.1-61.1-8.1-69.5,17.8C972.1,227,1032.2,213.2,1040.8,202.3z"/>
		<path class="st1" d="M376.5,200.6c0.5-17.4-21.2-24.1-35-26.9c-5.6,1.8-14.1-6.1-18.7-2.5c0.6,1.3,1.7,2.1,2.9,2.8
			c0.8,0.5,0.4,1.7-0.5,1.7c-20.3-0.1-82.2,6.7-79.9,37.4C251.9,272.3,375.2,248.4,376.5,200.6z M346.6,208.3
			c-4.3,5.9-10.6,9.6-16.3,13.9c-4.3,3.3-10.1-6.2-13.3-8.5c-2.3-7.1,14.6-12.2,13.3-20.1c-6.3,0.7-11.2,6.8-16.6,10
			c-2.2,1.7-3.7,0.2-4.7-1.1c-2-2.5-7.4-2.9-10.1-4.6c-0.7-0.3-1.9-0.2-2,0.7c-0.5,6.2,5.2,6.5,6.4,10.2c-1.5,5.2-15.4,6-18.4,14.3
			c7.2,5.7,14.5-2.6,21.4-5.4c4.5-1.7,9.2,5.6,12.4,8c1.1,1.5,1,2.3-0.8,3.2c-15.1,10.2-66.1,3.4-48.9-21.8
			c14-20.4,61.8-23.6,72.7-16.5c3.3,1.9,2.6-2.5,6.5,0.8C352.8,195.2,350.9,203,346.6,208.3z"/>
		<path class="st1" d="M754.6,186.5c-6-9-22.3-19.6-31.6-22c-3-0.5-8.5-4.1-17.5-3.7c-2.3-0.1,5,6.5,1.8,6
			c-17.8-2.5-50.9-1.3-72.8,13.9c-48.8,33.7-8.4,67.8,31.2,66.4c12.4,0.3,21.9-2.4,33.6-6.3c1.7-0.6,8.7-4.7,10.4-2.5
			c0.8,1,5.4-1,5.9-2.3c4.3-7,9.4-4.5,15.9-9.3C746,218.1,765.1,206.7,754.6,186.5z M726.1,206c-5.6,4.6-13.8,8.3-20.3,11.4
			c-4.3,0.2-12.4-7.3-15.5-10.3c9.3-3.6,18.3-10.4,14.7-18.2c-1.3,1.1-2.4,0.5-3-0.7l-1.8,0.5c-26,23.4-5.9,7.6-30.6,4.9
			c-0.4-0.1-0.8,0.3-0.8,0.7c0,0.9-0.3,1.5,0.2,2.2c12.7,13.7,7.2,4-5,15.4c-3,4-7,4-6.8,6.1c5.9,5.3,14.6-3.3,20.9-5.4
			c4.5-2.4,13,6.3,16.3,9c-10.3,4-40.1,11.5-51.6,1.8c-31.1-26.3,42-52.2,71.4-43c1.9-2.9,2.6-2.4,4.3-2.4
			C725.8,178.1,732.7,201.6,726.1,206z"/>
	</g>
	<path class="st1" d="M212.8,179.9c10.7-7.1,23.4-9.3,34.6-15.7c17.6-10.1,36.8-17.3,55.2-25.8c8.3-3.4,20.7-13.8,4.8-16.8
		c-10.6,2.4-23.5,0.8-32.9,6c-39.1,12.3-77.4,35.1-114.2,52.3c0-24.9,28.3-55.7,15.7-66.7c-4.4-1.4-6.5-2.5-10.8-0.8
		c-1,0.4-1.9,1.4-3.1,0c-1.6-2.7-6.5-0.4-8.2,2.8c-11.1,17.6-16.3,26.2-22.6,44.7c-12.1,34.5-21.7,71.9-15.6,108.5
		c0.4,4.5,5.4,6.3,10.3,5.9c4.1-0.3,6.2-1.2,7.8-3.4c2.1-3.6,4.3,0,5.6-3c7.1-20.4,5.2-52.6,17.9-59.2c12.4-3.9,9.2-9.7,20.4,1.2
		c15.7,12.9,33.8,22.5,50.1,34.6c2.9,2.5,6.1,2.1,7.2,0c2.7-4.9-2.7-9.2-5.5-13.2c-12.7-14.6-28.8-25.1-44.3-37
		C194.3,189.2,203.5,184.6,212.8,179.9z"/>
</g>
</svg>
