<svg xmlns="http://www.w3.org/2000/svg" width="472" height="60" viewBox="0 0 472 60" fill="none"><mask id="path-1-outside-1_272_238" maskUnits="userSpaceOnUse" x="-0.640137" y="-0.115967" width="473" height="60" fill="black"><rect fill="white" x="-0.640137" y="-0.115967" width="473" height="60"></rect><path d="M30.7341 30.126C34.0274 30.126 36.6874 30.8227 38.7141 32.216C40.7661 33.584 41.7921 35.674 41.7921 38.486C41.7921 41.3487 40.7788 43.464 38.7521 44.832C36.7254 46.2 34.0528 46.884 30.7341 46.884H15.3061H12.0001V20.284H19.9041H38.9041V26.364H19.9041V30.126H30.7341ZM30.1261 40.804C32.6341 40.804 33.8881 40.0187 33.8881 38.448C33.8881 36.9027 32.6341 36.13 30.1261 36.13H19.9041V40.804H30.1261ZM63.5438 29.328C66.8625 29.328 69.5352 30.0374 71.5618 31.456C73.5885 32.8747 74.6018 35.104 74.6018 38.144C74.6018 41.1587 73.5885 43.3754 71.5618 44.794C69.5605 46.1874 66.8878 46.884 63.5438 46.884H49.4838H46.1778V20.284H54.0818V29.328H63.5438ZM78.5158 20.284H86.4198V46.884H78.5158V20.284ZM63.1638 40.424C65.5198 40.424 66.6978 39.6134 66.6978 37.992C66.6978 36.3707 65.5198 35.56 63.1638 35.56H54.0818V40.424H63.1638ZM116.765 37.08L124.441 37.46C123.909 40.7027 122.301 43.16 119.615 44.832C116.955 46.504 113.307 47.34 108.671 47.34C103.149 47.34 98.8672 46.1367 95.8272 43.73C92.7872 41.298 91.2672 37.916 91.2672 33.584C91.2672 29.252 92.7492 25.8827 95.7132 23.476C98.6772 21.044 102.832 19.828 108.177 19.828C112.56 19.828 116.119 20.6767 118.855 22.374C121.591 24.046 123.263 26.326 123.871 29.214L116.271 29.708C115.841 28.6694 114.891 27.8334 113.421 27.2C111.952 26.5667 110.204 26.25 108.177 26.25C105.289 26.25 103.06 26.9214 101.489 28.264C99.9439 29.5814 99.1712 31.3547 99.1712 33.584C99.1712 35.8387 99.9819 37.6247 101.603 38.942C103.25 40.2594 105.606 40.918 108.671 40.918C110.875 40.918 112.661 40.5634 114.029 39.854C115.423 39.1447 116.335 38.22 116.765 37.08ZM126.132 26.744V20.284H156.456V26.744H145.246V46.884H137.342V26.744H126.132ZM178.979 20.284C182.171 20.284 184.806 21.0314 186.883 22.526C188.986 23.9954 190.037 26.2374 190.037 29.252C190.037 32.2667 189.036 34.458 187.035 35.826C185.034 37.1687 182.348 37.84 178.979 37.84H168.453V46.884H160.549V20.284H168.453H178.979ZM178.599 31.76C180.955 31.76 182.133 30.924 182.133 29.252C182.133 27.58 180.955 26.744 178.599 26.744H168.453V31.76H178.599ZM211.981 29.328C215.3 29.328 217.973 30.0374 219.999 31.456C222.026 32.8747 223.039 35.104 223.039 38.144C223.039 41.1587 222.026 43.3754 219.999 44.794C217.998 46.1874 215.325 46.884 211.981 46.884H197.921H194.615V20.284H202.519V29.328H211.981ZM226.953 20.284H234.857V46.884H226.953V20.284ZM211.601 40.424C213.957 40.424 215.135 39.6134 215.135 37.992C215.135 36.3707 213.957 35.56 211.601 35.56H202.519V40.424H211.601ZM266.077 12C265.899 16.18 262.973 18.27 257.299 18.27C251.624 18.27 248.698 16.18 248.521 12H253.537C253.714 13.4947 254.968 14.242 257.299 14.242C259.604 14.242 260.845 13.4947 261.023 12H266.077ZM261.175 20.284H273.335V46.884H265.621V25.87L253.385 46.884H241.225V20.284H248.939V41.298L261.175 20.284ZM309.345 33.09C315.906 33.622 319.187 35.8387 319.187 39.74C319.187 41.0827 318.807 42.2607 318.047 43.274C317.287 44.262 316.21 45.0474 314.817 45.63C313.449 46.2127 311.878 46.6434 310.105 46.922C308.357 47.2007 306.406 47.34 304.253 47.34C299.516 47.34 295.842 46.6307 293.233 45.212C290.649 43.768 289.129 41.4627 288.673 38.296L296.273 38.03C296.856 40.1834 299.516 41.26 304.253 41.26C306.533 41.26 308.268 41.0194 309.459 40.538C310.675 40.0567 311.283 39.4487 311.283 38.714C311.283 38.0047 310.688 37.422 309.497 36.966C308.306 36.4847 306.495 36.244 304.063 36.244H300.187V30.468H303.455C305.684 30.468 307.356 30.2654 308.471 29.86C309.586 29.4294 310.143 28.872 310.143 28.188C310.143 27.504 309.611 26.9594 308.547 26.554C307.483 26.1234 306.039 25.908 304.215 25.908C300.086 25.908 297.717 26.8707 297.109 28.796L289.547 28.378C290.003 25.5914 291.51 23.476 294.069 22.032C296.653 20.5627 300.035 19.828 304.215 19.828C306.824 19.828 309.104 20.0307 311.055 20.436C313.031 20.816 314.69 21.5507 316.033 22.64C317.376 23.704 318.047 25.0974 318.047 26.82C318.047 30.4427 315.146 32.5327 309.345 33.09ZM348.195 46.884L346.029 41.754H330.677L328.511 46.884H320.721L332.387 20.284H344.547L356.251 46.884H348.195ZM333.223 35.826H343.521L338.353 23.666L333.223 35.826ZM391.746 46.884H381.752L371.644 36.586H367.73V46.884H359.826V20.284H367.73V30.544H371.492L381.106 20.284H390.568L377.762 33.052L391.746 46.884ZM420.039 46.884L417.873 41.754H402.521L400.355 46.884H392.565L404.231 20.284H416.391L428.095 46.884H420.039ZM405.067 35.826H415.365L410.197 23.666L405.067 35.826ZM449.693 33.09C456.254 33.622 459.535 35.8387 459.535 39.74C459.535 41.0827 459.155 42.2607 458.395 43.274C457.635 44.262 456.558 45.0474 455.165 45.63C453.797 46.2127 452.226 46.6434 450.453 46.922C448.705 47.2007 446.754 47.34 444.601 47.34C439.863 47.34 436.19 46.6307 433.581 45.212C430.997 43.768 429.477 41.4627 429.021 38.296L436.621 38.03C437.203 40.1834 439.863 41.26 444.601 41.26C446.881 41.26 448.616 41.0194 449.807 40.538C451.023 40.0567 451.631 39.4487 451.631 38.714C451.631 38.0047 451.035 37.422 449.845 36.966C448.654 36.4847 446.843 36.244 444.411 36.244H440.535V30.468H443.803C446.032 30.468 447.704 30.2654 448.819 29.86C449.933 29.4294 450.491 28.872 450.491 28.188C450.491 27.504 449.959 26.9594 448.895 26.554C447.831 26.1234 446.387 25.908 444.563 25.908C440.433 25.908 438.065 26.8707 437.457 28.796L429.895 28.378C430.351 25.5914 431.858 23.476 434.417 22.032C437.001 20.5627 440.383 19.828 444.563 19.828C447.172 19.828 449.452 20.0307 451.403 20.436C453.379 20.816 455.038 21.5507 456.381 22.64C457.723 23.704 458.395 25.0974 458.395 26.82C458.395 30.4427 455.494 32.5327 449.693 33.09Z"></path></mask><path d="M30.7341 30.126C34.0274 30.126 36.6874 30.8227 38.7141 32.216C40.7661 33.584 41.7921 35.674 41.7921 38.486C41.7921 41.3487 40.7788 43.464 38.7521 44.832C36.7254 46.2 34.0528 46.884 30.7341 46.884H15.3061H12.0001V20.284H19.9041H38.9041V26.364H19.9041V30.126H30.7341ZM30.1261 40.804C32.6341 40.804 33.8881 40.0187 33.8881 38.448C33.8881 36.9027 32.6341 36.13 30.1261 36.13H19.9041V40.804H30.1261ZM63.5438 29.328C66.8625 29.328 69.5352 30.0374 71.5618 31.456C73.5885 32.8747 74.6018 35.104 74.6018 38.144C74.6018 41.1587 73.5885 43.3754 71.5618 44.794C69.5605 46.1874 66.8878 46.884 63.5438 46.884H49.4838H46.1778V20.284H54.0818V29.328H63.5438ZM78.5158 20.284H86.4198V46.884H78.5158V20.284ZM63.1638 40.424C65.5198 40.424 66.6978 39.6134 66.6978 37.992C66.6978 36.3707 65.5198 35.56 63.1638 35.56H54.0818V40.424H63.1638ZM116.765 37.08L124.441 37.46C123.909 40.7027 122.301 43.16 119.615 44.832C116.955 46.504 113.307 47.34 108.671 47.34C103.149 47.34 98.8672 46.1367 95.8272 43.73C92.7872 41.298 91.2672 37.916 91.2672 33.584C91.2672 29.252 92.7492 25.8827 95.7132 23.476C98.6772 21.044 102.832 19.828 108.177 19.828C112.56 19.828 116.119 20.6767 118.855 22.374C121.591 24.046 123.263 26.326 123.871 29.214L116.271 29.708C115.841 28.6694 114.891 27.8334 113.421 27.2C111.952 26.5667 110.204 26.25 108.177 26.25C105.289 26.25 103.06 26.9214 101.489 28.264C99.9439 29.5814 99.1712 31.3547 99.1712 33.584C99.1712 35.8387 99.9819 37.6247 101.603 38.942C103.25 40.2594 105.606 40.918 108.671 40.918C110.875 40.918 112.661 40.5634 114.029 39.854C115.423 39.1447 116.335 38.22 116.765 37.08ZM126.132 26.744V20.284H156.456V26.744H145.246V46.884H137.342V26.744H126.132ZM178.979 20.284C182.171 20.284 184.806 21.0314 186.883 22.526C188.986 23.9954 190.037 26.2374 190.037 29.252C190.037 32.2667 189.036 34.458 187.035 35.826C185.034 37.1687 182.348 37.84 178.979 37.84H168.453V46.884H160.549V20.284H168.453H178.979ZM178.599 31.76C180.955 31.76 182.133 30.924 182.133 29.252C182.133 27.58 180.955 26.744 178.599 26.744H168.453V31.76H178.599ZM211.981 29.328C215.3 29.328 217.973 30.0374 219.999 31.456C222.026 32.8747 223.039 35.104 223.039 38.144C223.039 41.1587 222.026 43.3754 219.999 44.794C217.998 46.1874 215.325 46.884 211.981 46.884H197.921H194.615V20.284H202.519V29.328H211.981ZM226.953 20.284H234.857V46.884H226.953V20.284ZM211.601 40.424C213.957 40.424 215.135 39.6134 215.135 37.992C215.135 36.3707 213.957 35.56 211.601 35.56H202.519V40.424H211.601ZM266.077 12C265.899 16.18 262.973 18.27 257.299 18.27C251.624 18.27 248.698 16.18 248.521 12H253.537C253.714 13.4947 254.968 14.242 257.299 14.242C259.604 14.242 260.845 13.4947 261.023 12H266.077ZM261.175 20.284H273.335V46.884H265.621V25.87L253.385 46.884H241.225V20.284H248.939V41.298L261.175 20.284ZM309.345 33.09C315.906 33.622 319.187 35.8387 319.187 39.74C319.187 41.0827 318.807 42.2607 318.047 43.274C317.287 44.262 316.21 45.0474 314.817 45.63C313.449 46.2127 311.878 46.6434 310.105 46.922C308.357 47.2007 306.406 47.34 304.253 47.34C299.516 47.34 295.842 46.6307 293.233 45.212C290.649 43.768 289.129 41.4627 288.673 38.296L296.273 38.03C296.856 40.1834 299.516 41.26 304.253 41.26C306.533 41.26 308.268 41.0194 309.459 40.538C310.675 40.0567 311.283 39.4487 311.283 38.714C311.283 38.0047 310.688 37.422 309.497 36.966C308.306 36.4847 306.495 36.244 304.063 36.244H300.187V30.468H303.455C305.684 30.468 307.356 30.2654 308.471 29.86C309.586 29.4294 310.143 28.872 310.143 28.188C310.143 27.504 309.611 26.9594 308.547 26.554C307.483 26.1234 306.039 25.908 304.215 25.908C300.086 25.908 297.717 26.8707 297.109 28.796L289.547 28.378C290.003 25.5914 291.51 23.476 294.069 22.032C296.653 20.5627 300.035 19.828 304.215 19.828C306.824 19.828 309.104 20.0307 311.055 20.436C313.031 20.816 314.69 21.5507 316.033 22.64C317.376 23.704 318.047 25.0974 318.047 26.82C318.047 30.4427 315.146 32.5327 309.345 33.09ZM348.195 46.884L346.029 41.754H330.677L328.511 46.884H320.721L332.387 20.284H344.547L356.251 46.884H348.195ZM333.223 35.826H343.521L338.353 23.666L333.223 35.826ZM391.746 46.884H381.752L371.644 36.586H367.73V46.884H359.826V20.284H367.73V30.544H371.492L381.106 20.284H390.568L377.762 33.052L391.746 46.884ZM420.039 46.884L417.873 41.754H402.521L400.355 46.884H392.565L404.231 20.284H416.391L428.095 46.884H420.039ZM405.067 35.826H415.365L410.197 23.666L405.067 35.826ZM449.693 33.09C456.254 33.622 459.535 35.8387 459.535 39.74C459.535 41.0827 459.155 42.2607 458.395 43.274C457.635 44.262 456.558 45.0474 455.165 45.63C453.797 46.2127 452.226 46.6434 450.453 46.922C448.705 47.2007 446.754 47.34 444.601 47.34C439.863 47.34 436.19 46.6307 433.581 45.212C430.997 43.768 429.477 41.4627 429.021 38.296L436.621 38.03C437.203 40.1834 439.863 41.26 444.601 41.26C446.881 41.26 448.616 41.0194 449.807 40.538C451.023 40.0567 451.631 39.4487 451.631 38.714C451.631 38.0047 451.035 37.422 449.845 36.966C448.654 36.4847 446.843 36.244 444.411 36.244H440.535V30.468H443.803C446.032 30.468 447.704 30.2654 448.819 29.86C449.933 29.4294 450.491 28.872 450.491 28.188C450.491 27.504 449.959 26.9594 448.895 26.554C447.831 26.1234 446.387 25.908 444.563 25.908C440.433 25.908 438.065 26.8707 437.457 28.796L429.895 28.378C430.351 25.5914 431.858 23.476 434.417 22.032C437.001 20.5627 440.383 19.828 444.563 19.828C447.172 19.828 449.452 20.0307 451.403 20.436C453.379 20.816 455.038 21.5507 456.381 22.64C457.723 23.704 458.395 25.0974 458.395 26.82C458.395 30.4427 455.494 32.5327 449.693 33.09Z" fill="white"></path><path d="M38.7141 32.216L31.9158 42.1045C31.9628 42.1369 32.0102 42.1689 32.0577 42.2006L38.7141 32.216ZM38.7521 44.832L45.4658 54.7782L38.7521 44.832ZM12.0001 46.884H0.000106812C0.000106812 53.5115 5.37269 58.884 12.0001 58.884V46.884ZM12.0001 20.284V8.28403C5.37269 8.28403 0.000106812 13.6566 0.000106812 20.284L12.0001 20.284ZM38.9041 20.284H50.9041C50.9041 13.6566 45.5315 8.28403 38.9041 8.28403V20.284ZM38.9041 26.364V38.364C45.5315 38.364 50.9041 32.9914 50.9041 26.364H38.9041ZM19.9041 26.364V14.364C13.2767 14.364 7.90411 19.7366 7.90411 26.364H19.9041ZM19.9041 30.126H7.90411C7.90411 36.7535 13.2767 42.126 19.9041 42.126V30.126ZM19.9041 36.13V24.13C13.2767 24.13 7.90411 29.5026 7.90411 36.13H19.9041ZM19.9041 40.804H7.90411C7.90411 47.4314 13.2767 52.804 19.9041 52.804V40.804ZM30.7341 30.126V42.126C32.4081 42.126 32.4654 42.4824 31.9158 42.1045L38.7141 32.216L45.5125 22.3275C40.9094 19.163 35.6468 18.126 30.7341 18.126V30.126ZM38.7141 32.216L32.0577 42.2006C31.4298 41.7821 30.7268 41.0676 30.2506 40.0976C29.805 39.1899 29.7921 38.5376 29.7921 38.486H41.7921H53.7921C53.7921 32.3185 51.2727 26.1662 45.3705 22.2314L38.7141 32.216ZM41.7921 38.486H29.7921C29.7921 38.5113 29.7893 37.913 30.2098 37.0352C30.665 36.085 31.3616 35.3427 32.0384 34.8858L38.7521 44.832L45.4658 54.7782C51.4004 50.7724 53.7921 44.5499 53.7921 38.486H41.7921ZM38.7521 44.832L32.0384 34.8858C32.5885 34.5146 32.4937 34.884 30.7341 34.884V46.884V58.884C35.6118 58.884 40.8624 57.8855 45.4658 54.7782L38.7521 44.832ZM30.7341 46.884V34.884H15.3061V46.884V58.884H30.7341V46.884ZM15.3061 46.884V34.884H12.0001V46.884V58.884H15.3061V46.884ZM12.0001 46.884H24.0001V20.284H12.0001H0.000106812V46.884H12.0001ZM12.0001 20.284V32.284H19.9041V20.284V8.28403H12.0001V20.284ZM19.9041 20.284V32.284H38.9041V20.284V8.28403H19.9041V20.284ZM38.9041 20.284H26.9041V26.364H38.9041H50.9041V20.284H38.9041ZM38.9041 26.364V14.364H19.9041V26.364V38.364H38.9041V26.364ZM19.9041 26.364H7.90411V30.126H19.9041H31.9041V26.364H19.9041ZM19.9041 30.126V42.126H30.7341V30.126V18.126H19.9041V30.126ZM30.1261 40.804V52.804C32.2444 52.804 35.8724 52.5424 39.3168 50.3852C43.6994 47.6406 45.8881 43.0603 45.8881 38.448H33.8881H21.8881C21.8881 37.2225 22.1421 35.5651 23.06 33.8406C23.9947 32.0845 25.31 30.8392 26.5784 30.0448C28.7688 28.673 30.5158 28.804 30.1261 28.804V40.804ZM33.8881 38.448H45.8881C45.8881 33.759 43.6217 29.1914 39.2425 26.4932C35.8178 24.383 32.2226 24.13 30.1261 24.13V36.13V48.13C30.5376 48.13 28.8235 48.2634 26.6527 46.9259C25.3916 46.1488 24.0562 44.914 23.0985 43.1437C22.1548 41.3994 21.8881 39.7102 21.8881 38.448H33.8881ZM30.1261 36.13V24.13H19.9041V36.13V48.13H30.1261V36.13ZM19.9041 36.13H7.90411V40.804H19.9041H31.9041V36.13H19.9041ZM19.9041 40.804V52.804H30.1261V40.804V28.804H19.9041V40.804ZM71.5618 44.794L78.4183 54.6424C78.4267 54.6365 78.435 54.6307 78.4434 54.6248L71.5618 44.794ZM46.1778 46.884H34.1778C34.1778 53.5115 39.5504 58.884 46.1778 58.884V46.884ZM46.1778 20.284V8.28403C39.5504 8.28403 34.1778 13.6566 34.1778 20.284L46.1778 20.284ZM54.0818 20.284H66.0818C66.0818 13.6566 60.7093 8.28403 54.0818 8.28403V20.284ZM54.0818 29.328H42.0818C42.0818 35.9555 47.4544 41.328 54.0818 41.328V29.328ZM78.5158 20.284V8.28403C71.8884 8.28403 66.5158 13.6566 66.5158 20.284L78.5158 20.284ZM86.4198 20.284H98.4198C98.4198 13.6566 93.0473 8.28403 86.4198 8.28403V20.284ZM86.4198 46.884V58.884C93.0473 58.884 98.4198 53.5115 98.4198 46.884H86.4198ZM78.5158 46.884H66.5158C66.5158 53.5115 71.8884 58.884 78.5158 58.884V46.884ZM54.0818 35.56V23.56C47.4544 23.56 42.0818 28.9326 42.0818 35.56H54.0818ZM54.0818 40.424H42.0818C42.0818 47.0514 47.4544 52.424 54.0818 52.424V40.424ZM63.5438 29.328V41.328C65.227 41.328 65.2558 41.6897 64.6803 41.2868L71.5618 31.456L78.4434 21.6252C73.8146 18.3851 68.498 17.328 63.5438 17.328V29.328ZM71.5618 31.456L64.6803 41.2868C63.9541 40.7785 63.3085 40.018 62.9174 39.1577C62.5658 38.384 62.6018 37.9347 62.6018 38.144H74.6018H86.6018C86.6018 32.2006 84.4264 25.8133 78.4434 21.6252L71.5618 31.456ZM74.6018 38.144H62.6018C62.6018 38.3271 62.5704 37.8611 62.9281 37.0784C63.3242 36.2121 63.9699 35.4605 64.6803 34.9633L71.5618 44.794L78.4434 54.6248C84.3978 50.4567 86.6018 44.1048 86.6018 38.144H74.6018ZM71.5618 44.794L64.7054 34.9457C65.0106 34.7332 65.1752 34.7116 65.0295 34.7495C64.8631 34.7929 64.401 34.884 63.5438 34.884V46.884V58.884C68.4521 58.884 73.7823 57.8699 78.4183 54.6424L71.5618 44.794ZM63.5438 46.884V34.884H49.4838V46.884V58.884H63.5438V46.884ZM49.4838 46.884V34.884H46.1778V46.884V58.884H49.4838V46.884ZM46.1778 46.884H58.1778V20.284H46.1778H34.1778V46.884H46.1778ZM46.1778 20.284V32.284H54.0818V20.284V8.28403H46.1778V20.284ZM54.0818 20.284H42.0818V29.328H54.0818H66.0818V20.284H54.0818ZM54.0818 29.328V41.328H63.5438V29.328V17.328H54.0818V29.328ZM78.5158 20.284V32.284H86.4198V20.284V8.28403H78.5158V20.284ZM86.4198 20.284H74.4198V46.884H86.4198H98.4198V20.284H86.4198ZM86.4198 46.884V34.884H78.5158V46.884V58.884H86.4198V46.884ZM78.5158 46.884H90.5158V20.284H78.5158H66.5158V46.884H78.5158ZM63.1638 40.424V52.424C65.3459 52.424 69.1083 52.1161 72.6172 49.7014C76.9351 46.73 78.6978 42.138 78.6978 37.992H66.6978H54.6978C54.6978 36.9432 54.8921 35.4457 55.6772 33.8249C56.4898 32.1473 57.6965 30.8355 59.0115 29.9306C60.2483 29.0795 61.3724 28.726 62.027 28.5758C62.6817 28.4256 63.1029 28.424 63.1638 28.424V40.424ZM66.6978 37.992H78.6978C78.6978 33.846 76.9351 29.2541 72.6172 26.2826C69.1083 23.8679 65.3459 23.56 63.1638 23.56V35.56V47.56C63.1029 47.56 62.6817 47.5584 62.027 47.4082C61.3724 47.2581 60.2483 46.9046 59.0115 46.0534C57.6966 45.1485 56.4898 43.8368 55.6772 42.1592C54.8921 40.5384 54.6978 39.0408 54.6978 37.992H66.6978ZM63.1638 35.56V23.56H54.0818V35.56V47.56H63.1638V35.56ZM54.0818 35.56H42.0818V40.424H54.0818H66.0818V35.56H54.0818ZM54.0818 40.424V52.424H63.1638V40.424V28.424H54.0818V40.424ZM116.765 37.08L117.359 25.0947C112.156 24.8371 107.381 27.966 105.54 32.8392L116.765 37.08ZM124.441 37.46L136.283 39.4028C136.836 36.0294 135.925 32.58 133.777 29.9205C131.629 27.261 128.449 25.6437 125.035 25.4747L124.441 37.46ZM119.615 44.832L113.273 34.6453C113.258 34.6543 113.244 34.6633 113.229 34.6724L119.615 44.832ZM95.8272 43.73L88.3309 53.1005C88.3468 53.1132 88.3628 53.1259 88.3788 53.1386L95.8272 43.73ZM95.7132 23.476L103.277 32.7918C103.293 32.7789 103.309 32.7659 103.325 32.7529L95.7132 23.476ZM118.855 22.374L112.529 32.5712C112.552 32.5853 112.575 32.5994 112.598 32.6134L118.855 22.374ZM123.871 29.214L124.65 41.1888C128.122 40.963 131.326 39.2408 133.43 36.4686C135.534 33.6964 136.331 30.1474 135.614 26.7419L123.871 29.214ZM116.271 29.708L105.186 34.3042C107.154 39.0494 111.923 42.016 117.05 41.6828L116.271 29.708ZM113.421 27.2L108.671 38.2199V38.2199L113.421 27.2ZM101.489 28.264L109.274 37.3962C109.278 37.3926 109.282 37.3891 109.287 37.3855L101.489 28.264ZM101.603 38.942L94.0361 48.2554C94.0596 48.2745 94.0832 48.2935 94.1069 48.3125L101.603 38.942ZM114.029 39.854L108.585 29.1601C108.558 29.1736 108.532 29.1872 108.505 29.201L114.029 39.854ZM116.765 37.08L116.172 49.0654L123.848 49.4454L124.441 37.46L125.035 25.4747L117.359 25.0947L116.765 37.08ZM124.441 37.46L112.6 35.5173C112.572 35.6834 112.58 35.4923 112.796 35.1625C112.895 35.0113 113.005 34.8816 113.11 34.7813C113.212 34.683 113.277 34.6422 113.273 34.6453L119.615 44.832L125.958 55.0188C131.706 51.44 135.216 45.9064 136.283 39.4028L124.441 37.46ZM119.615 44.832L113.229 34.6724C113.187 34.6991 112.056 35.34 108.671 35.34V47.34V59.34C114.558 59.34 120.724 58.3089 126.001 54.9917L119.615 44.832ZM108.671 47.34V35.34C104.733 35.34 103.459 34.4666 103.276 34.3215L95.8272 43.73L88.3788 53.1386C94.2755 57.8068 101.564 59.34 108.671 59.34V47.34ZM95.8272 43.73L103.324 34.3596C103.247 34.2984 103.244 34.2833 103.274 34.3222C103.307 34.3631 103.336 34.4124 103.353 34.4503C103.395 34.5448 103.267 34.337 103.267 33.584H91.2672H79.2672C79.2672 41.0942 82.0984 48.1145 88.3309 53.1005L95.8272 43.73ZM91.2672 33.584H103.267C103.267 32.7909 103.4 32.5563 103.363 32.6395C103.348 32.6741 103.318 32.7286 103.277 32.7811C103.238 32.8321 103.226 32.8338 103.277 32.7918L95.7132 23.476L88.1491 14.1602C81.9789 19.1702 79.2672 26.1858 79.2672 33.584H91.2672ZM95.7132 23.476L103.325 32.7529C103.434 32.6633 104.526 31.828 108.177 31.828V19.828V7.82803C101.137 7.82803 93.9202 9.42473 88.1014 14.1991L95.7132 23.476ZM108.177 19.828V31.828C111.104 31.828 112.261 32.4051 112.529 32.5712L118.855 22.374L125.181 12.1769C119.977 8.94833 114.015 7.82803 108.177 7.82803V19.828ZM118.855 22.374L112.598 32.6134C112.81 32.7431 112.688 32.7126 112.484 32.4344C112.389 32.3037 112.303 32.1565 112.237 32.0057C112.171 31.8564 112.14 31.7425 112.129 31.6862L123.871 29.214L135.614 26.7419C134.262 20.3214 130.397 15.3642 125.113 12.1346L118.855 22.374ZM123.871 29.214L123.093 17.2393L115.493 17.7333L116.271 29.708L117.05 41.6828L124.65 41.1888L123.871 29.214ZM116.271 29.708L127.356 25.1119C125.303 20.161 121.29 17.5243 118.171 16.1801L113.421 27.2L108.671 38.2199C108.492 38.1424 106.378 37.1778 105.186 34.3042L116.271 29.708ZM113.421 27.2L118.171 16.1801C114.859 14.7525 111.418 14.25 108.177 14.25V26.25V38.25C108.571 38.25 108.791 38.2812 108.869 38.2953C108.943 38.3087 108.86 38.3014 108.671 38.2199L113.421 27.2ZM108.177 26.25V14.25C103.559 14.25 98.1624 15.321 93.6918 19.1426L101.489 28.264L109.287 37.3855C108.655 37.9254 108.077 38.1602 107.799 38.2438C107.56 38.3159 107.636 38.25 108.177 38.25V26.25ZM101.489 28.264L93.7044 19.1318C89.2026 22.9695 87.1712 28.2284 87.1712 33.584H99.1712H111.171C111.171 33.869 111.117 34.5365 110.752 35.3754C110.373 36.244 109.818 36.9322 109.274 37.3962L101.489 28.264ZM99.1712 33.584H87.1712C87.1712 39.1246 89.3654 44.4605 94.0361 48.2554L101.603 38.942L109.17 29.6287C109.705 30.0634 110.294 30.7467 110.706 31.6547C111.106 32.5361 111.171 33.2554 111.171 33.584H99.1712ZM101.603 38.942L94.1069 48.3125C98.659 51.9542 104.08 52.918 108.671 52.918V40.918V28.918C107.968 28.918 107.736 28.8392 107.836 28.8672C107.966 28.9035 108.477 29.0737 109.1 29.5716L101.603 38.942ZM108.671 40.918V52.918C112.025 52.918 115.903 52.3995 119.553 50.5071L114.029 39.854L108.505 29.201C108.988 28.9506 109.305 28.8861 109.326 28.8819C109.34 28.8791 109.296 28.8887 109.183 28.8987C109.071 28.9087 108.902 28.918 108.671 28.918V40.918ZM114.029 39.854L119.473 50.548C122.752 48.8789 126.231 45.9785 127.991 41.3208L116.765 37.08L105.54 32.8392C106.438 30.4616 108.093 29.4105 108.585 29.1601L114.029 39.854ZM126.132 26.744H114.132C114.132 33.3714 119.505 38.744 126.132 38.744V26.744ZM126.132 20.284V8.28403C119.505 8.28403 114.132 13.6566 114.132 20.284L126.132 20.284ZM156.456 20.284H168.456C168.456 13.6566 163.084 8.28403 156.456 8.28403V20.284ZM156.456 26.744V38.744C163.084 38.744 168.456 33.3714 168.456 26.744H156.456ZM145.246 26.744V14.744C138.619 14.744 133.246 20.1166 133.246 26.744H145.246ZM145.246 46.884V58.884C151.874 58.884 157.246 53.5115 157.246 46.884H145.246ZM137.342 46.884H125.342C125.342 53.5115 130.715 58.884 137.342 58.884V46.884ZM137.342 26.744H149.342C149.342 20.1166 143.97 14.744 137.342 14.744V26.744ZM126.132 26.744H138.132V20.284H126.132H114.132V26.744H126.132ZM126.132 20.284V32.284H156.456V20.284V8.28403H126.132V20.284ZM156.456 20.284H144.456V26.744H156.456H168.456V20.284H156.456ZM156.456 26.744V14.744H145.246V26.744V38.744H156.456V26.744ZM145.246 26.744H133.246V46.884H145.246H157.246V26.744H145.246ZM145.246 46.884V34.884H137.342V46.884V58.884H145.246V46.884ZM137.342 46.884H149.342V26.744H137.342H125.342V46.884H137.342ZM137.342 26.744V14.744H126.132V26.744V38.744H137.342V26.744ZM186.883 22.526L179.874 32.2667C179.919 32.2989 179.964 32.3308 180.009 32.3624L186.883 22.526ZM187.035 35.826L193.72 45.7912C193.749 45.7718 193.778 45.7524 193.807 45.7328L187.035 35.826ZM168.453 37.84V25.84C161.826 25.84 156.453 31.2126 156.453 37.84H168.453ZM168.453 46.884V58.884C175.08 58.884 180.453 53.5115 180.453 46.884H168.453ZM160.549 46.884H148.549C148.549 53.5115 153.922 58.884 160.549 58.884V46.884ZM160.549 20.284V8.28403C153.922 8.28403 148.549 13.6566 148.549 20.284L160.549 20.284ZM168.453 26.744V14.744C161.826 14.744 156.453 20.1166 156.453 26.744H168.453ZM168.453 31.76H156.453C156.453 38.3874 161.826 43.76 168.453 43.76V31.76ZM178.979 20.284V32.284C179.646 32.284 179.981 32.3627 180.074 32.3891C180.146 32.4095 180.043 32.3882 179.874 32.2667L186.883 22.526L193.891 12.7854C189.315 9.49279 184.057 8.28403 178.979 8.28403V20.284ZM186.883 22.526L180.009 32.3624C179.403 31.9384 178.783 31.2561 178.384 30.4043C178.017 29.6226 178.037 29.1301 178.037 29.252H190.037H202.037C202.037 23.1055 199.667 16.82 193.757 12.6897L186.883 22.526ZM190.037 29.252H178.037C178.037 29.4591 178.001 28.9824 178.371 28.1719C178.784 27.267 179.472 26.4599 180.263 25.9193L187.035 35.826L193.807 45.7328C199.888 41.5761 202.037 35.1387 202.037 29.252H190.037ZM187.035 35.826L180.349 25.8609C180.658 25.6538 180.803 25.6464 180.61 25.6948C180.398 25.7477 179.886 25.84 178.979 25.84V37.84V49.84C183.815 49.84 189.099 48.8915 193.72 45.7912L187.035 35.826ZM178.979 37.84V25.84H168.453V37.84V49.84H178.979V37.84ZM168.453 37.84H156.453V46.884H168.453H180.453V37.84H168.453ZM168.453 46.884V34.884H160.549V46.884V58.884H168.453V46.884ZM160.549 46.884H172.549V20.284H160.549H148.549V46.884H160.549ZM160.549 20.284V32.284H168.453V20.284V8.28403H160.549V20.284ZM168.453 20.284V32.284H178.979V20.284V8.28403H168.453V20.284ZM178.599 31.76V43.76C180.832 43.76 184.657 43.4295 188.194 40.9191C192.488 37.8723 194.133 33.2731 194.133 29.252H182.133H170.133C170.133 28.2654 170.309 26.8261 171.051 25.2476C171.821 23.6067 172.986 22.2825 174.304 21.3469C175.548 20.4648 176.693 20.0886 177.383 19.9256C178.068 19.7635 178.517 19.76 178.599 19.76V31.76ZM182.133 29.252H194.133C194.133 25.231 192.488 20.6317 188.194 17.5849C184.657 15.0745 180.832 14.744 178.599 14.744V26.744V38.744C178.517 38.744 178.068 38.7405 177.383 38.5785C176.693 38.4155 175.548 38.0393 174.304 37.1571C172.986 36.2216 171.821 34.8973 171.051 33.2564C170.309 31.6779 170.133 30.2387 170.133 29.252H182.133ZM178.599 26.744V14.744H168.453V26.744V38.744H178.599V26.744ZM168.453 26.744H156.453V31.76H168.453H180.453V26.744H168.453ZM168.453 31.76V43.76H178.599V31.76V19.76H168.453V31.76ZM219.999 44.794L226.856 54.6424C226.864 54.6365 226.873 54.6307 226.881 54.6248L219.999 44.794ZM194.615 46.884H182.615C182.615 53.5115 187.988 58.884 194.615 58.884V46.884ZM194.615 20.284V8.28403C187.988 8.28403 182.615 13.6566 182.615 20.284L194.615 20.284ZM202.519 20.284H214.519C214.519 13.6566 209.147 8.28403 202.519 8.28403V20.284ZM202.519 29.328H190.519C190.519 35.9555 195.892 41.328 202.519 41.328V29.328ZM226.953 20.284V8.28403C220.326 8.28403 214.953 13.6566 214.953 20.284L226.953 20.284ZM234.857 20.284H246.857C246.857 13.6566 241.485 8.28403 234.857 8.28403V20.284ZM234.857 46.884V58.884C241.485 58.884 246.857 53.5115 246.857 46.884H234.857ZM226.953 46.884H214.953C214.953 53.5115 220.326 58.884 226.953 58.884V46.884ZM202.519 35.56V23.56C195.892 23.56 190.519 28.9326 190.519 35.56H202.519ZM202.519 40.424H190.519C190.519 47.0514 195.892 52.424 202.519 52.424V40.424ZM211.981 29.328V41.328C213.665 41.328 213.693 41.6897 213.118 41.2868L219.999 31.456L226.881 21.6252C222.252 18.3851 216.935 17.328 211.981 17.328V29.328ZM219.999 31.456L213.118 41.2868C212.392 40.7785 211.746 40.018 211.355 39.1577C211.003 38.384 211.039 37.9347 211.039 38.144H223.039H235.039C235.039 32.2006 232.864 25.8133 226.881 21.6252L219.999 31.456ZM223.039 38.144H211.039C211.039 38.3271 211.008 37.8611 211.366 37.0784C211.762 36.2121 212.407 35.4605 213.118 34.9633L219.999 44.794L226.881 54.6248C232.835 50.4567 235.039 44.1048 235.039 38.144H223.039ZM219.999 44.794L213.143 34.9457C213.448 34.7332 213.613 34.7116 213.467 34.7495C213.301 34.7929 212.838 34.884 211.981 34.884V46.884V58.884C216.89 58.884 222.22 57.8699 226.856 54.6424L219.999 44.794ZM211.981 46.884V34.884H197.921V46.884V58.884H211.981V46.884ZM197.921 46.884V34.884H194.615V46.884V58.884H197.921V46.884ZM194.615 46.884H206.615V20.284H194.615H182.615V46.884H194.615ZM194.615 20.284V32.284H202.519V20.284V8.28403H194.615V20.284ZM202.519 20.284H190.519V29.328H202.519H214.519V20.284H202.519ZM202.519 29.328V41.328H211.981V29.328V17.328H202.519V29.328ZM226.953 20.284V32.284H234.857V20.284V8.28403H226.953V20.284ZM234.857 20.284H222.857V46.884H234.857H246.857V20.284H234.857ZM234.857 46.884V34.884H226.953V46.884V58.884H234.857V46.884ZM226.953 46.884H238.953V20.284H226.953H214.953V46.884H226.953ZM211.601 40.424V52.424C213.783 52.424 217.546 52.1161 221.055 49.7014C225.373 46.73 227.135 42.138 227.135 37.992H215.135H203.135C203.135 36.9432 203.33 35.4457 204.115 33.8249C204.927 32.1473 206.134 30.8355 207.449 29.9306C208.686 29.0795 209.81 28.726 210.464 28.5758C211.119 28.4256 211.54 28.424 211.601 28.424V40.424ZM215.135 37.992H227.135C227.135 33.846 225.373 29.2541 221.055 26.2826C217.546 23.8679 213.783 23.56 211.601 23.56V35.56V47.56C211.54 47.56 211.119 47.5584 210.464 47.4082C209.81 47.2581 208.686 46.9046 207.449 46.0534C206.134 45.1485 204.927 43.8368 204.115 42.1592C203.33 40.5384 203.135 39.0408 203.135 37.992H215.135ZM211.601 35.56V23.56H202.519V35.56V47.56H211.601V35.56ZM202.519 35.56H190.519V40.424H202.519H214.519V35.56H202.519ZM202.519 40.424V52.424H211.601V40.424V28.424H202.519V40.424ZM266.077 12L278.066 12.5087C278.205 9.24076 277.003 6.05787 274.74 3.69653C272.477 1.33518 269.348 3.14713e-05 266.077 3.14713e-05V12ZM248.521 12V3.14713e-05C245.25 3.14713e-05 242.121 1.33518 239.857 3.69653C237.594 6.05787 236.393 9.24076 236.531 12.5087L248.521 12ZM253.537 12L265.453 10.5862C264.737 4.54804 259.617 3.14713e-05 253.537 3.14713e-05V12ZM261.023 12V3.14713e-05C254.942 3.14713e-05 249.823 4.54804 249.106 10.5862L261.023 12ZM261.175 20.284V8.28403C256.903 8.28403 252.954 10.5545 250.805 14.2457L261.175 20.284ZM273.335 20.284H285.335C285.335 13.6566 279.962 8.28403 273.335 8.28403V20.284ZM273.335 46.884V58.884C279.962 58.884 285.335 53.5115 285.335 46.884H273.335ZM265.621 46.884H253.621C253.621 53.5115 258.993 58.884 265.621 58.884V46.884ZM265.621 25.87H277.621C277.621 20.447 273.984 15.6979 268.748 14.2847C263.512 12.8714 257.979 15.1453 255.251 19.8317L265.621 25.87ZM253.385 46.884V58.884C257.656 58.884 261.605 56.6135 263.755 52.9223L253.385 46.884ZM241.225 46.884H229.225C229.225 53.5115 234.597 58.884 241.225 58.884V46.884ZM241.225 20.284V8.28403C234.597 8.28403 229.225 13.6566 229.225 20.284L241.225 20.284ZM248.939 20.284H260.939C260.939 13.6566 255.566 8.28403 248.939 8.28403V20.284ZM248.939 41.298H236.939C236.939 46.7211 240.576 51.4701 245.812 52.8834C251.047 54.2966 256.58 52.0228 259.309 47.3363L248.939 41.298ZM266.077 12L254.087 11.4914C254.1 11.1855 254.188 10.402 254.674 9.42009C255.186 8.38424 255.946 7.52909 256.774 6.93773C258.217 5.9074 258.974 6.27003 257.299 6.27003V18.27V30.27C261.298 30.27 266.356 29.5877 270.724 26.4673C275.709 22.9068 277.849 17.6111 278.066 12.5087L266.077 12ZM257.299 18.27V6.27003C255.623 6.27003 256.381 5.9074 257.823 6.93773C258.651 7.52909 259.411 8.38424 259.924 9.42009C260.41 10.402 260.497 11.1855 260.51 11.4914L248.521 12L236.531 12.5087C236.748 17.6111 238.889 22.9068 243.873 26.4673C248.242 29.5877 253.299 30.27 257.299 30.27V18.27ZM248.521 12V24H253.537V12V3.14713e-05H248.521V12ZM253.537 12L241.62 13.4138C242.132 17.7271 244.524 21.6402 248.467 23.9898C251.749 25.9456 255.139 26.242 257.299 26.242V14.242V2.24203C257.328 2.24203 257.661 2.24175 258.202 2.35449C258.739 2.4666 259.676 2.7309 260.754 3.37329C261.886 4.04837 263.064 5.07925 263.986 6.52362C264.901 7.95695 265.313 9.40211 265.453 10.5862L253.537 12ZM257.299 14.242V26.242C259.463 26.242 262.862 25.9407 266.148 23.9622C270.086 21.5915 272.433 17.6764 272.939 13.4138L261.023 12L249.106 10.5862C249.245 9.421 249.648 7.99023 250.55 6.56438C251.461 5.12499 252.63 4.08673 253.769 3.40089C254.854 2.74802 255.801 2.47628 256.354 2.35976C256.909 2.24283 257.256 2.24203 257.299 2.24203V14.242ZM261.023 12V24H266.077V12V3.14713e-05H261.023V12ZM261.175 20.284V32.284H273.335V20.284V8.28403H261.175V20.284ZM273.335 20.284H261.335V46.884H273.335H285.335V20.284H273.335ZM273.335 46.884V34.884H265.621V46.884V58.884H273.335V46.884ZM265.621 46.884H277.621V25.87H265.621H253.621V46.884H265.621ZM265.621 25.87L255.251 19.8317L243.015 40.8457L253.385 46.884L263.755 52.9223L275.991 31.9083L265.621 25.87ZM253.385 46.884V34.884H241.225V46.884V58.884H253.385V46.884ZM241.225 46.884H253.225V20.284H241.225H229.225V46.884H241.225ZM241.225 20.284V32.284H248.939V20.284V8.28403H241.225V20.284ZM248.939 20.284H236.939V41.298H248.939H260.939V20.284H248.939ZM248.939 41.298L259.309 47.3363L271.545 26.3223L261.175 20.284L250.805 14.2457L238.569 35.2597L248.939 41.298ZM309.345 33.09L308.198 21.145C302.009 21.7396 297.299 26.9623 297.345 33.1793C297.392 39.3962 302.178 44.5483 308.375 45.0508L309.345 33.09ZM318.047 43.274L327.559 50.5906C327.588 50.5519 327.618 50.5131 327.647 50.474L318.047 43.274ZM314.817 45.63L310.187 34.5591C310.163 34.5692 310.139 34.5794 310.115 34.5897L314.817 45.63ZM310.105 46.922L308.242 35.0675C308.233 35.0689 308.225 35.0703 308.216 35.0717L310.105 46.922ZM293.233 45.212L287.379 55.6874C287.42 55.71 287.46 55.7324 287.501 55.7546L293.233 45.212ZM288.673 38.296L288.253 26.3034C284.848 26.4226 281.653 27.9842 279.467 30.5985C277.281 33.2129 276.31 36.6334 276.796 40.0064L288.673 38.296ZM296.273 38.03L307.857 34.8957C306.4 29.5125 301.427 25.8423 295.853 26.0374L296.273 38.03ZM309.459 40.538L305.042 29.3804C305.015 29.391 304.989 29.4018 304.962 29.4127L309.459 40.538ZM309.497 36.966L305 48.0914C305.068 48.119 305.136 48.146 305.205 48.1723L309.497 36.966ZM300.187 36.244H288.187C288.187 42.8714 293.56 48.244 300.187 48.244V36.244ZM300.187 30.468V18.468C293.56 18.468 288.187 23.8406 288.187 30.468H300.187ZM308.471 29.86L312.572 41.1376C312.647 41.1103 312.721 41.0823 312.796 41.0536L308.471 29.86ZM308.547 26.554L304.045 37.6774C304.121 37.7083 304.198 37.7385 304.275 37.7679L308.547 26.554ZM297.109 28.796L296.447 40.7777C301.919 41.0803 306.902 37.6362 308.552 32.4096L297.109 28.796ZM289.547 28.378L277.705 26.4402C277.155 29.8011 278.059 33.2374 280.191 35.8926C282.324 38.5478 285.484 40.1718 288.885 40.3597L289.547 28.378ZM294.069 22.032L299.967 32.4826C299.978 32.4763 299.989 32.4699 300.001 32.4635L294.069 22.032ZM311.055 20.436L308.614 32.1851C308.672 32.1972 308.73 32.2089 308.789 32.2201L311.055 20.436ZM316.033 22.64L308.473 31.9588C308.508 31.9877 308.544 32.0165 308.58 32.045L316.033 22.64ZM309.345 33.09L308.375 45.0508C309.458 45.1386 310.106 45.2742 310.423 45.3626C310.752 45.4546 310.516 45.4377 310.008 45.0946C309.444 44.7134 308.629 43.98 307.996 42.8008C307.36 41.6147 307.187 40.4946 307.187 39.74H319.187H331.187C331.187 33.7328 328.329 28.5084 323.445 25.2085C319.312 22.4157 314.445 21.4642 310.315 21.1293L309.345 33.09ZM319.187 39.74H307.187C307.187 39.2663 307.256 38.6444 307.482 37.9465C307.709 37.2412 308.049 36.6053 308.447 36.074L318.047 43.274L327.647 50.474C330.062 47.2545 331.187 43.513 331.187 39.74H319.187ZM318.047 43.274L308.536 35.9575C309.293 34.9734 310.061 34.612 310.187 34.5591L314.817 45.63L319.447 56.701C322.36 55.4828 325.282 53.5507 327.559 50.5906L318.047 43.274ZM314.817 45.63L310.115 34.5897C309.821 34.715 309.233 34.9118 308.242 35.0675L310.105 46.922L311.968 58.7766C314.523 58.375 317.077 57.7104 319.519 56.6703L314.817 45.63ZM310.105 46.922L308.216 35.0717C307.209 35.2321 305.904 35.34 304.253 35.34V47.34V59.34C306.909 59.34 309.505 59.1693 311.994 58.7724L310.105 46.922ZM304.253 47.34V35.34C302.457 35.34 301.14 35.2033 300.22 35.0257C299.294 34.8468 298.949 34.661 298.965 34.6695L293.233 45.212L287.501 55.7546C292.617 58.5361 298.584 59.34 304.253 59.34V47.34ZM293.233 45.212L299.087 34.7367C299.349 34.8832 299.8 35.2279 300.173 35.7945C300.529 36.3334 300.567 36.6967 300.551 36.5857L288.673 38.296L276.796 40.0064C277.735 46.5278 281.238 52.2557 287.379 55.6874L293.233 45.212ZM288.673 38.296L289.093 50.2887L296.693 50.0227L296.273 38.03L295.853 26.0374L288.253 26.3034L288.673 38.296ZM296.273 38.03L284.69 41.1644C286.233 46.8689 290.485 50.0711 294.203 51.5759C297.596 52.9494 301.215 53.26 304.253 53.26V41.26V29.26C302.554 29.26 302.474 29.0323 303.207 29.3292C303.662 29.5133 304.591 29.9679 305.568 30.9413C306.613 31.9825 307.438 33.3484 307.857 34.8957L296.273 38.03ZM304.253 41.26V53.26C307.067 53.26 310.631 53.0076 313.957 51.6634L309.459 40.538L304.962 29.4127C305.273 29.2869 305.494 29.2268 305.589 29.2034C305.686 29.1793 305.702 29.1814 305.616 29.1933C305.429 29.2193 304.996 29.26 304.253 29.26V41.26ZM309.459 40.538L313.876 51.6957C315.83 50.922 323.283 47.4916 323.283 38.714H311.283H299.283C299.283 35.358 300.809 32.7686 302.342 31.2357C303.64 29.9373 304.843 29.4594 305.042 29.3804L309.459 40.538ZM311.283 38.714H323.283C323.283 29.8241 315.64 26.4687 313.789 25.7597L309.497 36.966L305.205 48.1723C305 48.0937 303.772 47.6222 302.443 46.3211C300.869 44.7806 299.283 42.1483 299.283 38.714H311.283ZM309.497 36.966L313.995 25.8407C310.609 24.4719 306.908 24.244 304.063 24.244V36.244V48.244C304.912 48.244 305.422 48.2877 305.665 48.32C305.778 48.335 305.776 48.3401 305.682 48.3175C305.592 48.2958 305.348 48.2323 305 48.0914L309.497 36.966ZM304.063 36.244V24.244H300.187V36.244V48.244H304.063V36.244ZM300.187 36.244H312.187V30.468H300.187H288.187V36.244H300.187ZM300.187 30.468V42.468H303.455V30.468V18.468H300.187V30.468ZM303.455 30.468V42.468C306.077 42.468 309.448 42.2737 312.572 41.1376L308.471 29.86L304.37 18.5825C304.684 18.4684 304.898 18.4181 304.973 18.4018C305.051 18.3847 305.046 18.3901 304.937 18.4032C304.705 18.4314 304.231 18.468 303.455 18.468V30.468ZM308.471 29.86L312.796 41.0536C314.772 40.2903 322.143 36.9073 322.143 28.188H310.143H298.143C298.143 24.8579 299.64 22.234 301.24 20.6338C302.594 19.2799 303.872 18.7725 304.146 18.6665L308.471 29.86ZM310.143 28.188H322.143C322.143 19.6405 315.079 16.2012 312.819 15.3402L308.547 26.554L304.275 37.7679C303.916 37.6311 302.559 37.0843 301.16 35.6514C299.506 33.9586 298.143 31.3463 298.143 28.188H310.143ZM308.547 26.554L313.049 15.4307C309.962 14.1811 306.779 13.908 304.215 13.908V25.908V37.908C304.437 37.908 304.605 37.9146 304.723 37.9224C304.842 37.9303 304.897 37.9384 304.896 37.9383C304.895 37.9381 304.876 37.9353 304.842 37.9284C304.807 37.9215 304.754 37.91 304.685 37.8921C304.549 37.8571 304.328 37.792 304.045 37.6774L308.547 26.554ZM304.215 25.908V13.908C301.438 13.908 298.055 14.1998 294.823 15.5131C291.285 16.951 287.323 19.937 285.666 25.1825L297.109 28.796L308.552 32.4096C308.089 33.8774 307.266 35.1603 306.251 36.1451C305.292 37.076 304.373 37.5382 303.86 37.747C302.997 38.0976 302.863 37.908 304.215 37.908V25.908ZM297.109 28.796L297.771 16.8143L290.209 16.3963L289.547 28.378L288.885 40.3597L296.447 40.7777L297.109 28.796ZM289.547 28.378L301.39 30.3159C301.347 30.5735 301.194 31.1009 300.792 31.6653C300.399 32.2169 300.018 32.454 299.967 32.4826L294.069 22.032L288.171 11.5814C282.591 14.7307 278.775 19.8961 277.705 26.4402L289.547 28.378ZM294.069 22.032L300.001 32.4635C300.189 32.3562 301.314 31.828 304.215 31.828V19.828V7.82803C298.756 7.82803 293.117 8.76916 288.137 11.6005L294.069 22.032ZM304.215 19.828V31.828C306.241 31.828 307.669 31.9887 308.614 32.1851L311.055 20.436L313.496 8.687C310.54 8.07272 307.408 7.82803 304.215 7.82803V19.828ZM311.055 20.436L308.789 32.2201C308.98 32.2569 309.009 32.2824 308.923 32.2447C308.831 32.2039 308.665 32.1148 308.473 31.9588L316.033 22.64L323.594 13.3213C320.482 10.7968 316.919 9.3438 313.321 8.65195L311.055 20.436ZM316.033 22.64L308.58 32.045C307.984 31.5728 307.266 30.7988 306.733 29.6918C306.201 28.5868 306.047 27.5551 306.047 26.82H318.047H330.047C330.047 21.4564 327.72 16.59 323.486 13.2351L316.033 22.64ZM318.047 26.82H306.047C306.047 26.0869 306.205 24.9951 306.803 23.8168C307.405 22.6328 308.21 21.8341 308.857 21.3685C309.448 20.9427 309.812 20.8577 309.66 20.9042C309.514 20.9483 309.062 21.0619 308.198 21.145L309.345 33.09L310.493 45.035C314.315 44.6678 318.945 43.6807 322.887 40.8405C327.516 37.5048 330.047 32.4284 330.047 26.82H318.047ZM348.195 46.884L337.14 51.5517C339.017 55.9956 343.372 58.884 348.195 58.884V46.884ZM346.029 41.754L357.084 37.0864C355.208 32.6425 350.853 29.754 346.029 29.754V41.754ZM330.677 41.754V29.754C325.854 29.754 321.499 32.6425 319.622 37.0864L330.677 41.754ZM328.511 46.884V58.884C333.335 58.884 337.69 55.9956 339.566 51.5517L328.511 46.884ZM320.721 46.884L309.732 42.0643C308.104 45.7748 308.459 50.0559 310.676 53.4477C312.892 56.8395 316.67 58.884 320.721 58.884V46.884ZM332.387 20.284V8.28403C327.624 8.28403 323.311 11.1018 321.398 15.4643L332.387 20.284ZM344.547 20.284L355.531 15.4512C353.615 11.0957 349.306 8.28403 344.547 8.28403V20.284ZM356.251 46.884V58.884C360.305 58.884 364.086 56.837 366.301 53.4417C368.517 50.0464 368.868 45.762 367.235 42.0512L356.251 46.884ZM333.223 35.826L322.167 31.1616C320.604 34.867 321.001 39.1092 323.224 42.4603C325.447 45.8115 329.202 47.826 333.223 47.826V35.826ZM343.521 35.826V47.826C347.549 47.826 351.307 45.8058 353.529 42.4471C355.751 39.0883 356.141 34.8388 354.565 31.1323L343.521 35.826ZM338.353 23.666L349.397 18.9723C347.512 14.537 343.157 11.6597 338.337 11.666C333.518 11.6724 329.17 14.5613 327.297 19.0016L338.353 23.666ZM348.195 46.884L359.25 42.2164L357.084 37.0864L346.029 41.754L334.974 46.4217L337.14 51.5517L348.195 46.884ZM346.029 41.754V29.754H330.677V41.754V53.754H346.029V41.754ZM330.677 41.754L319.622 37.0864L317.456 42.2164L328.511 46.884L339.566 51.5517L341.732 46.4217L330.677 41.754ZM328.511 46.884V34.884H320.721V46.884V58.884H328.511V46.884ZM320.721 46.884L331.711 51.7037L343.377 25.1037L332.387 20.284L321.398 15.4643L309.732 42.0643L320.721 46.884ZM332.387 20.284V32.284H344.547V20.284V8.28403H332.387V20.284ZM344.547 20.284L333.564 25.1169L345.268 51.7169L356.251 46.884L367.235 42.0512L355.531 15.4512L344.547 20.284ZM356.251 46.884V34.884H348.195V46.884V58.884H356.251V46.884ZM333.223 35.826V47.826H343.521V35.826V23.826H333.223V35.826ZM343.521 35.826L354.565 31.1323L349.397 18.9723L338.353 23.666L327.309 28.3597L332.477 40.5197L343.521 35.826ZM338.353 23.666L327.297 19.0016L322.167 31.1616L333.223 35.826L344.28 40.4904L349.41 28.3304L338.353 23.666ZM391.746 46.884V58.884C396.612 58.884 400.996 55.9461 402.845 51.4459C404.695 46.9457 403.644 41.7741 400.185 38.3525L391.746 46.884ZM381.752 46.884L373.188 55.2899C375.445 57.5889 378.531 58.884 381.752 58.884V46.884ZM371.644 36.586L380.208 28.1801C377.952 25.8812 374.866 24.586 371.644 24.586V36.586ZM367.73 36.586V24.586C361.103 24.586 355.73 29.9586 355.73 36.586H367.73ZM367.73 46.884V58.884C374.358 58.884 379.73 53.5115 379.73 46.884H367.73ZM359.826 46.884H347.826C347.826 53.5115 353.199 58.884 359.826 58.884V46.884ZM359.826 20.284V8.28403C353.199 8.28403 347.826 13.6566 347.826 20.284L359.826 20.284ZM367.73 20.284H379.73C379.73 13.6566 374.358 8.28403 367.73 8.28403V20.284ZM367.73 30.544H355.73C355.73 37.1714 361.103 42.544 367.73 42.544V30.544ZM371.492 30.544V42.544C374.81 42.544 377.98 41.1703 380.249 38.7492L371.492 30.544ZM381.106 20.284V8.28403C377.788 8.28403 374.618 9.65778 372.35 12.0789L381.106 20.284ZM390.568 20.284L399.041 28.7819C402.48 25.3527 403.514 20.1885 401.658 15.7001C399.803 11.2116 395.425 8.28403 390.568 8.28403V20.284ZM377.762 33.052L369.29 24.5542C367.026 26.8114 365.756 29.8789 365.762 33.0759C365.769 36.2729 367.051 39.3353 369.323 41.5836L377.762 33.052ZM391.746 46.884V34.884H381.752V46.884V58.884H391.746V46.884ZM381.752 46.884L390.316 38.4781L380.208 28.1801L371.644 36.586L363.08 44.9919L373.188 55.2899L381.752 46.884ZM371.644 36.586V24.586H367.73V36.586V48.586H371.644V36.586ZM367.73 36.586H355.73V46.884H367.73H379.73V36.586H367.73ZM367.73 46.884V34.884H359.826V46.884V58.884H367.73V46.884ZM359.826 46.884H371.826V20.284H359.826H347.826V46.884H359.826ZM359.826 20.284V32.284H367.73V20.284V8.28403H359.826V20.284ZM367.73 20.284H355.73V30.544H367.73H379.73V20.284H367.73ZM367.73 30.544V42.544H371.492V30.544V18.544H367.73V30.544ZM371.492 30.544L380.249 38.7492L389.863 28.4892L381.106 20.284L372.35 12.0789L362.736 22.3389L371.492 30.544ZM381.106 20.284V32.284H390.568V20.284V8.28403H381.106V20.284ZM390.568 20.284L382.096 11.7862L369.29 24.5542L377.762 33.052L386.235 41.5499L399.041 28.7819L390.568 20.284ZM377.762 33.052L369.323 41.5836L383.307 55.4156L391.746 46.884L400.185 38.3525L386.201 24.5205L377.762 33.052ZM420.039 46.884L408.984 51.5517C410.86 55.9956 415.215 58.884 420.039 58.884V46.884ZM417.873 41.754L428.928 37.0864C427.052 32.6425 422.697 29.754 417.873 29.754V41.754ZM402.521 41.754V29.754C397.697 29.754 393.342 32.6425 391.466 37.0864L402.521 41.754ZM400.355 46.884V58.884C405.179 58.884 409.534 55.9956 411.41 51.5517L400.355 46.884ZM392.565 46.884L381.576 42.0643C379.948 45.7748 380.303 50.0559 382.519 53.4477C384.735 56.8395 388.513 58.884 392.565 58.884V46.884ZM404.231 20.284V8.28403C399.467 8.28403 395.155 11.1018 393.241 15.4643L404.231 20.284ZM416.391 20.284L427.375 15.4512C425.458 11.0957 421.15 8.28403 416.391 8.28403V20.284ZM428.095 46.884V58.884C432.149 58.884 435.929 56.837 438.145 53.4417C440.36 50.0464 440.712 45.762 439.079 42.0512L428.095 46.884ZM405.067 35.826L394.011 31.1616C392.447 34.867 392.844 39.1092 395.068 42.4603C397.291 45.8115 401.045 47.826 405.067 47.826V35.826ZM415.365 35.826V47.826C419.392 47.826 423.151 45.8058 425.373 42.4471C427.595 39.0883 427.984 34.8388 426.409 31.1323L415.365 35.826ZM410.197 23.666L421.241 18.9723C419.356 14.537 415 11.6597 410.181 11.666C405.362 11.6724 401.014 14.5613 399.141 19.0016L410.197 23.666ZM420.039 46.884L431.094 42.2164L428.928 37.0864L417.873 41.754L406.818 46.4217L408.984 51.5517L420.039 46.884ZM417.873 41.754V29.754H402.521V41.754V53.754H417.873V41.754ZM402.521 41.754L391.466 37.0864L389.3 42.2164L400.355 46.884L411.41 51.5517L413.576 46.4217L402.521 41.754ZM400.355 46.884V34.884H392.565V46.884V58.884H400.355V46.884ZM392.565 46.884L403.555 51.7037L415.221 25.1037L404.231 20.284L393.241 15.4643L381.576 42.0643L392.565 46.884ZM404.231 20.284V32.284H416.391V20.284V8.28403H404.231V20.284ZM416.391 20.284L405.407 25.1169L417.111 51.7169L428.095 46.884L439.079 42.0512L427.375 15.4512L416.391 20.284ZM428.095 46.884V34.884H420.039V46.884V58.884H428.095V46.884ZM405.067 35.826V47.826H415.365V35.826V23.826H405.067V35.826ZM415.365 35.826L426.409 31.1323L421.241 18.9723L410.197 23.666L399.153 28.3597L404.321 40.5197L415.365 35.826ZM410.197 23.666L399.141 19.0016L394.011 31.1616L405.067 35.826L416.123 40.4904L421.253 28.3304L410.197 23.666ZM449.693 33.09L448.545 21.145C442.357 21.7396 437.647 26.9623 437.693 33.1793C437.739 39.3962 442.526 44.5483 448.723 45.0508L449.693 33.09ZM458.395 43.274L467.906 50.5906C467.936 50.5519 467.965 50.5131 467.995 50.474L458.395 43.274ZM455.165 45.63L450.535 34.5591C450.511 34.5692 450.487 34.5794 450.462 34.5897L455.165 45.63ZM450.453 46.922L448.59 35.0675C448.581 35.0689 448.572 35.0703 448.564 35.0717L450.453 46.922ZM433.581 45.212L427.727 55.6874C427.767 55.71 427.808 55.7324 427.849 55.7546L433.581 45.212ZM429.021 38.296L428.601 26.3034C425.195 26.4226 422.001 27.9842 419.815 30.5985C417.629 33.2129 416.658 36.6334 417.143 40.0064L429.021 38.296ZM436.621 38.03L448.204 34.8957C446.747 29.5125 441.774 25.8423 436.201 26.0374L436.621 38.03ZM449.807 40.538L445.39 29.3804C445.363 29.391 445.336 29.4018 445.309 29.4127L449.807 40.538ZM449.845 36.966L445.347 48.0914C445.416 48.119 445.484 48.146 445.553 48.1723L449.845 36.966ZM440.535 36.244H428.535C428.535 42.8714 433.907 48.244 440.535 48.244V36.244ZM440.535 30.468V18.468C433.907 18.468 428.535 23.8406 428.535 30.468H440.535ZM448.819 29.86L452.92 41.1376C452.995 41.1103 453.069 41.0823 453.143 41.0536L448.819 29.86ZM448.895 26.554L444.392 37.6774C444.469 37.7083 444.546 37.7385 444.623 37.7679L448.895 26.554ZM437.457 28.796L436.794 40.7777C442.267 41.0803 447.249 37.6362 448.9 32.4096L437.457 28.796ZM429.895 28.378L418.052 26.4402C417.502 29.8011 418.406 33.2374 420.539 35.8926C422.672 38.5478 425.832 40.1718 429.232 40.3597L429.895 28.378ZM434.417 22.032L440.315 32.4826C440.326 32.4763 440.337 32.4699 440.348 32.4635L434.417 22.032ZM451.403 20.436L448.961 32.1851C449.02 32.1972 449.078 32.2089 449.137 32.2201L451.403 20.436ZM456.381 22.64L448.82 31.9588C448.856 31.9877 448.892 32.0165 448.928 32.045L456.381 22.64ZM449.693 33.09L448.723 45.0508C449.805 45.1386 450.454 45.2742 450.771 45.3626C451.1 45.4546 450.864 45.4377 450.356 45.0946C449.792 44.7134 448.976 43.98 448.344 42.8008C447.708 41.6147 447.535 40.4946 447.535 39.74H459.535H471.535C471.535 33.7328 468.676 28.5084 463.792 25.2085C459.659 22.4157 454.793 21.4642 450.663 21.1293L449.693 33.09ZM459.535 39.74H447.535C447.535 39.2663 447.604 38.6444 447.829 37.9465C448.057 37.2412 448.396 36.6053 448.795 36.074L458.395 43.274L467.995 50.474C470.409 47.2545 471.535 43.513 471.535 39.74H459.535ZM458.395 43.274L448.883 35.9575C449.64 34.9734 450.409 34.612 450.535 34.5591L455.165 45.63L459.794 56.701C462.708 55.4828 465.629 53.5507 467.906 50.5906L458.395 43.274ZM455.165 45.63L450.462 34.5897C450.168 34.715 449.581 34.9118 448.59 35.0675L450.453 46.922L452.316 58.7766C454.871 58.375 457.425 57.7104 459.867 56.6703L455.165 45.63ZM450.453 46.922L448.564 35.0717C447.557 35.2321 446.252 35.34 444.601 35.34V47.34V59.34C447.256 59.34 449.852 59.1693 452.342 58.7724L450.453 46.922ZM444.601 47.34V35.34C442.804 35.34 441.488 35.2033 440.568 35.0257C439.641 34.8468 439.297 34.661 439.313 34.6695L433.581 45.212L427.849 55.7546C432.965 58.5361 438.932 59.34 444.601 59.34V47.34ZM433.581 45.212L439.435 34.7367C439.697 34.8832 440.147 35.2279 440.521 35.7945C440.876 36.3334 440.914 36.6967 440.898 36.5857L429.021 38.296L417.143 40.0064C418.082 46.5278 421.586 52.2557 427.727 55.6874L433.581 45.212ZM429.021 38.296L429.44 50.2887L437.04 50.0227L436.621 38.03L436.201 26.0374L428.601 26.3034L429.021 38.296ZM436.621 38.03L425.037 41.1644C426.581 46.8689 430.833 50.0711 434.55 51.5759C437.944 52.9494 441.563 53.26 444.601 53.26V41.26V29.26C442.901 29.26 442.822 29.0323 443.555 29.3292C444.01 29.5133 444.939 29.9679 445.916 30.9413C446.961 31.9825 447.785 33.3484 448.204 34.8957L436.621 38.03ZM444.601 41.26V53.26C447.414 53.26 450.979 53.0076 454.304 51.6634L449.807 40.538L445.309 29.4127C445.62 29.2869 445.842 29.2268 445.937 29.2034C446.034 29.1793 446.049 29.1814 445.964 29.1933C445.776 29.2193 445.344 29.26 444.601 29.26V41.26ZM449.807 40.538L454.223 51.6957C456.178 50.922 463.631 47.4916 463.631 38.714H451.631H439.631C439.631 35.358 441.157 32.7686 442.689 31.2357C443.988 29.9373 445.19 29.4594 445.39 29.3804L449.807 40.538ZM451.631 38.714H463.631C463.631 29.8241 455.988 26.4687 454.136 25.7597L449.845 36.966L445.553 48.1723C445.348 48.0937 444.12 47.6222 442.791 46.3211C441.217 44.7806 439.631 42.1483 439.631 38.714H451.631ZM449.845 36.966L454.342 25.8407C450.956 24.4719 447.256 24.244 444.411 24.244V36.244V48.244C445.259 48.244 445.77 48.2877 446.013 48.32C446.126 48.335 446.124 48.3401 446.029 48.3175C445.939 48.2958 445.696 48.2323 445.347 48.0914L449.845 36.966ZM444.411 36.244V24.244H440.535V36.244V48.244H444.411V36.244ZM440.535 36.244H452.535V30.468H440.535H428.535V36.244H440.535ZM440.535 30.468V42.468H443.803V30.468V18.468H440.535V30.468ZM443.803 30.468V42.468C446.424 42.468 449.795 42.2737 452.92 41.1376L448.819 29.86L444.718 18.5825C445.031 18.4684 445.246 18.4181 445.32 18.4018C445.399 18.3847 445.393 18.3901 445.285 18.4032C445.052 18.4314 444.579 18.468 443.803 18.468V30.468ZM448.819 29.86L453.143 41.0536C455.119 40.2903 462.491 36.9073 462.491 28.188H450.491H438.491C438.491 24.8579 439.987 22.234 441.587 20.6338C442.941 19.2799 444.219 18.7725 444.494 18.6665L448.819 29.86ZM450.491 28.188H462.491C462.491 19.6405 455.427 16.2012 453.167 15.3402L448.895 26.554L444.623 37.7679C444.264 37.6311 442.907 37.0843 441.507 35.6514C439.854 33.9586 438.491 31.3463 438.491 28.188H450.491ZM448.895 26.554L453.397 15.4307C450.31 14.1811 447.126 13.908 444.563 13.908V25.908V37.908C444.785 37.908 444.952 37.9146 445.07 37.9224C445.189 37.9303 445.244 37.9384 445.244 37.9383C445.242 37.9381 445.224 37.9353 445.189 37.9284C445.155 37.9215 445.102 37.91 445.032 37.8921C444.896 37.8571 444.675 37.792 444.392 37.6774L448.895 26.554ZM444.563 25.908V13.908C441.786 13.908 438.402 14.1998 435.171 15.5131C431.633 16.951 427.67 19.937 426.014 25.1825L437.457 28.796L448.9 32.4096C448.436 33.8774 447.614 35.1603 446.599 36.1451C445.639 37.076 444.721 37.5382 444.207 37.747C443.345 38.0976 443.21 37.908 444.563 37.908V25.908ZM437.457 28.796L438.119 16.8143L430.557 16.3963L429.895 28.378L429.232 40.3597L436.794 40.7777L437.457 28.796ZM429.895 28.378L441.737 30.3159C441.695 30.5735 441.542 31.1009 441.14 31.6653C440.747 32.2169 440.365 32.454 440.315 32.4826L434.417 22.032L428.519 11.5814C422.939 14.7307 419.123 19.8961 418.052 26.4402L429.895 28.378ZM434.417 22.032L440.348 32.4635C440.537 32.3562 441.662 31.828 444.563 31.828V19.828V7.82803C439.103 7.82803 433.464 8.76916 428.485 11.6005L434.417 22.032ZM444.563 19.828V31.828C446.588 31.828 448.016 31.9887 448.961 32.1851L451.403 20.436L453.844 8.687C450.888 8.07272 447.756 7.82803 444.563 7.82803V19.828ZM451.403 20.436L449.137 32.2201C449.328 32.2569 449.356 32.2824 449.271 32.2447C449.179 32.2039 449.013 32.1148 448.82 31.9588L456.381 22.64L463.941 13.3213C460.83 10.7968 457.266 9.3438 453.669 8.65195L451.403 20.436ZM456.381 22.64L448.928 32.045C448.332 31.5728 447.614 30.7988 447.081 29.6918C446.548 28.5868 446.395 27.5551 446.395 26.82H458.395H470.395C470.395 21.4564 468.067 16.59 463.834 13.2351L456.381 22.64ZM458.395 26.82H446.395C446.395 26.0869 446.553 24.9951 447.151 23.8168C447.752 22.6328 448.558 21.8341 449.204 21.3685C449.795 20.9427 450.16 20.8577 450.007 20.9042C449.862 20.9483 449.41 21.0619 448.545 21.145L449.693 33.09L450.84 45.035C454.663 44.6678 459.292 43.6807 463.234 40.8405C467.864 37.5048 470.395 32.4284 470.395 26.82H458.395Z" fill="#282828" mask="url(#path-1-outside-1_272_238)"></path></svg>