<svg xmlns="http://www.w3.org/2000/svg" width="524" height="155" viewBox="0 0 524 155" fill="none"><mask id="path-1-outside-1_655_879" maskUnits="userSpaceOnUse" x="-0.469727" y="-0.431641" width="524" height="155" fill="black"><rect fill="white" x="-0.469727" y="-0.431641" width="524" height="155"></rect><path d="M32.1558 58.1924C26.9078 54.0964 24.2838 48.4217 24.2838 41.1684C24.2838 33.915 26.9078 28.2404 32.1558 24.1444C37.4038 20.0484 44.6998 18.0004 54.0438 18.0004C63.3878 18.0004 70.6838 20.0484 75.9318 24.1444C81.1798 28.2404 83.8038 33.915 83.8038 41.1684C83.8038 48.4217 81.1798 54.0964 75.9318 58.1924C70.6838 62.2884 63.3878 64.3364 54.0438 64.3364C44.6998 64.3364 37.4038 62.2884 32.1558 58.1924ZM41.8838 32.2084C39.0251 34.427 37.5958 37.4137 37.5958 41.1684C37.5958 44.923 39.0251 47.931 41.8838 50.1924C44.7851 52.411 48.8384 53.5204 54.0438 53.5204C59.2491 53.5204 63.2811 52.411 66.1398 50.1924C69.0411 47.931 70.4918 44.923 70.4918 41.1684C70.4918 37.4137 69.0411 34.427 66.1398 32.2084C63.2811 29.947 59.2491 28.8164 54.0438 28.8164C48.8384 28.8164 44.7851 29.947 41.8838 32.2084ZM132.353 47.0564L145.281 47.6964C144.385 53.1577 141.675 57.2964 137.153 60.1124C132.673 62.9284 126.529 64.3364 118.721 64.3364C109.419 64.3364 102.209 62.3097 97.0888 58.2564C91.9688 54.1604 89.4088 48.4644 89.4088 41.1684C89.4088 33.8724 91.9048 28.1977 96.8968 24.1444C101.889 20.0484 108.886 18.0004 117.889 18.0004C125.27 18.0004 131.265 19.4297 135.873 22.2884C140.481 25.1044 143.297 28.9444 144.321 33.8084L131.521 34.6404C130.795 32.891 129.195 31.483 126.721 30.4164C124.246 29.3497 121.302 28.8164 117.889 28.8164C113.025 28.8164 109.27 29.947 106.625 32.2084C104.022 34.427 102.721 37.4137 102.721 41.1684C102.721 44.9657 104.086 47.9737 106.817 50.1924C109.59 52.411 113.558 53.5204 118.721 53.5204C122.433 53.5204 125.441 52.923 127.745 51.7284C130.091 50.5337 131.627 48.9764 132.353 47.0564ZM148.129 29.6484V18.7684H199.201V29.6484H180.321V63.5684H167.009V29.6484H148.129ZM240.88 63.5684L237.232 54.9284H211.376L207.728 63.5684H194.608L214.256 18.7684H234.736L254.448 63.5684H240.88ZM215.664 44.9444H233.008L224.304 24.4644L215.664 44.9444ZM268.149 18.7684H312.757V63.5684H299.445V29.6484H280.181C280.095 30.843 279.989 32.5924 279.861 34.8964C279.647 38.6084 279.455 41.3604 279.285 43.1524C279.157 44.9017 278.879 47.1417 278.453 49.8724C278.069 52.603 277.514 54.6297 276.789 55.9524C276.106 57.2324 275.167 58.5977 273.973 60.0484C272.821 61.499 271.349 62.5017 269.557 63.0564C267.765 63.611 265.653 63.8884 263.221 63.8884C261.514 63.8884 259.21 63.7817 256.309 63.5684V52.7524C257.674 52.923 258.805 53.0084 259.701 53.0084C260.639 53.0084 261.45 52.8804 262.133 52.6244C262.858 52.3257 263.477 51.835 263.989 51.1524C264.543 50.4697 264.991 49.7444 265.333 48.9764C265.717 48.2084 266.037 47.163 266.293 45.8404C266.549 44.5177 266.741 43.259 266.869 42.0644C267.039 40.827 267.167 39.227 267.253 37.2644C267.381 35.3017 267.466 33.5097 267.509 31.8884C267.594 30.267 267.679 28.1977 267.765 25.6804C267.893 23.1204 268.021 20.8164 268.149 18.7684ZM357.131 18.7684H377.611V63.5684H364.619V28.1764L344.011 63.5684H323.531V18.7684H336.523V54.1604L357.131 18.7684ZM428.728 47.0564L441.656 47.6964C440.76 53.1577 438.05 57.2964 433.528 60.1124C429.048 62.9284 422.904 64.3364 415.096 64.3364C405.794 64.3364 398.584 62.3097 393.464 58.2564C388.344 54.1604 385.784 48.4644 385.784 41.1684C385.784 33.8724 388.28 28.1977 393.272 24.1444C398.264 20.0484 405.261 18.0004 414.264 18.0004C421.645 18.0004 427.64 19.4297 432.248 22.2884C436.856 25.1044 439.672 28.9444 440.696 33.8084L427.896 34.6404C427.17 32.891 425.57 31.483 423.096 30.4164C420.621 29.3497 417.677 28.8164 414.264 28.8164C409.4 28.8164 405.645 29.947 403 32.2084C400.397 34.427 399.096 37.4137 399.096 41.1684C399.096 44.9657 400.461 47.9737 403.192 50.1924C405.965 52.411 409.933 53.5204 415.096 53.5204C418.808 53.5204 421.816 52.923 424.12 51.7284C426.466 50.5337 428.002 48.9764 428.728 47.0564ZM479.558 34.0004C485.147 34.0004 489.648 35.195 493.062 37.5844C496.475 39.9737 498.182 43.7284 498.182 48.8484C498.182 53.9257 496.475 57.659 493.062 60.0484C489.691 62.395 485.19 63.5684 479.558 63.5684H454.662H449.094V18.7684H462.406V34.0004H479.558ZM478.918 52.6884C482.886 52.6884 484.87 51.323 484.87 48.5924C484.87 45.8617 482.886 44.4964 478.918 44.4964H462.406V52.6884H478.918ZM55.248 112.72C64.7627 113.574 69.52 117.115 69.52 123.344C69.52 127.142 67.8347 130.128 64.464 132.304C61.0934 134.48 56.0587 135.568 49.36 135.568H18V90.7684H49.36C54.992 90.7684 59.4294 91.8777 62.672 94.0964C65.9574 96.315 67.6 99.2164 67.6 102.8C67.6 108.39 63.4827 111.696 55.248 112.72ZM31.312 101.008V108.112H48.72C50.4694 108.112 51.8347 107.792 52.816 107.152C53.7974 106.512 54.288 105.638 54.288 104.528C54.288 102.182 52.432 101.008 48.72 101.008H31.312ZM48.016 125.328C50.96 125.328 53.0507 125.051 54.288 124.496C55.568 123.942 56.208 122.982 56.208 121.616C56.208 120.208 55.5894 119.227 54.352 118.672C53.1147 118.118 51.216 117.84 48.656 117.84H31.312V125.328H48.016ZM82.3745 130.192C77.1265 126.096 74.5025 120.422 74.5025 113.168C74.5025 105.915 77.1265 100.24 82.3745 96.1444C87.6225 92.0484 94.9185 90.0004 104.263 90.0004C113.607 90.0004 120.903 92.0484 126.151 96.1444C131.399 100.24 134.023 105.915 134.023 113.168C134.023 120.422 131.399 126.096 126.151 130.192C120.903 134.288 113.607 136.336 104.263 136.336C94.9185 136.336 87.6225 134.288 82.3745 130.192ZM92.1025 104.208C89.2439 106.427 87.8145 109.414 87.8145 113.168C87.8145 116.923 89.2439 119.931 92.1025 122.192C95.0039 124.411 99.0572 125.52 104.263 125.52C109.468 125.52 113.5 124.411 116.359 122.192C119.26 119.931 120.711 116.923 120.711 113.168C120.711 109.414 119.26 106.427 116.359 104.208C113.5 101.947 109.468 100.816 104.263 100.816C99.0572 100.816 95.0039 101.947 92.1025 104.208ZM194.156 90.7684V135.568H180.844V101.648H155.5V135.568H142.188V90.7684H194.156ZM235.978 90.7684C241.354 90.7684 245.791 92.027 249.29 94.5444C252.831 97.019 254.602 100.795 254.602 105.872C254.602 110.95 252.916 114.64 249.546 116.944C246.175 119.206 241.652 120.336 235.978 120.336H218.25V135.568H204.938V90.7684H218.25H235.978ZM235.338 110.096C239.306 110.096 241.29 108.688 241.29 105.872C241.29 103.056 239.306 101.648 235.338 101.648H218.25V110.096H235.338ZM267.625 130.192C262.377 126.096 259.753 120.422 259.753 113.168C259.753 105.915 262.377 100.24 267.625 96.1444C272.873 92.0484 280.169 90.0004 289.513 90.0004C298.857 90.0004 306.153 92.0484 311.401 96.1444C316.649 100.24 319.273 105.915 319.273 113.168C319.273 120.422 316.649 126.096 311.401 130.192C306.153 134.288 298.857 136.336 289.513 136.336C280.169 136.336 272.873 134.288 267.625 130.192ZM277.353 104.208C274.494 106.427 273.065 109.414 273.065 113.168C273.065 116.923 274.494 119.931 277.353 122.192C280.254 124.411 284.307 125.52 289.513 125.52C294.718 125.52 298.75 124.411 301.609 122.192C304.51 119.931 305.961 116.923 305.961 113.168C305.961 109.414 304.51 106.427 301.609 104.208C298.75 101.947 294.718 100.816 289.513 100.816C284.307 100.816 280.254 101.947 277.353 104.208ZM367.822 119.056L380.75 119.696C379.854 125.158 377.144 129.296 372.622 132.112C368.142 134.928 361.998 136.336 354.19 136.336C344.888 136.336 337.678 134.31 332.558 130.256C327.438 126.16 324.878 120.464 324.878 113.168C324.878 105.872 327.374 100.198 332.366 96.1444C337.358 92.0484 344.355 90.0004 353.358 90.0004C360.739 90.0004 366.734 91.4297 371.342 94.2884C375.95 97.1044 378.766 100.944 379.79 105.808L366.99 106.64C366.264 104.891 364.664 103.483 362.19 102.416C359.715 101.35 356.771 100.816 353.358 100.816C348.494 100.816 344.739 101.947 342.094 104.208C339.491 106.427 338.19 109.414 338.19 113.168C338.19 116.966 339.555 119.974 342.286 122.192C345.059 124.411 349.027 125.52 354.19 125.52C357.902 125.52 360.91 124.923 363.214 123.728C365.56 122.534 367.096 120.976 367.822 119.056ZM417.436 106C423.025 106 427.526 107.195 430.94 109.584C434.353 111.974 436.06 115.728 436.06 120.848C436.06 125.926 434.353 129.659 430.94 132.048C427.569 134.395 423.068 135.568 417.436 135.568H393.756H388.188V90.7684H401.5V106H417.436ZM442.652 90.7684H455.964V135.568H442.652V90.7684ZM416.796 124.688C420.764 124.688 422.748 123.323 422.748 120.592C422.748 117.862 420.764 116.496 416.796 116.496H401.5V124.688H416.796ZM462.336 105.744C462.933 100.454 465.258 96.507 469.312 93.9044C473.365 91.3017 478.549 90.0004 484.864 90.0004C490.752 90.0004 495.637 91.067 499.52 93.2004C503.445 95.3337 505.408 98.491 505.408 102.672C505.408 105.19 504.597 107.323 502.976 109.072C501.354 110.822 498.837 112.443 495.424 113.936C492.906 115.046 491.221 115.899 490.368 116.496C489.514 117.094 489.088 117.776 489.088 118.544V118.864H476.992V118.032C476.992 115.728 477.504 113.872 478.528 112.464C479.552 111.056 481.514 109.84 484.416 108.816C485.866 108.304 486.89 107.942 487.488 107.728C488.085 107.472 488.896 107.088 489.92 106.576C490.986 106.064 491.733 105.574 492.16 105.104C492.586 104.635 492.8 104.123 492.8 103.568C492.8 102.544 492.01 101.712 490.432 101.072C488.896 100.432 487.04 100.112 484.864 100.112C482.005 100.112 479.658 100.667 477.824 101.776C475.989 102.886 474.837 104.422 474.368 106.384L462.336 105.744ZM476.096 135.568V123.28H489.984V135.568H476.096Z"></path></mask><path d="M32.1558 58.1924C26.9078 54.0964 24.2838 48.4217 24.2838 41.1684C24.2838 33.915 26.9078 28.2404 32.1558 24.1444C37.4038 20.0484 44.6998 18.0004 54.0438 18.0004C63.3878 18.0004 70.6838 20.0484 75.9318 24.1444C81.1798 28.2404 83.8038 33.915 83.8038 41.1684C83.8038 48.4217 81.1798 54.0964 75.9318 58.1924C70.6838 62.2884 63.3878 64.3364 54.0438 64.3364C44.6998 64.3364 37.4038 62.2884 32.1558 58.1924ZM41.8838 32.2084C39.0251 34.427 37.5958 37.4137 37.5958 41.1684C37.5958 44.923 39.0251 47.931 41.8838 50.1924C44.7851 52.411 48.8384 53.5204 54.0438 53.5204C59.2491 53.5204 63.2811 52.411 66.1398 50.1924C69.0411 47.931 70.4918 44.923 70.4918 41.1684C70.4918 37.4137 69.0411 34.427 66.1398 32.2084C63.2811 29.947 59.2491 28.8164 54.0438 28.8164C48.8384 28.8164 44.7851 29.947 41.8838 32.2084ZM132.353 47.0564L145.281 47.6964C144.385 53.1577 141.675 57.2964 137.153 60.1124C132.673 62.9284 126.529 64.3364 118.721 64.3364C109.419 64.3364 102.209 62.3097 97.0888 58.2564C91.9688 54.1604 89.4088 48.4644 89.4088 41.1684C89.4088 33.8724 91.9048 28.1977 96.8968 24.1444C101.889 20.0484 108.886 18.0004 117.889 18.0004C125.27 18.0004 131.265 19.4297 135.873 22.2884C140.481 25.1044 143.297 28.9444 144.321 33.8084L131.521 34.6404C130.795 32.891 129.195 31.483 126.721 30.4164C124.246 29.3497 121.302 28.8164 117.889 28.8164C113.025 28.8164 109.27 29.947 106.625 32.2084C104.022 34.427 102.721 37.4137 102.721 41.1684C102.721 44.9657 104.086 47.9737 106.817 50.1924C109.59 52.411 113.558 53.5204 118.721 53.5204C122.433 53.5204 125.441 52.923 127.745 51.7284C130.091 50.5337 131.627 48.9764 132.353 47.0564ZM148.129 29.6484V18.7684H199.201V29.6484H180.321V63.5684H167.009V29.6484H148.129ZM240.88 63.5684L237.232 54.9284H211.376L207.728 63.5684H194.608L214.256 18.7684H234.736L254.448 63.5684H240.88ZM215.664 44.9444H233.008L224.304 24.4644L215.664 44.9444ZM268.149 18.7684H312.757V63.5684H299.445V29.6484H280.181C280.095 30.843 279.989 32.5924 279.861 34.8964C279.647 38.6084 279.455 41.3604 279.285 43.1524C279.157 44.9017 278.879 47.1417 278.453 49.8724C278.069 52.603 277.514 54.6297 276.789 55.9524C276.106 57.2324 275.167 58.5977 273.973 60.0484C272.821 61.499 271.349 62.5017 269.557 63.0564C267.765 63.611 265.653 63.8884 263.221 63.8884C261.514 63.8884 259.21 63.7817 256.309 63.5684V52.7524C257.674 52.923 258.805 53.0084 259.701 53.0084C260.639 53.0084 261.45 52.8804 262.133 52.6244C262.858 52.3257 263.477 51.835 263.989 51.1524C264.543 50.4697 264.991 49.7444 265.333 48.9764C265.717 48.2084 266.037 47.163 266.293 45.8404C266.549 44.5177 266.741 43.259 266.869 42.0644C267.039 40.827 267.167 39.227 267.253 37.2644C267.381 35.3017 267.466 33.5097 267.509 31.8884C267.594 30.267 267.679 28.1977 267.765 25.6804C267.893 23.1204 268.021 20.8164 268.149 18.7684ZM357.131 18.7684H377.611V63.5684H364.619V28.1764L344.011 63.5684H323.531V18.7684H336.523V54.1604L357.131 18.7684ZM428.728 47.0564L441.656 47.6964C440.76 53.1577 438.05 57.2964 433.528 60.1124C429.048 62.9284 422.904 64.3364 415.096 64.3364C405.794 64.3364 398.584 62.3097 393.464 58.2564C388.344 54.1604 385.784 48.4644 385.784 41.1684C385.784 33.8724 388.28 28.1977 393.272 24.1444C398.264 20.0484 405.261 18.0004 414.264 18.0004C421.645 18.0004 427.64 19.4297 432.248 22.2884C436.856 25.1044 439.672 28.9444 440.696 33.8084L427.896 34.6404C427.17 32.891 425.57 31.483 423.096 30.4164C420.621 29.3497 417.677 28.8164 414.264 28.8164C409.4 28.8164 405.645 29.947 403 32.2084C400.397 34.427 399.096 37.4137 399.096 41.1684C399.096 44.9657 400.461 47.9737 403.192 50.1924C405.965 52.411 409.933 53.5204 415.096 53.5204C418.808 53.5204 421.816 52.923 424.12 51.7284C426.466 50.5337 428.002 48.9764 428.728 47.0564ZM479.558 34.0004C485.147 34.0004 489.648 35.195 493.062 37.5844C496.475 39.9737 498.182 43.7284 498.182 48.8484C498.182 53.9257 496.475 57.659 493.062 60.0484C489.691 62.395 485.19 63.5684 479.558 63.5684H454.662H449.094V18.7684H462.406V34.0004H479.558ZM478.918 52.6884C482.886 52.6884 484.87 51.323 484.87 48.5924C484.87 45.8617 482.886 44.4964 478.918 44.4964H462.406V52.6884H478.918ZM55.248 112.72C64.7627 113.574 69.52 117.115 69.52 123.344C69.52 127.142 67.8347 130.128 64.464 132.304C61.0934 134.48 56.0587 135.568 49.36 135.568H18V90.7684H49.36C54.992 90.7684 59.4294 91.8777 62.672 94.0964C65.9574 96.315 67.6 99.2164 67.6 102.8C67.6 108.39 63.4827 111.696 55.248 112.72ZM31.312 101.008V108.112H48.72C50.4694 108.112 51.8347 107.792 52.816 107.152C53.7974 106.512 54.288 105.638 54.288 104.528C54.288 102.182 52.432 101.008 48.72 101.008H31.312ZM48.016 125.328C50.96 125.328 53.0507 125.051 54.288 124.496C55.568 123.942 56.208 122.982 56.208 121.616C56.208 120.208 55.5894 119.227 54.352 118.672C53.1147 118.118 51.216 117.84 48.656 117.84H31.312V125.328H48.016ZM82.3745 130.192C77.1265 126.096 74.5025 120.422 74.5025 113.168C74.5025 105.915 77.1265 100.24 82.3745 96.1444C87.6225 92.0484 94.9185 90.0004 104.263 90.0004C113.607 90.0004 120.903 92.0484 126.151 96.1444C131.399 100.24 134.023 105.915 134.023 113.168C134.023 120.422 131.399 126.096 126.151 130.192C120.903 134.288 113.607 136.336 104.263 136.336C94.9185 136.336 87.6225 134.288 82.3745 130.192ZM92.1025 104.208C89.2439 106.427 87.8145 109.414 87.8145 113.168C87.8145 116.923 89.2439 119.931 92.1025 122.192C95.0039 124.411 99.0572 125.52 104.263 125.52C109.468 125.52 113.5 124.411 116.359 122.192C119.26 119.931 120.711 116.923 120.711 113.168C120.711 109.414 119.26 106.427 116.359 104.208C113.5 101.947 109.468 100.816 104.263 100.816C99.0572 100.816 95.0039 101.947 92.1025 104.208ZM194.156 90.7684V135.568H180.844V101.648H155.5V135.568H142.188V90.7684H194.156ZM235.978 90.7684C241.354 90.7684 245.791 92.027 249.29 94.5444C252.831 97.019 254.602 100.795 254.602 105.872C254.602 110.95 252.916 114.64 249.546 116.944C246.175 119.206 241.652 120.336 235.978 120.336H218.25V135.568H204.938V90.7684H218.25H235.978ZM235.338 110.096C239.306 110.096 241.29 108.688 241.29 105.872C241.29 103.056 239.306 101.648 235.338 101.648H218.25V110.096H235.338ZM267.625 130.192C262.377 126.096 259.753 120.422 259.753 113.168C259.753 105.915 262.377 100.24 267.625 96.1444C272.873 92.0484 280.169 90.0004 289.513 90.0004C298.857 90.0004 306.153 92.0484 311.401 96.1444C316.649 100.24 319.273 105.915 319.273 113.168C319.273 120.422 316.649 126.096 311.401 130.192C306.153 134.288 298.857 136.336 289.513 136.336C280.169 136.336 272.873 134.288 267.625 130.192ZM277.353 104.208C274.494 106.427 273.065 109.414 273.065 113.168C273.065 116.923 274.494 119.931 277.353 122.192C280.254 124.411 284.307 125.52 289.513 125.52C294.718 125.52 298.75 124.411 301.609 122.192C304.51 119.931 305.961 116.923 305.961 113.168C305.961 109.414 304.51 106.427 301.609 104.208C298.75 101.947 294.718 100.816 289.513 100.816C284.307 100.816 280.254 101.947 277.353 104.208ZM367.822 119.056L380.75 119.696C379.854 125.158 377.144 129.296 372.622 132.112C368.142 134.928 361.998 136.336 354.19 136.336C344.888 136.336 337.678 134.31 332.558 130.256C327.438 126.16 324.878 120.464 324.878 113.168C324.878 105.872 327.374 100.198 332.366 96.1444C337.358 92.0484 344.355 90.0004 353.358 90.0004C360.739 90.0004 366.734 91.4297 371.342 94.2884C375.95 97.1044 378.766 100.944 379.79 105.808L366.99 106.64C366.264 104.891 364.664 103.483 362.19 102.416C359.715 101.35 356.771 100.816 353.358 100.816C348.494 100.816 344.739 101.947 342.094 104.208C339.491 106.427 338.19 109.414 338.19 113.168C338.19 116.966 339.555 119.974 342.286 122.192C345.059 124.411 349.027 125.52 354.19 125.52C357.902 125.52 360.91 124.923 363.214 123.728C365.56 122.534 367.096 120.976 367.822 119.056ZM417.436 106C423.025 106 427.526 107.195 430.94 109.584C434.353 111.974 436.06 115.728 436.06 120.848C436.06 125.926 434.353 129.659 430.94 132.048C427.569 134.395 423.068 135.568 417.436 135.568H393.756H388.188V90.7684H401.5V106H417.436ZM442.652 90.7684H455.964V135.568H442.652V90.7684ZM416.796 124.688C420.764 124.688 422.748 123.323 422.748 120.592C422.748 117.862 420.764 116.496 416.796 116.496H401.5V124.688H416.796ZM462.336 105.744C462.933 100.454 465.258 96.507 469.312 93.9044C473.365 91.3017 478.549 90.0004 484.864 90.0004C490.752 90.0004 495.637 91.067 499.52 93.2004C503.445 95.3337 505.408 98.491 505.408 102.672C505.408 105.19 504.597 107.323 502.976 109.072C501.354 110.822 498.837 112.443 495.424 113.936C492.906 115.046 491.221 115.899 490.368 116.496C489.514 117.094 489.088 117.776 489.088 118.544V118.864H476.992V118.032C476.992 115.728 477.504 113.872 478.528 112.464C479.552 111.056 481.514 109.84 484.416 108.816C485.866 108.304 486.89 107.942 487.488 107.728C488.085 107.472 488.896 107.088 489.92 106.576C490.986 106.064 491.733 105.574 492.16 105.104C492.586 104.635 492.8 104.123 492.8 103.568C492.8 102.544 492.01 101.712 490.432 101.072C488.896 100.432 487.04 100.112 484.864 100.112C482.005 100.112 479.658 100.667 477.824 101.776C475.989 102.886 474.837 104.422 474.368 106.384L462.336 105.744ZM476.096 135.568V123.28H489.984V135.568H476.096Z" fill="white"></path><path d="M32.1558 58.1924L43.2307 44.0027L32.1558 58.1924ZM32.1558 24.1444L21.0809 9.95467L21.0809 9.95467L32.1558 24.1444ZM75.9318 24.1444L87.0067 9.95467V9.95467L75.9318 24.1444ZM75.9318 58.1924L64.8569 44.0027L64.8569 44.0027L75.9318 58.1924ZM41.8838 32.2084L52.92 46.4281C52.9297 46.4206 52.9394 46.413 52.9492 46.4054L41.8838 32.2084ZM41.8838 50.1924L30.7165 64.3095C30.7937 64.3705 30.8715 64.431 30.9497 64.4908L41.8838 50.1924ZM66.1398 50.1924L77.176 64.4121C77.1857 64.4046 77.1954 64.397 77.2052 64.3895L66.1398 50.1924ZM66.1398 32.2084L54.9725 46.3255C55.0497 46.3865 55.1275 46.447 55.2057 46.5068L66.1398 32.2084ZM32.1558 58.1924L43.2307 44.0027C42.7135 43.599 42.6225 43.3806 42.5896 43.3096C42.5346 43.1906 42.2838 42.6018 42.2838 41.1684H24.2838H6.28378C6.28378 53.3953 11.0317 64.5388 21.0809 72.382L32.1558 58.1924ZM24.2838 41.1684H42.2838C42.2838 39.735 42.5346 39.1461 42.5896 39.0271C42.6225 38.9561 42.7135 38.7377 43.2307 38.334L32.1558 24.1444L21.0809 9.95467C11.0317 17.7979 6.28378 28.9414 6.28378 41.1684H24.2838ZM32.1558 24.1444L43.2306 38.334C44.2579 37.5323 47.1264 36.0004 54.0438 36.0004V18.0004V0.000358582C42.2732 0.000358582 30.5497 2.56441 21.0809 9.95467L32.1558 24.1444ZM54.0438 18.0004V36.0004C60.9612 36.0004 63.8297 37.5323 64.8569 38.334L75.9318 24.1444L87.0067 9.95467C77.5379 2.56441 65.8144 0.000358582 54.0438 0.000358582V18.0004ZM75.9318 24.1444L64.8569 38.334C65.3741 38.7377 65.4651 38.9561 65.4979 39.0271C65.5529 39.1461 65.8038 39.735 65.8038 41.1684H83.8038H101.804C101.804 28.9414 97.0558 17.7979 87.0067 9.95467L75.9318 24.1444ZM83.8038 41.1684H65.8038C65.8038 42.6018 65.5529 43.1906 65.4979 43.3096C65.4651 43.3806 65.3741 43.599 64.8569 44.0027L75.9318 58.1924L87.0067 72.382C97.0558 64.5388 101.804 53.3953 101.804 41.1684H83.8038ZM75.9318 58.1924L64.8569 44.0027C63.8297 44.8044 60.9612 46.3364 54.0438 46.3364V64.3364V82.3364C65.8144 82.3364 77.5379 79.7723 87.0067 72.382L75.9318 58.1924ZM54.0438 64.3364V46.3364C47.1264 46.3364 44.2579 44.8044 43.2307 44.0027L32.1558 58.1924L21.0809 72.382C30.5497 79.7723 42.2732 82.3364 54.0438 82.3364V64.3364ZM41.8838 32.2084L30.8475 17.9886C23.4066 23.7636 19.5958 32.0962 19.5958 41.1684H37.5958H55.5958C55.5958 41.6187 55.4971 42.6438 54.9042 43.8827C54.3013 45.1425 53.493 45.9834 52.92 46.4281L41.8838 32.2084ZM37.5958 41.1684H19.5958C19.5958 50.233 23.3932 58.5164 30.7165 64.3095L41.8838 50.1924L53.051 36.0753C53.5784 36.4924 54.3472 37.2976 54.9257 38.515C55.4963 39.716 55.5958 40.7154 55.5958 41.1684H37.5958ZM41.8838 50.1924L30.9497 64.4908C38.0785 69.9423 46.5189 71.5204 54.0438 71.5204V53.5204V35.5204C52.681 35.5204 52.013 35.3711 51.8513 35.3268C51.73 35.2936 52.1682 35.3971 52.8179 35.8939L41.8838 50.1924ZM54.0438 53.5204V71.5204C61.5458 71.5204 70.0389 69.9514 77.176 64.4121L66.1398 50.1924L55.1035 35.9726C55.8027 35.43 56.2905 35.3075 56.1968 35.3332C56.0614 35.3705 55.4091 35.5204 54.0438 35.5204V53.5204ZM66.1398 50.1924L77.2052 64.3895C84.5874 58.6356 88.4918 50.3369 88.4918 41.1684H70.4918H52.4918C52.4918 40.677 52.6011 39.6439 53.1907 38.4213C53.786 37.1871 54.5664 36.3912 55.0744 35.9953L66.1398 50.1924ZM70.4918 41.1684H88.4918C88.4918 31.9911 84.5728 23.6444 77.0739 17.9099L66.1398 32.2084L55.2057 46.5068C54.6528 46.084 53.8327 45.2533 53.2126 43.9766C52.6003 42.7161 52.4918 41.6572 52.4918 41.1684H70.4918ZM66.1398 32.2084L77.307 18.0913C70.1573 12.4355 61.6108 10.8164 54.0438 10.8164V28.8164V46.8164C55.3841 46.8164 56.0064 46.9663 56.1116 46.9958C56.172 47.0127 55.6695 46.8768 54.9725 46.3255L66.1398 32.2084ZM54.0438 28.8164V10.8164C46.4542 10.8164 37.9607 12.4445 30.8184 18.0113L41.8838 32.2084L52.9492 46.4054C52.3009 46.9107 51.8478 47.0271 51.9362 47.0024C52.0679 46.9657 52.706 46.8164 54.0438 46.8164V28.8164ZM132.353 47.0564L133.243 29.0784C125.438 28.692 118.276 33.3852 115.514 40.6951L132.353 47.0564ZM145.281 47.6964L163.043 50.6105C163.873 45.5504 162.506 40.3764 159.284 36.3871C156.063 32.3978 151.292 29.9719 146.171 29.7184L145.281 47.6964ZM137.153 60.1124L127.639 44.8322C127.617 44.8457 127.595 44.8593 127.574 44.8729L137.153 60.1124ZM97.0888 58.2564L85.8443 72.312C85.8682 72.3311 85.8921 72.3502 85.9161 72.3692L97.0888 58.2564ZM96.8968 24.1444L108.243 38.1181C108.267 38.0987 108.291 38.0792 108.314 38.0597L96.8968 24.1444ZM135.873 22.2884L126.384 37.5841C126.418 37.6053 126.452 37.6264 126.487 37.6474L135.873 22.2884ZM144.321 33.8084L145.488 51.7705C150.698 51.4319 155.503 48.8484 158.659 44.6902C161.815 40.5319 163.01 35.2084 161.935 30.1002L144.321 33.8084ZM131.521 34.6404L114.893 41.5346C117.845 48.6524 124.999 53.1022 132.688 52.6025L131.521 34.6404ZM126.721 30.4164L119.596 46.9462L119.596 46.9462L126.721 30.4164ZM106.625 32.2084L118.302 45.9066C118.308 45.9013 118.315 45.8959 118.321 45.8905L106.625 32.2084ZM106.817 50.1924L95.4661 64.1624C95.5014 64.1911 95.5368 64.2196 95.5723 64.248L106.817 50.1924ZM127.745 51.7284L119.578 35.6874C119.539 35.7077 119.499 35.7282 119.459 35.7488L127.745 51.7284ZM132.353 47.0564L131.463 65.0343L144.391 65.6743L145.281 47.6964L146.171 29.7184L133.243 29.0784L132.353 47.0564ZM145.281 47.6964L127.518 44.7822C127.47 45.0736 127.422 45.2047 127.418 45.2159C127.415 45.2226 127.421 45.206 127.439 45.1712C127.457 45.1362 127.482 45.0902 127.517 45.0375C127.551 44.9847 127.589 44.9334 127.629 44.8859C127.668 44.8386 127.703 44.8025 127.728 44.7781C127.753 44.7539 127.764 44.7467 127.753 44.7549C127.742 44.7633 127.706 44.7902 127.639 44.8322L137.153 60.1124L146.667 75.3925C155.783 69.7163 161.345 60.9633 163.043 50.6105L145.281 47.6964ZM137.153 60.1124L127.574 44.8729C127.02 45.221 124.653 46.3364 118.721 46.3364V64.3364V82.3364C128.405 82.3364 138.326 80.6357 146.732 75.3518L137.153 60.1124ZM118.721 64.3364V46.3364C111.796 46.3364 109.096 44.8045 108.261 44.1435L97.0888 58.2564L85.9161 72.3692C95.3212 79.8149 107.043 82.3364 118.721 82.3364V64.3364ZM97.0888 58.2564L108.333 44.2007C107.888 43.8446 107.797 43.6462 107.747 43.5335C107.671 43.3638 107.409 42.6969 107.409 41.1684H89.4088H71.4088C71.4088 53.2316 75.9355 64.385 85.8443 72.312L97.0888 58.2564ZM89.4088 41.1684H107.409C107.409 39.5797 107.676 38.873 107.757 38.6876C107.81 38.5672 107.882 38.4114 108.243 38.1181L96.8968 24.1444L85.5506 10.1707C75.7493 18.129 71.4088 29.273 71.4088 41.1684H89.4088ZM96.8968 24.1444L108.314 38.0597C109.024 37.4773 111.428 36.0004 117.889 36.0004V18.0004V0.000358582C106.344 0.000358582 94.7533 2.6194 85.4791 10.229L96.8968 24.1444ZM117.889 18.0004V36.0004C123.087 36.0004 125.478 37.0223 126.384 37.5841L135.873 22.2884L145.362 6.99264C137.051 1.83713 127.453 0.000358582 117.889 0.000358582V18.0004ZM135.873 22.2884L126.487 37.6474C126.781 37.8273 126.928 37.9511 126.977 37.9946C127.022 38.035 126.991 38.0139 126.925 37.9249C126.895 37.8829 126.862 37.8331 126.83 37.7774C126.797 37.7217 126.77 37.6675 126.748 37.6179C126.702 37.5129 126.697 37.4681 126.707 37.5166L144.321 33.8084L161.935 30.1002C159.795 19.9375 153.69 12.0815 145.259 6.92928L135.873 22.2884ZM144.321 33.8084L143.153 15.8463L130.353 16.6783L131.521 34.6404L132.688 52.6025L145.488 51.7705L144.321 33.8084ZM131.521 34.6404L148.148 27.7461C144.99 20.1284 138.794 16.0194 133.846 13.8865L126.721 30.4164L119.596 46.9462C119.533 46.9192 118.824 46.6111 117.885 45.7852C116.883 44.903 115.709 43.5013 114.893 41.5346L131.521 34.6404ZM126.721 30.4164L133.846 13.8865C128.607 11.6284 123.123 10.8164 117.889 10.8164V28.8164V46.8164C119.481 46.8164 119.885 47.071 119.596 46.9462L126.721 30.4164ZM117.889 28.8164V10.8164C110.429 10.8164 101.924 12.5465 94.9287 18.5262L106.625 32.2084L118.321 45.8905C117.938 46.2177 117.566 46.4592 117.246 46.6287C116.931 46.7956 116.705 46.8726 116.615 46.8998C116.461 46.9461 116.811 46.8164 117.889 46.8164V28.8164ZM106.625 32.2084L94.9476 18.5101C87.9102 24.5092 84.7208 32.7243 84.7208 41.1684H102.721H120.721C120.721 41.3905 120.675 42.2074 120.198 43.3024C119.702 44.442 118.976 45.332 118.302 45.9066L106.625 32.2084ZM102.721 41.1684H84.7208C84.7208 49.8945 88.1615 58.2274 95.4661 64.1624L106.817 50.1924L118.167 36.2223C118.821 36.7531 119.592 37.6351 120.135 38.8327C120.661 39.9902 120.721 40.8831 120.721 41.1684H102.721ZM106.817 50.1924L95.5723 64.248C102.704 69.9532 111.269 71.5204 118.721 71.5204V53.5204V35.5204C118.069 35.5204 117.584 35.4851 117.244 35.4438C116.904 35.4025 116.74 35.3589 116.719 35.3531C116.697 35.3469 117.279 35.5112 118.061 36.1367L106.817 50.1924ZM118.721 53.5204V71.5204C124.157 71.5204 130.304 70.6772 136.03 67.7079L127.745 51.7284L119.459 35.7488C120.057 35.4385 120.388 35.3907 120.255 35.4171C120.116 35.4446 119.636 35.5204 118.721 35.5204V53.5204ZM127.745 51.7284L135.911 67.7693C141.086 65.1349 146.473 60.614 149.191 53.4176L132.353 47.0564L115.514 40.6951C116.097 39.1522 116.963 37.9154 117.841 37.0245C118.675 36.1797 119.369 35.7938 119.578 35.6874L127.745 51.7284ZM148.129 29.6484H130.129C130.129 39.5895 138.188 47.6484 148.129 47.6484V29.6484ZM148.129 18.7684V0.768356C138.188 0.768356 130.129 8.82723 130.129 18.7684H148.129ZM199.201 18.7684H217.201C217.201 8.82723 209.142 0.768356 199.201 0.768356V18.7684ZM199.201 29.6484V47.6484C209.142 47.6484 217.201 39.5895 217.201 29.6484H199.201ZM180.321 29.6484V11.6484C170.38 11.6484 162.321 19.7072 162.321 29.6484H180.321ZM180.321 63.5684V81.5684C190.262 81.5684 198.321 73.5095 198.321 63.5684H180.321ZM167.009 63.5684H149.009C149.009 73.5095 157.068 81.5684 167.009 81.5684V63.5684ZM167.009 29.6484H185.009C185.009 19.7072 176.95 11.6484 167.009 11.6484V29.6484ZM148.129 29.6484H166.129V18.7684H148.129H130.129V29.6484H148.129ZM148.129 18.7684V36.7684H199.201V18.7684V0.768356H148.129V18.7684ZM199.201 18.7684H181.201V29.6484H199.201H217.201V18.7684H199.201ZM199.201 29.6484V11.6484H180.321V29.6484V47.6484H199.201V29.6484ZM180.321 29.6484H162.321V63.5684H180.321H198.321V29.6484H180.321ZM180.321 63.5684V45.5684H167.009V63.5684V81.5684H180.321V63.5684ZM167.009 63.5684H185.009V29.6484H167.009H149.009V63.5684H167.009ZM167.009 29.6484V11.6484H148.129V29.6484V47.6484H167.009V29.6484ZM240.88 63.5684L224.297 70.5699C227.112 77.2357 233.644 81.5684 240.88 81.5684V63.5684ZM237.232 54.9284L253.814 47.9269C251 41.261 244.467 36.9284 237.232 36.9284V54.9284ZM211.376 54.9284V36.9284C204.14 36.9284 197.608 41.261 194.793 47.9269L211.376 54.9284ZM207.728 63.5684V81.5684C214.963 81.5684 221.496 77.2357 224.31 70.5699L207.728 63.5684ZM194.608 63.5684L178.123 56.3388C175.682 61.9045 176.215 68.3261 179.539 73.4139C182.863 78.5016 188.53 81.5684 194.608 81.5684V63.5684ZM214.256 18.7684V0.768356C207.11 0.768356 200.641 4.99498 197.771 11.5388L214.256 18.7684ZM234.736 18.7684L251.211 11.5191C248.337 4.98585 241.873 0.768356 234.736 0.768356V18.7684ZM254.448 63.5684V81.5684C260.529 81.5684 266.199 78.4978 269.522 73.4048C272.846 68.3119 273.373 61.8853 270.923 56.3191L254.448 63.5684ZM215.664 44.9444L199.079 37.9478C196.734 43.5059 197.33 49.869 200.665 54.8958C204 59.9225 209.631 62.9444 215.664 62.9444V44.9444ZM233.008 44.9444V62.9444C239.049 62.9444 244.687 59.9141 248.02 54.8759C251.353 49.8377 251.937 43.4635 249.574 37.9038L233.008 44.9444ZM224.304 24.4644L240.87 17.4238C238.042 10.7708 231.509 6.4548 224.28 6.46438C217.051 6.47395 210.529 10.8073 207.719 17.4677L224.304 24.4644ZM240.88 63.5684L257.462 56.5669L253.814 47.9269L237.232 54.9284L220.649 61.9299L224.297 70.5699L240.88 63.5684ZM237.232 54.9284V36.9284H211.376V54.9284V72.9284H237.232V54.9284ZM211.376 54.9284L194.793 47.9269L191.145 56.5669L207.728 63.5684L224.31 70.5699L227.958 61.9299L211.376 54.9284ZM207.728 63.5684V45.5684H194.608V63.5684V81.5684H207.728V63.5684ZM194.608 63.5684L211.092 70.7979L230.74 25.9979L214.256 18.7684L197.771 11.5388L178.123 56.3388L194.608 63.5684ZM214.256 18.7684V36.7684H234.736V18.7684V0.768356H214.256V18.7684ZM234.736 18.7684L218.26 26.0177L237.972 70.8177L254.448 63.5684L270.923 56.3191L251.211 11.5191L234.736 18.7684ZM254.448 63.5684V45.5684H240.88V63.5684V81.5684H254.448V63.5684ZM215.664 44.9444V62.9444H233.008V44.9444V26.9444H215.664V44.9444ZM233.008 44.9444L249.574 37.9038L240.87 17.4238L224.304 24.4644L207.738 31.5049L216.442 51.9849L233.008 44.9444ZM224.304 24.4644L207.719 17.4677L199.079 37.9478L215.664 44.9444L232.248 51.941L240.888 31.461L224.304 24.4644ZM268.149 18.7684V0.768356C258.644 0.768356 250.777 8.15892 250.184 17.6455L268.149 18.7684ZM312.757 18.7684H330.757C330.757 8.82723 322.698 0.768356 312.757 0.768356V18.7684ZM312.757 63.5684V81.5684C322.698 81.5684 330.757 73.5095 330.757 63.5684H312.757ZM299.445 63.5684H281.445C281.445 73.5095 289.504 81.5684 299.445 81.5684V63.5684ZM299.445 29.6484H317.445C317.445 19.7072 309.386 11.6484 299.445 11.6484V29.6484ZM280.181 29.6484V11.6484C270.737 11.6484 262.899 18.9464 262.227 28.3659L280.181 29.6484ZM279.861 34.8964L297.831 35.9291C297.832 35.9177 297.832 35.9063 297.833 35.8948L279.861 34.8964ZM279.285 43.1524L261.366 41.4458C261.353 41.5767 261.342 41.7077 261.333 41.8388L279.285 43.1524ZM278.453 49.8724L260.669 47.0936C260.654 47.1842 260.641 47.2749 260.628 47.3658L278.453 49.8724ZM276.789 55.9524L261.006 47.2974C260.973 47.3586 260.939 47.4201 260.906 47.4818L276.789 55.9524ZM273.973 60.0484L260.078 48.6056C260.01 48.688 259.943 48.7709 259.877 48.8545L273.973 60.0484ZM269.557 63.0564L274.879 80.2515L269.557 63.0564ZM256.309 63.5684H238.309C238.309 72.9974 245.585 80.8285 254.989 81.5199L256.309 63.5684ZM256.309 52.7524L258.541 34.8914C253.418 34.251 248.267 35.8413 244.396 39.2581C240.526 42.675 238.309 47.5894 238.309 52.7524H256.309ZM262.133 52.6244L268.453 69.4783C268.632 69.4112 268.81 69.3413 268.986 69.2686L262.133 52.6244ZM263.989 51.1524L250.019 39.8017C249.872 39.9824 249.729 40.166 249.589 40.3524L263.989 51.1524ZM265.333 48.9764L249.233 40.9265C249.111 41.1703 248.995 41.4168 248.884 41.6659L265.333 48.9764ZM266.293 45.8404L283.965 49.2607L266.293 45.8404ZM266.869 42.0644L249.038 39.6049C249.013 39.7852 248.991 39.9658 248.971 40.1468L266.869 42.0644ZM267.253 37.2644L249.291 36.0929C249.282 36.2227 249.275 36.3526 249.27 36.4825L267.253 37.2644ZM267.509 31.8884L249.534 30.9423C249.525 31.0997 249.519 31.2572 249.515 31.4148L267.509 31.8884ZM267.765 25.6804L249.787 24.7815C249.782 24.8778 249.778 24.9742 249.775 25.0705L267.765 25.6804ZM268.149 18.7684V36.7684H312.757V18.7684V0.768356H268.149V18.7684ZM312.757 18.7684H294.757V63.5684H312.757H330.757V18.7684H312.757ZM312.757 63.5684V45.5684H299.445V63.5684V81.5684H312.757V63.5684ZM299.445 63.5684H317.445V29.6484H299.445H281.445V63.5684H299.445ZM299.445 29.6484V11.6484H280.181V29.6484V47.6484H299.445V29.6484ZM280.181 29.6484L262.227 28.3659C262.131 29.7056 262.018 31.5687 261.888 33.8979L279.861 34.8964L297.833 35.8948C297.96 33.6161 298.06 31.9804 298.135 30.9308L280.181 29.6484ZM279.861 34.8964L261.89 33.8636C261.679 37.5342 261.503 40.0069 261.366 41.4458L279.285 43.1524L297.204 44.8589C297.408 42.7138 297.615 39.6825 297.831 35.9291L279.861 34.8964ZM279.285 43.1524L261.333 41.8388C261.255 42.9026 261.057 44.607 260.669 47.0936L278.453 49.8724L296.237 52.6511C296.702 49.6764 297.059 46.9007 297.237 44.4659L279.285 43.1524ZM278.453 49.8724L260.628 47.3658C260.572 47.7645 260.519 48.074 260.473 48.304C260.427 48.5359 260.396 48.6585 260.387 48.6888C260.378 48.7223 260.405 48.6164 260.487 48.4026C260.529 48.2926 260.589 48.1434 260.672 47.9617C260.755 47.7804 260.864 47.5558 261.006 47.2974L276.789 55.9524L292.571 64.6073C294.879 60.3987 295.798 55.7843 296.277 52.3789L278.453 49.8724ZM276.789 55.9524L260.906 47.4818C260.922 47.4518 260.723 47.8227 260.078 48.6056L273.973 60.0484L287.868 71.4911C289.612 69.3727 291.29 67.013 292.671 64.4229L276.789 55.9524ZM273.973 60.0484L259.877 48.8545C260.383 48.2169 261.049 47.5717 261.871 47.0117C262.692 46.4528 263.512 46.0849 264.234 45.8612L269.557 63.0564L274.879 80.2515C280.086 78.6397 284.633 75.569 288.069 71.2422L273.973 60.0484ZM269.557 63.0564L264.234 45.8612C264.431 45.8003 264.465 45.81 264.285 45.8336C264.106 45.8571 263.761 45.8884 263.221 45.8884V63.8884V81.8884C266.953 81.8884 270.94 81.4707 274.879 80.2515L269.557 63.0564ZM263.221 63.8884V45.8884C262.154 45.8884 260.35 45.8169 257.629 45.6168L256.309 63.5684L254.989 81.5199C258.07 81.7465 260.874 81.8884 263.221 81.8884V63.8884ZM256.309 63.5684H274.309V52.7524H256.309H238.309V63.5684H256.309ZM256.309 52.7524L254.076 70.6134C255.835 70.8332 257.776 71.0084 259.701 71.0084V53.0084V35.0084C259.805 35.0084 259.762 35.0125 259.535 34.9954C259.317 34.9789 258.991 34.9476 258.541 34.8914L256.309 52.7524ZM259.701 53.0084V71.0084C262.207 71.0084 265.262 70.675 268.453 69.4783L262.133 52.6244L255.813 35.7704C257.638 35.0857 259.072 35.0084 259.701 35.0084V53.0084ZM262.133 52.6244L268.986 69.2686C272.968 67.6291 276.109 64.9915 278.389 61.9524L263.989 51.1524L249.589 40.3524C250.844 38.6786 252.748 37.0223 255.279 35.9802L262.133 52.6244ZM263.989 51.1524L277.959 62.503C279.467 60.6462 280.766 58.5711 281.781 56.2868L265.333 48.9764L248.884 41.6659C249.217 40.9176 249.619 40.2931 250.019 39.8017L263.989 51.1524ZM265.333 48.9764L281.432 57.0262C282.841 54.209 283.553 51.3892 283.965 49.2607L266.293 45.8404L248.621 42.42C248.587 42.5944 248.586 42.5526 248.649 42.3475C248.707 42.1588 248.876 41.6401 249.233 40.9265L265.333 48.9764ZM266.293 45.8404L283.965 49.2607C284.306 47.4991 284.578 45.7365 284.766 43.982L266.869 42.0644L248.971 40.1468C248.903 40.7815 248.792 41.5362 248.621 42.42L266.293 45.8404ZM266.869 42.0644L284.7 44.5238C284.978 42.5094 285.138 40.292 285.236 38.0462L267.253 37.2644L249.27 36.4825C249.197 38.1621 249.101 39.1447 249.038 39.6049L266.869 42.0644ZM267.253 37.2644L285.215 38.4358C285.355 36.2875 285.453 34.2586 285.503 32.3619L267.509 31.8884L249.515 31.4148C249.48 32.7607 249.407 34.3158 249.291 36.0929L267.253 37.2644ZM267.509 31.8884L285.484 32.8344C285.577 31.0579 285.667 28.8659 285.754 26.2902L267.765 25.6804L249.775 25.0705C249.692 27.5294 249.611 29.4762 249.534 30.9423L267.509 31.8884ZM267.765 25.6804L285.742 26.5792C285.867 24.0764 285.991 21.8489 286.114 19.8912L268.149 18.7684L250.184 17.6455C250.05 19.7838 249.918 22.1643 249.787 24.7815L267.765 25.6804ZM357.131 18.7684V0.768356C350.724 0.768356 344.8 4.17409 341.576 9.71092L357.131 18.7684ZM377.611 18.7684H395.611C395.611 8.82723 387.552 0.768356 377.611 0.768356V18.7684ZM377.611 63.5684V81.5684C387.552 81.5684 395.611 73.5095 395.611 63.5684H377.611ZM364.619 63.5684H346.619C346.619 73.5095 354.678 81.5684 364.619 81.5684V63.5684ZM364.619 28.1764H382.619C382.619 20.0418 377.164 12.9182 369.31 10.7983C361.457 8.67845 353.157 12.0892 349.064 19.1189L364.619 28.1764ZM344.011 63.5684V81.5684C350.418 81.5684 356.342 78.1626 359.566 72.6258L344.011 63.5684ZM323.531 63.5684H305.531C305.531 73.5095 313.59 81.5684 323.531 81.5684V63.5684ZM323.531 18.7684V0.768356C313.59 0.768356 305.531 8.82723 305.531 18.7684H323.531ZM336.523 18.7684H354.523C354.523 8.82723 346.464 0.768356 336.523 0.768356V18.7684ZM336.523 54.1604H318.523C318.523 62.2949 323.979 69.4185 331.832 71.5384C339.686 73.6583 347.985 70.2475 352.078 63.2178L336.523 54.1604ZM357.131 18.7684V36.7684H377.611V18.7684V0.768356H357.131V18.7684ZM377.611 18.7684H359.611V63.5684H377.611H395.611V18.7684H377.611ZM377.611 63.5684V45.5684H364.619V63.5684V81.5684H377.611V63.5684ZM364.619 63.5684H382.619V28.1764H364.619H346.619V63.5684H364.619ZM364.619 28.1764L349.064 19.1189L328.456 54.5109L344.011 63.5684L359.566 72.6258L380.174 37.2338L364.619 28.1764ZM344.011 63.5684V45.5684H323.531V63.5684V81.5684H344.011V63.5684ZM323.531 63.5684H341.531V18.7684H323.531H305.531V63.5684H323.531ZM323.531 18.7684V36.7684H336.523V18.7684V0.768356H323.531V18.7684ZM336.523 18.7684H318.523V54.1604H336.523H354.523V18.7684H336.523ZM336.523 54.1604L352.078 63.2178L372.686 27.8258L357.131 18.7684L341.576 9.71092L320.968 45.1029L336.523 54.1604ZM428.728 47.0564L429.618 29.0784C421.813 28.692 414.651 33.3852 411.889 40.6951L428.728 47.0564ZM441.656 47.6964L459.418 50.6105C460.249 45.5504 458.881 40.3764 455.659 36.3871C452.438 32.3978 447.667 29.9719 442.546 29.7184L441.656 47.6964ZM433.528 60.1124L424.014 44.8322C423.992 44.8457 423.97 44.8593 423.949 44.8729L433.528 60.1124ZM393.464 58.2564L382.219 72.312C382.243 72.3311 382.267 72.3502 382.291 72.3692L393.464 58.2564ZM393.272 24.1444L404.618 38.1181C404.642 38.0987 404.666 38.0792 404.689 38.0597L393.272 24.1444ZM432.248 22.2884L422.759 37.5841C422.793 37.6053 422.827 37.6264 422.862 37.6474L432.248 22.2884ZM440.696 33.8084L441.863 51.7705C447.073 51.4319 451.878 48.8484 455.034 44.6902C458.19 40.5319 459.385 35.2084 458.31 30.1002L440.696 33.8084ZM427.896 34.6404L411.268 41.5346C414.22 48.6524 421.374 53.1022 429.063 52.6025L427.896 34.6404ZM423.096 30.4164L415.971 46.9462V46.9462L423.096 30.4164ZM403 32.2084L414.677 45.9066C414.683 45.9013 414.69 45.8959 414.696 45.8905L403 32.2084ZM403.192 50.1924L391.841 64.1624C391.876 64.1911 391.912 64.2196 391.947 64.248L403.192 50.1924ZM424.12 51.7284L415.953 35.6874C415.914 35.7077 415.874 35.7282 415.834 35.7488L424.12 51.7284ZM428.728 47.0564L427.838 65.0343L440.766 65.6743L441.656 47.6964L442.546 29.7184L429.618 29.0784L428.728 47.0564ZM441.656 47.6964L423.893 44.7822C423.845 45.0736 423.797 45.2047 423.793 45.2159C423.79 45.2226 423.796 45.206 423.814 45.1712C423.832 45.1362 423.857 45.0902 423.892 45.0375C423.926 44.9847 423.964 44.9334 424.004 44.8859C424.043 44.8386 424.078 44.8025 424.103 44.7781C424.128 44.7539 424.139 44.7467 424.128 44.7549C424.117 44.7633 424.081 44.7902 424.014 44.8322L433.528 60.1124L443.042 75.3925C452.158 69.7163 457.72 60.9633 459.418 50.6105L441.656 47.6964ZM433.528 60.1124L423.949 44.8729C423.395 45.221 421.028 46.3364 415.096 46.3364V64.3364V82.3364C424.78 82.3364 434.701 80.6357 443.107 75.3518L433.528 60.1124ZM415.096 64.3364V46.3364C408.171 46.3364 405.471 44.8045 404.636 44.1435L393.464 58.2564L382.291 72.3692C391.696 79.8149 403.418 82.3364 415.096 82.3364V64.3364ZM393.464 58.2564L404.708 44.2007C404.263 43.8446 404.172 43.6462 404.122 43.5335C404.046 43.3638 403.784 42.6969 403.784 41.1684H385.784H367.784C367.784 53.2316 372.311 64.385 382.219 72.312L393.464 58.2564ZM385.784 41.1684H403.784C403.784 39.5797 404.051 38.873 404.132 38.6876C404.185 38.5672 404.257 38.4114 404.618 38.1181L393.272 24.1444L381.926 10.1707C372.124 18.129 367.784 29.273 367.784 41.1684H385.784ZM393.272 24.1444L404.689 38.0597C405.399 37.4773 407.803 36.0004 414.264 36.0004V18.0004V0.000358582C402.719 0.000358582 391.128 2.6194 381.854 10.229L393.272 24.1444ZM414.264 18.0004V36.0004C419.462 36.0004 421.853 37.0223 422.759 37.5841L432.248 22.2884L441.737 6.99264C433.426 1.83713 423.828 0.000358582 414.264 0.000358582V18.0004ZM432.248 22.2884L422.862 37.6474C423.156 37.8273 423.303 37.9511 423.352 37.9946C423.397 38.035 423.366 38.0139 423.3 37.9249C423.27 37.8829 423.237 37.8331 423.205 37.7774C423.172 37.7217 423.145 37.6675 423.123 37.6179C423.077 37.5129 423.072 37.4681 423.082 37.5166L440.696 33.8084L458.31 30.1002C456.17 19.9375 450.065 12.0815 441.634 6.92928L432.248 22.2884ZM440.696 33.8084L439.528 15.8463L426.728 16.6783L427.896 34.6404L429.063 52.6025L441.863 51.7705L440.696 33.8084ZM427.896 34.6404L444.523 27.7461C441.365 20.1284 435.169 16.0194 430.221 13.8865L423.096 30.4164L415.971 46.9462C415.908 46.9192 415.199 46.6111 414.26 45.7852C413.258 44.903 412.084 43.5013 411.268 41.5346L427.896 34.6404ZM423.096 30.4164L430.221 13.8865C424.982 11.6284 419.498 10.8164 414.264 10.8164V28.8164V46.8164C415.856 46.8164 416.26 47.071 415.971 46.9462L423.096 30.4164ZM414.264 28.8164V10.8164C406.804 10.8164 398.299 12.5465 391.304 18.5262L403 32.2084L414.696 45.8905C414.313 46.2177 413.941 46.4592 413.621 46.6287C413.306 46.7956 413.08 46.8726 412.99 46.8998C412.836 46.9461 413.186 46.8164 414.264 46.8164V28.8164ZM403 32.2084L391.323 18.5101C384.285 24.5092 381.096 32.7243 381.096 41.1684H399.096H417.096C417.096 41.3905 417.05 42.2074 416.573 43.3024C416.077 44.442 415.351 45.332 414.677 45.9066L403 32.2084ZM399.096 41.1684H381.096C381.096 49.8945 384.536 58.2274 391.841 64.1624L403.192 50.1924L414.542 36.2223C415.196 36.7531 415.967 37.6351 416.51 38.8327C417.036 39.9902 417.096 40.8831 417.096 41.1684H399.096ZM403.192 50.1924L391.947 64.248C399.079 69.9532 407.644 71.5204 415.096 71.5204V53.5204V35.5204C414.444 35.5204 413.959 35.4851 413.619 35.4438C413.279 35.4025 413.115 35.3589 413.094 35.3531C413.072 35.3469 413.654 35.5112 414.436 36.1367L403.192 50.1924ZM415.096 53.5204V71.5204C420.532 71.5204 426.679 70.6772 432.405 67.7079L424.12 51.7284L415.834 35.7488C416.432 35.4385 416.763 35.3907 416.63 35.4171C416.491 35.4446 416.011 35.5204 415.096 35.5204V53.5204ZM424.12 51.7284L432.286 67.7693C437.461 65.1349 442.848 60.614 445.566 53.4176L428.728 47.0564L411.889 40.6951C412.472 39.1522 413.338 37.9154 414.216 37.0245C415.05 36.1797 415.744 35.7938 415.953 35.6874L424.12 51.7284ZM493.062 60.0484L503.346 74.8208C503.359 74.8121 503.372 74.8033 503.384 74.7945L493.062 60.0484ZM449.094 63.5684H431.094C431.094 73.5095 439.153 81.5684 449.094 81.5684V63.5684ZM449.094 18.7684V0.768356C439.153 0.768356 431.094 8.82723 431.094 18.7684H449.094ZM462.406 18.7684H480.406C480.406 8.82723 472.347 0.768356 462.406 0.768356V18.7684ZM462.406 34.0004H444.406C444.406 43.9415 452.465 52.0004 462.406 52.0004V34.0004ZM462.406 44.4964V26.4964C452.465 26.4964 444.406 34.5552 444.406 44.4964H462.406ZM462.406 52.6884H444.406C444.406 62.6295 452.465 70.6884 462.406 70.6884V52.6884ZM479.558 34.0004V52.0004C482.694 52.0004 483.229 52.6735 482.739 52.3305L493.062 37.5844L503.384 22.8382C496.068 17.7166 487.6 16.0004 479.558 16.0004V34.0004ZM493.062 37.5844L482.739 52.3305C482.342 52.052 481.896 51.6629 481.474 51.1557C481.05 50.6475 480.734 50.1225 480.515 49.6408C480.081 48.6856 480.182 48.2543 480.182 48.8484H498.182H516.182C516.182 39.3732 512.732 29.3817 503.384 22.8382L493.062 37.5844ZM498.182 48.8484H480.182C480.182 49.4006 480.088 48.9425 480.531 47.9727C481.032 46.8774 481.861 45.9174 482.739 45.3022L493.062 60.0484L503.384 74.7945C512.689 68.281 516.182 58.3448 516.182 48.8484H498.182ZM493.062 60.0484L482.777 45.2759C483.358 44.8712 482.843 45.5684 479.558 45.5684V63.5684V81.5684C487.536 81.5684 496.024 79.9188 503.346 74.8208L493.062 60.0484ZM479.558 63.5684V45.5684H454.662V63.5684V81.5684H479.558V63.5684ZM454.662 63.5684V45.5684H449.094V63.5684V81.5684H454.662V63.5684ZM449.094 63.5684H467.094V18.7684H449.094H431.094V63.5684H449.094ZM449.094 18.7684V36.7684H462.406V18.7684V0.768356H449.094V18.7684ZM462.406 18.7684H444.406V34.0004H462.406H480.406V18.7684H462.406ZM462.406 34.0004V52.0004H479.558V34.0004V16.0004H462.406V34.0004ZM478.918 52.6884V70.6884C482.408 70.6884 488.214 70.1892 493.586 66.4925C500.171 61.9606 502.87 54.9607 502.87 48.5924H484.87H466.87C466.87 47.0938 467.148 44.9128 468.298 42.5376C469.49 40.0772 471.259 38.1563 473.177 36.8363C474.979 35.5969 476.597 35.0946 477.497 34.888C477.967 34.7802 478.329 34.7326 478.552 34.7107C478.776 34.6887 478.904 34.6884 478.918 34.6884V52.6884ZM484.87 48.5924H502.87C502.87 42.224 500.171 35.2241 493.586 30.6923C488.214 26.9955 482.408 26.4964 478.918 26.4964V44.4964V62.4964C478.904 62.4964 478.776 62.496 478.552 62.474C478.329 62.4521 477.967 62.4045 477.497 62.2967C476.597 62.0901 474.979 61.5879 473.177 60.3485C471.259 59.0284 469.49 57.1075 468.298 54.6471C467.148 52.2719 466.87 50.0909 466.87 48.5924H484.87ZM478.918 44.4964V26.4964H462.406V44.4964V62.4964H478.918V44.4964ZM462.406 44.4964H444.406V52.6884H462.406H480.406V44.4964H462.406ZM462.406 52.6884V70.6884H478.918V52.6884V34.6884H462.406V52.6884ZM55.248 112.72L53.0268 94.8579C43.8972 95.9932 37.093 103.83 37.2507 113.029C37.4083 122.227 44.477 129.827 53.6401 130.648L55.248 112.72ZM64.464 132.304L74.2267 147.427V147.427L64.464 132.304ZM18 135.568H2.28882e-05C2.28882e-05 145.509 8.0589 153.568 18 153.568V135.568ZM18 90.7684V72.7684C8.0589 72.7684 2.28882e-05 80.8272 2.28882e-05 90.7684H18ZM62.672 94.0964L52.5077 108.952C52.5378 108.972 52.568 108.993 52.5982 109.013L62.672 94.0964ZM31.312 101.008V83.0084C21.3709 83.0084 13.312 91.0672 13.312 101.008H31.312ZM31.312 108.112H13.312C13.312 118.053 21.3709 126.112 31.312 126.112V108.112ZM52.816 107.152L42.9832 92.0754L42.9832 92.0754L52.816 107.152ZM54.288 124.496L47.1311 107.98C47.0622 108.01 46.9935 108.04 46.925 108.071L54.288 124.496ZM54.352 118.672L46.989 135.098L46.989 135.098L54.352 118.672ZM31.312 117.84V99.8404C21.3709 99.8404 13.312 107.899 13.312 117.84H31.312ZM31.312 125.328H13.312C13.312 135.269 21.3709 143.328 31.312 143.328V125.328ZM55.248 112.72L53.6401 130.648C55.0954 130.779 55.8906 130.974 56.1949 131.067C56.5035 131.162 56.0243 131.066 55.2039 130.455C54.2984 129.781 53.2234 128.656 52.4444 127.056C51.6801 125.486 51.52 124.117 51.52 123.344H69.52H87.52C87.52 114.877 83.9043 106.94 76.7002 101.578C70.4907 96.9553 63.0951 95.3519 56.8559 94.7923L55.248 112.72ZM69.52 123.344H51.52C51.52 122.484 51.7401 121.074 52.5796 119.586C53.396 118.14 54.3529 117.407 54.7014 117.182L64.464 132.304L74.2267 147.427C82.3842 142.161 87.52 133.658 87.52 123.344H69.52ZM64.464 132.304L54.7014 117.182C55.273 116.813 55.3291 116.949 54.358 117.158C53.3976 117.366 51.7899 117.568 49.36 117.568V135.568V153.568C57.4461 153.568 66.5906 152.357 74.2267 147.427L64.464 132.304ZM49.36 135.568V117.568H18V135.568V153.568H49.36V135.568ZM18 135.568H36V90.7684H18H2.28882e-05V135.568H18ZM18 90.7684V108.768H49.36V90.7684V72.7684H18V90.7684ZM49.36 90.7684V108.768C51.0289 108.768 52.0394 108.936 52.5464 109.063C53.0268 109.183 52.9127 109.229 52.5077 108.952L62.672 94.0964L72.8363 79.2408C65.5606 74.2627 57.1144 72.7684 49.36 72.7684V90.7684ZM62.672 94.0964L52.5982 109.013C52.3676 108.858 51.4896 108.192 50.7043 106.805C49.88 105.349 49.6 103.876 49.6 102.8H67.6H85.6C85.6 92.527 80.3693 84.3276 72.7459 79.1793L62.672 94.0964ZM67.6 102.8H49.6C49.6 101.953 49.7666 100.573 50.4928 99.0039C51.2331 97.4044 52.2766 96.2125 53.2409 95.438C54.1323 94.7221 54.7574 94.5168 54.6966 94.5381C54.6339 94.5601 54.1342 94.7202 53.0268 94.8579L55.248 112.72L57.4693 130.583C63.1693 129.874 70.0332 128.124 75.7831 123.507C82.3743 118.213 85.6 110.684 85.6 102.8H67.6ZM31.312 101.008H13.312V108.112H31.312H49.312V101.008H31.312ZM31.312 108.112V126.112H48.72V108.112V90.1124H31.312V108.112ZM48.72 108.112V126.112C52.3462 126.112 57.6334 125.5 62.6488 122.229L52.816 107.152L42.9832 92.0754C46.036 90.0844 48.5925 90.1124 48.72 90.1124V108.112ZM52.816 107.152L62.6488 122.229C68.3826 118.49 72.288 112.119 72.288 104.528H54.288H36.288C36.288 102.334 36.8021 99.7401 38.2215 97.2098C39.6183 94.7198 41.4511 93.0746 42.9832 92.0754L52.816 107.152ZM54.288 104.528H72.288C72.288 97.6914 69.0772 90.8226 62.5145 86.6737C57.3436 83.4048 51.8919 83.0084 48.72 83.0084V101.008V119.008C48.7158 119.008 48.6058 119.008 48.406 118.99C48.2083 118.973 47.8784 118.933 47.4444 118.842C46.633 118.671 45.071 118.237 43.2776 117.103C41.3629 115.893 39.403 114.011 38.0178 111.384C36.66 108.809 36.288 106.343 36.288 104.528H54.288ZM48.72 101.008V83.0084H31.312V101.008V119.008H48.72V101.008ZM48.016 125.328V143.328C51.209 143.328 56.6594 143.159 61.651 140.922L54.288 124.496L46.925 108.071C47.7965 107.681 48.4786 107.487 48.8344 107.398C49.2058 107.305 49.4209 107.277 49.425 107.277C49.4374 107.275 49.3286 107.29 49.074 107.304C48.8234 107.317 48.4749 107.328 48.016 107.328V125.328ZM54.288 124.496L61.445 141.012C64.5949 139.647 68.0925 137.264 70.7049 133.345C73.3349 129.4 74.208 125.189 74.208 121.616H56.208H38.208C38.208 119.41 38.7612 116.361 40.7511 113.376C42.7235 110.417 45.2611 108.791 47.1311 107.98L54.288 124.496ZM56.208 121.616H74.208C74.208 118.245 73.4454 114.15 70.9707 110.225C68.4676 106.255 65.0111 103.725 61.715 102.247L54.352 118.672L46.989 135.098C44.9303 134.175 42.4018 132.413 40.5174 129.424C38.6613 126.48 38.208 123.58 38.208 121.616H56.208ZM54.352 118.672L61.715 102.247C56.9179 100.097 51.8961 99.8404 48.656 99.8404V117.84V135.84C49.3336 135.84 49.5405 135.88 49.3984 135.859C49.3131 135.847 49.0619 135.807 48.6842 135.706C48.3122 135.608 47.72 135.425 46.989 135.098L54.352 118.672ZM48.656 117.84V99.8404H31.312V117.84V135.84H48.656V117.84ZM31.312 117.84H13.312V125.328H31.312H49.312V117.84H31.312ZM31.312 125.328V143.328H48.016V125.328V107.328H31.312V125.328ZM82.3745 130.192L93.4494 116.003L82.3745 130.192ZM82.3745 96.1444L71.2997 81.9547L71.2996 81.9547L82.3745 96.1444ZM126.151 96.1444L137.225 81.9547L126.151 96.1444ZM126.151 130.192L115.076 116.003V116.003L126.151 130.192ZM92.1025 104.208L103.139 118.428C103.148 118.421 103.158 118.413 103.168 118.405L92.1025 104.208ZM92.1025 122.192L80.9353 136.309C81.0125 136.371 81.0902 136.431 81.1684 136.491L92.1025 122.192ZM116.359 122.192L127.395 136.412C127.404 136.405 127.414 136.397 127.424 136.389L116.359 122.192ZM116.359 104.208L105.191 118.325C105.268 118.387 105.346 118.447 105.424 118.507L116.359 104.208ZM82.3745 130.192L93.4494 116.003C92.9322 115.599 92.8412 115.381 92.8084 115.31C92.7534 115.191 92.5025 114.602 92.5025 113.168H74.5025H56.5025C56.5025 125.395 61.2505 136.539 71.2997 144.382L82.3745 130.192ZM74.5025 113.168H92.5025C92.5025 111.735 92.7534 111.146 92.8084 111.027C92.8412 110.956 92.9322 110.738 93.4494 110.334L82.3745 96.1444L71.2996 81.9547C61.2505 89.7979 56.5025 100.941 56.5025 113.168H74.5025ZM82.3745 96.1444L93.4494 110.334C94.4766 109.532 97.3451 108 104.263 108V90.0004V72.0004C92.4919 72.0004 80.7684 74.5644 71.2997 81.9547L82.3745 96.1444ZM104.263 90.0004V108C111.18 108 114.048 109.532 115.076 110.334L126.151 96.1444L137.225 81.9547C127.757 74.5644 116.033 72.0004 104.263 72.0004V90.0004ZM126.151 96.1444L115.076 110.334C115.593 110.738 115.684 110.956 115.717 111.027C115.772 111.146 116.023 111.735 116.023 113.168H134.023H152.023C152.023 100.941 147.275 89.7979 137.225 81.9547L126.151 96.1444ZM134.023 113.168H116.023C116.023 114.602 115.772 115.191 115.717 115.31C115.684 115.381 115.593 115.599 115.076 116.003L126.151 130.192L137.225 144.382C147.275 136.539 152.023 125.395 152.023 113.168H134.023ZM126.151 130.192L115.076 116.003C114.048 116.804 111.18 118.336 104.263 118.336V136.336V154.336C116.033 154.336 127.757 151.772 137.225 144.382L126.151 130.192ZM104.263 136.336V118.336C97.3451 118.336 94.4766 116.804 93.4494 116.003L82.3745 130.192L71.2997 144.382C80.7684 151.772 92.4919 154.336 104.263 154.336V136.336ZM92.1025 104.208L81.0663 89.9886C73.6254 95.7636 69.8145 104.096 69.8145 113.168H87.8145H105.815C105.815 113.619 105.716 114.644 105.123 115.883C104.52 117.143 103.712 117.983 103.139 118.428L92.1025 104.208ZM87.8145 113.168H69.8145C69.8145 122.233 73.6119 130.516 80.9353 136.309L92.1025 122.192L103.27 108.075C103.797 108.492 104.566 109.298 105.144 110.515C105.715 111.716 105.815 112.715 105.815 113.168H87.8145ZM92.1025 122.192L81.1684 136.491C88.2973 141.942 96.7376 143.52 104.263 143.52V125.52V107.52C102.9 107.52 102.232 107.371 102.07 107.327C101.949 107.294 102.387 107.397 103.037 107.894L92.1025 122.192ZM104.263 125.52V143.52C111.765 143.52 120.258 141.951 127.395 136.412L116.359 122.192L105.322 107.973C106.021 107.43 106.509 107.307 106.416 107.333C106.28 107.37 105.628 107.52 104.263 107.52V125.52ZM116.359 122.192L127.424 136.389C134.806 130.636 138.711 122.337 138.711 113.168H120.711H102.711C102.711 112.677 102.82 111.644 103.41 110.421C104.005 109.187 104.785 108.391 105.293 107.995L116.359 122.192ZM120.711 113.168H138.711C138.711 103.991 134.792 95.6444 127.293 89.9099L116.359 104.208L105.424 118.507C104.872 118.084 104.051 117.253 103.431 115.977C102.819 114.716 102.711 113.657 102.711 113.168H120.711ZM116.359 104.208L127.526 90.0913C120.376 84.4355 111.83 82.8164 104.263 82.8164V100.816V118.816C105.603 118.816 106.225 118.966 106.33 118.996C106.391 119.013 105.888 118.877 105.191 118.325L116.359 104.208ZM104.263 100.816V82.8164C96.673 82.8164 88.1794 84.4445 81.0371 90.0113L92.1025 104.208L103.168 118.405C102.52 118.911 102.067 119.027 102.155 119.002C102.287 118.966 102.925 118.816 104.263 118.816V100.816ZM194.156 90.7684H212.156C212.156 80.8272 204.097 72.7684 194.156 72.7684V90.7684ZM194.156 135.568V153.568C204.097 153.568 212.156 145.509 212.156 135.568H194.156ZM180.844 135.568H162.844C162.844 145.509 170.902 153.568 180.844 153.568V135.568ZM180.844 101.648H198.844C198.844 91.7072 190.785 83.6484 180.844 83.6484V101.648ZM155.5 101.648V83.6484C145.558 83.6484 137.5 91.7072 137.5 101.648H155.5ZM155.5 135.568V153.568C165.441 153.568 173.5 145.509 173.5 135.568H155.5ZM142.188 135.568H124.188C124.188 145.509 132.246 153.568 142.188 153.568V135.568ZM142.188 90.7684V72.7684C132.246 72.7684 124.188 80.8272 124.188 90.7684H142.188ZM194.156 90.7684H176.156V135.568H194.156H212.156V90.7684H194.156ZM194.156 135.568V117.568H180.844V135.568V153.568H194.156V135.568ZM180.844 135.568H198.844V101.648H180.844H162.844V135.568H180.844ZM180.844 101.648V83.6484H155.5V101.648V119.648H180.844V101.648ZM155.5 101.648H137.5V135.568H155.5H173.5V101.648H155.5ZM155.5 135.568V117.568H142.188V135.568V153.568H155.5V135.568ZM142.188 135.568H160.188V90.7684H142.188H124.188V135.568H142.188ZM142.188 90.7684V108.768H194.156V90.7684V72.7684H142.188V90.7684ZM249.29 94.5444L238.777 109.155C238.844 109.204 238.911 109.252 238.979 109.299L249.29 94.5444ZM249.546 116.944L259.574 131.892C259.617 131.863 259.66 131.834 259.703 131.805L249.546 116.944ZM218.25 120.336V102.336C208.308 102.336 200.25 110.395 200.25 120.336H218.25ZM218.25 135.568V153.568C228.191 153.568 236.25 145.509 236.25 135.568H218.25ZM204.938 135.568H186.938C186.938 145.509 194.996 153.568 204.938 153.568V135.568ZM204.938 90.7684V72.7684C194.996 72.7684 186.938 80.8272 186.938 90.7684H204.938ZM218.25 101.648V83.6484C208.308 83.6484 200.25 91.7072 200.25 101.648H218.25ZM218.25 110.096H200.25C200.25 120.037 208.308 128.096 218.25 128.096V110.096ZM235.978 90.7684V108.768C237.272 108.768 238.043 108.921 238.426 109.029C238.776 109.129 238.839 109.2 238.777 109.155L249.29 94.5444L259.802 79.9334C252.555 74.7192 244.183 72.7684 235.978 72.7684V90.7684ZM249.29 94.5444L238.979 109.299C238.263 108.798 237.479 107.946 236.976 106.875C236.523 105.908 236.602 105.412 236.602 105.872H254.602H272.602C272.602 96.0972 268.853 86.256 259.6 79.7898L249.29 94.5444ZM254.602 105.872H236.602C236.602 106.461 236.501 105.985 236.964 104.971C237.492 103.816 238.386 102.769 239.388 102.084L249.546 116.944L259.703 131.805C269.193 125.318 272.602 115.258 272.602 105.872H254.602ZM249.546 116.944L239.517 101.997C240.077 101.621 239.452 102.336 235.978 102.336V120.336V138.336C243.853 138.336 252.273 136.79 259.574 131.892L249.546 116.944ZM235.978 120.336V102.336H218.25V120.336V138.336H235.978V120.336ZM218.25 120.336H200.25V135.568H218.25H236.25V120.336H218.25ZM218.25 135.568V117.568H204.938V135.568V153.568H218.25V135.568ZM204.938 135.568H222.938V90.7684H204.938H186.938V135.568H204.938ZM204.938 90.7684V108.768H218.25V90.7684V72.7684H204.938V90.7684ZM218.25 90.7684V108.768H235.978V90.7684V72.7684H218.25V90.7684ZM235.338 110.096V128.096C238.904 128.096 244.804 127.562 250.219 123.719C256.767 119.072 259.29 112.058 259.29 105.872H241.29H223.29C223.29 104.469 223.54 102.378 224.625 100.068C225.754 97.6643 227.461 95.726 229.384 94.3612C231.194 93.0765 232.845 92.5411 233.798 92.3158C234.744 92.092 235.323 92.0964 235.338 92.0964V110.096ZM241.29 105.872H259.29C259.29 99.6868 256.767 92.6724 250.219 88.0252C244.804 84.1826 238.904 83.6484 235.338 83.6484V101.648V119.648C235.323 119.648 234.744 119.653 233.798 119.429C232.845 119.204 231.194 118.668 229.384 117.383C227.461 116.019 225.754 114.08 224.625 111.677C223.54 109.367 223.29 107.275 223.29 105.872H241.29ZM235.338 101.648V83.6484H218.25V101.648V119.648H235.338V101.648ZM218.25 101.648H200.25V110.096H218.25H236.25V101.648H218.25ZM218.25 110.096V128.096H235.338V110.096V92.0964H218.25V110.096ZM267.625 130.192L278.699 116.003L267.625 130.192ZM267.625 96.1444L256.55 81.9547V81.9547L267.625 96.1444ZM311.401 96.1444L322.475 81.9547L311.401 96.1444ZM311.401 130.192L300.326 116.003V116.003L311.401 130.192ZM277.353 104.208L288.389 118.428C288.398 118.421 288.408 118.413 288.418 118.405L277.353 104.208ZM277.353 122.192L266.185 136.309C266.262 136.371 266.34 136.431 266.418 136.491L277.353 122.192ZM301.609 122.192L312.645 136.412C312.654 136.405 312.664 136.397 312.674 136.389L301.609 122.192ZM301.609 104.208L290.441 118.325C290.518 118.387 290.596 118.447 290.674 118.507L301.609 104.208ZM267.625 130.192L278.699 116.003C278.182 115.599 278.091 115.381 278.058 115.31C278.003 115.191 277.753 114.602 277.753 113.168H259.753H241.753C241.753 125.395 246.5 136.539 256.55 144.382L267.625 130.192ZM259.753 113.168H277.753C277.753 111.735 278.003 111.146 278.058 111.027C278.091 110.956 278.182 110.738 278.699 110.334L267.625 96.1444L256.55 81.9547C246.5 89.7979 241.753 100.941 241.753 113.168H259.753ZM267.625 96.1444L278.699 110.334C279.727 109.532 282.595 108 289.513 108V90.0004V72.0004C277.742 72.0004 266.018 74.5644 256.55 81.9547L267.625 96.1444ZM289.513 90.0004V108C296.43 108 299.298 109.532 300.326 110.334L311.401 96.1444L322.475 81.9547C313.007 74.5644 301.283 72.0004 289.513 72.0004V90.0004ZM311.401 96.1444L300.326 110.334C300.843 110.738 300.934 110.956 300.967 111.027C301.022 111.146 301.273 111.735 301.273 113.168H319.273H337.273C337.273 100.941 332.525 89.7979 322.475 81.9547L311.401 96.1444ZM319.273 113.168H301.273C301.273 114.602 301.022 115.191 300.967 115.31C300.934 115.381 300.843 115.599 300.326 116.003L311.401 130.192L322.475 144.382C332.525 136.539 337.273 125.395 337.273 113.168H319.273ZM311.401 130.192L300.326 116.003C299.298 116.804 296.43 118.336 289.513 118.336V136.336V154.336C301.283 154.336 313.007 151.772 322.475 144.382L311.401 130.192ZM289.513 136.336V118.336C282.595 118.336 279.727 116.804 278.699 116.003L267.625 130.192L256.55 144.382C266.018 151.772 277.742 154.336 289.513 154.336V136.336ZM277.353 104.208L266.316 89.9886C258.875 95.7636 255.065 104.096 255.065 113.168H273.065H291.065C291.065 113.619 290.966 114.644 290.373 115.883C289.77 117.143 288.962 117.983 288.389 118.428L277.353 104.208ZM273.065 113.168H255.065C255.065 122.233 258.862 130.516 266.185 136.309L277.353 122.192L288.52 108.075C289.047 108.492 289.816 109.298 290.394 110.515C290.965 111.716 291.065 112.715 291.065 113.168H273.065ZM277.353 122.192L266.418 136.491C273.547 141.942 281.988 143.52 289.513 143.52V125.52V107.52C288.15 107.52 287.482 107.371 287.32 107.327C287.199 107.294 287.637 107.397 288.287 107.894L277.353 122.192ZM289.513 125.52V143.52C297.015 143.52 305.508 141.951 312.645 136.412L301.609 122.192L290.572 107.973C291.271 107.43 291.759 107.307 291.666 107.333C291.53 107.37 290.878 107.52 289.513 107.52V125.52ZM301.609 122.192L312.674 136.389C320.056 130.636 323.961 122.337 323.961 113.168H305.961H287.961C287.961 112.677 288.07 111.644 288.659 110.421C289.255 109.187 290.035 108.391 290.543 107.995L301.609 122.192ZM305.961 113.168H323.961C323.961 103.991 320.042 95.6444 312.543 89.9099L301.609 104.208L290.674 118.507C290.122 118.084 289.301 117.253 288.681 115.977C288.069 114.716 287.961 113.657 287.961 113.168H305.961ZM301.609 104.208L312.776 90.0913C305.626 84.4355 297.08 82.8164 289.513 82.8164V100.816V118.816C290.853 118.816 291.475 118.966 291.58 118.996C291.641 119.013 291.138 118.877 290.441 118.325L301.609 104.208ZM289.513 100.816V82.8164C281.923 82.8164 273.429 84.4445 266.287 90.0113L277.353 104.208L288.418 118.405C287.77 118.911 287.317 119.027 287.405 119.002C287.537 118.966 288.175 118.816 289.513 118.816V100.816ZM367.822 119.056L368.712 101.078C360.907 100.692 353.745 105.385 350.983 112.695L367.822 119.056ZM380.75 119.696L398.512 122.611C399.342 117.55 397.975 112.376 394.753 108.387C391.531 104.398 386.761 101.972 381.64 101.718L380.75 119.696ZM372.622 132.112L363.107 116.832C363.086 116.846 363.064 116.859 363.042 116.873L372.622 132.112ZM332.558 130.256L321.313 144.312C321.337 144.331 321.361 144.35 321.385 144.369L332.558 130.256ZM332.366 96.1444L343.712 110.118C343.736 110.099 343.759 110.079 343.783 110.06L332.366 96.1444ZM371.342 94.2884L361.853 109.584C361.887 109.605 361.921 109.626 361.955 109.647L371.342 94.2884ZM379.79 105.808L380.957 123.77C386.166 123.432 390.972 120.848 394.128 116.69C397.284 112.532 398.479 107.208 397.403 102.1L379.79 105.808ZM366.99 106.64L350.362 113.535C353.313 120.652 360.468 125.102 368.157 124.602L366.99 106.64ZM362.19 102.416L355.065 118.946V118.946L362.19 102.416ZM342.094 104.208L353.771 117.907C353.777 117.901 353.783 117.896 353.79 117.891L342.094 104.208ZM342.286 122.192L330.935 136.162C330.97 136.191 331.006 136.22 331.041 136.248L342.286 122.192ZM363.214 123.728L355.047 107.687C355.007 107.708 354.968 107.728 354.928 107.749L363.214 123.728ZM367.822 119.056L366.932 137.034L379.86 137.674L380.75 119.696L381.64 101.718L368.712 101.078L367.822 119.056ZM380.75 119.696L362.987 116.782C362.939 117.074 362.891 117.205 362.887 117.216C362.884 117.223 362.89 117.206 362.908 117.171C362.925 117.136 362.951 117.09 362.986 117.038C363.02 116.985 363.058 116.933 363.097 116.886C363.137 116.839 363.171 116.803 363.197 116.778C363.222 116.754 363.232 116.747 363.222 116.755C363.211 116.763 363.175 116.79 363.107 116.832L372.622 132.112L382.136 147.393C391.252 141.716 396.814 132.963 398.512 122.611L380.75 119.696ZM372.622 132.112L363.042 116.873C362.489 117.221 360.121 118.336 354.19 118.336V136.336V154.336C363.874 154.336 373.794 152.636 382.201 147.352L372.622 132.112ZM354.19 136.336V118.336C347.264 118.336 344.565 116.804 343.73 116.144L332.558 130.256L321.385 144.369C330.79 151.815 342.512 154.336 354.19 154.336V136.336ZM332.558 130.256L343.802 116.201C343.357 115.845 343.266 115.646 343.216 115.533C343.139 115.364 342.878 114.697 342.878 113.168H324.878H306.878C306.878 125.232 311.404 136.385 321.313 144.312L332.558 130.256ZM324.878 113.168H342.878C342.878 111.58 343.145 110.873 343.226 110.688C343.279 110.567 343.35 110.411 343.712 110.118L332.366 96.1444L321.019 82.1707C311.218 90.129 306.878 101.273 306.878 113.168H324.878ZM332.366 96.1444L343.783 110.06C344.493 109.477 346.897 108 353.358 108V90.0004V72.0004C341.813 72.0004 330.222 74.6194 320.948 82.229L332.366 96.1444ZM353.358 90.0004V108C358.556 108 360.947 109.022 361.853 109.584L371.342 94.2884L380.831 78.9926C372.52 73.8371 362.922 72.0004 353.358 72.0004V90.0004ZM371.342 94.2884L361.955 109.647C362.25 109.827 362.397 109.951 362.446 109.995C362.491 110.035 362.46 110.014 362.394 109.925C362.363 109.883 362.331 109.833 362.298 109.777C362.266 109.722 362.239 109.667 362.217 109.618C362.171 109.513 362.165 109.468 362.176 109.517L379.79 105.808L397.403 102.1C395.264 91.9375 389.159 84.0815 380.728 78.9293L371.342 94.2884ZM379.79 105.808L378.622 87.8463L365.822 88.6783L366.99 106.64L368.157 124.602L380.957 123.77L379.79 105.808ZM366.99 106.64L383.617 99.7461C380.458 92.1284 374.263 88.0194 369.314 85.8865L362.19 102.416L355.065 118.946C355.002 118.919 354.293 118.611 353.354 117.785C352.352 116.903 351.178 115.501 350.362 113.535L366.99 106.64ZM362.19 102.416L369.314 85.8865C364.076 83.6284 358.591 82.8164 353.358 82.8164V100.816V118.816C354.95 118.816 355.354 119.071 355.065 118.946L362.19 102.416ZM353.358 100.816V82.8164C345.898 82.8164 337.393 84.5465 330.397 90.5262L342.094 104.208L353.79 117.891C353.407 118.218 353.035 118.459 352.715 118.629C352.4 118.796 352.174 118.873 352.084 118.9C351.93 118.946 352.28 118.816 353.358 118.816V100.816ZM342.094 104.208L330.416 90.5101C323.379 96.5092 320.19 104.724 320.19 113.168H338.19H356.19C356.19 113.39 356.144 114.207 355.667 115.302C355.171 116.442 354.445 117.332 353.771 117.907L342.094 104.208ZM338.19 113.168H320.19C320.19 121.894 323.63 130.227 330.935 136.162L342.286 122.192L353.636 108.222C354.289 108.753 355.061 109.635 355.604 110.833C356.13 111.99 356.19 112.883 356.19 113.168H338.19ZM342.286 122.192L331.041 136.248C338.173 141.953 346.738 143.52 354.19 143.52V125.52V107.52C353.538 107.52 353.052 107.485 352.712 107.444C352.373 107.402 352.209 107.359 352.188 107.353C352.166 107.347 352.748 107.511 353.53 108.137L342.286 122.192ZM354.19 125.52V143.52C359.626 143.52 365.773 142.677 371.499 139.708L363.214 123.728L354.928 107.749C355.526 107.439 355.856 107.391 355.724 107.417C355.585 107.445 355.105 107.52 354.19 107.52V125.52ZM363.214 123.728L371.38 139.769C376.554 137.135 381.941 132.614 384.66 125.418L367.822 119.056L350.983 112.695C351.566 111.152 352.431 109.915 353.31 109.025C354.143 108.18 354.838 107.794 355.047 107.687L363.214 123.728ZM430.94 132.048L441.224 146.821C441.237 146.812 441.249 146.803 441.262 146.795L430.94 132.048ZM388.188 135.568H370.188C370.188 145.509 378.246 153.568 388.188 153.568V135.568ZM388.188 90.7684V72.7684C378.246 72.7684 370.188 80.8272 370.188 90.7684H388.188ZM401.5 90.7684H419.5C419.5 80.8272 411.441 72.7684 401.5 72.7684V90.7684ZM401.5 106H383.5C383.5 115.941 391.558 124 401.5 124V106ZM442.652 90.7684V72.7684C432.71 72.7684 424.652 80.8272 424.652 90.7684H442.652ZM455.964 90.7684H473.964C473.964 80.8272 465.905 72.7684 455.964 72.7684V90.7684ZM455.964 135.568V153.568C465.905 153.568 473.964 145.509 473.964 135.568H455.964ZM442.652 135.568H424.652C424.652 145.509 432.71 153.568 442.652 153.568V135.568ZM401.5 116.496V98.4964C391.558 98.4964 383.5 106.555 383.5 116.496H401.5ZM401.5 124.688H383.5C383.5 134.629 391.558 142.688 401.5 142.688V124.688ZM417.436 106V124C420.572 124 421.107 124.673 420.617 124.331L430.94 109.584L441.262 94.8382C433.945 89.7166 425.478 88.0004 417.436 88.0004V106ZM430.94 109.584L420.617 124.331C420.219 124.052 419.774 123.663 419.352 123.156C418.928 122.648 418.612 122.123 418.393 121.641C417.959 120.686 418.06 120.254 418.06 120.848H436.06H454.06C454.06 111.373 450.61 101.382 441.262 94.8382L430.94 109.584ZM436.06 120.848H418.06C418.06 121.401 417.966 120.942 418.409 119.973C418.91 118.877 419.738 117.917 420.617 117.302L430.94 132.048L441.262 146.795C450.567 140.281 454.06 130.345 454.06 120.848H436.06ZM430.94 132.048L420.655 117.276C421.236 116.871 420.721 117.568 417.436 117.568V135.568V153.568C425.414 153.568 433.902 151.919 441.224 146.821L430.94 132.048ZM417.436 135.568V117.568H393.756V135.568V153.568H417.436V135.568ZM393.756 135.568V117.568H388.188V135.568V153.568H393.756V135.568ZM388.188 135.568H406.188V90.7684H388.188H370.188V135.568H388.188ZM388.188 90.7684V108.768H401.5V90.7684V72.7684H388.188V90.7684ZM401.5 90.7684H383.5V106H401.5H419.5V90.7684H401.5ZM401.5 106V124H417.436V106V88.0004H401.5V106ZM442.652 90.7684V108.768H455.964V90.7684V72.7684H442.652V90.7684ZM455.964 90.7684H437.964V135.568H455.964H473.964V90.7684H455.964ZM455.964 135.568V117.568H442.652V135.568V153.568H455.964V135.568ZM442.652 135.568H460.652V90.7684H442.652H424.652V135.568H442.652ZM416.796 124.688V142.688C420.286 142.688 426.092 142.189 431.464 138.492C438.049 133.961 440.748 126.961 440.748 120.592H422.748H404.748C404.748 119.094 405.025 116.913 406.176 114.538C407.368 112.077 409.137 110.156 411.055 108.836C412.856 107.597 414.475 107.095 415.375 106.888C415.845 106.78 416.207 106.733 416.429 106.711C416.654 106.689 416.782 106.688 416.796 106.688V124.688ZM422.748 120.592H440.748C440.748 114.224 438.049 107.224 431.464 102.692C426.092 98.9955 420.286 98.4964 416.796 98.4964V116.496V134.496C416.782 134.496 416.654 134.496 416.429 134.474C416.207 134.452 415.845 134.405 415.375 134.297C414.475 134.09 412.856 133.588 411.055 132.348C409.137 131.028 407.368 129.107 406.176 126.647C405.025 124.272 404.748 122.091 404.748 120.592H422.748ZM416.796 116.496V98.4964H401.5V116.496V134.496H416.796V116.496ZM401.5 116.496H383.5V124.688H401.5H419.5V116.496H401.5ZM401.5 124.688V142.688H416.796V124.688V106.688H401.5V124.688ZM462.336 105.744L444.449 103.725C443.893 108.653 445.394 113.592 448.599 117.376C451.803 121.161 456.427 123.456 461.379 123.719L462.336 105.744ZM469.312 93.9044L459.586 78.758L469.312 93.9044ZM499.52 93.2004L490.852 108.976C490.876 108.989 490.9 109.002 490.924 109.016L499.52 93.2004ZM502.976 109.072L489.774 96.8366L502.976 109.072ZM495.424 113.936L488.209 97.4455C488.194 97.4519 488.18 97.4584 488.165 97.4648L495.424 113.936ZM489.088 118.864V136.864C499.029 136.864 507.088 128.805 507.088 118.864H489.088ZM476.992 118.864H458.992C458.992 128.805 467.05 136.864 476.992 136.864V118.864ZM478.528 112.464L493.085 123.051L478.528 112.464ZM484.416 108.816L490.406 125.79L484.416 108.816ZM487.488 107.728L493.542 124.68C493.891 124.555 494.237 124.419 494.578 124.273L487.488 107.728ZM489.92 106.576L482.13 90.3489C482.043 90.3908 481.956 90.4334 481.87 90.4767L489.92 106.576ZM492.16 105.104L505.478 117.212V117.212L492.16 105.104ZM490.432 101.072L483.508 117.688C483.562 117.71 483.615 117.732 483.669 117.754L490.432 101.072ZM477.824 101.776L487.137 117.18V117.18L477.824 101.776ZM474.368 106.384L473.411 124.359C482.087 124.82 489.853 119.02 491.874 110.571L474.368 106.384ZM476.096 135.568H458.096C458.096 145.509 466.154 153.568 476.096 153.568V135.568ZM476.096 123.28V105.28C466.154 105.28 458.096 113.339 458.096 123.28H476.096ZM489.984 123.28H507.984C507.984 113.339 499.925 105.28 489.984 105.28V123.28ZM489.984 135.568V153.568C499.925 153.568 507.984 145.509 507.984 135.568H489.984ZM462.336 105.744L480.222 107.764C480.282 107.227 480.349 107.422 480.036 107.954C479.888 108.205 479.7 108.452 479.49 108.667C479.283 108.88 479.113 109.002 479.037 109.051L469.312 93.9044L459.586 78.758C450.458 84.619 445.581 93.6974 444.449 103.725L462.336 105.744ZM469.312 93.9044L479.037 109.051C479.414 108.808 480.944 108 484.864 108V90.0004V72.0004C476.154 72.0004 467.315 73.7949 459.586 78.758L469.312 93.9044ZM484.864 90.0004V108C488.682 108 490.356 108.704 490.852 108.976L499.52 93.2004L508.187 77.4248C500.917 73.4303 492.821 72.0004 484.864 72.0004V90.0004ZM499.52 93.2004L490.924 109.016C490.699 108.893 489.616 108.228 488.648 106.671C487.642 105.053 487.408 103.51 487.408 102.672H505.408H523.408C523.408 97.6535 522.191 92.4414 519.223 87.6655C516.292 82.9516 512.265 79.6406 508.115 77.3851L499.52 93.2004ZM505.408 102.672H487.408C487.408 101.971 487.527 100.942 487.973 99.7664C488.427 98.574 489.084 97.5805 489.774 96.8366L502.976 109.072L516.177 121.308C521.066 116.034 523.408 109.451 523.408 102.672H505.408ZM502.976 109.072L489.774 96.8366C490.211 96.3653 490.422 96.2761 490.125 96.4675C489.839 96.6513 489.239 96.9947 488.209 97.4455L495.424 113.936L502.638 130.427C507.18 128.44 512.196 125.603 516.177 121.308L502.976 109.072ZM495.424 113.936L488.165 97.4648C485.767 98.5214 482.537 100.006 480.045 101.75L490.368 116.496L500.69 131.243C500.488 131.384 500.334 131.483 500.246 131.537C500.155 131.594 500.102 131.624 500.094 131.629C500.086 131.633 500.178 131.581 500.403 131.467C500.861 131.235 501.598 130.886 502.682 130.408L495.424 113.936ZM490.368 116.496L480.045 101.75C476.251 104.406 471.088 109.939 471.088 118.544H489.088H507.088C507.088 121.701 506.156 124.622 504.672 126.996C503.287 129.211 501.687 130.545 500.69 131.243L490.368 116.496ZM489.088 118.544H471.088V118.864H489.088H507.088V118.544H489.088ZM489.088 118.864V100.864H476.992V118.864V136.864H489.088V118.864ZM476.992 118.864H494.992V118.032H476.992H458.992V118.864H476.992ZM476.992 118.032H494.992C494.992 118.312 494.923 120.524 493.085 123.051L478.528 112.464L463.97 101.877C460.084 107.22 458.992 113.145 458.992 118.032H476.992ZM478.528 112.464L493.085 123.051C491.858 124.738 490.636 125.557 490.248 125.798C489.836 126.053 489.8 126.004 490.406 125.79L484.416 108.816L478.425 91.8425C474.404 93.2617 468.231 96.0187 463.97 101.877L478.528 112.464ZM484.416 108.816L490.406 125.79C491.857 125.278 492.909 124.906 493.542 124.68L487.488 107.728L481.433 90.777C480.871 90.9779 479.876 91.3305 478.425 91.8425L484.416 108.816ZM487.488 107.728L494.578 124.273C495.654 123.812 496.828 123.247 497.969 122.676L489.92 106.576L481.87 90.4767C480.963 90.93 480.516 91.1327 480.397 91.1837L487.488 107.728ZM489.92 106.576L497.709 122.804C499.374 122.004 502.669 120.302 505.478 117.212L492.16 105.104L478.841 92.9962C479.964 91.761 480.975 91.0573 481.394 90.7817C481.645 90.6171 481.837 90.5063 481.949 90.4441C482.064 90.3808 482.128 90.35 482.13 90.3489L489.92 106.576ZM492.16 105.104L505.478 117.212C508.454 113.939 510.799 109.244 510.799 103.568H492.799H474.799C474.799 99.0016 476.718 95.331 478.841 92.9963L492.16 105.104ZM492.799 103.568H510.799C510.799 91.0177 500.578 85.7629 497.194 84.391L490.432 101.072L483.669 117.754C483.133 117.536 481.167 116.692 479.149 114.565C476.784 112.072 474.799 108.233 474.799 103.568H492.799ZM490.432 101.072L497.355 84.457C493.063 82.6687 488.72 82.1124 484.864 82.1124V100.112V118.112C485.08 118.112 485.052 118.129 484.829 118.091C484.602 118.051 484.133 117.948 483.508 117.688L490.432 101.072ZM484.864 100.112V82.1124C479.784 82.1124 473.942 83.0886 468.51 86.3732L477.824 101.776L487.137 117.18C485.374 118.245 484.226 118.112 484.864 118.112V100.112ZM477.824 101.776L468.51 86.3732C462.84 89.8018 458.526 95.2355 456.861 102.198L474.368 106.384L491.874 110.571C491.566 111.859 490.959 113.259 489.984 114.56C489.022 115.842 487.965 116.679 487.137 117.18L477.824 101.776ZM474.368 106.384L475.324 88.4098L463.292 87.7698L462.336 105.744L461.379 123.719L473.411 124.359L474.368 106.384ZM476.096 135.568H494.096V123.28H476.096H458.096V135.568H476.096ZM476.096 123.28V141.28H489.984V123.28V105.28H476.096V123.28ZM489.984 123.28H471.984V135.568H489.984H507.984V123.28H489.984ZM489.984 135.568V117.568H476.096V135.568V153.568H489.984V135.568Z" fill="#282828" mask="url(#path-1-outside-1_655_879)"></path></svg>