<svg xmlns="http://www.w3.org/2000/svg" width="809" height="65" viewBox="0 0 809 65" fill="none"><mask id="path-1-outside-1_923_83" maskUnits="userSpaceOnUse" x="-0.274414" y="-0.116211" width="810" height="65" fill="black"><rect fill="white" x="-0.274414" y="-0.116211" width="810" height="65"></rect><path d="M34.1156 33.3178C39.765 33.8245 42.5896 35.9271 42.5896 39.6258C42.5896 41.8805 41.589 43.6538 39.5876 44.9458C37.5863 46.2378 34.597 46.8838 30.6196 46.8838H11.9996V20.2838H30.6196C33.9636 20.2838 36.5983 20.9425 38.5236 22.2598C40.4743 23.5771 41.4496 25.2998 41.4496 27.4278C41.4496 30.7465 39.005 32.7098 34.1156 33.3178ZM19.9036 26.3638V30.5818H30.2396C31.2783 30.5818 32.089 30.3918 32.6716 30.0118C33.2543 29.6318 33.5456 29.1125 33.5456 28.4538C33.5456 27.0605 32.4436 26.3638 30.2396 26.3638H19.9036ZM29.8216 40.8038C31.5696 40.8038 32.811 40.6391 33.5456 40.3098C34.3056 39.9805 34.6856 39.4105 34.6856 38.5998C34.6856 37.7638 34.3183 37.1811 33.5836 36.8518C32.849 36.5225 31.7216 36.3578 30.2016 36.3578H19.9036V40.8038H29.8216ZM64.5082 29.3278C67.8269 29.3278 70.4995 30.0371 72.5262 31.4558C74.5529 32.8745 75.5662 35.1038 75.5662 38.1438C75.5662 41.1585 74.5529 43.3751 72.5262 44.7938C70.5249 46.1871 67.8522 46.8838 64.5082 46.8838H50.4482H47.1422V20.2838H55.0462V29.3278H64.5082ZM79.4802 20.2838H87.3842V46.8838H79.4802V20.2838ZM64.1282 40.4238C66.4842 40.4238 67.6622 39.6131 67.6622 37.9918C67.6622 36.3705 66.4842 35.5598 64.1282 35.5598H55.0462V40.4238H64.1282ZM112.486 30.1258C115.779 30.1258 118.439 30.8225 120.466 32.2158C122.518 33.5838 123.544 35.6738 123.544 38.4858C123.544 41.3485 122.53 43.4638 120.504 44.8318C118.477 46.1998 115.804 46.8838 112.486 46.8838H97.0576H93.7516V20.2838H101.656H120.656V26.3638H101.656V30.1258H112.486ZM111.878 40.8038C114.386 40.8038 115.64 40.0185 115.64 38.4478C115.64 36.9025 114.386 36.1298 111.878 36.1298H101.656V40.8038H111.878ZM147.879 20.2838H160.039V46.8838H152.325V25.8698L140.089 46.8838H127.929V20.2838H135.643V41.2978L147.879 20.2838ZM184.842 20.2838C188.034 20.2838 190.668 21.0311 192.746 22.5258C194.848 23.9951 195.9 26.2371 195.9 29.2518C195.9 32.2665 194.899 34.4578 192.898 35.8258C190.896 37.1685 188.211 37.8398 184.842 37.8398H174.316V46.8838H166.412V20.2838H174.316H184.842ZM184.462 31.7598C186.818 31.7598 187.996 30.9238 187.996 29.2518C187.996 27.5798 186.818 26.7438 184.462 26.7438H174.316V31.7598H184.462ZM221.8 46.8838L219.634 41.7538H204.282L202.116 46.8838H194.326L205.992 20.2838H218.152L229.856 46.8838H221.8ZM206.828 35.8258H217.126L211.958 23.6658L206.828 35.8258ZM258.283 11.9998C258.106 16.1798 255.18 18.2698 249.505 18.2698C243.831 18.2698 240.905 16.1798 240.727 11.9998H245.743C245.921 13.4945 247.175 14.2418 249.505 14.2418C251.811 14.2418 253.052 13.4945 253.229 11.9998H258.283ZM253.381 20.2838H265.541V46.8838H257.827V25.8698L245.591 46.8838H233.431V20.2838H241.145V41.2978L253.381 20.2838ZM271.382 52.4318V39.5878H279.59V44.1478L274.726 52.4318H271.382ZM316.823 20.2838H324.727V46.8838H316.823V37.2698C313.276 37.8018 310.135 38.0678 307.399 38.0678C303.371 38.0678 300.305 37.3205 298.203 35.8258C296.1 34.3058 295.049 32.1398 295.049 29.3278V20.2838H302.953V27.8838C302.953 29.3278 303.485 30.3158 304.549 30.8478C305.613 31.3545 307.335 31.6078 309.717 31.6078C312.149 31.6078 314.517 31.3671 316.823 30.8858V20.2838ZM328.823 26.7438V20.2838H359.147V26.7438H347.937V46.8838H340.033V26.7438H328.823ZM365.874 43.6918C362.758 41.2598 361.2 37.8905 361.2 33.5838C361.2 29.2771 362.758 25.9078 365.874 23.4758C368.99 21.0438 373.322 19.8278 378.87 19.8278C384.418 19.8278 388.75 21.0438 391.866 23.4758C394.982 25.9078 396.54 29.2771 396.54 33.5838C396.54 37.8905 394.982 41.2598 391.866 43.6918C388.75 46.1238 384.418 47.3398 378.87 47.3398C373.322 47.3398 368.99 46.1238 365.874 43.6918ZM371.65 28.2638C369.953 29.5811 369.104 31.3545 369.104 33.5838C369.104 35.8131 369.953 37.5991 371.65 38.9418C373.373 40.2591 375.78 40.9178 378.87 40.9178C381.961 40.9178 384.355 40.2591 386.052 38.9418C387.775 37.5991 388.636 35.8131 388.636 33.5838C388.636 31.3545 387.775 29.5811 386.052 28.2638C384.355 26.9211 381.961 26.2498 378.87 26.2498C375.78 26.2498 373.373 26.9211 371.65 28.2638ZM444.478 46.8838H434.484L424.376 36.5858H420.462V46.8838H412.558V20.2838H420.462V30.5438H424.224L433.838 20.2838H443.3L430.494 33.0518L444.478 46.8838ZM452.669 20.2838H479.155V46.8838H471.251V26.7438H459.813C459.762 27.4531 459.699 28.4918 459.623 29.8598C459.496 32.0638 459.382 33.6978 459.281 34.7618C459.205 35.8005 459.04 37.1305 458.787 38.7518C458.559 40.3731 458.23 41.5765 457.799 42.3618C457.394 43.1218 456.836 43.9325 456.127 44.7938C455.443 45.6551 454.569 46.2505 453.505 46.5798C452.441 46.9091 451.187 47.0738 449.743 47.0738C448.73 47.0738 447.362 47.0105 445.639 46.8838V40.4618C446.45 40.5631 447.121 40.6138 447.653 40.6138C448.21 40.6138 448.692 40.5378 449.097 40.3858C449.528 40.2085 449.895 39.9171 450.199 39.5118C450.528 39.1065 450.794 38.6758 450.997 38.2198C451.225 37.7638 451.415 37.1431 451.567 36.3578C451.719 35.5725 451.833 34.8251 451.909 34.1158C452.01 33.3811 452.086 32.4311 452.137 31.2658C452.213 30.1005 452.264 29.0365 452.289 28.0738C452.34 27.1111 452.39 25.8825 452.441 24.3878C452.517 22.8678 452.593 21.4998 452.669 20.2838ZM485.552 46.8838V20.2838H512.646V26.4398H493.456V30.4678H508.428V36.2438H493.456V40.7278H513.368V46.8838H485.552ZM538.27 20.2838H550.43V46.8838H542.716V25.8698L530.48 46.8838H518.32V20.2838H526.034V41.2978L538.27 20.2838ZM554.522 26.7438V20.2838H584.846V26.7438H573.636V46.8838H565.732V26.7438H554.522ZM612.398 37.0798L620.074 37.4598C619.542 40.7025 617.933 43.1598 615.248 44.8318C612.588 46.5038 608.94 47.3398 604.304 47.3398C598.781 47.3398 594.5 46.1365 591.46 43.7298C588.42 41.2978 586.9 37.9158 586.9 33.5838C586.9 29.2518 588.382 25.8825 591.346 23.4758C594.31 21.0438 598.464 19.8278 603.81 19.8278C608.192 19.8278 611.752 20.6765 614.488 22.3738C617.224 24.0458 618.896 26.3258 619.504 29.2138L611.904 29.7078C611.473 28.6691 610.523 27.8331 609.054 27.1998C607.584 26.5665 605.836 26.2498 603.81 26.2498C600.922 26.2498 598.692 26.9211 597.122 28.2638C595.576 29.5811 594.804 31.3545 594.804 33.5838C594.804 35.8385 595.614 37.6245 597.236 38.9418C598.882 40.2591 601.238 40.9178 604.304 40.9178C606.508 40.9178 608.294 40.5631 609.662 39.8538C611.055 39.1445 611.967 38.2198 612.398 37.0798ZM653.446 20.2838V46.8838H645.542V37.4598H639.88L631.9 46.8838H621.906L631.102 37.2698C625.731 36.5858 623.046 33.8751 623.046 29.1378C623.046 26.1738 624.085 23.9571 626.162 22.4878C628.265 21.0185 630.912 20.2838 634.104 20.2838H653.446ZM634.484 31.5318H645.542V26.5918H634.484C633.42 26.5918 632.559 26.8198 631.9 27.2758C631.267 27.7318 630.95 28.3525 630.95 29.1378C630.95 29.9231 631.267 30.5185 631.9 30.9238C632.533 31.3291 633.395 31.5318 634.484 31.5318ZM667.706 26.7438V20.2838H698.03V26.7438H686.82V46.8838H678.916V26.7438H667.706ZM702.123 46.8838V20.2838H729.217V26.4398H710.027V30.4678H724.999V36.2438H710.027V40.7278H729.939V46.8838H702.123ZM753.624 30.1258C756.918 30.1258 759.578 30.8225 761.604 32.2158C763.656 33.5838 764.682 35.6738 764.682 38.4858C764.682 41.3485 763.669 43.4638 761.642 44.8318C759.616 46.1998 756.943 46.8838 753.624 46.8838H738.196H734.89V20.2838H742.794H761.794V26.3638H742.794V30.1258H753.624ZM753.016 40.8038C755.524 40.8038 756.778 40.0185 756.778 38.4478C756.778 36.9025 755.524 36.1298 753.016 36.1298H742.794V40.8038H753.016ZM769.068 46.8838V20.2838H796.162V26.4398H776.972V30.4678H791.944V36.2438H776.972V40.7278H796.884V46.8838H769.068Z"></path></mask><path d="M34.1156 33.3178C39.765 33.8245 42.5896 35.9271 42.5896 39.6258C42.5896 41.8805 41.589 43.6538 39.5876 44.9458C37.5863 46.2378 34.597 46.8838 30.6196 46.8838H11.9996V20.2838H30.6196C33.9636 20.2838 36.5983 20.9425 38.5236 22.2598C40.4743 23.5771 41.4496 25.2998 41.4496 27.4278C41.4496 30.7465 39.005 32.7098 34.1156 33.3178ZM19.9036 26.3638V30.5818H30.2396C31.2783 30.5818 32.089 30.3918 32.6716 30.0118C33.2543 29.6318 33.5456 29.1125 33.5456 28.4538C33.5456 27.0605 32.4436 26.3638 30.2396 26.3638H19.9036ZM29.8216 40.8038C31.5696 40.8038 32.811 40.6391 33.5456 40.3098C34.3056 39.9805 34.6856 39.4105 34.6856 38.5998C34.6856 37.7638 34.3183 37.1811 33.5836 36.8518C32.849 36.5225 31.7216 36.3578 30.2016 36.3578H19.9036V40.8038H29.8216ZM64.5082 29.3278C67.8269 29.3278 70.4995 30.0371 72.5262 31.4558C74.5529 32.8745 75.5662 35.1038 75.5662 38.1438C75.5662 41.1585 74.5529 43.3751 72.5262 44.7938C70.5249 46.1871 67.8522 46.8838 64.5082 46.8838H50.4482H47.1422V20.2838H55.0462V29.3278H64.5082ZM79.4802 20.2838H87.3842V46.8838H79.4802V20.2838ZM64.1282 40.4238C66.4842 40.4238 67.6622 39.6131 67.6622 37.9918C67.6622 36.3705 66.4842 35.5598 64.1282 35.5598H55.0462V40.4238H64.1282ZM112.486 30.1258C115.779 30.1258 118.439 30.8225 120.466 32.2158C122.518 33.5838 123.544 35.6738 123.544 38.4858C123.544 41.3485 122.53 43.4638 120.504 44.8318C118.477 46.1998 115.804 46.8838 112.486 46.8838H97.0576H93.7516V20.2838H101.656H120.656V26.3638H101.656V30.1258H112.486ZM111.878 40.8038C114.386 40.8038 115.64 40.0185 115.64 38.4478C115.64 36.9025 114.386 36.1298 111.878 36.1298H101.656V40.8038H111.878ZM147.879 20.2838H160.039V46.8838H152.325V25.8698L140.089 46.8838H127.929V20.2838H135.643V41.2978L147.879 20.2838ZM184.842 20.2838C188.034 20.2838 190.668 21.0311 192.746 22.5258C194.848 23.9951 195.9 26.2371 195.9 29.2518C195.9 32.2665 194.899 34.4578 192.898 35.8258C190.896 37.1685 188.211 37.8398 184.842 37.8398H174.316V46.8838H166.412V20.2838H174.316H184.842ZM184.462 31.7598C186.818 31.7598 187.996 30.9238 187.996 29.2518C187.996 27.5798 186.818 26.7438 184.462 26.7438H174.316V31.7598H184.462ZM221.8 46.8838L219.634 41.7538H204.282L202.116 46.8838H194.326L205.992 20.2838H218.152L229.856 46.8838H221.8ZM206.828 35.8258H217.126L211.958 23.6658L206.828 35.8258ZM258.283 11.9998C258.106 16.1798 255.18 18.2698 249.505 18.2698C243.831 18.2698 240.905 16.1798 240.727 11.9998H245.743C245.921 13.4945 247.175 14.2418 249.505 14.2418C251.811 14.2418 253.052 13.4945 253.229 11.9998H258.283ZM253.381 20.2838H265.541V46.8838H257.827V25.8698L245.591 46.8838H233.431V20.2838H241.145V41.2978L253.381 20.2838ZM271.382 52.4318V39.5878H279.59V44.1478L274.726 52.4318H271.382ZM316.823 20.2838H324.727V46.8838H316.823V37.2698C313.276 37.8018 310.135 38.0678 307.399 38.0678C303.371 38.0678 300.305 37.3205 298.203 35.8258C296.1 34.3058 295.049 32.1398 295.049 29.3278V20.2838H302.953V27.8838C302.953 29.3278 303.485 30.3158 304.549 30.8478C305.613 31.3545 307.335 31.6078 309.717 31.6078C312.149 31.6078 314.517 31.3671 316.823 30.8858V20.2838ZM328.823 26.7438V20.2838H359.147V26.7438H347.937V46.8838H340.033V26.7438H328.823ZM365.874 43.6918C362.758 41.2598 361.2 37.8905 361.2 33.5838C361.2 29.2771 362.758 25.9078 365.874 23.4758C368.99 21.0438 373.322 19.8278 378.87 19.8278C384.418 19.8278 388.75 21.0438 391.866 23.4758C394.982 25.9078 396.54 29.2771 396.54 33.5838C396.54 37.8905 394.982 41.2598 391.866 43.6918C388.75 46.1238 384.418 47.3398 378.87 47.3398C373.322 47.3398 368.99 46.1238 365.874 43.6918ZM371.65 28.2638C369.953 29.5811 369.104 31.3545 369.104 33.5838C369.104 35.8131 369.953 37.5991 371.65 38.9418C373.373 40.2591 375.78 40.9178 378.87 40.9178C381.961 40.9178 384.355 40.2591 386.052 38.9418C387.775 37.5991 388.636 35.8131 388.636 33.5838C388.636 31.3545 387.775 29.5811 386.052 28.2638C384.355 26.9211 381.961 26.2498 378.87 26.2498C375.78 26.2498 373.373 26.9211 371.65 28.2638ZM444.478 46.8838H434.484L424.376 36.5858H420.462V46.8838H412.558V20.2838H420.462V30.5438H424.224L433.838 20.2838H443.3L430.494 33.0518L444.478 46.8838ZM452.669 20.2838H479.155V46.8838H471.251V26.7438H459.813C459.762 27.4531 459.699 28.4918 459.623 29.8598C459.496 32.0638 459.382 33.6978 459.281 34.7618C459.205 35.8005 459.04 37.1305 458.787 38.7518C458.559 40.3731 458.23 41.5765 457.799 42.3618C457.394 43.1218 456.836 43.9325 456.127 44.7938C455.443 45.6551 454.569 46.2505 453.505 46.5798C452.441 46.9091 451.187 47.0738 449.743 47.0738C448.73 47.0738 447.362 47.0105 445.639 46.8838V40.4618C446.45 40.5631 447.121 40.6138 447.653 40.6138C448.21 40.6138 448.692 40.5378 449.097 40.3858C449.528 40.2085 449.895 39.9171 450.199 39.5118C450.528 39.1065 450.794 38.6758 450.997 38.2198C451.225 37.7638 451.415 37.1431 451.567 36.3578C451.719 35.5725 451.833 34.8251 451.909 34.1158C452.01 33.3811 452.086 32.4311 452.137 31.2658C452.213 30.1005 452.264 29.0365 452.289 28.0738C452.34 27.1111 452.39 25.8825 452.441 24.3878C452.517 22.8678 452.593 21.4998 452.669 20.2838ZM485.552 46.8838V20.2838H512.646V26.4398H493.456V30.4678H508.428V36.2438H493.456V40.7278H513.368V46.8838H485.552ZM538.27 20.2838H550.43V46.8838H542.716V25.8698L530.48 46.8838H518.32V20.2838H526.034V41.2978L538.27 20.2838ZM554.522 26.7438V20.2838H584.846V26.7438H573.636V46.8838H565.732V26.7438H554.522ZM612.398 37.0798L620.074 37.4598C619.542 40.7025 617.933 43.1598 615.248 44.8318C612.588 46.5038 608.94 47.3398 604.304 47.3398C598.781 47.3398 594.5 46.1365 591.46 43.7298C588.42 41.2978 586.9 37.9158 586.9 33.5838C586.9 29.2518 588.382 25.8825 591.346 23.4758C594.31 21.0438 598.464 19.8278 603.81 19.8278C608.192 19.8278 611.752 20.6765 614.488 22.3738C617.224 24.0458 618.896 26.3258 619.504 29.2138L611.904 29.7078C611.473 28.6691 610.523 27.8331 609.054 27.1998C607.584 26.5665 605.836 26.2498 603.81 26.2498C600.922 26.2498 598.692 26.9211 597.122 28.2638C595.576 29.5811 594.804 31.3545 594.804 33.5838C594.804 35.8385 595.614 37.6245 597.236 38.9418C598.882 40.2591 601.238 40.9178 604.304 40.9178C606.508 40.9178 608.294 40.5631 609.662 39.8538C611.055 39.1445 611.967 38.2198 612.398 37.0798ZM653.446 20.2838V46.8838H645.542V37.4598H639.88L631.9 46.8838H621.906L631.102 37.2698C625.731 36.5858 623.046 33.8751 623.046 29.1378C623.046 26.1738 624.085 23.9571 626.162 22.4878C628.265 21.0185 630.912 20.2838 634.104 20.2838H653.446ZM634.484 31.5318H645.542V26.5918H634.484C633.42 26.5918 632.559 26.8198 631.9 27.2758C631.267 27.7318 630.95 28.3525 630.95 29.1378C630.95 29.9231 631.267 30.5185 631.9 30.9238C632.533 31.3291 633.395 31.5318 634.484 31.5318ZM667.706 26.7438V20.2838H698.03V26.7438H686.82V46.8838H678.916V26.7438H667.706ZM702.123 46.8838V20.2838H729.217V26.4398H710.027V30.4678H724.999V36.2438H710.027V40.7278H729.939V46.8838H702.123ZM753.624 30.1258C756.918 30.1258 759.578 30.8225 761.604 32.2158C763.656 33.5838 764.682 35.6738 764.682 38.4858C764.682 41.3485 763.669 43.4638 761.642 44.8318C759.616 46.1998 756.943 46.8838 753.624 46.8838H738.196H734.89V20.2838H742.794H761.794V26.3638H742.794V30.1258H753.624ZM753.016 40.8038C755.524 40.8038 756.778 40.0185 756.778 38.4478C756.778 36.9025 755.524 36.1298 753.016 36.1298H742.794V40.8038H753.016ZM769.068 46.8838V20.2838H796.162V26.4398H776.972V30.4678H791.944V36.2438H776.972V40.7278H796.884V46.8838H769.068Z" fill="white"></path><path d="M34.1156 33.3178L32.6348 21.4095C26.5484 22.1664 22.0123 27.391 22.1174 33.5234C22.2225 39.6558 26.9349 44.7219 33.0437 45.2698L34.1156 33.3178ZM39.5876 44.9458L46.096 55.0275L46.096 55.0275L39.5876 44.9458ZM11.9996 46.8838H-0.000382572C-0.000382572 53.5112 5.3722 58.8838 11.9996 58.8838L11.9996 46.8838ZM11.9996 20.2838V8.28379C5.3722 8.28379 -0.000382572 13.6564 -0.000382572 20.2838L11.9996 20.2838ZM38.5236 22.2598L31.7474 32.1635C31.7675 32.1772 31.7876 32.1909 31.8077 32.2045L38.5236 22.2598ZM19.9036 26.3638V14.3638C13.2762 14.3638 7.90362 19.7364 7.90362 26.3638L19.9036 26.3638ZM19.9036 30.5818H7.90362C7.90362 37.2092 13.2762 42.5818 19.9036 42.5818L19.9036 30.5818ZM32.6716 30.0118L26.1164 19.9605L26.1164 19.9605L32.6716 30.0118ZM33.5456 40.3098L28.7743 29.2991C28.7284 29.319 28.6826 29.3392 28.6369 29.3597L33.5456 40.3098ZM33.5836 36.8518L28.6749 47.8019L28.675 47.8019L33.5836 36.8518ZM19.9036 36.3578V24.3578C13.2762 24.3578 7.90362 29.7304 7.90362 36.3578H19.9036ZM19.9036 40.8038H7.90362C7.90362 47.4312 13.2762 52.8038 19.9036 52.8038L19.9036 40.8038ZM34.1156 33.3178L33.0437 45.2698C33.8404 45.3413 34.2188 45.4432 34.2916 45.4656C34.3672 45.489 33.9394 45.3723 33.3057 44.9006C32.6153 44.3867 31.8336 43.5598 31.2709 42.4042C30.718 41.2686 30.5896 40.2544 30.5896 39.6258H42.5896H54.5896C54.5896 34.2077 52.2658 29.095 47.6365 25.649C43.6704 22.6966 39.0001 21.7077 35.1875 21.3658L34.1156 33.3178ZM42.5896 39.6258H30.5896C30.5896 38.9136 30.7671 37.8502 31.3882 36.7495C31.9939 35.6761 32.724 35.0934 33.0792 34.8641L39.5876 44.9458L46.096 55.0275C51.2886 51.6753 54.5896 46.2245 54.5896 39.6258H42.5896ZM39.5876 44.9458L33.0792 34.8641C33.5831 34.5388 33.7738 34.5698 33.3099 34.67C32.8532 34.7687 31.9953 34.8838 30.6196 34.8838V46.8838V58.8838C35.5219 58.8838 41.2511 58.1552 46.096 55.0275L39.5876 44.9458ZM30.6196 46.8838V34.8838H11.9996V46.8838V58.8838H30.6196V46.8838ZM11.9996 46.8838H23.9996V20.2838H11.9996H-0.000382572V46.8838H11.9996ZM11.9996 20.2838V32.2838H30.6196V20.2838V8.28379H11.9996V20.2838ZM30.6196 20.2838V32.2838C31.5269 32.2838 32.0169 32.3754 32.1932 32.4195C32.3517 32.4591 32.1356 32.4291 31.7474 32.1635L38.5236 22.2598L45.2998 12.3561C40.6858 9.19912 35.3785 8.28379 30.6196 8.28379V20.2838ZM38.5236 22.2598L31.8077 32.2045C31.5342 32.0198 30.8591 31.4825 30.2757 30.4521C29.6662 29.3756 29.4496 28.2757 29.4496 27.4278H41.4496H53.4496C53.4496 20.8402 50.0822 15.5855 45.2395 12.3151L38.5236 22.2598ZM41.4496 27.4278H29.4496C29.4496 26.7611 29.5794 25.7495 30.1011 24.6224C30.6321 23.475 31.3841 22.6096 32.1021 22.0331C33.3405 21.0384 34.0243 21.2367 32.6348 21.4095L34.1156 33.3178L35.5964 45.2261C39.0962 44.7909 43.447 43.7035 47.1302 40.7455C51.3742 37.3371 53.4496 32.4797 53.4496 27.4278H41.4496ZM19.9036 26.3638H7.90362V30.5818H19.9036H31.9036V26.3638H19.9036ZM19.9036 30.5818V42.5818H30.2396V30.5818V18.5818H19.9036V30.5818ZM30.2396 30.5818V42.5818C32.5295 42.5818 35.9548 42.1971 39.2268 40.0631L32.6716 30.0118L26.1164 19.9605C28.2231 18.5865 30.0271 18.5818 30.2396 18.5818V30.5818ZM32.6716 30.0118L39.2268 40.0631C42.9778 37.6168 45.5456 33.433 45.5456 28.4538H33.5456H21.5456C21.5456 26.9502 21.8972 25.185 22.8614 23.4663C23.8105 21.7743 25.0592 20.6499 26.1164 19.9605L32.6716 30.0118ZM33.5456 28.4538H45.5456C45.5456 23.9814 43.4389 19.4663 39.1314 16.7432C35.7518 14.6067 32.2189 14.3638 30.2396 14.3638V26.3638V38.3638C30.1954 38.3638 29.8145 38.3636 29.2116 38.2365C28.6199 38.1118 27.5363 37.8066 26.3068 37.0294C24.9965 36.201 23.6645 34.9198 22.7242 33.1363C21.802 31.3875 21.5456 29.7064 21.5456 28.4538H33.5456ZM30.2396 26.3638V14.3638H19.9036V26.3638V38.3638H30.2396V26.3638ZM29.8216 40.8038V52.8038C31.7356 52.8038 35.2168 52.7112 38.4543 51.2599L33.5456 40.3098L28.6369 29.3597C29.2405 29.0891 29.7217 28.9511 29.9892 28.8842C30.2671 28.8147 30.4447 28.7899 30.4856 28.7845C30.5472 28.7763 30.3573 28.8038 29.8216 28.8038V40.8038ZM33.5456 40.3098L38.3169 51.3205C40.3702 50.4307 42.667 48.8691 44.3852 46.2917C46.1152 43.6968 46.6856 40.9314 46.6856 38.5998H34.6856H22.6856C22.6856 37.0788 23.0661 35.0038 24.416 32.9789C25.7543 30.9715 27.481 29.8596 28.7743 29.2991L33.5456 40.3098ZM34.6856 38.5998H46.6856C46.6856 36.4036 46.1885 33.7173 44.5612 31.1362C42.9151 28.525 40.6446 26.8665 38.4923 25.9017L33.5836 36.8518L28.675 47.8019C27.2573 47.1664 25.5378 45.9639 24.259 43.9354C22.9991 41.9369 22.6856 39.96 22.6856 38.5998H34.6856ZM33.5836 36.8518L38.4923 25.9017C35.3844 24.5085 32.175 24.3578 30.2016 24.3578V36.3578V48.3578C30.56 48.3578 30.6166 48.3792 30.4527 48.3553C30.3612 48.3419 30.1621 48.3088 29.8818 48.2344C29.6052 48.161 29.1848 48.0305 28.6749 47.8019L33.5836 36.8518ZM30.2016 36.3578V24.3578H19.9036V36.3578V48.3578H30.2016V36.3578ZM19.9036 36.3578H7.90362V40.8038H19.9036H31.9036V36.3578H19.9036ZM19.9036 40.8038V52.8038H29.8216V40.8038V28.8038H19.9036V40.8038ZM72.5262 44.7938L79.3826 54.6421C79.391 54.6363 79.3994 54.6304 79.4077 54.6246L72.5262 44.7938ZM47.1422 46.8838H35.1422C35.1422 53.5112 40.5148 58.8838 47.1422 58.8838V46.8838ZM47.1422 20.2838V8.28379C40.5148 8.28379 35.1422 13.6564 35.1422 20.2838L47.1422 20.2838ZM55.0462 20.2838H67.0462C67.0462 13.6564 61.6736 8.28379 55.0462 8.28379V20.2838ZM55.0462 29.3278H43.0462C43.0462 35.9552 48.4188 41.3278 55.0462 41.3278V29.3278ZM79.4802 20.2838V8.28379C72.8528 8.28379 67.4802 13.6564 67.4802 20.2838L79.4802 20.2838ZM87.3842 20.2838H99.3842C99.3842 13.6564 94.0116 8.28379 87.3842 8.28379V20.2838ZM87.3842 46.8838V58.8838C94.0116 58.8838 99.3842 53.5112 99.3842 46.8838H87.3842ZM79.4802 46.8838H67.4802C67.4802 53.5112 72.8528 58.8838 79.4802 58.8838V46.8838ZM55.0462 35.5598V23.5598C48.4188 23.5598 43.0462 28.9324 43.0462 35.5598H55.0462ZM55.0462 40.4238H43.0462C43.0462 47.0512 48.4188 52.4238 55.0462 52.4238V40.4238ZM64.5082 29.3278V41.3278C66.1914 41.3278 66.2202 41.6894 65.6446 41.2866L72.5262 31.4558L79.4077 21.625C74.7789 18.3848 69.4623 17.3278 64.5082 17.3278V29.3278ZM72.5262 31.4558L65.6446 41.2866C64.9184 40.7782 64.2729 40.0178 63.8818 39.1574C63.5301 38.3837 63.5662 37.9344 63.5662 38.1438H75.5662H87.5662C87.5662 32.2004 85.3907 25.8131 79.4077 21.625L72.5262 31.4558ZM75.5662 38.1438H63.5662C63.5662 38.3269 63.5347 37.8608 63.8925 37.0782C64.2885 36.2118 64.9343 35.4603 65.6446 34.963L72.5262 44.7938L79.4077 54.6246C85.3622 50.4565 87.5662 44.1045 87.5662 38.1438H75.5662ZM72.5262 44.7938L65.6698 34.9455C65.9749 34.733 66.1395 34.7113 65.9939 34.7493C65.8275 34.7927 65.3653 34.8838 64.5082 34.8838V46.8838V58.8838C69.4164 58.8838 74.7467 57.8697 79.3826 54.6421L72.5262 44.7938ZM64.5082 46.8838V34.8838H50.4482V46.8838V58.8838H64.5082V46.8838ZM50.4482 46.8838V34.8838H47.1422V46.8838V58.8838H50.4482V46.8838ZM47.1422 46.8838H59.1422V20.2838H47.1422H35.1422V46.8838H47.1422ZM47.1422 20.2838V32.2838H55.0462V20.2838V8.28379H47.1422V20.2838ZM55.0462 20.2838H43.0462V29.3278H55.0462H67.0462V20.2838H55.0462ZM55.0462 29.3278V41.3278H64.5082V29.3278V17.3278H55.0462V29.3278ZM79.4802 20.2838V32.2838H87.3842V20.2838V8.28379H79.4802V20.2838ZM87.3842 20.2838H75.3842V46.8838H87.3842H99.3842V20.2838H87.3842ZM87.3842 46.8838V34.8838H79.4802V46.8838V58.8838H87.3842V46.8838ZM79.4802 46.8838H91.4802V20.2838H79.4802H67.4802V46.8838H79.4802ZM64.1282 40.4238V52.4238C66.3103 52.4238 70.0727 52.1159 73.5816 49.7012C77.8995 46.7297 79.6622 42.1378 79.6622 37.9918H67.6622H55.6622C55.6622 36.943 55.8565 35.4454 56.6415 33.8246C57.4541 32.147 58.6609 30.8353 59.9758 29.9304C61.2127 29.0792 62.3368 28.7257 62.9913 28.5756C63.646 28.4254 64.0672 28.4238 64.1282 28.4238V40.4238ZM67.6622 37.9918H79.6622C79.6622 33.8458 77.8995 29.2539 73.5816 26.2824C70.0727 23.8677 66.3103 23.5598 64.1282 23.5598V35.5598V47.5598C64.0672 47.5598 63.646 47.5582 62.9913 47.408C62.3368 47.2579 61.2127 46.9043 59.9758 46.0532C58.6609 45.1483 57.4541 43.8365 56.6415 42.1589C55.8565 40.5381 55.6622 39.0406 55.6622 37.9918H67.6622ZM64.1282 35.5598V23.5598H55.0462V35.5598V47.5598H64.1282V35.5598ZM55.0462 35.5598H43.0462V40.4238H55.0462H67.0462V35.5598H55.0462ZM55.0462 40.4238V52.4238H64.1282V40.4238V28.4238H55.0462V40.4238ZM120.466 32.2158L113.667 42.1043C113.714 42.1367 113.762 42.1687 113.809 42.2004L120.466 32.2158ZM120.504 44.8318L127.217 54.778L127.217 54.778L120.504 44.8318ZM93.7516 46.8838H81.7516C81.7516 53.5112 87.1242 58.8838 93.7516 58.8838V46.8838ZM93.7516 20.2838V8.28379C87.1242 8.28379 81.7516 13.6564 81.7516 20.2838L93.7516 20.2838ZM120.656 20.2838H132.656C132.656 13.6564 127.283 8.28379 120.656 8.28379V20.2838ZM120.656 26.3638V38.3638C127.283 38.3638 132.656 32.9912 132.656 26.3638L120.656 26.3638ZM101.656 26.3638V14.3638C95.0282 14.3638 89.6556 19.7364 89.6556 26.3638L101.656 26.3638ZM101.656 30.1258H89.6556C89.6556 36.7532 95.0282 42.1258 101.656 42.1258V30.1258ZM101.656 36.1298V24.1298C95.0282 24.1298 89.6556 29.5024 89.6556 36.1298H101.656ZM101.656 40.8038H89.6556C89.6556 47.4312 95.0282 52.8038 101.656 52.8038V40.8038ZM112.486 30.1258V42.1258C114.16 42.1258 114.217 42.4822 113.667 42.1043L120.466 32.2158L127.264 22.3273C122.661 19.1627 117.398 18.1258 112.486 18.1258V30.1258ZM120.466 32.2158L113.809 42.2004C113.181 41.7818 112.478 41.0673 112.002 40.0974C111.556 39.1896 111.544 38.5374 111.544 38.4858H123.544H135.544C135.544 32.3183 133.024 26.166 127.122 22.2312L120.466 32.2158ZM123.544 38.4858H111.544C111.544 38.5111 111.541 37.9127 111.961 37.0349C112.416 36.0847 113.113 35.3424 113.79 34.8856L120.504 44.8318L127.217 54.778C133.152 50.7721 135.544 44.5497 135.544 38.4858H123.544ZM120.504 44.8318L113.79 34.8856C114.34 34.5143 114.245 34.8838 112.486 34.8838V46.8838V58.8838C117.363 58.8838 122.614 57.8853 127.217 54.778L120.504 44.8318ZM112.486 46.8838V34.8838H97.0576V46.8838V58.8838H112.486V46.8838ZM97.0576 46.8838V34.8838H93.7516V46.8838V58.8838H97.0576V46.8838ZM93.7516 46.8838H105.752V20.2838H93.7516H81.7516V46.8838H93.7516ZM93.7516 20.2838V32.2838H101.656V20.2838V8.28379H93.7516V20.2838ZM101.656 20.2838V32.2838H120.656V20.2838V8.28379H101.656V20.2838ZM120.656 20.2838H108.656V26.3638H120.656H132.656V20.2838H120.656ZM120.656 26.3638V14.3638H101.656V26.3638V38.3638H120.656V26.3638ZM101.656 26.3638H89.6556V30.1258H101.656H113.656V26.3638H101.656ZM101.656 30.1258V42.1258H112.486V30.1258V18.1258H101.656V30.1258ZM111.878 40.8038V52.8038C113.996 52.8038 117.624 52.5421 121.068 50.385C125.451 47.6403 127.64 43.06 127.64 38.4478H115.64H103.64C103.64 37.2223 103.894 35.5649 104.811 33.8404C105.746 32.0843 107.061 30.8389 108.33 30.0446C110.52 28.6728 112.267 28.8038 111.878 28.8038V40.8038ZM115.64 38.4478H127.64C127.64 33.7588 125.373 29.1912 120.994 26.4929C117.569 24.3827 113.974 24.1298 111.878 24.1298V36.1298V48.1298C112.289 48.1298 110.575 48.2632 108.404 46.9256C107.143 46.1486 105.808 44.9138 104.85 43.1435C103.906 41.3991 103.64 39.71 103.64 38.4478H115.64ZM111.878 36.1298V24.1298H101.656V36.1298V48.1298H111.878V36.1298ZM101.656 36.1298H89.6556V40.8038H101.656H113.656V36.1298H101.656ZM101.656 40.8038V52.8038H111.878V40.8038V28.8038H101.656V40.8038ZM147.879 20.2838V8.28379C143.608 8.28379 139.659 10.5543 137.509 14.2455L147.879 20.2838ZM160.039 20.2838H172.039C172.039 13.6564 166.667 8.28379 160.039 8.28379V20.2838ZM160.039 46.8838V58.8838C166.667 58.8838 172.039 53.5112 172.039 46.8838H160.039ZM152.325 46.8838H140.325C140.325 53.5112 145.698 58.8838 152.325 58.8838V46.8838ZM152.325 25.8698H164.325C164.325 20.4467 160.688 15.6977 155.453 14.2844C150.217 12.8712 144.684 15.145 141.955 19.8315L152.325 25.8698ZM140.089 46.8838V58.8838C144.361 58.8838 148.31 56.6133 150.459 52.9221L140.089 46.8838ZM127.929 46.8838H115.929C115.929 53.5112 121.302 58.8838 127.929 58.8838V46.8838ZM127.929 20.2838V8.28379C121.302 8.28379 115.929 13.6564 115.929 20.2838L127.929 20.2838ZM135.643 20.2838H147.643C147.643 13.6564 142.271 8.28379 135.643 8.28379V20.2838ZM135.643 41.2978H123.643C123.643 46.7208 127.28 51.4699 132.516 52.8832C137.752 54.2964 143.285 52.0225 146.013 47.3361L135.643 41.2978ZM147.879 20.2838V32.2838H160.039V20.2838V8.28379H147.879V20.2838ZM160.039 20.2838H148.039V46.8838H160.039H172.039V20.2838H160.039ZM160.039 46.8838V34.8838H152.325V46.8838V58.8838H160.039V46.8838ZM152.325 46.8838H164.325V25.8698H152.325H140.325V46.8838H152.325ZM152.325 25.8698L141.955 19.8315L129.719 40.8455L140.089 46.8838L150.459 52.9221L162.695 31.9081L152.325 25.8698ZM140.089 46.8838V34.8838H127.929V46.8838V58.8838H140.089V46.8838ZM127.929 46.8838H139.929V20.2838H127.929H115.929V46.8838H127.929ZM127.929 20.2838V32.2838H135.643V20.2838V8.28379H127.929V20.2838ZM135.643 20.2838H123.643V41.2978H135.643H147.643V20.2838H135.643ZM135.643 41.2978L146.013 47.3361L158.249 26.3221L147.879 20.2838L137.509 14.2455L125.273 35.2595L135.643 41.2978ZM192.746 22.5258L185.737 32.2664C185.782 32.2987 185.827 32.3305 185.872 32.3621L192.746 22.5258ZM192.898 35.8258L199.583 45.7909C199.612 45.7716 199.641 45.7521 199.669 45.7325L192.898 35.8258ZM174.316 37.8398V25.8398C167.688 25.8398 162.316 31.2124 162.316 37.8398H174.316ZM174.316 46.8838V58.8838C180.943 58.8838 186.316 53.5112 186.316 46.8838H174.316ZM166.412 46.8838H154.412C154.412 53.5112 159.784 58.8838 166.412 58.8838V46.8838ZM166.412 20.2838V8.28379C159.784 8.28379 154.412 13.6564 154.412 20.2838L166.412 20.2838ZM174.316 26.7438V14.7438C167.688 14.7438 162.316 20.1164 162.316 26.7438L174.316 26.7438ZM174.316 31.7598H162.316C162.316 38.3872 167.688 43.7598 174.316 43.7598V31.7598ZM184.842 20.2838V32.2838C185.509 32.2838 185.844 32.3624 185.937 32.3888C186.009 32.4092 185.906 32.388 185.737 32.2664L192.746 22.5258L199.754 12.7851C195.178 9.49254 189.92 8.28379 184.842 8.28379V20.2838ZM192.746 22.5258L185.872 32.3621C185.265 31.9382 184.646 31.2559 184.246 30.4041C183.88 29.6224 183.9 29.1298 183.9 29.2518H195.9H207.9C207.9 23.1052 205.53 16.8197 199.619 12.6894L192.746 22.5258ZM195.9 29.2518H183.9C183.9 29.4589 183.863 28.9821 184.233 28.1716C184.647 27.2668 185.335 26.4597 186.126 25.919L192.898 35.8258L199.669 45.7325C205.75 41.5759 207.9 35.1385 207.9 29.2518H195.9ZM192.898 35.8258L186.212 25.8606C186.521 25.6536 186.666 25.6461 186.472 25.6946C186.261 25.7474 185.749 25.8398 184.842 25.8398V37.8398V49.8398C189.678 49.8398 194.962 48.8913 199.583 45.7909L192.898 35.8258ZM184.842 37.8398V25.8398H174.316V37.8398V49.8398H184.842V37.8398ZM174.316 37.8398H162.316V46.8838H174.316H186.316V37.8398H174.316ZM174.316 46.8838V34.8838H166.412V46.8838V58.8838H174.316V46.8838ZM166.412 46.8838H178.412V20.2838H166.412H154.412V46.8838H166.412ZM166.412 20.2838V32.2838H174.316V20.2838V8.28379H166.412V20.2838ZM174.316 20.2838V32.2838H184.842V20.2838V8.28379H174.316V20.2838ZM184.462 31.7598V43.7598C186.695 43.7598 190.52 43.4293 194.057 40.9189C198.35 37.8721 199.996 33.2728 199.996 29.2518H187.996H175.996C175.996 28.2651 176.172 26.8259 176.913 25.2474C177.684 23.6065 178.849 22.2822 180.167 21.3467C181.41 20.4645 182.556 20.0884 183.245 19.9253C183.93 19.7633 184.38 19.7598 184.462 19.7598V31.7598ZM187.996 29.2518H199.996C199.996 25.2308 198.35 20.6315 194.057 17.5847C190.52 15.0743 186.695 14.7438 184.462 14.7438V26.7438V38.7438C184.38 38.7438 183.93 38.7403 183.245 38.5782C182.556 38.4152 181.41 38.0391 180.167 37.1569C178.849 36.2213 177.684 34.8971 176.913 33.2562C176.172 31.6777 175.996 30.2385 175.996 29.2518H187.996ZM184.462 26.7438V14.7438H174.316V26.7438V38.7438H184.462V26.7438ZM174.316 26.7438H162.316V31.7598H174.316H186.316V26.7438H174.316ZM174.316 31.7598V43.7598H184.462V31.7598V19.7598H174.316V31.7598ZM221.8 46.8838L210.745 51.5515C212.622 55.9954 216.977 58.8838 221.8 58.8838V46.8838ZM219.634 41.7538L230.689 37.0861C228.813 32.6422 224.458 29.7538 219.634 29.7538V41.7538ZM204.282 41.7538V29.7538C199.459 29.7538 195.104 32.6422 193.227 37.0861L204.282 41.7538ZM202.116 46.8838V58.8838C206.94 58.8838 211.295 55.9954 213.171 51.5515L202.116 46.8838ZM194.326 46.8838L183.337 42.0641C181.709 45.7745 182.064 50.0556 184.28 53.4475C186.497 56.8393 190.275 58.8838 194.326 58.8838V46.8838ZM205.992 20.2838V8.28379C201.229 8.28379 196.916 11.1015 195.003 15.4641L205.992 20.2838ZM218.152 20.2838L229.136 15.4509C227.22 11.0954 222.911 8.28379 218.152 8.28379V20.2838ZM229.856 46.8838V58.8838C233.91 58.8838 237.691 56.8367 239.906 53.4414C242.122 50.0462 242.473 45.7618 240.84 42.0509L229.856 46.8838ZM206.828 35.8258L195.772 31.1614C194.209 34.8668 194.606 39.1089 196.829 42.4601C199.052 45.8112 202.807 47.8258 206.828 47.8258V35.8258ZM217.126 35.8258V47.8258C221.154 47.8258 224.912 45.8056 227.134 42.4468C229.356 39.088 229.745 34.8385 228.17 31.1321L217.126 35.8258ZM211.958 23.6658L223.002 18.9721C221.117 14.5368 216.762 11.6594 211.942 11.6658C207.123 11.6722 202.775 14.5611 200.902 19.0014L211.958 23.6658ZM221.8 46.8838L232.855 42.2161L230.689 37.0861L219.634 41.7538L208.579 46.4215L210.745 51.5515L221.8 46.8838ZM219.634 41.7538V29.7538H204.282V41.7538V53.7538H219.634V41.7538ZM204.282 41.7538L193.227 37.0861L191.061 42.2161L202.116 46.8838L213.171 51.5515L215.337 46.4215L204.282 41.7538ZM202.116 46.8838V34.8838H194.326V46.8838V58.8838H202.116V46.8838ZM194.326 46.8838L205.316 51.7035L216.982 25.1035L205.992 20.2838L195.003 15.4641L183.337 42.0641L194.326 46.8838ZM205.992 20.2838V32.2838H218.152V20.2838V8.28379H205.992V20.2838ZM218.152 20.2838L207.169 25.1167L218.873 51.7167L229.856 46.8838L240.84 42.0509L229.136 15.4509L218.152 20.2838ZM229.856 46.8838V34.8838H221.8V46.8838V58.8838H229.856V46.8838ZM206.828 35.8258V47.8258H217.126V35.8258V23.8258H206.828V35.8258ZM217.126 35.8258L228.17 31.1321L223.002 18.9721L211.958 23.6658L200.914 28.3595L206.082 40.5195L217.126 35.8258ZM211.958 23.6658L200.902 19.0014L195.772 31.1614L206.828 35.8258L217.885 40.4902L223.015 28.3302L211.958 23.6658ZM258.283 11.9998L270.272 12.5084C270.411 9.24052 269.21 6.05763 266.947 3.69628C264.683 1.33494 261.554 -0.00021255 258.283 -0.00021255V11.9998ZM240.727 11.9998V-0.00021255C237.456 -0.00021255 234.327 1.33494 232.064 3.69628C229.801 6.05763 228.599 9.24052 228.738 12.5084L240.727 11.9998ZM245.743 11.9998L257.66 10.586C256.943 4.54779 251.824 -0.00021255 245.743 -0.00021255V11.9998ZM253.229 11.9998V-0.00021255C247.149 -0.00021255 242.029 4.5478 241.313 10.586L253.229 11.9998ZM253.381 20.2838V8.28379C249.11 8.28379 245.16 10.5543 243.011 14.2455L253.381 20.2838ZM265.541 20.2838H277.541C277.541 13.6564 272.169 8.28379 265.541 8.28379V20.2838ZM265.541 46.8838V58.8838C272.169 58.8838 277.541 53.5112 277.541 46.8838H265.541ZM257.827 46.8838H245.827C245.827 53.5112 251.2 58.8838 257.827 58.8838V46.8838ZM257.827 25.8698H269.827C269.827 20.4467 266.19 15.6977 260.954 14.2844C255.719 12.8712 250.186 15.145 247.457 19.8315L257.827 25.8698ZM245.591 46.8838V58.8838C249.863 58.8838 253.812 56.6133 255.961 52.9221L245.591 46.8838ZM233.431 46.8838H221.431C221.431 53.5112 226.804 58.8838 233.431 58.8838V46.8838ZM233.431 20.2838V8.28379C226.804 8.28379 221.431 13.6564 221.431 20.2838L233.431 20.2838ZM241.145 20.2838H253.145C253.145 13.6564 247.773 8.28379 241.145 8.28379V20.2838ZM241.145 41.2978H229.145C229.145 46.7208 232.782 51.4699 238.018 52.8832C243.254 54.2964 248.787 52.0225 251.515 47.3361L241.145 41.2978ZM258.283 11.9998L246.294 11.4912C246.307 11.1853 246.394 10.4017 246.88 9.41985C247.393 8.384 248.153 7.52885 248.981 6.93749C250.423 5.90715 251.181 6.26979 249.505 6.26979V18.2698V30.2698C253.504 30.2698 258.562 29.5874 262.931 26.4671C267.915 22.9066 270.056 17.6109 270.272 12.5084L258.283 11.9998ZM249.505 18.2698V6.26979C247.83 6.26979 248.587 5.90715 250.03 6.93749C250.858 7.52885 251.618 8.384 252.13 9.41985C252.616 10.4018 252.703 11.1853 252.716 11.4912L240.727 11.9998L228.738 12.5084C228.955 17.6109 231.095 22.9066 236.08 26.4671C240.448 29.5874 245.506 30.2698 249.505 30.2698V18.2698ZM240.727 11.9998V23.9998H245.743V11.9998V-0.00021255H240.727V11.9998ZM245.743 11.9998L233.827 13.4136C234.339 17.7269 236.731 21.64 240.673 23.9895C243.955 25.9453 247.345 26.2418 249.505 26.2418V14.2418V2.24179C249.534 2.24179 249.867 2.2415 250.408 2.35424C250.946 2.46636 251.882 2.73065 252.96 3.37304C254.093 4.04813 255.271 5.079 256.193 6.52337C257.108 7.9567 257.519 9.40187 257.66 10.586L245.743 11.9998ZM249.505 14.2418V26.2418C251.669 26.2418 255.068 25.9405 258.355 23.9619C262.292 21.5912 264.64 17.6761 265.146 13.4136L253.229 11.9998L241.313 10.586C241.451 9.42075 241.854 7.98999 242.756 6.56413C243.667 5.12474 244.837 4.08649 245.976 3.40064C247.06 2.74778 248.008 2.47603 248.561 2.35951C249.115 2.24258 249.463 2.24179 249.505 2.24179V14.2418ZM253.229 11.9998V23.9998H258.283V11.9998V-0.00021255H253.229V11.9998ZM253.381 20.2838V32.2838H265.541V20.2838V8.28379H253.381V20.2838ZM265.541 20.2838H253.541V46.8838H265.541H277.541V20.2838H265.541ZM265.541 46.8838V34.8838H257.827V46.8838V58.8838H265.541V46.8838ZM257.827 46.8838H269.827V25.8698H257.827H245.827V46.8838H257.827ZM257.827 25.8698L247.457 19.8315L235.221 40.8455L245.591 46.8838L255.961 52.9221L268.197 31.9081L257.827 25.8698ZM245.591 46.8838V34.8838H233.431V46.8838V58.8838H245.591V46.8838ZM233.431 46.8838H245.431V20.2838H233.431H221.431V46.8838H233.431ZM233.431 20.2838V32.2838H241.145V20.2838V8.28379H233.431V20.2838ZM241.145 20.2838H229.145V41.2978H241.145H253.145V20.2838H241.145ZM241.145 41.2978L251.515 47.3361L263.751 26.3221L253.381 20.2838L243.011 14.2455L230.775 35.2595L241.145 41.2978ZM271.382 52.4318H259.382C259.382 59.0592 264.754 64.4318 271.382 64.4318V52.4318ZM271.382 39.5878V27.5878C264.754 27.5878 259.382 32.9604 259.382 39.5878H271.382ZM279.59 39.5878H291.59C291.59 32.9604 286.217 27.5878 279.59 27.5878V39.5878ZM279.59 44.1478L289.938 50.2237C291.019 48.3816 291.59 46.284 291.59 44.1478H279.59ZM274.726 52.4318V64.4318C278.981 64.4318 282.919 62.1777 285.074 58.5077L274.726 52.4318ZM271.382 52.4318H283.382V39.5878H271.382H259.382V52.4318H271.382ZM271.382 39.5878V51.5878H279.59V39.5878V27.5878H271.382V39.5878ZM279.59 39.5878H267.59V44.1478H279.59H291.59V39.5878H279.59ZM279.59 44.1478L269.242 38.0718L264.378 46.3558L274.726 52.4318L285.074 58.5077L289.938 50.2237L279.59 44.1478ZM274.726 52.4318V40.4318H271.382V52.4318V64.4318H274.726V52.4318ZM316.823 20.2838V8.28379C310.195 8.28379 304.823 13.6564 304.823 20.2838L316.823 20.2838ZM324.727 20.2838H336.727C336.727 13.6564 331.354 8.28379 324.727 8.28379V20.2838ZM324.727 46.8838V58.8838C331.354 58.8838 336.727 53.5112 336.727 46.8838H324.727ZM316.823 46.8838H304.823C304.823 53.5112 310.195 58.8838 316.823 58.8838V46.8838ZM316.823 37.2698H328.823C328.823 33.7764 327.3 30.4565 324.653 28.1769C322.006 25.8973 318.497 24.8843 315.042 25.4026L316.823 37.2698ZM298.203 35.8258L291.172 45.5508C291.198 45.5695 291.224 45.588 291.25 45.6065L298.203 35.8258ZM295.049 20.2838V8.28379C288.421 8.28379 283.049 13.6564 283.049 20.2838L295.049 20.2838ZM302.953 20.2838H314.953C314.953 13.6564 309.58 8.28379 302.953 8.28379V20.2838ZM304.549 30.8478L299.182 41.5809C299.251 41.6153 299.32 41.649 299.389 41.6821L304.549 30.8478ZM316.823 30.8858L319.275 42.6325C324.837 41.4711 328.823 36.5679 328.823 30.8858H316.823ZM316.823 20.2838V32.2838H324.727V20.2838V8.28379H316.823V20.2838ZM324.727 20.2838H312.727V46.8838H324.727H336.727V20.2838H324.727ZM324.727 46.8838V34.8838H316.823V46.8838V58.8838H324.727V46.8838ZM316.823 46.8838H328.823V37.2698H316.823H304.823V46.8838H316.823ZM316.823 37.2698L315.042 25.4026C311.915 25.8716 309.389 26.0678 307.399 26.0678V38.0678V50.0678C310.881 50.0678 314.637 49.7319 318.603 49.137L316.823 37.2698ZM307.399 38.0678V26.0678C306.093 26.0678 305.308 25.9433 304.921 25.8488C304.545 25.7572 304.725 25.7394 305.155 26.0451L298.203 35.8258L291.25 45.6065C296.234 49.1496 302.179 50.0678 307.399 50.0678V38.0678ZM298.203 35.8258L305.233 26.1007C305.66 26.4093 306.226 26.9844 306.633 27.8214C307.022 28.6242 307.049 29.2221 307.049 29.3278H295.049H283.049C283.049 35.6145 285.655 41.5625 291.172 45.5508L298.203 35.8258ZM295.049 29.3278H307.049V20.2838H295.049H283.049V29.3278H295.049ZM295.049 20.2838V32.2838H302.953V20.2838V8.28379H295.049V20.2838ZM302.953 20.2838H290.953V27.8838H302.953H314.953V20.2838H302.953ZM302.953 27.8838H290.953C290.953 30.0374 291.347 32.7241 292.786 35.397C294.296 38.2022 296.579 40.2797 299.182 41.5809L304.549 30.8478L309.915 20.1147C311.454 20.8839 312.939 22.2013 313.917 24.0186C314.824 25.7035 314.953 27.1742 314.953 27.8838H302.953ZM304.549 30.8478L299.389 41.6821C303.002 43.4025 307.01 43.6078 309.717 43.6078V31.6078V19.6078C309.33 19.6078 309.025 19.5974 308.793 19.5831C308.559 19.5686 308.428 19.5519 308.384 19.5455C308.337 19.5384 308.429 19.549 308.627 19.6031C308.73 19.6312 308.874 19.6743 309.051 19.7382C309.228 19.802 309.451 19.8911 309.708 20.0135L304.549 30.8478ZM309.717 31.6078V43.6078C312.946 43.6078 316.137 43.2877 319.275 42.6325L316.823 30.8858L314.37 19.1391C312.897 19.4466 311.351 19.6078 309.717 19.6078V31.6078ZM316.823 30.8858H328.823V20.2838H316.823H304.823V30.8858H316.823ZM328.823 26.7438H316.823C316.823 33.3712 322.196 38.7438 328.823 38.7438V26.7438ZM328.823 20.2838V8.28379C322.196 8.28379 316.823 13.6564 316.823 20.2838L328.823 20.2838ZM359.147 20.2838H371.147C371.147 13.6564 365.775 8.28379 359.147 8.28379V20.2838ZM359.147 26.7438V38.7438C365.775 38.7438 371.147 33.3712 371.147 26.7438L359.147 26.7438ZM347.937 26.7438V14.7438C341.31 14.7438 335.937 20.1164 335.937 26.7438L347.937 26.7438ZM347.937 46.8838V58.8838C354.565 58.8838 359.937 53.5112 359.937 46.8838H347.937ZM340.033 46.8838H328.033C328.033 53.5112 333.406 58.8838 340.033 58.8838V46.8838ZM340.033 26.7438H352.033C352.033 20.1164 346.661 14.7438 340.033 14.7438V26.7438ZM328.823 26.7438H340.823V20.2838H328.823H316.823V26.7438H328.823ZM328.823 20.2838V32.2838H359.147V20.2838V8.28379H328.823V20.2838ZM359.147 20.2838H347.147V26.7438H359.147H371.147V20.2838H359.147ZM359.147 26.7438V14.7438H347.937V26.7438V38.7438H359.147V26.7438ZM347.937 26.7438H335.937V46.8838H347.937H359.937V26.7438H347.937ZM347.937 46.8838V34.8838H340.033V46.8838V58.8838H347.937V46.8838ZM340.033 46.8838H352.033V26.7438H340.033H328.033V46.8838H340.033ZM340.033 26.7438V14.7438H328.823V26.7438V38.7438H340.033V26.7438ZM365.874 43.6918L373.258 34.232L373.258 34.232L365.874 43.6918ZM365.874 23.4758L358.491 14.016L358.491 14.016L365.874 23.4758ZM391.866 23.4758L399.25 14.016L399.25 14.016L391.866 23.4758ZM391.866 43.6918L384.483 34.232L384.483 34.232L391.866 43.6918ZM371.65 28.2638L379.008 37.7436C379.014 37.7386 379.021 37.7336 379.027 37.7285L371.65 28.2638ZM371.65 38.9418L364.205 48.3532C364.257 48.3939 364.309 48.4342 364.361 48.4741L371.65 38.9418ZM386.052 38.9418L393.41 48.4216C393.416 48.4166 393.423 48.4116 393.429 48.4065L386.052 38.9418ZM386.052 28.2638L378.607 37.6752C378.659 37.7159 378.711 37.7562 378.763 37.7961L386.052 28.2638ZM365.874 43.6918L373.258 34.232C373.16 34.1559 373.147 34.1294 373.174 34.1634C373.203 34.1999 373.237 34.2526 373.261 34.3043C373.284 34.3536 373.272 34.3467 373.253 34.2511C373.232 34.1506 373.2 33.9373 373.2 33.5838H361.2H349.2C349.2 41.2062 352.174 48.2214 358.491 53.1516L365.874 43.6918ZM361.2 33.5838H373.2C373.2 33.2303 373.232 33.017 373.253 32.9165C373.272 32.8208 373.284 32.814 373.261 32.8633C373.237 32.9149 373.203 32.9677 373.174 33.0042C373.147 33.0381 373.16 33.0117 373.258 32.9356L365.874 23.4758L358.491 14.016C352.174 18.9462 349.2 25.9614 349.2 33.5838H361.2ZM365.874 23.4758L373.258 32.9356C373.56 32.6998 374.94 31.8278 378.87 31.8278V19.8278V7.82779C371.705 7.82779 364.421 9.38782 358.491 14.016L365.874 23.4758ZM378.87 19.8278V31.8278C382.801 31.8278 384.181 32.6998 384.483 32.9356L391.866 23.4758L399.25 14.016C393.32 9.38782 386.036 7.82779 378.87 7.82779V19.8278ZM391.866 23.4758L384.483 32.9356C384.581 33.0117 384.594 33.0381 384.567 33.0042C384.537 32.9677 384.504 32.9149 384.48 32.8633C384.457 32.814 384.469 32.8208 384.488 32.9165C384.508 33.017 384.54 33.2303 384.54 33.5838H396.54H408.54C408.54 25.9614 405.566 18.9462 399.25 14.016L391.866 23.4758ZM396.54 33.5838H384.54C384.54 33.9373 384.508 34.1506 384.488 34.2511C384.469 34.3467 384.457 34.3536 384.48 34.3043C384.504 34.2526 384.537 34.1999 384.567 34.1634C384.594 34.1294 384.581 34.1559 384.483 34.232L391.866 43.6918L399.25 53.1516C405.566 48.2214 408.54 41.2062 408.54 33.5838H396.54ZM391.866 43.6918L384.483 34.232C384.181 34.4678 382.801 35.3398 378.87 35.3398V47.3398V59.3398C386.036 59.3398 393.32 57.7798 399.25 53.1516L391.866 43.6918ZM378.87 47.3398V35.3398C374.94 35.3398 373.56 34.4678 373.258 34.232L365.874 43.6918L358.491 53.1516C364.421 57.7798 371.705 59.3398 378.87 59.3398V47.3398ZM371.65 28.2638L364.293 18.7839C359.541 22.4722 357.104 27.8095 357.104 33.5838H369.104H381.104C381.104 34.0209 381.012 34.8272 380.565 35.762C380.111 36.7108 379.494 37.3663 379.008 37.7436L371.65 28.2638ZM369.104 33.5838H357.104C357.104 39.3531 359.532 44.656 364.205 48.3532L371.65 38.9418L379.095 29.5304C379.551 29.8909 380.142 30.5238 380.579 31.445C381.012 32.3554 381.104 33.1449 381.104 33.5838H369.104ZM371.65 38.9418L364.361 48.4741C368.902 51.9466 374.233 52.9178 378.87 52.9178V40.9178V28.9178C378.521 28.9178 378.271 28.899 378.108 28.8795C377.946 28.8601 377.888 28.842 377.915 28.8494C377.944 28.8573 378.065 28.8929 378.25 28.9818C378.439 29.072 378.678 29.2096 378.94 29.4095L371.65 38.9418ZM378.87 40.9178V52.9178C383.492 52.9178 388.86 51.9527 393.41 48.4216L386.052 38.9418L378.695 29.462C379.265 29.0193 379.716 28.877 379.801 28.8537C379.837 28.8438 379.785 28.8608 379.627 28.8799C379.468 28.899 379.22 28.9178 378.87 28.9178V40.9178ZM386.052 38.9418L393.429 48.4065C398.139 44.7355 400.636 39.4223 400.636 33.5838H388.636H376.636C376.636 33.1193 376.736 32.3073 377.182 31.3826C377.631 30.4501 378.231 29.8235 378.675 29.4771L386.052 38.9418ZM388.636 33.5838H400.636C400.636 27.7394 398.129 22.3927 393.342 18.7315L386.052 28.2638L378.763 37.7961C378.289 37.4333 377.663 36.7847 377.196 35.8246C376.735 34.8754 376.636 34.0466 376.636 33.5838H388.636ZM386.052 28.2638L393.497 18.8524C388.939 15.2468 383.535 14.2498 378.87 14.2498V26.2498V38.2498C379.574 38.2498 379.821 38.3291 379.744 38.3076C379.637 38.2776 379.176 38.1252 378.607 37.6752L386.052 28.2638ZM378.87 26.2498V14.2498C374.19 14.2498 368.823 15.2528 364.273 18.7991L371.65 28.2638L379.027 37.7285C378.767 37.9312 378.526 38.0732 378.331 38.1682C378.139 38.2618 378.01 38.3012 377.972 38.312C377.935 38.3223 377.983 38.3058 378.135 38.2872C378.288 38.2685 378.529 38.2498 378.87 38.2498V26.2498ZM444.478 46.8838V58.8838C449.344 58.8838 453.728 55.9459 455.577 51.4457C457.427 46.9455 456.376 41.7738 452.917 38.3523L444.478 46.8838ZM434.484 46.8838L425.92 55.2897C428.177 57.5886 431.263 58.8838 434.484 58.8838V46.8838ZM424.376 36.5858L432.94 28.1799C430.684 25.8809 427.598 24.5858 424.376 24.5858V36.5858ZM420.462 36.5858V24.5858C413.835 24.5858 408.462 29.9584 408.462 36.5858H420.462ZM420.462 46.8838V58.8838C427.09 58.8838 432.462 53.5112 432.462 46.8838H420.462ZM412.558 46.8838H400.558C400.558 53.5112 405.931 58.8838 412.558 58.8838V46.8838ZM412.558 20.2838V8.28379C405.931 8.28379 400.558 13.6564 400.558 20.2838L412.558 20.2838ZM420.462 20.2838H432.462C432.462 13.6564 427.09 8.28379 420.462 8.28379V20.2838ZM420.462 30.5438H408.462C408.462 37.1712 413.835 42.5438 420.462 42.5438V30.5438ZM424.224 30.5438V42.5438C427.542 42.5438 430.712 41.17 432.981 38.7489L424.224 30.5438ZM433.838 20.2838V8.28379C430.52 8.28379 427.35 9.65754 425.082 12.0787L433.838 20.2838ZM443.3 20.2838L451.773 28.7817C455.212 25.3525 456.245 20.1883 454.39 15.6998C452.535 11.2114 448.157 8.28379 443.3 8.28379V20.2838ZM430.494 33.0518L422.022 24.5539C419.758 26.8112 418.488 29.8786 418.494 33.0757C418.501 36.2727 419.782 39.335 422.055 41.5833L430.494 33.0518ZM444.478 46.8838V34.8838H434.484V46.8838V58.8838H444.478V46.8838ZM434.484 46.8838L443.048 38.4779L432.94 28.1799L424.376 36.5858L415.812 44.9917L425.92 55.2897L434.484 46.8838ZM424.376 36.5858V24.5858H420.462V36.5858V48.5858H424.376V36.5858ZM420.462 36.5858H408.462V46.8838H420.462H432.462V36.5858H420.462ZM420.462 46.8838V34.8838H412.558V46.8838V58.8838H420.462V46.8838ZM412.558 46.8838H424.558V20.2838H412.558H400.558V46.8838H412.558ZM412.558 20.2838V32.2838H420.462V20.2838V8.28379H412.558V20.2838ZM420.462 20.2838H408.462V30.5438H420.462H432.462V20.2838H420.462ZM420.462 30.5438V42.5438H424.224V30.5438V18.5438H420.462V30.5438ZM424.224 30.5438L432.981 38.7489L442.595 28.4889L433.838 20.2838L425.082 12.0787L415.468 22.3387L424.224 30.5438ZM433.838 20.2838V32.2838H443.3V20.2838V8.28379H433.838V20.2838ZM443.3 20.2838L434.828 11.7859L422.022 24.5539L430.494 33.0518L438.967 41.5497L451.773 28.7817L443.3 20.2838ZM430.494 33.0518L422.055 41.5833L436.039 55.4153L444.478 46.8838L452.917 38.3523L438.933 24.5203L430.494 33.0518ZM452.669 20.2838V8.28379C446.332 8.28379 441.088 13.2108 440.692 19.5352L452.669 20.2838ZM479.155 20.2838H491.155C491.155 13.6564 485.782 8.28379 479.155 8.28379V20.2838ZM479.155 46.8838V58.8838C485.782 58.8838 491.155 53.5112 491.155 46.8838H479.155ZM471.251 46.8838H459.251C459.251 53.5112 464.624 58.8838 471.251 58.8838V46.8838ZM471.251 26.7438H483.251C483.251 20.1164 477.878 14.7438 471.251 14.7438V26.7438ZM459.813 26.7438V14.7438C453.517 14.7438 448.292 19.6092 447.843 25.8888L459.813 26.7438ZM459.623 29.8598L471.603 30.5483C471.604 30.5407 471.604 30.5331 471.605 30.5254L459.623 29.8598ZM459.281 34.7618L447.335 33.6241C447.327 33.7113 447.319 33.7987 447.313 33.8861L459.281 34.7618ZM458.787 38.7518L446.931 36.8993C446.921 36.9597 446.912 37.0202 446.904 37.0807L458.787 38.7518ZM457.799 42.3618L447.277 36.5918C447.255 36.6326 447.233 36.6736 447.211 36.7147L457.799 42.3618ZM456.127 44.7938L446.864 37.1653C446.819 37.2202 446.774 37.2755 446.73 37.3312L456.127 44.7938ZM453.505 46.5798L457.053 58.0432L453.505 46.5798ZM445.639 46.8838H433.639C433.639 53.1698 438.49 58.3905 444.759 58.8515L445.639 46.8838ZM445.639 40.4618L447.127 28.5545C443.712 28.1275 440.278 29.1877 437.697 31.4656C435.117 33.7436 433.639 37.0198 433.639 40.4618H445.639ZM449.097 40.3858L453.31 51.6217C453.43 51.577 453.548 51.5304 453.666 51.4819L449.097 40.3858ZM450.199 39.5118L440.886 31.9447C440.788 32.0652 440.692 32.1876 440.599 32.3118L450.199 39.5118ZM450.997 38.2198L440.264 32.8532C440.183 33.0157 440.105 33.1801 440.031 33.3461L450.997 38.2198ZM451.567 36.3578L463.348 38.6381L463.348 38.638L451.567 36.3578ZM451.909 34.1158L440.022 32.4761C440.005 32.5963 439.99 32.7168 439.977 32.8374L451.909 34.1158ZM452.137 31.2658L440.162 30.4848C440.157 30.5714 440.152 30.6579 440.148 30.7445L452.137 31.2658ZM452.289 28.0738L440.306 27.4431C440.3 27.548 440.296 27.653 440.293 27.7581L452.289 28.0738ZM452.441 24.3878L440.456 23.7885C440.453 23.8528 440.45 23.917 440.448 23.9812L452.441 24.3878ZM452.669 20.2838V32.2838H479.155V20.2838V8.28379H452.669V20.2838ZM479.155 20.2838H467.155V46.8838H479.155H491.155V20.2838H479.155ZM479.155 46.8838V34.8838H471.251V46.8838V58.8838H479.155V46.8838ZM471.251 46.8838H483.251V26.7438H471.251H459.251V46.8838H471.251ZM471.251 26.7438V14.7438H459.813V26.7438V38.7438H471.251V26.7438ZM459.813 26.7438L447.843 25.8888C447.786 26.6949 447.718 27.8093 447.641 29.1942L459.623 29.8598L471.605 30.5254C471.68 29.1743 471.739 28.2114 471.782 27.5988L459.813 26.7438ZM459.623 29.8598L447.643 29.1713C447.518 31.3477 447.414 32.7955 447.335 33.6241L459.281 34.7618L471.227 35.8995C471.351 34.6001 471.475 32.7799 471.603 30.5483L459.623 29.8598ZM459.281 34.7618L447.313 33.8861C447.27 34.4678 447.159 35.4407 446.931 36.8993L458.787 38.7518L470.643 40.6043C470.922 38.8202 471.14 37.1332 471.249 35.6375L459.281 34.7618ZM458.787 38.7518L446.904 37.0807C446.874 37.2968 446.846 37.4566 446.824 37.5665C446.802 37.6777 446.79 37.7193 446.795 37.7026C446.799 37.688 446.828 37.5836 446.894 37.4106C446.959 37.2407 447.079 36.9539 447.277 36.5918L457.799 42.3618L468.321 48.1318C469.806 45.4225 470.379 42.494 470.67 40.4228L458.787 38.7518ZM457.799 42.3618L447.211 36.7147C447.247 36.6472 447.248 36.6556 447.188 36.7414C447.13 36.8263 447.027 36.9674 446.864 37.1653L456.127 44.7938L465.39 52.4223C466.466 51.1158 467.516 49.6422 468.387 48.0088L457.799 42.3618ZM456.127 44.7938L446.73 37.3312C447.109 36.8533 447.601 36.3784 448.203 35.9685C448.804 35.5594 449.41 35.2857 449.957 35.1164L453.505 46.5798L457.053 58.0432C460.394 57.0092 463.318 55.0351 465.524 52.2564L456.127 44.7938ZM453.505 46.5798L449.957 35.1164C450.153 35.0555 450.247 35.0468 450.204 35.0524C450.162 35.058 450.014 35.0738 449.743 35.0738V47.0738V59.0738C452.054 59.0738 454.558 58.8156 457.053 58.0432L453.505 46.5798ZM449.743 47.0738V35.0738C449.156 35.0738 448.121 35.0339 446.519 34.9161L445.639 46.8838L444.759 58.8515C446.602 58.987 448.303 59.0738 449.743 59.0738V47.0738ZM445.639 46.8838H457.639V40.4618H445.639H433.639V46.8838H445.639ZM445.639 40.4618L444.151 52.3691C445.224 52.5033 446.435 52.6138 447.653 52.6138V40.6138V28.6138C447.755 28.6138 447.763 28.6181 447.654 28.6098C447.549 28.602 447.378 28.5857 447.127 28.5545L445.639 40.4618ZM447.653 40.6138V52.6138C449.256 52.6138 451.233 52.4009 453.31 51.6217L449.097 40.3858L444.884 29.1498C446.151 28.6747 447.165 28.6138 447.653 28.6138V40.6138ZM449.097 40.3858L453.666 51.4819C456.268 50.4107 458.317 48.6881 459.799 46.7118L450.199 39.5118L440.599 32.3118C441.473 31.1462 442.788 30.0062 444.528 29.2897L449.097 40.3858ZM450.199 39.5118L459.512 47.0789C460.478 45.8908 461.311 44.5603 461.963 43.0934L450.997 38.2198L440.031 33.3461C440.278 32.7913 440.579 32.3221 440.886 31.9447L450.199 39.5118ZM450.997 38.2198L461.73 43.5864C462.641 41.7642 463.092 39.9606 463.348 38.6381L451.567 36.3578L439.786 34.0775C439.772 34.1456 439.783 34.0745 439.836 33.8997C439.886 33.7358 440.012 33.357 440.264 32.8532L450.997 38.2198ZM451.567 36.3578L463.348 38.638C463.557 37.5601 463.725 36.4768 463.841 35.3942L451.909 34.1158L439.977 32.8374C439.941 33.1734 439.881 33.5848 439.786 34.0775L451.567 36.3578ZM451.909 34.1158L463.796 35.7554C463.969 34.5027 464.067 33.1411 464.126 31.787L452.137 31.2658L440.148 30.7445C440.106 31.7212 440.051 32.2595 440.022 32.4761L451.909 34.1158ZM452.137 31.2658L464.112 32.0467C464.196 30.7577 464.255 29.5358 464.285 28.3895L452.289 28.0738L440.293 27.7581C440.273 28.5372 440.23 29.4432 440.162 30.4848L452.137 31.2658ZM452.289 28.0738L464.272 28.7045C464.329 27.6383 464.382 26.3279 464.434 24.7943L452.441 24.3878L440.448 23.9812C440.399 25.437 440.351 26.5839 440.306 27.4431L452.289 28.0738ZM452.441 24.3878L464.426 24.987C464.5 23.5052 464.573 22.1882 464.646 21.0323L452.669 20.2838L440.692 19.5352C440.613 20.8114 440.534 22.2304 440.456 23.7885L452.441 24.3878ZM485.552 46.8838H473.552C473.552 53.5112 478.925 58.8838 485.552 58.8838V46.8838ZM485.552 20.2838V8.28379C478.925 8.28379 473.552 13.6564 473.552 20.2838L485.552 20.2838ZM512.646 20.2838H524.646C524.646 13.6564 519.274 8.28379 512.646 8.28379V20.2838ZM512.646 26.4398V38.4398C519.274 38.4398 524.646 33.0672 524.646 26.4398L512.646 26.4398ZM493.456 26.4398V14.4398C486.829 14.4398 481.456 19.8124 481.456 26.4398L493.456 26.4398ZM493.456 30.4678H481.456C481.456 37.0952 486.829 42.4678 493.456 42.4678V30.4678ZM508.428 30.4678H520.428C520.428 23.8404 515.056 18.4678 508.428 18.4678V30.4678ZM508.428 36.2438V48.2438C515.056 48.2438 520.428 42.8712 520.428 36.2438H508.428ZM493.456 36.2438V24.2438C486.829 24.2438 481.456 29.6164 481.456 36.2438H493.456ZM493.456 40.7278H481.456C481.456 47.3552 486.829 52.7278 493.456 52.7278V40.7278ZM513.368 40.7278H525.368C525.368 34.1004 519.996 28.7278 513.368 28.7278V40.7278ZM513.368 46.8838V58.8838C519.996 58.8838 525.368 53.5112 525.368 46.8838H513.368ZM485.552 46.8838H497.552V20.2838H485.552H473.552V46.8838H485.552ZM485.552 20.2838V32.2838H512.646V20.2838V8.28379H485.552V20.2838ZM512.646 20.2838H500.646V26.4398H512.646H524.646V20.2838H512.646ZM512.646 26.4398V14.4398H493.456V26.4398V38.4398H512.646V26.4398ZM493.456 26.4398H481.456V30.4678H493.456H505.456V26.4398H493.456ZM493.456 30.4678V42.4678H508.428V30.4678V18.4678H493.456V30.4678ZM508.428 30.4678H496.428V36.2438H508.428H520.428V30.4678H508.428ZM508.428 36.2438V24.2438H493.456V36.2438V48.2438H508.428V36.2438ZM493.456 36.2438H481.456V40.7278H493.456H505.456V36.2438H493.456ZM493.456 40.7278V52.7278H513.368V40.7278V28.7278H493.456V40.7278ZM513.368 40.7278H501.368V46.8838H513.368H525.368V40.7278H513.368ZM513.368 46.8838V34.8838H485.552V46.8838V58.8838H513.368V46.8838ZM538.27 20.2838V8.28379C533.999 8.28379 530.049 10.5543 527.9 14.2455L538.27 20.2838ZM550.43 20.2838H562.43C562.43 13.6564 557.057 8.28379 550.43 8.28379V20.2838ZM550.43 46.8838V58.8838C557.057 58.8838 562.43 53.5112 562.43 46.8838H550.43ZM542.716 46.8838H530.716C530.716 53.5112 536.089 58.8838 542.716 58.8838V46.8838ZM542.716 25.8698H554.716C554.716 20.4467 551.079 15.6977 545.843 14.2844C540.607 12.8712 535.075 15.145 532.346 19.8315L542.716 25.8698ZM530.48 46.8838V58.8838C534.751 58.8838 538.701 56.6133 540.85 52.9221L530.48 46.8838ZM518.32 46.8838H506.32C506.32 53.5112 511.693 58.8838 518.32 58.8838V46.8838ZM518.32 20.2838V8.28379C511.693 8.28379 506.32 13.6564 506.32 20.2838L518.32 20.2838ZM526.034 20.2838H538.034C538.034 13.6564 532.661 8.28379 526.034 8.28379V20.2838ZM526.034 41.2978H514.034C514.034 46.7208 517.671 51.4699 522.907 52.8832C528.142 54.2964 533.675 52.0225 536.404 47.3361L526.034 41.2978ZM538.27 20.2838V32.2838H550.43V20.2838V8.28379H538.27V20.2838ZM550.43 20.2838H538.43V46.8838H550.43H562.43V20.2838H550.43ZM550.43 46.8838V34.8838H542.716V46.8838V58.8838H550.43V46.8838ZM542.716 46.8838H554.716V25.8698H542.716H530.716V46.8838H542.716ZM542.716 25.8698L532.346 19.8315L520.11 40.8455L530.48 46.8838L540.85 52.9221L553.086 31.9081L542.716 25.8698ZM530.48 46.8838V34.8838H518.32V46.8838V58.8838H530.48V46.8838ZM518.32 46.8838H530.32V20.2838H518.32H506.32V46.8838H518.32ZM518.32 20.2838V32.2838H526.034V20.2838V8.28379H518.32V20.2838ZM526.034 20.2838H514.034V41.2978H526.034H538.034V20.2838H526.034ZM526.034 41.2978L536.404 47.3361L548.64 26.3221L538.27 20.2838L527.9 14.2455L515.664 35.2595L526.034 41.2978ZM554.522 26.7438H542.522C542.522 33.3712 547.895 38.7438 554.522 38.7438V26.7438ZM554.522 20.2838V8.28379C547.895 8.28379 542.522 13.6564 542.522 20.2838L554.522 20.2838ZM584.846 20.2838H596.846C596.846 13.6564 591.474 8.28379 584.846 8.28379V20.2838ZM584.846 26.7438V38.7438C591.474 38.7438 596.846 33.3712 596.846 26.7438L584.846 26.7438ZM573.636 26.7438V14.7438C567.009 14.7438 561.636 20.1164 561.636 26.7438L573.636 26.7438ZM573.636 46.8838V58.8838C580.264 58.8838 585.636 53.5112 585.636 46.8838H573.636ZM565.732 46.8838H553.732C553.732 53.5112 559.105 58.8838 565.732 58.8838V46.8838ZM565.732 26.7438H577.732C577.732 20.1164 572.36 14.7438 565.732 14.7438V26.7438ZM554.522 26.7438H566.522V20.2838H554.522H542.522V26.7438H554.522ZM554.522 20.2838V32.2838H584.846V20.2838V8.28379H554.522V20.2838ZM584.846 20.2838H572.846V26.7438H584.846H596.846V20.2838H584.846ZM584.846 26.7438V14.7438H573.636V26.7438V38.7438H584.846V26.7438ZM573.636 26.7438H561.636V46.8838H573.636H585.636V26.7438H573.636ZM573.636 46.8838V34.8838H565.732V46.8838V58.8838H573.636V46.8838ZM565.732 46.8838H577.732V26.7438H565.732H553.732V46.8838H565.732ZM565.732 26.7438V14.7438H554.522V26.7438V38.7438H565.732V26.7438ZM612.398 37.0798L612.991 25.0945C607.788 24.8369 603.013 27.9657 601.172 32.839L612.398 37.0798ZM620.074 37.4598L631.915 39.4026C632.469 36.0291 631.557 32.5798 629.409 29.9203C627.261 27.2607 624.081 25.6435 620.667 25.4745L620.074 37.4598ZM615.248 44.8318L608.905 34.645C608.89 34.654 608.876 34.6631 608.861 34.6722L615.248 44.8318ZM591.46 43.7298L583.963 53.1002C583.979 53.113 583.995 53.1257 584.011 53.1383L591.46 43.7298ZM591.346 23.4758L598.91 32.7916C598.926 32.7787 598.941 32.7657 598.957 32.7527L591.346 23.4758ZM614.488 22.3738L608.162 32.5709C608.184 32.5851 608.207 32.5992 608.23 32.6132L614.488 22.3738ZM619.504 29.2138L620.282 41.1885C623.755 40.9628 626.958 39.2405 629.062 36.4683C631.166 33.6962 631.963 30.1472 631.246 26.7417L619.504 29.2138ZM611.904 29.7078L600.819 34.304C602.786 39.0492 607.556 42.0157 612.682 41.6825L611.904 29.7078ZM609.054 27.1998L604.304 38.2197L604.304 38.2197L609.054 27.1998ZM597.122 28.2638L604.906 37.396C604.911 37.3924 604.915 37.3888 604.919 37.3852L597.122 28.2638ZM597.236 38.9418L589.668 48.2552C589.692 48.2743 589.716 48.2933 589.739 48.3122L597.236 38.9418ZM609.662 39.8538L604.217 29.1598C604.191 29.1734 604.164 29.187 604.138 29.2007L609.662 39.8538ZM612.398 37.0798L611.804 49.0651L619.48 49.4451L620.074 37.4598L620.667 25.4745L612.991 25.0945L612.398 37.0798ZM620.074 37.4598L608.232 35.517C608.205 35.6831 608.212 35.492 608.428 35.1622C608.527 35.011 608.638 34.8813 608.742 34.781C608.844 34.6827 608.91 34.642 608.905 34.645L615.248 44.8318L621.59 55.0186C627.338 51.4397 630.848 45.9062 631.915 39.4026L620.074 37.4598ZM615.248 44.8318L608.861 34.6722C608.819 34.6989 607.689 35.3398 604.304 35.3398V47.3398V59.3398C610.19 59.3398 616.356 58.3087 621.634 54.9914L615.248 44.8318ZM604.304 47.3398V35.3398C600.365 35.3398 599.091 34.4663 598.908 34.3212L591.46 43.7298L584.011 53.1383C589.908 57.8066 597.197 59.3398 604.304 59.3398V47.3398ZM591.46 43.7298L598.956 34.3594C598.879 34.2982 598.876 34.283 598.907 34.322C598.939 34.3629 598.968 34.4122 598.985 34.45C599.027 34.5446 598.9 34.3368 598.9 33.5838H586.9H574.9C574.9 41.0939 577.731 48.1142 583.963 53.1002L591.46 43.7298ZM586.9 33.5838H598.9C598.9 32.7907 599.032 32.556 598.995 32.6393C598.98 32.6738 598.95 32.7283 598.91 32.7808C598.87 32.8319 598.858 32.8336 598.91 32.7916L591.346 23.4758L583.781 14.16C577.611 19.17 574.9 26.1856 574.9 33.5838H586.9ZM591.346 23.4758L598.957 32.7527C599.067 32.6631 600.159 31.8278 603.81 31.8278V19.8278V7.82779C596.77 7.82779 589.553 9.42448 583.734 14.1989L591.346 23.4758ZM603.81 19.8278V31.8278C606.737 31.8278 607.894 32.4048 608.162 32.5709L614.488 22.3738L620.814 12.1766C615.609 8.94808 609.648 7.82779 603.81 7.82779V19.8278ZM614.488 22.3738L608.23 32.6132C608.442 32.7429 608.321 32.7124 608.117 32.4342C608.021 32.3034 607.936 32.1562 607.869 32.0055C607.803 31.8562 607.773 31.7423 607.761 31.6859L619.504 29.2138L631.246 26.7417C629.894 20.3212 626.03 15.3639 620.745 12.1344L614.488 22.3738ZM619.504 29.2138L618.725 17.2391L611.125 17.7331L611.904 29.7078L612.682 41.6825L620.282 41.1885L619.504 29.2138ZM611.904 29.7078L622.988 25.1116C620.936 20.1607 616.922 17.524 613.803 16.1799L609.054 27.1998L604.304 38.2197C604.124 38.1422 602.01 37.1775 600.819 34.304L611.904 29.7078ZM609.054 27.1998L613.803 16.1799C610.491 14.7523 607.05 14.2498 603.81 14.2498V26.2498V38.2498C604.204 38.2498 604.424 38.281 604.501 38.2951C604.575 38.3085 604.493 38.3011 604.304 38.2197L609.054 27.1998ZM603.81 26.2498V14.2498C599.191 14.2498 593.795 15.3208 589.324 19.1423L597.122 28.2638L604.919 37.3852C604.287 37.9251 603.709 38.16 603.432 38.2436C603.192 38.3157 603.268 38.2498 603.81 38.2498V26.2498ZM597.122 28.2638L589.337 19.1316C584.835 22.9692 582.804 28.2282 582.804 33.5838H594.804H606.804C606.804 33.8688 606.75 34.5363 606.384 35.3751C606.006 36.2437 605.451 36.932 604.906 37.396L597.122 28.2638ZM594.804 33.5838H582.804C582.804 39.1243 584.998 44.4603 589.668 48.2552L597.236 38.9418L604.803 29.6284C605.338 30.0632 605.926 30.7465 606.339 31.6545C606.739 32.5359 606.804 33.2552 606.804 33.5838H594.804ZM597.236 38.9418L589.739 48.3122C594.291 51.9539 599.712 52.9178 604.304 52.9178V40.9178V28.9178C603.6 28.9178 603.369 28.839 603.468 28.8669C603.599 28.9033 604.109 29.0734 604.732 29.5714L597.236 38.9418ZM604.304 40.9178V52.9178C607.657 52.9178 611.536 52.3992 615.185 50.5068L609.662 39.8538L604.138 29.2007C604.621 28.9504 604.938 28.8858 604.959 28.8816C604.973 28.8788 604.928 28.8884 604.816 28.8984C604.703 28.9084 604.535 28.9178 604.304 28.9178V40.9178ZM609.662 39.8538L615.106 50.5477C618.384 48.8786 621.864 45.9782 623.623 41.3206L612.398 37.0798L601.172 32.839C602.07 30.4614 603.725 29.4103 604.217 29.1598L609.662 39.8538ZM653.446 20.2838H665.446C665.446 13.6564 660.073 8.28379 653.446 8.28379V20.2838ZM653.446 46.8838V58.8838C660.073 58.8838 665.446 53.5112 665.446 46.8838H653.446ZM645.542 46.8838H633.542C633.542 53.5112 638.914 58.8838 645.542 58.8838V46.8838ZM645.542 37.4598H657.542C657.542 30.8324 652.169 25.4598 645.542 25.4598V37.4598ZM639.88 37.4598V25.4598C636.352 25.4598 633.002 27.0125 630.722 29.7052L639.88 37.4598ZM631.9 46.8838V58.8838C635.428 58.8838 638.778 57.331 641.058 54.6384L631.9 46.8838ZM621.906 46.8838L613.234 38.5891C609.913 42.0615 608.983 47.1803 610.871 51.5989C612.759 56.0175 617.101 58.8838 621.906 58.8838V46.8838ZM631.102 37.2698L639.774 45.5645C642.905 42.2908 643.926 37.5327 642.413 33.2626C640.9 28.9925 637.112 25.9383 632.618 25.3659L631.102 37.2698ZM626.162 22.4878L619.288 12.6514C619.27 12.6645 619.251 12.6776 619.232 12.6908L626.162 22.4878ZM645.542 31.5318V43.5318C652.169 43.5318 657.542 38.1592 657.542 31.5318L645.542 31.5318ZM645.542 26.5918H657.542C657.542 19.9644 652.169 14.5918 645.542 14.5918V26.5918ZM631.9 27.2758L625.069 17.4095C625.009 17.4516 624.948 17.4942 624.888 17.5374L631.9 27.2758ZM653.446 20.2838H641.446V46.8838H653.446H665.446V20.2838H653.446ZM653.446 46.8838V34.8838H645.542V46.8838V58.8838H653.446V46.8838ZM645.542 46.8838H657.542V37.4598H645.542H633.542V46.8838H645.542ZM645.542 37.4598V25.4598H639.88V37.4598V49.4598H645.542V37.4598ZM639.88 37.4598L630.722 29.7052L622.742 39.1292L631.9 46.8838L641.058 54.6384L649.038 45.2144L639.88 37.4598ZM631.9 46.8838V34.8838H621.906V46.8838V58.8838H631.9V46.8838ZM621.906 46.8838L630.578 55.1785L639.774 45.5645L631.102 37.2698L622.43 28.9751L613.234 38.5891L621.906 46.8838ZM631.102 37.2698L632.618 25.3659C631.503 25.224 632.395 25.0771 633.585 26.2784C634.188 26.8877 634.604 27.5929 634.838 28.2407C635.055 28.8435 635.046 29.2 635.046 29.1378H623.046H611.046C611.046 33.8618 612.456 39.0515 616.535 43.1691C620.41 47.0811 625.33 48.6316 629.586 49.1736L631.102 37.2698ZM623.046 29.1378H635.046C635.046 29.051 635.059 29.5586 634.691 30.3439C634.293 31.1945 633.681 31.8679 633.091 32.2848L626.162 22.4878L619.232 12.6908C613.418 16.8035 611.046 23.0154 611.046 29.1378H623.046ZM626.162 22.4878L633.035 32.3241C632.895 32.4222 632.827 32.4274 632.933 32.3978C633.059 32.3628 633.422 32.2838 634.104 32.2838V20.2838V8.28379C629.059 8.28379 623.852 9.46255 619.288 12.6514L626.162 22.4878ZM634.104 20.2838V32.2838H653.446V20.2838V8.28379H634.104V20.2838ZM634.484 31.5318V43.5318H645.542V31.5318V19.5318H634.484V31.5318ZM645.542 31.5318H657.542V26.5918H645.542H633.542V31.5318H645.542ZM645.542 26.5918V14.5918H634.484V26.5918V38.5918H645.542V26.5918ZM634.484 26.5918V14.5918C631.768 14.5918 628.298 15.174 625.069 17.4095L631.9 27.2758L638.73 37.1421C636.819 38.4656 635.071 38.5918 634.484 38.5918V26.5918ZM631.9 27.2758L624.888 17.5374C621.099 20.2653 618.95 24.522 618.95 29.1378H630.95H642.95C642.95 30.3977 642.684 31.9543 641.876 33.5369C641.068 35.1223 639.956 36.2623 638.912 37.0142L631.9 27.2758ZM630.95 29.1378H618.95C618.95 33.7957 621.171 38.3044 625.431 41.031L631.9 30.9238L638.368 20.8165C639.584 21.5947 640.864 22.8127 641.782 24.5379C642.688 26.2409 642.95 27.8899 642.95 29.1378H630.95ZM631.9 30.9238L625.431 41.031C628.679 43.1094 632.076 43.5318 634.484 43.5318V31.5318V19.5318C634.713 19.5318 636.388 19.5489 638.368 20.8165L631.9 30.9238ZM667.706 26.7438H655.706C655.706 33.3712 661.079 38.7438 667.706 38.7438V26.7438ZM667.706 20.2838V8.28379C661.079 8.28379 655.706 13.6564 655.706 20.2838L667.706 20.2838ZM698.03 20.2838H710.03C710.03 13.6564 704.657 8.28379 698.03 8.28379V20.2838ZM698.03 26.7438V38.7438C704.657 38.7438 710.03 33.3712 710.03 26.7438L698.03 26.7438ZM686.82 26.7438V14.7438C680.193 14.7438 674.82 20.1164 674.82 26.7438L686.82 26.7438ZM686.82 46.8838V58.8838C693.447 58.8838 698.82 53.5112 698.82 46.8838H686.82ZM678.916 46.8838H666.916C666.916 53.5112 672.289 58.8838 678.916 58.8838V46.8838ZM678.916 26.7438H690.916C690.916 20.1164 685.543 14.7438 678.916 14.7438V26.7438ZM667.706 26.7438H679.706V20.2838H667.706H655.706V26.7438H667.706ZM667.706 20.2838V32.2838H698.03V20.2838V8.28379H667.706V20.2838ZM698.03 20.2838H686.03V26.7438H698.03H710.03V20.2838H698.03ZM698.03 26.7438V14.7438H686.82V26.7438V38.7438H698.03V26.7438ZM686.82 26.7438H674.82V46.8838H686.82H698.82V26.7438H686.82ZM686.82 46.8838V34.8838H678.916V46.8838V58.8838H686.82V46.8838ZM678.916 46.8838H690.916V26.7438H678.916H666.916V46.8838H678.916ZM678.916 26.7438V14.7438H667.706V26.7438V38.7438H678.916V26.7438ZM702.123 46.8838H690.123C690.123 53.5112 695.495 58.8838 702.123 58.8838V46.8838ZM702.123 20.2838V8.28379C695.495 8.28379 690.123 13.6564 690.123 20.2838L702.123 20.2838ZM729.217 20.2838H741.217C741.217 13.6564 735.844 8.28379 729.217 8.28379V20.2838ZM729.217 26.4398V38.4398C735.844 38.4398 741.217 33.0672 741.217 26.4398L729.217 26.4398ZM710.027 26.4398V14.4398C703.399 14.4398 698.027 19.8124 698.027 26.4398L710.027 26.4398ZM710.027 30.4678H698.027C698.027 37.0952 703.399 42.4678 710.027 42.4678V30.4678ZM724.999 30.4678H736.999C736.999 23.8404 731.626 18.4678 724.999 18.4678V30.4678ZM724.999 36.2438V48.2438C731.626 48.2438 736.999 42.8712 736.999 36.2438H724.999ZM710.027 36.2438V24.2438C703.399 24.2438 698.027 29.6164 698.027 36.2438H710.027ZM710.027 40.7278H698.027C698.027 47.3552 703.399 52.7278 710.027 52.7278V40.7278ZM729.939 40.7278H741.939C741.939 34.1004 736.566 28.7278 729.939 28.7278V40.7278ZM729.939 46.8838V58.8838C736.566 58.8838 741.939 53.5112 741.939 46.8838H729.939ZM702.123 46.8838H714.123V20.2838H702.123H690.123V46.8838H702.123ZM702.123 20.2838V32.2838H729.217V20.2838V8.28379H702.123V20.2838ZM729.217 20.2838H717.217V26.4398H729.217H741.217V20.2838H729.217ZM729.217 26.4398V14.4398H710.027V26.4398V38.4398H729.217V26.4398ZM710.027 26.4398H698.027V30.4678H710.027H722.027V26.4398H710.027ZM710.027 30.4678V42.4678H724.999V30.4678V18.4678H710.027V30.4678ZM724.999 30.4678H712.999V36.2438H724.999H736.999V30.4678H724.999ZM724.999 36.2438V24.2438H710.027V36.2438V48.2438H724.999V36.2438ZM710.027 36.2438H698.027V40.7278H710.027H722.027V36.2438H710.027ZM710.027 40.7278V52.7278H729.939V40.7278V28.7278H710.027V40.7278ZM729.939 40.7278H717.939V46.8838H729.939H741.939V40.7278H729.939ZM729.939 46.8838V34.8838H702.123V46.8838V58.8838H729.939V46.8838ZM761.604 32.2158L754.806 42.1043C754.853 42.1367 754.9 42.1687 754.948 42.2004L761.604 32.2158ZM761.642 44.8318L768.356 54.778L768.356 54.778L761.642 44.8318ZM734.89 46.8838H722.89C722.89 53.5112 728.263 58.8838 734.89 58.8838V46.8838ZM734.89 20.2838V8.28379C728.263 8.28379 722.89 13.6564 722.89 20.2838L734.89 20.2838ZM761.794 20.2838H773.794C773.794 13.6564 768.422 8.28379 761.794 8.28379V20.2838ZM761.794 26.3638V38.3638C768.422 38.3638 773.794 32.9912 773.794 26.3638L761.794 26.3638ZM742.794 26.3638V14.3638C736.167 14.3638 730.794 19.7364 730.794 26.3638L742.794 26.3638ZM742.794 30.1258H730.794C730.794 36.7532 736.167 42.1258 742.794 42.1258V30.1258ZM742.794 36.1298V24.1298C736.167 24.1298 730.794 29.5024 730.794 36.1298H742.794ZM742.794 40.8038H730.794C730.794 47.4312 736.167 52.8038 742.794 52.8038V40.8038ZM753.624 30.1258V42.1258C755.298 42.1258 755.356 42.4822 754.806 42.1043L761.604 32.2158L768.403 22.3273C763.8 19.1627 758.537 18.1258 753.624 18.1258V30.1258ZM761.604 32.2158L754.948 42.2004C754.32 41.7818 753.617 41.0673 753.141 40.0974C752.695 39.1896 752.682 38.5374 752.682 38.4858H764.682H776.682C776.682 32.3183 774.163 26.166 768.261 22.2312L761.604 32.2158ZM764.682 38.4858H752.682C752.682 38.5111 752.679 37.9127 753.1 37.0349C753.555 36.0847 754.252 35.3424 754.929 34.8856L761.642 44.8318L768.356 54.778C774.291 50.7721 776.682 44.5497 776.682 38.4858H764.682ZM761.642 44.8318L754.929 34.8856C755.479 34.5143 755.384 34.8838 753.624 34.8838V46.8838V58.8838C758.502 58.8838 763.753 57.8853 768.356 54.778L761.642 44.8318ZM753.624 46.8838V34.8838H738.196V46.8838V58.8838H753.624V46.8838ZM738.196 46.8838V34.8838H734.89V46.8838V58.8838H738.196V46.8838ZM734.89 46.8838H746.89V20.2838H734.89H722.89V46.8838H734.89ZM734.89 20.2838V32.2838H742.794V20.2838V8.28379H734.89V20.2838ZM742.794 20.2838V32.2838H761.794V20.2838V8.28379H742.794V20.2838ZM761.794 20.2838H749.794V26.3638H761.794H773.794V20.2838H761.794ZM761.794 26.3638V14.3638H742.794V26.3638V38.3638H761.794V26.3638ZM742.794 26.3638H730.794V30.1258H742.794H754.794V26.3638H742.794ZM742.794 30.1258V42.1258H753.624V30.1258V18.1258H742.794V30.1258ZM753.016 40.8038V52.8038C755.135 52.8038 758.763 52.5421 762.207 50.385C766.59 47.6403 768.778 43.06 768.778 38.4478H756.778H744.778C744.778 37.2223 745.032 35.5649 745.95 33.8404C746.885 32.0843 748.2 30.8389 749.469 30.0446C751.659 28.6728 753.406 28.8038 753.016 28.8038V40.8038ZM756.778 38.4478H768.778C768.778 33.7588 766.512 29.1912 762.133 26.4929C758.708 24.3827 755.113 24.1298 753.016 24.1298V36.1298V48.1298C753.428 48.1298 751.714 48.2632 749.543 46.9256C748.282 46.1486 746.946 44.9138 745.989 43.1435C745.045 41.3991 744.778 39.71 744.778 38.4478H756.778ZM753.016 36.1298V24.1298H742.794V36.1298V48.1298H753.016V36.1298ZM742.794 36.1298H730.794V40.8038H742.794H754.794V36.1298H742.794ZM742.794 40.8038V52.8038H753.016V40.8038V28.8038H742.794V40.8038ZM769.068 46.8838H757.068C757.068 53.5112 762.441 58.8838 769.068 58.8838V46.8838ZM769.068 20.2838V8.28379C762.441 8.28379 757.068 13.6564 757.068 20.2838L769.068 20.2838ZM796.162 20.2838H808.162C808.162 13.6564 802.789 8.28379 796.162 8.28379V20.2838ZM796.162 26.4398V38.4398C802.789 38.4398 808.162 33.0672 808.162 26.4398L796.162 26.4398ZM776.972 26.4398V14.4398C770.345 14.4398 764.972 19.8124 764.972 26.4398L776.972 26.4398ZM776.972 30.4678H764.972C764.972 37.0952 770.345 42.4678 776.972 42.4678V30.4678ZM791.944 30.4678H803.944C803.944 23.8404 798.571 18.4678 791.944 18.4678V30.4678ZM791.944 36.2438V48.2438C798.571 48.2438 803.944 42.8712 803.944 36.2438H791.944ZM776.972 36.2438V24.2438C770.345 24.2438 764.972 29.6164 764.972 36.2438H776.972ZM776.972 40.7278H764.972C764.972 47.3552 770.345 52.7278 776.972 52.7278V40.7278ZM796.884 40.7278H808.884C808.884 34.1004 803.511 28.7278 796.884 28.7278V40.7278ZM796.884 46.8838V58.8838C803.511 58.8838 808.884 53.5112 808.884 46.8838H796.884ZM769.068 46.8838H781.068V20.2838H769.068H757.068V46.8838H769.068ZM769.068 20.2838V32.2838H796.162V20.2838V8.28379H769.068V20.2838ZM796.162 20.2838H784.162V26.4398H796.162H808.162V20.2838H796.162ZM796.162 26.4398V14.4398H776.972V26.4398V38.4398H796.162V26.4398ZM776.972 26.4398H764.972V30.4678H776.972H788.972V26.4398H776.972ZM776.972 30.4678V42.4678H791.944V30.4678V18.4678H776.972V30.4678ZM791.944 30.4678H779.944V36.2438H791.944H803.944V30.4678H791.944ZM791.944 36.2438V24.2438H776.972V36.2438V48.2438H791.944V36.2438ZM776.972 36.2438H764.972V40.7278H776.972H788.972V36.2438H776.972ZM776.972 40.7278V52.7278H796.884V40.7278V28.7278H776.972V40.7278ZM796.884 40.7278H784.884V46.8838H796.884H808.884V40.7278H796.884ZM796.884 46.8838V34.8838H769.068V46.8838V58.8838H796.884V46.8838Z" fill="#282828" mask="url(#path-1-outside-1_923_83)"></path></svg>