<svg xmlns="http://www.w3.org/2000/svg" width="509" height="155" viewBox="0 0 509 155" fill="none"><mask id="path-1-outside-1_936_85" maskUnits="userSpaceOnUse" x="-0.384766" y="-0.431641" width="510" height="155" fill="black"><rect fill="white" x="-0.384766" y="-0.431641" width="510" height="155"></rect><path d="M72.1432 52.6884H78.0952V73.7444H65.6152V63.5684H30.4792V73.7444H17.9992V52.6884H23.3112C24.8899 51.067 26.1699 47.6964 27.1512 42.5764C28.1752 37.4564 28.8366 29.5204 29.1352 18.7684H72.1432V52.6884ZM58.8312 52.6884V29.6484H41.1032C40.5059 36.0484 39.7166 41.1044 38.7352 44.8164C37.8392 48.3577 36.9219 50.9817 35.9832 52.6884H58.8312ZM89.5532 58.1924C84.3052 54.0964 81.6812 48.4217 81.6812 41.1684C81.6812 33.915 84.3052 28.2404 89.5532 24.1444C94.8012 20.0484 102.097 18.0004 111.441 18.0004C120.785 18.0004 128.081 20.0484 133.329 24.1444C138.577 28.2404 141.201 33.915 141.201 41.1684C141.201 48.4217 138.577 54.0964 133.329 58.1924C128.081 62.2884 120.785 64.3364 111.441 64.3364C102.097 64.3364 94.8012 62.2884 89.5532 58.1924ZM99.2812 32.2084C96.4226 34.427 94.9932 37.4137 94.9932 41.1684C94.9932 44.923 96.4226 47.931 99.2812 50.1924C102.183 52.411 106.236 53.5204 111.441 53.5204C116.647 53.5204 120.679 52.411 123.537 50.1924C126.439 47.931 127.889 44.923 127.889 41.1684C127.889 37.4137 126.439 34.427 123.537 32.2084C120.679 29.947 116.647 28.8164 111.441 28.8164C106.236 28.8164 102.183 29.947 99.2812 32.2084ZM189.75 47.0564L202.678 47.6964C201.782 53.1577 199.073 57.2964 194.55 60.1124C190.07 62.9284 183.926 64.3364 176.118 64.3364C166.817 64.3364 159.606 62.3097 154.486 58.2564C149.366 54.1604 146.806 48.4644 146.806 41.1684C146.806 33.8724 149.302 28.1977 154.294 24.1444C159.286 20.0484 166.284 18.0004 175.286 18.0004C182.668 18.0004 188.662 19.4297 193.27 22.2884C197.878 25.1044 200.694 28.9444 201.718 33.8084L188.918 34.6404C188.193 32.891 186.593 31.483 184.118 30.4164C181.644 29.3497 178.7 28.8164 175.286 28.8164C170.422 28.8164 166.668 29.947 164.022 32.2084C161.42 34.427 160.118 37.4137 160.118 41.1684C160.118 44.9657 161.484 47.9737 164.214 50.1924C166.988 52.411 170.956 53.5204 176.118 53.5204C179.83 53.5204 182.838 52.923 185.142 51.7284C187.489 50.5337 189.025 48.9764 189.75 47.0564ZM205.526 29.6484V18.7684H256.598V29.6484H237.718V63.5684H224.406V29.6484H205.526ZM298.277 63.5684L294.629 54.9284H268.773L265.125 63.5684H252.005L271.653 18.7684H292.133L311.845 63.5684H298.277ZM273.061 44.9444H290.405L281.701 24.4644L273.061 44.9444ZM355.114 40.7204C364.629 41.5737 369.386 45.115 369.386 51.3444C369.386 55.1417 367.701 58.1284 364.33 60.3044C360.96 62.4804 355.925 63.5684 349.226 63.5684H317.866V18.7684H349.226C354.858 18.7684 359.296 19.8777 362.538 22.0964C365.824 24.315 367.466 27.2164 367.466 30.8004C367.466 36.3897 363.349 39.6964 355.114 40.7204ZM331.178 29.0084V36.1124H348.586C350.336 36.1124 351.701 35.7924 352.682 35.1524C353.664 34.5124 354.154 33.6377 354.154 32.5284C354.154 30.1817 352.298 29.0084 348.586 29.0084H331.178ZM347.882 53.3284C350.826 53.3284 352.917 53.051 354.154 52.4964C355.434 51.9417 356.074 50.9817 356.074 49.6164C356.074 48.2084 355.456 47.227 354.218 46.6724C352.981 46.1177 351.082 45.8404 348.522 45.8404H331.178V53.3284H347.882ZM430.814 63.5684H413.982L396.958 46.2244H390.366V63.5684H377.054V18.7684H390.366V36.0484H396.702L412.894 18.7684H428.83L407.262 40.2724L430.814 63.5684ZM470.529 18.7684H491.009V63.5684H478.017V28.1764L457.409 63.5684H436.929V18.7684H449.921V54.1604L470.529 18.7684ZM56.5912 90.7684H77.0712V135.568H64.0792V100.176L43.4712 135.568H22.9912V90.7684H35.9832V126.16L56.5912 90.7684ZM111.928 130.192C106.68 126.096 104.056 120.422 104.056 113.168C104.056 105.915 106.68 100.24 111.928 96.1444C117.176 92.0484 124.472 90.0004 133.816 90.0004C143.16 90.0004 150.456 92.0484 155.704 96.1444C160.952 100.24 163.576 105.915 163.576 113.168C163.576 120.422 160.952 126.096 155.704 130.192C150.456 134.288 143.16 136.336 133.816 136.336C124.472 136.336 117.176 134.288 111.928 130.192ZM121.656 104.208C118.798 106.427 117.368 109.414 117.368 113.168C117.368 116.923 118.798 119.931 121.656 122.192C124.558 124.411 128.611 125.52 133.816 125.52C139.022 125.52 143.054 124.411 145.912 122.192C148.814 119.931 150.264 116.923 150.264 113.168C150.264 109.414 148.814 106.427 145.912 104.208C143.054 101.947 139.022 100.816 133.816 100.816C128.611 100.816 124.558 101.947 121.656 104.208ZM223.709 90.7684V135.568H210.397V101.648H185.053V135.568H171.741V90.7684H223.709ZM242.171 90.7684H286.779V135.568H273.467V101.648H254.203C254.118 102.843 254.011 104.592 253.883 106.896C253.67 110.608 253.478 113.36 253.307 115.152C253.179 116.902 252.902 119.142 252.475 121.872C252.091 124.603 251.537 126.63 250.811 127.952C250.129 129.232 249.19 130.598 247.995 132.048C246.843 133.499 245.371 134.502 243.579 135.056C241.787 135.611 239.675 135.888 237.243 135.888C235.537 135.888 233.233 135.782 230.331 135.568V124.752C231.697 124.923 232.827 125.008 233.723 125.008C234.662 125.008 235.473 124.88 236.155 124.624C236.881 124.326 237.499 123.835 238.011 123.152C238.566 122.47 239.014 121.744 239.355 120.976C239.739 120.208 240.059 119.163 240.315 117.84C240.571 116.518 240.763 115.259 240.891 114.064C241.062 112.827 241.19 111.227 241.275 109.264C241.403 107.302 241.489 105.51 241.531 103.888C241.617 102.267 241.702 100.198 241.787 97.6804C241.915 95.1204 242.043 92.8164 242.171 90.7684ZM339.09 135.568L335.442 126.928H309.586L305.938 135.568H292.818L312.466 90.7684H332.946L352.658 135.568H339.09ZM313.874 116.944H331.218L322.514 96.4644L313.874 116.944ZM348.089 101.648V90.7684H399.161V101.648H380.281V135.568H366.969V101.648H348.089ZM440.84 135.568L437.192 126.928H411.336L407.688 135.568H394.568L414.216 90.7684H434.696L454.408 135.568H440.84ZM415.624 116.944H432.968L424.264 96.4644L415.624 116.944Z"></path></mask><path d="M72.1432 52.6884H78.0952V73.7444H65.6152V63.5684H30.4792V73.7444H17.9992V52.6884H23.3112C24.8899 51.067 26.1699 47.6964 27.1512 42.5764C28.1752 37.4564 28.8366 29.5204 29.1352 18.7684H72.1432V52.6884ZM58.8312 52.6884V29.6484H41.1032C40.5059 36.0484 39.7166 41.1044 38.7352 44.8164C37.8392 48.3577 36.9219 50.9817 35.9832 52.6884H58.8312ZM89.5532 58.1924C84.3052 54.0964 81.6812 48.4217 81.6812 41.1684C81.6812 33.915 84.3052 28.2404 89.5532 24.1444C94.8012 20.0484 102.097 18.0004 111.441 18.0004C120.785 18.0004 128.081 20.0484 133.329 24.1444C138.577 28.2404 141.201 33.915 141.201 41.1684C141.201 48.4217 138.577 54.0964 133.329 58.1924C128.081 62.2884 120.785 64.3364 111.441 64.3364C102.097 64.3364 94.8012 62.2884 89.5532 58.1924ZM99.2812 32.2084C96.4226 34.427 94.9932 37.4137 94.9932 41.1684C94.9932 44.923 96.4226 47.931 99.2812 50.1924C102.183 52.411 106.236 53.5204 111.441 53.5204C116.647 53.5204 120.679 52.411 123.537 50.1924C126.439 47.931 127.889 44.923 127.889 41.1684C127.889 37.4137 126.439 34.427 123.537 32.2084C120.679 29.947 116.647 28.8164 111.441 28.8164C106.236 28.8164 102.183 29.947 99.2812 32.2084ZM189.75 47.0564L202.678 47.6964C201.782 53.1577 199.073 57.2964 194.55 60.1124C190.07 62.9284 183.926 64.3364 176.118 64.3364C166.817 64.3364 159.606 62.3097 154.486 58.2564C149.366 54.1604 146.806 48.4644 146.806 41.1684C146.806 33.8724 149.302 28.1977 154.294 24.1444C159.286 20.0484 166.284 18.0004 175.286 18.0004C182.668 18.0004 188.662 19.4297 193.27 22.2884C197.878 25.1044 200.694 28.9444 201.718 33.8084L188.918 34.6404C188.193 32.891 186.593 31.483 184.118 30.4164C181.644 29.3497 178.7 28.8164 175.286 28.8164C170.422 28.8164 166.668 29.947 164.022 32.2084C161.42 34.427 160.118 37.4137 160.118 41.1684C160.118 44.9657 161.484 47.9737 164.214 50.1924C166.988 52.411 170.956 53.5204 176.118 53.5204C179.83 53.5204 182.838 52.923 185.142 51.7284C187.489 50.5337 189.025 48.9764 189.75 47.0564ZM205.526 29.6484V18.7684H256.598V29.6484H237.718V63.5684H224.406V29.6484H205.526ZM298.277 63.5684L294.629 54.9284H268.773L265.125 63.5684H252.005L271.653 18.7684H292.133L311.845 63.5684H298.277ZM273.061 44.9444H290.405L281.701 24.4644L273.061 44.9444ZM355.114 40.7204C364.629 41.5737 369.386 45.115 369.386 51.3444C369.386 55.1417 367.701 58.1284 364.33 60.3044C360.96 62.4804 355.925 63.5684 349.226 63.5684H317.866V18.7684H349.226C354.858 18.7684 359.296 19.8777 362.538 22.0964C365.824 24.315 367.466 27.2164 367.466 30.8004C367.466 36.3897 363.349 39.6964 355.114 40.7204ZM331.178 29.0084V36.1124H348.586C350.336 36.1124 351.701 35.7924 352.682 35.1524C353.664 34.5124 354.154 33.6377 354.154 32.5284C354.154 30.1817 352.298 29.0084 348.586 29.0084H331.178ZM347.882 53.3284C350.826 53.3284 352.917 53.051 354.154 52.4964C355.434 51.9417 356.074 50.9817 356.074 49.6164C356.074 48.2084 355.456 47.227 354.218 46.6724C352.981 46.1177 351.082 45.8404 348.522 45.8404H331.178V53.3284H347.882ZM430.814 63.5684H413.982L396.958 46.2244H390.366V63.5684H377.054V18.7684H390.366V36.0484H396.702L412.894 18.7684H428.83L407.262 40.2724L430.814 63.5684ZM470.529 18.7684H491.009V63.5684H478.017V28.1764L457.409 63.5684H436.929V18.7684H449.921V54.1604L470.529 18.7684ZM56.5912 90.7684H77.0712V135.568H64.0792V100.176L43.4712 135.568H22.9912V90.7684H35.9832V126.16L56.5912 90.7684ZM111.928 130.192C106.68 126.096 104.056 120.422 104.056 113.168C104.056 105.915 106.68 100.24 111.928 96.1444C117.176 92.0484 124.472 90.0004 133.816 90.0004C143.16 90.0004 150.456 92.0484 155.704 96.1444C160.952 100.24 163.576 105.915 163.576 113.168C163.576 120.422 160.952 126.096 155.704 130.192C150.456 134.288 143.16 136.336 133.816 136.336C124.472 136.336 117.176 134.288 111.928 130.192ZM121.656 104.208C118.798 106.427 117.368 109.414 117.368 113.168C117.368 116.923 118.798 119.931 121.656 122.192C124.558 124.411 128.611 125.52 133.816 125.52C139.022 125.52 143.054 124.411 145.912 122.192C148.814 119.931 150.264 116.923 150.264 113.168C150.264 109.414 148.814 106.427 145.912 104.208C143.054 101.947 139.022 100.816 133.816 100.816C128.611 100.816 124.558 101.947 121.656 104.208ZM223.709 90.7684V135.568H210.397V101.648H185.053V135.568H171.741V90.7684H223.709ZM242.171 90.7684H286.779V135.568H273.467V101.648H254.203C254.118 102.843 254.011 104.592 253.883 106.896C253.67 110.608 253.478 113.36 253.307 115.152C253.179 116.902 252.902 119.142 252.475 121.872C252.091 124.603 251.537 126.63 250.811 127.952C250.129 129.232 249.19 130.598 247.995 132.048C246.843 133.499 245.371 134.502 243.579 135.056C241.787 135.611 239.675 135.888 237.243 135.888C235.537 135.888 233.233 135.782 230.331 135.568V124.752C231.697 124.923 232.827 125.008 233.723 125.008C234.662 125.008 235.473 124.88 236.155 124.624C236.881 124.326 237.499 123.835 238.011 123.152C238.566 122.47 239.014 121.744 239.355 120.976C239.739 120.208 240.059 119.163 240.315 117.84C240.571 116.518 240.763 115.259 240.891 114.064C241.062 112.827 241.19 111.227 241.275 109.264C241.403 107.302 241.489 105.51 241.531 103.888C241.617 102.267 241.702 100.198 241.787 97.6804C241.915 95.1204 242.043 92.8164 242.171 90.7684ZM339.09 135.568L335.442 126.928H309.586L305.938 135.568H292.818L312.466 90.7684H332.946L352.658 135.568H339.09ZM313.874 116.944H331.218L322.514 96.4644L313.874 116.944ZM348.089 101.648V90.7684H399.161V101.648H380.281V135.568H366.969V101.648H348.089ZM440.84 135.568L437.192 126.928H411.336L407.688 135.568H394.568L414.216 90.7684H434.696L454.408 135.568H440.84ZM415.624 116.944H432.968L424.264 96.4644L415.624 116.944Z" fill="white"></path><path d="M72.1432 52.6884H54.1432C54.1432 62.6295 62.2021 70.6884 72.1432 70.6884V52.6884ZM78.0952 52.6884H96.0952C96.0952 42.7472 88.0364 34.6884 78.0952 34.6884V52.6884ZM78.0952 73.7444V91.7444C88.0364 91.7444 96.0952 83.6855 96.0952 73.7444H78.0952ZM65.6152 73.7444H47.6152C47.6152 83.6855 55.6741 91.7444 65.6152 91.7444V73.7444ZM65.6152 63.5684H83.6152C83.6152 53.6272 75.5564 45.5684 65.6152 45.5684V63.5684ZM30.4792 63.5684V45.5684C20.5381 45.5684 12.4792 53.6272 12.4792 63.5684L30.4792 63.5684ZM30.4792 73.7444V91.7444C40.4204 91.7444 48.4792 83.6855 48.4792 73.7444H30.4792ZM17.9992 73.7444H-0.000765622C-0.000765622 83.6855 8.05811 91.7444 17.9992 91.7444L17.9992 73.7444ZM17.9992 52.6884V34.6884C8.05811 34.6884 -0.000765622 42.7472 -0.000765622 52.6884H17.9992ZM23.3112 52.6884V70.6884C28.1683 70.6884 32.8193 68.7254 36.2077 65.2455L23.3112 52.6884ZM27.1512 42.5764L9.50078 39.0463C9.49134 39.0935 9.48208 39.1407 9.47302 39.188L27.1512 42.5764ZM29.1352 18.7684V0.768356C19.3888 0.768356 11.4128 8.52584 11.1422 18.2685L29.1352 18.7684ZM72.1432 18.7684H90.1432C90.1432 8.82723 82.0844 0.768356 72.1432 0.768356V18.7684ZM58.8312 52.6884V70.6884C68.7724 70.6884 76.8312 62.6295 76.8312 52.6884H58.8312ZM58.8312 29.6484H76.8312C76.8312 19.7072 68.7724 11.6484 58.8312 11.6484L58.8312 29.6484ZM41.1032 29.6484V11.6484C31.8102 11.6484 24.0447 18.7228 23.1811 27.9756L41.1032 29.6484ZM38.7352 44.8164L21.3331 40.2158C21.3168 40.2775 21.3008 40.3394 21.2851 40.4013L38.7352 44.8164ZM35.9832 52.6884L20.2113 44.0138C17.1444 49.5901 17.2499 56.3715 20.489 61.8496C23.7281 67.3278 29.6191 70.6884 35.9832 70.6884L35.9832 52.6884ZM72.1432 52.6884V70.6884H78.0952V52.6884V34.6884H72.1432V52.6884ZM78.0952 52.6884H60.0952V73.7444H78.0952H96.0952V52.6884H78.0952ZM78.0952 73.7444V55.7444H65.6152V73.7444V91.7444H78.0952V73.7444ZM65.6152 73.7444H83.6152V63.5684H65.6152H47.6152V73.7444H65.6152ZM65.6152 63.5684V45.5684H30.4792V63.5684V81.5684H65.6152V63.5684ZM30.4792 63.5684H12.4792V73.7444H30.4792H48.4792V63.5684H30.4792ZM30.4792 73.7444V55.7444H17.9992V73.7444V91.7444H30.4792V73.7444ZM17.9992 73.7444H35.9992V52.6884H17.9992H-0.000765622V73.7444H17.9992ZM17.9992 52.6884V70.6884H23.3112V52.6884V34.6884H17.9992V52.6884ZM23.3112 52.6884L36.2077 65.2455C39.4336 61.9324 41.2279 58.1122 42.2828 55.3346C43.4159 52.3505 44.2211 49.1387 44.8294 45.9647L27.1512 42.5764L9.47302 39.188C9.29352 40.1245 9.12079 40.873 8.96556 41.4559C8.80858 42.0453 8.68801 42.3954 8.62772 42.5542C8.56265 42.7255 8.60763 42.5687 8.81908 42.1995C9.02155 41.8459 9.51335 41.057 10.4148 40.1313L23.3112 52.6884ZM27.1512 42.5764L44.8017 46.1064C46.1404 39.413 46.8244 30.2066 47.1283 19.2682L29.1352 18.7684L11.1422 18.2685C10.8487 28.8341 10.2101 35.4997 9.50078 39.0463L27.1512 42.5764ZM29.1352 18.7684V36.7684H72.1432V18.7684V0.768356H29.1352V18.7684ZM72.1432 18.7684H54.1432V52.6884H72.1432H90.1432V18.7684H72.1432ZM58.8312 52.6884H76.8312V29.6484H58.8312H40.8312V52.6884H58.8312ZM58.8312 29.6484V11.6484H41.1032V29.6484V47.6484H58.8312V29.6484ZM41.1032 29.6484L23.1811 27.9756C22.6234 33.951 21.9483 37.8888 21.3331 40.2158L38.7352 44.8164L56.1374 49.4169C57.4849 44.3199 58.3884 38.1457 59.0253 31.3211L41.1032 29.6484ZM38.7352 44.8164L21.2851 40.4013C20.9296 41.8065 20.6226 42.8166 20.3836 43.5002C20.1279 44.2317 20.0434 44.3191 20.2113 44.0138L35.9832 52.6884L51.7551 61.3629C53.8178 57.6125 55.1802 53.2041 56.1854 49.2315L38.7352 44.8164ZM35.9832 52.6884V70.6884H58.8312V52.6884V34.6884H35.9832V52.6884ZM89.5532 58.1924L100.628 44.0027L89.5532 58.1924ZM89.5532 24.1444L78.4784 9.95467L78.4784 9.95467L89.5532 24.1444ZM133.329 24.1444L144.404 9.95467L144.404 9.95467L133.329 24.1444ZM133.329 58.1924L122.254 44.0027L122.254 44.0027L133.329 58.1924ZM99.2812 32.2084L110.317 46.4281C110.327 46.4206 110.337 46.413 110.347 46.4054L99.2812 32.2084ZM99.2812 50.1924L88.114 64.3095C88.1912 64.3705 88.2689 64.431 88.3471 64.4908L99.2812 50.1924ZM123.537 50.1924L134.573 64.4121C134.583 64.4046 134.593 64.397 134.603 64.3894L123.537 50.1924ZM123.537 32.2084L112.37 46.3254C112.447 46.3865 112.525 46.447 112.603 46.5068L123.537 32.2084ZM89.5532 58.1924L100.628 44.0027C100.111 43.599 100.02 43.3806 99.9871 43.3096C99.9321 43.1906 99.6812 42.6018 99.6812 41.1684H81.6812H63.6812C63.6812 53.3953 68.4292 64.5388 78.4784 72.382L89.5532 58.1924ZM81.6812 41.1684H99.6812C99.6812 39.735 99.9321 39.1461 99.9871 39.0271C100.02 38.9561 100.111 38.7377 100.628 38.334L89.5532 24.1444L78.4784 9.95467C68.4292 17.7979 63.6812 28.9414 63.6812 41.1684H81.6812ZM89.5532 24.1444L100.628 38.334C101.655 37.5323 104.524 36.0004 111.441 36.0004V18.0004V0.000358582C99.6707 0.000358582 87.9471 2.56441 78.4784 9.95467L89.5532 24.1444ZM111.441 18.0004V36.0004C118.359 36.0004 121.227 37.5323 122.254 38.334L133.329 24.1444L144.404 9.95467C134.935 2.56441 123.212 0.000358582 111.441 0.000358582V18.0004ZM133.329 24.1444L122.254 38.334C122.772 38.7377 122.863 38.9561 122.895 39.0271C122.95 39.1461 123.201 39.735 123.201 41.1684H141.201H159.201C159.201 28.9414 154.453 17.7979 144.404 9.95467L133.329 24.1444ZM141.201 41.1684H123.201C123.201 42.6018 122.95 43.1906 122.895 43.3096C122.863 43.3806 122.772 43.599 122.254 44.0027L133.329 58.1924L144.404 72.382C154.453 64.5388 159.201 53.3953 159.201 41.1684H141.201ZM133.329 58.1924L122.254 44.0027C121.227 44.8044 118.359 46.3364 111.441 46.3364V64.3364V82.3364C123.212 82.3364 134.935 79.7723 144.404 72.382L133.329 58.1924ZM111.441 64.3364V46.3364C104.524 46.3364 101.655 44.8044 100.628 44.0027L89.5532 58.1924L78.4784 72.382C87.9471 79.7723 99.6707 82.3364 111.441 82.3364V64.3364ZM99.2812 32.2084L88.245 17.9886C80.8041 23.7636 76.9932 32.0962 76.9932 41.1684H94.9932H112.993C112.993 41.6187 112.895 42.6438 112.302 43.8827C111.699 45.1425 110.89 45.9834 110.317 46.4281L99.2812 32.2084ZM94.9932 41.1684H76.9932C76.9932 50.233 80.7906 58.5164 88.114 64.3095L99.2812 50.1924L110.448 36.0753C110.976 36.4924 111.745 37.2976 112.323 38.515C112.894 39.716 112.993 40.7154 112.993 41.1684H94.9932ZM99.2812 50.1924L88.3471 64.4908C95.476 69.9423 103.916 71.5204 111.441 71.5204V53.5204V35.5204C110.078 35.5204 109.41 35.3711 109.249 35.3268C109.127 35.2936 109.566 35.3971 110.215 35.8939L99.2812 50.1924ZM111.441 53.5204V71.5204C118.943 71.5204 127.436 69.9514 134.573 64.4121L123.537 50.1924L112.501 35.9726C113.2 35.43 113.688 35.3075 113.594 35.3332C113.459 35.3705 112.807 35.5204 111.441 35.5204V53.5204ZM123.537 50.1924L134.603 64.3894C141.985 58.6356 145.889 50.3369 145.889 41.1684H127.889H109.889C109.889 40.677 109.999 39.6439 110.588 38.4213C111.183 37.1871 111.964 36.3912 112.472 35.9953L123.537 50.1924ZM127.889 41.1684H145.889C145.889 31.9911 141.97 23.6444 134.471 17.9099L123.537 32.2084L112.603 46.5068C112.05 46.084 111.23 45.2533 110.61 43.9766C109.998 42.7161 109.889 41.6572 109.889 41.1684H127.889ZM123.537 32.2084L134.704 18.0913C127.555 12.4355 119.008 10.8164 111.441 10.8164V28.8164V46.8164C112.782 46.8164 113.404 46.9663 113.509 46.9958C113.569 47.0127 113.067 46.8768 112.37 46.3254L123.537 32.2084ZM111.441 28.8164V10.8164C103.852 10.8164 95.3581 12.4445 88.2159 18.0113L99.2812 32.2084L110.347 46.4054C109.698 46.9107 109.245 47.0271 109.334 47.0024C109.465 46.9657 110.103 46.8164 111.441 46.8164V28.8164ZM189.75 47.0564L190.64 29.0784C182.836 28.692 175.673 33.3852 172.912 40.6951L189.75 47.0564ZM202.678 47.6964L220.441 50.6105C221.271 45.5504 219.904 40.3764 216.682 36.3871C213.46 32.3978 208.69 29.9719 203.568 29.7184L202.678 47.6964ZM194.55 60.1124L185.036 44.8322C185.014 44.8457 184.993 44.8593 184.971 44.8729L194.55 60.1124ZM154.486 58.2564L143.242 72.312C143.266 72.3311 143.29 72.3502 143.314 72.3692L154.486 58.2564ZM154.294 24.1444L165.64 38.1181C165.664 38.0987 165.688 38.0792 165.712 38.0597L154.294 24.1444ZM193.27 22.2884L183.781 37.5841C183.815 37.6053 183.85 37.6264 183.884 37.6474L193.27 22.2884ZM201.718 33.8084L202.886 51.7705C208.095 51.4319 212.901 48.8484 216.057 44.6902C219.212 40.5319 220.408 35.2084 219.332 30.1002L201.718 33.8084ZM188.918 34.6404L172.291 41.5346C175.242 48.6524 182.397 53.1022 190.086 52.6025L188.918 34.6404ZM184.118 30.4164L176.993 46.9462L176.993 46.9462L184.118 30.4164ZM164.022 32.2084L175.699 45.9066C175.706 45.9013 175.712 45.8959 175.718 45.8905L164.022 32.2084ZM164.214 50.1924L152.864 64.1624C152.899 64.1911 152.934 64.2196 152.97 64.248L164.214 50.1924ZM185.142 51.7284L176.976 35.6874C176.936 35.7077 176.896 35.7282 176.857 35.7488L185.142 51.7284ZM189.75 47.0564L188.86 65.0343L201.788 65.6743L202.678 47.6964L203.568 29.7184L190.64 29.0784L189.75 47.0564ZM202.678 47.6964L184.916 44.7822C184.868 45.0736 184.82 45.2047 184.815 45.2159C184.813 45.2226 184.819 45.206 184.836 45.1712C184.854 45.1362 184.88 45.0902 184.914 45.0375C184.949 44.9848 184.987 44.9334 185.026 44.8859C185.066 44.8386 185.1 44.8025 185.126 44.7781C185.151 44.7539 185.161 44.7467 185.15 44.7549C185.14 44.7633 185.104 44.7902 185.036 44.8322L194.55 60.1124L204.064 75.3925C213.181 69.7163 218.742 60.9633 220.441 50.6105L202.678 47.6964ZM194.55 60.1124L184.971 44.8729C184.417 45.221 182.05 46.3364 176.118 46.3364V64.3364V82.3364C185.802 82.3364 195.723 80.6357 204.129 75.3518L194.55 60.1124ZM176.118 64.3364V46.3364C169.193 46.3364 166.494 44.8045 165.659 44.1435L154.486 58.2564L143.314 72.3692C152.719 79.8149 164.441 82.3364 176.118 82.3364V64.3364ZM154.486 58.2564L165.731 44.2007C165.286 43.8446 165.195 43.6462 165.144 43.5335C165.068 43.3638 164.806 42.6969 164.806 41.1684H146.806H128.806C128.806 53.2316 133.333 64.385 143.242 72.312L154.486 58.2564ZM146.806 41.1684H164.806C164.806 39.5797 165.073 38.873 165.155 38.6876C165.208 38.5672 165.279 38.4114 165.64 38.1181L154.294 24.1444L142.948 10.1707C133.147 18.129 128.806 29.273 128.806 41.1684H146.806ZM154.294 24.1444L165.712 38.0597C166.422 37.4773 168.825 36.0004 175.286 36.0004V18.0004V0.000358582C163.742 0.000358582 152.151 2.6194 142.877 10.229L154.294 24.1444ZM175.286 18.0004V36.0004C180.484 36.0004 182.876 37.0223 183.781 37.5841L193.27 22.2884L202.759 6.99264C194.449 1.83713 184.851 0.000358582 175.286 0.000358582V18.0004ZM193.27 22.2884L183.884 37.6474C184.178 37.8273 184.326 37.9511 184.374 37.9946C184.42 38.035 184.388 38.0139 184.323 37.9249C184.292 37.8829 184.259 37.8331 184.227 37.7774C184.195 37.7217 184.168 37.6675 184.146 37.6179C184.099 37.5129 184.094 37.4681 184.104 37.5166L201.718 33.8084L219.332 30.1002C217.193 19.9375 211.087 12.0815 202.656 6.92928L193.27 22.2884ZM201.718 33.8084L200.551 15.8463L187.751 16.6783L188.918 34.6404L190.086 52.6025L202.886 51.7705L201.718 33.8084ZM188.918 34.6404L205.546 27.7461C202.387 20.1284 196.191 16.0194 191.243 13.8865L184.118 30.4164L176.993 46.9462C176.931 46.9192 176.221 46.6111 175.283 45.7852C174.28 44.903 173.106 43.5013 172.291 41.5346L188.918 34.6404ZM184.118 30.4164L191.243 13.8865C186.004 11.6284 180.52 10.8164 175.286 10.8164V28.8164V46.8164C176.879 46.8164 177.283 47.071 176.993 46.9462L184.118 30.4164ZM175.286 28.8164V10.8164C167.827 10.8164 159.321 12.5465 152.326 18.5262L164.022 32.2084L175.718 45.8905C175.336 46.2177 174.963 46.4592 174.644 46.6287C174.329 46.7956 174.103 46.8726 174.012 46.8998C173.859 46.9461 174.208 46.8164 175.286 46.8164V28.8164ZM164.022 32.2084L152.345 18.5101C145.308 24.5092 142.118 32.7243 142.118 41.1684H160.118H178.118C178.118 41.3905 178.073 42.2074 177.596 43.3024C177.099 44.442 176.374 45.332 175.699 45.9066L164.022 32.2084ZM160.118 41.1684H142.118C142.118 49.8945 145.559 58.2274 152.864 64.1624L164.214 50.1924L175.565 36.2223C176.218 36.7531 176.989 37.6351 177.533 38.8327C178.058 39.9902 178.118 40.8831 178.118 41.1684H160.118ZM164.214 50.1924L152.97 64.248C160.101 69.9532 168.666 71.5204 176.118 71.5204V53.5204V35.5204C175.467 35.5204 174.981 35.4851 174.641 35.4438C174.301 35.4025 174.138 35.3589 174.117 35.3531C174.095 35.3469 174.677 35.5112 175.459 36.1367L164.214 50.1924ZM176.118 53.5204V71.5204C181.554 71.5204 187.702 70.6772 193.428 67.7079L185.142 51.7284L176.857 35.7488C177.455 35.4385 177.785 35.3907 177.652 35.4171C177.514 35.4446 177.034 35.5204 176.118 35.5204V53.5204ZM185.142 51.7284L193.309 67.7693C198.483 65.1349 203.87 60.614 206.589 53.4176L189.75 47.0564L172.912 40.6951C173.495 39.1522 174.36 37.9154 175.239 37.0245C176.072 36.1797 176.767 35.7938 176.976 35.6874L185.142 51.7284ZM205.526 29.6484H187.526C187.526 39.5895 195.585 47.6484 205.526 47.6484V29.6484ZM205.526 18.7684V0.768356C195.585 0.768356 187.526 8.82723 187.526 18.7684L205.526 18.7684ZM256.598 18.7684H274.598C274.598 8.82723 266.539 0.768356 256.598 0.768356V18.7684ZM256.598 29.6484V47.6484C266.539 47.6484 274.598 39.5895 274.598 29.6484L256.598 29.6484ZM237.718 29.6484V11.6484C227.777 11.6484 219.718 19.7072 219.718 29.6484L237.718 29.6484ZM237.718 63.5684V81.5684C247.659 81.5684 255.718 73.5095 255.718 63.5684L237.718 63.5684ZM224.406 63.5684H206.406C206.406 73.5095 214.465 81.5684 224.406 81.5684V63.5684ZM224.406 29.6484H242.406C242.406 19.7072 234.347 11.6484 224.406 11.6484V29.6484ZM205.526 29.6484H223.526V18.7684H205.526H187.526V29.6484H205.526ZM205.526 18.7684V36.7684H256.598V18.7684V0.768356H205.526V18.7684ZM256.598 18.7684H238.598V29.6484H256.598H274.598V18.7684H256.598ZM256.598 29.6484V11.6484H237.718V29.6484V47.6484H256.598V29.6484ZM237.718 29.6484H219.718V63.5684H237.718H255.718V29.6484H237.718ZM237.718 63.5684V45.5684H224.406V63.5684V81.5684H237.718V63.5684ZM224.406 63.5684H242.406V29.6484H224.406H206.406V63.5684H224.406ZM224.406 29.6484V11.6484H205.526V29.6484V47.6484H224.406V29.6484ZM298.277 63.5684L281.695 70.5699C284.509 77.2357 291.042 81.5684 298.277 81.5684V63.5684ZM294.629 54.9284L311.212 47.9269C308.397 41.261 301.865 36.9284 294.629 36.9284V54.9284ZM268.773 54.9284V36.9284C261.538 36.9284 255.005 41.261 252.191 47.9269L268.773 54.9284ZM265.125 63.5684V81.5684C272.361 81.5684 278.893 77.2357 281.708 70.5699L265.125 63.5684ZM252.005 63.5684L235.521 56.3388C233.08 61.9045 233.612 68.3261 236.937 73.4139C240.261 78.5016 245.928 81.5684 252.005 81.5684V63.5684ZM271.653 18.7684V0.768356C264.508 0.768356 258.039 4.99498 255.169 11.5388L271.653 18.7684ZM292.133 18.7684L308.609 11.5191C305.734 4.98585 299.271 0.768356 292.133 0.768356V18.7684ZM311.845 63.5684V81.5684C317.927 81.5684 323.597 78.4978 326.92 73.4048C330.243 68.3119 330.77 61.8853 328.321 56.3191L311.845 63.5684ZM273.061 44.9444L256.477 37.9477C254.132 43.5059 254.727 49.869 258.062 54.8958C261.397 59.9225 267.029 62.9444 273.061 62.9444V44.9444ZM290.405 44.9444V62.9444C296.446 62.9444 302.084 59.9141 305.417 54.8759C308.75 49.8377 309.334 43.4635 306.971 37.9038L290.405 44.9444ZM281.701 24.4644L298.267 17.4238C295.44 10.7708 288.906 6.4548 281.677 6.46438C274.448 6.47395 267.927 10.8073 265.117 17.4677L281.701 24.4644ZM298.277 63.5684L314.86 56.5669L311.212 47.9269L294.629 54.9284L278.047 61.9299L281.695 70.5699L298.277 63.5684ZM294.629 54.9284V36.9284H268.773V54.9284V72.9284H294.629V54.9284ZM268.773 54.9284L252.191 47.9269L248.543 56.5669L265.125 63.5684L281.708 70.5699L285.356 61.9299L268.773 54.9284ZM265.125 63.5684V45.5684H252.005V63.5684V81.5684H265.125V63.5684ZM252.005 63.5684L268.49 70.7979L288.138 25.9979L271.653 18.7684L255.169 11.5388L235.521 56.3388L252.005 63.5684ZM271.653 18.7684V36.7684H292.133V18.7684V0.768356H271.653V18.7684ZM292.133 18.7684L275.658 26.0177L295.37 70.8177L311.845 63.5684L328.321 56.3191L308.609 11.5191L292.133 18.7684ZM311.845 63.5684V45.5684H298.277V63.5684V81.5684H311.845V63.5684ZM273.061 44.9444V62.9444H290.405V44.9444V26.9444H273.061V44.9444ZM290.405 44.9444L306.971 37.9038L298.267 17.4238L281.701 24.4644L265.135 31.5049L273.839 51.9849L290.405 44.9444ZM281.701 24.4644L265.117 17.4677L256.477 37.9477L273.061 44.9444L289.646 51.941L298.286 31.461L281.701 24.4644ZM355.114 40.7204L352.893 22.8579C343.763 23.9932 336.959 31.8302 337.117 41.0288C337.275 50.2273 344.343 57.8266 353.506 58.6484L355.114 40.7204ZM364.33 60.3044L374.093 75.4269L374.093 75.4269L364.33 60.3044ZM317.866 63.5684H299.866C299.866 73.5095 307.925 81.5684 317.866 81.5684V63.5684ZM317.866 18.7684V0.768356C307.925 0.768356 299.866 8.82723 299.866 18.7684L317.866 18.7684ZM362.538 22.0964L352.374 36.9519C352.404 36.9725 352.434 36.993 352.464 37.0134L362.538 22.0964ZM331.178 29.0084V11.0084C321.237 11.0084 313.178 19.0672 313.178 29.0084L331.178 29.0084ZM331.178 36.1124H313.178C313.178 46.0535 321.237 54.1124 331.178 54.1124V36.1124ZM352.682 35.1524L342.849 20.0754L342.849 20.0754L352.682 35.1524ZM354.154 52.4964L346.997 35.9804C346.928 36.0102 346.86 36.0405 346.791 36.0712L354.154 52.4964ZM354.218 46.6724L346.855 63.0975L346.855 63.0975L354.218 46.6724ZM331.178 45.8404V27.8404C321.237 27.8404 313.178 35.8992 313.178 45.8404H331.178ZM331.178 53.3284H313.178C313.178 63.2695 321.237 71.3284 331.178 71.3284V53.3284ZM355.114 40.7204L353.506 58.6484C354.962 58.7789 355.757 58.9736 356.061 59.0673C356.37 59.1623 355.891 59.0658 355.07 58.4551C354.165 57.7811 353.09 56.6559 352.311 55.0561C351.546 53.4863 351.386 52.1169 351.386 51.3444H369.386H387.386C387.386 42.8766 383.77 34.9403 376.566 29.5776C370.357 24.9553 362.961 23.3519 356.722 22.7923L355.114 40.7204ZM369.386 51.3444H351.386C351.386 50.4838 351.606 49.0741 352.446 47.5864C353.262 46.1397 354.219 45.4068 354.568 45.1818L364.33 60.3044L374.093 75.4269C382.25 70.1607 387.386 61.6578 387.386 51.3444H369.386ZM364.33 60.3044L354.568 45.1818C355.139 44.8128 355.195 44.9486 354.224 45.1585C353.264 45.366 351.656 45.5684 349.226 45.5684V63.5684V81.5684C357.312 81.5684 366.457 80.3565 374.093 75.4269L364.33 60.3044ZM349.226 63.5684V45.5684H317.866V63.5684V81.5684H349.226V63.5684ZM317.866 63.5684H335.866V18.7684H317.866H299.866V63.5684H317.866ZM317.866 18.7684V36.7684H349.226V18.7684V0.768356H317.866V18.7684ZM349.226 18.7684V36.7684C350.895 36.7684 351.906 36.9362 352.413 37.0629C352.893 37.183 352.779 37.229 352.374 36.9519L362.538 22.0964L372.703 7.24083C365.427 2.2627 356.981 0.768356 349.226 0.768356V18.7684ZM362.538 22.0964L352.464 37.0134C352.234 36.8577 351.356 36.1917 350.571 34.8048C349.746 33.3488 349.466 31.8762 349.466 30.8004H367.466H385.466C385.466 20.527 380.235 12.3276 372.612 7.17933L362.538 22.0964ZM367.466 30.8004H349.466C349.466 29.9531 349.633 28.573 350.359 27.0039C351.099 25.4044 352.143 24.2125 353.107 23.438C353.999 22.7221 354.624 22.5168 354.563 22.5381C354.5 22.5601 354 22.7202 352.893 22.8579L355.114 40.7204L357.335 58.5828C363.035 57.874 369.899 56.1245 375.649 51.5067C382.24 46.2133 385.466 38.6838 385.466 30.8004H367.466ZM331.178 29.0084H313.178V36.1124H331.178H349.178V29.0084H331.178ZM331.178 36.1124V54.1124H348.586V36.1124V18.1124H331.178V36.1124ZM348.586 36.1124V54.1124C352.212 54.1124 357.5 53.5003 362.515 50.2293L352.682 35.1524L342.849 20.0754C345.902 18.0844 348.459 18.1124 348.586 18.1124V36.1124ZM352.682 35.1524L362.515 50.2294C368.249 46.4899 372.154 40.1185 372.154 32.5284H354.154H336.154C336.154 30.3337 336.668 27.7401 338.088 25.2098C339.485 22.7198 341.317 21.0746 342.849 20.0754L352.682 35.1524ZM354.154 32.5284H372.154C372.154 25.6914 368.943 18.8226 362.381 14.6737C357.21 11.4048 351.758 11.0084 348.586 11.0084V29.0084V47.0084C348.582 47.0084 348.472 47.0084 348.272 46.9904C348.074 46.9725 347.745 46.933 347.311 46.8415C346.499 46.6705 344.937 46.2368 343.144 45.103C341.229 43.8926 339.269 42.0108 337.884 39.3837C336.526 36.8085 336.154 34.343 336.154 32.5284H354.154ZM348.586 29.0084V11.0084H331.178V29.0084V47.0084H348.586V29.0084ZM347.882 53.3284V71.3284C351.075 71.3284 356.526 71.1591 361.517 68.9215L354.154 52.4964L346.791 36.0712C347.663 35.6805 348.345 35.4867 348.701 35.3978C349.072 35.3049 349.287 35.2772 349.291 35.2767C349.304 35.275 349.195 35.2896 348.94 35.3036C348.69 35.3174 348.341 35.3284 347.882 35.3284V53.3284ZM354.154 52.4964L361.311 69.0124C364.461 67.6474 367.959 65.2636 370.571 61.345C373.201 57.4001 374.074 53.1885 374.074 49.6164H356.074H338.074C338.074 47.4095 338.627 44.3607 340.617 41.3757C342.59 38.4171 345.127 36.7907 346.997 35.9804L354.154 52.4964ZM356.074 49.6164H374.074C374.074 46.2451 373.312 42.1503 370.837 38.2249C368.334 34.2546 364.877 31.7247 361.581 30.2472L354.218 46.6724L346.855 63.0975C344.796 62.1746 342.268 60.4128 340.384 57.4238C338.528 54.4797 338.074 51.5796 338.074 49.6164H356.074ZM354.218 46.6724L361.581 30.2472C356.784 28.0968 351.762 27.8404 348.522 27.8404V45.8404V63.8404C349.2 63.8404 349.407 63.8801 349.265 63.8594C349.179 63.8469 348.928 63.8067 348.55 63.7065C348.178 63.6078 347.586 63.4252 346.855 63.0975L354.218 46.6724ZM348.522 45.8404V27.8404H331.178V45.8404V63.8404H348.522V45.8404ZM331.178 45.8404H313.178V53.3284H331.178H349.178V45.8404H331.178ZM331.178 53.3284V71.3284H347.882V53.3284V35.3284H331.178V53.3284ZM430.814 63.5684V81.5684C438.112 81.5684 444.688 77.1615 447.462 70.4112C450.237 63.6609 448.661 55.9034 443.472 50.7711L430.814 63.5684ZM413.982 63.5684L401.136 76.1772C404.521 79.6256 409.15 81.5684 413.982 81.5684V63.5684ZM396.958 46.2244L409.804 33.6155C406.419 30.1671 401.79 28.2244 396.958 28.2244V46.2244ZM390.366 46.2244V28.2244C380.425 28.2244 372.366 36.2832 372.366 46.2244H390.366ZM390.366 63.5684V81.5684C400.307 81.5684 408.366 73.5095 408.366 63.5684L390.366 63.5684ZM377.054 63.5684H359.054C359.054 73.5095 367.113 81.5684 377.054 81.5684V63.5684ZM377.054 18.7684V0.768356C367.113 0.768356 359.054 8.82723 359.054 18.7684L377.054 18.7684ZM390.366 18.7684H408.366C408.366 8.82723 400.307 0.768356 390.366 0.768356V18.7684ZM390.366 36.0484H372.366C372.366 45.9895 380.425 54.0484 390.366 54.0484V36.0484ZM396.702 36.0484V54.0484C401.679 54.0484 406.433 51.9877 409.836 48.3561L396.702 36.0484ZM412.894 18.7684V0.768356C407.917 0.768356 403.162 2.82898 399.759 6.46065L412.894 18.7684ZM428.83 18.7684L441.539 31.5152C446.698 26.3714 448.248 18.6251 445.465 11.8924C442.682 5.15971 436.115 0.768356 428.83 0.768356V18.7684ZM407.262 40.2724L394.553 27.5255C391.157 30.9115 389.252 35.5126 389.262 40.3082C389.271 45.1037 391.194 49.6972 394.604 53.0696L407.262 40.2724ZM430.814 63.5684V45.5684H413.982V63.5684V81.5684H430.814V63.5684ZM413.982 63.5684L426.828 50.9595L409.804 33.6155L396.958 46.2244L384.112 58.8332L401.136 76.1772L413.982 63.5684ZM396.958 46.2244V28.2244H390.366V46.2244V64.2244H396.958V46.2244ZM390.366 46.2244H372.366V63.5684H390.366H408.366V46.2244H390.366ZM390.366 63.5684V45.5684H377.054V63.5684V81.5684H390.366V63.5684ZM377.054 63.5684H395.054V18.7684H377.054H359.054V63.5684H377.054ZM377.054 18.7684V36.7684H390.366V18.7684V0.768356H377.054V18.7684ZM390.366 18.7684H372.366V36.0484H390.366H408.366V18.7684H390.366ZM390.366 36.0484V54.0484H396.702V36.0484V18.0484H390.366V36.0484ZM396.702 36.0484L409.836 48.3561L426.028 31.0761L412.894 18.7684L399.759 6.46065L383.567 23.7407L396.702 36.0484ZM412.894 18.7684V36.7684H428.83V18.7684V0.768356H412.894V18.7684ZM428.83 18.7684L416.121 6.02154L394.553 27.5255L407.262 40.2724L419.971 53.0192L441.539 31.5152L428.83 18.7684ZM407.262 40.2724L394.604 53.0696L418.156 76.3656L430.814 63.5684L443.472 50.7711L419.92 27.4751L407.262 40.2724ZM470.529 18.7684V0.768356C464.122 0.768356 458.198 4.17409 454.974 9.71092L470.529 18.7684ZM491.009 18.7684H509.009C509.009 8.82723 500.95 0.768356 491.009 0.768356V18.7684ZM491.009 63.5684V81.5684C500.95 81.5684 509.009 73.5095 509.009 63.5684L491.009 63.5684ZM478.017 63.5684H460.017C460.017 73.5095 468.076 81.5684 478.017 81.5684V63.5684ZM478.017 28.1764H496.017C496.017 20.0418 490.561 12.9182 482.708 10.7983C474.854 8.67845 466.555 12.0892 462.462 19.1189L478.017 28.1764ZM457.409 63.5684V81.5684C463.816 81.5684 469.74 78.1626 472.964 72.6258L457.409 63.5684ZM436.929 63.5684H418.929C418.929 73.5095 426.988 81.5684 436.929 81.5684V63.5684ZM436.929 18.7684V0.768356C426.988 0.768356 418.929 8.82723 418.929 18.7684L436.929 18.7684ZM449.921 18.7684H467.921C467.921 8.82723 459.862 0.768356 449.921 0.768356V18.7684ZM449.921 54.1604H431.921C431.921 62.2949 437.376 69.4185 445.23 71.5384C453.083 73.6583 461.383 70.2475 465.476 63.2178L449.921 54.1604ZM470.529 18.7684V36.7684H491.009V18.7684V0.768356H470.529V18.7684ZM491.009 18.7684H473.009V63.5684H491.009H509.009V18.7684H491.009ZM491.009 63.5684V45.5684H478.017V63.5684V81.5684H491.009V63.5684ZM478.017 63.5684H496.017V28.1764H478.017H460.017V63.5684H478.017ZM478.017 28.1764L462.462 19.1189L441.854 54.5109L457.409 63.5684L472.964 72.6258L493.572 37.2338L478.017 28.1764ZM457.409 63.5684V45.5684H436.929V63.5684V81.5684H457.409V63.5684ZM436.929 63.5684H454.929V18.7684H436.929H418.929V63.5684H436.929ZM436.929 18.7684V36.7684H449.921V18.7684V0.768356H436.929V18.7684ZM449.921 18.7684H431.921V54.1604H449.921H467.921V18.7684H449.921ZM449.921 54.1604L465.476 63.2178L486.084 27.8258L470.529 18.7684L454.974 9.71092L434.366 45.1029L449.921 54.1604ZM56.5912 90.7684V72.7684C50.1842 72.7684 44.2601 76.1741 41.0361 81.7109L56.5912 90.7684ZM77.0712 90.7684H95.0712C95.0712 80.8272 87.0124 72.7684 77.0712 72.7684V90.7684ZM77.0712 135.568V153.568C87.0124 153.568 95.0712 145.509 95.0712 135.568H77.0712ZM64.0792 135.568H46.0792C46.0792 145.509 54.1381 153.568 64.0792 153.568V135.568ZM64.0792 100.176H82.0792C82.0792 92.0418 76.6235 84.9182 68.77 82.7983C60.9165 80.6784 52.6173 84.0892 48.5241 91.1189L64.0792 100.176ZM43.4712 135.568V153.568C49.8783 153.568 55.8024 150.163 59.0264 144.626L43.4712 135.568ZM22.9912 135.568H4.99123C4.99123 145.509 13.0501 153.568 22.9912 153.568L22.9912 135.568ZM22.9912 90.7684V72.7684C13.0501 72.7684 4.99123 80.8272 4.99123 90.7684H22.9912ZM35.9832 90.7684H53.9832C53.9832 80.8272 45.9244 72.7684 35.9832 72.7684V90.7684ZM35.9832 126.16H17.9832C17.9832 134.295 23.4389 141.419 31.2924 143.538C39.1459 145.658 47.4452 142.247 51.5384 135.218L35.9832 126.16ZM56.5912 90.7684V108.768H77.0712V90.7684V72.7684H56.5912V90.7684ZM77.0712 90.7684H59.0712V135.568H77.0712H95.0712V90.7684H77.0712ZM77.0712 135.568V117.568H64.0792V135.568V153.568H77.0712V135.568ZM64.0792 135.568H82.0792V100.176H64.0792H46.0792V135.568H64.0792ZM64.0792 100.176L48.5241 91.1189L27.9161 126.511L43.4712 135.568L59.0264 144.626L79.6344 109.234L64.0792 100.176ZM43.4712 135.568V117.568H22.9912V135.568V153.568H43.4712V135.568ZM22.9912 135.568H40.9912V90.7684H22.9912H4.99123V135.568H22.9912ZM22.9912 90.7684V108.768H35.9832V90.7684V72.7684H22.9912V90.7684ZM35.9832 90.7684H17.9832V126.16H35.9832H53.9832V90.7684H35.9832ZM35.9832 126.16L51.5384 135.218L72.1464 99.8258L56.5912 90.7684L41.0361 81.7109L20.4281 117.103L35.9832 126.16ZM111.928 130.192L123.003 116.003L111.928 130.192ZM111.928 96.1444L100.853 81.9547L100.853 81.9547L111.928 96.1444ZM155.704 96.1444L166.779 81.9547L166.779 81.9547L155.704 96.1444ZM155.704 130.192L144.629 116.003L144.629 116.003L155.704 130.192ZM121.656 104.208L132.692 118.428C132.702 118.421 132.712 118.413 132.722 118.405L121.656 104.208ZM121.656 122.192L110.489 136.309C110.566 136.371 110.644 136.431 110.722 136.491L121.656 122.192ZM145.912 122.192L156.948 136.412C156.958 136.405 156.968 136.397 156.978 136.389L145.912 122.192ZM145.912 104.208L134.745 118.325C134.822 118.387 134.9 118.447 134.978 118.507L145.912 104.208ZM111.928 130.192L123.003 116.003C122.486 115.599 122.395 115.381 122.362 115.31C122.307 115.191 122.056 114.602 122.056 113.168H104.056H86.0562C86.0562 125.395 90.8042 136.539 100.853 144.382L111.928 130.192ZM104.056 113.168H122.056C122.056 111.735 122.307 111.146 122.362 111.027C122.395 110.956 122.486 110.738 123.003 110.334L111.928 96.1444L100.853 81.9547C90.8042 89.7979 86.0562 100.941 86.0562 113.168H104.056ZM111.928 96.1444L123.003 110.334C124.03 109.532 126.899 108 133.816 108V90.0004V72.0004C122.046 72.0004 110.322 74.5644 100.853 81.9547L111.928 96.1444ZM133.816 90.0004V108C140.734 108 143.602 109.532 144.629 110.334L155.704 96.1444L166.779 81.9547C157.31 74.5644 145.587 72.0004 133.816 72.0004V90.0004ZM155.704 96.1444L144.629 110.334C145.147 110.738 145.238 110.956 145.27 111.027C145.325 111.146 145.576 111.735 145.576 113.168H163.576H181.576C181.576 100.941 176.828 89.7979 166.779 81.9547L155.704 96.1444ZM163.576 113.168H145.576C145.576 114.602 145.325 115.191 145.27 115.31C145.238 115.381 145.147 115.599 144.629 116.003L155.704 130.192L166.779 144.382C176.828 136.539 181.576 125.395 181.576 113.168H163.576ZM155.704 130.192L144.629 116.003C143.602 116.804 140.734 118.336 133.816 118.336V136.336V154.336C145.587 154.336 157.31 151.772 166.779 144.382L155.704 130.192ZM133.816 136.336V118.336C126.899 118.336 124.03 116.804 123.003 116.003L111.928 130.192L100.853 144.382C110.322 151.772 122.046 154.336 133.816 154.336V136.336ZM121.656 104.208L110.62 89.9886C103.179 95.7636 99.3682 104.096 99.3682 113.168H117.368H135.368C135.368 113.619 135.27 114.644 134.677 115.883C134.074 117.143 133.265 117.983 132.692 118.428L121.656 104.208ZM117.368 113.168H99.3682C99.3682 122.233 103.166 130.516 110.489 136.309L121.656 122.192L132.823 108.075C133.351 108.492 134.12 109.298 134.698 110.515C135.269 111.716 135.368 112.715 135.368 113.168H117.368ZM121.656 122.192L110.722 136.491C117.851 141.942 126.291 143.52 133.816 143.52V125.52V107.52C132.453 107.52 131.785 107.371 131.624 107.327C131.502 107.294 131.941 107.397 132.59 107.894L121.656 122.192ZM133.816 125.52V143.52C141.318 143.52 149.811 141.951 156.948 136.412L145.912 122.192L134.876 107.973C135.575 107.43 136.063 107.307 135.969 107.333C135.834 107.37 135.182 107.52 133.816 107.52V125.52ZM145.912 122.192L156.978 136.389C164.36 130.636 168.264 122.337 168.264 113.168H150.264H132.264C132.264 112.677 132.374 111.644 132.963 110.421C133.558 109.187 134.339 108.391 134.847 107.995L145.912 122.192ZM150.264 113.168H168.264C168.264 103.991 164.345 95.6444 156.846 89.9099L145.912 104.208L134.978 118.507C134.425 118.084 133.605 117.253 132.985 115.977C132.373 114.716 132.264 113.657 132.264 113.168H150.264ZM145.912 104.208L157.079 90.0913C149.93 84.4355 141.383 82.8164 133.816 82.8164V100.816V118.816C135.157 118.816 135.779 118.966 135.884 118.996C135.944 119.013 135.442 118.877 134.745 118.325L145.912 104.208ZM133.816 100.816V82.8164C126.227 82.8164 117.733 84.4445 110.591 90.0113L121.656 104.208L132.722 118.405C132.073 118.911 131.62 119.027 131.709 119.002C131.84 118.966 132.478 118.816 133.816 118.816V100.816ZM223.709 90.7684H241.709C241.709 80.8272 233.65 72.7684 223.709 72.7684V90.7684ZM223.709 135.568V153.568C233.65 153.568 241.709 145.509 241.709 135.568H223.709ZM210.397 135.568H192.397C192.397 145.509 200.456 153.568 210.397 153.568V135.568ZM210.397 101.648H228.397C228.397 91.7072 220.338 83.6484 210.397 83.6484V101.648ZM185.053 101.648V83.6484C175.112 83.6484 167.053 91.7072 167.053 101.648H185.053ZM185.053 135.568V153.568C194.994 153.568 203.053 145.509 203.053 135.568H185.053ZM171.741 135.568H153.741C153.741 145.509 161.8 153.568 171.741 153.568V135.568ZM171.741 90.7684V72.7684C161.8 72.7684 153.741 80.8272 153.741 90.7684H171.741ZM223.709 90.7684H205.709V135.568H223.709H241.709V90.7684H223.709ZM223.709 135.568V117.568H210.397V135.568V153.568H223.709V135.568ZM210.397 135.568H228.397V101.648H210.397H192.397V135.568H210.397ZM210.397 101.648V83.6484H185.053V101.648V119.648H210.397V101.648ZM185.053 101.648H167.053V135.568H185.053H203.053V101.648H185.053ZM185.053 135.568V117.568H171.741V135.568V153.568H185.053V135.568ZM171.741 135.568H189.741V90.7684H171.741H153.741V135.568H171.741ZM171.741 90.7684V108.768H223.709V90.7684V72.7684H171.741V90.7684ZM242.171 90.7684V72.7684C232.666 72.7684 224.799 80.1589 224.206 89.6455L242.171 90.7684ZM286.779 90.7684H304.779C304.779 80.8272 296.72 72.7684 286.779 72.7684V90.7684ZM286.779 135.568V153.568C296.72 153.568 304.779 145.509 304.779 135.568H286.779ZM273.467 135.568H255.467C255.467 145.509 263.526 153.568 273.467 153.568V135.568ZM273.467 101.648H291.467C291.467 91.7072 283.408 83.6484 273.467 83.6484V101.648ZM254.203 101.648V83.6484C244.76 83.6484 236.922 90.9464 236.249 100.366L254.203 101.648ZM253.883 106.896L271.854 107.929C271.854 107.918 271.855 107.906 271.856 107.895L253.883 106.896ZM253.307 115.152L235.388 113.446C235.376 113.577 235.365 113.708 235.355 113.839L253.307 115.152ZM252.475 121.872L234.691 119.094C234.677 119.184 234.663 119.275 234.651 119.366L252.475 121.872ZM250.811 127.952L235.029 119.297C234.995 119.359 234.962 119.42 234.929 119.482L250.811 127.952ZM247.995 132.048L234.1 120.606C234.033 120.688 233.966 120.771 233.899 120.854L247.995 132.048ZM243.579 135.056L248.902 152.252L243.579 135.056ZM230.331 135.568H212.331C212.331 144.997 219.608 152.828 229.011 153.52L230.331 135.568ZM230.331 124.752L232.564 106.891C227.441 106.251 222.289 107.841 218.419 111.258C214.548 114.675 212.331 119.589 212.331 124.752H230.331ZM236.155 124.624L242.475 141.478C242.654 141.411 242.832 141.341 243.009 141.269L236.155 124.624ZM238.011 123.152L224.041 111.802C223.894 111.982 223.751 112.166 223.611 112.352L238.011 123.152ZM239.355 120.976L223.256 112.927C223.134 113.17 223.017 113.417 222.907 113.666L239.355 120.976ZM240.315 117.84L257.987 121.261L257.987 121.261L240.315 117.84ZM240.891 114.064L223.06 111.605C223.035 111.785 223.013 111.966 222.994 112.147L240.891 114.064ZM241.275 109.264L223.313 108.093C223.305 108.223 223.298 108.353 223.292 108.482L241.275 109.264ZM241.531 103.888L223.556 102.942C223.548 103.1 223.542 103.257 223.537 103.415L241.531 103.888ZM241.787 97.6804L223.81 96.7815C223.805 96.8778 223.801 96.9742 223.798 97.0705L241.787 97.6804ZM242.171 90.7684V108.768H286.779V90.7684V72.7684H242.171V90.7684ZM286.779 90.7684H268.779V135.568H286.779H304.779V90.7684H286.779ZM286.779 135.568V117.568H273.467V135.568V153.568H286.779V135.568ZM273.467 135.568H291.467V101.648H273.467H255.467V135.568H273.467ZM273.467 101.648V83.6484H254.203V101.648V119.648H273.467V101.648ZM254.203 101.648L236.249 100.366C236.153 101.706 236.04 103.569 235.911 105.898L253.883 106.896L271.856 107.895C271.982 105.616 272.083 103.98 272.157 102.931L254.203 101.648ZM253.883 106.896L235.913 105.864C235.702 109.534 235.525 112.007 235.388 113.446L253.307 115.152L271.226 116.859C271.43 114.714 271.638 111.682 271.854 107.929L253.883 106.896ZM253.307 115.152L235.355 113.839C235.277 114.903 235.08 116.607 234.691 119.094L252.475 121.872L270.259 124.651C270.724 121.676 271.081 118.901 271.259 116.466L253.307 115.152ZM252.475 121.872L234.651 119.366C234.595 119.765 234.541 120.074 234.496 120.304C234.45 120.536 234.418 120.659 234.41 120.689C234.401 120.722 234.428 120.616 234.509 120.403C234.551 120.293 234.612 120.143 234.695 119.962C234.777 119.78 234.887 119.556 235.029 119.297L250.811 127.952L266.594 136.607C268.902 132.399 269.821 127.784 270.3 124.379L252.475 121.872ZM250.811 127.952L234.929 119.482C234.945 119.452 234.745 119.823 234.1 120.606L247.995 132.048L261.89 143.491C263.635 141.373 265.312 139.013 266.694 136.423L250.811 127.952ZM247.995 132.048L233.899 120.854C234.406 120.217 235.072 119.572 235.894 119.012C236.714 118.453 237.534 118.085 238.257 117.861L243.579 135.056L248.902 152.252C254.109 150.64 258.655 147.569 262.091 143.242L247.995 132.048ZM243.579 135.056L238.257 117.861C238.454 117.8 238.487 117.81 238.308 117.834C238.128 117.857 237.783 117.888 237.243 117.888V135.888V153.888C240.975 153.888 244.962 153.471 248.902 152.252L243.579 135.056ZM237.243 135.888V117.888C236.177 117.888 234.372 117.817 231.651 117.617L230.331 135.568L229.011 153.52C232.093 153.746 234.896 153.888 237.243 153.888V135.888ZM230.331 135.568H248.331V124.752H230.331H212.331V135.568H230.331ZM230.331 124.752L228.099 142.613C229.858 142.833 231.798 143.008 233.723 143.008V125.008V107.008C233.827 107.008 233.784 107.013 233.558 106.995C233.34 106.979 233.014 106.948 232.564 106.891L230.331 124.752ZM233.723 125.008V143.008C236.23 143.008 239.284 142.675 242.475 141.478L236.155 124.624L229.835 107.77C231.661 107.086 233.094 107.008 233.723 107.008V125.008ZM236.155 124.624L243.009 141.269C246.99 139.629 250.132 136.991 252.411 133.952L238.011 123.152L223.611 112.352C224.867 110.679 226.771 109.022 229.302 107.98L236.155 124.624ZM238.011 123.152L251.981 134.503C253.49 132.646 254.789 130.571 255.804 128.287L239.355 120.976L222.907 113.666C223.239 112.918 223.642 112.293 224.041 111.802L238.011 123.152ZM239.355 120.976L255.455 129.026C256.864 126.209 257.575 123.389 257.987 121.261L240.315 117.84L222.643 114.42C222.609 114.594 222.609 114.553 222.672 114.348C222.729 114.159 222.899 113.64 223.256 112.927L239.355 120.976ZM240.315 117.84L257.987 121.261C258.328 119.499 258.601 117.737 258.789 115.982L240.891 114.064L222.994 112.147C222.926 112.782 222.814 113.536 222.643 114.42L240.315 117.84ZM240.891 114.064L258.722 116.524C259 114.509 259.161 112.292 259.258 110.046L241.275 109.264L223.292 108.482C223.219 110.162 223.124 111.145 223.06 111.605L240.891 114.064ZM241.275 109.264L259.237 110.436C259.377 108.288 259.475 106.259 259.525 104.362L241.531 103.888L223.537 103.415C223.502 104.761 223.429 106.316 223.313 108.093L241.275 109.264ZM241.531 103.888L259.506 104.834C259.6 103.058 259.69 100.866 259.777 98.2902L241.787 97.6804L223.798 97.0705C223.714 99.5294 223.633 101.476 223.556 102.942L241.531 103.888ZM241.787 97.6804L259.765 98.5792C259.89 96.0764 260.014 93.8489 260.136 91.8912L242.171 90.7684L224.206 89.6455C224.073 91.7838 223.941 94.1643 223.81 96.7815L241.787 97.6804ZM339.09 135.568L322.507 142.57C325.322 149.236 331.854 153.568 339.09 153.568V135.568ZM335.442 126.928L352.024 119.927C349.21 113.261 342.677 108.928 335.442 108.928V126.928ZM309.586 126.928V108.928C302.35 108.928 295.818 113.261 293.003 119.927L309.586 126.928ZM305.938 135.568V153.568C313.173 153.568 319.706 149.236 322.52 142.57L305.938 135.568ZM292.818 135.568L276.333 128.339C273.892 133.904 274.425 140.326 277.749 145.414C281.073 150.502 286.74 153.568 292.818 153.568V135.568ZM312.466 90.7684V72.7684C305.32 72.7684 298.851 76.995 295.981 83.5388L312.466 90.7684ZM332.946 90.7684L349.421 83.5191C346.547 76.9858 340.083 72.7684 332.946 72.7684V90.7684ZM352.658 135.568V153.568C358.739 153.568 364.409 150.498 367.732 145.405C371.056 140.312 371.583 133.885 369.133 128.319L352.658 135.568ZM313.874 116.944L297.289 109.948C294.944 115.506 295.54 121.869 298.875 126.896C302.21 131.922 307.841 134.944 313.874 134.944V116.944ZM331.218 116.944V134.944C337.259 134.944 342.897 131.914 346.23 126.876C349.563 121.838 350.147 115.463 347.784 109.904L331.218 116.944ZM322.514 96.4644L339.08 89.4238C336.252 82.7708 329.719 78.4548 322.49 78.4644C315.261 78.474 308.739 82.8073 305.929 89.4677L322.514 96.4644ZM339.09 135.568L355.672 128.567L352.024 119.927L335.442 126.928L318.859 133.93L322.507 142.57L339.09 135.568ZM335.442 126.928V108.928H309.586V126.928V144.928H335.442V126.928ZM309.586 126.928L293.003 119.927L289.355 128.567L305.938 135.568L322.52 142.57L326.168 133.93L309.586 126.928ZM305.938 135.568V117.568H292.818V135.568V153.568H305.938V135.568ZM292.818 135.568L309.302 142.798L328.95 97.9979L312.466 90.7684L295.981 83.5388L276.333 128.339L292.818 135.568ZM312.466 90.7684V108.768H332.946V90.7684V72.7684H312.466V90.7684ZM332.946 90.7684L316.47 98.0177L336.182 142.818L352.658 135.568L369.133 128.319L349.421 83.5191L332.946 90.7684ZM352.658 135.568V117.568H339.09V135.568V153.568H352.658V135.568ZM313.874 116.944V134.944H331.218V116.944V98.9444H313.874V116.944ZM331.218 116.944L347.784 109.904L339.08 89.4238L322.514 96.4644L305.948 103.505L314.652 123.985L331.218 116.944ZM322.514 96.4644L305.929 89.4677L297.289 109.948L313.874 116.944L330.458 123.941L339.098 103.461L322.514 96.4644ZM348.089 101.648H330.089C330.089 111.589 338.148 119.648 348.089 119.648V101.648ZM348.089 90.7684V72.7684C338.148 72.7684 330.089 80.8272 330.089 90.7684H348.089ZM399.161 90.7684H417.161C417.161 80.8272 409.102 72.7684 399.161 72.7684V90.7684ZM399.161 101.648V119.648C409.102 119.648 417.161 111.589 417.161 101.648H399.161ZM380.281 101.648V83.6484C370.34 83.6484 362.281 91.7072 362.281 101.648H380.281ZM380.281 135.568V153.568C390.222 153.568 398.281 145.509 398.281 135.568H380.281ZM366.969 135.568H348.969C348.969 145.509 357.028 153.568 366.969 153.568V135.568ZM366.969 101.648H384.969C384.969 91.7072 376.91 83.6484 366.969 83.6484V101.648ZM348.089 101.648H366.089V90.7684H348.089H330.089V101.648H348.089ZM348.089 90.7684V108.768H399.161V90.7684V72.7684H348.089V90.7684ZM399.161 90.7684H381.161V101.648H399.161H417.161V90.7684H399.161ZM399.161 101.648V83.6484H380.281V101.648V119.648H399.161V101.648ZM380.281 101.648H362.281V135.568H380.281H398.281V101.648H380.281ZM380.281 135.568V117.568H366.969V135.568V153.568H380.281V135.568ZM366.969 135.568H384.969V101.648H366.969H348.969V135.568H366.969ZM366.969 101.648V83.6484H348.089V101.648V119.648H366.969V101.648ZM440.84 135.568L424.257 142.57C427.072 149.236 433.604 153.568 440.84 153.568V135.568ZM437.192 126.928L453.774 119.927C450.96 113.261 444.427 108.928 437.192 108.928V126.928ZM411.336 126.928V108.928C404.1 108.928 397.568 113.261 394.753 119.927L411.336 126.928ZM407.688 135.568V153.568C414.923 153.568 421.456 149.236 424.27 142.57L407.688 135.568ZM394.568 135.568L378.083 128.339C375.642 133.904 376.175 140.326 379.499 145.414C382.823 150.502 388.49 153.568 394.568 153.568V135.568ZM414.216 90.7684V72.7684C407.07 72.7684 400.601 76.995 397.731 83.5388L414.216 90.7684ZM434.696 90.7684L451.171 83.5191C448.297 76.9858 441.833 72.7684 434.696 72.7684V90.7684ZM454.408 135.568V153.568C460.489 153.568 466.159 150.498 469.482 145.405C472.806 140.312 473.333 133.885 470.883 128.319L454.408 135.568ZM415.624 116.944L399.039 109.948C396.694 115.506 397.29 121.869 400.625 126.896C403.96 131.922 409.591 134.944 415.624 134.944V116.944ZM432.968 116.944V134.944C439.009 134.944 444.647 131.914 447.98 126.876C451.313 121.838 451.897 115.463 449.534 109.904L432.968 116.944ZM424.264 96.4644L440.83 89.4238C438.002 82.7708 431.469 78.4548 424.24 78.4644C417.011 78.474 410.489 82.8073 407.679 89.4677L424.264 96.4644ZM440.84 135.568L457.422 128.567L453.774 119.927L437.192 126.928L420.609 133.93L424.257 142.57L440.84 135.568ZM437.192 126.928V108.928H411.336V126.928V144.928H437.192V126.928ZM411.336 126.928L394.753 119.927L391.105 128.567L407.688 135.568L424.27 142.57L427.918 133.93L411.336 126.928ZM407.688 135.568V117.568H394.568V135.568V153.568H407.688V135.568ZM394.568 135.568L411.052 142.798L430.7 97.9979L414.216 90.7684L397.731 83.5388L378.083 128.339L394.568 135.568ZM414.216 90.7684V108.768H434.696V90.7684V72.7684H414.216V90.7684ZM434.696 90.7684L418.22 98.0177L437.932 142.818L454.408 135.568L470.883 128.319L451.171 83.5191L434.696 90.7684ZM454.408 135.568V117.568H440.84V135.568V153.568H454.408V135.568ZM415.624 116.944V134.944H432.968V116.944V98.9444H415.624V116.944ZM432.968 116.944L449.534 109.904L440.83 89.4238L424.264 96.4644L407.698 103.505L416.402 123.985L432.968 116.944ZM424.264 96.4644L407.679 89.4677L399.039 109.948L415.624 116.944L432.208 123.941L440.848 103.461L424.264 96.4644Z" fill="#282828" mask="url(#path-1-outside-1_936_85)"></path></svg>