<svg xmlns="http://www.w3.org/2000/svg" width="593" height="52" viewBox="0 0 593 52" fill="none"><mask id="path-1-outside-1_655_890" maskUnits="userSpaceOnUse" x="-0.112061" y="-0.944336" width="593" height="53" fill="black"><rect fill="white" x="-0.112061" y="-0.944336" width="593" height="53"></rect><path d="M33.774 12.4557H41.678V39.0557H33.774V29.4417C30.2273 29.9737 27.086 30.2397 24.35 30.2397C20.322 30.2397 17.2566 29.4923 15.154 27.9977C13.0513 26.4777 12 24.3117 12 21.4997V12.4557H19.904V20.0557C19.904 21.4997 20.436 22.4877 21.5 23.0197C22.564 23.5263 24.2866 23.7797 26.668 23.7797C29.1 23.7797 31.4686 23.539 33.774 23.0577V12.4557ZM72.7166 39.0557L70.5506 33.9257H55.1985L53.0325 39.0557H45.2425L56.9085 12.4557H69.0685L80.7726 39.0557H72.7166ZM57.7445 27.9977H68.0425L62.8746 15.8377L57.7445 27.9977ZM106.878 29.2517L114.554 29.6317C114.022 32.8743 112.414 35.3317 109.728 37.0037C107.068 38.6757 103.42 39.5117 98.7843 39.5117C93.2616 39.5117 88.9803 38.3083 85.9403 35.9017C82.9003 33.4697 81.3803 30.0877 81.3803 25.7557C81.3803 21.4237 82.8623 18.0543 85.8263 15.6477C88.7903 13.2157 92.9449 11.9997 98.2903 11.9997C102.673 11.9997 106.232 12.8483 108.968 14.5457C111.704 16.2177 113.376 18.4977 113.984 21.3857L106.384 21.8797C105.954 20.841 105.004 20.005 103.534 19.3717C102.065 18.7383 100.317 18.4217 98.2903 18.4217C95.4023 18.4217 93.1729 19.093 91.6023 20.4357C90.0569 21.753 89.2843 23.5263 89.2843 25.7557C89.2843 28.0103 90.0949 29.7963 91.7163 31.1137C93.3629 32.431 95.7189 33.0897 98.7843 33.0897C100.988 33.0897 102.774 32.735 104.142 32.0257C105.536 31.3163 106.448 30.3917 106.878 29.2517ZM116.245 18.9157V12.4557H146.569V18.9157H135.359V39.0557H127.455V18.9157H116.245ZM153.296 35.8637C150.18 33.4317 148.622 30.0623 148.622 25.7557C148.622 21.449 150.18 18.0797 153.296 15.6477C156.412 13.2157 160.744 11.9997 166.292 11.9997C171.84 11.9997 176.172 13.2157 179.288 15.6477C182.404 18.0797 183.962 21.449 183.962 25.7557C183.962 30.0623 182.404 33.4317 179.288 35.8637C176.172 38.2957 171.84 39.5117 166.292 39.5117C160.744 39.5117 156.412 38.2957 153.296 35.8637ZM159.072 20.4357C157.375 21.753 156.526 23.5263 156.526 25.7557C156.526 27.985 157.375 29.771 159.072 31.1137C160.795 32.431 163.202 33.0897 166.292 33.0897C169.383 33.0897 171.777 32.431 173.474 31.1137C175.197 29.771 176.058 27.985 176.058 25.7557C176.058 23.5263 175.197 21.753 173.474 20.4357C171.777 19.093 169.383 18.4217 166.292 18.4217C163.202 18.4217 160.795 19.093 159.072 20.4357ZM223.958 29.2517L231.634 29.6317C231.102 32.8743 229.494 35.3317 226.808 37.0037C224.148 38.6757 220.5 39.5117 215.864 39.5117C210.342 39.5117 206.06 38.3083 203.02 35.9017C199.98 33.4697 198.46 30.0877 198.46 25.7557C198.46 21.4237 199.942 18.0543 202.906 15.6477C205.87 13.2157 210.025 11.9997 215.37 11.9997C219.753 11.9997 223.312 12.8483 226.048 14.5457C228.784 16.2177 230.456 18.4977 231.064 21.3857L223.464 21.8797C223.034 20.841 222.084 20.005 220.614 19.3717C219.145 18.7383 217.397 18.4217 215.37 18.4217C212.482 18.4217 210.253 19.093 208.682 20.4357C207.137 21.753 206.364 23.5263 206.364 25.7557C206.364 28.0103 207.175 29.7963 208.796 31.1137C210.443 32.431 212.799 33.0897 215.864 33.0897C218.068 33.0897 219.854 32.735 221.222 32.0257C222.616 31.3163 223.528 30.3917 223.958 29.2517ZM266.907 12.4557V39.0557H259.003V18.9157H243.955V39.0557H236.051V12.4557H266.907ZM291.738 12.4557C294.93 12.4557 297.565 13.203 299.642 14.6977C301.745 16.167 302.796 18.409 302.796 21.4237C302.796 24.4383 301.796 26.6297 299.794 27.9977C297.793 29.3403 295.108 30.0117 291.738 30.0117H281.212V39.0557H273.308V12.4557H281.212H291.738ZM291.358 23.9317C293.714 23.9317 294.892 23.0957 294.892 21.4237C294.892 19.7517 293.714 18.9157 291.358 18.9157H281.212V23.9317H291.358ZM328.697 39.0557L326.531 33.9257H311.179L309.013 39.0557H301.223L312.889 12.4557H325.049L336.753 39.0557H328.697ZM313.725 27.9977H324.023L318.855 15.8377L313.725 27.9977ZM340.328 39.0557V12.4557H348.042V32.5957H358.644V12.4557H366.358V32.5957H376.96V12.4557H384.674V39.0557H340.328ZM411.007 12.4557H423.167V39.0557H415.453V18.0417L403.217 39.0557H391.057V12.4557H398.771V33.4697L411.007 12.4557ZM451.655 25.4897C457.304 25.9963 460.129 28.099 460.129 31.7977C460.129 34.0523 459.128 35.8257 457.127 37.1177C455.126 38.4097 452.136 39.0557 448.159 39.0557H429.539V12.4557H448.159C451.503 12.4557 454.138 13.1143 456.063 14.4317C458.014 15.749 458.989 17.4717 458.989 19.5997C458.989 22.9183 456.544 24.8817 451.655 25.4897ZM437.443 18.5357V22.7537H447.779C448.818 22.7537 449.628 22.5637 450.211 22.1837C450.794 21.8037 451.085 21.2843 451.085 20.6257C451.085 19.2323 449.983 18.5357 447.779 18.5357H437.443ZM447.361 32.9757C449.109 32.9757 450.35 32.811 451.085 32.4817C451.845 32.1523 452.225 31.5823 452.225 30.7717C452.225 29.9357 451.858 29.353 451.123 29.0237C450.388 28.6943 449.261 28.5297 447.741 28.5297H437.443V32.9757H447.361ZM489.121 39.0557L486.955 33.9257H471.603L469.437 39.0557H461.647L473.313 12.4557H485.473L497.177 39.0557H489.121ZM474.149 27.9977H484.447L479.279 15.8377L474.149 27.9977ZM530.734 11.9997C536.13 11.9997 540.31 13.2283 543.274 15.6857C546.263 18.1177 547.758 21.4743 547.758 25.7557C547.758 30.037 546.263 33.4063 543.274 35.8637C540.31 38.2957 536.13 39.5117 530.734 39.5117C526.022 39.5117 522.222 38.5743 519.334 36.6997C516.446 34.7997 514.66 32.1523 513.976 28.7577H508.656V39.0557H500.752V12.4557H508.656V22.2977H514.09C514.85 19.0297 516.661 16.4963 519.524 14.6977C522.386 12.899 526.123 11.9997 530.734 11.9997ZM523.97 31.0757C525.54 32.4183 527.795 33.0897 530.734 33.0897C533.672 33.0897 535.927 32.4183 537.498 31.0757C539.068 29.733 539.854 27.9597 539.854 25.7557C539.854 23.5517 539.068 21.7783 537.498 20.4357C535.927 19.093 533.672 18.4217 530.734 18.4217C527.795 18.4217 525.54 19.093 523.97 20.4357C522.399 21.7783 521.614 23.5517 521.614 25.7557C521.614 27.9597 522.399 29.733 523.97 31.0757ZM549.831 18.9157V12.4557H580.155V18.9157H568.945V39.0557H561.041V18.9157H549.831Z"></path></mask><path d="M33.774 12.4557H41.678V39.0557H33.774V29.4417C30.2273 29.9737 27.086 30.2397 24.35 30.2397C20.322 30.2397 17.2566 29.4923 15.154 27.9977C13.0513 26.4777 12 24.3117 12 21.4997V12.4557H19.904V20.0557C19.904 21.4997 20.436 22.4877 21.5 23.0197C22.564 23.5263 24.2866 23.7797 26.668 23.7797C29.1 23.7797 31.4686 23.539 33.774 23.0577V12.4557ZM72.7166 39.0557L70.5506 33.9257H55.1985L53.0325 39.0557H45.2425L56.9085 12.4557H69.0685L80.7726 39.0557H72.7166ZM57.7445 27.9977H68.0425L62.8746 15.8377L57.7445 27.9977ZM106.878 29.2517L114.554 29.6317C114.022 32.8743 112.414 35.3317 109.728 37.0037C107.068 38.6757 103.42 39.5117 98.7843 39.5117C93.2616 39.5117 88.9803 38.3083 85.9403 35.9017C82.9003 33.4697 81.3803 30.0877 81.3803 25.7557C81.3803 21.4237 82.8623 18.0543 85.8263 15.6477C88.7903 13.2157 92.9449 11.9997 98.2903 11.9997C102.673 11.9997 106.232 12.8483 108.968 14.5457C111.704 16.2177 113.376 18.4977 113.984 21.3857L106.384 21.8797C105.954 20.841 105.004 20.005 103.534 19.3717C102.065 18.7383 100.317 18.4217 98.2903 18.4217C95.4023 18.4217 93.1729 19.093 91.6023 20.4357C90.0569 21.753 89.2843 23.5263 89.2843 25.7557C89.2843 28.0103 90.0949 29.7963 91.7163 31.1137C93.3629 32.431 95.7189 33.0897 98.7843 33.0897C100.988 33.0897 102.774 32.735 104.142 32.0257C105.536 31.3163 106.448 30.3917 106.878 29.2517ZM116.245 18.9157V12.4557H146.569V18.9157H135.359V39.0557H127.455V18.9157H116.245ZM153.296 35.8637C150.18 33.4317 148.622 30.0623 148.622 25.7557C148.622 21.449 150.18 18.0797 153.296 15.6477C156.412 13.2157 160.744 11.9997 166.292 11.9997C171.84 11.9997 176.172 13.2157 179.288 15.6477C182.404 18.0797 183.962 21.449 183.962 25.7557C183.962 30.0623 182.404 33.4317 179.288 35.8637C176.172 38.2957 171.84 39.5117 166.292 39.5117C160.744 39.5117 156.412 38.2957 153.296 35.8637ZM159.072 20.4357C157.375 21.753 156.526 23.5263 156.526 25.7557C156.526 27.985 157.375 29.771 159.072 31.1137C160.795 32.431 163.202 33.0897 166.292 33.0897C169.383 33.0897 171.777 32.431 173.474 31.1137C175.197 29.771 176.058 27.985 176.058 25.7557C176.058 23.5263 175.197 21.753 173.474 20.4357C171.777 19.093 169.383 18.4217 166.292 18.4217C163.202 18.4217 160.795 19.093 159.072 20.4357ZM223.958 29.2517L231.634 29.6317C231.102 32.8743 229.494 35.3317 226.808 37.0037C224.148 38.6757 220.5 39.5117 215.864 39.5117C210.342 39.5117 206.06 38.3083 203.02 35.9017C199.98 33.4697 198.46 30.0877 198.46 25.7557C198.46 21.4237 199.942 18.0543 202.906 15.6477C205.87 13.2157 210.025 11.9997 215.37 11.9997C219.753 11.9997 223.312 12.8483 226.048 14.5457C228.784 16.2177 230.456 18.4977 231.064 21.3857L223.464 21.8797C223.034 20.841 222.084 20.005 220.614 19.3717C219.145 18.7383 217.397 18.4217 215.37 18.4217C212.482 18.4217 210.253 19.093 208.682 20.4357C207.137 21.753 206.364 23.5263 206.364 25.7557C206.364 28.0103 207.175 29.7963 208.796 31.1137C210.443 32.431 212.799 33.0897 215.864 33.0897C218.068 33.0897 219.854 32.735 221.222 32.0257C222.616 31.3163 223.528 30.3917 223.958 29.2517ZM266.907 12.4557V39.0557H259.003V18.9157H243.955V39.0557H236.051V12.4557H266.907ZM291.738 12.4557C294.93 12.4557 297.565 13.203 299.642 14.6977C301.745 16.167 302.796 18.409 302.796 21.4237C302.796 24.4383 301.796 26.6297 299.794 27.9977C297.793 29.3403 295.108 30.0117 291.738 30.0117H281.212V39.0557H273.308V12.4557H281.212H291.738ZM291.358 23.9317C293.714 23.9317 294.892 23.0957 294.892 21.4237C294.892 19.7517 293.714 18.9157 291.358 18.9157H281.212V23.9317H291.358ZM328.697 39.0557L326.531 33.9257H311.179L309.013 39.0557H301.223L312.889 12.4557H325.049L336.753 39.0557H328.697ZM313.725 27.9977H324.023L318.855 15.8377L313.725 27.9977ZM340.328 39.0557V12.4557H348.042V32.5957H358.644V12.4557H366.358V32.5957H376.96V12.4557H384.674V39.0557H340.328ZM411.007 12.4557H423.167V39.0557H415.453V18.0417L403.217 39.0557H391.057V12.4557H398.771V33.4697L411.007 12.4557ZM451.655 25.4897C457.304 25.9963 460.129 28.099 460.129 31.7977C460.129 34.0523 459.128 35.8257 457.127 37.1177C455.126 38.4097 452.136 39.0557 448.159 39.0557H429.539V12.4557H448.159C451.503 12.4557 454.138 13.1143 456.063 14.4317C458.014 15.749 458.989 17.4717 458.989 19.5997C458.989 22.9183 456.544 24.8817 451.655 25.4897ZM437.443 18.5357V22.7537H447.779C448.818 22.7537 449.628 22.5637 450.211 22.1837C450.794 21.8037 451.085 21.2843 451.085 20.6257C451.085 19.2323 449.983 18.5357 447.779 18.5357H437.443ZM447.361 32.9757C449.109 32.9757 450.35 32.811 451.085 32.4817C451.845 32.1523 452.225 31.5823 452.225 30.7717C452.225 29.9357 451.858 29.353 451.123 29.0237C450.388 28.6943 449.261 28.5297 447.741 28.5297H437.443V32.9757H447.361ZM489.121 39.0557L486.955 33.9257H471.603L469.437 39.0557H461.647L473.313 12.4557H485.473L497.177 39.0557H489.121ZM474.149 27.9977H484.447L479.279 15.8377L474.149 27.9977ZM530.734 11.9997C536.13 11.9997 540.31 13.2283 543.274 15.6857C546.263 18.1177 547.758 21.4743 547.758 25.7557C547.758 30.037 546.263 33.4063 543.274 35.8637C540.31 38.2957 536.13 39.5117 530.734 39.5117C526.022 39.5117 522.222 38.5743 519.334 36.6997C516.446 34.7997 514.66 32.1523 513.976 28.7577H508.656V39.0557H500.752V12.4557H508.656V22.2977H514.09C514.85 19.0297 516.661 16.4963 519.524 14.6977C522.386 12.899 526.123 11.9997 530.734 11.9997ZM523.97 31.0757C525.54 32.4183 527.795 33.0897 530.734 33.0897C533.672 33.0897 535.927 32.4183 537.498 31.0757C539.068 29.733 539.854 27.9597 539.854 25.7557C539.854 23.5517 539.068 21.7783 537.498 20.4357C535.927 19.093 533.672 18.4217 530.734 18.4217C527.795 18.4217 525.54 19.093 523.97 20.4357C522.399 21.7783 521.614 23.5517 521.614 25.7557C521.614 27.9597 522.399 29.733 523.97 31.0757ZM549.831 18.9157V12.4557H580.155V18.9157H568.945V39.0557H561.041V18.9157H549.831Z" fill="white"></path><path d="M33.774 12.4557V0.455662C27.1466 0.455662 21.774 5.82825 21.774 12.4557L33.774 12.4557ZM41.678 12.4557H53.678C53.678 5.82825 48.3054 0.455662 41.678 0.455662V12.4557ZM41.678 39.0557V51.0557C48.3054 51.0557 53.678 45.6831 53.678 39.0557H41.678ZM33.774 39.0557H21.774C21.774 45.6831 27.1466 51.0557 33.774 51.0557V39.0557ZM33.774 29.4417H45.774C45.774 25.9483 44.2517 22.6284 41.6046 20.3488C38.9576 18.0692 35.4486 17.0562 31.9939 17.5744L33.774 29.4417ZM15.154 27.9977L8.12381 37.7227C8.14961 37.7414 8.17548 37.7599 8.20142 37.7784L15.154 27.9977ZM12 12.4557V0.455662C5.37255 0.455662 -2.90871e-05 5.82825 -2.90871e-05 12.4557L12 12.4557ZM19.904 12.4557H31.904C31.904 5.82825 26.5314 0.455662 19.904 0.455662V12.4557ZM21.5 23.0197L16.1334 33.7528C16.2022 33.7872 16.2713 33.8209 16.3408 33.854L21.5 23.0197ZM33.774 23.0577L36.2266 34.8044C41.7888 33.643 45.774 28.7398 45.774 23.0577H33.774ZM33.774 12.4557V24.4557H41.678V12.4557V0.455662H33.774V12.4557ZM41.678 12.4557H29.678V39.0557H41.678H53.678V12.4557H41.678ZM41.678 39.0557V27.0557H33.774V39.0557V51.0557H41.678V39.0557ZM33.774 39.0557H45.774V29.4417H33.774H21.774V39.0557H33.774ZM33.774 29.4417L31.9939 17.5744C28.8666 18.0435 26.34 18.2397 24.35 18.2397V30.2397V42.2397C27.8319 42.2397 31.588 41.9038 35.5541 41.3089L33.774 29.4417ZM24.35 30.2397V18.2397C23.0441 18.2397 22.2599 18.1151 21.8723 18.0206C21.4967 17.9291 21.6765 17.9113 22.1065 18.217L15.154 27.9977L8.20142 37.7784C13.1858 41.3215 19.1307 42.2397 24.35 42.2397V30.2397ZM15.154 27.9977L22.1841 18.2726C22.611 18.5812 23.1777 19.1563 23.584 19.9932C23.9737 20.7961 24 21.394 24 21.4997H12H-2.90871e-05C-2.90871e-05 27.7864 2.60665 33.7344 8.12381 37.7227L15.154 27.9977ZM12 21.4997H24V12.4557H12H-2.90871e-05V21.4997H12ZM12 12.4557V24.4557H19.904V12.4557V0.455662H12V12.4557ZM19.904 12.4557H7.90397V20.0557H19.904H31.904V12.4557H19.904ZM19.904 20.0557H7.90397C7.90397 22.2093 8.29805 24.8959 9.73732 27.5689C11.2478 30.3741 13.5309 32.4515 16.1334 33.7528L21.5 23.0197L26.8665 12.2865C28.4051 13.0558 29.8901 14.3732 30.8686 16.1905C31.7759 17.8754 31.904 19.346 31.904 20.0557H19.904ZM21.5 23.0197L16.3408 33.854C19.9536 35.5744 23.9609 35.7797 26.668 35.7797V23.7797V11.7797C26.2817 11.7797 25.9768 11.7693 25.7448 11.755C25.5104 11.7405 25.3795 11.7238 25.3359 11.7174C25.2881 11.7103 25.3803 11.7208 25.5789 11.775C25.6818 11.8031 25.8256 11.8462 26.0027 11.9101C26.1794 11.9739 26.4021 12.0629 26.6592 12.1853L21.5 23.0197ZM26.668 23.7797V35.7797C29.8971 35.7797 33.0886 35.4595 36.2266 34.8044L33.774 23.0577L31.3214 11.311C29.8486 11.6185 28.3028 11.7797 26.668 11.7797V23.7797ZM33.774 23.0577H45.774V12.4557H33.774H21.774V23.0577H33.774ZM72.7166 39.0557L61.6616 43.7233C63.5379 48.1672 67.8928 51.0557 72.7166 51.0557V39.0557ZM70.5506 33.9257L81.6055 29.258C79.7292 24.8141 75.3743 21.9257 70.5506 21.9257V33.9257ZM55.1986 33.9257V21.9257C50.3748 21.9257 46.0199 24.8141 44.1436 29.258L55.1986 33.9257ZM53.0326 39.0557V51.0557C57.8563 51.0557 62.2112 48.1672 64.0875 43.7233L53.0326 39.0557ZM45.2425 39.0557L34.253 34.236C32.6257 37.9464 32.9806 42.2275 35.1967 45.6193C37.4129 49.0112 41.1909 51.0557 45.2425 51.0557V39.0557ZM56.9086 12.4557V0.455662C52.1449 0.455662 47.8323 3.27341 45.919 7.63596L56.9086 12.4557ZM69.0686 12.4557L80.0523 7.6228C78.1359 3.26732 73.827 0.455662 69.0686 0.455662V12.4557ZM80.7726 39.0557V51.0557C84.8267 51.0557 88.6068 49.0086 90.8223 45.6133C93.0378 42.218 93.3891 37.9336 91.7563 34.2228L80.7726 39.0557ZM57.7445 27.9977L46.6882 23.3333C45.125 27.0387 45.5218 31.2808 47.7452 34.6319C49.9686 37.9831 53.7229 39.9977 57.7445 39.9977V27.9977ZM68.0425 27.9977V39.9977C72.0698 39.9977 75.8286 37.9775 78.0507 34.6187C80.2727 31.2599 80.6618 27.0104 79.0865 23.304L68.0425 27.9977ZM62.8745 15.8377L73.9185 11.144C72.0335 6.70863 67.6779 3.83129 62.8587 3.83767C58.0394 3.84406 53.6914 6.73293 51.8182 11.1733L62.8745 15.8377ZM72.7166 39.0557L83.7715 34.388L81.6055 29.258L70.5506 33.9257L59.4956 38.5933L61.6616 43.7233L72.7166 39.0557ZM70.5506 33.9257V21.9257H55.1986V33.9257V45.9257H70.5506V33.9257ZM55.1986 33.9257L44.1436 29.258L41.9776 34.388L53.0326 39.0557L64.0875 43.7233L66.2535 38.5933L55.1986 33.9257ZM53.0326 39.0557V27.0557H45.2425V39.0557V51.0557H53.0326V39.0557ZM45.2425 39.0557L56.2321 43.8754L67.8981 17.2754L56.9086 12.4557L45.919 7.63596L34.253 34.236L45.2425 39.0557ZM56.9086 12.4557V24.4557H69.0686V12.4557V0.455662H56.9086V12.4557ZM69.0686 12.4557L58.0848 17.2885L69.7888 43.8885L80.7726 39.0557L91.7563 34.2228L80.0523 7.6228L69.0686 12.4557ZM80.7726 39.0557V27.0557H72.7166V39.0557V51.0557H80.7726V39.0557ZM57.7445 27.9977V39.9977H68.0425V27.9977V15.9977H57.7445V27.9977ZM68.0425 27.9977L79.0865 23.304L73.9185 11.144L62.8745 15.8377L51.8306 20.5314L56.9986 32.6914L68.0425 27.9977ZM62.8745 15.8377L51.8182 11.1733L46.6882 23.3333L57.7445 27.9977L68.8009 32.6621L73.9309 20.5021L62.8745 15.8377ZM106.878 29.2517L107.472 17.2663C102.269 17.0088 97.4936 20.1376 95.6526 25.0109L106.878 29.2517ZM114.554 29.6317L126.396 31.5744C126.949 28.201 126.038 24.7517 123.89 22.0921C121.742 19.4326 118.562 17.8154 115.148 17.6463L114.554 29.6317ZM109.728 37.0037L103.386 26.8169C103.371 26.8259 103.357 26.835 103.342 26.844L109.728 37.0037ZM85.9403 35.9017L78.4439 45.2721C78.4598 45.2848 78.4758 45.2975 78.4918 45.3102L85.9403 35.9017ZM85.8263 15.6477L93.3904 24.9635C93.4063 24.9505 93.4222 24.9376 93.438 24.9245L85.8263 15.6477ZM108.968 14.5457L102.642 24.7428C102.665 24.757 102.688 24.771 102.711 24.785L108.968 14.5457ZM113.984 21.3857L114.763 33.3604C118.235 33.1347 121.439 31.4124 123.543 28.6402C125.647 25.868 126.444 22.319 125.727 18.9135L113.984 21.3857ZM106.384 21.8797L95.2993 26.4758C97.2669 31.221 102.037 34.1876 107.163 33.8544L106.384 21.8797ZM103.534 19.3717L98.7843 30.3916L98.7843 30.3916L103.534 19.3717ZM91.6022 20.4357L99.3871 29.5678C99.3913 29.5643 99.3954 29.5607 99.3996 29.5571L91.6022 20.4357ZM91.7163 31.1137L84.1491 40.427C84.1727 40.4461 84.1963 40.4652 84.2199 40.4841L91.7163 31.1137ZM104.142 32.0257L98.6981 21.3317C98.6715 21.3452 98.6449 21.3589 98.6184 21.3726L104.142 32.0257ZM106.878 29.2517L106.285 41.237L113.961 41.617L114.554 29.6317L115.148 17.6463L107.472 17.2663L106.878 29.2517ZM114.554 29.6317L102.713 27.6889C102.685 27.855 102.693 27.6639 102.909 27.3341C103.008 27.1829 103.118 27.0532 103.223 26.9529C103.325 26.8546 103.39 26.8139 103.386 26.8169L109.728 37.0037L116.071 47.1904C121.819 43.6116 125.329 38.078 126.396 31.5744L114.554 29.6317ZM109.728 37.0037L103.342 26.844C103.3 26.8708 102.17 27.5117 98.7843 27.5117V39.5117V51.5117C104.671 51.5117 110.837 50.4806 116.114 47.1633L109.728 37.0037ZM98.7843 39.5117V27.5117C94.8456 27.5117 93.572 26.6382 93.3887 26.4931L85.9403 35.9017L78.4918 45.3102C84.3885 49.9785 91.6775 51.5117 98.7843 51.5117V39.5117ZM85.9403 35.9017L93.4366 26.5312C93.3601 26.47 93.3569 26.4549 93.3875 26.4939C93.4196 26.5348 93.4486 26.584 93.4656 26.6219C93.5081 26.7164 93.3802 26.5087 93.3802 25.7557H81.3802H69.3802C69.3802 33.2658 72.2114 40.2861 78.4439 45.2721L85.9403 35.9017ZM81.3802 25.7557H93.3802C93.3802 24.9626 93.5128 24.7279 93.4761 24.8111C93.4609 24.8457 93.4307 24.9002 93.3903 24.9527C93.351 25.0037 93.3387 25.0055 93.3904 24.9635L85.8263 15.6477L78.2621 6.33186C72.0919 11.3419 69.3802 18.3574 69.3802 25.7557H81.3802ZM85.8263 15.6477L93.438 24.9245C93.5472 24.835 94.6394 23.9997 98.2903 23.9997V11.9997V-0.000336409C91.2504 -0.000336409 84.0333 1.59636 78.2145 6.37078L85.8263 15.6477ZM98.2903 11.9997V23.9997C101.217 23.9997 102.375 24.5767 102.642 24.7428L108.968 14.5457L115.294 4.34852C110.09 1.11996 104.128 -0.000336409 98.2903 -0.000336409V11.9997ZM108.968 14.5457L102.711 24.785C102.923 24.9147 102.801 24.8842 102.597 24.606C102.502 24.4753 102.416 24.3281 102.35 24.1773C102.284 24.0281 102.254 23.9141 102.242 23.8578L113.984 21.3857L125.727 18.9135C124.375 12.4931 120.51 7.53578 115.226 4.30628L108.968 14.5457ZM113.984 21.3857L113.206 9.41093L105.606 9.90493L106.384 21.8797L107.163 33.8544L114.763 33.3604L113.984 21.3857ZM106.384 21.8797L117.469 17.2835C115.416 12.3326 111.403 9.69592 108.284 8.35177L103.534 19.3717L98.7843 30.3916C98.6046 30.3141 96.4908 29.3494 95.2993 26.4758L106.384 21.8797ZM103.534 19.3717L108.284 8.35178C104.972 6.92415 101.531 6.42166 98.2903 6.42166V18.4217V30.4217C98.6843 30.4217 98.9044 30.4529 98.9822 30.467C99.0559 30.4803 98.9732 30.473 98.7843 30.3916L103.534 19.3717ZM98.2903 18.4217V6.42166C93.6718 6.42166 88.2754 7.49264 83.8049 11.3142L91.6022 20.4357L99.3996 29.5571C98.768 30.097 98.19 30.3319 97.9124 30.4155C97.6731 30.4875 97.749 30.4217 98.2903 30.4217V18.4217ZM91.6022 20.4357L83.8174 11.3035C79.3156 15.1411 77.2842 20.4001 77.2842 25.7557H89.2842H101.284C101.284 26.0406 101.23 26.7082 100.865 27.547C100.486 28.4156 99.9313 29.1039 99.3871 29.5678L91.6022 20.4357ZM89.2842 25.7557H77.2842C77.2842 31.2962 79.4785 36.6321 84.1491 40.427L91.7163 31.1137L99.2834 21.8003C99.8184 22.235 100.407 22.9183 100.819 23.8264C101.219 24.7077 101.284 25.427 101.284 25.7557H89.2842ZM91.7163 31.1137L84.2199 40.4841C88.7721 44.1258 94.1927 45.0897 98.7843 45.0897V33.0897V21.0897C98.081 21.0897 97.8493 21.0109 97.9492 21.0388C98.0793 21.0752 98.5902 21.2453 99.2126 21.7432L91.7163 31.1137ZM98.7843 33.0897V45.0897C102.138 45.0897 106.016 44.5711 109.666 42.6787L104.142 32.0257L98.6184 21.3726C99.1013 21.1222 99.4183 21.0577 99.4394 21.0535C99.4535 21.0507 99.409 21.0603 99.2964 21.0703C99.184 21.0803 99.0154 21.0897 98.7843 21.0897V33.0897ZM104.142 32.0257L109.586 42.7196C112.865 41.0505 116.344 38.1501 118.104 33.4925L106.878 29.2517L95.6526 25.0109C96.5508 22.6332 98.2061 21.5822 98.6981 21.3317L104.142 32.0257ZM116.245 18.9157H104.245C104.245 25.5431 109.618 30.9157 116.245 30.9157V18.9157ZM116.245 12.4557V0.455662C109.618 0.455662 104.245 5.82825 104.245 12.4557L116.245 12.4557ZM146.569 12.4557H158.569C158.569 5.82825 153.197 0.455662 146.569 0.455662V12.4557ZM146.569 18.9157V30.9157C153.197 30.9157 158.569 25.5431 158.569 18.9157H146.569ZM135.359 18.9157V6.91566C128.732 6.91566 123.359 12.2882 123.359 18.9157H135.359ZM135.359 39.0557V51.0557C141.987 51.0557 147.359 45.6831 147.359 39.0557H135.359ZM127.455 39.0557H115.455C115.455 45.6831 120.828 51.0557 127.455 51.0557V39.0557ZM127.455 18.9157H139.455C139.455 12.2882 134.083 6.91566 127.455 6.91566V18.9157ZM116.245 18.9157H128.245V12.4557H116.245H104.245V18.9157H116.245ZM116.245 12.4557V24.4557H146.569V12.4557V0.455662H116.245V12.4557ZM146.569 12.4557H134.569V18.9157H146.569H158.569V12.4557H146.569ZM146.569 18.9157V6.91566H135.359V18.9157V30.9157H146.569V18.9157ZM135.359 18.9157H123.359V39.0557H135.359H147.359V18.9157H135.359ZM135.359 39.0557V27.0557H127.455V39.0557V51.0557H135.359V39.0557ZM127.455 39.0557H139.455V18.9157H127.455H115.455V39.0557H127.455ZM127.455 18.9157V6.91566H116.245V18.9157V30.9157H127.455V18.9157ZM153.296 35.8637L160.68 26.4039V26.4039L153.296 35.8637ZM153.296 15.6477L145.913 6.18787V6.18787L153.296 15.6477ZM179.288 15.6477L186.672 6.18787V6.18787L179.288 15.6477ZM179.288 35.8637L171.905 26.4039L171.905 26.4039L179.288 35.8637ZM159.072 20.4357L166.43 29.9155C166.436 29.9105 166.443 29.9054 166.449 29.9004L159.072 20.4357ZM159.072 31.1137L151.628 40.5251C151.679 40.5658 151.731 40.6061 151.783 40.646L159.072 31.1137ZM173.474 31.1137L180.832 40.5935C180.838 40.5885 180.845 40.5834 180.851 40.5784L173.474 31.1137ZM173.474 20.4357L166.03 29.8471C166.081 29.8878 166.133 29.9281 166.185 29.968L173.474 20.4357ZM153.296 35.8637L160.68 26.4039C160.582 26.3278 160.569 26.3013 160.596 26.3353C160.625 26.3717 160.659 26.4245 160.683 26.4762C160.706 26.5254 160.694 26.5186 160.675 26.4229C160.654 26.3225 160.622 26.1092 160.622 25.7557H148.622H136.622C136.622 33.3781 139.596 40.3933 145.913 45.3235L153.296 35.8637ZM148.622 25.7557H160.622C160.622 25.4021 160.654 25.1889 160.675 25.0884C160.694 24.9927 160.706 24.9859 160.683 25.0351C160.659 25.0868 160.625 25.1396 160.596 25.1761C160.569 25.21 160.582 25.1835 160.68 25.1075L153.296 15.6477L145.913 6.18787C139.596 11.118 136.622 18.1333 136.622 25.7557H148.622ZM153.296 15.6477L160.68 25.1075C160.982 24.8716 162.362 23.9997 166.292 23.9997V11.9997V-0.000336409C159.127 -0.000336409 151.843 1.5597 145.913 6.18787L153.296 15.6477ZM166.292 11.9997V23.9997C170.223 23.9997 171.603 24.8716 171.905 25.1075L179.288 15.6477L186.672 6.18787C180.742 1.5597 173.458 -0.000336409 166.292 -0.000336409V11.9997ZM179.288 15.6477L171.905 25.1075C172.003 25.1835 172.016 25.21 171.989 25.1761C171.959 25.1396 171.926 25.0868 171.902 25.0352C171.879 24.9859 171.891 24.9927 171.91 25.0884C171.931 25.1889 171.962 25.4021 171.962 25.7557H183.962H195.962C195.962 18.1333 192.988 11.118 186.672 6.18787L179.288 15.6477ZM183.962 25.7557H171.962C171.962 26.1092 171.931 26.3225 171.91 26.4229C171.891 26.5186 171.879 26.5254 171.902 26.4762C171.926 26.4245 171.959 26.3717 171.989 26.3353C172.016 26.3013 172.003 26.3278 171.905 26.4039L179.288 35.8637L186.672 45.3235C192.988 40.3933 195.962 33.3781 195.962 25.7557H183.962ZM179.288 35.8637L171.905 26.4039C171.603 26.6397 170.223 27.5117 166.292 27.5117V39.5117V51.5117C173.458 51.5117 180.742 49.9516 186.672 45.3235L179.288 35.8637ZM166.292 39.5117V27.5117C162.362 27.5117 160.982 26.6397 160.68 26.4039L153.296 35.8637L145.913 45.3235C151.843 49.9516 159.127 51.5117 166.292 51.5117V39.5117ZM159.072 20.4357L151.715 10.9558C146.963 14.6441 144.526 19.9813 144.526 25.7557H156.526H168.526C168.526 26.1928 168.435 26.9991 167.987 27.9339C167.533 28.8827 166.916 29.5382 166.43 29.9155L159.072 20.4357ZM156.526 25.7557H144.526C144.526 31.525 146.954 36.8279 151.628 40.5251L159.072 31.1137L166.517 21.7023C166.973 22.0628 167.564 22.6957 168.002 23.6169C168.434 24.5272 168.526 25.3168 168.526 25.7557H156.526ZM159.072 31.1137L151.783 40.646C156.324 44.1185 161.655 45.0897 166.292 45.0897V33.0897V21.0897C165.943 21.0897 165.693 21.0709 165.53 21.0514C165.368 21.0319 165.31 21.0139 165.337 21.0213C165.366 21.0292 165.487 21.0648 165.673 21.1537C165.861 21.2439 166.1 21.3815 166.362 21.5814L159.072 31.1137ZM166.292 33.0897V45.0897C170.914 45.0897 176.282 44.1246 180.832 40.5935L173.474 31.1137L166.117 21.6338C166.687 21.1912 167.138 21.0488 167.223 21.0256C167.259 21.0157 167.208 21.0327 167.049 21.0518C166.89 21.0708 166.642 21.0897 166.292 21.0897V33.0897ZM173.474 31.1137L180.851 40.5784C185.561 36.9074 188.058 31.5942 188.058 25.7557H176.058H164.058C164.058 25.2912 164.158 24.4792 164.604 23.5545C165.053 22.622 165.653 21.9954 166.098 21.6489L173.474 31.1137ZM176.058 25.7557H188.058C188.058 19.9113 185.552 14.5646 180.764 10.9034L173.474 20.4357L166.185 29.968C165.711 29.6052 165.085 28.9565 164.618 27.9965C164.157 27.0472 164.058 26.2184 164.058 25.7557H176.058ZM173.474 20.4357L180.919 11.0243C176.361 7.41867 170.958 6.42166 166.292 6.42166V18.4217V30.4217C166.996 30.4217 167.243 30.501 167.166 30.4795C167.059 30.4495 166.598 30.2971 166.03 29.8471L173.474 20.4357ZM166.292 18.4217V6.42166C161.612 6.42166 156.245 7.42465 151.696 10.9709L159.072 20.4357L166.449 29.9004C166.189 30.1031 165.948 30.2451 165.753 30.3401C165.561 30.4336 165.432 30.4731 165.394 30.4839C165.357 30.4942 165.405 30.4777 165.557 30.459C165.71 30.4404 165.951 30.4217 166.292 30.4217V18.4217ZM223.958 29.2517L224.552 17.2663C219.349 17.0088 214.574 20.1376 212.733 25.0109L223.958 29.2517ZM231.634 29.6317L243.476 31.5744C244.029 28.201 243.118 24.7517 240.97 22.0921C238.822 19.4326 235.642 17.8154 232.228 17.6463L231.634 29.6317ZM226.808 37.0037L220.466 26.8169C220.451 26.8259 220.437 26.835 220.422 26.844L226.808 37.0037ZM203.02 35.9017L195.524 45.2721C195.54 45.2848 195.556 45.2975 195.572 45.3102L203.02 35.9017ZM202.906 15.6477L210.47 24.9635C210.486 24.9505 210.502 24.9376 210.518 24.9245L202.906 15.6477ZM226.048 14.5457L219.722 24.7428C219.745 24.757 219.768 24.771 219.791 24.785L226.048 14.5457ZM231.064 21.3857L231.843 33.3604C235.316 33.1347 238.519 31.4124 240.623 28.6402C242.727 25.868 243.524 22.319 242.807 18.9135L231.064 21.3857ZM223.464 21.8797L212.379 26.4758C214.347 31.221 219.117 34.1876 224.243 33.8544L223.464 21.8797ZM220.614 19.3717L215.864 30.3916V30.3916L220.614 19.3717ZM208.682 20.4357L216.467 29.5678C216.471 29.5643 216.476 29.5607 216.48 29.5571L208.682 20.4357ZM208.796 31.1137L201.229 40.427C201.253 40.4461 201.276 40.4652 201.3 40.4841L208.796 31.1137ZM221.222 32.0257L215.778 21.3317C215.752 21.3452 215.725 21.3589 215.699 21.3726L221.222 32.0257ZM223.958 29.2517L223.365 41.237L231.041 41.617L231.634 29.6317L232.228 17.6463L224.552 17.2663L223.958 29.2517ZM231.634 29.6317L219.793 27.6889C219.765 27.855 219.773 27.6639 219.989 27.3341C220.088 27.1829 220.198 27.0532 220.303 26.9529C220.405 26.8546 220.471 26.8139 220.466 26.8169L226.808 37.0037L233.151 47.1904C238.899 43.6116 242.409 38.078 243.476 31.5744L231.634 29.6317ZM226.808 37.0037L220.422 26.844C220.38 26.8708 219.25 27.5117 215.864 27.5117V39.5117V51.5117C221.751 51.5117 227.917 50.4806 233.194 47.1633L226.808 37.0037ZM215.864 39.5117V27.5117C211.926 27.5117 210.652 26.6382 210.469 26.4931L203.02 35.9017L195.572 45.3102C201.469 49.9785 208.758 51.5117 215.864 51.5117V39.5117ZM203.02 35.9017L210.517 26.5312C210.44 26.47 210.437 26.4549 210.468 26.4939C210.5 26.5348 210.529 26.584 210.546 26.6219C210.588 26.7164 210.46 26.5087 210.46 25.7557H198.46H186.46C186.46 33.2658 189.291 40.2861 195.524 45.2721L203.02 35.9017ZM198.46 25.7557H210.46C210.46 24.9626 210.593 24.7279 210.556 24.8111C210.541 24.8457 210.511 24.9002 210.47 24.9527C210.431 25.0037 210.419 25.0055 210.47 24.9635L202.906 15.6477L195.342 6.33186C189.172 11.3419 186.46 18.3574 186.46 25.7557H198.46ZM202.906 15.6477L210.518 24.9245C210.627 24.835 211.72 23.9997 215.37 23.9997V11.9997V-0.000336409C208.33 -0.000336409 201.113 1.59636 195.295 6.37078L202.906 15.6477ZM215.37 11.9997V23.9997C218.298 23.9997 219.455 24.5767 219.722 24.7428L226.048 14.5457L232.374 4.34852C227.17 1.11996 221.208 -0.000336409 215.37 -0.000336409V11.9997ZM226.048 14.5457L219.791 24.785C220.003 24.9147 219.881 24.8842 219.677 24.606C219.582 24.4753 219.496 24.3281 219.43 24.1773C219.364 24.0281 219.334 23.9141 219.322 23.8578L231.064 21.3857L242.807 18.9135C241.455 12.4931 237.59 7.53578 232.306 4.30628L226.048 14.5457ZM231.064 21.3857L230.286 9.41093L222.686 9.90493L223.464 21.8797L224.243 33.8544L231.843 33.3604L231.064 21.3857ZM223.464 21.8797L234.549 17.2835C232.496 12.3326 228.483 9.69592 225.364 8.35177L220.614 19.3717L215.864 30.3916C215.685 30.3141 213.571 29.3494 212.379 26.4758L223.464 21.8797ZM220.614 19.3717L225.364 8.35178C222.052 6.92415 218.611 6.42166 215.37 6.42166V18.4217V30.4217C215.764 30.4217 215.984 30.4529 216.062 30.467C216.136 30.4803 216.053 30.473 215.864 30.3916L220.614 19.3717ZM215.37 18.4217V6.42166C210.752 6.42166 205.355 7.49264 200.885 11.3142L208.682 20.4357L216.48 29.5571C215.848 30.097 215.27 30.3319 214.992 30.4155C214.753 30.4875 214.829 30.4217 215.37 30.4217V18.4217ZM208.682 20.4357L200.898 11.3035C196.396 15.1411 194.364 20.4001 194.364 25.7557H206.364H218.364C218.364 26.0406 218.31 26.7082 217.945 27.547C217.566 28.4156 217.011 29.1039 216.467 29.5678L208.682 20.4357ZM206.364 25.7557H194.364C194.364 31.2962 196.559 36.6321 201.229 40.427L208.796 31.1137L216.363 21.8003C216.899 22.235 217.487 22.9183 217.899 23.8264C218.299 24.7077 218.364 25.427 218.364 25.7557H206.364ZM208.796 31.1137L201.3 40.4841C205.852 44.1258 211.273 45.0897 215.864 45.0897V33.0897V21.0897C215.161 21.0897 214.929 21.0109 215.029 21.0388C215.159 21.0752 215.67 21.2453 216.293 21.7432L208.796 31.1137ZM215.864 33.0897V45.0897C219.218 45.0897 223.097 44.5711 226.746 42.6787L221.222 32.0257L215.699 21.3726C216.181 21.1222 216.498 21.0577 216.519 21.0535C216.534 21.0507 216.489 21.0603 216.376 21.0703C216.264 21.0803 216.095 21.0897 215.864 21.0897V33.0897ZM221.222 32.0257L226.667 42.7196C229.945 41.0505 233.424 38.1501 235.184 33.4925L223.958 29.2517L212.733 25.0109C213.631 22.6332 215.286 21.5822 215.778 21.3317L221.222 32.0257ZM266.907 12.4557H278.907C278.907 5.82825 273.534 0.455662 266.907 0.455662V12.4557ZM266.907 39.0557V51.0557C273.534 51.0557 278.907 45.6831 278.907 39.0557H266.907ZM259.003 39.0557H247.003C247.003 45.6831 252.375 51.0557 259.003 51.0557V39.0557ZM259.003 18.9157H271.003C271.003 12.2882 265.63 6.91566 259.003 6.91566V18.9157ZM243.955 18.9157V6.91566C237.327 6.91566 231.955 12.2882 231.955 18.9157H243.955ZM243.955 39.0557V51.0557C250.582 51.0557 255.955 45.6831 255.955 39.0557H243.955ZM236.051 39.0557H224.051C224.051 45.6831 229.423 51.0557 236.051 51.0557V39.0557ZM236.051 12.4557V0.455662C229.423 0.455662 224.051 5.82825 224.051 12.4557L236.051 12.4557ZM266.907 12.4557H254.907V39.0557H266.907H278.907V12.4557H266.907ZM266.907 39.0557V27.0557H259.003V39.0557V51.0557H266.907V39.0557ZM259.003 39.0557H271.003V18.9157H259.003H247.003V39.0557H259.003ZM259.003 18.9157V6.91566H243.955V18.9157V30.9157H259.003V18.9157ZM243.955 18.9157H231.955V39.0557H243.955H255.955V18.9157H243.955ZM243.955 39.0557V27.0557H236.051V39.0557V51.0557H243.955V39.0557ZM236.051 39.0557H248.051V12.4557H236.051H224.051V39.0557H236.051ZM236.051 12.4557V24.4557H266.907V12.4557V0.455662H236.051V12.4557ZM299.642 14.6977L292.634 24.4383C292.679 24.4705 292.724 24.5024 292.769 24.534L299.642 14.6977ZM299.794 27.9977L306.48 37.9628C306.509 37.9435 306.538 37.924 306.566 37.9044L299.794 27.9977ZM281.212 30.0117V18.0117C274.585 18.0117 269.212 23.3842 269.212 30.0117H281.212ZM281.212 39.0557V51.0557C287.84 51.0557 293.212 45.6831 293.212 39.0557H281.212ZM273.308 39.0557H261.308C261.308 45.6831 266.681 51.0557 273.308 51.0557V39.0557ZM273.308 12.4557V0.455662C266.681 0.455662 261.308 5.82825 261.308 12.4557L273.308 12.4557ZM281.212 18.9157V6.91566C274.585 6.91566 269.212 12.2882 269.212 18.9157H281.212ZM281.212 23.9317H269.212C269.212 30.5591 274.585 35.9317 281.212 35.9317V23.9317ZM291.738 12.4557V24.4557C292.405 24.4557 292.741 24.5343 292.834 24.5607C292.906 24.5811 292.803 24.5598 292.634 24.4383L299.642 14.6977L306.651 4.957C302.075 1.66442 296.817 0.455662 291.738 0.455662V12.4557ZM299.642 14.6977L292.769 24.534C292.162 24.11 291.543 23.4278 291.143 22.5759C290.777 21.7943 290.796 21.3017 290.796 21.4237H302.796H314.796C314.796 15.2771 312.427 8.99161 306.516 4.86132L299.642 14.6977ZM302.796 21.4237H290.796C290.796 21.6308 290.76 21.154 291.13 20.3435C291.543 19.4386 292.232 18.6316 293.023 18.0909L299.794 27.9977L306.566 37.9044C312.647 33.7478 314.796 27.3103 314.796 21.4237H302.796ZM299.794 27.9977L293.109 18.0325C293.418 17.8255 293.563 17.818 293.369 17.8665C293.158 17.9193 292.646 18.0117 291.738 18.0117V30.0117V42.0117C296.575 42.0117 301.859 41.0632 306.48 37.9628L299.794 27.9977ZM291.738 30.0117V18.0117H281.212V30.0117V42.0117H291.738V30.0117ZM281.212 30.0117H269.212V39.0557H281.212H293.212V30.0117H281.212ZM281.212 39.0557V27.0557H273.308V39.0557V51.0557H281.212V39.0557ZM273.308 39.0557H285.308V12.4557H273.308H261.308V39.0557H273.308ZM273.308 12.4557V24.4557H281.212V12.4557V0.455662H273.308V12.4557ZM281.212 12.4557V24.4557H291.738V12.4557V0.455662H281.212V12.4557ZM291.358 23.9317V35.9317C293.592 35.9317 297.417 35.6012 300.954 33.0907C305.247 30.044 306.892 25.4447 306.892 21.4237H294.892H282.892C282.892 20.437 283.069 18.9977 283.81 17.4193C284.581 15.7783 285.746 14.4541 287.064 13.5186C288.307 12.6364 289.453 12.2602 290.142 12.0972C290.827 11.9352 291.276 11.9317 291.358 11.9317V23.9317ZM294.892 21.4237H306.892C306.892 17.4026 305.247 12.8034 300.954 9.75658C297.417 7.24615 293.592 6.91566 291.358 6.91566V18.9157V30.9157C291.276 30.9157 290.827 30.9121 290.142 30.7501C289.453 30.5871 288.307 30.2109 287.064 29.3287C285.746 28.3932 284.581 27.069 283.81 25.428C283.069 23.8496 282.892 22.4103 282.892 21.4237H294.892ZM291.358 18.9157V6.91566H281.212V18.9157V30.9157H291.358V18.9157ZM281.212 18.9157H269.212V23.9317H281.212H293.212V18.9157H281.212ZM281.212 23.9317V35.9317H291.358V23.9317V11.9317H281.212V23.9317ZM328.697 39.0557L317.642 43.7233C319.518 48.1672 323.873 51.0557 328.697 51.0557V39.0557ZM326.531 33.9257L337.586 29.258C335.71 24.8141 331.355 21.9257 326.531 21.9257V33.9257ZM311.179 33.9257V21.9257C306.355 21.9257 302 24.8141 300.124 29.258L311.179 33.9257ZM309.013 39.0557V51.0557C313.837 51.0557 318.192 48.1672 320.068 43.7233L309.013 39.0557ZM301.223 39.0557L290.233 34.236C288.606 37.9464 288.961 42.2275 291.177 45.6193C293.393 49.0112 297.171 51.0557 301.223 51.0557V39.0557ZM312.889 12.4557V0.455662C308.125 0.455662 303.813 3.27341 301.899 7.63596L312.889 12.4557ZM325.049 12.4557L336.033 7.6228C334.116 3.26732 329.807 0.455662 325.049 0.455662V12.4557ZM336.753 39.0557V51.0557C340.807 51.0557 344.587 49.0086 346.803 45.6133C349.018 42.218 349.37 37.9336 347.737 34.2228L336.753 39.0557ZM313.725 27.9977L302.669 23.3333C301.105 27.0387 301.502 31.2808 303.726 34.6319C305.949 37.9831 309.703 39.9977 313.725 39.9977V27.9977ZM324.023 27.9977V39.9977C328.05 39.9977 331.809 37.9775 334.031 34.6187C336.253 31.2599 336.642 27.0104 335.067 23.304L324.023 27.9977ZM318.855 15.8377L329.899 11.144C328.014 6.70863 323.658 3.83129 318.839 3.83767C314.02 3.84406 309.672 6.73293 307.799 11.1733L318.855 15.8377ZM328.697 39.0557L339.752 34.388L337.586 29.258L326.531 33.9257L315.476 38.5933L317.642 43.7233L328.697 39.0557ZM326.531 33.9257V21.9257H311.179V33.9257V45.9257H326.531V33.9257ZM311.179 33.9257L300.124 29.258L297.958 34.388L309.013 39.0557L320.068 43.7233L322.234 38.5933L311.179 33.9257ZM309.013 39.0557V27.0557H301.223V39.0557V51.0557H309.013V39.0557ZM301.223 39.0557L312.213 43.8754L323.879 17.2754L312.889 12.4557L301.899 7.63596L290.233 34.236L301.223 39.0557ZM312.889 12.4557V24.4557H325.049V12.4557V0.455662H312.889V12.4557ZM325.049 12.4557L314.065 17.2885L325.769 43.8885L336.753 39.0557L347.737 34.2228L336.033 7.6228L325.049 12.4557ZM336.753 39.0557V27.0557H328.697V39.0557V51.0557H336.753V39.0557ZM313.725 27.9977V39.9977H324.023V27.9977V15.9977H313.725V27.9977ZM324.023 27.9977L335.067 23.304L329.899 11.144L318.855 15.8377L307.811 20.5314L312.979 32.6914L324.023 27.9977ZM318.855 15.8377L307.799 11.1733L302.669 23.3333L313.725 27.9977L324.781 32.6621L329.911 20.5021L318.855 15.8377ZM340.328 39.0557H328.328C328.328 45.6831 333.701 51.0557 340.328 51.0557V39.0557ZM340.328 12.4557V0.455662C333.701 0.455662 328.328 5.82825 328.328 12.4557L340.328 12.4557ZM348.042 12.4557H360.042C360.042 5.82825 354.669 0.455662 348.042 0.455662V12.4557ZM348.042 32.5957H336.042C336.042 39.2231 341.415 44.5957 348.042 44.5957V32.5957ZM358.644 32.5957V44.5957C365.271 44.5957 370.644 39.2231 370.644 32.5957H358.644ZM358.644 12.4557V0.455662C352.017 0.455662 346.644 5.82825 346.644 12.4557L358.644 12.4557ZM366.358 12.4557H378.358C378.358 5.82825 372.985 0.455662 366.358 0.455662V12.4557ZM366.358 32.5957H354.358C354.358 39.2231 359.731 44.5957 366.358 44.5957V32.5957ZM376.96 32.5957V44.5957C383.587 44.5957 388.96 39.2231 388.96 32.5957H376.96ZM376.96 12.4557V0.455662C370.333 0.455662 364.96 5.82825 364.96 12.4557L376.96 12.4557ZM384.674 12.4557H396.674C396.674 5.82825 391.301 0.455662 384.674 0.455662V12.4557ZM384.674 39.0557V51.0557C391.301 51.0557 396.674 45.6831 396.674 39.0557H384.674ZM340.328 39.0557H352.328V12.4557H340.328H328.328V39.0557H340.328ZM340.328 12.4557V24.4557H348.042V12.4557V0.455662H340.328V12.4557ZM348.042 12.4557H336.042V32.5957H348.042H360.042V12.4557H348.042ZM348.042 32.5957V44.5957H358.644V32.5957V20.5957H348.042V32.5957ZM358.644 32.5957H370.644V12.4557H358.644H346.644V32.5957H358.644ZM358.644 12.4557V24.4557H366.358V12.4557V0.455662H358.644V12.4557ZM366.358 12.4557H354.358V32.5957H366.358H378.358V12.4557H366.358ZM366.358 32.5957V44.5957H376.96V32.5957V20.5957H366.358V32.5957ZM376.96 32.5957H388.96V12.4557H376.96H364.96V32.5957H376.96ZM376.96 12.4557V24.4557H384.674V12.4557V0.455662H376.96V12.4557ZM384.674 12.4557H372.674V39.0557H384.674H396.674V12.4557H384.674ZM384.674 39.0557V27.0557H340.328V39.0557V51.0557H384.674V39.0557ZM411.007 12.4557V0.455662C406.735 0.455662 402.786 2.72615 400.636 6.41737L411.007 12.4557ZM423.167 12.4557H435.167C435.167 5.82825 429.794 0.455662 423.167 0.455662V12.4557ZM423.167 39.0557V51.0557C429.794 51.0557 435.167 45.6831 435.167 39.0557H423.167ZM415.453 39.0557H403.453C403.453 45.6831 408.825 51.0557 415.453 51.0557V39.0557ZM415.453 18.0417H427.453C427.453 12.6186 423.815 7.86954 418.58 6.4563C413.344 5.04306 407.811 7.31691 405.082 12.0034L415.453 18.0417ZM403.216 39.0557V51.0557C407.488 51.0557 411.437 48.7852 413.587 45.094L403.216 39.0557ZM391.056 39.0557H379.056C379.056 45.6831 384.429 51.0557 391.056 51.0557V39.0557ZM391.056 12.4557V0.455662C384.429 0.455662 379.056 5.82825 379.056 12.4557L391.056 12.4557ZM398.771 12.4557H410.771C410.771 5.82825 405.398 0.455662 398.771 0.455662V12.4557ZM398.771 33.4697H386.771C386.771 38.8927 390.408 43.6418 395.643 45.055C400.879 46.4683 406.412 44.1944 409.141 39.508L398.771 33.4697ZM411.007 12.4557V24.4557H423.167V12.4557V0.455662H411.007V12.4557ZM423.167 12.4557H411.167V39.0557H423.167H435.167V12.4557H423.167ZM423.167 39.0557V27.0557H415.453V39.0557V51.0557H423.167V39.0557ZM415.453 39.0557H427.453V18.0417H415.453H403.453V39.0557H415.453ZM415.453 18.0417L405.082 12.0034L392.846 33.0174L403.216 39.0557L413.587 45.094L425.823 24.08L415.453 18.0417ZM403.216 39.0557V27.0557H391.056V39.0557V51.0557H403.216V39.0557ZM391.056 39.0557H403.056V12.4557H391.056H379.056V39.0557H391.056ZM391.056 12.4557V24.4557H398.771V12.4557V0.455662H391.056V12.4557ZM398.771 12.4557H386.771V33.4697H398.771H410.771V12.4557H398.771ZM398.771 33.4697L409.141 39.508L421.377 18.494L411.007 12.4557L400.636 6.41737L388.4 27.4314L398.771 33.4697ZM451.655 25.4897L450.174 13.5814C444.088 14.3382 439.552 19.5629 439.657 25.6953C439.762 31.8277 444.474 36.8938 450.583 37.4417L451.655 25.4897ZM457.127 37.1177L463.635 47.1993L457.127 37.1177ZM429.539 39.0557H417.539C417.539 45.6831 422.911 51.0557 429.539 51.0557V39.0557ZM429.539 12.4557V0.455662C422.911 0.455662 417.539 5.82825 417.539 12.4557L429.539 12.4557ZM456.063 14.4317L449.287 24.3354C449.307 24.3491 449.327 24.3627 449.347 24.3764L456.063 14.4317ZM437.443 18.5357V6.53566C430.816 6.53566 425.443 11.9082 425.443 18.5357H437.443ZM437.443 22.7537H425.443C425.443 29.3811 430.816 34.7537 437.443 34.7537V22.7537ZM450.211 22.1837L443.656 12.1323L443.656 12.1323L450.211 22.1837ZM451.085 32.4817L446.314 21.471C446.268 21.4909 446.222 21.5111 446.176 21.5316L451.085 32.4817ZM451.123 29.0237L446.214 39.9738L446.214 39.9738L451.123 29.0237ZM437.443 28.5297V16.5297C430.816 16.5297 425.443 21.9022 425.443 28.5297H437.443ZM437.443 32.9757H425.443C425.443 39.6031 430.816 44.9757 437.443 44.9757V32.9757ZM451.655 25.4897L450.583 37.4417C451.38 37.5131 451.758 37.6151 451.831 37.6375C451.907 37.6608 451.479 37.5442 450.845 37.0725C450.155 36.5586 449.373 35.7317 448.81 34.5761C448.257 33.4405 448.129 32.4262 448.129 31.7977H460.129H472.129C472.129 26.3796 469.805 21.2668 465.176 17.8208C461.21 14.8684 456.539 13.8796 452.727 13.5376L451.655 25.4897ZM460.129 31.7977H448.129C448.129 31.0855 448.306 30.0221 448.927 28.9214C449.533 27.848 450.263 27.2653 450.618 27.036L457.127 37.1177L463.635 47.1993C468.828 43.8472 472.129 38.3964 472.129 31.7977H460.129ZM457.127 37.1177L450.618 27.036C451.122 26.7106 451.313 26.7417 450.849 26.8419C450.393 26.9406 449.535 27.0557 448.159 27.0557V39.0557V51.0557C453.061 51.0557 458.79 50.3271 463.635 47.1993L457.127 37.1177ZM448.159 39.0557V27.0557H429.539V39.0557V51.0557H448.159V39.0557ZM429.539 39.0557H441.539V12.4557H429.539H417.539V39.0557H429.539ZM429.539 12.4557V24.4557H448.159V12.4557V0.455662H429.539V12.4557ZM448.159 12.4557V24.4557C449.066 24.4557 449.556 24.5473 449.732 24.5914C449.891 24.631 449.675 24.601 449.287 24.3354L456.063 14.4317L462.839 4.52798C458.225 1.371 452.918 0.455662 448.159 0.455662V12.4557ZM456.063 14.4317L449.347 24.3764C449.074 24.1916 448.398 23.6544 447.815 22.6239C447.206 21.5475 446.989 20.4475 446.989 19.5997H458.989H470.989C470.989 13.0121 467.622 7.75738 462.779 4.48698L456.063 14.4317ZM458.989 19.5997H446.989C446.989 18.933 447.119 17.9214 447.64 16.7943C448.171 15.6468 448.923 14.7815 449.641 14.2049C450.88 13.2103 451.564 13.4086 450.174 13.5814L451.655 25.4897L453.136 37.3979C456.636 36.9627 460.986 35.8754 464.669 32.9174C468.913 29.509 470.989 24.6515 470.989 19.5997H458.989ZM437.443 18.5357H425.443V22.7537H437.443H449.443V18.5357H437.443ZM437.443 22.7537V34.7537H447.779V22.7537V10.7537H437.443V22.7537ZM447.779 22.7537V34.7537C450.069 34.7537 453.494 34.3689 456.766 32.235L450.211 22.1837L443.656 12.1323C445.762 10.7584 447.566 10.7537 447.779 10.7537V22.7537ZM450.211 22.1837L456.766 32.235C460.517 29.7887 463.085 25.6049 463.085 20.6257H451.085H439.085C439.085 19.1221 439.437 17.3569 440.401 15.6381C441.35 13.9462 442.599 12.8218 443.656 12.1323L450.211 22.1837ZM451.085 20.6257H463.085C463.085 16.1532 460.978 11.6382 456.671 8.91507C453.291 6.77854 449.758 6.53566 447.779 6.53566V18.5357V30.5357C447.735 30.5357 447.354 30.5355 446.751 30.4084C446.159 30.2837 445.076 29.9785 443.846 29.2013C442.536 28.3729 441.204 27.0917 440.263 25.3082C439.341 23.5593 439.085 21.8782 439.085 20.6257H451.085ZM447.779 18.5357V6.53566H437.443V18.5357V30.5357H447.779V18.5357ZM447.361 32.9757V44.9757C449.275 44.9757 452.756 44.8831 455.994 43.4318L451.085 32.4817L446.176 21.5316C446.78 21.261 447.261 21.123 447.529 21.0561C447.806 20.9866 447.984 20.9618 448.025 20.9564C448.087 20.9482 447.897 20.9757 447.361 20.9757V32.9757ZM451.085 32.4817L455.856 43.4923C457.91 42.6026 460.206 41.041 461.925 38.4636C463.654 35.8686 464.225 33.1033 464.225 30.7717H452.225H440.225C440.225 29.2507 440.605 27.1757 441.955 25.1508C443.294 23.1434 445.02 22.0314 446.314 21.471L451.085 32.4817ZM452.225 30.7717H464.225C464.225 28.5755 463.728 25.8892 462.101 23.308C460.454 20.6969 458.184 19.0384 456.032 18.0735L451.123 29.0237L446.214 39.9738C444.797 39.3383 443.077 38.1358 441.798 36.1073C440.538 34.1088 440.225 32.1319 440.225 30.7717H452.225ZM451.123 29.0237L456.032 18.0736C452.924 16.6804 449.714 16.5297 447.741 16.5297V28.5297V40.5297C448.099 40.5297 448.156 40.5511 447.992 40.5272C447.901 40.5138 447.701 40.4807 447.421 40.4063C447.145 40.3329 446.724 40.2024 446.214 39.9738L451.123 29.0237ZM447.741 28.5297V16.5297H437.443V28.5297V40.5297H447.741V28.5297ZM437.443 28.5297H425.443V32.9757H437.443H449.443V28.5297H437.443ZM437.443 32.9757V44.9757H447.361V32.9757V20.9757H437.443V32.9757ZM489.121 39.0557L478.066 43.7233C479.942 48.1672 484.297 51.0557 489.121 51.0557V39.0557ZM486.955 33.9257L498.01 29.258C496.134 24.8141 491.779 21.9257 486.955 21.9257V33.9257ZM471.603 33.9257V21.9257C466.779 21.9257 462.424 24.8141 460.548 29.258L471.603 33.9257ZM469.437 39.0557V51.0557C474.261 51.0557 478.616 48.1672 480.492 43.7233L469.437 39.0557ZM461.647 39.0557L450.657 34.236C449.03 37.9464 449.385 42.2275 451.601 45.6193C453.817 49.0112 457.595 51.0557 461.647 51.0557V39.0557ZM473.313 12.4557V0.455662C468.549 0.455662 464.237 3.27341 462.323 7.63596L473.313 12.4557ZM485.473 12.4557L496.457 7.6228C494.54 3.26732 490.231 0.455662 485.473 0.455662V12.4557ZM497.177 39.0557V51.0557C501.231 51.0557 505.011 49.0086 507.227 45.6133C509.442 42.218 509.793 37.9336 508.161 34.2228L497.177 39.0557ZM474.149 27.9977L463.092 23.3333C461.529 27.0387 461.926 31.2808 464.15 34.6319C466.373 37.9831 470.127 39.9977 474.149 39.9977V27.9977ZM484.447 27.9977V39.9977C488.474 39.9977 492.233 37.9775 494.455 34.6187C496.677 31.2599 497.066 27.0104 495.491 23.304L484.447 27.9977ZM479.279 15.8377L490.323 11.144C488.438 6.70863 484.082 3.83129 479.263 3.83767C474.444 3.84406 470.096 6.73293 468.222 11.1733L479.279 15.8377ZM489.121 39.0557L500.176 34.388L498.01 29.258L486.955 33.9257L475.9 38.5933L478.066 43.7233L489.121 39.0557ZM486.955 33.9257V21.9257H471.603V33.9257V45.9257H486.955V33.9257ZM471.603 33.9257L460.548 29.258L458.382 34.388L469.437 39.0557L480.492 43.7233L482.658 38.5933L471.603 33.9257ZM469.437 39.0557V27.0557H461.647V39.0557V51.0557H469.437V39.0557ZM461.647 39.0557L472.636 43.8754L484.302 17.2754L473.313 12.4557L462.323 7.63596L450.657 34.236L461.647 39.0557ZM473.313 12.4557V24.4557H485.473V12.4557V0.455662H473.313V12.4557ZM485.473 12.4557L474.489 17.2885L486.193 43.8885L497.177 39.0557L508.161 34.2228L496.457 7.6228L485.473 12.4557ZM497.177 39.0557V27.0557H489.121V39.0557V51.0557H497.177V39.0557ZM474.149 27.9977V39.9977H484.447V27.9977V15.9977H474.149V27.9977ZM484.447 27.9977L495.491 23.304L490.323 11.144L479.279 15.8377L468.235 20.5314L473.403 32.6914L484.447 27.9977ZM479.279 15.8377L468.222 11.1733L463.092 23.3333L474.149 27.9977L485.205 32.6621L490.335 20.5021L479.279 15.8377ZM543.274 15.6857L535.615 24.9237C535.643 24.9473 535.672 24.9708 535.701 24.9942L543.274 15.6857ZM543.274 35.8637L550.886 45.1405L550.894 45.1336L543.274 35.8637ZM519.334 36.6997L512.738 46.7247C512.759 46.7382 512.78 46.7516 512.8 46.765L519.334 36.6997ZM513.976 28.7577L525.739 26.3874C524.611 20.7863 519.69 16.7577 513.976 16.7577V28.7577ZM508.656 28.7577V16.7577C502.028 16.7577 496.656 22.1302 496.656 28.7577H508.656ZM508.656 39.0557V51.0557C515.283 51.0557 520.656 45.6831 520.656 39.0557H508.656ZM500.752 39.0557H488.752C488.752 45.6831 494.124 51.0557 500.752 51.0557V39.0557ZM500.752 12.4557V0.455662C494.124 0.455662 488.752 5.82825 488.752 12.4557L500.752 12.4557ZM508.656 12.4557H520.656C520.656 5.82825 515.283 0.455662 508.656 0.455662V12.4557ZM508.656 22.2977H496.656C496.656 28.9251 502.028 34.2977 508.656 34.2977V22.2977ZM514.09 22.2977V34.2977C519.67 34.2977 524.514 30.451 525.778 25.0158L514.09 22.2977ZM519.524 14.6977L513.14 4.53687V4.53687L519.524 14.6977ZM523.97 31.0757L531.767 21.9542V21.9542L523.97 31.0757ZM537.498 31.0757L529.7 21.9542V21.9542L537.498 31.0757ZM537.498 20.4357L529.7 29.5571V29.5571L537.498 20.4357ZM523.97 20.4357L531.767 29.5571V29.5571L523.97 20.4357ZM530.734 11.9997V23.9997C534.442 23.9997 535.526 24.8502 535.615 24.9237L543.274 15.6857L550.933 6.44762C545.093 1.6065 537.818 -0.000336409 530.734 -0.000336409V11.9997ZM543.274 15.6857L535.701 24.9942C535.775 25.0544 535.778 25.0693 535.749 25.0316C535.718 24.9921 535.691 24.9447 535.674 24.9085C535.634 24.8174 535.758 25.0215 535.758 25.7557H547.758H559.758C559.758 18.3179 556.972 11.36 550.847 6.37712L543.274 15.6857ZM547.758 25.7557H535.758C535.758 26.4887 535.634 26.703 535.668 26.6277C535.68 26.5997 535.702 26.5614 535.726 26.5311C535.747 26.5027 535.736 26.526 535.654 26.5937L543.274 35.8637L550.894 45.1336C556.974 40.1356 559.758 33.1938 559.758 25.7557H547.758ZM543.274 35.8637L535.662 26.5868C535.571 26.6617 534.468 27.5117 530.734 27.5117V39.5117V51.5117C537.792 51.5117 545.049 49.9296 550.886 45.1405L543.274 35.8637ZM530.734 39.5117V27.5117C527.513 27.5117 526.216 26.8607 525.867 26.6343L519.334 36.6997L512.8 46.765C518.227 50.288 524.53 51.5117 530.734 51.5117V39.5117ZM519.334 36.6997L525.929 26.6747C525.804 26.5922 525.751 26.5415 525.742 26.5335C525.736 26.5271 525.753 26.5431 525.776 26.5779C525.8 26.6128 525.807 26.6334 525.803 26.6227C525.798 26.6098 525.77 26.5384 525.739 26.3874L513.976 28.7577L502.212 31.1279C503.527 37.6554 507.17 43.0614 512.738 46.7247L519.334 36.6997ZM513.976 28.7577V16.7577H508.656V28.7577V40.7577H513.976V28.7577ZM508.656 28.7577H496.656V39.0557H508.656H520.656V28.7577H508.656ZM508.656 39.0557V27.0557H500.752V39.0557V51.0557H508.656V39.0557ZM500.752 39.0557H512.752V12.4557H500.752H488.752V39.0557H500.752ZM500.752 12.4557V24.4557H508.656V12.4557V0.455662H500.752V12.4557ZM508.656 12.4557H496.656V22.2977H508.656H520.656V12.4557H508.656ZM508.656 22.2977V34.2977H514.09V22.2977V10.2977H508.656V22.2977ZM514.09 22.2977L525.778 25.0158C525.807 24.8926 525.829 24.8432 525.828 24.847C525.825 24.8526 525.81 24.8843 525.78 24.9261C525.75 24.9678 525.728 24.9884 525.731 24.9856C525.736 24.9812 525.786 24.9351 525.908 24.8585L519.524 14.6977L513.14 4.53687C507.62 8.00526 503.885 13.2018 502.402 19.5795L514.09 22.2977ZM519.524 14.6977L525.908 24.8585C526.282 24.6237 527.588 23.9997 530.734 23.9997V11.9997V-0.000336409C524.659 -0.000336409 518.491 1.17433 513.14 4.53687L519.524 14.6977ZM523.97 31.0757L516.172 40.1971C520.676 44.0472 526.127 45.0897 530.734 45.0897V33.0897V21.0897C530.149 21.0897 530.043 21.0196 530.263 21.0852C530.522 21.1621 531.112 21.3942 531.767 21.9542L523.97 31.0757ZM530.734 33.0897V45.0897C535.341 45.0897 540.791 44.0472 545.295 40.1971L537.498 31.0757L529.7 21.9542C530.356 21.3942 530.946 21.1621 531.204 21.0852C531.425 21.0196 531.319 21.0897 530.734 21.0897V33.0897ZM537.498 31.0757L545.295 40.1971C549.729 36.4073 551.854 31.2025 551.854 25.7557H539.854H527.854C527.854 25.4119 527.921 24.7187 528.293 23.8795C528.673 23.0198 529.213 22.3706 529.7 21.9542L537.498 31.0757ZM539.854 25.7557H551.854C551.854 20.3088 549.729 15.104 545.295 11.3142L537.498 20.4357L529.7 29.5571C529.213 29.1407 528.673 28.4915 528.293 27.6318C527.921 26.7927 527.854 26.0994 527.854 25.7557H539.854ZM537.498 20.4357L545.295 11.3142C540.791 7.46414 535.341 6.42166 530.734 6.42166V18.4217V30.4217C531.319 30.4217 531.425 30.4918 531.204 30.4262C530.946 30.3492 530.356 30.1171 529.7 29.5571L537.498 20.4357ZM530.734 18.4217V6.42166C526.127 6.42166 520.676 7.46414 516.172 11.3142L523.97 20.4357L531.767 29.5571C531.112 30.1171 530.522 30.3492 530.263 30.4262C530.043 30.4918 530.149 30.4217 530.734 30.4217V18.4217ZM523.97 20.4357L516.172 11.3142C511.739 15.104 509.614 20.3088 509.614 25.7557H521.614H533.614C533.614 26.0994 533.547 26.7927 533.175 27.6318C532.794 28.4915 532.254 29.1407 531.767 29.5571L523.97 20.4357ZM521.614 25.7557H509.614C509.614 31.2025 511.739 36.4073 516.172 40.1971L523.97 31.0757L531.767 21.9542C532.254 22.3706 532.794 23.0198 533.175 23.8795C533.547 24.7187 533.614 25.4119 533.614 25.7557H521.614ZM549.831 18.9157H537.831C537.831 25.5431 543.204 30.9157 549.831 30.9157V18.9157ZM549.831 12.4557V0.455662C543.204 0.455662 537.831 5.82825 537.831 12.4557L549.831 12.4557ZM580.155 12.4557H592.155C592.155 5.82825 586.783 0.455662 580.155 0.455662V12.4557ZM580.155 18.9157V30.9157C586.783 30.9157 592.155 25.5431 592.155 18.9157H580.155ZM568.945 18.9157V6.91566C562.318 6.91566 556.945 12.2882 556.945 18.9157H568.945ZM568.945 39.0557V51.0557C575.573 51.0557 580.945 45.6831 580.945 39.0557H568.945ZM561.041 39.0557H549.041C549.041 45.6831 554.414 51.0557 561.041 51.0557V39.0557ZM561.041 18.9157H573.041C573.041 12.2882 567.669 6.91566 561.041 6.91566V18.9157ZM549.831 18.9157H561.831V12.4557H549.831H537.831V18.9157H549.831ZM549.831 12.4557V24.4557H580.155V12.4557V0.455662H549.831V12.4557ZM580.155 12.4557H568.155V18.9157H580.155H592.155V12.4557H580.155ZM580.155 18.9157V6.91566H568.945V18.9157V30.9157H580.155V18.9157ZM568.945 18.9157H556.945V39.0557H568.945H580.945V18.9157H568.945ZM568.945 39.0557V27.0557H561.041V39.0557V51.0557H568.945V39.0557ZM561.041 39.0557H573.041V18.9157H561.041H549.041V39.0557H561.041ZM561.041 18.9157V6.91566H549.831V18.9157V30.9157H561.041V18.9157Z" fill="#282828" mask="url(#path-1-outside-1_655_890)"></path></svg>