<svg xmlns="http://www.w3.org/2000/svg" width="383" height="96" viewBox="0 0 383 96" fill="none"><mask id="path-1-outside-1_959_88" maskUnits="userSpaceOnUse" x="-0.334961" y="-0.944336" width="384" height="97" fill="black"><rect fill="white" x="-0.334961" y="-0.944336" width="384" height="97"></rect><path d="M107.538 12.4557V39.0557H99.6342V18.9157H84.5862V39.0557H76.6822V12.4557H107.538ZM117.094 35.8637C113.978 33.4317 112.42 30.0623 112.42 25.7557C112.42 21.449 113.978 18.0797 117.094 15.6477C120.21 13.2157 124.542 11.9997 130.09 11.9997C135.638 11.9997 139.97 13.2157 143.086 15.6477C146.202 18.0797 147.76 21.449 147.76 25.7557C147.76 30.0623 146.202 33.4317 143.086 35.8637C139.97 38.2957 135.638 39.5117 130.09 39.5117C124.542 39.5117 120.21 38.2957 117.094 35.8637ZM122.87 20.4357C121.173 21.753 120.324 23.5263 120.324 25.7557C120.324 27.985 121.173 29.771 122.87 31.1137C124.593 32.431 126.999 33.0897 130.09 33.0897C133.181 33.0897 135.575 32.431 137.272 31.1137C138.995 29.771 139.856 27.985 139.856 25.7557C139.856 23.5263 138.995 21.753 137.272 20.4357C135.575 19.093 133.181 18.4217 130.09 18.4217C126.999 18.4217 124.593 19.093 122.87 20.4357ZM173.247 12.4557H181.151V39.0557H173.247V29.4417C169.701 29.9737 166.559 30.2397 163.823 30.2397C159.795 30.2397 156.73 29.4923 154.627 27.9977C152.525 26.4777 151.473 24.3117 151.473 21.4997V12.4557H159.377V20.0557C159.377 21.4997 159.909 22.4877 160.973 23.0197C162.037 23.5263 163.76 23.7797 166.141 23.7797C168.573 23.7797 170.942 23.539 173.247 23.0577V12.4557ZM187.528 39.0557V12.4557H214.622V18.6117H195.432V22.6397H210.404V28.4157H195.432V32.8997H215.344V39.0557H187.528ZM248.036 12.4557H261.868L261.83 39.0557H254.268V16.7497L246.402 39.0557H235.724L227.858 16.7497V39.0557H220.296V12.4557H234.128L241.158 34.4197L248.036 12.4557ZM291.117 12.4557H299.667L290.395 30.2397C289.229 32.469 288.127 34.2043 287.089 35.4457C286.075 36.6617 284.834 37.6117 283.365 38.2957C281.895 38.9543 280.122 39.2837 278.045 39.2837C276.55 39.2837 274.827 39.1697 272.877 38.9417V32.7857C274.675 32.9377 276.107 33.0137 277.171 33.0137C279.476 33.0137 280.971 32.3677 281.655 31.0757H278.197L265.581 12.4557H274.397L284.087 27.9597L291.117 12.4557ZM30.5061 66.4497C36.9915 67.1083 40.2342 69.7557 40.2342 74.3917C40.2342 76.0383 39.8542 77.4697 39.0941 78.6857C38.3342 79.8763 37.2702 80.8263 35.9021 81.5357C34.5341 82.2197 33.0268 82.7263 31.3801 83.0557C29.7335 83.3597 27.9095 83.5117 25.9081 83.5117C22.0321 83.5117 18.8401 82.7897 16.3321 81.3457C13.8495 79.9017 12.4055 77.7737 12.0001 74.9617L19.4481 74.5817C20.1068 76.355 22.2601 77.2417 25.9081 77.2417C27.9601 77.2417 29.5815 77.001 30.7722 76.5197C31.9881 76.0383 32.5961 75.329 32.5961 74.3917C32.5961 73.5303 32.0388 72.8337 30.9242 72.3017C29.8348 71.7697 28.2008 71.5037 26.0221 71.5037C24.4515 71.5037 22.6021 71.681 20.4741 72.0357V67.0197L28.3401 62.7257H13.9001V56.4557H39.1702V62.0417L30.5061 66.4497ZM59.7976 56.4557C65.0163 56.4557 69.133 57.6083 72.1476 59.9137C75.1623 62.219 76.6696 65.4997 76.6696 69.7557C76.6696 74.0117 75.1623 77.2923 72.1476 79.5977C69.133 81.903 65.0163 83.0557 59.7976 83.0557H44.7496V56.4557H59.7976ZM58.9616 76.5957C62.179 76.5957 64.611 76.013 66.2576 74.8477C67.9296 73.657 68.7656 71.9597 68.7656 69.7557C68.7656 67.5517 67.9296 65.867 66.2576 64.7017C64.611 63.511 62.179 62.9157 58.9616 62.9157H52.6536V76.5957H58.9616ZM116.673 73.2517L124.349 73.6317C123.817 76.8743 122.208 79.3317 119.523 81.0037C116.863 82.6757 113.215 83.5117 108.579 83.5117C103.056 83.5117 98.7749 82.3083 95.7349 79.9017C92.6949 77.4697 91.1749 74.0877 91.1749 69.7557C91.1749 65.4237 92.6569 62.0543 95.6209 59.6477C98.5849 57.2157 102.74 55.9997 108.085 55.9997C112.468 55.9997 116.027 56.8483 118.763 58.5457C121.499 60.2177 123.171 62.4977 123.779 65.3857L116.179 65.8797C115.748 64.841 114.798 64.005 113.329 63.3717C111.86 62.7383 110.112 62.4217 108.085 62.4217C105.197 62.4217 102.968 63.093 101.397 64.4357C99.8516 65.753 99.0789 67.5263 99.0789 69.7557C99.0789 72.0103 99.8896 73.7963 101.511 75.1137C103.158 76.431 105.514 77.0897 108.579 77.0897C110.783 77.0897 112.569 76.735 113.937 76.0257C115.33 75.3163 116.242 74.3917 116.673 73.2517ZM126.04 62.9157V56.4557H156.364V62.9157H145.154V83.0557H137.25V62.9157H126.04ZM180.407 56.4557H192.567V83.0557H184.853V62.0417L172.617 83.0557H160.457V56.4557H168.171V77.4697L180.407 56.4557ZM230.859 83.0557H220.865L210.757 72.7577H206.843V83.0557H198.939V56.4557H206.843V66.7157H210.605L220.219 56.4557H229.681L216.875 69.2237L230.859 83.0557ZM234.49 83.0557V56.4557H261.584V62.6117H242.394V66.6397H257.366V72.4157H242.394V76.8997H262.306V83.0557H234.49ZM285.687 56.4557C288.879 56.4557 291.514 57.203 293.591 58.6977C295.694 60.167 296.745 62.409 296.745 65.4237C296.745 68.4383 295.745 70.6297 293.743 71.9977C291.742 73.3403 289.057 74.0117 285.687 74.0117H275.161V83.0557H267.257V56.4557H275.161H285.687ZM285.307 67.9317C287.663 67.9317 288.841 67.0957 288.841 65.4237C288.841 63.7517 287.663 62.9157 285.307 62.9157H275.161V67.9317H285.307ZM318.69 65.4997C322.009 65.4997 324.681 66.209 326.708 67.6277C328.735 69.0463 329.748 71.2757 329.748 74.3157C329.748 77.3303 328.735 79.547 326.708 80.9657C324.707 82.359 322.034 83.0557 318.69 83.0557H304.63H301.324V56.4557H309.228V65.4997H318.69ZM333.662 56.4557H341.566V83.0557H333.662V56.4557ZM318.31 76.5957C320.666 76.5957 321.844 75.785 321.844 74.1637C321.844 72.5423 320.666 71.7317 318.31 71.7317H309.228V76.5957H318.31ZM345.349 65.3477C345.704 62.2063 347.085 59.863 349.491 58.3177C351.898 56.7723 354.976 55.9997 358.725 55.9997C362.221 55.9997 365.122 56.633 367.427 57.8997C369.758 59.1663 370.923 61.041 370.923 63.5237C370.923 65.0183 370.442 66.285 369.479 67.3237C368.517 68.3623 367.022 69.325 364.995 70.2117C363.501 70.8703 362.5 71.377 361.993 71.7317C361.487 72.0863 361.233 72.4917 361.233 72.9477V73.1377H354.051V72.6437C354.051 71.2757 354.355 70.1737 354.963 69.3377C355.571 68.5017 356.737 67.7797 358.459 67.1717C359.321 66.8677 359.929 66.6523 360.283 66.5257C360.638 66.3737 361.119 66.1457 361.727 65.8417C362.361 65.5377 362.804 65.2463 363.057 64.9677C363.311 64.689 363.437 64.385 363.437 64.0557C363.437 63.4477 362.969 62.9537 362.031 62.5737C361.119 62.1937 360.017 62.0037 358.725 62.0037C357.028 62.0037 355.635 62.333 354.545 62.9917C353.456 63.6503 352.772 64.5623 352.493 65.7277L345.349 65.3477ZM353.519 83.0557V75.7597H361.765V83.0557H353.519Z"></path></mask><path d="M107.538 12.4557V39.0557H99.6342V18.9157H84.5862V39.0557H76.6822V12.4557H107.538ZM117.094 35.8637C113.978 33.4317 112.42 30.0623 112.42 25.7557C112.42 21.449 113.978 18.0797 117.094 15.6477C120.21 13.2157 124.542 11.9997 130.09 11.9997C135.638 11.9997 139.97 13.2157 143.086 15.6477C146.202 18.0797 147.76 21.449 147.76 25.7557C147.76 30.0623 146.202 33.4317 143.086 35.8637C139.97 38.2957 135.638 39.5117 130.09 39.5117C124.542 39.5117 120.21 38.2957 117.094 35.8637ZM122.87 20.4357C121.173 21.753 120.324 23.5263 120.324 25.7557C120.324 27.985 121.173 29.771 122.87 31.1137C124.593 32.431 126.999 33.0897 130.09 33.0897C133.181 33.0897 135.575 32.431 137.272 31.1137C138.995 29.771 139.856 27.985 139.856 25.7557C139.856 23.5263 138.995 21.753 137.272 20.4357C135.575 19.093 133.181 18.4217 130.09 18.4217C126.999 18.4217 124.593 19.093 122.87 20.4357ZM173.247 12.4557H181.151V39.0557H173.247V29.4417C169.701 29.9737 166.559 30.2397 163.823 30.2397C159.795 30.2397 156.73 29.4923 154.627 27.9977C152.525 26.4777 151.473 24.3117 151.473 21.4997V12.4557H159.377V20.0557C159.377 21.4997 159.909 22.4877 160.973 23.0197C162.037 23.5263 163.76 23.7797 166.141 23.7797C168.573 23.7797 170.942 23.539 173.247 23.0577V12.4557ZM187.528 39.0557V12.4557H214.622V18.6117H195.432V22.6397H210.404V28.4157H195.432V32.8997H215.344V39.0557H187.528ZM248.036 12.4557H261.868L261.83 39.0557H254.268V16.7497L246.402 39.0557H235.724L227.858 16.7497V39.0557H220.296V12.4557H234.128L241.158 34.4197L248.036 12.4557ZM291.117 12.4557H299.667L290.395 30.2397C289.229 32.469 288.127 34.2043 287.089 35.4457C286.075 36.6617 284.834 37.6117 283.365 38.2957C281.895 38.9543 280.122 39.2837 278.045 39.2837C276.55 39.2837 274.827 39.1697 272.877 38.9417V32.7857C274.675 32.9377 276.107 33.0137 277.171 33.0137C279.476 33.0137 280.971 32.3677 281.655 31.0757H278.197L265.581 12.4557H274.397L284.087 27.9597L291.117 12.4557ZM30.5061 66.4497C36.9915 67.1083 40.2342 69.7557 40.2342 74.3917C40.2342 76.0383 39.8542 77.4697 39.0941 78.6857C38.3342 79.8763 37.2702 80.8263 35.9021 81.5357C34.5341 82.2197 33.0268 82.7263 31.3801 83.0557C29.7335 83.3597 27.9095 83.5117 25.9081 83.5117C22.0321 83.5117 18.8401 82.7897 16.3321 81.3457C13.8495 79.9017 12.4055 77.7737 12.0001 74.9617L19.4481 74.5817C20.1068 76.355 22.2601 77.2417 25.9081 77.2417C27.9601 77.2417 29.5815 77.001 30.7722 76.5197C31.9881 76.0383 32.5961 75.329 32.5961 74.3917C32.5961 73.5303 32.0388 72.8337 30.9242 72.3017C29.8348 71.7697 28.2008 71.5037 26.0221 71.5037C24.4515 71.5037 22.6021 71.681 20.4741 72.0357V67.0197L28.3401 62.7257H13.9001V56.4557H39.1702V62.0417L30.5061 66.4497ZM59.7976 56.4557C65.0163 56.4557 69.133 57.6083 72.1476 59.9137C75.1623 62.219 76.6696 65.4997 76.6696 69.7557C76.6696 74.0117 75.1623 77.2923 72.1476 79.5977C69.133 81.903 65.0163 83.0557 59.7976 83.0557H44.7496V56.4557H59.7976ZM58.9616 76.5957C62.179 76.5957 64.611 76.013 66.2576 74.8477C67.9296 73.657 68.7656 71.9597 68.7656 69.7557C68.7656 67.5517 67.9296 65.867 66.2576 64.7017C64.611 63.511 62.179 62.9157 58.9616 62.9157H52.6536V76.5957H58.9616ZM116.673 73.2517L124.349 73.6317C123.817 76.8743 122.208 79.3317 119.523 81.0037C116.863 82.6757 113.215 83.5117 108.579 83.5117C103.056 83.5117 98.7749 82.3083 95.7349 79.9017C92.6949 77.4697 91.1749 74.0877 91.1749 69.7557C91.1749 65.4237 92.6569 62.0543 95.6209 59.6477C98.5849 57.2157 102.74 55.9997 108.085 55.9997C112.468 55.9997 116.027 56.8483 118.763 58.5457C121.499 60.2177 123.171 62.4977 123.779 65.3857L116.179 65.8797C115.748 64.841 114.798 64.005 113.329 63.3717C111.86 62.7383 110.112 62.4217 108.085 62.4217C105.197 62.4217 102.968 63.093 101.397 64.4357C99.8516 65.753 99.0789 67.5263 99.0789 69.7557C99.0789 72.0103 99.8896 73.7963 101.511 75.1137C103.158 76.431 105.514 77.0897 108.579 77.0897C110.783 77.0897 112.569 76.735 113.937 76.0257C115.33 75.3163 116.242 74.3917 116.673 73.2517ZM126.04 62.9157V56.4557H156.364V62.9157H145.154V83.0557H137.25V62.9157H126.04ZM180.407 56.4557H192.567V83.0557H184.853V62.0417L172.617 83.0557H160.457V56.4557H168.171V77.4697L180.407 56.4557ZM230.859 83.0557H220.865L210.757 72.7577H206.843V83.0557H198.939V56.4557H206.843V66.7157H210.605L220.219 56.4557H229.681L216.875 69.2237L230.859 83.0557ZM234.49 83.0557V56.4557H261.584V62.6117H242.394V66.6397H257.366V72.4157H242.394V76.8997H262.306V83.0557H234.49ZM285.687 56.4557C288.879 56.4557 291.514 57.203 293.591 58.6977C295.694 60.167 296.745 62.409 296.745 65.4237C296.745 68.4383 295.745 70.6297 293.743 71.9977C291.742 73.3403 289.057 74.0117 285.687 74.0117H275.161V83.0557H267.257V56.4557H275.161H285.687ZM285.307 67.9317C287.663 67.9317 288.841 67.0957 288.841 65.4237C288.841 63.7517 287.663 62.9157 285.307 62.9157H275.161V67.9317H285.307ZM318.69 65.4997C322.009 65.4997 324.681 66.209 326.708 67.6277C328.735 69.0463 329.748 71.2757 329.748 74.3157C329.748 77.3303 328.735 79.547 326.708 80.9657C324.707 82.359 322.034 83.0557 318.69 83.0557H304.63H301.324V56.4557H309.228V65.4997H318.69ZM333.662 56.4557H341.566V83.0557H333.662V56.4557ZM318.31 76.5957C320.666 76.5957 321.844 75.785 321.844 74.1637C321.844 72.5423 320.666 71.7317 318.31 71.7317H309.228V76.5957H318.31ZM345.349 65.3477C345.704 62.2063 347.085 59.863 349.491 58.3177C351.898 56.7723 354.976 55.9997 358.725 55.9997C362.221 55.9997 365.122 56.633 367.427 57.8997C369.758 59.1663 370.923 61.041 370.923 63.5237C370.923 65.0183 370.442 66.285 369.479 67.3237C368.517 68.3623 367.022 69.325 364.995 70.2117C363.501 70.8703 362.5 71.377 361.993 71.7317C361.487 72.0863 361.233 72.4917 361.233 72.9477V73.1377H354.051V72.6437C354.051 71.2757 354.355 70.1737 354.963 69.3377C355.571 68.5017 356.737 67.7797 358.459 67.1717C359.321 66.8677 359.929 66.6523 360.283 66.5257C360.638 66.3737 361.119 66.1457 361.727 65.8417C362.361 65.5377 362.804 65.2463 363.057 64.9677C363.311 64.689 363.437 64.385 363.437 64.0557C363.437 63.4477 362.969 62.9537 362.031 62.5737C361.119 62.1937 360.017 62.0037 358.725 62.0037C357.028 62.0037 355.635 62.333 354.545 62.9917C353.456 63.6503 352.772 64.5623 352.493 65.7277L345.349 65.3477ZM353.519 83.0557V75.7597H361.765V83.0557H353.519Z" fill="white"></path><path d="M107.538 12.4557H119.538C119.538 5.82825 114.166 0.455662 107.538 0.455662V12.4557ZM107.538 39.0557V51.0557C114.166 51.0557 119.538 45.6831 119.538 39.0557H107.538ZM99.6342 39.0557H87.6342C87.6342 45.6831 93.0068 51.0557 99.6342 51.0557V39.0557ZM99.6342 18.9157H111.634C111.634 12.2882 106.262 6.91566 99.6342 6.91566V18.9157ZM84.5862 18.9157V6.91566C77.9588 6.91566 72.5862 12.2882 72.5862 18.9157L84.5862 18.9157ZM84.5862 39.0557V51.0557C91.2137 51.0557 96.5862 45.6831 96.5862 39.0557H84.5862ZM76.6822 39.0557H64.6822C64.6822 45.6831 70.0548 51.0557 76.6822 51.0557V39.0557ZM76.6822 12.4557V0.455662C70.0548 0.455662 64.6822 5.82825 64.6822 12.4557L76.6822 12.4557ZM107.538 12.4557H95.5382V39.0557H107.538H119.538V12.4557H107.538ZM107.538 39.0557V27.0557H99.6342V39.0557V51.0557H107.538V39.0557ZM99.6342 39.0557H111.634V18.9157H99.6342H87.6342V39.0557H99.6342ZM99.6342 18.9157V6.91566H84.5862V18.9157V30.9157H99.6342V18.9157ZM84.5862 18.9157H72.5862V39.0557H84.5862H96.5862V18.9157H84.5862ZM84.5862 39.0557V27.0557H76.6822V39.0557V51.0557H84.5862V39.0557ZM76.6822 39.0557H88.6822V12.4557H76.6822H64.6822V39.0557H76.6822ZM76.6822 12.4557V24.4557H107.538V12.4557V0.455662H76.6822V12.4557ZM117.094 35.8637L124.477 26.4039L124.477 26.4039L117.094 35.8637ZM117.094 15.6477L109.711 6.18787L109.711 6.18787L117.094 15.6477ZM143.086 15.6477L150.469 6.18787L150.469 6.18787L143.086 15.6477ZM143.086 35.8637L135.703 26.4039L135.703 26.4039L143.086 35.8637ZM122.87 20.4357L130.228 29.9155C130.234 29.9105 130.24 29.9054 130.247 29.9004L122.87 20.4357ZM122.87 31.1137L115.425 40.5251C115.477 40.5658 115.529 40.6061 115.581 40.646L122.87 31.1137ZM137.272 31.1137L144.63 40.5935C144.636 40.5885 144.642 40.5834 144.649 40.5784L137.272 31.1137ZM137.272 20.4357L129.827 29.8471C129.879 29.8878 129.931 29.9281 129.983 29.968L137.272 20.4357ZM117.094 35.8637L124.477 26.4039C124.38 26.3278 124.366 26.3013 124.394 26.3353C124.423 26.3717 124.457 26.4245 124.48 26.4762C124.503 26.5254 124.492 26.5186 124.472 26.4229C124.452 26.3225 124.42 26.1092 124.42 25.7557H112.42H100.42C100.42 33.3781 103.394 40.3933 109.711 45.3235L117.094 35.8637ZM112.42 25.7557H124.42C124.42 25.4021 124.452 25.1889 124.472 25.0884C124.492 24.9927 124.503 24.9859 124.48 25.0351C124.457 25.0868 124.423 25.1396 124.394 25.1761C124.366 25.21 124.38 25.1835 124.477 25.1075L117.094 15.6477L109.711 6.18787C103.394 11.118 100.42 18.1333 100.42 25.7557H112.42ZM117.094 15.6477L124.477 25.1075C124.779 24.8716 126.16 23.9997 130.09 23.9997V11.9997V-0.000336409C122.924 -0.000336409 115.641 1.5597 109.711 6.18787L117.094 15.6477ZM130.09 11.9997V23.9997C134.02 23.9997 135.401 24.8716 135.703 25.1075L143.086 15.6477L150.469 6.18787C144.539 1.5597 137.256 -0.000336409 130.09 -0.000336409V11.9997ZM143.086 15.6477L135.703 25.1075C135.8 25.1835 135.814 25.21 135.786 25.1761C135.757 25.1396 135.724 25.0868 135.7 25.0351C135.677 24.9859 135.688 24.9927 135.708 25.0884C135.728 25.1889 135.76 25.4021 135.76 25.7557H147.76H159.76C159.76 18.1333 156.786 11.118 150.469 6.18787L143.086 15.6477ZM147.76 25.7557H135.76C135.76 26.1092 135.728 26.3225 135.708 26.4229C135.688 26.5186 135.677 26.5254 135.7 26.4762C135.724 26.4245 135.757 26.3717 135.786 26.3353C135.814 26.3013 135.8 26.3278 135.703 26.4039L143.086 35.8637L150.469 45.3235C156.786 40.3933 159.76 33.3781 159.76 25.7557H147.76ZM143.086 35.8637L135.703 26.4039C135.401 26.6397 134.02 27.5117 130.09 27.5117V39.5117V51.5117C137.256 51.5117 144.539 49.9516 150.469 45.3235L143.086 35.8637ZM130.09 39.5117V27.5117C126.16 27.5117 124.779 26.6397 124.477 26.4039L117.094 35.8637L109.711 45.3235C115.641 49.9516 122.924 51.5117 130.09 51.5117V39.5117ZM122.87 20.4357L115.513 10.9558C110.76 14.6441 108.324 19.9813 108.324 25.7557H120.324H132.324C132.324 26.1928 132.232 26.9991 131.785 27.9339C131.331 28.8827 130.714 29.5382 130.228 29.9155L122.87 20.4357ZM120.324 25.7557H108.324C108.324 31.525 110.751 36.8279 115.425 40.5251L122.87 31.1137L130.315 21.7023C130.771 22.0628 131.361 22.6957 131.799 23.6169C132.232 24.5272 132.324 25.3168 132.324 25.7557H120.324ZM122.87 31.1137L115.581 40.646C120.122 44.1185 125.453 45.0897 130.09 45.0897V33.0897V21.0897C129.74 21.0897 129.49 21.0709 129.328 21.0514C129.166 21.0319 129.108 21.0139 129.135 21.0213C129.164 21.0292 129.284 21.0648 129.47 21.1537C129.659 21.2439 129.898 21.3815 130.159 21.5814L122.87 31.1137ZM130.09 33.0897V45.0897C134.712 45.0897 140.08 44.1246 144.63 40.5935L137.272 31.1137L129.915 21.6338C130.485 21.1912 130.936 21.0488 131.02 21.0256C131.056 21.0157 131.005 21.0327 130.847 21.0518C130.688 21.0708 130.44 21.0897 130.09 21.0897V33.0897ZM137.272 31.1137L144.649 40.5784C149.359 36.9074 151.856 31.5942 151.856 25.7557H139.856H127.856C127.856 25.2912 127.955 24.4792 128.401 23.5545C128.851 22.622 129.451 21.9954 129.895 21.6489L137.272 31.1137ZM139.856 25.7557H151.856C151.856 19.9113 149.349 14.5646 144.561 10.9034L137.272 20.4357L129.983 29.968C129.508 29.6052 128.882 28.9565 128.416 27.9965C127.955 27.0472 127.856 26.2184 127.856 25.7557H139.856ZM137.272 20.4357L144.717 11.0243C140.159 7.41867 134.755 6.42166 130.09 6.42166V18.4217V30.4217C130.794 30.4217 131.04 30.501 130.963 30.4795C130.857 30.4495 130.396 30.2971 129.827 29.8471L137.272 20.4357ZM130.09 18.4217V6.42166C125.41 6.42166 120.043 7.42465 115.493 10.9709L122.87 20.4357L130.247 29.9004C129.987 30.1031 129.745 30.2451 129.551 30.3401C129.359 30.4336 129.23 30.4731 129.191 30.4839C129.154 30.4942 129.202 30.4777 129.355 30.459C129.508 30.4404 129.749 30.4217 130.09 30.4217V18.4217ZM173.247 12.4557V0.455662C166.62 0.455662 161.247 5.82825 161.247 12.4557L173.247 12.4557ZM181.151 12.4557H193.151C193.151 5.82825 187.779 0.455662 181.151 0.455662V12.4557ZM181.151 39.0557V51.0557C187.779 51.0557 193.151 45.6831 193.151 39.0557H181.151ZM173.247 39.0557H161.247C161.247 45.6831 166.62 51.0557 173.247 51.0557V39.0557ZM173.247 29.4417H185.247C185.247 25.9483 183.725 22.6284 181.078 20.3488C178.431 18.0692 174.922 17.0562 171.467 17.5744L173.247 29.4417ZM154.627 27.9977L147.597 37.7227C147.623 37.7414 147.649 37.7599 147.675 37.7784L154.627 27.9977ZM151.473 12.4557V0.455662C144.846 0.455662 139.473 5.82825 139.473 12.4557L151.473 12.4557ZM159.377 12.4557H171.377C171.377 5.82825 166.005 0.455662 159.377 0.455662V12.4557ZM160.973 23.0197L155.607 33.7528C155.676 33.7872 155.745 33.8209 155.814 33.854L160.973 23.0197ZM173.247 23.0577L175.7 34.8044C181.262 33.643 185.247 28.7398 185.247 23.0577H173.247ZM173.247 12.4557V24.4557H181.151V12.4557V0.455662H173.247V12.4557ZM181.151 12.4557H169.151V39.0557H181.151H193.151V12.4557H181.151ZM181.151 39.0557V27.0557H173.247V39.0557V51.0557H181.151V39.0557ZM173.247 39.0557H185.247V29.4417H173.247H161.247V39.0557H173.247ZM173.247 29.4417L171.467 17.5744C168.34 18.0435 165.813 18.2397 163.823 18.2397V30.2397V42.2397C167.305 42.2397 171.061 41.9038 175.027 41.3089L173.247 29.4417ZM163.823 30.2397V18.2397C162.518 18.2397 161.733 18.1151 161.346 18.0206C160.97 17.9291 161.15 17.9113 161.58 18.217L154.627 27.9977L147.675 37.7784C152.659 41.3215 158.604 42.2397 163.823 42.2397V30.2397ZM154.627 27.9977L161.658 18.2726C162.084 18.5812 162.651 19.1563 163.057 19.9932C163.447 20.7961 163.473 21.394 163.473 21.4997H151.473H139.473C139.473 27.7864 142.08 33.7344 147.597 37.7227L154.627 27.9977ZM151.473 21.4997H163.473V12.4557H151.473H139.473V21.4997H151.473ZM151.473 12.4557V24.4557H159.377V12.4557V0.455662H151.473V12.4557ZM159.377 12.4557H147.377V20.0557H159.377H171.377V12.4557H159.377ZM159.377 20.0557H147.377C147.377 22.2093 147.771 24.8959 149.211 27.5689C150.721 30.3741 153.004 32.4515 155.607 33.7528L160.973 23.0197L166.34 12.2865C167.878 13.0558 169.363 14.3732 170.342 16.1905C171.249 17.8754 171.377 19.346 171.377 20.0557H159.377ZM160.973 23.0197L155.814 33.854C159.427 35.5744 163.434 35.7797 166.141 35.7797V23.7797V11.7797C165.755 11.7797 165.45 11.7693 165.218 11.755C164.984 11.7405 164.853 11.7238 164.809 11.7174C164.761 11.7103 164.854 11.7208 165.052 11.775C165.155 11.8031 165.299 11.8462 165.476 11.9101C165.653 11.9739 165.876 12.0629 166.133 12.1853L160.973 23.0197ZM166.141 23.7797V35.7797C169.371 35.7797 172.562 35.4595 175.7 34.8044L173.247 23.0577L170.795 11.311C169.322 11.6185 167.776 11.7797 166.141 11.7797V23.7797ZM173.247 23.0577H185.247V12.4557H173.247H161.247V23.0577H173.247ZM187.528 39.0557H175.528C175.528 45.6831 180.901 51.0557 187.528 51.0557V39.0557ZM187.528 12.4557V0.455662C180.901 0.455662 175.528 5.82825 175.528 12.4557L187.528 12.4557ZM214.622 12.4557H226.622C226.622 5.82825 221.249 0.455662 214.622 0.455662V12.4557ZM214.622 18.6117V30.6117C221.249 30.6117 226.622 25.2391 226.622 18.6117L214.622 18.6117ZM195.432 18.6117V6.61166C188.805 6.61166 183.432 11.9842 183.432 18.6117L195.432 18.6117ZM195.432 22.6397H183.432C183.432 29.2671 188.805 34.6397 195.432 34.6397V22.6397ZM210.404 22.6397H222.404C222.404 16.0122 217.031 10.6397 210.404 10.6397V22.6397ZM210.404 28.4157V40.4157C217.031 40.4157 222.404 35.0431 222.404 28.4157L210.404 28.4157ZM195.432 28.4157V16.4157C188.805 16.4157 183.432 21.7882 183.432 28.4157L195.432 28.4157ZM195.432 32.8997H183.432C183.432 39.5271 188.805 44.8997 195.432 44.8997V32.8997ZM215.344 32.8997H227.344C227.344 26.2722 221.971 20.8997 215.344 20.8997V32.8997ZM215.344 39.0557V51.0557C221.971 51.0557 227.344 45.6831 227.344 39.0557H215.344ZM187.528 39.0557H199.528V12.4557H187.528H175.528V39.0557H187.528ZM187.528 12.4557V24.4557H214.622V12.4557V0.455662H187.528V12.4557ZM214.622 12.4557H202.622V18.6117H214.622H226.622V12.4557H214.622ZM214.622 18.6117V6.61166H195.432V18.6117V30.6117H214.622V18.6117ZM195.432 18.6117H183.432V22.6397H195.432H207.432V18.6117H195.432ZM195.432 22.6397V34.6397H210.404V22.6397V10.6397H195.432V22.6397ZM210.404 22.6397H198.404V28.4157H210.404H222.404V22.6397H210.404ZM210.404 28.4157V16.4157H195.432V28.4157V40.4157H210.404V28.4157ZM195.432 28.4157H183.432V32.8997H195.432H207.432V28.4157H195.432ZM195.432 32.8997V44.8997H215.344V32.8997V20.8997H195.432V32.8997ZM215.344 32.8997H203.344V39.0557H215.344H227.344V32.8997H215.344ZM215.344 39.0557V27.0557H187.528V39.0557V51.0557H215.344V39.0557ZM248.036 12.4557V0.455662C242.79 0.455662 238.152 3.86332 236.584 8.86959L248.036 12.4557ZM261.868 12.4557L273.868 12.4728C273.872 9.28724 272.61 6.23059 270.359 3.97644C268.108 1.7223 265.053 0.455662 261.868 0.455662V12.4557ZM261.83 39.0557V51.0557C268.45 51.0557 273.82 45.6935 273.83 39.0728L261.83 39.0557ZM254.268 39.0557H242.268C242.268 45.6831 247.64 51.0557 254.268 51.0557V39.0557ZM254.268 16.7497H266.268C266.268 10.9034 262.054 5.90794 256.292 4.92166C250.529 3.93538 244.895 7.24535 242.951 12.7588L254.268 16.7497ZM246.402 39.0557V51.0557C251.49 51.0557 256.026 47.8458 257.718 43.0465L246.402 39.0557ZM235.724 39.0557L224.407 43.0465C226.099 47.8458 230.635 51.0557 235.724 51.0557V39.0557ZM227.858 16.7497L239.174 12.7588C237.23 7.24535 231.596 3.93538 225.833 4.92166C220.071 5.90794 215.858 10.9034 215.858 16.7497L227.858 16.7497ZM227.858 39.0557V51.0557C234.485 51.0557 239.858 45.6831 239.858 39.0557H227.858ZM220.296 39.0557H208.296C208.296 45.6831 213.668 51.0557 220.296 51.0557V39.0557ZM220.296 12.4557V0.455662C213.668 0.455662 208.296 5.82825 208.296 12.4557L220.296 12.4557ZM234.128 12.4557L245.556 8.79764C243.966 3.82784 239.346 0.455662 234.128 0.455662V12.4557ZM241.158 34.4197L229.729 38.0777C231.324 43.0607 235.963 46.4361 241.195 46.4196C246.427 46.4031 251.046 42.9987 252.609 38.0057L241.158 34.4197ZM248.036 12.4557V24.4557H261.868V12.4557V0.455662H248.036V12.4557ZM261.868 12.4557L249.868 12.4385L249.83 39.0385L261.83 39.0557L273.83 39.0728L273.868 12.4728L261.868 12.4557ZM261.83 39.0557V27.0557H254.268V39.0557V51.0557H261.83V39.0557ZM254.268 39.0557H266.268V16.7497H254.268H242.268V39.0557H254.268ZM254.268 16.7497L242.951 12.7588L235.085 35.0648L246.402 39.0557L257.718 43.0465L265.584 20.7405L254.268 16.7497ZM246.402 39.0557V27.0557H235.724V39.0557V51.0557H246.402V39.0557ZM235.724 39.0557L247.04 35.0648L239.174 12.7588L227.858 16.7497L216.541 20.7405L224.407 43.0465L235.724 39.0557ZM227.858 16.7497H215.858V39.0557H227.858H239.858V16.7497H227.858ZM227.858 39.0557V27.0557H220.296V39.0557V51.0557H227.858V39.0557ZM220.296 39.0557H232.296V12.4557H220.296H208.296V39.0557H220.296ZM220.296 12.4557V24.4557H234.128V12.4557V0.455662H220.296V12.4557ZM234.128 12.4557L222.699 16.1137L229.729 38.0777L241.158 34.4197L252.586 30.7616L245.556 8.79764L234.128 12.4557ZM241.158 34.4197L252.609 38.0057L259.487 16.0417L248.036 12.4557L236.584 8.86959L229.706 30.8336L241.158 34.4197ZM291.117 12.4557V0.455662C286.407 0.455662 282.133 3.21074 280.188 7.50012L291.117 12.4557ZM299.667 12.4557L310.307 18.0033C312.247 14.2834 312.103 9.82077 309.928 6.23361C307.753 2.64646 303.862 0.455662 299.667 0.455662V12.4557ZM290.395 30.2397L301.03 35.7987L301.035 35.7873L290.395 30.2397ZM287.089 35.4457L277.886 27.745C277.88 27.7511 277.875 27.7573 277.87 27.7634L287.089 35.4457ZM283.365 38.2957L288.274 49.2458C288.326 49.2224 288.377 49.1987 288.429 49.1746L283.365 38.2957ZM272.877 38.9417H260.877C260.877 45.0301 265.436 50.1537 271.484 50.8605L272.877 38.9417ZM272.877 32.7857L273.887 20.8283C270.541 20.5455 267.229 21.6779 264.757 23.9503C262.284 26.2228 260.877 29.4274 260.877 32.7857H272.877ZM281.655 31.0757L292.26 36.6903C294.229 32.9708 294.106 28.4915 291.935 24.886C289.764 21.2804 285.863 19.0757 281.655 19.0757V31.0757ZM278.197 31.0757L268.262 37.8067C270.495 41.102 274.216 43.0757 278.197 43.0757V31.0757ZM265.581 12.4557V0.455662C261.139 0.455662 257.061 2.90911 254.98 6.83307C252.898 10.757 253.155 15.5096 255.646 19.1867L265.581 12.4557ZM274.397 12.4557L284.573 6.09567C282.38 2.5871 278.534 0.455662 274.397 0.455662V12.4557ZM284.087 27.9597L273.911 34.3197C276.255 38.0697 280.471 40.2268 284.884 39.9332C289.296 39.6395 293.19 36.9428 295.016 32.9152L284.087 27.9597ZM291.117 12.4557V24.4557H299.667V12.4557V0.455662H291.117V12.4557ZM299.667 12.4557L289.026 6.90798L279.754 24.692L290.395 30.2397L301.035 35.7873L310.307 18.0033L299.667 12.4557ZM290.395 30.2397L279.76 24.6806C278.8 26.517 278.156 27.4218 277.886 27.745L287.089 35.4457L296.292 43.1463C298.099 40.9869 299.659 38.421 301.03 35.7987L290.395 30.2397ZM287.089 35.4457L277.87 27.7634C277.927 27.6947 278.008 27.6147 278.105 27.5406C278.201 27.4671 278.275 27.4287 278.3 27.4167L283.365 38.2957L288.429 49.1746C291.462 47.7626 294.134 45.7357 296.307 43.1279L287.089 35.4457ZM283.365 38.2957L278.456 27.3456C278.687 27.242 278.802 27.2271 278.742 27.2384C278.677 27.2505 278.456 27.2837 278.045 27.2837V39.2837V51.2837C281.343 51.2837 284.881 50.7663 288.274 49.2458L283.365 38.2957ZM278.045 39.2837V27.2837C277.134 27.2837 275.893 27.2125 274.27 27.0228L272.877 38.9417L271.484 50.8605C273.762 51.1269 275.967 51.2837 278.045 51.2837V39.2837ZM272.877 38.9417H284.877V32.7857H272.877H260.877V38.9417H272.877ZM272.877 32.7857L271.866 44.743C273.805 44.9069 275.618 45.0137 277.171 45.0137V33.0137V21.0137C276.596 21.0137 275.546 20.9685 273.887 20.8283L272.877 32.7857ZM277.171 33.0137V45.0137C281.148 45.0137 288.459 43.87 292.26 36.6903L281.655 31.0757L271.049 25.461C272.131 23.4185 273.804 22.1432 275.26 21.514C276.504 20.9765 277.317 21.0137 277.171 21.0137V33.0137ZM281.655 31.0757V19.0757H278.197V31.0757V43.0757H281.655V31.0757ZM278.197 31.0757L288.131 24.3446L275.515 5.72459L265.581 12.4557L255.646 19.1867L268.262 37.8067L278.197 31.0757ZM265.581 12.4557V24.4557H274.397V12.4557V0.455662H265.581V12.4557ZM274.397 12.4557L264.221 18.8156L273.911 34.3197L284.087 27.9597L294.263 21.5997L284.573 6.09567L274.397 12.4557ZM284.087 27.9597L295.016 32.9152L302.046 17.4112L291.117 12.4557L280.188 7.50012L273.158 23.0041L284.087 27.9597ZM30.5061 66.4497L25.0647 55.7543C20.3196 58.1685 17.7325 63.4203 18.7103 68.6536C19.6881 73.8869 23.997 77.8503 29.2936 78.3882L30.5061 66.4497ZM39.0941 78.6857L49.2092 85.1421C49.2297 85.11 49.25 85.0779 49.2701 85.0457L39.0941 78.6857ZM35.9021 81.5357L41.2687 92.2688C41.3213 92.2425 41.3737 92.2158 41.426 92.1887L35.9021 81.5357ZM31.3801 83.0557L33.5587 94.8563C33.6171 94.8455 33.6754 94.8343 33.7335 94.8226L31.3801 83.0557ZM16.3321 81.3457L10.2989 91.7187C10.3141 91.7275 10.3293 91.7363 10.3446 91.7451L16.3321 81.3457ZM12.0001 74.9617L11.3887 62.9773C8.01838 63.1492 4.87624 64.7324 2.73246 67.3387C0.588683 69.945 -0.358564 73.3335 0.122904 76.6737L12.0001 74.9617ZM19.4481 74.5817L30.6973 70.4034C28.8725 65.4906 24.0706 62.3302 18.8367 62.5973L19.4481 74.5817ZM30.7722 76.5197L26.3556 65.362C26.3286 65.3727 26.3016 65.3835 26.2747 65.3943L30.7722 76.5197ZM30.9242 72.3017L25.6581 83.0845C25.6905 83.1003 25.7229 83.1159 25.7554 83.1314L30.9242 72.3017ZM20.4741 72.0357H8.47415C8.47415 75.5631 10.0262 78.9119 12.7177 81.1919C15.4091 83.4719 18.9675 84.4523 22.4469 83.8724L20.4741 72.0357ZM20.4741 67.0197L14.7244 56.4869C10.8712 58.5903 8.47415 62.6298 8.47415 67.0197H20.4741ZM28.3401 62.7257L34.0899 73.2585C38.904 70.6305 41.3237 65.073 39.9676 59.7586C38.6115 54.4443 33.8248 50.7257 28.3401 50.7257L28.3401 62.7257ZM13.9001 62.7257H1.90015C1.90015 69.3531 7.27273 74.7257 13.9001 74.7257L13.9001 62.7257ZM13.9001 56.4557V44.4557C7.27273 44.4557 1.90015 49.8282 1.90015 56.4557H13.9001ZM39.1702 56.4557H51.1702C51.1702 49.8282 45.7976 44.4557 39.1702 44.4557V56.4557ZM39.1702 62.0417L44.6116 72.737C48.6358 70.6896 51.1702 66.5567 51.1702 62.0417H39.1702ZM30.5061 66.4497L29.2936 78.3882C30.2417 78.4845 30.7364 78.6225 30.9009 78.6784C31.0588 78.732 30.7318 78.6482 30.2132 78.2247C29.6444 77.7604 29.0603 77.0595 28.6636 76.1683C28.2824 75.3121 28.2342 74.6425 28.2342 74.3917H40.2342H52.2342C52.2342 68.9094 50.1274 63.5003 45.3911 59.6336C41.196 56.2087 36.0964 54.9557 31.7187 54.5111L30.5061 66.4497ZM40.2342 74.3917H28.2342C28.2342 74.2901 28.2463 74.015 28.3509 73.621C28.4583 73.2164 28.6423 72.7671 28.9182 72.3257L39.0941 78.6857L49.2701 85.0457C51.3907 81.6527 52.2342 77.9465 52.2342 74.3917H40.2342ZM39.0941 78.6857L28.9791 72.2292C29.1952 71.8907 29.4557 71.5883 29.734 71.3399C30.0077 71.0955 30.2426 70.953 30.3783 70.8826L35.9021 81.5357L41.426 92.1887C44.4913 90.5993 47.2125 88.2702 49.2092 85.1421L39.0941 78.6857ZM35.9021 81.5357L30.5356 70.8025C30.2097 70.9655 29.7288 71.1483 29.0268 71.2887L31.3801 83.0557L33.7335 94.8226C36.3248 94.3044 38.8586 93.4739 41.2687 92.2688L35.9021 81.5357ZM31.3801 83.0557L29.2016 71.2551C28.3964 71.4037 27.3153 71.5117 25.9081 71.5117V83.5117V95.5117C28.5037 95.5117 31.0706 95.3156 33.5587 94.8563L31.3801 83.0557ZM25.9081 83.5117V71.5117C23.4455 71.5117 22.4907 71.0446 22.3197 70.9462L16.3321 81.3457L10.3446 91.7451C15.1896 94.5347 20.6188 95.5117 25.9081 95.5117V83.5117ZM16.3321 81.3457L22.3654 70.9726C22.4958 71.0485 22.9163 71.3384 23.3169 71.9286C23.7199 72.5226 23.8479 73.0453 23.8774 73.2496L12.0001 74.9617L0.122904 76.6737C1.05783 83.1598 4.68808 88.4553 10.2989 91.7187L16.3321 81.3457ZM12.0001 74.9617L12.6116 86.9461L20.0596 86.5661L19.4481 74.5817L18.8367 62.5973L11.3887 62.9773L12.0001 74.9617ZM19.4481 74.5817L8.19905 78.7599C9.95417 83.4852 13.5861 86.272 16.9882 87.6728C20.0995 88.954 23.3068 89.2417 25.9081 89.2417V77.2417V65.2417C24.8615 65.2417 25.1681 65.086 26.1261 65.4805C26.6797 65.7084 27.5577 66.166 28.4688 67.0278C29.4208 67.9283 30.2068 69.0829 30.6973 70.4034L19.4481 74.5817ZM25.9081 77.2417V89.2417C28.689 89.2417 32.052 88.9457 35.2696 87.645L30.7722 76.5197L26.2747 65.3943C26.5285 65.2917 26.7159 65.2378 26.8141 65.2125C26.913 65.1872 26.9466 65.1845 26.9012 65.1912C26.8566 65.1978 26.753 65.211 26.5819 65.2222C26.4115 65.2334 26.1887 65.2417 25.9081 65.2417V77.2417ZM30.7722 76.5197L35.1887 87.6773C36.9264 86.9895 39.2726 85.7445 41.2512 83.4362C43.4262 80.8987 44.5961 77.7144 44.5961 74.3917H32.5961H20.5961C20.5961 72.0062 21.4621 69.6453 23.0291 67.8172C24.3997 66.2181 25.8339 65.5685 26.3556 65.362L30.7722 76.5197ZM32.5961 74.3917H44.5961C44.5961 66.9794 39.3037 63.0043 36.0929 61.4719L30.9242 72.3017L25.7554 83.1314C25.2699 82.8997 24.0084 82.2204 22.8077 80.7195C21.4501 79.0225 20.5961 76.7895 20.5961 74.3917H32.5961ZM30.9242 72.3017L36.1902 61.5189C32.629 59.7797 28.7929 59.5037 26.0221 59.5037V71.5037V83.5037C26.3259 83.5037 26.5555 83.513 26.7188 83.5244C26.8838 83.5359 26.9573 83.5479 26.9535 83.5473C26.9519 83.547 26.8356 83.5284 26.6306 83.4683C26.4276 83.4088 26.0869 83.2939 25.6581 83.0845L30.9242 72.3017ZM26.0221 71.5037V59.5037C23.5979 59.5037 21.0589 59.7727 18.5014 60.1989L20.4741 72.0357L22.4469 83.8724C24.1454 83.5893 25.3051 83.5037 26.0221 83.5037V71.5037ZM20.4741 72.0357H32.4741V67.0197H20.4741H8.47415V72.0357H20.4741ZM20.4741 67.0197L26.2239 77.5525L34.0899 73.2585L28.3401 62.7257L22.5904 52.1929L14.7244 56.4869L20.4741 67.0197ZM28.3401 62.7257V50.7257H13.9001V62.7257V74.7257H28.3401V62.7257ZM13.9001 62.7257H25.9001V56.4557H13.9001H1.90015V62.7257H13.9001ZM13.9001 56.4557V68.4557H39.1702V56.4557V44.4557H13.9001V56.4557ZM39.1702 56.4557H27.1702V62.0417H39.1702H51.1702V56.4557H39.1702ZM39.1702 62.0417L33.7287 51.3463L25.0647 55.7543L30.5061 66.4497L35.9476 77.145L44.6116 72.737L39.1702 62.0417ZM72.1476 59.9137L79.437 50.3814L79.437 50.3814L72.1476 59.9137ZM72.1476 79.5977L79.437 89.13L79.437 89.13L72.1476 79.5977ZM44.7496 83.0557H32.7496C32.7496 89.6831 38.1222 95.0557 44.7496 95.0557V83.0557ZM44.7496 56.4557V44.4557C38.1222 44.4557 32.7496 49.8282 32.7496 56.4557H44.7496ZM66.2576 74.8477L73.1896 84.6429C73.1993 84.6361 73.2089 84.6293 73.2185 84.6225L66.2576 74.8477ZM66.2576 64.7017L59.2263 74.4259C59.2825 74.4665 59.3391 74.5067 59.3961 74.5464L66.2576 64.7017ZM52.6536 62.9157V50.9157C46.0262 50.9157 40.6536 56.2882 40.6536 62.9157H52.6536ZM52.6536 76.5957H40.6536C40.6536 83.2231 46.0262 88.5957 52.6536 88.5957V76.5957ZM59.7976 56.4557V68.4557C63.3545 68.4557 64.5964 69.2457 64.8582 69.446L72.1476 59.9137L79.437 50.3814C73.6695 45.9709 66.6781 44.4557 59.7976 44.4557V56.4557ZM72.1476 59.9137L64.8582 69.446C64.8988 69.477 64.8646 69.4569 64.7991 69.3759C64.7317 69.2928 64.6739 69.1979 64.635 69.1132C64.5976 69.0317 64.6031 69.0153 64.62 69.0999C64.6379 69.1896 64.6696 69.3986 64.6696 69.7557H76.6696H88.6696C88.6696 62.2812 85.8101 55.2549 79.437 50.3814L72.1476 59.9137ZM76.6696 69.7557H64.6696C64.6696 70.1127 64.6379 70.3218 64.62 70.4114C64.6031 70.496 64.5976 70.4796 64.635 70.3982C64.6739 70.3134 64.7317 70.2186 64.7991 70.1354C64.8646 70.0544 64.8988 70.0343 64.8582 70.0654L72.1476 79.5977L79.437 89.13C85.8101 84.2564 88.6696 77.2302 88.6696 69.7557H76.6696ZM72.1476 79.5977L64.8582 70.0654C64.5964 70.2656 63.3545 71.0557 59.7976 71.0557V83.0557V95.0557C66.6781 95.0557 73.6695 93.5404 79.437 89.13L72.1476 79.5977ZM59.7976 83.0557V71.0557H44.7496V83.0557V95.0557H59.7976V83.0557ZM44.7496 83.0557H56.7496V56.4557H44.7496H32.7496V83.0557H44.7496ZM44.7496 56.4557V68.4557H59.7976V56.4557V44.4557H44.7496V56.4557ZM58.9616 76.5957V88.5957C63.3014 88.5957 68.6335 87.8672 73.1896 84.6429L66.2576 74.8477L59.3256 65.0524C60.0087 64.569 60.4775 64.471 60.4027 64.4889C60.3734 64.496 60.2447 64.5241 59.9962 64.5497C59.7486 64.5753 59.4077 64.5957 58.9616 64.5957V76.5957ZM66.2576 74.8477L73.2185 84.6225C78.3162 80.9923 80.7656 75.5053 80.7656 69.7557H68.7656H56.7656C56.7656 69.3215 56.8553 68.4317 57.3735 67.3795C57.9071 66.2963 58.6548 65.5301 59.2968 65.0729L66.2576 74.8477ZM68.7656 69.7557H80.7656C80.7656 64.003 78.3071 58.4727 73.1191 54.8569L66.2576 64.7017L59.3961 74.5464C58.7199 74.0752 57.9417 73.2864 57.3894 72.1734C56.8545 71.0955 56.7656 70.1874 56.7656 69.7557H68.7656ZM66.2576 64.7017L73.289 54.9775C68.715 51.6701 63.3398 50.9157 58.9616 50.9157V62.9157V74.9157C59.3999 74.9157 59.7318 74.9361 59.9698 74.9612C60.2085 74.9864 60.3266 75.0134 60.3454 75.018C60.3956 75.0303 59.9124 74.922 59.2263 74.4259L66.2576 64.7017ZM58.9616 62.9157V50.9157H52.6536V62.9157V74.9157H58.9616V62.9157ZM52.6536 62.9157H40.6536V76.5957H52.6536H64.6536V62.9157H52.6536ZM52.6536 76.5957V88.5957H58.9616V76.5957V64.5957H52.6536V76.5957ZM116.673 73.2517L117.266 61.2663C112.063 61.0088 107.288 64.1376 105.447 69.0109L116.673 73.2517ZM124.349 73.6317L136.191 75.5744C136.744 72.201 135.832 68.7517 133.685 66.0921C131.537 63.4326 128.357 61.8154 124.942 61.6463L124.349 73.6317ZM119.523 81.0037L113.18 70.8169C113.166 70.8259 113.151 70.835 113.137 70.844L119.523 81.0037ZM95.7349 79.9017L88.2386 89.2721C88.2545 89.2848 88.2705 89.2975 88.2865 89.3102L95.7349 79.9017ZM95.6209 59.6477L103.185 68.9635C103.201 68.9505 103.217 68.9376 103.233 68.9245L95.6209 59.6477ZM118.763 58.5457L112.437 68.7428C112.46 68.757 112.483 68.771 112.506 68.785L118.763 58.5457ZM123.779 65.3857L124.557 77.3604C128.03 77.1347 131.234 75.4124 133.338 72.6402C135.442 69.868 136.238 66.319 135.522 62.9135L123.779 65.3857ZM116.179 65.8797L105.094 70.4758C107.062 75.221 111.831 78.1876 116.957 77.8544L116.179 65.8797ZM113.329 63.3717L108.579 74.3916L108.579 74.3916L113.329 63.3717ZM101.397 64.4357L109.182 73.5678C109.186 73.5643 109.19 73.5607 109.194 73.5571L101.397 64.4357ZM101.511 75.1137L93.9438 84.427C93.9673 84.4461 93.9909 84.4652 94.0146 84.4841L101.511 75.1137ZM113.937 76.0257L108.493 65.3317C108.466 65.3452 108.44 65.3589 108.413 65.3726L113.937 76.0257ZM116.673 73.2517L116.08 85.237L123.756 85.617L124.349 73.6317L124.942 61.6463L117.266 61.2663L116.673 73.2517ZM124.349 73.6317L112.507 71.6889C112.48 71.855 112.488 71.6639 112.703 71.3341C112.802 71.1829 112.913 71.0532 113.017 70.9529C113.119 70.8546 113.185 70.8139 113.18 70.8169L119.523 81.0037L125.866 91.1904C131.613 87.6116 135.124 82.078 136.191 75.5744L124.349 73.6317ZM119.523 81.0037L113.137 70.844C113.094 70.8708 111.964 71.5117 108.579 71.5117V83.5117V95.5117C114.466 95.5117 120.632 94.4806 125.909 91.1633L119.523 81.0037ZM108.579 83.5117V71.5117C104.64 71.5117 103.367 70.6382 103.183 70.4931L95.7349 79.9017L88.2865 89.3102C94.1832 93.9785 101.472 95.5117 108.579 95.5117V83.5117ZM95.7349 79.9017L103.231 70.5312C103.155 70.47 103.152 70.4549 103.182 70.4939C103.214 70.5348 103.243 70.584 103.26 70.6219C103.303 70.7164 103.175 70.5087 103.175 69.7557H91.1749H79.1749C79.1749 77.2658 82.0061 84.2861 88.2386 89.2721L95.7349 79.9017ZM91.1749 69.7557H103.175C103.175 68.9626 103.307 68.7279 103.271 68.8111C103.256 68.8457 103.225 68.9002 103.185 68.9527C103.146 69.0037 103.133 69.0055 103.185 68.9635L95.6209 59.6477L88.0568 50.3319C81.8866 55.3419 79.1749 62.3574 79.1749 69.7557H91.1749ZM95.6209 59.6477L103.233 68.9245C103.342 68.835 104.434 67.9997 108.085 67.9997V55.9997V43.9997C101.045 43.9997 93.828 45.5964 88.0091 50.3708L95.6209 59.6477ZM108.085 55.9997V67.9997C111.012 67.9997 112.169 68.5767 112.437 68.7428L118.763 58.5457L125.089 48.3485C119.885 45.12 113.923 43.9997 108.085 43.9997V55.9997ZM118.763 58.5457L112.506 68.785C112.718 68.9147 112.596 68.8842 112.392 68.606C112.296 68.4753 112.211 68.3281 112.144 68.1773C112.079 68.0281 112.048 67.9141 112.036 67.8578L123.779 65.3857L135.522 62.9135C134.17 56.4931 130.305 51.5358 125.02 48.3063L118.763 58.5457ZM123.779 65.3857L123.001 53.4109L115.401 53.9049L116.179 65.8797L116.957 77.8544L124.557 77.3604L123.779 65.3857ZM116.179 65.8797L127.264 61.2835C125.211 56.3326 121.197 53.6959 118.079 52.3518L113.329 63.3717L108.579 74.3916C108.399 74.3141 106.285 73.3494 105.094 70.4758L116.179 65.8797ZM113.329 63.3717L118.079 52.3518C114.767 50.9241 111.325 50.4217 108.085 50.4217V62.4217V74.4217C108.479 74.4217 108.699 74.4529 108.777 74.467C108.851 74.4803 108.768 74.473 108.579 74.3916L113.329 63.3717ZM108.085 62.4217V50.4217C103.467 50.4217 98.0701 51.4926 93.5996 55.3142L101.397 64.4357L109.194 73.5571C108.563 74.097 107.985 74.3319 107.707 74.4155C107.468 74.4875 107.544 74.4217 108.085 74.4217V62.4217ZM101.397 64.4357L93.6121 55.3035C89.1103 59.1411 87.0789 64.4001 87.0789 69.7557H99.0789H111.079C111.079 70.0406 111.025 70.7082 110.66 71.547C110.281 72.4156 109.726 73.1039 109.182 73.5678L101.397 64.4357ZM99.0789 69.7557H87.0789C87.0789 75.2962 89.2732 80.6321 93.9438 84.427L101.511 75.1137L109.078 65.8003C109.613 66.235 110.202 66.9183 110.614 67.8264C111.014 68.7077 111.079 69.427 111.079 69.7557H99.0789ZM101.511 75.1137L94.0146 84.4841C98.5667 88.1258 103.987 89.0897 108.579 89.0897V77.0897V65.0897C107.876 65.0897 107.644 65.0109 107.744 65.0388C107.874 65.0752 108.385 65.2453 109.007 65.7432L101.511 75.1137ZM108.579 77.0897V89.0897C111.932 89.0897 115.811 88.5711 119.461 86.6787L113.937 76.0257L108.413 65.3726C108.896 65.1222 109.213 65.0577 109.234 65.0535C109.248 65.0507 109.204 65.0603 109.091 65.0703C108.979 65.0803 108.81 65.0897 108.579 65.0897V77.0897ZM113.937 76.0257L119.381 86.7196C122.66 85.0505 126.139 82.1501 127.899 77.4925L116.673 73.2517L105.447 69.0109C106.345 66.6332 108.001 65.5822 108.493 65.3317L113.937 76.0257ZM126.04 62.9157H114.04C114.04 69.5431 119.413 74.9157 126.04 74.9157V62.9157ZM126.04 56.4557V44.4557C119.413 44.4557 114.04 49.8282 114.04 56.4557H126.04ZM156.364 56.4557H168.364C168.364 49.8282 162.991 44.4557 156.364 44.4557V56.4557ZM156.364 62.9157V74.9157C162.991 74.9157 168.364 69.5431 168.364 62.9157H156.364ZM145.154 62.9157V50.9157C138.527 50.9157 133.154 56.2882 133.154 62.9157H145.154ZM145.154 83.0557V95.0557C151.781 95.0557 157.154 89.6831 157.154 83.0557H145.154ZM137.25 83.0557H125.25C125.25 89.6831 130.623 95.0557 137.25 95.0557V83.0557ZM137.25 62.9157H149.25C149.25 56.2882 143.877 50.9157 137.25 50.9157V62.9157ZM126.04 62.9157H138.04V56.4557H126.04H114.04V62.9157H126.04ZM126.04 56.4557V68.4557H156.364V56.4557V44.4557H126.04V56.4557ZM156.364 56.4557H144.364V62.9157H156.364H168.364V56.4557H156.364ZM156.364 62.9157V50.9157H145.154V62.9157V74.9157H156.364V62.9157ZM145.154 62.9157H133.154V83.0557H145.154H157.154V62.9157H145.154ZM145.154 83.0557V71.0557H137.25V83.0557V95.0557H145.154V83.0557ZM137.25 83.0557H149.25V62.9157H137.25H125.25V83.0557H137.25ZM137.25 62.9157V50.9157H126.04V62.9157V74.9157H137.25V62.9157ZM180.407 56.4557V44.4557C176.135 44.4557 172.186 46.7262 170.037 50.4174L180.407 56.4557ZM192.567 56.4557H204.567C204.567 49.8282 199.194 44.4557 192.567 44.4557V56.4557ZM192.567 83.0557V95.0557C199.194 95.0557 204.567 89.6831 204.567 83.0557H192.567ZM184.853 83.0557H172.853C172.853 89.6831 178.225 95.0557 184.853 95.0557V83.0557ZM184.853 62.0417H196.853C196.853 56.6186 193.216 51.8695 187.98 50.4563C182.744 49.0431 177.211 51.3169 174.483 56.0034L184.853 62.0417ZM172.617 83.0557V95.0557C176.888 95.0557 180.837 92.7852 182.987 89.094L172.617 83.0557ZM160.457 83.0557H148.457C148.457 89.6831 153.829 95.0557 160.457 95.0557V83.0557ZM160.457 56.4557V44.4557C153.829 44.4557 148.457 49.8282 148.457 56.4557H160.457ZM168.171 56.4557H180.171C180.171 49.8282 174.798 44.4557 168.171 44.4557V56.4557ZM168.171 77.4697H156.171C156.171 82.8927 159.808 87.6418 165.043 89.055C170.279 90.4683 175.812 88.1944 178.541 83.508L168.171 77.4697ZM180.407 56.4557V68.4557H192.567V56.4557V44.4557H180.407V56.4557ZM192.567 56.4557H180.567V83.0557H192.567H204.567V56.4557H192.567ZM192.567 83.0557V71.0557H184.853V83.0557V95.0557H192.567V83.0557ZM184.853 83.0557H196.853V62.0417H184.853H172.853V83.0557H184.853ZM184.853 62.0417L174.483 56.0034L162.247 77.0174L172.617 83.0557L182.987 89.094L195.223 68.08L184.853 62.0417ZM172.617 83.0557V71.0557H160.457V83.0557V95.0557H172.617V83.0557ZM160.457 83.0557H172.457V56.4557H160.457H148.457V83.0557H160.457ZM160.457 56.4557V68.4557H168.171V56.4557V44.4557H160.457V56.4557ZM168.171 56.4557H156.171V77.4697H168.171H180.171V56.4557H168.171ZM168.171 77.4697L178.541 83.508L190.777 62.494L180.407 56.4557L170.037 50.4174L157.801 71.4314L168.171 77.4697ZM230.859 83.0557V95.0557C235.725 95.0557 240.108 92.1177 241.958 87.6176C243.808 83.1174 242.757 77.9457 239.298 74.5241L230.859 83.0557ZM220.865 83.0557L212.301 91.4616C214.558 93.7605 217.644 95.0557 220.865 95.0557V83.0557ZM210.757 72.7577L219.321 64.3518C217.064 62.0528 213.978 60.7577 210.757 60.7577V72.7577ZM206.843 72.7577V60.7577C200.216 60.7577 194.843 66.1302 194.843 72.7577H206.843ZM206.843 83.0557V95.0557C213.47 95.0557 218.843 89.6831 218.843 83.0557H206.843ZM198.939 83.0557H186.939C186.939 89.6831 192.312 95.0557 198.939 95.0557V83.0557ZM198.939 56.4557V44.4557C192.312 44.4557 186.939 49.8282 186.939 56.4557H198.939ZM206.843 56.4557H218.843C218.843 49.8282 213.47 44.4557 206.843 44.4557V56.4557ZM206.843 66.7157H194.843C194.843 73.3431 200.216 78.7157 206.843 78.7157V66.7157ZM210.605 66.7157V78.7157C213.923 78.7157 217.093 77.3419 219.362 74.9208L210.605 66.7157ZM220.219 56.4557V44.4557C216.901 44.4557 213.731 45.8294 211.463 48.2505L220.219 56.4557ZM229.681 56.4557L238.154 64.9535C241.593 61.5244 242.626 56.3602 240.771 51.8717C238.916 47.3832 234.538 44.4557 229.681 44.4557V56.4557ZM216.875 69.2237L208.402 60.7258C206.138 62.9831 204.869 66.0505 204.875 69.2475C204.881 72.4446 206.163 75.5069 208.436 77.7552L216.875 69.2237ZM230.859 83.0557V71.0557H220.865V83.0557V95.0557H230.859V83.0557ZM220.865 83.0557L229.429 74.6498L219.321 64.3518L210.757 72.7577L202.193 81.1636L212.301 91.4616L220.865 83.0557ZM210.757 72.7577V60.7577H206.843V72.7577V84.7577H210.757V72.7577ZM206.843 72.7577H194.843V83.0557H206.843H218.843V72.7577H206.843ZM206.843 83.0557V71.0557H198.939V83.0557V95.0557H206.843V83.0557ZM198.939 83.0557H210.939V56.4557H198.939H186.939V83.0557H198.939ZM198.939 56.4557V68.4557H206.843V56.4557V44.4557H198.939V56.4557ZM206.843 56.4557H194.843V66.7157H206.843H218.843V56.4557H206.843ZM206.843 66.7157V78.7157H210.605V66.7157V54.7157H206.843V66.7157ZM210.605 66.7157L219.362 74.9208L228.976 64.6608L220.219 56.4557L211.463 48.2505L201.849 58.5105L210.605 66.7157ZM220.219 56.4557V68.4557H229.681V56.4557V44.4557H220.219V56.4557ZM229.681 56.4557L221.208 47.9578L208.402 60.7258L216.875 69.2237L225.348 77.7215L238.154 64.9535L229.681 56.4557ZM216.875 69.2237L208.436 77.7552L222.42 91.5872L230.859 83.0557L239.298 74.5241L225.314 60.6921L216.875 69.2237ZM234.49 83.0557H222.49C222.49 89.6831 227.862 95.0557 234.49 95.0557V83.0557ZM234.49 56.4557V44.4557C227.862 44.4557 222.49 49.8282 222.49 56.4557H234.49ZM261.584 56.4557H273.584C273.584 49.8282 268.211 44.4557 261.584 44.4557V56.4557ZM261.584 62.6117V74.6117C268.211 74.6117 273.584 69.2391 273.584 62.6117H261.584ZM242.394 62.6117V50.6117C235.766 50.6117 230.394 55.9842 230.394 62.6117H242.394ZM242.394 66.6397H230.394C230.394 73.2671 235.766 78.6397 242.394 78.6397V66.6397ZM257.366 66.6397H269.366C269.366 60.0122 263.993 54.6397 257.366 54.6397V66.6397ZM257.366 72.4157V84.4157C263.993 84.4157 269.366 79.0431 269.366 72.4157H257.366ZM242.394 72.4157V60.4157C235.766 60.4157 230.394 65.7882 230.394 72.4157H242.394ZM242.394 76.8997H230.394C230.394 83.5271 235.766 88.8997 242.394 88.8997V76.8997ZM262.306 76.8997H274.306C274.306 70.2722 268.933 64.8997 262.306 64.8997V76.8997ZM262.306 83.0557V95.0557C268.933 95.0557 274.306 89.6831 274.306 83.0557H262.306ZM234.49 83.0557H246.49V56.4557H234.49H222.49V83.0557H234.49ZM234.49 56.4557V68.4557H261.584V56.4557V44.4557H234.49V56.4557ZM261.584 56.4557H249.584V62.6117H261.584H273.584V56.4557H261.584ZM261.584 62.6117V50.6117H242.394V62.6117V74.6117H261.584V62.6117ZM242.394 62.6117H230.394V66.6397H242.394H254.394V62.6117H242.394ZM242.394 66.6397V78.6397H257.366V66.6397V54.6397H242.394V66.6397ZM257.366 66.6397H245.366V72.4157H257.366H269.366V66.6397H257.366ZM257.366 72.4157V60.4157H242.394V72.4157V84.4157H257.366V72.4157ZM242.394 72.4157H230.394V76.8997H242.394H254.394V72.4157H242.394ZM242.394 76.8997V88.8997H262.306V76.8997V64.8997H242.394V76.8997ZM262.306 76.8997H250.306V83.0557H262.306H274.306V76.8997H262.306ZM262.306 83.0557V71.0557H234.49V83.0557V95.0557H262.306V83.0557ZM293.591 58.6977L286.583 68.4383C286.628 68.4705 286.673 68.5024 286.718 68.534L293.591 58.6977ZM293.743 71.9977L300.429 81.9628C300.458 81.9435 300.486 81.924 300.515 81.9044L293.743 71.9977ZM275.161 74.0117V62.0117C268.534 62.0117 263.161 67.3842 263.161 74.0117H275.161ZM275.161 83.0557V95.0557C281.789 95.0557 287.161 89.6831 287.161 83.0557H275.161ZM267.257 83.0557H255.257C255.257 89.6831 260.63 95.0557 267.257 95.0557V83.0557ZM267.257 56.4557V44.4557C260.63 44.4557 255.257 49.8282 255.257 56.4557H267.257ZM275.161 62.9157V50.9157C268.534 50.9157 263.161 56.2882 263.161 62.9157H275.161ZM275.161 67.9317H263.161C263.161 74.5591 268.534 79.9317 275.161 79.9317V67.9317ZM285.687 56.4557V68.4557C286.354 68.4557 286.69 68.5343 286.783 68.5607C286.855 68.5811 286.752 68.5598 286.583 68.4383L293.591 58.6977L300.6 48.957C296.024 45.6644 290.766 44.4557 285.687 44.4557V56.4557ZM293.591 58.6977L286.718 68.534C286.111 68.11 285.492 67.4278 285.092 66.5759C284.726 65.7943 284.745 65.3017 284.745 65.4237H296.745H308.745C308.745 59.2771 306.376 52.9916 300.465 48.8613L293.591 58.6977ZM296.745 65.4237H284.745C284.745 65.6308 284.709 65.154 285.079 64.3435C285.492 63.4386 286.181 62.6316 286.972 62.0909L293.743 71.9977L300.515 81.9044C306.596 77.7478 308.745 71.3103 308.745 65.4237H296.745ZM293.743 71.9977L287.058 62.0325C287.367 61.8255 287.512 61.818 287.318 61.8665C287.107 61.9193 286.595 62.0117 285.687 62.0117V74.0117V86.0117C290.524 86.0117 295.808 85.0632 300.429 81.9628L293.743 71.9977ZM285.687 74.0117V62.0117H275.161V74.0117V86.0117H285.687V74.0117ZM275.161 74.0117H263.161V83.0557H275.161H287.161V74.0117H275.161ZM275.161 83.0557V71.0557H267.257V83.0557V95.0557H275.161V83.0557ZM267.257 83.0557H279.257V56.4557H267.257H255.257V83.0557H267.257ZM267.257 56.4557V68.4557H275.161V56.4557V44.4557H267.257V56.4557ZM275.161 56.4557V68.4557H285.687V56.4557V44.4557H275.161V56.4557ZM285.307 67.9317V79.9317C287.54 79.9317 291.365 79.6012 294.903 77.0907C299.196 74.044 300.841 69.4447 300.841 65.4237H288.841H276.841C276.841 64.437 277.018 62.9977 277.759 61.4193C278.53 59.7783 279.695 58.4541 281.013 57.5186C282.256 56.6364 283.402 56.2602 284.091 56.0972C284.776 55.9352 285.225 55.9317 285.307 55.9317V67.9317ZM288.841 65.4237H300.841C300.841 61.4026 299.196 56.8034 294.903 53.7566C291.365 51.2461 287.54 50.9157 285.307 50.9157V62.9157V74.9157C285.225 74.9157 284.776 74.9121 284.091 74.7501C283.402 74.5871 282.256 74.2109 281.013 73.3287C279.695 72.3932 278.53 71.069 277.759 69.428C277.018 67.8496 276.841 66.4103 276.841 65.4237H288.841ZM285.307 62.9157V50.9157H275.161V62.9157V74.9157H285.307V62.9157ZM275.161 62.9157H263.161V67.9317H275.161H287.161V62.9157H275.161ZM275.161 67.9317V79.9317H285.307V67.9317V55.9317H275.161V67.9317ZM326.708 80.9657L333.564 90.814C333.573 90.8081 333.581 90.8023 333.589 90.7964L326.708 80.9657ZM301.324 83.0557H289.324C289.324 89.6831 294.696 95.0557 301.324 95.0557V83.0557ZM301.324 56.4557V44.4557C294.696 44.4557 289.324 49.8282 289.324 56.4557H301.324ZM309.228 56.4557H321.228C321.228 49.8282 315.855 44.4557 309.228 44.4557V56.4557ZM309.228 65.4997H297.228C297.228 72.1271 302.6 77.4997 309.228 77.4997V65.4997ZM333.662 56.4557V44.4557C327.034 44.4557 321.662 49.8282 321.662 56.4557H333.662ZM341.566 56.4557H353.566C353.566 49.8282 348.193 44.4557 341.566 44.4557V56.4557ZM341.566 83.0557V95.0557C348.193 95.0557 353.566 89.6831 353.566 83.0557H341.566ZM333.662 83.0557H321.662C321.662 89.6831 327.034 95.0557 333.662 95.0557V83.0557ZM309.228 71.7317V59.7317C302.6 59.7317 297.228 65.1042 297.228 71.7317H309.228ZM309.228 76.5957H297.228C297.228 83.2231 302.6 88.5957 309.228 88.5957V76.5957ZM318.69 65.4997V77.4997C320.373 77.4997 320.402 77.8613 319.826 77.4584L326.708 67.6277L333.589 57.7969C328.961 54.5567 323.644 53.4997 318.69 53.4997V65.4997ZM326.708 67.6277L319.826 77.4584C319.1 76.9501 318.455 76.1897 318.063 75.3293C317.712 74.5556 317.748 74.1063 317.748 74.3157H329.748H341.748C341.748 68.3723 339.572 61.985 333.589 57.7969L326.708 67.6277ZM329.748 74.3157H317.748C317.748 74.4987 317.716 74.0327 318.074 73.25C318.47 72.3837 319.116 71.6321 319.826 71.1349L326.708 80.9657L333.589 90.7964C339.544 86.6283 341.748 80.2764 341.748 74.3157H329.748ZM326.708 80.9657L319.851 71.1173C320.157 70.9049 320.321 70.8832 320.176 70.9212C320.009 70.9645 319.547 71.0557 318.69 71.0557V83.0557V95.0557C323.598 95.0557 328.928 94.0415 333.564 90.814L326.708 80.9657ZM318.69 83.0557V71.0557H304.63V83.0557V95.0557H318.69V83.0557ZM304.63 83.0557V71.0557H301.324V83.0557V95.0557H304.63V83.0557ZM301.324 83.0557H313.324V56.4557H301.324H289.324V83.0557H301.324ZM301.324 56.4557V68.4557H309.228V56.4557V44.4557H301.324V56.4557ZM309.228 56.4557H297.228V65.4997H309.228H321.228V56.4557H309.228ZM309.228 65.4997V77.4997H318.69V65.4997V53.4997H309.228V65.4997ZM333.662 56.4557V68.4557H341.566V56.4557V44.4557H333.662V56.4557ZM341.566 56.4557H329.566V83.0557H341.566H353.566V56.4557H341.566ZM341.566 83.0557V71.0557H333.662V83.0557V95.0557H341.566V83.0557ZM333.662 83.0557H345.662V56.4557H333.662H321.662V83.0557H333.662ZM318.31 76.5957V88.5957C320.492 88.5957 324.254 88.2878 327.763 85.8731C332.081 82.9016 333.844 78.3096 333.844 74.1637H321.844H309.844C309.844 73.1149 310.038 71.6173 310.823 69.9965C311.636 68.3189 312.843 67.0072 314.157 66.1023C315.394 65.2511 316.518 64.8976 317.173 64.7474C317.828 64.5973 318.249 64.5957 318.31 64.5957V76.5957ZM321.844 74.1637H333.844C333.844 70.0177 332.081 65.4257 327.763 62.4543C324.254 60.0396 320.492 59.7317 318.31 59.7317V71.7317V83.7317C318.249 83.7317 317.828 83.7301 317.173 83.5799C316.518 83.4297 315.394 83.0762 314.157 82.2251C312.843 81.3202 311.636 80.0084 310.823 78.3308C310.038 76.71 309.844 75.2125 309.844 74.1637H321.844ZM318.31 71.7317V59.7317H309.228V71.7317V83.7317H318.31V71.7317ZM309.228 71.7317H297.228V76.5957H309.228H321.228V71.7317H309.228ZM309.228 76.5957V88.5957H318.31V76.5957V64.5957H309.228V76.5957ZM345.349 65.3477L333.425 64.0014C333.054 67.2866 334.055 70.5792 336.191 73.1022C338.328 75.6253 341.41 77.1551 344.712 77.3307L345.349 65.3477ZM349.491 58.3177L343.007 48.2201L343.007 48.2201L349.491 58.3177ZM367.427 57.8997L361.649 68.4167C361.665 68.4256 361.681 68.4344 361.697 68.4432L367.427 57.8997ZM369.479 67.3237L360.678 59.1665L360.678 59.1665L369.479 67.3237ZM364.995 70.2117L360.185 59.2178C360.176 59.222 360.166 59.2263 360.156 59.2306L364.995 70.2117ZM361.233 73.1377V85.1377C367.861 85.1377 373.233 79.7651 373.233 73.1377H361.233ZM354.051 73.1377H342.051C342.051 79.7651 347.424 85.1377 354.051 85.1377V73.1377ZM354.963 69.3377L364.668 76.3957L364.668 76.3957L354.963 69.3377ZM358.459 67.1717L362.453 78.4875L362.453 78.4875L358.459 67.1717ZM360.283 66.5257L364.319 77.8266C364.552 77.7433 364.783 77.6529 365.01 77.5554L360.283 66.5257ZM361.727 65.8417L356.534 55.0234C356.476 55.0513 356.418 55.0797 356.361 55.1085L361.727 65.8417ZM363.057 64.9677L371.936 73.0397L371.936 73.0397L363.057 64.9677ZM362.031 62.5737L357.416 73.6506C357.451 73.6654 357.487 73.6801 357.523 73.6945L362.031 62.5737ZM354.545 62.9917L360.754 73.2605L360.754 73.2604L354.545 62.9917ZM352.493 65.7277L351.856 77.7107C357.639 78.0184 362.817 74.1513 364.164 68.5185L352.493 65.7277ZM353.519 83.0557H341.519C341.519 89.6831 346.892 95.0557 353.519 95.0557V83.0557ZM353.519 75.7597V63.7597C346.892 63.7597 341.519 69.1322 341.519 75.7597H353.519ZM361.765 75.7597H373.765C373.765 69.1322 368.393 63.7597 361.765 63.7597V75.7597ZM361.765 83.0557V95.0557C368.393 95.0557 373.765 89.6831 373.765 83.0557H361.765ZM345.349 65.3477L357.273 66.6939C357.292 66.529 357.283 66.8276 356.99 67.3257C356.677 67.8565 356.269 68.2267 355.975 68.4153L349.491 58.3177L343.007 48.2201C337.218 51.9376 334.136 57.7021 333.425 64.0014L345.349 65.3477ZM349.491 58.3177L355.975 68.4153C355.978 68.4134 356.013 68.3912 356.094 68.3569C356.176 68.3221 356.315 68.271 356.526 68.2181C356.956 68.1102 357.663 67.9997 358.725 67.9997V55.9997V43.9997C353.379 43.9997 347.865 45.1012 343.007 48.2201L349.491 58.3177ZM358.725 55.9997V67.9997C360.842 67.9997 361.601 68.3908 361.649 68.4167L367.427 57.8997L373.206 47.3826C368.642 44.8752 363.601 43.9997 358.725 43.9997V55.9997ZM367.427 57.8997L361.697 68.4432C361.404 68.2839 360.574 67.7437 359.858 66.5909C359.115 65.3967 358.923 64.2344 358.923 63.5237H370.923H382.923C382.923 60.3302 382.148 56.9893 380.241 53.9205C378.359 50.8929 375.781 48.7821 373.157 47.3562L367.427 57.8997ZM370.923 63.5237H358.923C358.923 62.9643 359.017 62.1938 359.345 61.3321C359.676 60.4593 360.159 59.7262 360.678 59.1665L369.479 67.3237L378.28 75.4808C381.421 72.092 382.923 67.8592 382.923 63.5237H370.923ZM369.479 67.3237L360.678 59.1665C360.86 58.9707 361.003 58.8462 361.08 58.7839C361.156 58.7214 361.182 58.7079 361.138 58.7361C361.095 58.7639 360.998 58.8231 360.836 58.9084C360.674 58.9935 360.46 59.0978 360.185 59.2178L364.995 70.2117L369.805 81.2056C372.584 79.9897 375.745 78.2168 378.28 75.4808L369.479 67.3237ZM364.995 70.2117L360.156 59.2306C358.741 59.8541 356.711 60.7814 355.112 61.9009L361.993 71.7317L368.875 81.5624C368.609 81.7486 368.433 81.8482 368.42 81.8561C368.391 81.8724 368.425 81.8518 368.544 81.7915C368.789 81.6678 369.204 81.4707 369.834 81.1927L364.995 70.2117ZM361.993 71.7317L355.112 61.9009C352.644 63.6279 349.233 67.267 349.233 72.9477H361.233H373.233C373.233 75.0798 372.604 77.0536 371.599 78.6617C370.661 80.1631 369.571 81.0754 368.875 81.5624L361.993 71.7317ZM361.233 72.9477H349.233V73.1377H361.233H373.233V72.9477H361.233ZM361.233 73.1377V61.1377H354.051V73.1377V85.1377H361.233V73.1377ZM354.051 73.1377H366.051V72.6437H354.051H342.051V73.1377H354.051ZM354.051 72.6437H366.051C366.051 72.9981 365.968 74.6082 364.668 76.3957L354.963 69.3377L345.258 62.2796C342.742 65.7391 342.051 69.5532 342.051 72.6437H354.051ZM354.963 69.3377L364.668 76.3957C363.813 77.5717 362.944 78.1651 362.613 78.37C362.267 78.5845 362.154 78.593 362.453 78.4875L358.459 67.1717L354.465 55.8558C351.996 56.7272 348.024 58.4765 345.258 62.2796L354.963 69.3377ZM358.459 67.1717L362.453 78.4875C363.314 78.1836 363.941 77.9616 364.319 77.8266L360.283 66.5257L356.247 55.2248C355.916 55.3431 355.327 55.5518 354.465 55.8558L358.459 67.1717ZM360.283 66.5257L365.01 77.5554C365.684 77.2668 366.408 76.9179 367.094 76.5748L361.727 65.8417L356.361 55.1085C356.113 55.2323 355.919 55.3265 355.773 55.3958C355.621 55.4678 355.555 55.4963 355.556 55.4959L360.283 66.5257ZM361.727 65.8417L366.92 76.6599C367.953 76.1643 370.095 75.0655 371.936 73.0397L363.057 64.9677L354.178 56.8956C354.942 56.055 355.638 55.5684 355.945 55.3667C356.287 55.1416 356.513 55.0338 356.534 55.0234L361.727 65.8417ZM363.057 64.9677L371.936 73.0397C373.889 70.8917 375.437 67.7993 375.437 64.0557H363.437H351.437C351.437 60.9707 352.732 58.4863 354.178 56.8956L363.057 64.9677ZM363.437 64.0557H375.437C375.437 55.7632 368.681 52.3207 366.54 51.4528L362.031 62.5737L357.523 73.6945C357.108 73.5263 355.754 72.9366 354.38 71.4883C352.774 69.7957 351.437 67.2027 351.437 64.0557H363.437ZM362.031 62.5737L366.647 51.4967C363.897 50.3512 361.138 50.0037 358.725 50.0037V62.0037V74.0037C358.897 74.0037 358.341 74.0361 357.416 73.6506L362.031 62.5737ZM358.725 62.0037V50.0037C355.547 50.0037 351.824 50.614 348.336 52.7229L354.545 62.9917L360.754 73.2604C359.445 74.052 358.508 74.0037 358.725 74.0037V62.0037ZM354.545 62.9917L348.336 52.7229C344.69 54.9277 341.898 58.4382 340.822 62.9368L352.493 65.7277L364.164 68.5185C363.942 69.4487 363.508 70.4464 362.815 71.3697C362.132 72.2802 361.373 72.8864 360.754 73.2605L354.545 62.9917ZM352.493 65.7277L353.131 53.7446L345.987 53.3646L345.349 65.3477L344.712 77.3307L351.856 77.7107L352.493 65.7277ZM353.519 83.0557H365.519V75.7597H353.519H341.519V83.0557H353.519ZM353.519 75.7597V87.7597H361.765V75.7597V63.7597H353.519V75.7597ZM361.765 75.7597H349.765V83.0557H361.765H373.765V75.7597H361.765ZM361.765 83.0557V71.0557H353.519V83.0557V95.0557H361.765V83.0557Z" fill="#282828" mask="url(#path-1-outside-1_959_88)"></path></svg>