<svg xmlns="http://www.w3.org/2000/svg" width="721" height="60" viewBox="0 0 721 60" fill="none"><mask id="path-1-outside-1_272_209" maskUnits="userSpaceOnUse" x="-0.379395" y="-0.116028" width="721" height="60" fill="black"><rect fill="white" x="-0.379395" y="-0.116028" width="721" height="60"></rect><path d="M35.1801 20.284H43.0841V46.884H35.1801V36.586H19.9041V46.884H12.0001V20.284H19.9041V30.126H35.1801V20.284ZM74.1426 46.884L71.9766 41.754H56.6246L54.4586 46.884H46.6686L58.3346 20.284H70.4946L82.1986 46.884H74.1426ZM59.1706 35.826H69.4686L64.3006 23.666L59.1706 35.826ZM85.7735 46.884V20.284H93.4875V40.424H104.09V20.284H111.804V40.424H122.406V20.284H130.12V46.884H85.7735ZM171.65 37.08L179.326 37.46C178.794 40.7026 177.185 43.16 174.5 44.832C171.84 46.504 168.192 47.34 163.556 47.34C158.033 47.34 153.752 46.1366 150.712 43.73C147.672 41.298 146.152 37.916 146.152 33.584C146.152 29.252 147.634 25.8826 150.598 23.476C153.562 21.044 157.717 19.828 163.062 19.828C167.445 19.828 171.004 20.6766 173.74 22.374C176.476 24.046 178.148 26.326 178.756 29.214L171.156 29.708C170.725 28.6693 169.775 27.8333 168.306 27.2C166.837 26.5666 165.089 26.25 163.062 26.25C160.174 26.25 157.945 26.9213 156.374 28.264C154.829 29.5813 154.056 31.3546 154.056 33.584C154.056 35.8386 154.867 37.6246 156.488 38.942C158.135 40.2593 160.491 40.918 163.556 40.918C165.76 40.918 167.546 40.5633 168.914 39.854C170.307 39.1446 171.219 38.22 171.65 37.08ZM181.017 26.744V20.284H211.341V26.744H200.131V46.884H192.227V26.744H181.017ZM235.384 20.284H247.544V46.884H239.83V25.87L227.594 46.884H215.434V20.284H223.148V41.298L235.384 20.284ZM258.476 20.284H284.962V46.884H277.058V26.744H265.62C265.569 27.4533 265.506 28.492 265.43 29.86C265.303 32.064 265.189 33.698 265.088 34.762C265.012 35.8006 264.847 37.1306 264.594 38.752C264.366 40.3733 264.037 41.5766 263.606 42.362C263.201 43.122 262.643 43.9326 261.934 44.794C261.25 45.6553 260.376 46.2506 259.312 46.58C258.248 46.9093 256.994 47.074 255.55 47.074C254.537 47.074 253.169 47.0106 251.446 46.884V40.462C252.257 40.5633 252.928 40.614 253.46 40.614C254.017 40.614 254.499 40.538 254.904 40.386C255.335 40.2086 255.702 39.9173 256.006 39.512C256.335 39.1066 256.601 38.676 256.804 38.22C257.032 37.764 257.222 37.1433 257.374 36.358C257.526 35.5726 257.64 34.8253 257.716 34.116C257.817 33.3813 257.893 32.4313 257.944 31.266C258.02 30.1006 258.071 29.0366 258.096 28.074C258.147 27.1113 258.197 25.8826 258.248 24.388C258.324 22.868 258.4 21.5 258.476 20.284ZM309.447 29.328C312.766 29.328 315.439 30.0373 317.465 31.456C319.492 32.8746 320.505 35.104 320.505 38.144C320.505 41.1586 319.492 43.3753 317.465 44.794C315.464 46.1873 312.791 46.884 309.447 46.884H294.665H291.359V20.284H299.263V29.328H309.447ZM309.067 40.424C311.423 40.424 312.601 39.6133 312.601 37.992C312.601 36.3706 311.423 35.56 309.067 35.56H299.263V40.424H309.067ZM333.971 32.596H364.485V38.448H333.971V32.596ZM377.622 26.744V20.284H407.946V26.744H396.736V46.884H388.832V26.744H377.622ZM434.155 33.318C439.805 33.8246 442.629 35.9273 442.629 39.626C442.629 41.8806 441.629 43.654 439.627 44.946C437.626 46.238 434.637 46.884 430.659 46.884H412.039V20.284H430.659C434.003 20.284 436.638 20.9426 438.563 22.26C440.514 23.5773 441.489 25.3 441.489 27.428C441.489 30.7466 439.045 32.71 434.155 33.318ZM419.943 26.364V30.582H430.279C431.318 30.582 432.129 30.392 432.711 30.012C433.294 29.632 433.585 29.1126 433.585 28.454C433.585 27.0606 432.483 26.364 430.279 26.364H419.943ZM429.861 40.804C431.609 40.804 432.851 40.6393 433.585 40.31C434.345 39.9806 434.725 39.4106 434.725 38.6C434.725 37.764 434.358 37.1813 433.623 36.852C432.889 36.5226 431.761 36.358 430.241 36.358H419.943V40.804H429.861ZM450.262 43.692C447.146 41.26 445.588 37.8906 445.588 33.584C445.588 29.2773 447.146 25.908 450.262 23.476C453.378 21.044 457.71 19.828 463.258 19.828C468.806 19.828 473.138 21.044 476.254 23.476C479.37 25.908 480.928 29.2773 480.928 33.584C480.928 37.8906 479.37 41.26 476.254 43.692C473.138 46.124 468.806 47.34 463.258 47.34C457.71 47.34 453.378 46.124 450.262 43.692ZM456.038 28.264C454.34 29.5813 453.492 31.3546 453.492 33.584C453.492 35.8133 454.34 37.5993 456.038 38.942C457.76 40.2593 460.167 40.918 463.258 40.918C466.348 40.918 468.742 40.2593 470.44 38.942C472.162 37.5993 473.024 35.8133 473.024 33.584C473.024 31.3546 472.162 29.5813 470.44 28.264C468.742 26.9213 466.348 26.25 463.258 26.25C460.167 26.25 457.76 26.9213 456.038 28.264ZM510.627 12C510.45 16.18 507.524 18.27 501.849 18.27C496.175 18.27 493.249 16.18 493.071 12H498.087C498.265 13.4946 499.519 14.242 501.849 14.242C504.155 14.242 505.396 13.4946 505.573 12H510.627ZM505.725 20.284H517.885V46.884H510.171V25.87L497.935 46.884H485.775V20.284H493.489V41.298L505.725 20.284ZM559.406 37.08L567.082 37.46C566.55 40.7026 564.941 43.16 562.256 44.832C559.596 46.504 555.948 47.34 551.312 47.34C545.789 47.34 541.508 46.1366 538.468 43.73C535.428 41.298 533.908 37.916 533.908 33.584C533.908 29.252 535.39 25.8826 538.354 23.476C541.318 21.044 545.473 19.828 550.818 19.828C555.201 19.828 558.76 20.6766 561.496 22.374C564.232 24.046 565.904 26.326 566.512 29.214L558.912 29.708C558.481 28.6693 557.531 27.8333 556.062 27.2C554.593 26.5666 552.845 26.25 550.818 26.25C547.93 26.25 545.701 26.9213 544.13 28.264C542.585 29.5813 541.812 31.3546 541.812 33.584C541.812 35.8386 542.623 37.6246 544.244 38.942C545.891 40.2593 548.247 40.918 551.312 40.918C553.516 40.918 555.302 40.5633 556.67 39.854C558.063 39.1446 558.975 38.22 559.406 37.08ZM568.773 26.744V20.284H599.097V26.744H587.887V46.884H579.983V26.744H568.773ZM623.14 20.284H635.3V46.884H627.586V25.87L615.35 46.884H603.19V20.284H610.904V41.298L623.14 20.284ZM646.232 20.284H672.718V46.884H664.814V26.744H653.376C653.325 27.4533 653.262 28.492 653.186 29.86C653.059 32.064 652.945 33.698 652.844 34.762C652.768 35.8006 652.603 37.1306 652.35 38.752C652.122 40.3733 651.793 41.5766 651.362 42.362C650.957 43.122 650.399 43.9326 649.69 44.794C649.006 45.6553 648.132 46.2506 647.068 46.58C646.004 46.9093 644.75 47.074 643.306 47.074C642.293 47.074 640.925 47.0106 639.202 46.884V40.462C640.013 40.5633 640.684 40.614 641.216 40.614C641.773 40.614 642.255 40.538 642.66 40.386C643.091 40.2086 643.458 39.9173 643.762 39.512C644.091 39.1066 644.357 38.676 644.56 38.22C644.788 37.764 644.978 37.1433 645.13 36.358C645.282 35.5726 645.396 34.8253 645.472 34.116C645.573 33.3813 645.649 32.4313 645.7 31.266C645.776 30.1006 645.827 29.0366 645.852 28.074C645.903 27.1113 645.953 25.8826 646.004 24.388C646.08 22.868 646.156 21.5 646.232 20.284ZM697.203 29.328C700.522 29.328 703.195 30.0373 705.221 31.456C707.248 32.8746 708.261 35.104 708.261 38.144C708.261 41.1586 707.248 43.3753 705.221 44.794C703.22 46.1873 700.547 46.884 697.203 46.884H682.421H679.115V20.284H687.019V29.328H697.203ZM696.823 40.424C699.179 40.424 700.357 39.6133 700.357 37.992C700.357 36.3706 699.179 35.56 696.823 35.56H687.019V40.424H696.823Z"></path></mask><path d="M35.1801 20.284H43.0841V46.884H35.1801V36.586H19.9041V46.884H12.0001V20.284H19.9041V30.126H35.1801V20.284ZM74.1426 46.884L71.9766 41.754H56.6246L54.4586 46.884H46.6686L58.3346 20.284H70.4946L82.1986 46.884H74.1426ZM59.1706 35.826H69.4686L64.3006 23.666L59.1706 35.826ZM85.7735 46.884V20.284H93.4875V40.424H104.09V20.284H111.804V40.424H122.406V20.284H130.12V46.884H85.7735ZM171.65 37.08L179.326 37.46C178.794 40.7026 177.185 43.16 174.5 44.832C171.84 46.504 168.192 47.34 163.556 47.34C158.033 47.34 153.752 46.1366 150.712 43.73C147.672 41.298 146.152 37.916 146.152 33.584C146.152 29.252 147.634 25.8826 150.598 23.476C153.562 21.044 157.717 19.828 163.062 19.828C167.445 19.828 171.004 20.6766 173.74 22.374C176.476 24.046 178.148 26.326 178.756 29.214L171.156 29.708C170.725 28.6693 169.775 27.8333 168.306 27.2C166.837 26.5666 165.089 26.25 163.062 26.25C160.174 26.25 157.945 26.9213 156.374 28.264C154.829 29.5813 154.056 31.3546 154.056 33.584C154.056 35.8386 154.867 37.6246 156.488 38.942C158.135 40.2593 160.491 40.918 163.556 40.918C165.76 40.918 167.546 40.5633 168.914 39.854C170.307 39.1446 171.219 38.22 171.65 37.08ZM181.017 26.744V20.284H211.341V26.744H200.131V46.884H192.227V26.744H181.017ZM235.384 20.284H247.544V46.884H239.83V25.87L227.594 46.884H215.434V20.284H223.148V41.298L235.384 20.284ZM258.476 20.284H284.962V46.884H277.058V26.744H265.62C265.569 27.4533 265.506 28.492 265.43 29.86C265.303 32.064 265.189 33.698 265.088 34.762C265.012 35.8006 264.847 37.1306 264.594 38.752C264.366 40.3733 264.037 41.5766 263.606 42.362C263.201 43.122 262.643 43.9326 261.934 44.794C261.25 45.6553 260.376 46.2506 259.312 46.58C258.248 46.9093 256.994 47.074 255.55 47.074C254.537 47.074 253.169 47.0106 251.446 46.884V40.462C252.257 40.5633 252.928 40.614 253.46 40.614C254.017 40.614 254.499 40.538 254.904 40.386C255.335 40.2086 255.702 39.9173 256.006 39.512C256.335 39.1066 256.601 38.676 256.804 38.22C257.032 37.764 257.222 37.1433 257.374 36.358C257.526 35.5726 257.64 34.8253 257.716 34.116C257.817 33.3813 257.893 32.4313 257.944 31.266C258.02 30.1006 258.071 29.0366 258.096 28.074C258.147 27.1113 258.197 25.8826 258.248 24.388C258.324 22.868 258.4 21.5 258.476 20.284ZM309.447 29.328C312.766 29.328 315.439 30.0373 317.465 31.456C319.492 32.8746 320.505 35.104 320.505 38.144C320.505 41.1586 319.492 43.3753 317.465 44.794C315.464 46.1873 312.791 46.884 309.447 46.884H294.665H291.359V20.284H299.263V29.328H309.447ZM309.067 40.424C311.423 40.424 312.601 39.6133 312.601 37.992C312.601 36.3706 311.423 35.56 309.067 35.56H299.263V40.424H309.067ZM333.971 32.596H364.485V38.448H333.971V32.596ZM377.622 26.744V20.284H407.946V26.744H396.736V46.884H388.832V26.744H377.622ZM434.155 33.318C439.805 33.8246 442.629 35.9273 442.629 39.626C442.629 41.8806 441.629 43.654 439.627 44.946C437.626 46.238 434.637 46.884 430.659 46.884H412.039V20.284H430.659C434.003 20.284 436.638 20.9426 438.563 22.26C440.514 23.5773 441.489 25.3 441.489 27.428C441.489 30.7466 439.045 32.71 434.155 33.318ZM419.943 26.364V30.582H430.279C431.318 30.582 432.129 30.392 432.711 30.012C433.294 29.632 433.585 29.1126 433.585 28.454C433.585 27.0606 432.483 26.364 430.279 26.364H419.943ZM429.861 40.804C431.609 40.804 432.851 40.6393 433.585 40.31C434.345 39.9806 434.725 39.4106 434.725 38.6C434.725 37.764 434.358 37.1813 433.623 36.852C432.889 36.5226 431.761 36.358 430.241 36.358H419.943V40.804H429.861ZM450.262 43.692C447.146 41.26 445.588 37.8906 445.588 33.584C445.588 29.2773 447.146 25.908 450.262 23.476C453.378 21.044 457.71 19.828 463.258 19.828C468.806 19.828 473.138 21.044 476.254 23.476C479.37 25.908 480.928 29.2773 480.928 33.584C480.928 37.8906 479.37 41.26 476.254 43.692C473.138 46.124 468.806 47.34 463.258 47.34C457.71 47.34 453.378 46.124 450.262 43.692ZM456.038 28.264C454.34 29.5813 453.492 31.3546 453.492 33.584C453.492 35.8133 454.34 37.5993 456.038 38.942C457.76 40.2593 460.167 40.918 463.258 40.918C466.348 40.918 468.742 40.2593 470.44 38.942C472.162 37.5993 473.024 35.8133 473.024 33.584C473.024 31.3546 472.162 29.5813 470.44 28.264C468.742 26.9213 466.348 26.25 463.258 26.25C460.167 26.25 457.76 26.9213 456.038 28.264ZM510.627 12C510.45 16.18 507.524 18.27 501.849 18.27C496.175 18.27 493.249 16.18 493.071 12H498.087C498.265 13.4946 499.519 14.242 501.849 14.242C504.155 14.242 505.396 13.4946 505.573 12H510.627ZM505.725 20.284H517.885V46.884H510.171V25.87L497.935 46.884H485.775V20.284H493.489V41.298L505.725 20.284ZM559.406 37.08L567.082 37.46C566.55 40.7026 564.941 43.16 562.256 44.832C559.596 46.504 555.948 47.34 551.312 47.34C545.789 47.34 541.508 46.1366 538.468 43.73C535.428 41.298 533.908 37.916 533.908 33.584C533.908 29.252 535.39 25.8826 538.354 23.476C541.318 21.044 545.473 19.828 550.818 19.828C555.201 19.828 558.76 20.6766 561.496 22.374C564.232 24.046 565.904 26.326 566.512 29.214L558.912 29.708C558.481 28.6693 557.531 27.8333 556.062 27.2C554.593 26.5666 552.845 26.25 550.818 26.25C547.93 26.25 545.701 26.9213 544.13 28.264C542.585 29.5813 541.812 31.3546 541.812 33.584C541.812 35.8386 542.623 37.6246 544.244 38.942C545.891 40.2593 548.247 40.918 551.312 40.918C553.516 40.918 555.302 40.5633 556.67 39.854C558.063 39.1446 558.975 38.22 559.406 37.08ZM568.773 26.744V20.284H599.097V26.744H587.887V46.884H579.983V26.744H568.773ZM623.14 20.284H635.3V46.884H627.586V25.87L615.35 46.884H603.19V20.284H610.904V41.298L623.14 20.284ZM646.232 20.284H672.718V46.884H664.814V26.744H653.376C653.325 27.4533 653.262 28.492 653.186 29.86C653.059 32.064 652.945 33.698 652.844 34.762C652.768 35.8006 652.603 37.1306 652.35 38.752C652.122 40.3733 651.793 41.5766 651.362 42.362C650.957 43.122 650.399 43.9326 649.69 44.794C649.006 45.6553 648.132 46.2506 647.068 46.58C646.004 46.9093 644.75 47.074 643.306 47.074C642.293 47.074 640.925 47.0106 639.202 46.884V40.462C640.013 40.5633 640.684 40.614 641.216 40.614C641.773 40.614 642.255 40.538 642.66 40.386C643.091 40.2086 643.458 39.9173 643.762 39.512C644.091 39.1066 644.357 38.676 644.56 38.22C644.788 37.764 644.978 37.1433 645.13 36.358C645.282 35.5726 645.396 34.8253 645.472 34.116C645.573 33.3813 645.649 32.4313 645.7 31.266C645.776 30.1006 645.827 29.0366 645.852 28.074C645.903 27.1113 645.953 25.8826 646.004 24.388C646.08 22.868 646.156 21.5 646.232 20.284ZM697.203 29.328C700.522 29.328 703.195 30.0373 705.221 31.456C707.248 32.8746 708.261 35.104 708.261 38.144C708.261 41.1586 707.248 43.3753 705.221 44.794C703.22 46.1873 700.547 46.884 697.203 46.884H682.421H679.115V20.284H687.019V29.328H697.203ZM696.823 40.424C699.179 40.424 700.357 39.6133 700.357 37.992C700.357 36.3706 699.179 35.56 696.823 35.56H687.019V40.424H696.823Z" fill="white"></path><path d="M35.1801 20.284V8.28397C28.5527 8.28397 23.1801 13.6566 23.1801 20.284L35.1801 20.284ZM43.0841 20.284H55.0841C55.0841 13.6566 49.7115 8.28397 43.0841 8.28397V20.284ZM43.0841 46.884V58.884C49.7115 58.884 55.0841 53.5114 55.0841 46.884H43.0841ZM35.1801 46.884H23.1801C23.1801 53.5114 28.5527 58.884 35.1801 58.884V46.884ZM35.1801 36.586H47.1801C47.1801 29.9586 41.8075 24.586 35.1801 24.586V36.586ZM19.9041 36.586V24.586C13.2767 24.586 7.90411 29.9586 7.90411 36.586H19.9041ZM19.9041 46.884V58.884C26.5315 58.884 31.9041 53.5114 31.9041 46.884H19.9041ZM12.0001 46.884H0.000105858C0.000105858 53.5114 5.37269 58.884 12.0001 58.884V46.884ZM12.0001 20.284V8.28397C5.37269 8.28397 0.000105858 13.6566 0.000105858 20.284L12.0001 20.284ZM19.9041 20.284H31.9041C31.9041 13.6566 26.5315 8.28397 19.9041 8.28397V20.284ZM19.9041 30.126H7.90411C7.90411 36.7534 13.2767 42.126 19.9041 42.126V30.126ZM35.1801 30.126V42.126C41.8075 42.126 47.1801 36.7534 47.1801 30.126H35.1801ZM35.1801 20.284V32.284H43.0841V20.284V8.28397H35.1801V20.284ZM43.0841 20.284H31.0841V46.884H43.0841H55.0841V20.284H43.0841ZM43.0841 46.884V34.884H35.1801V46.884V58.884H43.0841V46.884ZM35.1801 46.884H47.1801V36.586H35.1801H23.1801V46.884H35.1801ZM35.1801 36.586V24.586H19.9041V36.586V48.586H35.1801V36.586ZM19.9041 36.586H7.90411V46.884H19.9041H31.9041V36.586H19.9041ZM19.9041 46.884V34.884H12.0001V46.884V58.884H19.9041V46.884ZM12.0001 46.884H24.0001V20.284H12.0001H0.000105858V46.884H12.0001ZM12.0001 20.284V32.284H19.9041V20.284V8.28397H12.0001V20.284ZM19.9041 20.284H7.90411V30.126H19.9041H31.9041V20.284H19.9041ZM19.9041 30.126V42.126H35.1801V30.126V18.126H19.9041V30.126ZM35.1801 30.126H47.1801V20.284H35.1801H23.1801V30.126H35.1801ZM74.1426 46.884L63.0876 51.5516C64.9639 55.9955 69.3188 58.884 74.1426 58.884V46.884ZM71.9766 41.754L83.0316 37.0863C81.1553 32.6424 76.8004 29.754 71.9766 29.754V41.754ZM56.6246 41.754V29.754C51.8008 29.754 47.4459 32.6424 45.5696 37.0863L56.6246 41.754ZM54.4586 46.884V58.884C59.2824 58.884 63.6372 55.9955 65.5136 51.5516L54.4586 46.884ZM46.6686 46.884L35.679 42.0643C34.0517 45.7747 34.4066 50.0558 36.6228 53.4476C38.8389 56.8395 42.6169 58.884 46.6686 58.884V46.884ZM58.3346 20.284V8.28397C53.5709 8.28397 49.2583 11.1017 47.345 15.4643L58.3346 20.284ZM70.4946 20.284L81.4784 15.4511C79.5619 11.0956 75.253 8.28397 70.4946 8.28397V20.284ZM82.1986 46.884V58.884C86.2528 58.884 90.0328 56.8369 92.2483 53.4416C94.4638 50.0463 94.8151 45.762 93.1824 42.0511L82.1986 46.884ZM59.1706 35.826L48.1142 31.1616C46.551 34.867 46.9479 39.1091 49.1713 42.4602C51.3946 45.8114 55.1489 47.826 59.1706 47.826V35.826ZM69.4686 35.826V47.826C73.4959 47.826 77.2546 45.8058 79.4767 42.447C81.6987 39.0882 82.0878 34.8387 80.5125 31.1323L69.4686 35.826ZM64.3006 23.666L75.3445 18.9723C73.4595 14.5369 69.104 11.6596 64.2847 11.666C59.4654 11.6724 55.1175 14.5612 53.2442 19.0016L64.3006 23.666ZM74.1426 46.884L85.1976 42.2163L83.0316 37.0863L71.9766 41.754L60.9216 46.4216L63.0876 51.5516L74.1426 46.884ZM71.9766 41.754V29.754H56.6246V41.754V53.754H71.9766V41.754ZM56.6246 41.754L45.5696 37.0863L43.4036 42.2163L54.4586 46.884L65.5136 51.5516L67.6796 46.4216L56.6246 41.754ZM54.4586 46.884V34.884H46.6686V46.884V58.884H54.4586V46.884ZM46.6686 46.884L57.6581 51.7037L69.3241 25.1037L58.3346 20.284L47.345 15.4643L35.679 42.0643L46.6686 46.884ZM58.3346 20.284V32.284H70.4946V20.284V8.28397H58.3346V20.284ZM70.4946 20.284L59.5108 25.1168L71.2148 51.7168L82.1986 46.884L93.1824 42.0511L81.4784 15.4511L70.4946 20.284ZM82.1986 46.884V34.884H74.1426V46.884V58.884H82.1986V46.884ZM59.1706 35.826V47.826H69.4686V35.826V23.826H59.1706V35.826ZM69.4686 35.826L80.5125 31.1323L75.3445 18.9723L64.3006 23.666L53.2566 28.3597L58.4246 40.5197L69.4686 35.826ZM64.3006 23.666L53.2442 19.0016L48.1142 31.1616L59.1706 35.826L70.2269 40.4904L75.3569 28.3304L64.3006 23.666ZM85.7735 46.884H73.7735C73.7735 53.5114 79.1461 58.884 85.7735 58.884V46.884ZM85.7735 20.284V8.28397C79.1461 8.28397 73.7735 13.6566 73.7735 20.284L85.7735 20.284ZM93.4875 20.284H105.488C105.488 13.6566 100.115 8.28397 93.4875 8.28397V20.284ZM93.4875 40.424H81.4875C81.4875 47.0514 86.8601 52.424 93.4875 52.424V40.424ZM104.09 40.424V52.424C110.717 52.424 116.09 47.0514 116.09 40.424H104.09ZM104.09 20.284V8.28397C97.4621 8.28397 92.0895 13.6566 92.0895 20.284L104.09 20.284ZM111.804 20.284H123.804C123.804 13.6566 118.431 8.28397 111.804 8.28397V20.284ZM111.804 40.424H99.8035C99.8035 47.0514 105.176 52.424 111.804 52.424V40.424ZM122.406 40.424V52.424C129.033 52.424 134.406 47.0514 134.406 40.424H122.406ZM122.406 20.284V8.28397C115.778 8.28397 110.406 13.6566 110.406 20.284L122.406 20.284ZM130.12 20.284H142.12C142.12 13.6566 136.747 8.28397 130.12 8.28397V20.284ZM130.12 46.884V58.884C136.747 58.884 142.12 53.5114 142.12 46.884H130.12ZM85.7735 46.884H97.7735V20.284H85.7735H73.7735V46.884H85.7735ZM85.7735 20.284V32.284H93.4875V20.284V8.28397H85.7735V20.284ZM93.4875 20.284H81.4875V40.424H93.4875H105.488V20.284H93.4875ZM93.4875 40.424V52.424H104.09V40.424V28.424H93.4875V40.424ZM104.09 40.424H116.09V20.284H104.09H92.0895V40.424H104.09ZM104.09 20.284V32.284H111.804V20.284V8.28397H104.09V20.284ZM111.804 20.284H99.8035V40.424H111.804H123.804V20.284H111.804ZM111.804 40.424V52.424H122.406V40.424V28.424H111.804V40.424ZM122.406 40.424H134.406V20.284H122.406H110.406V40.424H122.406ZM122.406 20.284V32.284H130.12V20.284V8.28397H122.406V20.284ZM130.12 20.284H118.12V46.884H130.12H142.12V20.284H130.12ZM130.12 46.884V34.884H85.7735V46.884V58.884H130.12V46.884ZM171.65 37.08L172.243 25.0946C167.04 24.8371 162.265 27.9659 160.424 32.8392L171.65 37.08ZM179.326 37.46L191.168 39.4028C191.721 36.0293 190.81 32.58 188.662 29.9204C186.514 27.2609 183.334 25.6437 179.919 25.4746L179.326 37.46ZM174.5 44.832L168.157 34.6452C168.143 34.6542 168.128 34.6633 168.114 34.6723L174.5 44.832ZM150.712 43.73L143.216 53.1004C143.232 53.1131 143.248 53.1259 143.264 53.1385L150.712 43.73ZM150.598 23.476L158.162 32.7918C158.178 32.7788 158.194 32.7659 158.21 32.7529L150.598 23.476ZM173.74 22.374L167.414 32.5711C167.437 32.5853 167.46 32.5993 167.483 32.6134L173.74 22.374ZM178.756 29.214L179.534 41.1887C183.007 40.963 186.211 39.2407 188.315 36.4685C190.419 33.6963 191.216 30.1473 190.499 26.7418L178.756 29.214ZM171.156 29.708L160.071 34.3041C162.039 39.0493 166.808 42.0159 171.934 41.6827L171.156 29.708ZM168.306 27.2L163.556 38.2199V38.2199L168.306 27.2ZM156.374 28.264L164.159 37.3962C164.163 37.3926 164.167 37.389 164.171 37.3854L156.374 28.264ZM156.488 38.942L148.921 48.2553C148.944 48.2744 148.968 48.2935 148.992 48.3124L156.488 38.942ZM168.914 39.854L163.47 29.16C163.443 29.1736 163.417 29.1872 163.39 29.2009L168.914 39.854ZM171.65 37.08L171.057 49.0653L178.733 49.4453L179.326 37.46L179.919 25.4746L172.243 25.0946L171.65 37.08ZM179.326 37.46L167.484 35.5172C167.457 35.6833 167.465 35.4922 167.68 35.1624C167.779 35.0112 167.89 34.8815 167.994 34.7812C168.097 34.6829 168.162 34.6422 168.157 34.6452L174.5 44.832L180.843 55.0187C186.59 51.4399 190.101 45.9063 191.168 39.4028L179.326 37.46ZM174.5 44.832L168.114 34.6723C168.071 34.6991 166.941 35.34 163.556 35.34V47.34V59.34C169.443 59.34 175.609 58.3089 180.886 54.9916L174.5 44.832ZM163.556 47.34V35.34C159.617 35.34 158.344 34.4665 158.16 34.3214L150.712 43.73L143.264 53.1385C149.16 57.8068 156.449 59.34 163.556 59.34V47.34ZM150.712 43.73L158.208 34.3595C158.132 34.2983 158.129 34.2832 158.159 34.3222C158.191 34.3631 158.22 34.4123 158.237 34.4502C158.28 34.5448 158.152 34.337 158.152 33.584H146.152H134.152C134.152 41.0941 136.983 48.1144 143.216 53.1004L150.712 43.73ZM146.152 33.584H158.152C158.152 32.7909 158.284 32.5562 158.248 32.6395C158.233 32.674 158.202 32.7285 158.162 32.781C158.123 32.832 158.11 32.8338 158.162 32.7918L150.598 23.476L143.034 14.1602C136.864 19.1702 134.152 26.1858 134.152 33.584H146.152ZM150.598 23.476L158.21 32.7529C158.319 32.6633 159.411 31.828 163.062 31.828V19.828V7.82797C156.022 7.82797 148.805 9.42467 142.986 14.1991L150.598 23.476ZM163.062 19.828V31.828C165.989 31.828 167.146 32.405 167.414 32.5711L173.74 22.374L180.066 12.1768C174.862 8.94826 168.9 7.82797 163.062 7.82797V19.828ZM173.74 22.374L167.483 32.6134C167.695 32.743 167.573 32.7125 167.369 32.4343C167.273 32.3036 167.188 32.1564 167.121 32.0057C167.056 31.8564 167.025 31.7424 167.013 31.6861L178.756 29.214L190.499 26.7418C189.147 20.3214 185.282 15.3641 179.997 12.1346L173.74 22.374ZM178.756 29.214L177.978 17.2392L170.378 17.7332L171.156 29.708L171.934 41.6827L179.534 41.1887L178.756 29.214ZM171.156 29.708L182.241 25.1118C180.188 20.1609 176.174 17.5242 173.056 16.1801L168.306 27.2L163.556 38.2199C163.376 38.1424 161.263 37.1777 160.071 34.3041L171.156 29.708ZM168.306 27.2L173.056 16.1801C169.744 14.7525 166.302 14.25 163.062 14.25V26.25V38.25C163.456 38.25 163.676 38.2812 163.754 38.2953C163.828 38.3086 163.745 38.3013 163.556 38.2199L168.306 27.2ZM163.062 26.25V14.25C158.444 14.25 153.047 15.3209 148.577 19.1425L156.374 28.264L164.171 37.3854C163.54 37.9253 162.962 38.1602 162.684 38.2438C162.445 38.3158 162.521 38.25 163.062 38.25V26.25ZM156.374 28.264L148.589 19.1318C144.087 22.9694 142.056 28.2284 142.056 33.584H154.056H166.056C166.056 33.8689 166.002 34.5365 165.637 35.3753C165.258 36.2439 164.703 36.9322 164.159 37.3962L156.374 28.264ZM154.056 33.584H142.056C142.056 39.1245 144.25 44.4604 148.921 48.2553L156.488 38.942L164.055 29.6286C164.59 30.0634 165.179 30.7467 165.591 31.6547C165.991 32.5361 166.056 33.2554 166.056 33.584H154.056ZM156.488 38.942L148.992 48.3124C153.544 51.9541 158.964 52.918 163.556 52.918V40.918V28.918C162.853 28.918 162.621 28.8392 162.721 28.8671C162.851 28.9035 163.362 29.0736 163.984 29.5715L156.488 38.942ZM163.556 40.918V52.918C166.909 52.918 170.788 52.3994 174.438 50.507L168.914 39.854L163.39 29.2009C163.873 28.9505 164.19 28.886 164.211 28.8818C164.225 28.879 164.181 28.8886 164.068 28.8986C163.956 28.9086 163.787 28.918 163.556 28.918V40.918ZM168.914 39.854L174.358 50.5479C177.637 48.8788 181.116 45.9784 182.876 41.3208L171.65 37.08L160.424 32.8392C161.323 30.4616 162.978 29.4105 163.47 29.16L168.914 39.854ZM181.017 26.744H169.017C169.017 33.3714 174.39 38.744 181.017 38.744V26.744ZM181.017 20.284V8.28397C174.39 8.28397 169.017 13.6566 169.017 20.284L181.017 20.284ZM211.341 20.284H223.341C223.341 13.6566 217.968 8.28397 211.341 8.28397V20.284ZM211.341 26.744V38.744C217.968 38.744 223.341 33.3714 223.341 26.744H211.341ZM200.131 26.744V14.744C193.504 14.744 188.131 20.1166 188.131 26.744H200.131ZM200.131 46.884V58.884C206.758 58.884 212.131 53.5114 212.131 46.884H200.131ZM192.227 46.884H180.227C180.227 53.5114 185.6 58.884 192.227 58.884V46.884ZM192.227 26.744H204.227C204.227 20.1166 198.854 14.744 192.227 14.744V26.744ZM181.017 26.744H193.017V20.284H181.017H169.017V26.744H181.017ZM181.017 20.284V32.284H211.341V20.284V8.28397H181.017V20.284ZM211.341 20.284H199.341V26.744H211.341H223.341V20.284H211.341ZM211.341 26.744V14.744H200.131V26.744V38.744H211.341V26.744ZM200.131 26.744H188.131V46.884H200.131H212.131V26.744H200.131ZM200.131 46.884V34.884H192.227V46.884V58.884H200.131V46.884ZM192.227 46.884H204.227V26.744H192.227H180.227V46.884H192.227ZM192.227 26.744V14.744H181.017V26.744V38.744H192.227V26.744ZM235.384 20.284V8.28397C231.112 8.28397 227.163 10.5545 225.014 14.2457L235.384 20.284ZM247.544 20.284H259.544C259.544 13.6566 254.171 8.28397 247.544 8.28397V20.284ZM247.544 46.884V58.884C254.171 58.884 259.544 53.5114 259.544 46.884H247.544ZM239.83 46.884H227.83C227.83 53.5114 233.202 58.884 239.83 58.884V46.884ZM239.83 25.87H251.83C251.83 20.4469 248.193 15.6979 242.957 14.2846C237.721 12.8714 232.188 15.1452 229.46 19.8317L239.83 25.87ZM227.594 46.884V58.884C231.865 58.884 235.814 56.6135 237.964 52.9223L227.594 46.884ZM215.434 46.884H203.434C203.434 53.5114 208.806 58.884 215.434 58.884V46.884ZM215.434 20.284V8.28397C208.806 8.28397 203.434 13.6566 203.434 20.284L215.434 20.284ZM223.148 20.284H235.148C235.148 13.6566 229.775 8.28397 223.148 8.28397V20.284ZM223.148 41.298H211.148C211.148 46.721 214.785 51.4701 220.021 52.8833C225.256 54.2966 230.789 52.0227 233.518 47.3363L223.148 41.298ZM235.384 20.284V32.284H247.544V20.284V8.28397H235.384V20.284ZM247.544 20.284H235.544V46.884H247.544H259.544V20.284H247.544ZM247.544 46.884V34.884H239.83V46.884V58.884H247.544V46.884ZM239.83 46.884H251.83V25.87H239.83H227.83V46.884H239.83ZM239.83 25.87L229.46 19.8317L217.224 40.8457L227.594 46.884L237.964 52.9223L250.2 31.9083L239.83 25.87ZM227.594 46.884V34.884H215.434V46.884V58.884H227.594V46.884ZM215.434 46.884H227.434V20.284H215.434H203.434V46.884H215.434ZM215.434 20.284V32.284H223.148V20.284V8.28397H215.434V20.284ZM223.148 20.284H211.148V41.298H223.148H235.148V20.284H223.148ZM223.148 41.298L233.518 47.3363L245.754 26.3223L235.384 20.284L225.014 14.2457L212.778 35.2597L223.148 41.298ZM258.476 20.284V8.28397C252.139 8.28397 246.895 13.211 246.499 19.5354L258.476 20.284ZM284.962 20.284H296.962C296.962 13.6566 291.59 8.28397 284.962 8.28397V20.284ZM284.962 46.884V58.884C291.59 58.884 296.962 53.5114 296.962 46.884H284.962ZM277.058 46.884H265.058C265.058 53.5114 270.431 58.884 277.058 58.884V46.884ZM277.058 26.744H289.058C289.058 20.1166 283.686 14.744 277.058 14.744V26.744ZM265.62 26.744V14.744C259.324 14.744 254.099 19.6093 253.651 25.889L265.62 26.744ZM265.43 29.86L277.41 30.5485C277.411 30.5409 277.411 30.5332 277.412 30.5256L265.43 29.86ZM265.088 34.762L253.142 33.6243C253.134 33.7115 253.127 33.7989 253.12 33.8863L265.088 34.762ZM264.594 38.752L252.738 36.8994C252.729 36.9599 252.72 37.0204 252.711 37.0809L264.594 38.752ZM263.606 42.362L253.084 36.592C253.062 36.6328 253.04 36.6738 253.018 36.7149L263.606 42.362ZM261.934 44.794L252.671 37.1655C252.626 37.2204 252.581 37.2757 252.537 37.3314L261.934 44.794ZM259.312 46.58L262.86 58.0434L259.312 46.58ZM251.446 46.884H239.446C239.446 53.17 244.297 58.3907 250.566 58.8517L251.446 46.884ZM251.446 40.462L252.935 28.5546C249.519 28.1277 246.085 29.1879 243.504 31.4658C240.924 33.7437 239.446 37.02 239.446 40.462H251.446ZM254.904 40.386L259.118 51.6219C259.237 51.5772 259.355 51.5306 259.473 51.4821L254.904 40.386ZM256.006 39.512L246.693 31.9449C246.595 32.0654 246.499 32.1878 246.406 32.312L256.006 39.512ZM256.804 38.22L246.071 32.8534C245.99 33.0159 245.912 33.1803 245.838 33.3463L256.804 38.22ZM257.374 36.358L269.155 38.6382L257.374 36.358ZM257.716 34.116L245.829 32.4763C245.812 32.5965 245.797 32.7169 245.784 32.8376L257.716 34.116ZM257.944 31.266L245.97 30.485C245.964 30.5715 245.959 30.6581 245.955 30.7447L257.944 31.266ZM258.096 28.074L246.113 27.4433C246.107 27.5482 246.103 27.6532 246.1 27.7583L258.096 28.074ZM258.248 24.388L246.263 23.7887C246.26 23.8529 246.257 23.9172 246.255 23.9814L258.248 24.388ZM258.476 20.284V32.284H284.962V20.284V8.28397H258.476V20.284ZM284.962 20.284H272.962V46.884H284.962H296.962V20.284H284.962ZM284.962 46.884V34.884H277.058V46.884V58.884H284.962V46.884ZM277.058 46.884H289.058V26.744H277.058H265.058V46.884H277.058ZM277.058 26.744V14.744H265.62V26.744V38.744H277.058V26.744ZM265.62 26.744L253.651 25.889C253.593 26.695 253.526 27.8095 253.449 29.1943L265.43 29.86L277.412 30.5256C277.487 29.1744 277.546 28.2116 277.59 27.5989L265.62 26.744ZM265.43 29.86L253.45 29.1715C253.325 31.3479 253.221 32.7957 253.142 33.6243L265.088 34.762L277.034 35.8997C277.158 34.6003 277.282 32.7801 277.41 30.5485L265.43 29.86ZM265.088 34.762L253.12 33.8863C253.078 34.4679 252.966 35.4409 252.738 36.8994L264.594 38.752L276.45 40.6045C276.729 38.8204 276.947 37.1333 277.056 35.6377L265.088 34.762ZM264.594 38.752L252.711 37.0809C252.681 37.297 252.653 37.4567 252.631 37.5667C252.609 37.6779 252.597 37.7195 252.602 37.7028C252.606 37.6881 252.635 37.5838 252.701 37.4108C252.766 37.2409 252.886 36.9541 253.084 36.592L263.606 42.362L274.128 48.132C275.614 45.4226 276.186 42.4942 276.477 40.423L264.594 38.752ZM263.606 42.362L253.018 36.7149C253.054 36.6473 253.055 36.6557 252.996 36.7416C252.937 36.8265 252.834 36.9676 252.671 37.1655L261.934 44.794L271.197 52.4225C272.273 51.116 273.323 49.6424 274.194 48.009L263.606 42.362ZM261.934 44.794L252.537 37.3314C252.916 36.8535 253.408 36.3786 254.01 35.9687C254.611 35.5596 255.217 35.2859 255.764 35.1165L259.312 46.58L262.86 58.0434C266.201 57.0093 269.125 55.0353 271.331 52.2566L261.934 44.794ZM259.312 46.58L255.764 35.1165C255.961 35.0557 256.054 35.047 256.011 35.0526C255.969 35.0582 255.821 35.074 255.55 35.074V47.074V59.074C257.861 59.074 260.365 58.8158 262.86 58.0434L259.312 46.58ZM255.55 47.074V35.074C254.964 35.074 253.929 35.0341 252.326 34.9163L251.446 46.884L250.566 58.8517C252.409 58.9872 254.11 59.074 255.55 59.074V47.074ZM251.446 46.884H263.446V40.462H251.446H239.446V46.884H251.446ZM251.446 40.462L249.958 52.3693C251.031 52.5034 252.242 52.614 253.46 52.614V40.614V28.614C253.562 28.614 253.571 28.6183 253.461 28.61C253.357 28.6021 253.185 28.5859 252.935 28.5546L251.446 40.462ZM253.46 40.614V52.614C255.063 52.614 257.04 52.4011 259.118 51.6219L254.904 40.386L250.691 29.15C251.958 28.6749 252.972 28.614 253.46 28.614V40.614ZM254.904 40.386L259.473 51.4821C262.075 50.4109 264.124 48.6883 265.606 46.712L256.006 39.512L246.406 32.312C247.28 31.1463 248.595 30.0064 250.335 29.2898L254.904 40.386ZM256.006 39.512L265.319 47.0791C266.285 45.891 267.118 44.5605 267.77 43.0936L256.804 38.22L245.838 33.3463C246.085 32.7915 246.386 32.3223 246.693 31.9449L256.006 39.512ZM256.804 38.22L267.537 43.5865C268.448 41.7644 268.9 39.9608 269.155 38.6382L257.374 36.358L245.593 34.0777C245.58 34.1457 245.59 34.0747 245.643 33.8999C245.693 33.736 245.819 33.3572 246.071 32.8534L256.804 38.22ZM257.374 36.358L269.155 38.6382C269.364 37.5603 269.532 36.477 269.648 35.3944L257.716 34.116L245.784 32.8376C245.748 33.1736 245.688 33.585 245.593 34.0777L257.374 36.358ZM257.716 34.116L269.604 35.7556C269.776 34.5029 269.874 33.1413 269.933 31.7872L257.944 31.266L245.955 30.7447C245.913 31.7213 245.859 32.2597 245.829 32.4763L257.716 34.116ZM257.944 31.266L269.919 32.0469C270.003 30.7579 270.062 29.5359 270.092 28.3897L258.096 28.074L246.1 27.7583C246.08 28.5373 246.037 29.4434 245.97 30.485L257.944 31.266ZM258.096 28.074L270.08 28.7047C270.136 27.6385 270.189 26.3281 270.241 24.7945L258.248 24.388L246.255 23.9814C246.206 25.4371 246.158 26.5841 246.113 27.4433L258.096 28.074ZM258.248 24.388L270.233 24.9872C270.307 23.5054 270.381 22.1884 270.453 21.0325L258.476 20.284L246.499 19.5354C246.42 20.8116 246.341 22.2306 246.263 23.7887L258.248 24.388ZM317.465 44.794L324.322 54.6423C324.33 54.6365 324.339 54.6306 324.347 54.6248L317.465 44.794ZM291.359 46.884H279.359C279.359 53.5114 284.732 58.884 291.359 58.884V46.884ZM291.359 20.284V8.28397C284.732 8.28397 279.359 13.6566 279.359 20.284L291.359 20.284ZM299.263 20.284H311.263C311.263 13.6566 305.891 8.28397 299.263 8.28397V20.284ZM299.263 29.328H287.263C287.263 35.9554 292.636 41.328 299.263 41.328V29.328ZM299.263 35.56V23.56C292.636 23.56 287.263 28.9326 287.263 35.56H299.263ZM299.263 40.424H287.263C287.263 47.0514 292.636 52.424 299.263 52.424V40.424ZM309.447 29.328V41.328C311.131 41.328 311.159 41.6896 310.584 41.2868L317.465 31.456L324.347 21.6252C319.718 18.385 314.402 17.328 309.447 17.328V29.328ZM317.465 31.456L310.584 41.2868C309.858 40.7784 309.212 40.018 308.821 39.1576C308.469 38.3839 308.505 37.9346 308.505 38.144H320.505H332.505C332.505 32.2006 330.33 25.8133 324.347 21.6252L317.465 31.456ZM320.505 38.144H308.505C308.505 38.3271 308.474 37.861 308.832 37.0784C309.228 36.212 309.874 35.4604 310.584 34.9632L317.465 44.794L324.347 54.6248C330.301 50.4566 332.505 44.1047 332.505 38.144H320.505ZM317.465 44.794L310.609 34.9457C310.914 34.7332 311.079 34.7115 310.933 34.7495C310.767 34.7929 310.305 34.884 309.447 34.884V46.884V58.884C314.356 58.884 319.686 57.8698 324.322 54.6423L317.465 44.794ZM309.447 46.884V34.884H294.665V46.884V58.884H309.447V46.884ZM294.665 46.884V34.884H291.359V46.884V58.884H294.665V46.884ZM291.359 46.884H303.359V20.284H291.359H279.359V46.884H291.359ZM291.359 20.284V32.284H299.263V20.284V8.28397H291.359V20.284ZM299.263 20.284H287.263V29.328H299.263H311.263V20.284H299.263ZM299.263 29.328V41.328H309.447V29.328V17.328H299.263V29.328ZM309.067 40.424V52.424C311.25 52.424 315.012 52.1161 318.521 49.7014C322.839 46.7299 324.601 42.138 324.601 37.992H312.601H300.601C300.601 36.9432 300.796 35.4456 301.581 33.8248C302.393 32.1472 303.6 30.8355 304.915 29.9306C306.152 29.0794 307.276 28.7259 307.931 28.5758C308.585 28.4256 309.007 28.424 309.067 28.424V40.424ZM312.601 37.992H324.601C324.601 33.846 322.839 29.254 318.521 26.2826C315.012 23.8679 311.25 23.56 309.067 23.56V35.56V47.56C309.007 47.56 308.585 47.5584 307.931 47.4082C307.276 47.258 306.152 46.9045 304.915 46.0534C303.6 45.1485 302.393 43.8367 301.581 42.1591C300.796 40.5383 300.601 39.0408 300.601 37.992H312.601ZM309.067 35.56V23.56H299.263V35.56V47.56H309.067V35.56ZM299.263 35.56H287.263V40.424H299.263H311.263V35.56H299.263ZM299.263 40.424V52.424H309.067V40.424V28.424H299.263V40.424ZM333.971 32.596V20.596C327.344 20.596 321.971 25.9686 321.971 32.596H333.971ZM364.485 32.596H376.485C376.485 25.9686 371.113 20.596 364.485 20.596V32.596ZM364.485 38.448V50.448C371.113 50.448 376.485 45.0754 376.485 38.448H364.485ZM333.971 38.448H321.971C321.971 45.0754 327.344 50.448 333.971 50.448V38.448ZM333.971 32.596V44.596H364.485V32.596V20.596H333.971V32.596ZM364.485 32.596H352.485V38.448H364.485H376.485V32.596H364.485ZM364.485 38.448V26.448H333.971V38.448V50.448H364.485V38.448ZM333.971 38.448H345.971V32.596H333.971H321.971V38.448H333.971ZM377.622 26.744H365.622C365.622 33.3714 370.995 38.744 377.622 38.744V26.744ZM377.622 20.284V8.28397C370.995 8.28397 365.622 13.6566 365.622 20.284L377.622 20.284ZM407.946 20.284H419.946C419.946 13.6566 414.574 8.28397 407.946 8.28397V20.284ZM407.946 26.744V38.744C414.574 38.744 419.946 33.3714 419.946 26.744H407.946ZM396.736 26.744V14.744C390.109 14.744 384.736 20.1166 384.736 26.744H396.736ZM396.736 46.884V58.884C403.364 58.884 408.736 53.5114 408.736 46.884H396.736ZM388.832 46.884H376.832C376.832 53.5114 382.205 58.884 388.832 58.884V46.884ZM388.832 26.744H400.832C400.832 20.1166 395.46 14.744 388.832 14.744V26.744ZM377.622 26.744H389.622V20.284H377.622H365.622V26.744H377.622ZM377.622 20.284V32.284H407.946V20.284V8.28397H377.622V20.284ZM407.946 20.284H395.946V26.744H407.946H419.946V20.284H407.946ZM407.946 26.744V14.744H396.736V26.744V38.744H407.946V26.744ZM396.736 26.744H384.736V46.884H396.736H408.736V26.744H396.736ZM396.736 46.884V34.884H388.832V46.884V58.884H396.736V46.884ZM388.832 46.884H400.832V26.744H388.832H376.832V46.884H388.832ZM388.832 26.744V14.744H377.622V26.744V38.744H388.832V26.744ZM434.155 33.318L432.674 21.4097C426.588 22.1665 422.052 27.3912 422.157 33.5236C422.262 39.656 426.974 44.7221 433.083 45.27L434.155 33.318ZM439.627 44.946L446.136 55.0277L439.627 44.946ZM412.039 46.884H400.039C400.039 53.5114 405.412 58.884 412.039 58.884V46.884ZM412.039 20.284V8.28397C405.412 8.28397 400.039 13.6566 400.039 20.284L412.039 20.284ZM438.563 22.26L431.787 32.1637C431.807 32.1774 431.827 32.1911 431.847 32.2047L438.563 22.26ZM419.943 26.364V14.364C413.316 14.364 407.943 19.7366 407.943 26.364H419.943ZM419.943 30.582H407.943C407.943 37.2094 413.316 42.582 419.943 42.582V30.582ZM432.711 30.012L426.156 19.9606L426.156 19.9606L432.711 30.012ZM433.585 40.31L428.814 29.2993C428.768 29.3192 428.722 29.3394 428.676 29.3599L433.585 40.31ZM433.623 36.852L428.714 47.8021L428.715 47.8021L433.623 36.852ZM419.943 36.358V24.358C413.316 24.358 407.943 29.7306 407.943 36.358H419.943ZM419.943 40.804H407.943C407.943 47.4314 413.316 52.804 419.943 52.804V40.804ZM434.155 33.318L433.083 45.27C433.88 45.3415 434.258 45.4434 434.331 45.4658C434.407 45.4891 433.979 45.3725 433.345 44.9008C432.655 44.3869 431.873 43.56 431.31 42.4044C430.758 41.2688 430.629 40.2546 430.629 39.626H442.629H454.629C454.629 34.2079 452.305 29.0951 447.676 25.6491C443.71 22.6967 439.04 21.7079 435.227 21.3659L434.155 33.318ZM442.629 39.626H430.629C430.629 38.9138 430.807 37.8504 431.428 36.7497C432.033 35.6763 432.763 35.0936 433.119 34.8643L439.627 44.946L446.136 55.0277C451.328 51.6755 454.629 46.2247 454.629 39.626H442.629ZM439.627 44.946L433.119 34.8643C433.623 34.5389 433.813 34.57 433.349 34.6702C432.893 34.7689 432.035 34.884 430.659 34.884V46.884V58.884C435.561 58.884 441.291 58.1554 446.136 55.0277L439.627 44.946ZM430.659 46.884V34.884H412.039V46.884V58.884H430.659V46.884ZM412.039 46.884H424.039V20.284H412.039H400.039V46.884H412.039ZM412.039 20.284V32.284H430.659V20.284V8.28397H412.039V20.284ZM430.659 20.284V32.284C431.566 32.284 432.056 32.3756 432.233 32.4197C432.391 32.4593 432.175 32.4293 431.787 32.1637L438.563 22.26L445.339 12.3563C440.725 9.19931 435.418 8.28397 430.659 8.28397V20.284ZM438.563 22.26L431.847 32.2047C431.574 32.02 430.899 31.4827 430.315 30.4522C429.706 29.3758 429.489 28.2758 429.489 27.428H441.489H453.489C453.489 20.8404 450.122 15.5857 445.279 12.3153L438.563 22.26ZM441.489 27.428H429.489C429.489 26.7613 429.619 25.7497 430.141 24.6226C430.672 23.4751 431.424 22.6098 432.142 22.0333C433.38 21.0386 434.064 21.2369 432.674 21.4097L434.155 33.318L435.636 45.2263C439.136 44.791 443.487 43.7037 447.17 40.7457C451.414 37.3373 453.489 32.4798 453.489 27.428H441.489ZM419.943 26.364H407.943V30.582H419.943H431.943V26.364H419.943ZM419.943 30.582V42.582H430.279V30.582V18.582H419.943V30.582ZM430.279 30.582V42.582C432.569 42.582 435.994 42.1973 439.266 40.0633L432.711 30.012L426.156 19.9606C428.263 18.5867 430.067 18.582 430.279 18.582V30.582ZM432.711 30.012L439.266 40.0633C443.017 37.617 445.585 33.4332 445.585 28.454H433.585H421.585C421.585 26.9504 421.937 25.1852 422.901 23.4665C423.85 21.7745 425.099 20.6501 426.156 19.9606L432.711 30.012ZM433.585 28.454H445.585C445.585 23.9816 443.478 19.4665 439.171 16.7434C435.791 14.6069 432.258 14.364 430.279 14.364V26.364V38.364C430.235 38.364 429.854 38.3638 429.251 38.2367C428.659 38.112 427.576 37.8068 426.346 37.0296C425.036 36.2012 423.704 34.92 422.764 33.1365C421.842 31.3876 421.585 29.7065 421.585 28.454H433.585ZM430.279 26.364V14.364H419.943V26.364V38.364H430.279V26.364ZM429.861 40.804V52.804C431.775 52.804 435.256 52.7114 438.494 51.2601L433.585 40.31L428.676 29.3599C429.28 29.0893 429.761 28.9513 430.029 28.8844C430.307 28.8149 430.484 28.7901 430.525 28.7847C430.587 28.7765 430.397 28.804 429.861 28.804V40.804ZM433.585 40.31L438.356 51.3206C440.41 50.4309 442.707 48.8693 444.425 46.2919C446.155 43.6969 446.725 40.9316 446.725 38.6H434.725H422.725C422.725 37.079 423.106 35.004 424.456 32.9791C425.794 30.9717 427.521 29.8597 428.814 29.2993L433.585 40.31ZM434.725 38.6H446.725C446.725 36.4038 446.228 33.7175 444.601 31.1364C442.955 28.5252 440.684 26.8667 438.532 25.9019L433.623 36.852L428.715 47.8021C427.297 47.1666 425.577 45.9641 424.299 43.9356C423.039 41.9371 422.725 39.9602 422.725 38.6H434.725ZM433.623 36.852L438.532 25.9019C435.424 24.5087 432.215 24.358 430.241 24.358V36.358V48.358C430.6 48.358 430.656 48.3794 430.492 48.3555C430.401 48.3421 430.202 48.309 429.921 48.2346C429.645 48.1612 429.224 48.0307 428.714 47.8021L433.623 36.852ZM430.241 36.358V24.358H419.943V36.358V48.358H430.241V36.358ZM419.943 36.358H407.943V40.804H419.943H431.943V36.358H419.943ZM419.943 40.804V52.804H429.861V40.804V28.804H419.943V40.804ZM450.262 43.692L457.645 34.2322V34.2322L450.262 43.692ZM450.262 23.476L442.878 14.0162V14.0162L450.262 23.476ZM476.254 23.476L483.637 14.0162V14.0162L476.254 23.476ZM476.254 43.692L468.87 34.2322V34.2322L476.254 43.692ZM456.038 28.264L463.395 37.7438C463.401 37.7388 463.408 37.7337 463.414 37.7287L456.038 28.264ZM456.038 38.942L448.593 48.3534C448.644 48.3941 448.696 48.4344 448.748 48.4743L456.038 38.942ZM470.44 38.942L477.797 48.4218C477.803 48.4168 477.81 48.4117 477.816 48.4067L470.44 38.942ZM470.44 28.264L462.995 37.6754C463.046 37.7161 463.098 37.7564 463.15 37.7963L470.44 28.264ZM450.262 43.692L457.645 34.2322C457.547 34.1561 457.534 34.1296 457.561 34.1636C457.591 34.2 457.624 34.2528 457.648 34.3045C457.671 34.3537 457.659 34.3469 457.64 34.2512C457.619 34.1508 457.588 33.9375 457.588 33.584H445.588H433.588C433.588 41.2064 436.561 48.2216 442.878 53.1518L450.262 43.692ZM445.588 33.584H457.588C457.588 33.2305 457.619 33.0172 457.64 32.9167C457.659 32.821 457.671 32.8142 457.648 32.8635C457.624 32.9151 457.591 32.9679 457.561 33.0044C457.534 33.0383 457.547 33.0118 457.645 32.9358L450.262 23.476L442.878 14.0162C436.561 18.9463 433.588 25.9616 433.588 33.584H445.588ZM450.262 23.476L457.645 32.9358C457.947 32.6999 459.327 31.828 463.258 31.828V19.828V7.82797C456.092 7.82797 448.808 9.38801 442.878 14.0162L450.262 23.476ZM463.258 19.828V31.828C467.188 31.828 468.568 32.6999 468.87 32.9358L476.254 23.476L483.637 14.0162C477.707 9.388 470.423 7.82797 463.258 7.82797V19.828ZM476.254 23.476L468.87 32.9358C468.968 33.0118 468.981 33.0383 468.954 33.0044C468.925 32.9679 468.891 32.9151 468.867 32.8635C468.844 32.8142 468.856 32.821 468.875 32.9167C468.896 33.0172 468.928 33.2305 468.928 33.584H480.928H492.928C492.928 25.9616 489.954 18.9463 483.637 14.0162L476.254 23.476ZM480.928 33.584H468.928C468.928 33.9375 468.896 34.1508 468.875 34.2512C468.856 34.3469 468.844 34.3537 468.867 34.3045C468.891 34.2528 468.925 34.2 468.954 34.1636C468.981 34.1296 468.968 34.1561 468.87 34.2322L476.254 43.692L483.637 53.1518C489.954 48.2216 492.928 41.2064 492.928 33.584H480.928ZM476.254 43.692L468.87 34.2322C468.568 34.468 467.188 35.34 463.258 35.34V47.34V59.34C470.423 59.34 477.707 57.7799 483.637 53.1518L476.254 43.692ZM463.258 47.34V35.34C459.327 35.34 457.947 34.468 457.645 34.2322L450.262 43.692L442.878 53.1518C448.808 57.7799 456.092 59.34 463.258 59.34V47.34ZM456.038 28.264L448.68 18.7841C443.928 22.4724 441.492 27.8096 441.492 33.584H453.492H465.492C465.492 34.0211 465.4 34.8274 464.952 35.7622C464.498 36.711 463.881 37.3665 463.395 37.7438L456.038 28.264ZM453.492 33.584H441.492C441.492 39.3533 443.919 44.6562 448.593 48.3534L456.038 38.942L463.482 29.5306C463.938 29.8911 464.529 30.524 464.967 31.4452C465.399 32.3555 465.492 33.1451 465.492 33.584H453.492ZM456.038 38.942L448.748 48.4743C453.289 51.9468 458.62 52.918 463.258 52.918V40.918V28.918C462.908 28.918 462.658 28.8992 462.495 28.8797C462.333 28.8602 462.275 28.8422 462.302 28.8496C462.331 28.8575 462.452 28.8931 462.638 28.982C462.826 29.0722 463.066 29.2098 463.327 29.4097L456.038 38.942ZM463.258 40.918V52.918C467.879 52.918 473.247 51.9529 477.797 48.4218L470.44 38.942L463.082 29.4621C463.652 29.0195 464.103 28.8772 464.188 28.8539C464.224 28.844 464.173 28.861 464.014 28.8801C463.855 28.8992 463.607 28.918 463.258 28.918V40.918ZM470.44 38.942L477.816 48.4067C482.526 44.7357 485.024 39.4225 485.024 33.584H473.024H461.024C461.024 33.1195 461.123 32.3075 461.569 31.3828C462.019 30.4503 462.618 29.8237 463.063 29.4772L470.44 38.942ZM473.024 33.584H485.024C485.024 27.7396 482.517 22.3929 477.729 18.7317L470.44 28.264L463.15 37.7963C462.676 37.4335 462.05 36.7848 461.583 35.8248C461.122 34.8756 461.024 34.0467 461.024 33.584H473.024ZM470.44 28.264L477.884 18.8526C473.326 15.247 467.923 14.25 463.258 14.25V26.25V38.25C463.961 38.25 464.208 38.3293 464.131 38.3078C464.024 38.2778 463.564 38.1254 462.995 37.6754L470.44 28.264ZM463.258 26.25V14.25C458.577 14.25 453.211 15.253 448.661 18.7992L456.038 28.264L463.414 37.7287C463.154 37.9314 462.913 38.0734 462.718 38.1684C462.526 38.2619 462.397 38.3014 462.359 38.3122C462.322 38.3225 462.37 38.306 462.522 38.2874C462.675 38.2687 462.916 38.25 463.258 38.25V26.25ZM510.628 12L522.617 12.5086C522.755 9.2407 521.554 6.05781 519.291 3.69647C517.027 1.33512 513.898 -2.95639e-05 510.628 -2.95639e-05V12ZM493.072 12V-2.95639e-05C489.801 -2.95639e-05 486.672 1.33512 484.408 3.69647C482.145 6.05781 480.944 9.2407 481.082 12.5086L493.072 12ZM498.087 12L510.004 10.5862C509.288 4.54798 504.168 -2.95639e-05 498.087 -2.95639e-05V12ZM505.573 12V-2.95639e-05C499.493 -2.95639e-05 494.373 4.54798 493.657 10.5862L505.573 12ZM505.725 20.284V8.28397C501.454 8.28397 497.505 10.5545 495.355 14.2457L505.725 20.284ZM517.885 20.284H529.885C529.885 13.6566 524.513 8.28397 517.885 8.28397V20.284ZM517.885 46.884V58.884C524.513 58.884 529.885 53.5114 529.885 46.884H517.885ZM510.172 46.884H498.172C498.172 53.5114 503.544 58.884 510.172 58.884V46.884ZM510.172 25.87H522.172C522.172 20.4469 518.534 15.6979 513.299 14.2846C508.063 12.8714 502.53 15.1452 499.801 19.8317L510.172 25.87ZM497.935 46.884V58.884C502.207 58.884 506.156 56.6135 508.306 52.9223L497.935 46.884ZM485.775 46.884H473.775C473.775 53.5114 479.148 58.884 485.775 58.884V46.884ZM485.775 20.284V8.28397C479.148 8.28397 473.775 13.6566 473.775 20.284L485.775 20.284ZM493.49 20.284H505.49C505.49 13.6566 500.117 8.28397 493.49 8.28397V20.284ZM493.49 41.298H481.49C481.49 46.721 485.127 51.4701 490.362 52.8833C495.598 54.2966 501.131 52.0227 503.86 47.3363L493.49 41.298ZM510.628 12L498.638 11.4913C498.651 11.1855 498.738 10.4019 499.224 9.42003C499.737 8.38418 500.497 7.52903 501.325 6.93767C502.768 5.90734 503.525 6.26997 501.849 6.26997V18.27V30.27C505.849 30.27 510.906 29.5876 515.275 26.4673C520.26 22.9067 522.4 17.6111 522.617 12.5086L510.628 12ZM501.849 18.27V6.26997C500.174 6.26997 500.931 5.90734 502.374 6.93767C503.202 7.52903 503.962 8.38418 504.475 9.42003C504.961 10.4019 505.048 11.1855 505.061 11.4913L493.072 12L481.082 12.5086C481.299 17.6111 483.439 22.9067 488.424 26.4673C492.793 29.5876 497.85 30.27 501.849 30.27V18.27ZM493.072 12V24H498.087V12V-2.95639e-05H493.072V12ZM498.087 12L486.171 13.4138C486.683 17.727 489.075 21.6402 493.018 23.9897C496.299 25.9455 499.69 26.242 501.849 26.242V14.242V2.24197C501.879 2.24197 502.212 2.24169 502.752 2.35443C503.29 2.46654 504.226 2.73084 505.304 3.37323C506.437 4.04831 507.615 5.07919 508.537 6.52356C509.452 7.95689 509.863 9.40205 510.004 10.5862L498.087 12ZM501.849 14.242V26.242C504.013 26.242 507.412 25.9407 510.699 23.9621C514.637 21.5914 516.984 17.6763 517.49 13.4138L505.573 12L493.657 10.5862C493.795 9.42093 494.198 7.99017 495.101 6.56431C496.011 5.12493 497.181 4.08667 498.32 3.40082C499.405 2.74796 500.352 2.47622 500.905 2.35969C501.46 2.24277 501.807 2.24197 501.849 2.24197V14.242ZM505.573 12V24H510.628V12V-2.95639e-05H505.573V12ZM505.725 20.284V32.284H517.885V20.284V8.28397H505.725V20.284ZM517.885 20.284H505.885V46.884H517.885H529.885V20.284H517.885ZM517.885 46.884V34.884H510.172V46.884V58.884H517.885V46.884ZM510.172 46.884H522.172V25.87H510.172H498.172V46.884H510.172ZM510.172 25.87L499.801 19.8317L487.565 40.8457L497.935 46.884L508.306 52.9223L520.542 31.9083L510.172 25.87ZM497.935 46.884V34.884H485.775V46.884V58.884H497.935V46.884ZM485.775 46.884H497.775V20.284H485.775H473.775V46.884H485.775ZM485.775 20.284V32.284H493.49V20.284V8.28397H485.775V20.284ZM493.49 20.284H481.49V41.298H493.49H505.49V20.284H493.49ZM493.49 41.298L503.86 47.3363L516.096 26.3223L505.725 20.284L495.355 14.2457L483.119 35.2597L493.49 41.298ZM559.406 37.08L559.999 25.0946C554.796 24.8371 550.021 27.9659 548.18 32.8392L559.406 37.08ZM567.082 37.46L578.924 39.4028C579.477 36.0293 578.565 32.58 576.418 29.9204C574.27 27.2609 571.09 25.6437 567.675 25.4746L567.082 37.46ZM562.256 44.832L555.913 34.6452C555.899 34.6542 555.884 34.6633 555.87 34.6723L562.256 44.832ZM538.468 43.73L530.971 53.1004C530.987 53.1131 531.003 53.1259 531.019 53.1385L538.468 43.73ZM538.354 23.476L545.918 32.7918C545.934 32.7788 545.95 32.7659 545.966 32.7529L538.354 23.476ZM561.496 22.374L555.17 32.5711C555.193 32.5853 555.216 32.5993 555.238 32.6134L561.496 22.374ZM566.512 29.214L567.29 41.1887C570.763 40.963 573.967 39.2407 576.071 36.4685C578.175 33.6963 578.971 30.1473 578.254 26.7418L566.512 29.214ZM558.912 29.708L547.827 34.3041C549.794 39.0493 554.564 42.0159 559.69 41.6827L558.912 29.708ZM556.062 27.2L551.312 38.2199V38.2199L556.062 27.2ZM544.13 28.264L551.915 37.3962C551.919 37.3926 551.923 37.389 551.927 37.3854L544.13 28.264ZM544.244 38.942L536.677 48.2553C536.7 48.2744 536.724 48.2935 536.747 48.3124L544.244 38.942ZM556.67 39.854L551.226 29.16C551.199 29.1736 551.173 29.1872 551.146 29.2009L556.67 39.854ZM559.406 37.08L558.812 49.0653L566.489 49.4453L567.082 37.46L567.675 25.4746L559.999 25.0946L559.406 37.08ZM567.082 37.46L555.24 35.5172C555.213 35.6833 555.22 35.4922 555.436 35.1624C555.535 35.0112 555.646 34.8815 555.75 34.7812C555.852 34.6829 555.918 34.6422 555.913 34.6452L562.256 44.832L568.599 55.0187C574.346 51.4399 577.857 45.9063 578.924 39.4028L567.082 37.46ZM562.256 44.832L555.87 34.6723C555.827 34.6991 554.697 35.34 551.312 35.34V47.34V59.34C557.199 59.34 563.364 58.3089 568.642 54.9916L562.256 44.832ZM551.312 47.34V35.34C547.373 35.34 546.1 34.4665 545.916 34.3214L538.468 43.73L531.019 53.1385C536.916 57.8068 544.205 59.34 551.312 59.34V47.34ZM538.468 43.73L545.964 34.3595C545.888 34.2983 545.885 34.2832 545.915 34.3222C545.947 34.3631 545.976 34.4123 545.993 34.4502C546.036 34.5448 545.908 34.337 545.908 33.584H533.908H521.908C521.908 41.0941 524.739 48.1144 530.971 53.1004L538.468 43.73ZM533.908 33.584H545.908C545.908 32.7909 546.04 32.5562 546.004 32.6395C545.989 32.674 545.958 32.7285 545.918 32.781C545.879 32.832 545.866 32.8338 545.918 32.7918L538.354 23.476L530.79 14.1602C524.62 19.1702 521.908 26.1858 521.908 33.584H533.908ZM538.354 23.476L545.966 32.7529C546.075 32.6633 547.167 31.828 550.818 31.828V19.828V7.82797C543.778 7.82797 536.561 9.42467 530.742 14.1991L538.354 23.476ZM550.818 19.828V31.828C553.745 31.828 554.902 32.405 555.17 32.5711L561.496 22.374L567.822 12.1768C562.618 8.94826 556.656 7.82797 550.818 7.82797V19.828ZM561.496 22.374L555.238 32.6134C555.451 32.743 555.329 32.7125 555.125 32.4343C555.029 32.3036 554.944 32.1564 554.877 32.0057C554.811 31.8564 554.781 31.7424 554.769 31.6861L566.512 29.214L578.254 26.7418C576.903 20.3214 573.038 15.3641 567.753 12.1346L561.496 22.374ZM566.512 29.214L565.733 17.2392L558.133 17.7332L558.912 29.708L559.69 41.6827L567.29 41.1887L566.512 29.214ZM558.912 29.708L569.997 25.1118C567.944 20.1609 563.93 17.5242 560.812 16.1801L556.062 27.2L551.312 38.2199C551.132 38.1424 549.018 37.1777 547.827 34.3041L558.912 29.708ZM556.062 27.2L560.812 16.1801C557.5 14.7525 554.058 14.25 550.818 14.25V26.25V38.25C551.212 38.25 551.432 38.2812 551.51 38.2953C551.583 38.3086 551.501 38.3013 551.312 38.2199L556.062 27.2ZM550.818 26.25V14.25C546.199 14.25 540.803 15.3209 536.332 19.1425L544.13 28.264L551.927 37.3854C551.296 37.9253 550.718 38.1602 550.44 38.2438C550.201 38.3158 550.277 38.25 550.818 38.25V26.25ZM544.13 28.264L536.345 19.1318C531.843 22.9694 529.812 28.2284 529.812 33.584H541.812H553.812C553.812 33.8689 553.758 34.5365 553.392 35.3753C553.014 36.2439 552.459 36.9322 551.915 37.3962L544.13 28.264ZM541.812 33.584H529.812C529.812 39.1245 532.006 44.4604 536.677 48.2553L544.244 38.942L551.811 29.6286C552.346 30.0634 552.935 30.7467 553.347 31.6547C553.747 32.5361 553.812 33.2554 553.812 33.584H541.812ZM544.244 38.942L536.747 48.3124C541.3 51.9541 546.72 52.918 551.312 52.918V40.918V28.918C550.609 28.918 550.377 28.8392 550.477 28.8671C550.607 28.9035 551.118 29.0736 551.74 29.5715L544.244 38.942ZM551.312 40.918V52.918C554.665 52.918 558.544 52.3994 562.194 50.507L556.67 39.854L551.146 29.2009C551.629 28.9505 551.946 28.886 551.967 28.8818C551.981 28.879 551.937 28.8886 551.824 28.8986C551.712 28.9086 551.543 28.918 551.312 28.918V40.918ZM556.67 39.854L562.114 50.5479C565.393 48.8788 568.872 45.9784 570.632 41.3208L559.406 37.08L548.18 32.8392C549.078 30.4616 550.734 29.4105 551.226 29.16L556.67 39.854ZM568.773 26.744H556.773C556.773 33.3714 562.145 38.744 568.773 38.744V26.744ZM568.773 20.284V8.28397C562.145 8.28397 556.773 13.6566 556.773 20.284L568.773 20.284ZM599.097 20.284H611.097C611.097 13.6566 605.724 8.28397 599.097 8.28397V20.284ZM599.097 26.744V38.744C605.724 38.744 611.097 33.3714 611.097 26.744H599.097ZM587.887 26.744V14.744C581.259 14.744 575.887 20.1166 575.887 26.744H587.887ZM587.887 46.884V58.884C594.514 58.884 599.887 53.5114 599.887 46.884H587.887ZM579.983 46.884H567.983C567.983 53.5114 573.355 58.884 579.983 58.884V46.884ZM579.983 26.744H591.983C591.983 20.1166 586.61 14.744 579.983 14.744V26.744ZM568.773 26.744H580.773V20.284H568.773H556.773V26.744H568.773ZM568.773 20.284V32.284H599.097V20.284V8.28397H568.773V20.284ZM599.097 20.284H587.097V26.744H599.097H611.097V20.284H599.097ZM599.097 26.744V14.744H587.887V26.744V38.744H599.097V26.744ZM587.887 26.744H575.887V46.884H587.887H599.887V26.744H587.887ZM587.887 46.884V34.884H579.983V46.884V58.884H587.887V46.884ZM579.983 46.884H591.983V26.744H579.983H567.983V46.884H579.983ZM579.983 26.744V14.744H568.773V26.744V38.744H579.983V26.744ZM623.14 20.284V8.28397C618.868 8.28397 614.919 10.5545 612.769 14.2457L623.14 20.284ZM635.3 20.284H647.3C647.3 13.6566 641.927 8.28397 635.3 8.28397V20.284ZM635.3 46.884V58.884C641.927 58.884 647.3 53.5114 647.3 46.884H635.3ZM627.586 46.884H615.586C615.586 53.5114 620.958 58.884 627.586 58.884V46.884ZM627.586 25.87H639.586C639.586 20.4469 635.948 15.6979 630.713 14.2846C625.477 12.8714 619.944 15.1452 617.215 19.8317L627.586 25.87ZM615.35 46.884V58.884C619.621 58.884 623.57 56.6135 625.72 52.9223L615.35 46.884ZM603.19 46.884H591.19C591.19 53.5114 596.562 58.884 603.19 58.884V46.884ZM603.19 20.284V8.28397C596.562 8.28397 591.19 13.6566 591.19 20.284L603.19 20.284ZM610.904 20.284H622.904C622.904 13.6566 617.531 8.28397 610.904 8.28397V20.284ZM610.904 41.298H598.904C598.904 46.721 602.541 51.4701 607.776 52.8833C613.012 54.2966 618.545 52.0227 621.274 47.3363L610.904 41.298ZM623.14 20.284V32.284H635.3V20.284V8.28397H623.14V20.284ZM635.3 20.284H623.3V46.884H635.3H647.3V20.284H635.3ZM635.3 46.884V34.884H627.586V46.884V58.884H635.3V46.884ZM627.586 46.884H639.586V25.87H627.586H615.586V46.884H627.586ZM627.586 25.87L617.215 19.8317L604.979 40.8457L615.35 46.884L625.72 52.9223L637.956 31.9083L627.586 25.87ZM615.35 46.884V34.884H603.19V46.884V58.884H615.35V46.884ZM603.19 46.884H615.19V20.284H603.19H591.19V46.884H603.19ZM603.19 20.284V32.284H610.904V20.284V8.28397H603.19V20.284ZM610.904 20.284H598.904V41.298H610.904H622.904V20.284H610.904ZM610.904 41.298L621.274 47.3363L633.51 26.3223L623.14 20.284L612.769 14.2457L600.533 35.2597L610.904 41.298ZM646.232 20.284V8.28397C639.895 8.28397 634.651 13.211 634.255 19.5354L646.232 20.284ZM672.718 20.284H684.718C684.718 13.6566 679.345 8.28397 672.718 8.28397V20.284ZM672.718 46.884V58.884C679.345 58.884 684.718 53.5114 684.718 46.884H672.718ZM664.814 46.884H652.814C652.814 53.5114 658.187 58.884 664.814 58.884V46.884ZM664.814 26.744H676.814C676.814 20.1166 671.441 14.744 664.814 14.744V26.744ZM653.376 26.744V14.744C647.08 14.744 641.855 19.6093 641.406 25.889L653.376 26.744ZM653.186 29.86L665.166 30.5485C665.167 30.5409 665.167 30.5332 665.167 30.5256L653.186 29.86ZM652.844 34.762L640.898 33.6243C640.89 33.7115 640.882 33.7989 640.876 33.8863L652.844 34.762ZM652.35 38.752L640.494 36.8994C640.484 36.9599 640.475 37.0204 640.467 37.0809L652.35 38.752ZM651.362 42.362L640.84 36.592C640.818 36.6328 640.796 36.6738 640.774 36.7149L651.362 42.362ZM649.69 44.794L640.427 37.1655C640.382 37.2204 640.337 37.2757 640.293 37.3314L649.69 44.794ZM647.068 46.58L650.616 58.0434L647.068 46.58ZM639.202 46.884H627.202C627.202 53.17 632.053 58.3907 638.322 58.8517L639.202 46.884ZM639.202 40.462L640.69 28.5546C637.275 28.1277 633.841 29.1879 631.26 31.4658C628.68 33.7437 627.202 37.02 627.202 40.462H639.202ZM642.66 40.386L646.873 51.6219C646.993 51.5772 647.111 51.5306 647.229 51.4821L642.66 40.386ZM643.762 39.512L634.449 31.9449C634.351 32.0654 634.255 32.1878 634.162 32.312L643.762 39.512ZM644.56 38.22L633.827 32.8534C633.746 33.0159 633.668 33.1803 633.594 33.3463L644.56 38.22ZM645.13 36.358L656.911 38.6382L645.13 36.358ZM645.472 34.116L633.585 32.4763C633.568 32.5965 633.553 32.7169 633.54 32.8376L645.472 34.116ZM645.7 31.266L633.725 30.485C633.72 30.5715 633.715 30.6581 633.711 30.7447L645.7 31.266ZM645.852 28.074L633.869 27.4433C633.863 27.5482 633.859 27.6532 633.856 27.7583L645.852 28.074ZM646.004 24.388L634.019 23.7887C634.016 23.8529 634.013 23.9172 634.011 23.9814L646.004 24.388ZM646.232 20.284V32.284H672.718V20.284V8.28397H646.232V20.284ZM672.718 20.284H660.718V46.884H672.718H684.718V20.284H672.718ZM672.718 46.884V34.884H664.814V46.884V58.884H672.718V46.884ZM664.814 46.884H676.814V26.744H664.814H652.814V46.884H664.814ZM664.814 26.744V14.744H653.376V26.744V38.744H664.814V26.744ZM653.376 26.744L641.406 25.889C641.349 26.695 641.281 27.8095 641.204 29.1943L653.186 29.86L665.167 30.5256C665.243 29.1744 665.302 28.2116 665.345 27.5989L653.376 26.744ZM653.186 29.86L641.206 29.1715C641.081 31.3479 640.977 32.7957 640.898 33.6243L652.844 34.762L664.79 35.8997C664.914 34.6003 665.038 32.7801 665.166 30.5485L653.186 29.86ZM652.844 34.762L640.876 33.8863C640.833 34.4679 640.722 35.4409 640.494 36.8994L652.35 38.752L664.206 40.6045C664.485 38.8204 664.703 37.1333 664.812 35.6377L652.844 34.762ZM652.35 38.752L640.467 37.0809C640.437 37.297 640.409 37.4567 640.387 37.5667C640.365 37.6779 640.353 37.7195 640.358 37.7028C640.362 37.6881 640.391 37.5838 640.457 37.4108C640.522 37.2409 640.642 36.9541 640.84 36.592L651.362 42.362L661.884 48.132C663.37 45.4226 663.942 42.4942 664.233 40.423L652.35 38.752ZM651.362 42.362L640.774 36.7149C640.81 36.6473 640.811 36.6557 640.751 36.7416C640.693 36.8265 640.59 36.9676 640.427 37.1655L649.69 44.794L658.953 52.4225C660.029 51.116 661.079 49.6424 661.95 48.009L651.362 42.362ZM649.69 44.794L640.293 37.3314C640.672 36.8535 641.164 36.3786 641.766 35.9687C642.367 35.5596 642.973 35.2859 643.52 35.1165L647.068 46.58L650.616 58.0434C653.957 57.0093 656.881 55.0353 659.087 52.2566L649.69 44.794ZM647.068 46.58L643.52 35.1165C643.716 35.0557 643.81 35.047 643.767 35.0526C643.725 35.0582 643.577 35.074 643.306 35.074V47.074V59.074C645.617 59.074 648.121 58.8158 650.616 58.0434L647.068 46.58ZM643.306 47.074V35.074C642.719 35.074 641.684 35.0341 640.082 34.9163L639.202 46.884L638.322 58.8517C640.165 58.9872 641.866 59.074 643.306 59.074V47.074ZM639.202 46.884H651.202V40.462H639.202H627.202V46.884H639.202ZM639.202 40.462L637.714 52.3693C638.787 52.5034 639.998 52.614 641.216 52.614V40.614V28.614C641.318 28.614 641.326 28.6183 641.217 28.61C641.112 28.6021 640.94 28.5859 640.69 28.5546L639.202 40.462ZM641.216 40.614V52.614C642.819 52.614 644.796 52.4011 646.873 51.6219L642.66 40.386L638.446 29.15C639.714 28.6749 640.728 28.614 641.216 28.614V40.614ZM642.66 40.386L647.229 51.4821C649.831 50.4109 651.88 48.6883 653.362 46.712L643.762 39.512L634.162 32.312C635.036 31.1463 636.351 30.0064 638.091 29.2898L642.66 40.386ZM643.762 39.512L653.075 47.0791C654.041 45.891 654.874 44.5605 655.526 43.0936L644.56 38.22L633.594 33.3463C633.841 32.7915 634.142 32.3223 634.449 31.9449L643.762 39.512ZM644.56 38.22L655.293 43.5865C656.204 41.7644 656.655 39.9608 656.911 38.6382L645.13 36.358L633.349 34.0777C633.335 34.1457 633.346 34.0747 633.399 33.8999C633.449 33.736 633.575 33.3572 633.827 32.8534L644.56 38.22ZM645.13 36.358L656.911 38.6382C657.12 37.5603 657.288 36.477 657.404 35.3944L645.472 34.116L633.54 32.8376C633.504 33.1736 633.444 33.585 633.349 34.0777L645.13 36.358ZM645.472 34.116L657.359 35.7556C657.532 34.5029 657.63 33.1413 657.689 31.7872L645.7 31.266L633.711 30.7447C633.669 31.7213 633.614 32.2597 633.585 32.4763L645.472 34.116ZM645.7 31.266L657.675 32.0469C657.759 30.7579 657.818 29.5359 657.848 28.3897L645.852 28.074L633.856 27.7583C633.836 28.5373 633.793 29.4434 633.725 30.485L645.7 31.266ZM645.852 28.074L657.835 28.7047C657.891 27.6385 657.945 26.3281 657.997 24.7945L646.004 24.388L634.011 23.9814C633.962 25.4371 633.914 26.5841 633.869 27.4433L645.852 28.074ZM646.004 24.388L657.989 24.9872C658.063 23.5054 658.136 22.1884 658.209 21.0325L646.232 20.284L634.255 19.5354C634.176 20.8116 634.097 22.2306 634.019 23.7887L646.004 24.388ZM705.221 44.794L712.078 54.6423C712.086 54.6365 712.095 54.6306 712.103 54.6248L705.221 44.794ZM679.115 46.884H667.115C667.115 53.5114 672.488 58.884 679.115 58.884V46.884ZM679.115 20.284V8.28397C672.488 8.28397 667.115 13.6566 667.115 20.284L679.115 20.284ZM687.019 20.284H699.019C699.019 13.6566 693.647 8.28397 687.019 8.28397V20.284ZM687.019 29.328H675.019C675.019 35.9554 680.392 41.328 687.019 41.328V29.328ZM687.019 35.56V23.56C680.392 23.56 675.019 28.9326 675.019 35.56H687.019ZM687.019 40.424H675.019C675.019 47.0514 680.392 52.424 687.019 52.424V40.424ZM697.203 29.328V41.328C698.887 41.328 698.915 41.6896 698.34 41.2868L705.221 31.456L712.103 21.6252C707.474 18.385 702.157 17.328 697.203 17.328V29.328ZM705.221 31.456L698.34 41.2868C697.614 40.7784 696.968 40.018 696.577 39.1576C696.225 38.3839 696.261 37.9346 696.261 38.144H708.261H720.261C720.261 32.2006 718.086 25.8133 712.103 21.6252L705.221 31.456ZM708.261 38.144H696.261C696.261 38.3271 696.23 37.861 696.588 37.0784C696.984 36.212 697.629 35.4604 698.34 34.9632L705.221 44.794L712.103 54.6248C718.057 50.4566 720.261 44.1047 720.261 38.144H708.261ZM705.221 44.794L698.365 34.9457C698.67 34.7332 698.835 34.7115 698.689 34.7495C698.523 34.7929 698.06 34.884 697.203 34.884V46.884V58.884C702.112 58.884 707.442 57.8698 712.078 54.6423L705.221 44.794ZM697.203 46.884V34.884H682.421V46.884V58.884H697.203V46.884ZM682.421 46.884V34.884H679.115V46.884V58.884H682.421V46.884ZM679.115 46.884H691.115V20.284H679.115H667.115V46.884H679.115ZM679.115 20.284V32.284H687.019V20.284V8.28397H679.115V20.284ZM687.019 20.284H675.019V29.328H687.019H699.019V20.284H687.019ZM687.019 29.328V41.328H697.203V29.328V17.328H687.019V29.328ZM696.823 40.424V52.424C699.005 52.424 702.768 52.1161 706.277 49.7014C710.595 46.7299 712.357 42.138 712.357 37.992H700.357H688.357C688.357 36.9432 688.552 35.4456 689.337 33.8248C690.149 32.1472 691.356 30.8355 692.671 29.9306C693.908 29.0794 695.032 28.7259 695.686 28.5758C696.341 28.4256 696.762 28.424 696.823 28.424V40.424ZM700.357 37.992H712.357C712.357 33.846 710.595 29.254 706.277 26.2826C702.768 23.8679 699.005 23.56 696.823 23.56V35.56V47.56C696.762 47.56 696.341 47.5584 695.686 47.4082C695.032 47.258 693.908 46.9045 692.671 46.0534C691.356 45.1485 690.149 43.8367 689.337 42.1591C688.552 40.5383 688.357 39.0408 688.357 37.992H700.357ZM696.823 35.56V23.56H687.019V35.56V47.56H696.823V35.56ZM687.019 35.56H675.019V40.424H687.019H699.019V35.56H687.019ZM687.019 40.424V52.424H696.823V40.424V28.424H687.019V40.424Z" fill="#282828" mask="url(#path-1-outside-1_272_209)"></path></svg>