<svg xmlns="http://www.w3.org/2000/svg" width="409" height="104" viewBox="0 0 409 104" fill="none"><mask id="path-1-outside-1_923_83" maskUnits="userSpaceOnUse" x="-0.498047" y="-0.116211" width="410" height="104" fill="black"><rect fill="white" x="-0.498047" y="-0.116211" width="410" height="104"></rect><path d="M34.1156 33.3178C39.765 33.8245 42.5896 35.9271 42.5896 39.6258C42.5896 41.8805 41.589 43.6538 39.5876 44.9458C37.5863 46.2378 34.597 46.8838 30.6196 46.8838H11.9996V20.2838H30.6196C33.9636 20.2838 36.5983 20.9425 38.5236 22.2598C40.4743 23.5771 41.4496 25.2998 41.4496 27.4278C41.4496 30.7465 39.005 32.7098 34.1156 33.3178ZM19.9036 26.3638V30.5818H30.2396C31.2783 30.5818 32.089 30.3918 32.6716 30.0118C33.2543 29.6318 33.5456 29.1125 33.5456 28.4538C33.5456 27.0605 32.4436 26.3638 30.2396 26.3638H19.9036ZM29.8216 40.8038C31.5696 40.8038 32.811 40.6391 33.5456 40.3098C34.3056 39.9805 34.6856 39.4105 34.6856 38.5998C34.6856 37.7638 34.3183 37.1811 33.5836 36.8518C32.849 36.5225 31.7216 36.3578 30.2016 36.3578H19.9036V40.8038H29.8216ZM64.5082 29.3278C67.8269 29.3278 70.4995 30.0371 72.5262 31.4558C74.5529 32.8745 75.5662 35.1038 75.5662 38.1438C75.5662 41.1585 74.5529 43.3751 72.5262 44.7938C70.5249 46.1871 67.8522 46.8838 64.5082 46.8838H50.4482H47.1422V20.2838H55.0462V29.3278H64.5082ZM79.4802 20.2838H87.3842V46.8838H79.4802V20.2838ZM64.1282 40.4238C66.4842 40.4238 67.6622 39.6131 67.6622 37.9918C67.6622 36.3705 66.4842 35.5598 64.1282 35.5598H55.0462V40.4238H64.1282ZM112.486 30.1258C115.779 30.1258 118.439 30.8225 120.466 32.2158C122.518 33.5838 123.544 35.6738 123.544 38.4858C123.544 41.3485 122.53 43.4638 120.504 44.8318C118.477 46.1998 115.804 46.8838 112.486 46.8838H97.0576H93.7516V20.2838H101.656H120.656V26.3638H101.656V30.1258H112.486ZM111.878 40.8038C114.386 40.8038 115.64 40.0185 115.64 38.4478C115.64 36.9025 114.386 36.1298 111.878 36.1298H101.656V40.8038H111.878ZM147.879 20.2838H160.039V46.8838H152.325V25.8698L140.089 46.8838H127.929V20.2838H135.643V41.2978L147.879 20.2838ZM184.842 20.2838C188.034 20.2838 190.668 21.0311 192.746 22.5258C194.848 23.9951 195.9 26.2371 195.9 29.2518C195.9 32.2665 194.899 34.4578 192.898 35.8258C190.896 37.1685 188.211 37.8398 184.842 37.8398H174.316V46.8838H166.412V20.2838H174.316H184.842ZM184.462 31.7598C186.818 31.7598 187.996 30.9238 187.996 29.2518C187.996 27.5798 186.818 26.7438 184.462 26.7438H174.316V31.7598H184.462ZM221.8 46.8838L219.634 41.7538H204.282L202.116 46.8838H194.326L205.992 20.2838H218.152L229.856 46.8838H221.8ZM206.828 35.8258H217.126L211.958 23.6658L206.828 35.8258ZM258.283 11.9998C258.106 16.1798 255.18 18.2698 249.505 18.2698C243.831 18.2698 240.905 16.1798 240.727 11.9998H245.743C245.921 13.4945 247.175 14.2418 249.505 14.2418C251.811 14.2418 253.052 13.4945 253.229 11.9998H258.283ZM253.381 20.2838H265.541V46.8838H257.827V25.8698L245.591 46.8838H233.431V20.2838H241.145V41.2978L253.381 20.2838ZM271.382 52.4318V39.5878H279.59V44.1478L274.726 52.4318H271.382ZM316.823 20.2838H324.727V46.8838H316.823V37.2698C313.276 37.8018 310.135 38.0678 307.399 38.0678C303.371 38.0678 300.305 37.3205 298.203 35.8258C296.1 34.3058 295.049 32.1398 295.049 29.3278V20.2838H302.953V27.8838C302.953 29.3278 303.485 30.3158 304.549 30.8478C305.613 31.3545 307.335 31.6078 309.717 31.6078C312.149 31.6078 314.517 31.3671 316.823 30.8858V20.2838ZM328.823 26.7438V20.2838H359.147V26.7438H347.937V46.8838H340.033V26.7438H328.823ZM365.874 43.6918C362.758 41.2598 361.2 37.8905 361.2 33.5838C361.2 29.2771 362.758 25.9078 365.874 23.4758C368.99 21.0438 373.322 19.8278 378.87 19.8278C384.418 19.8278 388.75 21.0438 391.866 23.4758C394.982 25.9078 396.54 29.2771 396.54 33.5838C396.54 37.8905 394.982 41.2598 391.866 43.6918C388.75 46.1238 384.418 47.3398 378.87 47.3398C373.322 47.3398 368.99 46.1238 365.874 43.6918ZM371.65 28.2638C369.953 29.5811 369.104 31.3545 369.104 33.5838C369.104 35.8131 369.953 37.5991 371.65 38.9418C373.373 40.2591 375.78 40.9178 378.87 40.9178C381.961 40.9178 384.355 40.2591 386.052 38.9418C387.775 37.5991 388.636 35.8131 388.636 33.5838C388.636 31.3545 387.775 29.5811 386.052 28.2638C384.355 26.9211 381.961 26.2498 378.87 26.2498C375.78 26.2498 373.373 26.9211 371.65 28.2638ZM43.9753 90.8838H33.9813L23.8733 80.5858H19.9593V90.8838H12.0553V64.2838H19.9593V74.5438H23.7213L33.3353 64.2838H42.7973L29.9913 77.0518L43.9753 90.8838ZM52.1661 64.2838H78.6521V90.8838H70.7481V70.7438H59.3101C59.2594 71.4531 59.1961 72.4918 59.1201 73.8598C58.9934 76.0638 58.8794 77.6978 58.7781 78.7618C58.7021 79.8005 58.5374 81.1305 58.2841 82.7518C58.0561 84.3731 57.7267 85.5765 57.2961 86.3618C56.8907 87.1218 56.3334 87.9325 55.6241 88.7938C54.9401 89.6551 54.0661 90.2505 53.0021 90.5798C51.9381 90.9091 50.6841 91.0738 49.2401 91.0738C48.2267 91.0738 46.8587 91.0105 45.1361 90.8838V84.4618C45.9467 84.5631 46.6181 84.6138 47.1501 84.6138C47.7074 84.6138 48.1887 84.5378 48.5941 84.3858C49.0247 84.2085 49.3921 83.9171 49.6961 83.5118C50.0254 83.1065 50.2914 82.6758 50.4941 82.2198C50.7221 81.7638 50.9121 81.1431 51.0641 80.3578C51.2161 79.5725 51.3301 78.8251 51.4061 78.1158C51.5074 77.3811 51.5834 76.4311 51.6341 75.2658C51.7101 74.1005 51.7607 73.0365 51.7861 72.0738C51.8367 71.1111 51.8874 69.8825 51.9381 68.3878C52.0141 66.8678 52.0901 65.4998 52.1661 64.2838ZM85.0494 90.8838V64.2838H112.143V70.4398H92.9534V74.4678H107.925V80.2438H92.9534V84.7278H112.865V90.8838H85.0494ZM137.767 64.2838H149.927V90.8838H142.213V69.8698L129.977 90.8838H117.817V64.2838H125.531V85.2978L137.767 64.2838ZM154.019 70.7438V64.2838H184.343V70.7438H173.133V90.8838H165.229V70.7438H154.019ZM211.895 81.0798L219.571 81.4598C219.039 84.7025 217.43 87.1598 214.745 88.8318C212.085 90.5038 208.437 91.3398 203.801 91.3398C198.278 91.3398 193.997 90.1365 190.957 87.7298C187.917 85.2978 186.397 81.9158 186.397 77.5838C186.397 73.2518 187.879 69.8825 190.843 67.4758C193.807 65.0438 197.961 63.8278 203.307 63.8278C207.689 63.8278 211.249 64.6765 213.985 66.3738C216.721 68.0458 218.393 70.3258 219.001 73.2138L211.401 73.7078C210.97 72.6691 210.02 71.8331 208.551 71.1998C207.081 70.5665 205.333 70.2498 203.307 70.2498C200.419 70.2498 198.189 70.9211 196.619 72.2638C195.073 73.5811 194.301 75.3545 194.301 77.5838C194.301 79.8385 195.111 81.6245 196.733 82.9418C198.379 84.2591 200.735 84.9178 203.801 84.9178C206.005 84.9178 207.791 84.5631 209.159 83.8538C210.552 83.1445 211.464 82.2198 211.895 81.0798ZM252.943 64.2838V90.8838H245.039V81.4598H239.377L231.397 90.8838H221.403L230.599 81.2698C225.228 80.5858 222.543 77.8751 222.543 73.1378C222.543 70.1738 223.582 67.9571 225.659 66.4878C227.762 65.0185 230.409 64.2838 233.601 64.2838H252.943ZM233.981 75.5318H245.039V70.5918H233.981C232.917 70.5918 232.056 70.8198 231.397 71.2758C230.764 71.7318 230.447 72.3525 230.447 73.1378C230.447 73.9231 230.764 74.5185 231.397 74.9238C232.03 75.3291 232.892 75.5318 233.981 75.5318ZM267.203 70.7438V64.2838H297.527V70.7438H286.317V90.8838H278.413V70.7438H267.203ZM301.62 90.8838V64.2838H328.714V70.4398H309.524V74.4678H324.496V80.2438H309.524V84.7278H329.436V90.8838H301.62ZM353.121 74.1258C356.415 74.1258 359.075 74.8225 361.101 76.2158C363.153 77.5838 364.179 79.6738 364.179 82.4858C364.179 85.3485 363.166 87.4638 361.139 88.8318C359.113 90.1998 356.44 90.8838 353.121 90.8838H337.693H334.387V64.2838H342.291H361.291V70.3638H342.291V74.1258H353.121ZM352.513 84.8038C355.021 84.8038 356.275 84.0185 356.275 82.4478C356.275 80.9025 355.021 80.1298 352.513 80.1298H342.291V84.8038H352.513ZM368.565 90.8838V64.2838H395.659V70.4398H376.469V74.4678H391.441V80.2438H376.469V84.7278H396.381V90.8838H368.565Z"></path></mask><path d="M34.1156 33.3178C39.765 33.8245 42.5896 35.9271 42.5896 39.6258C42.5896 41.8805 41.589 43.6538 39.5876 44.9458C37.5863 46.2378 34.597 46.8838 30.6196 46.8838H11.9996V20.2838H30.6196C33.9636 20.2838 36.5983 20.9425 38.5236 22.2598C40.4743 23.5771 41.4496 25.2998 41.4496 27.4278C41.4496 30.7465 39.005 32.7098 34.1156 33.3178ZM19.9036 26.3638V30.5818H30.2396C31.2783 30.5818 32.089 30.3918 32.6716 30.0118C33.2543 29.6318 33.5456 29.1125 33.5456 28.4538C33.5456 27.0605 32.4436 26.3638 30.2396 26.3638H19.9036ZM29.8216 40.8038C31.5696 40.8038 32.811 40.6391 33.5456 40.3098C34.3056 39.9805 34.6856 39.4105 34.6856 38.5998C34.6856 37.7638 34.3183 37.1811 33.5836 36.8518C32.849 36.5225 31.7216 36.3578 30.2016 36.3578H19.9036V40.8038H29.8216ZM64.5082 29.3278C67.8269 29.3278 70.4995 30.0371 72.5262 31.4558C74.5529 32.8745 75.5662 35.1038 75.5662 38.1438C75.5662 41.1585 74.5529 43.3751 72.5262 44.7938C70.5249 46.1871 67.8522 46.8838 64.5082 46.8838H50.4482H47.1422V20.2838H55.0462V29.3278H64.5082ZM79.4802 20.2838H87.3842V46.8838H79.4802V20.2838ZM64.1282 40.4238C66.4842 40.4238 67.6622 39.6131 67.6622 37.9918C67.6622 36.3705 66.4842 35.5598 64.1282 35.5598H55.0462V40.4238H64.1282ZM112.486 30.1258C115.779 30.1258 118.439 30.8225 120.466 32.2158C122.518 33.5838 123.544 35.6738 123.544 38.4858C123.544 41.3485 122.53 43.4638 120.504 44.8318C118.477 46.1998 115.804 46.8838 112.486 46.8838H97.0576H93.7516V20.2838H101.656H120.656V26.3638H101.656V30.1258H112.486ZM111.878 40.8038C114.386 40.8038 115.64 40.0185 115.64 38.4478C115.64 36.9025 114.386 36.1298 111.878 36.1298H101.656V40.8038H111.878ZM147.879 20.2838H160.039V46.8838H152.325V25.8698L140.089 46.8838H127.929V20.2838H135.643V41.2978L147.879 20.2838ZM184.842 20.2838C188.034 20.2838 190.668 21.0311 192.746 22.5258C194.848 23.9951 195.9 26.2371 195.9 29.2518C195.9 32.2665 194.899 34.4578 192.898 35.8258C190.896 37.1685 188.211 37.8398 184.842 37.8398H174.316V46.8838H166.412V20.2838H174.316H184.842ZM184.462 31.7598C186.818 31.7598 187.996 30.9238 187.996 29.2518C187.996 27.5798 186.818 26.7438 184.462 26.7438H174.316V31.7598H184.462ZM221.8 46.8838L219.634 41.7538H204.282L202.116 46.8838H194.326L205.992 20.2838H218.152L229.856 46.8838H221.8ZM206.828 35.8258H217.126L211.958 23.6658L206.828 35.8258ZM258.283 11.9998C258.106 16.1798 255.18 18.2698 249.505 18.2698C243.831 18.2698 240.905 16.1798 240.727 11.9998H245.743C245.921 13.4945 247.175 14.2418 249.505 14.2418C251.811 14.2418 253.052 13.4945 253.229 11.9998H258.283ZM253.381 20.2838H265.541V46.8838H257.827V25.8698L245.591 46.8838H233.431V20.2838H241.145V41.2978L253.381 20.2838ZM271.382 52.4318V39.5878H279.59V44.1478L274.726 52.4318H271.382ZM316.823 20.2838H324.727V46.8838H316.823V37.2698C313.276 37.8018 310.135 38.0678 307.399 38.0678C303.371 38.0678 300.305 37.3205 298.203 35.8258C296.1 34.3058 295.049 32.1398 295.049 29.3278V20.2838H302.953V27.8838C302.953 29.3278 303.485 30.3158 304.549 30.8478C305.613 31.3545 307.335 31.6078 309.717 31.6078C312.149 31.6078 314.517 31.3671 316.823 30.8858V20.2838ZM328.823 26.7438V20.2838H359.147V26.7438H347.937V46.8838H340.033V26.7438H328.823ZM365.874 43.6918C362.758 41.2598 361.2 37.8905 361.2 33.5838C361.2 29.2771 362.758 25.9078 365.874 23.4758C368.99 21.0438 373.322 19.8278 378.87 19.8278C384.418 19.8278 388.75 21.0438 391.866 23.4758C394.982 25.9078 396.54 29.2771 396.54 33.5838C396.54 37.8905 394.982 41.2598 391.866 43.6918C388.75 46.1238 384.418 47.3398 378.87 47.3398C373.322 47.3398 368.99 46.1238 365.874 43.6918ZM371.65 28.2638C369.953 29.5811 369.104 31.3545 369.104 33.5838C369.104 35.8131 369.953 37.5991 371.65 38.9418C373.373 40.2591 375.78 40.9178 378.87 40.9178C381.961 40.9178 384.355 40.2591 386.052 38.9418C387.775 37.5991 388.636 35.8131 388.636 33.5838C388.636 31.3545 387.775 29.5811 386.052 28.2638C384.355 26.9211 381.961 26.2498 378.87 26.2498C375.78 26.2498 373.373 26.9211 371.65 28.2638ZM43.9753 90.8838H33.9813L23.8733 80.5858H19.9593V90.8838H12.0553V64.2838H19.9593V74.5438H23.7213L33.3353 64.2838H42.7973L29.9913 77.0518L43.9753 90.8838ZM52.1661 64.2838H78.6521V90.8838H70.7481V70.7438H59.3101C59.2594 71.4531 59.1961 72.4918 59.1201 73.8598C58.9934 76.0638 58.8794 77.6978 58.7781 78.7618C58.7021 79.8005 58.5374 81.1305 58.2841 82.7518C58.0561 84.3731 57.7267 85.5765 57.2961 86.3618C56.8907 87.1218 56.3334 87.9325 55.6241 88.7938C54.9401 89.6551 54.0661 90.2505 53.0021 90.5798C51.9381 90.9091 50.6841 91.0738 49.2401 91.0738C48.2267 91.0738 46.8587 91.0105 45.1361 90.8838V84.4618C45.9467 84.5631 46.6181 84.6138 47.1501 84.6138C47.7074 84.6138 48.1887 84.5378 48.5941 84.3858C49.0247 84.2085 49.3921 83.9171 49.6961 83.5118C50.0254 83.1065 50.2914 82.6758 50.4941 82.2198C50.7221 81.7638 50.9121 81.1431 51.0641 80.3578C51.2161 79.5725 51.3301 78.8251 51.4061 78.1158C51.5074 77.3811 51.5834 76.4311 51.6341 75.2658C51.7101 74.1005 51.7607 73.0365 51.7861 72.0738C51.8367 71.1111 51.8874 69.8825 51.9381 68.3878C52.0141 66.8678 52.0901 65.4998 52.1661 64.2838ZM85.0494 90.8838V64.2838H112.143V70.4398H92.9534V74.4678H107.925V80.2438H92.9534V84.7278H112.865V90.8838H85.0494ZM137.767 64.2838H149.927V90.8838H142.213V69.8698L129.977 90.8838H117.817V64.2838H125.531V85.2978L137.767 64.2838ZM154.019 70.7438V64.2838H184.343V70.7438H173.133V90.8838H165.229V70.7438H154.019ZM211.895 81.0798L219.571 81.4598C219.039 84.7025 217.43 87.1598 214.745 88.8318C212.085 90.5038 208.437 91.3398 203.801 91.3398C198.278 91.3398 193.997 90.1365 190.957 87.7298C187.917 85.2978 186.397 81.9158 186.397 77.5838C186.397 73.2518 187.879 69.8825 190.843 67.4758C193.807 65.0438 197.961 63.8278 203.307 63.8278C207.689 63.8278 211.249 64.6765 213.985 66.3738C216.721 68.0458 218.393 70.3258 219.001 73.2138L211.401 73.7078C210.97 72.6691 210.02 71.8331 208.551 71.1998C207.081 70.5665 205.333 70.2498 203.307 70.2498C200.419 70.2498 198.189 70.9211 196.619 72.2638C195.073 73.5811 194.301 75.3545 194.301 77.5838C194.301 79.8385 195.111 81.6245 196.733 82.9418C198.379 84.2591 200.735 84.9178 203.801 84.9178C206.005 84.9178 207.791 84.5631 209.159 83.8538C210.552 83.1445 211.464 82.2198 211.895 81.0798ZM252.943 64.2838V90.8838H245.039V81.4598H239.377L231.397 90.8838H221.403L230.599 81.2698C225.228 80.5858 222.543 77.8751 222.543 73.1378C222.543 70.1738 223.582 67.9571 225.659 66.4878C227.762 65.0185 230.409 64.2838 233.601 64.2838H252.943ZM233.981 75.5318H245.039V70.5918H233.981C232.917 70.5918 232.056 70.8198 231.397 71.2758C230.764 71.7318 230.447 72.3525 230.447 73.1378C230.447 73.9231 230.764 74.5185 231.397 74.9238C232.03 75.3291 232.892 75.5318 233.981 75.5318ZM267.203 70.7438V64.2838H297.527V70.7438H286.317V90.8838H278.413V70.7438H267.203ZM301.62 90.8838V64.2838H328.714V70.4398H309.524V74.4678H324.496V80.2438H309.524V84.7278H329.436V90.8838H301.62ZM353.121 74.1258C356.415 74.1258 359.075 74.8225 361.101 76.2158C363.153 77.5838 364.179 79.6738 364.179 82.4858C364.179 85.3485 363.166 87.4638 361.139 88.8318C359.113 90.1998 356.44 90.8838 353.121 90.8838H337.693H334.387V64.2838H342.291H361.291V70.3638H342.291V74.1258H353.121ZM352.513 84.8038C355.021 84.8038 356.275 84.0185 356.275 82.4478C356.275 80.9025 355.021 80.1298 352.513 80.1298H342.291V84.8038H352.513ZM368.565 90.8838V64.2838H395.659V70.4398H376.469V74.4678H391.441V80.2438H376.469V84.7278H396.381V90.8838H368.565Z" fill="white"></path><path d="M34.1156 33.3178L32.6348 21.4095C26.5484 22.1664 22.0123 27.391 22.1174 33.5234C22.2225 39.6558 26.9349 44.7219 33.0437 45.2698L34.1156 33.3178ZM39.5876 44.9458L46.096 55.0275L46.096 55.0275L39.5876 44.9458ZM11.9996 46.8838H-0.000382572C-0.000382572 53.5112 5.3722 58.8838 11.9996 58.8838L11.9996 46.8838ZM11.9996 20.2838V8.28379C5.3722 8.28379 -0.000382572 13.6564 -0.000382572 20.2838L11.9996 20.2838ZM38.5236 22.2598L31.7474 32.1635C31.7675 32.1772 31.7876 32.1909 31.8077 32.2045L38.5236 22.2598ZM19.9036 26.3638V14.3638C13.2762 14.3638 7.90362 19.7364 7.90362 26.3638L19.9036 26.3638ZM19.9036 30.5818H7.90362C7.90362 37.2092 13.2762 42.5818 19.9036 42.5818L19.9036 30.5818ZM32.6716 30.0118L26.1164 19.9605L26.1164 19.9605L32.6716 30.0118ZM33.5456 40.3098L28.7743 29.2991C28.7284 29.319 28.6826 29.3392 28.6369 29.3597L33.5456 40.3098ZM33.5836 36.8518L28.6749 47.8019L28.675 47.8019L33.5836 36.8518ZM19.9036 36.3578V24.3578C13.2762 24.3578 7.90362 29.7304 7.90362 36.3578H19.9036ZM19.9036 40.8038H7.90362C7.90362 47.4312 13.2762 52.8038 19.9036 52.8038L19.9036 40.8038ZM34.1156 33.3178L33.0437 45.2698C33.8404 45.3413 34.2188 45.4432 34.2916 45.4656C34.3672 45.489 33.9394 45.3723 33.3057 44.9006C32.6153 44.3867 31.8336 43.5598 31.2709 42.4042C30.718 41.2686 30.5896 40.2544 30.5896 39.6258H42.5896H54.5896C54.5896 34.2077 52.2658 29.095 47.6365 25.649C43.6704 22.6966 39.0001 21.7077 35.1875 21.3658L34.1156 33.3178ZM42.5896 39.6258H30.5896C30.5896 38.9136 30.7671 37.8502 31.3882 36.7495C31.9939 35.6761 32.724 35.0934 33.0792 34.8641L39.5876 44.9458L46.096 55.0275C51.2886 51.6753 54.5896 46.2245 54.5896 39.6258H42.5896ZM39.5876 44.9458L33.0792 34.8641C33.5831 34.5388 33.7738 34.5698 33.3099 34.67C32.8532 34.7687 31.9953 34.8838 30.6196 34.8838V46.8838V58.8838C35.5219 58.8838 41.2511 58.1552 46.096 55.0275L39.5876 44.9458ZM30.6196 46.8838V34.8838H11.9996V46.8838V58.8838H30.6196V46.8838ZM11.9996 46.8838H23.9996V20.2838H11.9996H-0.000382572V46.8838H11.9996ZM11.9996 20.2838V32.2838H30.6196V20.2838V8.28379H11.9996V20.2838ZM30.6196 20.2838V32.2838C31.5269 32.2838 32.0169 32.3754 32.1932 32.4195C32.3517 32.4591 32.1356 32.4291 31.7474 32.1635L38.5236 22.2598L45.2998 12.3561C40.6858 9.19912 35.3785 8.28379 30.6196 8.28379V20.2838ZM38.5236 22.2598L31.8077 32.2045C31.5342 32.0198 30.8591 31.4825 30.2757 30.4521C29.6662 29.3756 29.4496 28.2757 29.4496 27.4278H41.4496H53.4496C53.4496 20.8402 50.0822 15.5855 45.2395 12.3151L38.5236 22.2598ZM41.4496 27.4278H29.4496C29.4496 26.7611 29.5794 25.7495 30.1011 24.6224C30.6321 23.475 31.3841 22.6096 32.1021 22.0331C33.3405 21.0384 34.0243 21.2367 32.6348 21.4095L34.1156 33.3178L35.5964 45.2261C39.0962 44.7909 43.447 43.7035 47.1302 40.7455C51.3742 37.3371 53.4496 32.4797 53.4496 27.4278H41.4496ZM19.9036 26.3638H7.90362V30.5818H19.9036H31.9036V26.3638H19.9036ZM19.9036 30.5818V42.5818H30.2396V30.5818V18.5818H19.9036V30.5818ZM30.2396 30.5818V42.5818C32.5295 42.5818 35.9548 42.1971 39.2268 40.0631L32.6716 30.0118L26.1164 19.9605C28.2231 18.5865 30.0271 18.5818 30.2396 18.5818V30.5818ZM32.6716 30.0118L39.2268 40.0631C42.9778 37.6168 45.5456 33.433 45.5456 28.4538H33.5456H21.5456C21.5456 26.9502 21.8972 25.185 22.8614 23.4663C23.8105 21.7743 25.0592 20.6499 26.1164 19.9605L32.6716 30.0118ZM33.5456 28.4538H45.5456C45.5456 23.9814 43.4389 19.4663 39.1314 16.7432C35.7518 14.6067 32.2189 14.3638 30.2396 14.3638V26.3638V38.3638C30.1954 38.3638 29.8145 38.3636 29.2116 38.2365C28.6199 38.1118 27.5363 37.8066 26.3068 37.0294C24.9965 36.201 23.6645 34.9198 22.7242 33.1363C21.802 31.3875 21.5456 29.7064 21.5456 28.4538H33.5456ZM30.2396 26.3638V14.3638H19.9036V26.3638V38.3638H30.2396V26.3638ZM29.8216 40.8038V52.8038C31.7356 52.8038 35.2168 52.7112 38.4543 51.2599L33.5456 40.3098L28.6369 29.3597C29.2405 29.0891 29.7217 28.9511 29.9892 28.8842C30.2671 28.8147 30.4447 28.7899 30.4856 28.7845C30.5472 28.7763 30.3573 28.8038 29.8216 28.8038V40.8038ZM33.5456 40.3098L38.3169 51.3205C40.3702 50.4307 42.667 48.8691 44.3852 46.2917C46.1152 43.6968 46.6856 40.9314 46.6856 38.5998H34.6856H22.6856C22.6856 37.0788 23.0661 35.0038 24.416 32.9789C25.7543 30.9715 27.481 29.8596 28.7743 29.2991L33.5456 40.3098ZM34.6856 38.5998H46.6856C46.6856 36.4036 46.1885 33.7173 44.5612 31.1362C42.9151 28.525 40.6446 26.8665 38.4923 25.9017L33.5836 36.8518L28.675 47.8019C27.2573 47.1664 25.5378 45.9639 24.259 43.9354C22.9991 41.9369 22.6856 39.96 22.6856 38.5998H34.6856ZM33.5836 36.8518L38.4923 25.9017C35.3844 24.5085 32.175 24.3578 30.2016 24.3578V36.3578V48.3578C30.56 48.3578 30.6166 48.3792 30.4527 48.3553C30.3612 48.3419 30.1621 48.3088 29.8818 48.2344C29.6052 48.161 29.1848 48.0305 28.6749 47.8019L33.5836 36.8518ZM30.2016 36.3578V24.3578H19.9036V36.3578V48.3578H30.2016V36.3578ZM19.9036 36.3578H7.90362V40.8038H19.9036H31.9036V36.3578H19.9036ZM19.9036 40.8038V52.8038H29.8216V40.8038V28.8038H19.9036V40.8038ZM72.5262 44.7938L79.3826 54.6421C79.391 54.6363 79.3994 54.6304 79.4077 54.6246L72.5262 44.7938ZM47.1422 46.8838H35.1422C35.1422 53.5112 40.5148 58.8838 47.1422 58.8838V46.8838ZM47.1422 20.2838V8.28379C40.5148 8.28379 35.1422 13.6564 35.1422 20.2838L47.1422 20.2838ZM55.0462 20.2838H67.0462C67.0462 13.6564 61.6736 8.28379 55.0462 8.28379V20.2838ZM55.0462 29.3278H43.0462C43.0462 35.9552 48.4188 41.3278 55.0462 41.3278V29.3278ZM79.4802 20.2838V8.28379C72.8528 8.28379 67.4802 13.6564 67.4802 20.2838L79.4802 20.2838ZM87.3842 20.2838H99.3842C99.3842 13.6564 94.0116 8.28379 87.3842 8.28379V20.2838ZM87.3842 46.8838V58.8838C94.0116 58.8838 99.3842 53.5112 99.3842 46.8838H87.3842ZM79.4802 46.8838H67.4802C67.4802 53.5112 72.8528 58.8838 79.4802 58.8838V46.8838ZM55.0462 35.5598V23.5598C48.4188 23.5598 43.0462 28.9324 43.0462 35.5598H55.0462ZM55.0462 40.4238H43.0462C43.0462 47.0512 48.4188 52.4238 55.0462 52.4238V40.4238ZM64.5082 29.3278V41.3278C66.1914 41.3278 66.2202 41.6894 65.6446 41.2866L72.5262 31.4558L79.4077 21.625C74.7789 18.3848 69.4623 17.3278 64.5082 17.3278V29.3278ZM72.5262 31.4558L65.6446 41.2866C64.9184 40.7782 64.2729 40.0178 63.8818 39.1574C63.5301 38.3837 63.5662 37.9344 63.5662 38.1438H75.5662H87.5662C87.5662 32.2004 85.3907 25.8131 79.4077 21.625L72.5262 31.4558ZM75.5662 38.1438H63.5662C63.5662 38.3269 63.5347 37.8608 63.8925 37.0782C64.2885 36.2118 64.9343 35.4603 65.6446 34.963L72.5262 44.7938L79.4077 54.6246C85.3622 50.4565 87.5662 44.1045 87.5662 38.1438H75.5662ZM72.5262 44.7938L65.6698 34.9455C65.9749 34.733 66.1395 34.7113 65.9939 34.7493C65.8275 34.7927 65.3653 34.8838 64.5082 34.8838V46.8838V58.8838C69.4164 58.8838 74.7467 57.8697 79.3826 54.6421L72.5262 44.7938ZM64.5082 46.8838V34.8838H50.4482V46.8838V58.8838H64.5082V46.8838ZM50.4482 46.8838V34.8838H47.1422V46.8838V58.8838H50.4482V46.8838ZM47.1422 46.8838H59.1422V20.2838H47.1422H35.1422V46.8838H47.1422ZM47.1422 20.2838V32.2838H55.0462V20.2838V8.28379H47.1422V20.2838ZM55.0462 20.2838H43.0462V29.3278H55.0462H67.0462V20.2838H55.0462ZM55.0462 29.3278V41.3278H64.5082V29.3278V17.3278H55.0462V29.3278ZM79.4802 20.2838V32.2838H87.3842V20.2838V8.28379H79.4802V20.2838ZM87.3842 20.2838H75.3842V46.8838H87.3842H99.3842V20.2838H87.3842ZM87.3842 46.8838V34.8838H79.4802V46.8838V58.8838H87.3842V46.8838ZM79.4802 46.8838H91.4802V20.2838H79.4802H67.4802V46.8838H79.4802ZM64.1282 40.4238V52.4238C66.3103 52.4238 70.0727 52.1159 73.5816 49.7012C77.8995 46.7297 79.6622 42.1378 79.6622 37.9918H67.6622H55.6622C55.6622 36.943 55.8565 35.4454 56.6415 33.8246C57.4541 32.147 58.6609 30.8353 59.9758 29.9304C61.2127 29.0792 62.3368 28.7257 62.9913 28.5756C63.646 28.4254 64.0672 28.4238 64.1282 28.4238V40.4238ZM67.6622 37.9918H79.6622C79.6622 33.8458 77.8995 29.2539 73.5816 26.2824C70.0727 23.8677 66.3103 23.5598 64.1282 23.5598V35.5598V47.5598C64.0672 47.5598 63.646 47.5582 62.9913 47.408C62.3368 47.2579 61.2127 46.9043 59.9758 46.0532C58.6609 45.1483 57.4541 43.8365 56.6415 42.1589C55.8565 40.5381 55.6622 39.0406 55.6622 37.9918H67.6622ZM64.1282 35.5598V23.5598H55.0462V35.5598V47.5598H64.1282V35.5598ZM55.0462 35.5598H43.0462V40.4238H55.0462H67.0462V35.5598H55.0462ZM55.0462 40.4238V52.4238H64.1282V40.4238V28.4238H55.0462V40.4238ZM120.466 32.2158L113.667 42.1043C113.714 42.1367 113.762 42.1687 113.809 42.2004L120.466 32.2158ZM120.504 44.8318L127.217 54.778L127.217 54.778L120.504 44.8318ZM93.7516 46.8838H81.7516C81.7516 53.5112 87.1242 58.8838 93.7516 58.8838V46.8838ZM93.7516 20.2838V8.28379C87.1242 8.28379 81.7516 13.6564 81.7516 20.2838L93.7516 20.2838ZM120.656 20.2838H132.656C132.656 13.6564 127.283 8.28379 120.656 8.28379V20.2838ZM120.656 26.3638V38.3638C127.283 38.3638 132.656 32.9912 132.656 26.3638L120.656 26.3638ZM101.656 26.3638V14.3638C95.0282 14.3638 89.6556 19.7364 89.6556 26.3638L101.656 26.3638ZM101.656 30.1258H89.6556C89.6556 36.7532 95.0282 42.1258 101.656 42.1258V30.1258ZM101.656 36.1298V24.1298C95.0282 24.1298 89.6556 29.5024 89.6556 36.1298H101.656ZM101.656 40.8038H89.6556C89.6556 47.4312 95.0282 52.8038 101.656 52.8038V40.8038ZM112.486 30.1258V42.1258C114.16 42.1258 114.217 42.4822 113.667 42.1043L120.466 32.2158L127.264 22.3273C122.661 19.1627 117.398 18.1258 112.486 18.1258V30.1258ZM120.466 32.2158L113.809 42.2004C113.181 41.7818 112.478 41.0673 112.002 40.0974C111.556 39.1896 111.544 38.5374 111.544 38.4858H123.544H135.544C135.544 32.3183 133.024 26.166 127.122 22.2312L120.466 32.2158ZM123.544 38.4858H111.544C111.544 38.5111 111.541 37.9127 111.961 37.0349C112.416 36.0847 113.113 35.3424 113.79 34.8856L120.504 44.8318L127.217 54.778C133.152 50.7721 135.544 44.5497 135.544 38.4858H123.544ZM120.504 44.8318L113.79 34.8856C114.34 34.5143 114.245 34.8838 112.486 34.8838V46.8838V58.8838C117.363 58.8838 122.614 57.8853 127.217 54.778L120.504 44.8318ZM112.486 46.8838V34.8838H97.0576V46.8838V58.8838H112.486V46.8838ZM97.0576 46.8838V34.8838H93.7516V46.8838V58.8838H97.0576V46.8838ZM93.7516 46.8838H105.752V20.2838H93.7516H81.7516V46.8838H93.7516ZM93.7516 20.2838V32.2838H101.656V20.2838V8.28379H93.7516V20.2838ZM101.656 20.2838V32.2838H120.656V20.2838V8.28379H101.656V20.2838ZM120.656 20.2838H108.656V26.3638H120.656H132.656V20.2838H120.656ZM120.656 26.3638V14.3638H101.656V26.3638V38.3638H120.656V26.3638ZM101.656 26.3638H89.6556V30.1258H101.656H113.656V26.3638H101.656ZM101.656 30.1258V42.1258H112.486V30.1258V18.1258H101.656V30.1258ZM111.878 40.8038V52.8038C113.996 52.8038 117.624 52.5421 121.068 50.385C125.451 47.6403 127.64 43.06 127.64 38.4478H115.64H103.64C103.64 37.2223 103.894 35.5649 104.811 33.8404C105.746 32.0843 107.061 30.8389 108.33 30.0446C110.52 28.6728 112.267 28.8038 111.878 28.8038V40.8038ZM115.64 38.4478H127.64C127.64 33.7588 125.373 29.1912 120.994 26.4929C117.569 24.3827 113.974 24.1298 111.878 24.1298V36.1298V48.1298C112.289 48.1298 110.575 48.2632 108.404 46.9256C107.143 46.1486 105.808 44.9138 104.85 43.1435C103.906 41.3991 103.64 39.71 103.64 38.4478H115.64ZM111.878 36.1298V24.1298H101.656V36.1298V48.1298H111.878V36.1298ZM101.656 36.1298H89.6556V40.8038H101.656H113.656V36.1298H101.656ZM101.656 40.8038V52.8038H111.878V40.8038V28.8038H101.656V40.8038ZM147.879 20.2838V8.28379C143.608 8.28379 139.659 10.5543 137.509 14.2455L147.879 20.2838ZM160.039 20.2838H172.039C172.039 13.6564 166.667 8.28379 160.039 8.28379V20.2838ZM160.039 46.8838V58.8838C166.667 58.8838 172.039 53.5112 172.039 46.8838H160.039ZM152.325 46.8838H140.325C140.325 53.5112 145.698 58.8838 152.325 58.8838V46.8838ZM152.325 25.8698H164.325C164.325 20.4467 160.688 15.6977 155.453 14.2844C150.217 12.8712 144.684 15.145 141.955 19.8315L152.325 25.8698ZM140.089 46.8838V58.8838C144.361 58.8838 148.31 56.6133 150.459 52.9221L140.089 46.8838ZM127.929 46.8838H115.929C115.929 53.5112 121.302 58.8838 127.929 58.8838V46.8838ZM127.929 20.2838V8.28379C121.302 8.28379 115.929 13.6564 115.929 20.2838L127.929 20.2838ZM135.643 20.2838H147.643C147.643 13.6564 142.271 8.28379 135.643 8.28379V20.2838ZM135.643 41.2978H123.643C123.643 46.7208 127.28 51.4699 132.516 52.8832C137.752 54.2964 143.285 52.0225 146.013 47.3361L135.643 41.2978ZM147.879 20.2838V32.2838H160.039V20.2838V8.28379H147.879V20.2838ZM160.039 20.2838H148.039V46.8838H160.039H172.039V20.2838H160.039ZM160.039 46.8838V34.8838H152.325V46.8838V58.8838H160.039V46.8838ZM152.325 46.8838H164.325V25.8698H152.325H140.325V46.8838H152.325ZM152.325 25.8698L141.955 19.8315L129.719 40.8455L140.089 46.8838L150.459 52.9221L162.695 31.9081L152.325 25.8698ZM140.089 46.8838V34.8838H127.929V46.8838V58.8838H140.089V46.8838ZM127.929 46.8838H139.929V20.2838H127.929H115.929V46.8838H127.929ZM127.929 20.2838V32.2838H135.643V20.2838V8.28379H127.929V20.2838ZM135.643 20.2838H123.643V41.2978H135.643H147.643V20.2838H135.643ZM135.643 41.2978L146.013 47.3361L158.249 26.3221L147.879 20.2838L137.509 14.2455L125.273 35.2595L135.643 41.2978ZM192.746 22.5258L185.737 32.2664C185.782 32.2987 185.827 32.3305 185.872 32.3621L192.746 22.5258ZM192.898 35.8258L199.583 45.7909C199.612 45.7716 199.641 45.7521 199.669 45.7325L192.898 35.8258ZM174.316 37.8398V25.8398C167.688 25.8398 162.316 31.2124 162.316 37.8398H174.316ZM174.316 46.8838V58.8838C180.943 58.8838 186.316 53.5112 186.316 46.8838H174.316ZM166.412 46.8838H154.412C154.412 53.5112 159.784 58.8838 166.412 58.8838V46.8838ZM166.412 20.2838V8.28379C159.784 8.28379 154.412 13.6564 154.412 20.2838L166.412 20.2838ZM174.316 26.7438V14.7438C167.688 14.7438 162.316 20.1164 162.316 26.7438L174.316 26.7438ZM174.316 31.7598H162.316C162.316 38.3872 167.688 43.7598 174.316 43.7598V31.7598ZM184.842 20.2838V32.2838C185.509 32.2838 185.844 32.3624 185.937 32.3888C186.009 32.4092 185.906 32.388 185.737 32.2664L192.746 22.5258L199.754 12.7851C195.178 9.49254 189.92 8.28379 184.842 8.28379V20.2838ZM192.746 22.5258L185.872 32.3621C185.265 31.9382 184.646 31.2559 184.246 30.4041C183.88 29.6224 183.9 29.1298 183.9 29.2518H195.9H207.9C207.9 23.1052 205.53 16.8197 199.619 12.6894L192.746 22.5258ZM195.9 29.2518H183.9C183.9 29.4589 183.863 28.9821 184.233 28.1716C184.647 27.2668 185.335 26.4597 186.126 25.919L192.898 35.8258L199.669 45.7325C205.75 41.5759 207.9 35.1385 207.9 29.2518H195.9ZM192.898 35.8258L186.212 25.8606C186.521 25.6536 186.666 25.6461 186.472 25.6946C186.261 25.7474 185.749 25.8398 184.842 25.8398V37.8398V49.8398C189.678 49.8398 194.962 48.8913 199.583 45.7909L192.898 35.8258ZM184.842 37.8398V25.8398H174.316V37.8398V49.8398H184.842V37.8398ZM174.316 37.8398H162.316V46.8838H174.316H186.316V37.8398H174.316ZM174.316 46.8838V34.8838H166.412V46.8838V58.8838H174.316V46.8838ZM166.412 46.8838H178.412V20.2838H166.412H154.412V46.8838H166.412ZM166.412 20.2838V32.2838H174.316V20.2838V8.28379H166.412V20.2838ZM174.316 20.2838V32.2838H184.842V20.2838V8.28379H174.316V20.2838ZM184.462 31.7598V43.7598C186.695 43.7598 190.52 43.4293 194.057 40.9189C198.35 37.8721 199.996 33.2728 199.996 29.2518H187.996H175.996C175.996 28.2651 176.172 26.8259 176.913 25.2474C177.684 23.6065 178.849 22.2822 180.167 21.3467C181.41 20.4645 182.556 20.0884 183.245 19.9253C183.93 19.7633 184.38 19.7598 184.462 19.7598V31.7598ZM187.996 29.2518H199.996C199.996 25.2308 198.35 20.6315 194.057 17.5847C190.52 15.0743 186.695 14.7438 184.462 14.7438V26.7438V38.7438C184.38 38.7438 183.93 38.7403 183.245 38.5782C182.556 38.4152 181.41 38.0391 180.167 37.1569C178.849 36.2213 177.684 34.8971 176.913 33.2562C176.172 31.6777 175.996 30.2385 175.996 29.2518H187.996ZM184.462 26.7438V14.7438H174.316V26.7438V38.7438H184.462V26.7438ZM174.316 26.7438H162.316V31.7598H174.316H186.316V26.7438H174.316ZM174.316 31.7598V43.7598H184.462V31.7598V19.7598H174.316V31.7598ZM221.8 46.8838L210.745 51.5515C212.622 55.9954 216.977 58.8838 221.8 58.8838V46.8838ZM219.634 41.7538L230.689 37.0861C228.813 32.6422 224.458 29.7538 219.634 29.7538V41.7538ZM204.282 41.7538V29.7538C199.459 29.7538 195.104 32.6422 193.227 37.0861L204.282 41.7538ZM202.116 46.8838V58.8838C206.94 58.8838 211.295 55.9954 213.171 51.5515L202.116 46.8838ZM194.326 46.8838L183.337 42.0641C181.709 45.7745 182.064 50.0556 184.28 53.4475C186.497 56.8393 190.275 58.8838 194.326 58.8838V46.8838ZM205.992 20.2838V8.28379C201.229 8.28379 196.916 11.1015 195.003 15.4641L205.992 20.2838ZM218.152 20.2838L229.136 15.4509C227.22 11.0954 222.911 8.28379 218.152 8.28379V20.2838ZM229.856 46.8838V58.8838C233.91 58.8838 237.691 56.8367 239.906 53.4414C242.122 50.0462 242.473 45.7618 240.84 42.0509L229.856 46.8838ZM206.828 35.8258L195.772 31.1614C194.209 34.8668 194.606 39.1089 196.829 42.4601C199.052 45.8112 202.807 47.8258 206.828 47.8258V35.8258ZM217.126 35.8258V47.8258C221.154 47.8258 224.912 45.8056 227.134 42.4468C229.356 39.088 229.745 34.8385 228.17 31.1321L217.126 35.8258ZM211.958 23.6658L223.002 18.9721C221.117 14.5368 216.762 11.6594 211.942 11.6658C207.123 11.6722 202.775 14.5611 200.902 19.0014L211.958 23.6658ZM221.8 46.8838L232.855 42.2161L230.689 37.0861L219.634 41.7538L208.579 46.4215L210.745 51.5515L221.8 46.8838ZM219.634 41.7538V29.7538H204.282V41.7538V53.7538H219.634V41.7538ZM204.282 41.7538L193.227 37.0861L191.061 42.2161L202.116 46.8838L213.171 51.5515L215.337 46.4215L204.282 41.7538ZM202.116 46.8838V34.8838H194.326V46.8838V58.8838H202.116V46.8838ZM194.326 46.8838L205.316 51.7035L216.982 25.1035L205.992 20.2838L195.003 15.4641L183.337 42.0641L194.326 46.8838ZM205.992 20.2838V32.2838H218.152V20.2838V8.28379H205.992V20.2838ZM218.152 20.2838L207.169 25.1167L218.873 51.7167L229.856 46.8838L240.84 42.0509L229.136 15.4509L218.152 20.2838ZM229.856 46.8838V34.8838H221.8V46.8838V58.8838H229.856V46.8838ZM206.828 35.8258V47.8258H217.126V35.8258V23.8258H206.828V35.8258ZM217.126 35.8258L228.17 31.1321L223.002 18.9721L211.958 23.6658L200.914 28.3595L206.082 40.5195L217.126 35.8258ZM211.958 23.6658L200.902 19.0014L195.772 31.1614L206.828 35.8258L217.885 40.4902L223.015 28.3302L211.958 23.6658ZM258.283 11.9998L270.272 12.5084C270.411 9.24052 269.21 6.05763 266.947 3.69628C264.683 1.33494 261.554 -0.00021255 258.283 -0.00021255V11.9998ZM240.727 11.9998V-0.00021255C237.456 -0.00021255 234.327 1.33494 232.064 3.69628C229.801 6.05763 228.599 9.24052 228.738 12.5084L240.727 11.9998ZM245.743 11.9998L257.66 10.586C256.943 4.54779 251.824 -0.00021255 245.743 -0.00021255V11.9998ZM253.229 11.9998V-0.00021255C247.149 -0.00021255 242.029 4.5478 241.313 10.586L253.229 11.9998ZM253.381 20.2838V8.28379C249.11 8.28379 245.16 10.5543 243.011 14.2455L253.381 20.2838ZM265.541 20.2838H277.541C277.541 13.6564 272.169 8.28379 265.541 8.28379V20.2838ZM265.541 46.8838V58.8838C272.169 58.8838 277.541 53.5112 277.541 46.8838H265.541ZM257.827 46.8838H245.827C245.827 53.5112 251.2 58.8838 257.827 58.8838V46.8838ZM257.827 25.8698H269.827C269.827 20.4467 266.19 15.6977 260.954 14.2844C255.719 12.8712 250.186 15.145 247.457 19.8315L257.827 25.8698ZM245.591 46.8838V58.8838C249.863 58.8838 253.812 56.6133 255.961 52.9221L245.591 46.8838ZM233.431 46.8838H221.431C221.431 53.5112 226.804 58.8838 233.431 58.8838V46.8838ZM233.431 20.2838V8.28379C226.804 8.28379 221.431 13.6564 221.431 20.2838L233.431 20.2838ZM241.145 20.2838H253.145C253.145 13.6564 247.773 8.28379 241.145 8.28379V20.2838ZM241.145 41.2978H229.145C229.145 46.7208 232.782 51.4699 238.018 52.8832C243.254 54.2964 248.787 52.0225 251.515 47.3361L241.145 41.2978ZM258.283 11.9998L246.294 11.4912C246.307 11.1853 246.394 10.4017 246.88 9.41985C247.393 8.384 248.153 7.52885 248.981 6.93749C250.423 5.90715 251.181 6.26979 249.505 6.26979V18.2698V30.2698C253.504 30.2698 258.562 29.5874 262.931 26.4671C267.915 22.9066 270.056 17.6109 270.272 12.5084L258.283 11.9998ZM249.505 18.2698V6.26979C247.83 6.26979 248.587 5.90715 250.03 6.93749C250.858 7.52885 251.618 8.384 252.13 9.41985C252.616 10.4018 252.703 11.1853 252.716 11.4912L240.727 11.9998L228.738 12.5084C228.955 17.6109 231.095 22.9066 236.08 26.4671C240.448 29.5874 245.506 30.2698 249.505 30.2698V18.2698ZM240.727 11.9998V23.9998H245.743V11.9998V-0.00021255H240.727V11.9998ZM245.743 11.9998L233.827 13.4136C234.339 17.7269 236.731 21.64 240.673 23.9895C243.955 25.9453 247.345 26.2418 249.505 26.2418V14.2418V2.24179C249.534 2.24179 249.867 2.2415 250.408 2.35424C250.946 2.46636 251.882 2.73065 252.96 3.37304C254.093 4.04813 255.271 5.079 256.193 6.52337C257.108 7.9567 257.519 9.40187 257.66 10.586L245.743 11.9998ZM249.505 14.2418V26.2418C251.669 26.2418 255.068 25.9405 258.355 23.9619C262.292 21.5912 264.64 17.6761 265.146 13.4136L253.229 11.9998L241.313 10.586C241.451 9.42075 241.854 7.98999 242.756 6.56413C243.667 5.12474 244.837 4.08649 245.976 3.40064C247.06 2.74778 248.008 2.47603 248.561 2.35951C249.115 2.24258 249.463 2.24179 249.505 2.24179V14.2418ZM253.229 11.9998V23.9998H258.283V11.9998V-0.00021255H253.229V11.9998ZM253.381 20.2838V32.2838H265.541V20.2838V8.28379H253.381V20.2838ZM265.541 20.2838H253.541V46.8838H265.541H277.541V20.2838H265.541ZM265.541 46.8838V34.8838H257.827V46.8838V58.8838H265.541V46.8838ZM257.827 46.8838H269.827V25.8698H257.827H245.827V46.8838H257.827ZM257.827 25.8698L247.457 19.8315L235.221 40.8455L245.591 46.8838L255.961 52.9221L268.197 31.9081L257.827 25.8698ZM245.591 46.8838V34.8838H233.431V46.8838V58.8838H245.591V46.8838ZM233.431 46.8838H245.431V20.2838H233.431H221.431V46.8838H233.431ZM233.431 20.2838V32.2838H241.145V20.2838V8.28379H233.431V20.2838ZM241.145 20.2838H229.145V41.2978H241.145H253.145V20.2838H241.145ZM241.145 41.2978L251.515 47.3361L263.751 26.3221L253.381 20.2838L243.011 14.2455L230.775 35.2595L241.145 41.2978ZM271.382 52.4318H259.382C259.382 59.0592 264.754 64.4318 271.382 64.4318V52.4318ZM271.382 39.5878V27.5878C264.754 27.5878 259.382 32.9604 259.382 39.5878H271.382ZM279.59 39.5878H291.59C291.59 32.9604 286.217 27.5878 279.59 27.5878V39.5878ZM279.59 44.1478L289.938 50.2237C291.019 48.3816 291.59 46.284 291.59 44.1478H279.59ZM274.726 52.4318V64.4318C278.981 64.4318 282.919 62.1777 285.074 58.5077L274.726 52.4318ZM271.382 52.4318H283.382V39.5878H271.382H259.382V52.4318H271.382ZM271.382 39.5878V51.5878H279.59V39.5878V27.5878H271.382V39.5878ZM279.59 39.5878H267.59V44.1478H279.59H291.59V39.5878H279.59ZM279.59 44.1478L269.242 38.0718L264.378 46.3558L274.726 52.4318L285.074 58.5077L289.938 50.2237L279.59 44.1478ZM274.726 52.4318V40.4318H271.382V52.4318V64.4318H274.726V52.4318ZM316.823 20.2838V8.28379C310.195 8.28379 304.823 13.6564 304.823 20.2838L316.823 20.2838ZM324.727 20.2838H336.727C336.727 13.6564 331.354 8.28379 324.727 8.28379V20.2838ZM324.727 46.8838V58.8838C331.354 58.8838 336.727 53.5112 336.727 46.8838H324.727ZM316.823 46.8838H304.823C304.823 53.5112 310.195 58.8838 316.823 58.8838V46.8838ZM316.823 37.2698H328.823C328.823 33.7764 327.3 30.4565 324.653 28.1769C322.006 25.8973 318.497 24.8843 315.042 25.4026L316.823 37.2698ZM298.203 35.8258L291.172 45.5508C291.198 45.5695 291.224 45.588 291.25 45.6065L298.203 35.8258ZM295.049 20.2838V8.28379C288.421 8.28379 283.049 13.6564 283.049 20.2838L295.049 20.2838ZM302.953 20.2838H314.953C314.953 13.6564 309.58 8.28379 302.953 8.28379V20.2838ZM304.549 30.8478L299.182 41.5809C299.251 41.6153 299.32 41.649 299.389 41.6821L304.549 30.8478ZM316.823 30.8858L319.275 42.6325C324.837 41.4711 328.823 36.5679 328.823 30.8858H316.823ZM316.823 20.2838V32.2838H324.727V20.2838V8.28379H316.823V20.2838ZM324.727 20.2838H312.727V46.8838H324.727H336.727V20.2838H324.727ZM324.727 46.8838V34.8838H316.823V46.8838V58.8838H324.727V46.8838ZM316.823 46.8838H328.823V37.2698H316.823H304.823V46.8838H316.823ZM316.823 37.2698L315.042 25.4026C311.915 25.8716 309.389 26.0678 307.399 26.0678V38.0678V50.0678C310.881 50.0678 314.637 49.7319 318.603 49.137L316.823 37.2698ZM307.399 38.0678V26.0678C306.093 26.0678 305.308 25.9433 304.921 25.8488C304.545 25.7572 304.725 25.7394 305.155 26.0451L298.203 35.8258L291.25 45.6065C296.234 49.1496 302.179 50.0678 307.399 50.0678V38.0678ZM298.203 35.8258L305.233 26.1007C305.66 26.4093 306.226 26.9844 306.633 27.8214C307.022 28.6242 307.049 29.2221 307.049 29.3278H295.049H283.049C283.049 35.6145 285.655 41.5625 291.172 45.5508L298.203 35.8258ZM295.049 29.3278H307.049V20.2838H295.049H283.049V29.3278H295.049ZM295.049 20.2838V32.2838H302.953V20.2838V8.28379H295.049V20.2838ZM302.953 20.2838H290.953V27.8838H302.953H314.953V20.2838H302.953ZM302.953 27.8838H290.953C290.953 30.0374 291.347 32.7241 292.786 35.397C294.296 38.2022 296.579 40.2797 299.182 41.5809L304.549 30.8478L309.915 20.1147C311.454 20.8839 312.939 22.2013 313.917 24.0186C314.824 25.7035 314.953 27.1742 314.953 27.8838H302.953ZM304.549 30.8478L299.389 41.6821C303.002 43.4025 307.01 43.6078 309.717 43.6078V31.6078V19.6078C309.33 19.6078 309.025 19.5974 308.793 19.5831C308.559 19.5686 308.428 19.5519 308.384 19.5455C308.337 19.5384 308.429 19.549 308.627 19.6031C308.73 19.6312 308.874 19.6743 309.051 19.7382C309.228 19.802 309.451 19.8911 309.708 20.0135L304.549 30.8478ZM309.717 31.6078V43.6078C312.946 43.6078 316.137 43.2877 319.275 42.6325L316.823 30.8858L314.37 19.1391C312.897 19.4466 311.351 19.6078 309.717 19.6078V31.6078ZM316.823 30.8858H328.823V20.2838H316.823H304.823V30.8858H316.823ZM328.823 26.7438H316.823C316.823 33.3712 322.196 38.7438 328.823 38.7438V26.7438ZM328.823 20.2838V8.28379C322.196 8.28379 316.823 13.6564 316.823 20.2838L328.823 20.2838ZM359.147 20.2838H371.147C371.147 13.6564 365.775 8.28379 359.147 8.28379V20.2838ZM359.147 26.7438V38.7438C365.775 38.7438 371.147 33.3712 371.147 26.7438L359.147 26.7438ZM347.937 26.7438V14.7438C341.31 14.7438 335.937 20.1164 335.937 26.7438L347.937 26.7438ZM347.937 46.8838V58.8838C354.565 58.8838 359.937 53.5112 359.937 46.8838H347.937ZM340.033 46.8838H328.033C328.033 53.5112 333.406 58.8838 340.033 58.8838V46.8838ZM340.033 26.7438H352.033C352.033 20.1164 346.661 14.7438 340.033 14.7438V26.7438ZM328.823 26.7438H340.823V20.2838H328.823H316.823V26.7438H328.823ZM328.823 20.2838V32.2838H359.147V20.2838V8.28379H328.823V20.2838ZM359.147 20.2838H347.147V26.7438H359.147H371.147V20.2838H359.147ZM359.147 26.7438V14.7438H347.937V26.7438V38.7438H359.147V26.7438ZM347.937 26.7438H335.937V46.8838H347.937H359.937V26.7438H347.937ZM347.937 46.8838V34.8838H340.033V46.8838V58.8838H347.937V46.8838ZM340.033 46.8838H352.033V26.7438H340.033H328.033V46.8838H340.033ZM340.033 26.7438V14.7438H328.823V26.7438V38.7438H340.033V26.7438ZM365.874 43.6918L373.258 34.232L373.258 34.232L365.874 43.6918ZM365.874 23.4758L358.491 14.016L358.491 14.016L365.874 23.4758ZM391.866 23.4758L399.25 14.016L399.25 14.016L391.866 23.4758ZM391.866 43.6918L384.483 34.232L384.483 34.232L391.866 43.6918ZM371.65 28.2638L379.008 37.7436C379.014 37.7386 379.021 37.7336 379.027 37.7285L371.65 28.2638ZM371.65 38.9418L364.205 48.3532C364.257 48.3939 364.309 48.4342 364.361 48.4741L371.65 38.9418ZM386.052 38.9418L393.41 48.4216C393.416 48.4166 393.423 48.4116 393.429 48.4065L386.052 38.9418ZM386.052 28.2638L378.607 37.6752C378.659 37.7159 378.711 37.7562 378.763 37.7961L386.052 28.2638ZM365.874 43.6918L373.258 34.232C373.16 34.1559 373.147 34.1294 373.174 34.1634C373.203 34.1999 373.237 34.2526 373.261 34.3043C373.284 34.3536 373.272 34.3467 373.253 34.2511C373.232 34.1506 373.2 33.9373 373.2 33.5838H361.2H349.2C349.2 41.2062 352.174 48.2214 358.491 53.1516L365.874 43.6918ZM361.2 33.5838H373.2C373.2 33.2303 373.232 33.017 373.253 32.9165C373.272 32.8208 373.284 32.814 373.261 32.8633C373.237 32.9149 373.203 32.9677 373.174 33.0042C373.147 33.0381 373.16 33.0117 373.258 32.9356L365.874 23.4758L358.491 14.016C352.174 18.9462 349.2 25.9614 349.2 33.5838H361.2ZM365.874 23.4758L373.258 32.9356C373.56 32.6998 374.94 31.8278 378.87 31.8278V19.8278V7.82779C371.705 7.82779 364.421 9.38782 358.491 14.016L365.874 23.4758ZM378.87 19.8278V31.8278C382.801 31.8278 384.181 32.6998 384.483 32.9356L391.866 23.4758L399.25 14.016C393.32 9.38782 386.036 7.82779 378.87 7.82779V19.8278ZM391.866 23.4758L384.483 32.9356C384.581 33.0117 384.594 33.0381 384.567 33.0042C384.537 32.9677 384.504 32.9149 384.48 32.8633C384.457 32.814 384.469 32.8208 384.488 32.9165C384.508 33.017 384.54 33.2303 384.54 33.5838H396.54H408.54C408.54 25.9614 405.566 18.9462 399.25 14.016L391.866 23.4758ZM396.54 33.5838H384.54C384.54 33.9373 384.508 34.1506 384.488 34.2511C384.469 34.3467 384.457 34.3536 384.48 34.3043C384.504 34.2526 384.537 34.1999 384.567 34.1634C384.594 34.1294 384.581 34.1559 384.483 34.232L391.866 43.6918L399.25 53.1516C405.566 48.2214 408.54 41.2062 408.54 33.5838H396.54ZM391.866 43.6918L384.483 34.232C384.181 34.4678 382.801 35.3398 378.87 35.3398V47.3398V59.3398C386.036 59.3398 393.32 57.7798 399.25 53.1516L391.866 43.6918ZM378.87 47.3398V35.3398C374.94 35.3398 373.56 34.4678 373.258 34.232L365.874 43.6918L358.491 53.1516C364.421 57.7798 371.705 59.3398 378.87 59.3398V47.3398ZM371.65 28.2638L364.293 18.7839C359.541 22.4722 357.104 27.8095 357.104 33.5838H369.104H381.104C381.104 34.0209 381.012 34.8272 380.565 35.762C380.111 36.7108 379.494 37.3663 379.008 37.7436L371.65 28.2638ZM369.104 33.5838H357.104C357.104 39.3531 359.532 44.656 364.205 48.3532L371.65 38.9418L379.095 29.5304C379.551 29.8909 380.142 30.5238 380.579 31.445C381.012 32.3554 381.104 33.1449 381.104 33.5838H369.104ZM371.65 38.9418L364.361 48.4741C368.902 51.9466 374.233 52.9178 378.87 52.9178V40.9178V28.9178C378.521 28.9178 378.271 28.899 378.108 28.8795C377.946 28.8601 377.888 28.842 377.915 28.8494C377.944 28.8573 378.065 28.8929 378.25 28.9818C378.439 29.072 378.678 29.2096 378.94 29.4095L371.65 38.9418ZM378.87 40.9178V52.9178C383.492 52.9178 388.86 51.9527 393.41 48.4216L386.052 38.9418L378.695 29.462C379.265 29.0193 379.716 28.877 379.801 28.8537C379.837 28.8438 379.785 28.8608 379.627 28.8799C379.468 28.899 379.22 28.9178 378.87 28.9178V40.9178ZM386.052 38.9418L393.429 48.4065C398.139 44.7355 400.636 39.4223 400.636 33.5838H388.636H376.636C376.636 33.1193 376.736 32.3073 377.182 31.3826C377.631 30.4501 378.231 29.8235 378.675 29.4771L386.052 38.9418ZM388.636 33.5838H400.636C400.636 27.7394 398.129 22.3927 393.342 18.7315L386.052 28.2638L378.763 37.7961C378.289 37.4333 377.663 36.7847 377.196 35.8246C376.735 34.8754 376.636 34.0466 376.636 33.5838H388.636ZM386.052 28.2638L393.497 18.8524C388.939 15.2468 383.535 14.2498 378.87 14.2498V26.2498V38.2498C379.574 38.2498 379.821 38.3291 379.744 38.3076C379.637 38.2776 379.176 38.1252 378.607 37.6752L386.052 28.2638ZM378.87 26.2498V14.2498C374.19 14.2498 368.823 15.2528 364.273 18.7991L371.65 28.2638L379.027 37.7285C378.767 37.9312 378.526 38.0732 378.331 38.1682C378.139 38.2618 378.01 38.3012 377.972 38.312C377.935 38.3223 377.983 38.3058 378.135 38.2872C378.288 38.2685 378.529 38.2498 378.87 38.2498V26.2498ZM43.9753 90.8838V102.884C48.8408 102.884 53.2247 99.9459 55.0743 95.4457C56.924 90.9455 55.8732 85.7738 52.4141 82.3523L43.9753 90.8838ZM33.9813 90.8838L25.4174 99.2897C27.6739 101.589 30.7599 102.884 33.9813 102.884V90.8838ZM23.8733 80.5858L32.4372 72.1799C30.1807 69.8809 27.0946 68.5858 23.8733 68.5858V80.5858ZM19.9593 80.5858V68.5858C13.3319 68.5858 7.95928 73.9584 7.95928 80.5858H19.9593ZM19.9593 90.8838V102.884C26.5867 102.884 31.9593 97.5112 31.9593 90.8838H19.9593ZM12.0553 90.8838H0.0552815C0.0552815 97.5112 5.42786 102.884 12.0553 102.884L12.0553 90.8838ZM12.0553 64.2838V52.2838C5.42786 52.2838 0.0552815 57.6564 0.0552815 64.2838H12.0553ZM19.9593 64.2838H31.9593C31.9593 57.6564 26.5867 52.2838 19.9593 52.2838L19.9593 64.2838ZM19.9593 74.5438H7.95928C7.95928 81.1712 13.3319 86.5438 19.9593 86.5438L19.9593 74.5438ZM23.7213 74.5438V86.5438C27.0392 86.5438 30.2091 85.17 32.4778 82.7489L23.7213 74.5438ZM33.3353 64.2838V52.2838C30.0173 52.2838 26.8475 53.6575 24.5788 56.0787L33.3353 64.2838ZM42.7973 64.2838L51.2699 72.7817C54.7093 69.3525 55.7425 64.1883 53.8872 59.6998C52.032 55.2114 47.6541 52.2838 42.7973 52.2838V64.2838ZM29.9913 77.0518L21.5186 68.5539C19.2546 70.8112 17.9849 73.8786 17.9913 77.0757C17.9977 80.2727 19.2795 83.335 21.5525 85.5833L29.9913 77.0518ZM43.9753 90.8838V78.8838H33.9813V90.8838V102.884H43.9753V90.8838ZM33.9813 90.8838L42.5452 82.4779L32.4372 72.1799L23.8733 80.5858L15.3094 88.9917L25.4174 99.2897L33.9813 90.8838ZM23.8733 80.5858V68.5858H19.9593V80.5858V92.5858H23.8733V80.5858ZM19.9593 80.5858H7.95928V90.8838H19.9593H31.9593V80.5858H19.9593ZM19.9593 90.8838V78.8838H12.0553V90.8838V102.884H19.9593V90.8838ZM12.0553 90.8838H24.0553V64.2838H12.0553H0.0552815V90.8838H12.0553ZM12.0553 64.2838V76.2838H19.9593V64.2838V52.2838H12.0553V64.2838ZM19.9593 64.2838H7.95928V74.5438H19.9593H31.9593V64.2838H19.9593ZM19.9593 74.5438V86.5438H23.7213V74.5438V62.5438H19.9593V74.5438ZM23.7213 74.5438L32.4778 82.7489L42.0918 72.4889L33.3353 64.2838L24.5788 56.0787L14.9648 66.3387L23.7213 74.5438ZM33.3353 64.2838V76.2838H42.7973V64.2838V52.2838H33.3353V64.2838ZM42.7973 64.2838L34.3246 55.7859L21.5186 68.5539L29.9913 77.0518L38.4639 85.5497L51.2699 72.7817L42.7973 64.2838ZM29.9913 77.0518L21.5525 85.5833L35.5365 99.4153L43.9753 90.8838L52.4141 82.3523L38.4301 68.5203L29.9913 77.0518ZM52.1661 64.2838V52.2838C45.8293 52.2838 40.5847 57.2108 40.1894 63.5352L52.1661 64.2838ZM78.6521 64.2838H90.6521C90.6521 57.6564 85.2795 52.2838 78.6521 52.2838V64.2838ZM78.6521 90.8838V102.884C85.2795 102.884 90.6521 97.5112 90.6521 90.8838H78.6521ZM70.7481 90.8838H58.7481C58.7481 97.5112 64.1206 102.884 70.7481 102.884V90.8838ZM70.7481 70.7438H82.7481C82.7481 64.1164 77.3755 58.7438 70.7481 58.7438V70.7438ZM59.3101 70.7438V58.7438C53.0144 58.7438 47.7891 63.6092 47.3406 69.8888L59.3101 70.7438ZM59.1201 73.8598L71.1003 74.5483C71.1007 74.5407 71.1012 74.5331 71.1016 74.5254L59.1201 73.8598ZM58.7781 78.7618L46.8321 77.6241C46.8238 77.7113 46.8165 77.7987 46.8101 77.8861L58.7781 78.7618ZM58.2841 82.7518L46.4279 80.8993C46.4185 80.9597 46.4095 81.0202 46.401 81.0807L58.2841 82.7518ZM57.2961 86.3618L46.7743 80.5918C46.7519 80.6326 46.7298 80.6736 46.7078 80.7147L57.2961 86.3618ZM55.6241 88.7938L46.3609 81.1653C46.3157 81.2202 46.271 81.2755 46.2267 81.3312L55.6241 88.7938ZM53.0021 90.5798L56.5503 102.043L53.0021 90.5798ZM45.1361 90.8838H33.1361C33.1361 97.1698 37.987 102.391 44.2561 102.851L45.1361 90.8838ZM45.1361 84.4618L46.6245 72.5545C43.2091 72.1275 39.7748 73.1877 37.1944 75.4656C34.6141 77.7436 33.1361 81.0198 33.1361 84.4618H45.1361ZM48.5941 84.3858L52.8075 95.6217C52.9268 95.577 53.0453 95.5304 53.1631 95.4819L48.5941 84.3858ZM49.6961 83.5118L40.3827 75.9447C40.2848 76.0652 40.1892 76.1876 40.0961 76.3118L49.6961 83.5118ZM50.4941 82.2198L39.7609 76.8532C39.6797 77.0157 39.6021 77.1801 39.5283 77.3461L50.4941 82.2198ZM51.0641 80.3578L62.8454 82.6381L62.8454 82.638L51.0641 80.3578ZM51.4061 78.1158L39.5186 76.4761C39.502 76.5963 39.4873 76.7168 39.4744 76.8374L51.4061 78.1158ZM51.6341 75.2658L39.6595 74.4848C39.6539 74.5714 39.6492 74.6579 39.6454 74.7445L51.6341 75.2658ZM51.7861 72.0738L39.8026 71.4431C39.7971 71.548 39.793 71.653 39.7902 71.7581L51.7861 72.0738ZM51.9381 68.3878L39.953 67.7885C39.9498 67.8528 39.9471 67.917 39.945 67.9812L51.9381 68.3878ZM52.1661 64.2838V76.2838H78.6521V64.2838V52.2838H52.1661V64.2838ZM78.6521 64.2838H66.6521V90.8838H78.6521H90.6521V64.2838H78.6521ZM78.6521 90.8838V78.8838H70.7481V90.8838V102.884H78.6521V90.8838ZM70.7481 90.8838H82.7481V70.7438H70.7481H58.7481V90.8838H70.7481ZM70.7481 70.7438V58.7438H59.3101V70.7438V82.7438H70.7481V70.7438ZM59.3101 70.7438L47.3406 69.8888C47.283 70.6949 47.2155 71.8093 47.1385 73.1942L59.1201 73.8598L71.1016 74.5254C71.1767 73.1743 71.2358 72.2114 71.2796 71.5988L59.3101 70.7438ZM59.1201 73.8598L47.1398 73.1713C47.0147 75.3477 46.911 76.7955 46.8321 77.6241L58.7781 78.7618L70.724 79.8995C70.8478 78.6001 70.972 76.7799 71.1003 74.5483L59.1201 73.8598ZM58.7781 78.7618L46.8101 77.8861C46.7675 78.4678 46.6558 79.4407 46.4279 80.8993L58.2841 82.7518L70.1402 84.6043C70.419 82.8202 70.6366 81.1332 70.7461 79.6375L58.7781 78.7618ZM58.2841 82.7518L46.401 81.0807C46.3706 81.2968 46.3427 81.4566 46.321 81.5665C46.2991 81.6777 46.2871 81.7193 46.2917 81.7026C46.2957 81.688 46.3246 81.5836 46.3907 81.4106C46.4557 81.2407 46.5758 80.9539 46.7743 80.5918L57.2961 86.3618L67.8178 92.1318C69.3036 89.4225 69.8759 86.494 70.1671 84.4228L58.2841 82.7518ZM57.2961 86.3618L46.7078 80.7147C46.7439 80.6472 46.7446 80.6556 46.6856 80.7414C46.6272 80.8263 46.5239 80.9674 46.3609 81.1653L55.6241 88.7938L64.8872 96.4223C65.9632 95.1158 67.0132 93.6422 67.8843 92.0088L57.2961 86.3618ZM55.6241 88.7938L46.2267 81.3312C46.6063 80.8533 47.0982 80.3784 47.7 79.9685C48.3006 79.5594 48.9067 79.2857 49.4539 79.1164L53.0021 90.5798L56.5503 102.043C59.8911 101.009 62.8147 99.0351 65.0214 96.2564L55.6241 88.7938ZM53.0021 90.5798L49.4539 79.1164C49.6505 79.0555 49.7438 79.0468 49.7012 79.0524C49.6587 79.058 49.5113 79.0738 49.2401 79.0738V91.0738V103.074C51.5508 103.074 54.0549 102.816 56.5503 102.043L53.0021 90.5798ZM49.2401 91.0738V79.0738C48.6535 79.0738 47.6185 79.0339 46.016 78.9161L45.1361 90.8838L44.2561 102.851C46.099 102.987 47.7999 103.074 49.2401 103.074V91.0738ZM45.1361 90.8838H57.1361V84.4618H45.1361H33.1361V90.8838H45.1361ZM45.1361 84.4618L43.6476 96.3691C44.7208 96.5033 45.9319 96.6138 47.1501 96.6138V84.6138V72.6138C47.252 72.6138 47.2605 72.6181 47.1507 72.6098C47.0465 72.602 46.8746 72.5857 46.6245 72.5545L45.1361 84.4618ZM47.1501 84.6138V96.6138C48.7526 96.6138 50.7298 96.4009 52.8075 95.6217L48.5941 84.3858L44.3806 73.1498C45.6476 72.6747 46.6622 72.6138 47.1501 72.6138V84.6138ZM48.5941 84.3858L53.1631 95.4819C55.7646 94.4107 57.8138 92.6881 59.2961 90.7118L49.6961 83.5118L40.0961 76.3118C40.9703 75.1462 42.2849 74.0062 44.0251 73.2897L48.5941 84.3858ZM49.6961 83.5118L59.0094 91.0789C59.9747 89.8908 60.8079 88.5603 61.4598 87.0934L50.4941 82.2198L39.5283 77.3461C39.7749 76.7913 40.076 76.3221 40.3827 75.9447L49.6961 83.5118ZM50.4941 82.2198L61.2272 87.5864C62.1383 85.7642 62.5894 83.9606 62.8454 82.6381L51.0641 80.3578L39.2827 78.0775C39.2695 78.1456 39.2796 78.0745 39.3332 77.8997C39.3833 77.7358 39.5091 77.357 39.7609 76.8532L50.4941 82.2198ZM51.0641 80.3578L62.8454 82.638C63.0541 81.5601 63.2218 80.4768 63.3378 79.3942L51.4061 78.1158L39.4744 76.8374C39.4383 77.1734 39.3781 77.5848 39.2827 78.0775L51.0641 80.3578ZM51.4061 78.1158L63.2935 79.7554C63.4663 78.5027 63.5639 77.1411 63.6227 75.787L51.6341 75.2658L39.6454 74.7445C39.6029 75.7212 39.5485 76.2595 39.5186 76.4761L51.4061 78.1158ZM51.6341 75.2658L63.6086 76.0467C63.6927 74.7577 63.7517 73.5358 63.7819 72.3895L51.7861 72.0738L39.7902 71.7581C39.7697 72.5372 39.7274 73.4432 39.6595 74.4848L51.6341 75.2658ZM51.7861 72.0738L63.7695 72.7045C63.8256 71.6383 63.8792 70.3279 63.9312 68.7943L51.9381 68.3878L39.945 67.9812C39.8956 69.437 39.8479 70.5839 39.8026 71.4431L51.7861 72.0738ZM51.9381 68.3878L63.9231 68.987C63.9972 67.5052 64.0705 66.1882 64.1427 65.0323L52.1661 64.2838L40.1894 63.5352C40.1097 64.8114 40.0309 66.2304 39.953 67.7885L51.9381 68.3878ZM85.0494 90.8838H73.0494C73.0494 97.5112 78.422 102.884 85.0494 102.884V90.8838ZM85.0494 64.2838V52.2838C78.422 52.2838 73.0494 57.6564 73.0494 64.2838H85.0494ZM112.143 64.2838H124.143C124.143 57.6564 118.771 52.2838 112.143 52.2838V64.2838ZM112.143 70.4398V82.4398C118.771 82.4398 124.143 77.0672 124.143 70.4398H112.143ZM92.9534 70.4398V58.4398C86.326 58.4398 80.9534 63.8124 80.9534 70.4398H92.9534ZM92.9534 74.4678H80.9534C80.9534 81.0952 86.326 86.4678 92.9534 86.4678V74.4678ZM107.925 74.4678H119.925C119.925 67.8404 114.553 62.4678 107.925 62.4678V74.4678ZM107.925 80.2438V92.2438C114.553 92.2438 119.925 86.8712 119.925 80.2438H107.925ZM92.9534 80.2438V68.2438C86.326 68.2438 80.9534 73.6164 80.9534 80.2438H92.9534ZM92.9534 84.7278H80.9534C80.9534 91.3552 86.326 96.7278 92.9534 96.7278V84.7278ZM112.865 84.7278H124.865C124.865 78.1004 119.493 72.7278 112.865 72.7278V84.7278ZM112.865 90.8838V102.884C119.493 102.884 124.865 97.5112 124.865 90.8838H112.865ZM85.0494 90.8838H97.0494V64.2838H85.0494H73.0494V90.8838H85.0494ZM85.0494 64.2838V76.2838H112.143V64.2838V52.2838H85.0494V64.2838ZM112.143 64.2838H100.143V70.4398H112.143H124.143V64.2838H112.143ZM112.143 70.4398V58.4398H92.9534V70.4398V82.4398H112.143V70.4398ZM92.9534 70.4398H80.9534V74.4678H92.9534H104.953V70.4398H92.9534ZM92.9534 74.4678V86.4678H107.925V74.4678V62.4678H92.9534V74.4678ZM107.925 74.4678H95.9254V80.2438H107.925H119.925V74.4678H107.925ZM107.925 80.2438V68.2438H92.9534V80.2438V92.2438H107.925V80.2438ZM92.9534 80.2438H80.9534V84.7278H92.9534H104.953V80.2438H92.9534ZM92.9534 84.7278V96.7278H112.865V84.7278V72.7278H92.9534V84.7278ZM112.865 84.7278H100.865V90.8838H112.865H124.865V84.7278H112.865ZM112.865 90.8838V78.8838H85.0494V90.8838V102.884H112.865V90.8838ZM137.767 64.2838V52.2838C133.496 52.2838 129.546 54.5543 127.397 58.2455L137.767 64.2838ZM149.927 64.2838H161.927C161.927 57.6564 156.554 52.2838 149.927 52.2838V64.2838ZM149.927 90.8838V102.884C156.554 102.884 161.927 97.5112 161.927 90.8838H149.927ZM142.213 90.8838H130.213C130.213 97.5112 135.586 102.884 142.213 102.884V90.8838ZM142.213 69.8698H154.213C154.213 64.4467 150.576 59.6977 145.34 58.2844C140.105 56.8712 134.572 59.145 131.843 63.8315L142.213 69.8698ZM129.977 90.8838V102.884C134.248 102.884 138.198 100.613 140.347 96.9221L129.977 90.8838ZM117.817 90.8838H105.817C105.817 97.5112 111.19 102.884 117.817 102.884V90.8838ZM117.817 64.2838V52.2838C111.19 52.2838 105.817 57.6564 105.817 64.2838H117.817ZM125.531 64.2838H137.531C137.531 57.6564 132.158 52.2838 125.531 52.2838V64.2838ZM125.531 85.2978H113.531C113.531 90.7208 117.168 95.4699 122.404 96.8832C127.639 98.2964 133.172 96.0225 135.901 91.3361L125.531 85.2978ZM137.767 64.2838V76.2838H149.927V64.2838V52.2838H137.767V64.2838ZM149.927 64.2838H137.927V90.8838H149.927H161.927V64.2838H149.927ZM149.927 90.8838V78.8838H142.213V90.8838V102.884H149.927V90.8838ZM142.213 90.8838H154.213V69.8698H142.213H130.213V90.8838H142.213ZM142.213 69.8698L131.843 63.8315L119.607 84.8455L129.977 90.8838L140.347 96.9221L152.583 75.9081L142.213 69.8698ZM129.977 90.8838V78.8838H117.817V90.8838V102.884H129.977V90.8838ZM117.817 90.8838H129.817V64.2838H117.817H105.817V90.8838H117.817ZM117.817 64.2838V76.2838H125.531V64.2838V52.2838H117.817V64.2838ZM125.531 64.2838H113.531V85.2978H125.531H137.531V64.2838H125.531ZM125.531 85.2978L135.901 91.3361L148.137 70.3221L137.767 64.2838L127.397 58.2455L115.161 79.2595L125.531 85.2978ZM154.019 70.7438H142.019C142.019 77.3712 147.392 82.7438 154.019 82.7438V70.7438ZM154.019 64.2838V52.2838C147.392 52.2838 142.019 57.6564 142.019 64.2838H154.019ZM184.343 64.2838H196.343C196.343 57.6564 190.971 52.2838 184.343 52.2838V64.2838ZM184.343 70.7438V82.7438C190.971 82.7438 196.343 77.3712 196.343 70.7438H184.343ZM173.133 70.7438V58.7438C166.506 58.7438 161.133 64.1164 161.133 70.7438H173.133ZM173.133 90.8838V102.884C179.761 102.884 185.133 97.5112 185.133 90.8838H173.133ZM165.229 90.8838H153.229C153.229 97.5112 158.602 102.884 165.229 102.884V90.8838ZM165.229 70.7438H177.229C177.229 64.1164 171.857 58.7438 165.229 58.7438V70.7438ZM154.019 70.7438H166.019V64.2838H154.019H142.019V70.7438H154.019ZM154.019 64.2838V76.2838H184.343V64.2838V52.2838H154.019V64.2838ZM184.343 64.2838H172.343V70.7438H184.343H196.343V64.2838H184.343ZM184.343 70.7438V58.7438H173.133V70.7438V82.7438H184.343V70.7438ZM173.133 70.7438H161.133V90.8838H173.133H185.133V70.7438H173.133ZM173.133 90.8838V78.8838H165.229V90.8838V102.884H173.133V90.8838ZM165.229 90.8838H177.229V70.7438H165.229H153.229V90.8838H165.229ZM165.229 70.7438V58.7438H154.019V70.7438V82.7438H165.229V70.7438ZM211.895 81.0798L212.488 69.0945C207.285 68.8369 202.51 71.9657 200.669 76.839L211.895 81.0798ZM219.571 81.4598L231.412 83.4026C231.966 80.0291 231.054 76.5798 228.906 73.9203C226.758 71.2607 223.578 69.6435 220.164 69.4745L219.571 81.4598ZM214.745 88.8318L208.402 78.645C208.387 78.654 208.373 78.6631 208.359 78.6722L214.745 88.8318ZM190.957 87.7298L183.46 97.1002C183.476 97.113 183.492 97.1257 183.508 97.1383L190.957 87.7298ZM190.843 67.4758L198.407 76.7916C198.423 76.7787 198.439 76.7657 198.454 76.7527L190.843 67.4758ZM213.985 66.3738L207.659 76.5709C207.681 76.5851 207.704 76.5992 207.727 76.6132L213.985 66.3738ZM219.001 73.2138L219.779 85.1885C223.252 84.9628 226.456 83.2405 228.559 80.4683C230.663 77.6962 231.46 74.1472 230.743 70.7417L219.001 73.2138ZM211.401 73.7078L200.316 78.304C202.283 83.0492 207.053 86.0157 212.179 85.6825L211.401 73.7078ZM208.551 71.1998L203.801 82.2197L203.801 82.2197L208.551 71.1998ZM196.619 72.2638L204.403 81.396C204.408 81.3924 204.412 81.3888 204.416 81.3852L196.619 72.2638ZM196.733 82.9418L189.165 92.2552C189.189 92.2743 189.213 92.2933 189.236 92.3122L196.733 82.9418ZM209.159 83.8538L203.714 73.1598C203.688 73.1734 203.661 73.187 203.635 73.2007L209.159 83.8538ZM211.895 81.0798L211.301 93.0651L218.977 93.4451L219.571 81.4598L220.164 69.4745L212.488 69.0945L211.895 81.0798ZM219.571 81.4598L207.729 79.517C207.702 79.6831 207.709 79.492 207.925 79.1622C208.024 79.011 208.135 78.8813 208.239 78.781C208.341 78.6827 208.407 78.642 208.402 78.645L214.745 88.8318L221.087 99.0186C226.835 95.4397 230.345 89.9062 231.412 83.4026L219.571 81.4598ZM214.745 88.8318L208.359 78.6722C208.316 78.6989 207.186 79.3398 203.801 79.3398V91.3398V103.34C209.687 103.34 215.853 102.309 221.131 98.9914L214.745 88.8318ZM203.801 91.3398V79.3398C199.862 79.3398 198.588 78.4663 198.405 78.3212L190.957 87.7298L183.508 97.1383C189.405 101.807 196.694 103.34 203.801 103.34V91.3398ZM190.957 87.7298L198.453 78.3594C198.376 78.2982 198.373 78.283 198.404 78.322C198.436 78.3629 198.465 78.4122 198.482 78.45C198.524 78.5446 198.397 78.3368 198.397 77.5838H186.397H174.397C174.397 85.0939 177.228 92.1142 183.46 97.1002L190.957 87.7298ZM186.397 77.5838H198.397C198.397 76.7907 198.529 76.556 198.492 76.6393C198.477 76.6738 198.447 76.7283 198.407 76.7808C198.367 76.8319 198.355 76.8336 198.407 76.7916L190.843 67.4758L183.278 58.16C177.108 63.17 174.397 70.1856 174.397 77.5838H186.397ZM190.843 67.4758L198.454 76.7527C198.564 76.6631 199.656 75.8278 203.307 75.8278V63.8278V51.8278C196.267 51.8278 189.05 53.4245 183.231 58.1989L190.843 67.4758ZM203.307 63.8278V75.8278C206.234 75.8278 207.391 76.4048 207.659 76.5709L213.985 66.3738L220.311 56.1766C215.106 52.9481 209.145 51.8278 203.307 51.8278V63.8278ZM213.985 66.3738L207.727 76.6132C207.939 76.7429 207.818 76.7124 207.614 76.4342C207.518 76.3034 207.433 76.1562 207.366 76.0055C207.3 75.8562 207.27 75.7423 207.258 75.6859L219.001 73.2138L230.743 70.7417C229.392 64.3212 225.527 59.3639 220.242 56.1344L213.985 66.3738ZM219.001 73.2138L218.222 61.2391L210.622 61.7331L211.401 73.7078L212.179 85.6825L219.779 85.1885L219.001 73.2138ZM211.401 73.7078L222.486 69.1116C220.433 64.1607 216.419 61.524 213.301 60.1799L208.551 71.1998L203.801 82.2197C203.621 82.1422 201.507 81.1775 200.316 78.304L211.401 73.7078ZM208.551 71.1998L213.301 60.1799C209.988 58.7523 206.547 58.2498 203.307 58.2498V70.2498V82.2498C203.701 82.2498 203.921 82.281 203.999 82.2951C204.072 82.3085 203.99 82.3011 203.801 82.2197L208.551 71.1998ZM203.307 70.2498V58.2498C198.688 58.2498 193.292 59.3208 188.821 63.1423L196.619 72.2638L204.416 81.3852C203.784 81.9251 203.206 82.16 202.929 82.2436C202.689 82.3157 202.765 82.2498 203.307 82.2498V70.2498ZM196.619 72.2638L188.834 63.1316C184.332 66.9692 182.301 72.2282 182.301 77.5838H194.301H206.301C206.301 77.8688 206.247 78.5363 205.881 79.3751C205.503 80.2437 204.948 80.932 204.403 81.396L196.619 72.2638ZM194.301 77.5838H182.301C182.301 83.1243 184.495 88.4603 189.165 92.2552L196.733 82.9418L204.3 73.6284C204.835 74.0632 205.424 74.7465 205.836 75.6545C206.236 76.5359 206.301 77.2552 206.301 77.5838H194.301ZM196.733 82.9418L189.236 92.3122C193.788 95.9539 199.209 96.9178 203.801 96.9178V84.9178V72.9178C203.097 72.9178 202.866 72.839 202.966 72.8669C203.096 72.9033 203.607 73.0734 204.229 73.5714L196.733 82.9418ZM203.801 84.9178V96.9178C207.154 96.9178 211.033 96.3992 214.682 94.5068L209.159 83.8538L203.635 73.2007C204.118 72.9504 204.435 72.8858 204.456 72.8816C204.47 72.8788 204.425 72.8884 204.313 72.8984C204.2 72.9084 204.032 72.9178 203.801 72.9178V84.9178ZM209.159 83.8538L214.603 94.5477C217.881 92.8786 221.361 89.9782 223.12 85.3206L211.895 81.0798L200.669 76.839C201.567 74.4614 203.222 73.4103 203.714 73.1598L209.159 83.8538ZM252.943 64.2838H264.943C264.943 57.6564 259.57 52.2838 252.943 52.2838V64.2838ZM252.943 90.8838V102.884C259.57 102.884 264.943 97.5112 264.943 90.8838H252.943ZM245.039 90.8838H233.039C233.039 97.5112 238.412 102.884 245.039 102.884V90.8838ZM245.039 81.4598H257.039C257.039 74.8324 251.666 69.4598 245.039 69.4598V81.4598ZM239.377 81.4598V69.4598C235.849 69.4598 232.499 71.0125 230.219 73.7052L239.377 81.4598ZM231.397 90.8838V102.884C234.925 102.884 238.275 101.331 240.555 98.6384L231.397 90.8838ZM221.403 90.8838L212.731 82.5891C209.41 86.0615 208.48 91.1803 210.368 95.5989C212.256 100.017 216.598 102.884 221.403 102.884V90.8838ZM230.599 81.2698L239.271 89.5645C242.402 86.2908 243.423 81.5327 241.91 77.2626C240.397 72.9925 236.609 69.9383 232.115 69.3659L230.599 81.2698ZM225.659 66.4878L218.785 56.6514C218.767 56.6645 218.748 56.6776 218.729 56.6908L225.659 66.4878ZM245.039 75.5318V87.5318C251.666 87.5318 257.039 82.1592 257.039 75.5318H245.039ZM245.039 70.5918H257.039C257.039 63.9644 251.666 58.5918 245.039 58.5918V70.5918ZM231.397 71.2758L224.566 61.4095C224.506 61.4516 224.445 61.4942 224.385 61.5374L231.397 71.2758ZM252.943 64.2838H240.943V90.8838H252.943H264.943V64.2838H252.943ZM252.943 90.8838V78.8838H245.039V90.8838V102.884H252.943V90.8838ZM245.039 90.8838H257.039V81.4598H245.039H233.039V90.8838H245.039ZM245.039 81.4598V69.4598H239.377V81.4598V93.4598H245.039V81.4598ZM239.377 81.4598L230.219 73.7052L222.239 83.1292L231.397 90.8838L240.555 98.6384L248.535 89.2144L239.377 81.4598ZM231.397 90.8838V78.8838H221.403V90.8838V102.884H231.397V90.8838ZM221.403 90.8838L230.075 99.1785L239.271 89.5645L230.599 81.2698L221.927 72.9751L212.731 82.5891L221.403 90.8838ZM230.599 81.2698L232.115 69.3659C231 69.224 231.892 69.0771 233.082 70.2784C233.686 70.8877 234.102 71.5929 234.335 72.2407C234.552 72.8435 234.543 73.2 234.543 73.1378H222.543H210.543C210.543 77.8618 211.953 83.0515 216.032 87.1691C219.907 91.0811 224.827 92.6316 229.083 93.1736L230.599 81.2698ZM222.543 73.1378H234.543C234.543 73.051 234.556 73.5586 234.188 74.3439C233.79 75.1945 233.178 75.8679 232.588 76.2848L225.659 66.4878L218.729 56.6908C212.915 60.8035 210.543 67.0154 210.543 73.1378H222.543ZM225.659 66.4878L232.533 76.3241C232.392 76.4222 232.324 76.4274 232.43 76.3978C232.556 76.3628 232.919 76.2838 233.601 76.2838V64.2838V52.2838C228.556 52.2838 223.349 53.4626 218.785 56.6514L225.659 66.4878ZM233.601 64.2838V76.2838H252.943V64.2838V52.2838H233.601V64.2838ZM233.981 75.5318V87.5318H245.039V75.5318V63.5318H233.981V75.5318ZM245.039 75.5318H257.039V70.5918H245.039H233.039V75.5318H245.039ZM245.039 70.5918V58.5918H233.981V70.5918V82.5918H245.039V70.5918ZM233.981 70.5918V58.5918C231.265 58.5918 227.795 59.174 224.566 61.4095L231.397 71.2758L238.227 81.1421C236.316 82.4656 234.569 82.5918 233.981 82.5918V70.5918ZM231.397 71.2758L224.385 61.5374C220.596 64.2653 218.447 68.522 218.447 73.1378H230.447H242.447C242.447 74.3977 242.181 75.9543 241.374 77.5369C240.565 79.1223 239.453 80.2623 238.409 81.0142L231.397 71.2758ZM230.447 73.1378H218.447C218.447 77.7957 220.668 82.3044 224.928 85.031L231.397 74.9238L237.866 64.8165C239.081 65.5947 240.361 66.8127 241.279 68.5379C242.185 70.2409 242.447 71.8899 242.447 73.1378H230.447ZM231.397 74.9238L224.928 85.031C228.176 87.1094 231.573 87.5318 233.981 87.5318V75.5318V63.5318C234.21 63.5318 235.885 63.5489 237.866 64.8165L231.397 74.9238ZM267.203 70.7438H255.203C255.203 77.3712 260.576 82.7438 267.203 82.7438V70.7438ZM267.203 64.2838V52.2838C260.576 52.2838 255.203 57.6564 255.203 64.2838H267.203ZM297.527 64.2838H309.527C309.527 57.6564 304.154 52.2838 297.527 52.2838V64.2838ZM297.527 70.7438V82.7438C304.154 82.7438 309.527 77.3712 309.527 70.7438H297.527ZM286.317 70.7438V58.7438C279.69 58.7438 274.317 64.1164 274.317 70.7438H286.317ZM286.317 90.8838V102.884C292.944 102.884 298.317 97.5112 298.317 90.8838H286.317ZM278.413 90.8838H266.413C266.413 97.5112 271.786 102.884 278.413 102.884V90.8838ZM278.413 70.7438H290.413C290.413 64.1164 285.04 58.7438 278.413 58.7438V70.7438ZM267.203 70.7438H279.203V64.2838H267.203H255.203V70.7438H267.203ZM267.203 64.2838V76.2838H297.527V64.2838V52.2838H267.203V64.2838ZM297.527 64.2838H285.527V70.7438H297.527H309.527V64.2838H297.527ZM297.527 70.7438V58.7438H286.317V70.7438V82.7438H297.527V70.7438ZM286.317 70.7438H274.317V90.8838H286.317H298.317V70.7438H286.317ZM286.317 90.8838V78.8838H278.413V90.8838V102.884H286.317V90.8838ZM278.413 90.8838H290.413V70.7438H278.413H266.413V90.8838H278.413ZM278.413 70.7438V58.7438H267.203V70.7438V82.7438H278.413V70.7438ZM301.62 90.8838H289.62C289.62 97.5112 294.992 102.884 301.62 102.884V90.8838ZM301.62 64.2838V52.2838C294.992 52.2838 289.62 57.6564 289.62 64.2838H301.62ZM328.714 64.2838H340.714C340.714 57.6564 335.341 52.2838 328.714 52.2838V64.2838ZM328.714 70.4398V82.4398C335.341 82.4398 340.714 77.0672 340.714 70.4398H328.714ZM309.524 70.4398V58.4398C302.896 58.4398 297.524 63.8124 297.524 70.4398H309.524ZM309.524 74.4678H297.524C297.524 81.0952 302.896 86.4678 309.524 86.4678V74.4678ZM324.496 74.4678H336.496C336.496 67.8404 331.123 62.4678 324.496 62.4678V74.4678ZM324.496 80.2438V92.2438C331.123 92.2438 336.496 86.8712 336.496 80.2438H324.496ZM309.524 80.2438V68.2438C302.896 68.2438 297.524 73.6164 297.524 80.2438H309.524ZM309.524 84.7278H297.524C297.524 91.3552 302.896 96.7278 309.524 96.7278V84.7278ZM329.436 84.7278H341.436C341.436 78.1004 336.063 72.7278 329.436 72.7278V84.7278ZM329.436 90.8838V102.884C336.063 102.884 341.436 97.5112 341.436 90.8838H329.436ZM301.62 90.8838H313.62V64.2838H301.62H289.62V90.8838H301.62ZM301.62 64.2838V76.2838H328.714V64.2838V52.2838H301.62V64.2838ZM328.714 64.2838H316.714V70.4398H328.714H340.714V64.2838H328.714ZM328.714 70.4398V58.4398H309.524V70.4398V82.4398H328.714V70.4398ZM309.524 70.4398H297.524V74.4678H309.524H321.524V70.4398H309.524ZM309.524 74.4678V86.4678H324.496V74.4678V62.4678H309.524V74.4678ZM324.496 74.4678H312.496V80.2438H324.496H336.496V74.4678H324.496ZM324.496 80.2438V68.2438H309.524V80.2438V92.2438H324.496V80.2438ZM309.524 80.2438H297.524V84.7278H309.524H321.524V80.2438H309.524ZM309.524 84.7278V96.7278H329.436V84.7278V72.7278H309.524V84.7278ZM329.436 84.7278H317.436V90.8838H329.436H341.436V84.7278H329.436ZM329.436 90.8838V78.8838H301.62V90.8838V102.884H329.436V90.8838ZM361.101 76.2158L354.303 86.1043C354.35 86.1367 354.397 86.1687 354.445 86.2004L361.101 76.2158ZM361.139 88.8318L367.853 98.778L367.853 98.778L361.139 88.8318ZM334.387 90.8838H322.387C322.387 97.5112 327.76 102.884 334.387 102.884V90.8838ZM334.387 64.2838V52.2838C327.76 52.2838 322.387 57.6564 322.387 64.2838H334.387ZM361.291 64.2838H373.291C373.291 57.6564 367.919 52.2838 361.291 52.2838V64.2838ZM361.291 70.3638V82.3638C367.919 82.3638 373.291 76.9912 373.291 70.3638H361.291ZM342.291 70.3638V58.3638C335.664 58.3638 330.291 63.7364 330.291 70.3638H342.291ZM342.291 74.1258H330.291C330.291 80.7532 335.664 86.1258 342.291 86.1258V74.1258ZM342.291 80.1298V68.1298C335.664 68.1298 330.291 73.5024 330.291 80.1298H342.291ZM342.291 84.8038H330.291C330.291 91.4312 335.664 96.8038 342.291 96.8038V84.8038ZM353.121 74.1258V86.1258C354.795 86.1258 354.853 86.4822 354.303 86.1043L361.101 76.2158L367.9 66.3273C363.297 63.1627 358.034 62.1258 353.121 62.1258V74.1258ZM361.101 76.2158L354.445 86.2004C353.817 85.7818 353.114 85.0673 352.638 84.0974C352.192 83.1896 352.179 82.5374 352.179 82.4858H364.179H376.179C376.179 76.3183 373.66 70.166 367.758 66.2312L361.101 76.2158ZM364.179 82.4858H352.179C352.179 82.5111 352.177 81.9127 352.597 81.0349C353.052 80.0847 353.749 79.3424 354.426 78.8856L361.139 88.8318L367.853 98.778C373.788 94.7721 376.179 88.5497 376.179 82.4858H364.179ZM361.139 88.8318L354.426 78.8856C354.976 78.5143 354.881 78.8838 353.121 78.8838V90.8838V102.884C357.999 102.884 363.25 101.885 367.853 98.778L361.139 88.8318ZM353.121 90.8838V78.8838H337.693V90.8838V102.884H353.121V90.8838ZM337.693 90.8838V78.8838H334.387V90.8838V102.884H337.693V90.8838ZM334.387 90.8838H346.387V64.2838H334.387H322.387V90.8838H334.387ZM334.387 64.2838V76.2838H342.291V64.2838V52.2838H334.387V64.2838ZM342.291 64.2838V76.2838H361.291V64.2838V52.2838H342.291V64.2838ZM361.291 64.2838H349.291V70.3638H361.291H373.291V64.2838H361.291ZM361.291 70.3638V58.3638H342.291V70.3638V82.3638H361.291V70.3638ZM342.291 70.3638H330.291V74.1258H342.291H354.291V70.3638H342.291ZM342.291 74.1258V86.1258H353.121V74.1258V62.1258H342.291V74.1258ZM352.513 84.8038V96.8038C354.632 96.8038 358.26 96.5421 361.704 94.385C366.087 91.6403 368.275 87.06 368.275 82.4478H356.275H344.275C344.275 81.2223 344.529 79.5649 345.447 77.8404C346.382 76.0843 347.697 74.8389 348.966 74.0446C351.156 72.6728 352.903 72.8038 352.513 72.8038V84.8038ZM356.275 82.4478H368.275C368.275 77.7588 366.009 73.1912 361.63 70.4929C358.205 68.3827 354.61 68.1298 352.513 68.1298V80.1298V92.1298C352.925 92.1298 351.211 92.2632 349.04 90.9256C347.779 90.1486 346.443 88.9138 345.486 87.1435C344.542 85.3991 344.275 83.71 344.275 82.4478H356.275ZM352.513 80.1298V68.1298H342.291V80.1298V92.1298H352.513V80.1298ZM342.291 80.1298H330.291V84.8038H342.291H354.291V80.1298H342.291ZM342.291 84.8038V96.8038H352.513V84.8038V72.8038H342.291V84.8038ZM368.565 90.8838H356.565C356.565 97.5112 361.938 102.884 368.565 102.884V90.8838ZM368.565 64.2838V52.2838C361.938 52.2838 356.565 57.6564 356.565 64.2838H368.565ZM395.659 64.2838H407.659C407.659 57.6564 402.286 52.2838 395.659 52.2838V64.2838ZM395.659 70.4398V82.4398C402.286 82.4398 407.659 77.0672 407.659 70.4398H395.659ZM376.469 70.4398V58.4398C369.842 58.4398 364.469 63.8124 364.469 70.4398H376.469ZM376.469 74.4678H364.469C364.469 81.0952 369.842 86.4678 376.469 86.4678V74.4678ZM391.441 74.4678H403.441C403.441 67.8404 398.068 62.4678 391.441 62.4678V74.4678ZM391.441 80.2438V92.2438C398.068 92.2438 403.441 86.8712 403.441 80.2438H391.441ZM376.469 80.2438V68.2438C369.842 68.2438 364.469 73.6164 364.469 80.2438H376.469ZM376.469 84.7278H364.469C364.469 91.3552 369.842 96.7278 376.469 96.7278V84.7278ZM396.381 84.7278H408.381C408.381 78.1004 403.008 72.7278 396.381 72.7278V84.7278ZM396.381 90.8838V102.884C403.008 102.884 408.381 97.5112 408.381 90.8838H396.381ZM368.565 90.8838H380.565V64.2838H368.565H356.565V90.8838H368.565ZM368.565 64.2838V76.2838H395.659V64.2838V52.2838H368.565V64.2838ZM395.659 64.2838H383.659V70.4398H395.659H407.659V64.2838H395.659ZM395.659 70.4398V58.4398H376.469V70.4398V82.4398H395.659V70.4398ZM376.469 70.4398H364.469V74.4678H376.469H388.469V70.4398H376.469ZM376.469 74.4678V86.4678H391.441V74.4678V62.4678H376.469V74.4678ZM391.441 74.4678H379.441V80.2438H391.441H403.441V74.4678H391.441ZM391.441 80.2438V68.2438H376.469V80.2438V92.2438H391.441V80.2438ZM376.469 80.2438H364.469V84.7278H376.469H388.469V80.2438H376.469ZM376.469 84.7278V96.7278H396.381V84.7278V72.7278H376.469V84.7278ZM396.381 84.7278H384.381V90.8838H396.381H408.381V84.7278H396.381ZM396.381 90.8838V78.8838H368.565V90.8838V102.884H396.381V90.8838Z" fill="#282828" mask="url(#path-1-outside-1_923_83)"></path></svg>