<svg xmlns="http://www.w3.org/2000/svg" width="406" height="96" viewBox="0 0 406 96" fill="none"><mask id="path-1-outside-1_851_84" maskUnits="userSpaceOnUse" x="-0.123291" y="-0.944336" width="406" height="97" fill="black"><rect fill="white" x="-0.123291" y="-0.944336" width="406" height="97"></rect><path d="M132.981 12.4557H140.885V39.0557H132.981V29.4417C129.435 29.9737 126.293 30.2397 123.557 30.2397C119.529 30.2397 116.464 29.4923 114.361 27.9977C112.259 26.4777 111.207 24.3117 111.207 21.4997V12.4557H119.111V20.0557C119.111 21.4997 119.643 22.4877 120.707 23.0197C121.771 23.5263 123.494 23.7797 125.875 23.7797C128.307 23.7797 130.676 23.539 132.981 23.0577V12.4557ZM171.924 39.0557L169.758 33.9257H154.406L152.24 39.0557H144.45L156.116 12.4557H168.276L179.98 39.0557H171.924ZM156.952 27.9977H167.25L162.082 15.8377L156.952 27.9977ZM206.086 29.2517L213.762 29.6317C213.23 32.8743 211.621 35.3317 208.936 37.0037C206.276 38.6757 202.628 39.5117 197.992 39.5117C192.469 39.5117 188.188 38.3083 185.148 35.9017C182.108 33.4697 180.588 30.0877 180.588 25.7557C180.588 21.4237 182.07 18.0543 185.034 15.6477C187.998 13.2157 192.152 11.9997 197.498 11.9997C201.88 11.9997 205.44 12.8483 208.176 14.5457C210.912 16.2177 212.584 18.4977 213.192 21.3857L205.592 21.8797C205.161 20.841 204.211 20.005 202.742 19.3717C201.272 18.7383 199.524 18.4217 197.498 18.4217C194.61 18.4217 192.38 19.093 190.81 20.4357C189.264 21.753 188.492 23.5263 188.492 25.7557C188.492 28.0103 189.302 29.7963 190.924 31.1137C192.57 32.431 194.926 33.0897 197.992 33.0897C200.196 33.0897 201.982 32.735 203.35 32.0257C204.743 31.3163 205.655 30.3917 206.086 29.2517ZM215.453 18.9157V12.4557H245.777V18.9157H234.567V39.0557H226.663V18.9157H215.453ZM252.504 35.8637C249.388 33.4317 247.83 30.0623 247.83 25.7557C247.83 21.449 249.388 18.0797 252.504 15.6477C255.62 13.2157 259.952 11.9997 265.5 11.9997C271.048 11.9997 275.38 13.2157 278.496 15.6477C281.612 18.0797 283.17 21.449 283.17 25.7557C283.17 30.0623 281.612 33.4317 278.496 35.8637C275.38 38.2957 271.048 39.5117 265.5 39.5117C259.952 39.5117 255.62 38.2957 252.504 35.8637ZM258.28 20.4357C256.583 21.753 255.734 23.5263 255.734 25.7557C255.734 27.985 256.583 29.771 258.28 31.1137C260.003 32.431 262.409 33.0897 265.5 33.0897C268.591 33.0897 270.985 32.431 272.682 31.1137C274.405 29.771 275.266 27.985 275.266 25.7557C275.266 23.5263 274.405 21.753 272.682 20.4357C270.985 19.093 268.591 18.4217 265.5 18.4217C262.409 18.4217 260.003 19.093 258.28 20.4357ZM37.4979 73.2517L45.1739 73.6317C44.6419 76.8743 43.0332 79.3317 40.3479 81.0037C37.6879 82.6757 34.0399 83.5117 29.4039 83.5117C23.8812 83.5117 19.5999 82.3083 16.5599 79.9017C13.5199 77.4697 11.9999 74.0877 11.9999 69.7557C11.9999 65.4237 13.4819 62.0543 16.4459 59.6477C19.4099 57.2157 23.5645 55.9997 28.9099 55.9997C33.2925 55.9997 36.8519 56.8483 39.5879 58.5457C42.3239 60.2177 43.9959 62.4977 44.6039 65.3857L37.0039 65.8797C36.5732 64.841 35.6232 64.005 34.1539 63.3717C32.6845 62.7383 30.9365 62.4217 28.9099 62.4217C26.0219 62.4217 23.7925 63.093 22.2219 64.4357C20.6765 65.753 19.9039 67.5263 19.9039 69.7557C19.9039 72.0103 20.7145 73.7963 22.3359 75.1137C23.9825 76.431 26.3385 77.0897 29.4039 77.0897C31.6079 77.0897 33.3939 76.735 34.7619 76.0257C36.1552 75.3163 37.0672 74.3917 37.4979 73.2517ZM80.4462 56.4557V83.0557H72.5422V62.9157H57.4942V83.0557H49.5902V56.4557H80.4462ZM105.278 56.4557C108.47 56.4557 111.105 57.203 113.182 58.6977C115.285 60.167 116.336 62.409 116.336 65.4237C116.336 68.4383 115.335 70.6297 113.334 71.9977C111.333 73.3403 108.647 74.0117 105.278 74.0117H94.752V83.0557H86.848V56.4557H94.752H105.278ZM104.898 67.9317C107.254 67.9317 108.432 67.0957 108.432 65.4237C108.432 63.7517 107.254 62.9157 104.898 62.9157H94.752V67.9317H104.898ZM142.237 83.0557L140.071 77.9257H124.719L122.553 83.0557H114.763L126.429 56.4557H138.589L150.293 83.0557H142.237ZM127.265 71.9977H137.563L132.395 59.8377L127.265 71.9977ZM153.868 83.0557V56.4557H161.582V76.5957H172.184V56.4557H179.898V76.5957H190.5V56.4557H198.214V83.0557H153.868ZM224.546 56.4557H236.706V83.0557H228.992V62.0417L216.756 83.0557H204.596V56.4557H212.31V77.4697L224.546 56.4557ZM265.194 69.4897C270.844 69.9963 273.668 72.099 273.668 75.7977C273.668 78.0523 272.668 79.8257 270.666 81.1177C268.665 82.4097 265.676 83.0557 261.698 83.0557H243.078V56.4557H261.698C265.042 56.4557 267.677 57.1143 269.602 58.4317C271.553 59.749 272.528 61.4717 272.528 63.5997C272.528 66.9183 270.084 68.8817 265.194 69.4897ZM250.982 62.5357V66.7537H261.318C262.357 66.7537 263.168 66.5637 263.75 66.1837C264.333 65.8037 264.624 65.2843 264.624 64.6257C264.624 63.2323 263.522 62.5357 261.318 62.5357H250.982ZM260.9 76.9757C262.648 76.9757 263.89 76.811 264.624 76.4817C265.384 76.1523 265.764 75.5823 265.764 74.7717C265.764 73.9357 265.397 73.353 264.662 73.0237C263.928 72.6943 262.8 72.5297 261.28 72.5297H250.982V76.9757H260.9ZM302.66 83.0557L300.494 77.9257H285.142L282.976 83.0557H275.186L286.852 56.4557H299.012L310.716 83.0557H302.66ZM287.688 71.9977H297.986L292.818 59.8377L287.688 71.9977ZM344.273 55.9997C349.669 55.9997 353.849 57.2283 356.813 59.6857C359.803 62.1177 361.297 65.4743 361.297 69.7557C361.297 74.037 359.803 77.4063 356.813 79.8637C353.849 82.2957 349.669 83.5117 344.273 83.5117C339.561 83.5117 335.761 82.5743 332.873 80.6997C329.985 78.7997 328.199 76.1523 327.515 72.7577H322.195V83.0557H314.291V56.4557H322.195V66.2977H327.629C328.389 63.0297 330.201 60.4963 333.063 58.6977C335.926 56.899 339.663 55.9997 344.273 55.9997ZM337.509 75.0757C339.08 76.4183 341.335 77.0897 344.273 77.0897C347.212 77.0897 349.467 76.4183 351.037 75.0757C352.608 73.733 353.393 71.9597 353.393 69.7557C353.393 67.5517 352.608 65.7783 351.037 64.4357C349.467 63.093 347.212 62.4217 344.273 62.4217C341.335 62.4217 339.08 63.093 337.509 64.4357C335.939 65.7783 335.153 67.5517 335.153 69.7557C335.153 71.9597 335.939 73.733 337.509 75.0757ZM363.371 62.9157V56.4557H393.695V62.9157H382.485V83.0557H374.581V62.9157H363.371Z"></path></mask><path d="M132.981 12.4557H140.885V39.0557H132.981V29.4417C129.435 29.9737 126.293 30.2397 123.557 30.2397C119.529 30.2397 116.464 29.4923 114.361 27.9977C112.259 26.4777 111.207 24.3117 111.207 21.4997V12.4557H119.111V20.0557C119.111 21.4997 119.643 22.4877 120.707 23.0197C121.771 23.5263 123.494 23.7797 125.875 23.7797C128.307 23.7797 130.676 23.539 132.981 23.0577V12.4557ZM171.924 39.0557L169.758 33.9257H154.406L152.24 39.0557H144.45L156.116 12.4557H168.276L179.98 39.0557H171.924ZM156.952 27.9977H167.25L162.082 15.8377L156.952 27.9977ZM206.086 29.2517L213.762 29.6317C213.23 32.8743 211.621 35.3317 208.936 37.0037C206.276 38.6757 202.628 39.5117 197.992 39.5117C192.469 39.5117 188.188 38.3083 185.148 35.9017C182.108 33.4697 180.588 30.0877 180.588 25.7557C180.588 21.4237 182.07 18.0543 185.034 15.6477C187.998 13.2157 192.152 11.9997 197.498 11.9997C201.88 11.9997 205.44 12.8483 208.176 14.5457C210.912 16.2177 212.584 18.4977 213.192 21.3857L205.592 21.8797C205.161 20.841 204.211 20.005 202.742 19.3717C201.272 18.7383 199.524 18.4217 197.498 18.4217C194.61 18.4217 192.38 19.093 190.81 20.4357C189.264 21.753 188.492 23.5263 188.492 25.7557C188.492 28.0103 189.302 29.7963 190.924 31.1137C192.57 32.431 194.926 33.0897 197.992 33.0897C200.196 33.0897 201.982 32.735 203.35 32.0257C204.743 31.3163 205.655 30.3917 206.086 29.2517ZM215.453 18.9157V12.4557H245.777V18.9157H234.567V39.0557H226.663V18.9157H215.453ZM252.504 35.8637C249.388 33.4317 247.83 30.0623 247.83 25.7557C247.83 21.449 249.388 18.0797 252.504 15.6477C255.62 13.2157 259.952 11.9997 265.5 11.9997C271.048 11.9997 275.38 13.2157 278.496 15.6477C281.612 18.0797 283.17 21.449 283.17 25.7557C283.17 30.0623 281.612 33.4317 278.496 35.8637C275.38 38.2957 271.048 39.5117 265.5 39.5117C259.952 39.5117 255.62 38.2957 252.504 35.8637ZM258.28 20.4357C256.583 21.753 255.734 23.5263 255.734 25.7557C255.734 27.985 256.583 29.771 258.28 31.1137C260.003 32.431 262.409 33.0897 265.5 33.0897C268.591 33.0897 270.985 32.431 272.682 31.1137C274.405 29.771 275.266 27.985 275.266 25.7557C275.266 23.5263 274.405 21.753 272.682 20.4357C270.985 19.093 268.591 18.4217 265.5 18.4217C262.409 18.4217 260.003 19.093 258.28 20.4357ZM37.4979 73.2517L45.1739 73.6317C44.6419 76.8743 43.0332 79.3317 40.3479 81.0037C37.6879 82.6757 34.0399 83.5117 29.4039 83.5117C23.8812 83.5117 19.5999 82.3083 16.5599 79.9017C13.5199 77.4697 11.9999 74.0877 11.9999 69.7557C11.9999 65.4237 13.4819 62.0543 16.4459 59.6477C19.4099 57.2157 23.5645 55.9997 28.9099 55.9997C33.2925 55.9997 36.8519 56.8483 39.5879 58.5457C42.3239 60.2177 43.9959 62.4977 44.6039 65.3857L37.0039 65.8797C36.5732 64.841 35.6232 64.005 34.1539 63.3717C32.6845 62.7383 30.9365 62.4217 28.9099 62.4217C26.0219 62.4217 23.7925 63.093 22.2219 64.4357C20.6765 65.753 19.9039 67.5263 19.9039 69.7557C19.9039 72.0103 20.7145 73.7963 22.3359 75.1137C23.9825 76.431 26.3385 77.0897 29.4039 77.0897C31.6079 77.0897 33.3939 76.735 34.7619 76.0257C36.1552 75.3163 37.0672 74.3917 37.4979 73.2517ZM80.4462 56.4557V83.0557H72.5422V62.9157H57.4942V83.0557H49.5902V56.4557H80.4462ZM105.278 56.4557C108.47 56.4557 111.105 57.203 113.182 58.6977C115.285 60.167 116.336 62.409 116.336 65.4237C116.336 68.4383 115.335 70.6297 113.334 71.9977C111.333 73.3403 108.647 74.0117 105.278 74.0117H94.752V83.0557H86.848V56.4557H94.752H105.278ZM104.898 67.9317C107.254 67.9317 108.432 67.0957 108.432 65.4237C108.432 63.7517 107.254 62.9157 104.898 62.9157H94.752V67.9317H104.898ZM142.237 83.0557L140.071 77.9257H124.719L122.553 83.0557H114.763L126.429 56.4557H138.589L150.293 83.0557H142.237ZM127.265 71.9977H137.563L132.395 59.8377L127.265 71.9977ZM153.868 83.0557V56.4557H161.582V76.5957H172.184V56.4557H179.898V76.5957H190.5V56.4557H198.214V83.0557H153.868ZM224.546 56.4557H236.706V83.0557H228.992V62.0417L216.756 83.0557H204.596V56.4557H212.31V77.4697L224.546 56.4557ZM265.194 69.4897C270.844 69.9963 273.668 72.099 273.668 75.7977C273.668 78.0523 272.668 79.8257 270.666 81.1177C268.665 82.4097 265.676 83.0557 261.698 83.0557H243.078V56.4557H261.698C265.042 56.4557 267.677 57.1143 269.602 58.4317C271.553 59.749 272.528 61.4717 272.528 63.5997C272.528 66.9183 270.084 68.8817 265.194 69.4897ZM250.982 62.5357V66.7537H261.318C262.357 66.7537 263.168 66.5637 263.75 66.1837C264.333 65.8037 264.624 65.2843 264.624 64.6257C264.624 63.2323 263.522 62.5357 261.318 62.5357H250.982ZM260.9 76.9757C262.648 76.9757 263.89 76.811 264.624 76.4817C265.384 76.1523 265.764 75.5823 265.764 74.7717C265.764 73.9357 265.397 73.353 264.662 73.0237C263.928 72.6943 262.8 72.5297 261.28 72.5297H250.982V76.9757H260.9ZM302.66 83.0557L300.494 77.9257H285.142L282.976 83.0557H275.186L286.852 56.4557H299.012L310.716 83.0557H302.66ZM287.688 71.9977H297.986L292.818 59.8377L287.688 71.9977ZM344.273 55.9997C349.669 55.9997 353.849 57.2283 356.813 59.6857C359.803 62.1177 361.297 65.4743 361.297 69.7557C361.297 74.037 359.803 77.4063 356.813 79.8637C353.849 82.2957 349.669 83.5117 344.273 83.5117C339.561 83.5117 335.761 82.5743 332.873 80.6997C329.985 78.7997 328.199 76.1523 327.515 72.7577H322.195V83.0557H314.291V56.4557H322.195V66.2977H327.629C328.389 63.0297 330.201 60.4963 333.063 58.6977C335.926 56.899 339.663 55.9997 344.273 55.9997ZM337.509 75.0757C339.08 76.4183 341.335 77.0897 344.273 77.0897C347.212 77.0897 349.467 76.4183 351.037 75.0757C352.608 73.733 353.393 71.9597 353.393 69.7557C353.393 67.5517 352.608 65.7783 351.037 64.4357C349.467 63.093 347.212 62.4217 344.273 62.4217C341.335 62.4217 339.08 63.093 337.509 64.4357C335.939 65.7783 335.153 67.5517 335.153 69.7557C335.153 71.9597 335.939 73.733 337.509 75.0757ZM363.371 62.9157V56.4557H393.695V62.9157H382.485V83.0557H374.581V62.9157H363.371Z" fill="white"></path><path d="M132.981 12.4557V0.455662C126.354 0.455662 120.981 5.82825 120.981 12.4557L132.981 12.4557ZM140.885 12.4557H152.885C152.885 5.82825 147.513 0.455662 140.885 0.455662V12.4557ZM140.885 39.0557V51.0557C147.513 51.0557 152.885 45.6831 152.885 39.0557H140.885ZM132.981 39.0557H120.981C120.981 45.6831 126.354 51.0557 132.981 51.0557V39.0557ZM132.981 29.4417H144.981C144.981 25.9483 143.459 22.6284 140.812 20.3488C138.165 18.0692 134.656 17.0562 131.201 17.5744L132.981 29.4417ZM114.361 27.9977L107.331 37.7227C107.357 37.7414 107.383 37.7599 107.409 37.7784L114.361 27.9977ZM111.207 12.4557V0.455662C104.58 0.455662 99.2075 5.82825 99.2075 12.4557L111.207 12.4557ZM119.111 12.4557H131.111C131.111 5.82825 125.739 0.455662 119.111 0.455662V12.4557ZM120.707 23.0197L115.341 33.7528C115.41 33.7872 115.479 33.8209 115.548 33.854L120.707 23.0197ZM132.981 23.0577L135.434 34.8044C140.996 33.643 144.981 28.7398 144.981 23.0577H132.981ZM132.981 12.4557V24.4557H140.885V12.4557V0.455662H132.981V12.4557ZM140.885 12.4557H128.885V39.0557H140.885H152.885V12.4557H140.885ZM140.885 39.0557V27.0557H132.981V39.0557V51.0557H140.885V39.0557ZM132.981 39.0557H144.981V29.4417H132.981H120.981V39.0557H132.981ZM132.981 29.4417L131.201 17.5744C128.074 18.0435 125.548 18.2397 123.557 18.2397V30.2397V42.2397C127.039 42.2397 130.796 41.9038 134.762 41.3089L132.981 29.4417ZM123.557 30.2397V18.2397C122.252 18.2397 121.467 18.1151 121.08 18.0206C120.704 17.9291 120.884 17.9113 121.314 18.217L114.361 27.9977L107.409 37.7784C112.393 41.3215 118.338 42.2397 123.557 42.2397V30.2397ZM114.361 27.9977L121.392 18.2726C121.819 18.5812 122.385 19.1563 122.792 19.9932C123.181 20.7961 123.207 21.394 123.207 21.4997H111.207H99.2075C99.2075 27.7864 101.814 33.7344 107.331 37.7227L114.361 27.9977ZM111.207 21.4997H123.207V12.4557H111.207H99.2075V21.4997H111.207ZM111.207 12.4557V24.4557H119.111V12.4557V0.455662H111.207V12.4557ZM119.111 12.4557H107.111V20.0557H119.111H131.111V12.4557H119.111ZM119.111 20.0557H107.111C107.111 22.2093 107.506 24.8959 108.945 27.5689C110.455 30.3741 112.738 32.4515 115.341 33.7528L120.707 23.0197L126.074 12.2865C127.613 13.0558 129.098 14.3732 130.076 16.1905C130.983 17.8754 131.111 19.346 131.111 20.0557H119.111ZM120.707 23.0197L115.548 33.854C119.161 35.5744 123.168 35.7797 125.875 35.7797V23.7797V11.7797C125.489 11.7797 125.184 11.7693 124.952 11.755C124.718 11.7405 124.587 11.7238 124.543 11.7174C124.496 11.7103 124.588 11.7208 124.786 11.775C124.889 11.8031 125.033 11.8462 125.21 11.9101C125.387 11.9739 125.61 12.0629 125.867 12.1853L120.707 23.0197ZM125.875 23.7797V35.7797C129.105 35.7797 132.296 35.4595 135.434 34.8044L132.981 23.0577L130.529 11.311C129.056 11.6185 127.51 11.7797 125.875 11.7797V23.7797ZM132.981 23.0577H144.981V12.4557H132.981H120.981V23.0577H132.981ZM171.924 39.0557L160.869 43.7233C162.745 48.1672 167.1 51.0557 171.924 51.0557V39.0557ZM169.758 33.9257L180.813 29.258C178.937 24.8141 174.582 21.9257 169.758 21.9257V33.9257ZM154.406 33.9257V21.9257C149.582 21.9257 145.227 24.8141 143.351 29.258L154.406 33.9257ZM152.24 39.0557V51.0557C157.064 51.0557 161.419 48.1672 163.295 43.7233L152.24 39.0557ZM144.45 39.0557L133.461 34.236C131.833 37.9464 132.188 42.2275 134.404 45.6193C136.62 49.0112 140.398 51.0557 144.45 51.0557V39.0557ZM156.116 12.4557V0.455662C151.352 0.455662 147.04 3.27341 145.127 7.63596L156.116 12.4557ZM168.276 12.4557L179.26 7.6228C177.343 3.26732 173.035 0.455662 168.276 0.455662V12.4557ZM179.98 39.0557V51.0557C184.034 51.0557 187.814 49.0086 190.03 45.6133C192.245 42.218 192.597 37.9336 190.964 34.2228L179.98 39.0557ZM156.952 27.9977L145.896 23.3333C144.332 27.0387 144.729 31.2808 146.953 34.6319C149.176 37.9831 152.93 39.9977 156.952 39.9977V27.9977ZM167.25 27.9977V39.9977C171.277 39.9977 175.036 37.9775 177.258 34.6187C179.48 31.2599 179.869 27.0104 178.294 23.304L167.25 27.9977ZM162.082 15.8377L173.126 11.144C171.241 6.70863 166.885 3.83129 162.066 3.83767C157.247 3.84406 152.899 6.73293 151.026 11.1733L162.082 15.8377ZM171.924 39.0557L182.979 34.388L180.813 29.258L169.758 33.9257L158.703 38.5933L160.869 43.7233L171.924 39.0557ZM169.758 33.9257V21.9257H154.406V33.9257V45.9257H169.758V33.9257ZM154.406 33.9257L143.351 29.258L141.185 34.388L152.24 39.0557L163.295 43.7233L165.461 38.5933L154.406 33.9257ZM152.24 39.0557V27.0557H144.45V39.0557V51.0557H152.24V39.0557ZM144.45 39.0557L155.44 43.8754L167.106 17.2754L156.116 12.4557L145.127 7.63596L133.461 34.236L144.45 39.0557ZM156.116 12.4557V24.4557H168.276V12.4557V0.455662H156.116V12.4557ZM168.276 12.4557L157.292 17.2885L168.996 43.8885L179.98 39.0557L190.964 34.2228L179.26 7.6228L168.276 12.4557ZM179.98 39.0557V27.0557H171.924V39.0557V51.0557H179.98V39.0557ZM156.952 27.9977V39.9977H167.25V27.9977V15.9977H156.952V27.9977ZM167.25 27.9977L178.294 23.304L173.126 11.144L162.082 15.8377L151.038 20.5314L156.206 32.6914L167.25 27.9977ZM162.082 15.8377L151.026 11.1733L145.896 23.3333L156.952 27.9977L168.008 32.6621L173.138 20.5021L162.082 15.8377ZM206.086 29.2517L206.679 17.2663C201.476 17.0088 196.701 20.1376 194.86 25.0109L206.086 29.2517ZM213.762 29.6317L225.603 31.5744C226.157 28.201 225.245 24.7517 223.097 22.0921C220.95 19.4326 217.769 17.8154 214.355 17.6463L213.762 29.6317ZM208.936 37.0037L202.593 26.8169C202.579 26.8259 202.564 26.835 202.55 26.844L208.936 37.0037ZM185.148 35.9017L177.651 45.2721C177.667 45.2848 177.683 45.2975 177.699 45.3102L185.148 35.9017ZM185.034 15.6477L192.598 24.9635C192.614 24.9505 192.63 24.9376 192.646 24.9245L185.034 15.6477ZM208.176 14.5457L201.85 24.7428C201.873 24.757 201.895 24.771 201.918 24.785L208.176 14.5457ZM213.192 21.3857L213.97 33.3604C217.443 33.1347 220.647 31.4124 222.751 28.6402C224.855 25.868 225.651 22.319 224.934 18.9135L213.192 21.3857ZM205.592 21.8797L194.507 26.4758C196.474 31.221 201.244 34.1876 206.37 33.8544L205.592 21.8797ZM202.742 19.3717L197.992 30.3916L197.992 30.3916L202.742 19.3717ZM190.81 20.4357L198.595 29.5678C198.599 29.5643 198.603 29.5607 198.607 29.5571L190.81 20.4357ZM190.924 31.1137L183.357 40.427C183.38 40.4461 183.404 40.4652 183.427 40.4841L190.924 31.1137ZM203.35 32.0257L197.906 21.3317C197.879 21.3452 197.852 21.3589 197.826 21.3726L203.35 32.0257ZM206.086 29.2517L205.492 41.237L213.168 41.617L213.762 29.6317L214.355 17.6463L206.679 17.2663L206.086 29.2517ZM213.762 29.6317L201.92 27.6889C201.893 27.855 201.9 27.6639 202.116 27.3341C202.215 27.1829 202.326 27.0532 202.43 26.9529C202.532 26.8546 202.598 26.8139 202.593 26.8169L208.936 37.0037L215.278 47.1904C221.026 43.6116 224.536 38.078 225.603 31.5744L213.762 29.6317ZM208.936 37.0037L202.55 26.844C202.507 26.8708 201.377 27.5117 197.992 27.5117V39.5117V51.5117C203.879 51.5117 210.044 50.4806 215.322 47.1633L208.936 37.0037ZM197.992 39.5117V27.5117C194.053 27.5117 192.779 26.6382 192.596 26.4931L185.148 35.9017L177.699 45.3102C183.596 49.9785 190.885 51.5117 197.992 51.5117V39.5117ZM185.148 35.9017L192.644 26.5312C192.568 26.47 192.564 26.4549 192.595 26.4939C192.627 26.5348 192.656 26.584 192.673 26.6219C192.716 26.7164 192.588 26.5087 192.588 25.7557H180.588H168.588C168.588 33.2658 171.419 40.2861 177.651 45.2721L185.148 35.9017ZM180.588 25.7557H192.588C192.588 24.9626 192.72 24.7279 192.684 24.8111C192.668 24.8457 192.638 24.9002 192.598 24.9527C192.559 25.0037 192.546 25.0055 192.598 24.9635L185.034 15.6477L177.47 6.33186C171.299 11.3419 168.588 18.3574 168.588 25.7557H180.588ZM185.034 15.6477L192.646 24.9245C192.755 24.835 193.847 23.9997 197.498 23.9997V11.9997V-0.000336409C190.458 -0.000336409 183.241 1.59636 177.422 6.37078L185.034 15.6477ZM197.498 11.9997V23.9997C200.425 23.9997 201.582 24.5767 201.85 24.7428L208.176 14.5457L214.502 4.34852C209.298 1.11996 203.336 -0.000336409 197.498 -0.000336409V11.9997ZM208.176 14.5457L201.918 24.785C202.131 24.9147 202.009 24.8842 201.805 24.606C201.709 24.4753 201.624 24.3281 201.557 24.1773C201.491 24.0281 201.461 23.9141 201.449 23.8578L213.192 21.3857L224.934 18.9135C223.583 12.4931 219.718 7.53578 214.433 4.30628L208.176 14.5457ZM213.192 21.3857L212.413 9.41093L204.813 9.90493L205.592 21.8797L206.37 33.8544L213.97 33.3604L213.192 21.3857ZM205.592 21.8797L216.677 17.2835C214.624 12.3326 210.61 9.69592 207.492 8.35177L202.742 19.3717L197.992 30.3916C197.812 30.3141 195.698 29.3494 194.507 26.4758L205.592 21.8797ZM202.742 19.3717L207.492 8.35178C204.18 6.92415 200.738 6.42166 197.498 6.42166V18.4217V30.4217C197.892 30.4217 198.112 30.4529 198.19 30.467C198.263 30.4803 198.181 30.473 197.992 30.3916L202.742 19.3717ZM197.498 18.4217V6.42166C192.879 6.42166 187.483 7.49264 183.012 11.3142L190.81 20.4357L198.607 29.5571C197.976 30.097 197.398 30.3319 197.12 30.4155C196.881 30.4875 196.957 30.4217 197.498 30.4217V18.4217ZM190.81 20.4357L183.025 11.3035C178.523 15.1411 176.492 20.4001 176.492 25.7557H188.492H200.492C200.492 26.0406 200.438 26.7082 200.072 27.547C199.694 28.4156 199.139 29.1039 198.595 29.5678L190.81 20.4357ZM188.492 25.7557H176.492C176.492 31.2962 178.686 36.6321 183.357 40.427L190.924 31.1137L198.491 21.8003C199.026 22.235 199.615 22.9183 200.027 23.8264C200.427 24.7077 200.492 25.427 200.492 25.7557H188.492ZM190.924 31.1137L183.427 40.4841C187.98 44.1258 193.4 45.0897 197.992 45.0897V33.0897V21.0897C197.289 21.0897 197.057 21.0109 197.157 21.0388C197.287 21.0752 197.798 21.2453 198.42 21.7432L190.924 31.1137ZM197.992 33.0897V45.0897C201.345 45.0897 205.224 44.5711 208.874 42.6787L203.35 32.0257L197.826 21.3726C198.309 21.1222 198.626 21.0577 198.647 21.0535C198.661 21.0507 198.617 21.0603 198.504 21.0703C198.391 21.0803 198.223 21.0897 197.992 21.0897V33.0897ZM203.35 32.0257L208.794 42.7196C212.073 41.0505 215.552 38.1501 217.311 33.4925L206.086 29.2517L194.86 25.0109C195.758 22.6332 197.414 21.5822 197.906 21.3317L203.35 32.0257ZM215.453 18.9157H203.453C203.453 25.5431 208.825 30.9157 215.453 30.9157V18.9157ZM215.453 12.4557V0.455662C208.825 0.455662 203.453 5.82825 203.453 12.4557L215.453 12.4557ZM245.777 12.4557H257.777C257.777 5.82825 252.404 0.455662 245.777 0.455662V12.4557ZM245.777 18.9157V30.9157C252.404 30.9157 257.777 25.5431 257.777 18.9157L245.777 18.9157ZM234.567 18.9157V6.91566C227.939 6.91566 222.567 12.2882 222.567 18.9157L234.567 18.9157ZM234.567 39.0557V51.0557C241.194 51.0557 246.567 45.6831 246.567 39.0557H234.567ZM226.663 39.0557H214.663C214.663 45.6831 220.035 51.0557 226.663 51.0557V39.0557ZM226.663 18.9157H238.663C238.663 12.2882 233.29 6.91566 226.663 6.91566V18.9157ZM215.453 18.9157H227.453V12.4557H215.453H203.453V18.9157H215.453ZM215.453 12.4557V24.4557H245.777V12.4557V0.455662H215.453V12.4557ZM245.777 12.4557H233.777V18.9157H245.777H257.777V12.4557H245.777ZM245.777 18.9157V6.91566H234.567V18.9157V30.9157H245.777V18.9157ZM234.567 18.9157H222.567V39.0557H234.567H246.567V18.9157H234.567ZM234.567 39.0557V27.0557H226.663V39.0557V51.0557H234.567V39.0557ZM226.663 39.0557H238.663V18.9157H226.663H214.663V39.0557H226.663ZM226.663 18.9157V6.91566H215.453V18.9157V30.9157H226.663V18.9157ZM252.504 35.8637L259.887 26.4039L259.887 26.4039L252.504 35.8637ZM252.504 15.6477L245.121 6.18787L245.121 6.18787L252.504 15.6477ZM278.496 15.6477L285.879 6.18787L285.879 6.18787L278.496 15.6477ZM278.496 35.8637L271.113 26.4039L271.113 26.4039L278.496 35.8637ZM258.28 20.4357L265.637 29.9155C265.644 29.9105 265.65 29.9054 265.657 29.9004L258.28 20.4357ZM258.28 31.1137L250.835 40.5251C250.887 40.5658 250.938 40.6061 250.991 40.646L258.28 31.1137ZM272.682 31.1137L280.039 40.5935C280.046 40.5885 280.052 40.5834 280.059 40.5784L272.682 31.1137ZM272.682 20.4357L265.237 29.8471C265.289 29.8878 265.34 29.9281 265.393 29.968L272.682 20.4357ZM252.504 35.8637L259.887 26.4039C259.79 26.3278 259.776 26.3013 259.804 26.3353C259.833 26.3717 259.866 26.4245 259.89 26.4762C259.913 26.5254 259.902 26.5186 259.882 26.4229C259.862 26.3225 259.83 26.1092 259.83 25.7557H247.83H235.83C235.83 33.3781 238.804 40.3933 245.121 45.3235L252.504 35.8637ZM247.83 25.7557H259.83C259.83 25.4021 259.862 25.1889 259.882 25.0884C259.902 24.9927 259.913 24.9859 259.89 25.0351C259.866 25.0868 259.833 25.1396 259.804 25.1761C259.776 25.21 259.79 25.1835 259.887 25.1075L252.504 15.6477L245.121 6.18787C238.804 11.118 235.83 18.1333 235.83 25.7557H247.83ZM252.504 15.6477L259.887 25.1075C260.189 24.8716 261.57 23.9997 265.5 23.9997V11.9997V-0.000336409C258.334 -0.000336409 251.051 1.5597 245.121 6.18787L252.504 15.6477ZM265.5 11.9997V23.9997C269.43 23.9997 270.811 24.8716 271.113 25.1075L278.496 15.6477L285.879 6.18787C279.949 1.5597 272.666 -0.000336409 265.5 -0.000336409V11.9997ZM278.496 15.6477L271.113 25.1075C271.21 25.1835 271.224 25.21 271.196 25.1761C271.167 25.1396 271.133 25.0868 271.11 25.0351C271.087 24.9859 271.098 24.9927 271.118 25.0884C271.138 25.1889 271.17 25.4021 271.17 25.7557H283.17H295.17C295.17 18.1333 292.196 11.118 285.879 6.18787L278.496 15.6477ZM283.17 25.7557H271.17C271.17 26.1092 271.138 26.3225 271.118 26.4229C271.098 26.5186 271.087 26.5254 271.11 26.4762C271.133 26.4245 271.167 26.3717 271.196 26.3353C271.224 26.3013 271.21 26.3278 271.113 26.4039L278.496 35.8637L285.879 45.3235C292.196 40.3933 295.17 33.3781 295.17 25.7557H283.17ZM278.496 35.8637L271.113 26.4039C270.811 26.6397 269.43 27.5117 265.5 27.5117V39.5117V51.5117C272.666 51.5117 279.949 49.9516 285.879 45.3235L278.496 35.8637ZM265.5 39.5117V27.5117C261.57 27.5117 260.189 26.6397 259.887 26.4039L252.504 35.8637L245.121 45.3235C251.051 49.9516 258.334 51.5117 265.5 51.5117V39.5117ZM258.28 20.4357L250.922 10.9558C246.17 14.6441 243.734 19.9813 243.734 25.7557H255.734H267.734C267.734 26.1928 267.642 26.9991 267.195 27.9339C266.741 28.8827 266.124 29.5382 265.637 29.9155L258.28 20.4357ZM255.734 25.7557H243.734C243.734 31.525 246.161 36.8279 250.835 40.5251L258.28 31.1137L265.725 21.7023C266.181 22.0628 266.771 22.6957 267.209 23.6169C267.642 24.5272 267.734 25.3168 267.734 25.7557H255.734ZM258.28 31.1137L250.991 40.646C255.532 44.1185 260.863 45.0897 265.5 45.0897V33.0897V21.0897C265.15 21.0897 264.9 21.0709 264.738 21.0514C264.575 21.0319 264.518 21.0139 264.545 21.0213C264.573 21.0292 264.694 21.0648 264.88 21.1537C265.069 21.2439 265.308 21.3815 265.569 21.5814L258.28 31.1137ZM265.5 33.0897V45.0897C270.122 45.0897 275.49 44.1246 280.039 40.5935L272.682 31.1137L265.324 21.6338C265.895 21.1912 266.346 21.0488 266.43 21.0256C266.466 21.0157 266.415 21.0327 266.257 21.0518C266.098 21.0708 265.85 21.0897 265.5 21.0897V33.0897ZM272.682 31.1137L280.059 40.5784C284.769 36.9074 287.266 31.5942 287.266 25.7557H275.266H263.266C263.266 25.2912 263.365 24.4792 263.811 23.5545C264.261 22.622 264.861 21.9954 265.305 21.6489L272.682 31.1137ZM275.266 25.7557H287.266C287.266 19.9113 284.759 14.5646 279.971 10.9034L272.682 20.4357L265.393 29.968C264.918 29.6052 264.292 28.9565 263.826 27.9965C263.365 27.0472 263.266 26.2184 263.266 25.7557H275.266ZM272.682 20.4357L280.127 11.0243C275.569 7.41867 270.165 6.42166 265.5 6.42166V18.4217V30.4217C266.204 30.4217 266.45 30.501 266.373 30.4795C266.267 30.4495 265.806 30.2971 265.237 29.8471L272.682 20.4357ZM265.5 18.4217V6.42166C260.82 6.42166 255.453 7.42465 250.903 10.9709L258.28 20.4357L265.657 29.9004C265.397 30.1031 265.155 30.2451 264.961 30.3401C264.769 30.4336 264.64 30.4731 264.601 30.4839C264.564 30.4942 264.612 30.4777 264.765 30.459C264.918 30.4404 265.159 30.4217 265.5 30.4217V18.4217ZM37.4979 73.2517L38.0912 61.2663C32.8882 61.0088 28.1132 64.1376 26.2722 69.0109L37.4979 73.2517ZM45.1739 73.6317L57.0156 75.5744C57.569 72.201 56.6574 68.7517 54.5096 66.0921C52.3617 63.4326 49.1816 61.8154 45.7672 61.6463L45.1739 73.6317ZM40.3479 81.0037L34.0052 70.8169C33.9907 70.8259 33.9763 70.835 33.9618 70.844L40.3479 81.0037ZM16.5599 79.9017L9.06354 89.2721C9.07948 89.2848 9.09544 89.2975 9.11145 89.3102L16.5599 79.9017ZM16.4459 59.6477L24.01 68.9635C24.0259 68.9505 24.0418 68.9376 24.0577 68.9245L16.4459 59.6477ZM39.5879 58.5457L33.2619 68.7428C33.2847 68.757 33.3076 68.771 33.3305 68.785L39.5879 58.5457ZM44.6039 65.3857L45.3822 77.3604C48.8551 77.1347 52.0588 75.4124 54.1627 72.6402C56.2666 69.868 57.0634 66.319 56.3465 62.9135L44.6039 65.3857ZM37.0039 65.8797L25.919 70.4758C27.8865 75.221 32.6561 78.1876 37.7822 77.8544L37.0039 65.8797ZM34.1539 63.3717L29.4039 74.3916L29.4039 74.3916L34.1539 63.3717ZM22.2219 64.4357L30.0067 73.5678C30.0109 73.5643 30.0151 73.5607 30.0193 73.5571L22.2219 64.4357ZM22.3359 75.1137L14.7688 84.427C14.7923 84.4461 14.8159 84.4652 14.8395 84.4841L22.3359 75.1137ZM34.7619 76.0257L29.3177 65.3317C29.2911 65.3452 29.2646 65.3589 29.2381 65.3726L34.7619 76.0257ZM37.4979 73.2517L36.9045 85.237L44.5805 85.617L45.1739 73.6317L45.7672 61.6463L38.0912 61.2663L37.4979 73.2517ZM45.1739 73.6317L33.3322 71.6889C33.3049 71.855 33.3125 71.6639 33.5284 71.3341C33.6274 71.1829 33.7379 71.0532 33.8422 70.9529C33.9444 70.8546 34.0101 70.8139 34.0052 70.8169L40.3479 81.0037L46.6906 91.1904C52.4384 87.6116 55.9486 82.078 57.0156 75.5744L45.1739 73.6317ZM40.3479 81.0037L33.9618 70.844C33.9193 70.8708 32.7891 71.5117 29.4039 71.5117V83.5117V95.5117C35.2906 95.5117 41.4565 94.4806 46.7339 91.1633L40.3479 81.0037ZM29.4039 83.5117V71.5117C25.4653 71.5117 24.1916 70.6382 24.0083 70.4931L16.5599 79.9017L9.11145 89.3102C15.0082 93.9785 22.2971 95.5117 29.4039 95.5117V83.5117ZM16.5599 79.9017L24.0562 70.5312C23.9797 70.47 23.9766 70.4549 24.0071 70.4939C24.0392 70.5348 24.0682 70.584 24.0852 70.6219C24.1277 70.7164 23.9999 70.5087 23.9999 69.7557H11.9999H-0.000119008C-0.000119008 77.2658 2.83104 84.2861 9.06354 89.2721L16.5599 79.9017ZM11.9999 69.7557H23.9999C23.9999 68.9626 24.1324 68.7279 24.0958 68.8111C24.0806 68.8457 24.0503 68.9002 24.0099 68.9527C23.9707 69.0037 23.9583 69.0055 24.01 68.9635L16.4459 59.6477L8.88177 50.3319C2.71155 55.3419 -0.000119008 62.3574 -0.000119008 69.7557H11.9999ZM16.4459 59.6477L24.0577 68.9245C24.1669 68.835 25.2591 67.9997 28.9099 67.9997V55.9997V43.9997C21.87 43.9997 14.6529 45.5964 8.83408 50.3708L16.4459 59.6477ZM28.9099 55.9997V67.9997C31.8371 67.9997 32.9941 68.5767 33.2619 68.7428L39.5879 58.5457L45.9139 48.3485C40.7096 45.12 34.748 43.9997 28.9099 43.9997V55.9997ZM39.5879 58.5457L33.3305 68.785C33.5427 68.9147 33.421 68.8842 33.217 68.606C33.1212 68.4753 33.0359 68.3281 32.9694 68.1773C32.9035 68.0281 32.8731 67.9141 32.8613 67.8578L44.6039 65.3857L56.3465 62.9135C54.9948 56.4931 51.1299 51.5358 45.8453 48.3063L39.5879 58.5457ZM44.6039 65.3857L43.8255 53.4109L36.2255 53.9049L37.0039 65.8797L37.7822 77.8544L45.3822 77.3604L44.6039 65.3857ZM37.0039 65.8797L48.0888 61.2835C46.036 56.3326 42.0223 53.6959 38.9038 52.3518L34.1539 63.3717L29.4039 74.3916C29.2242 74.3141 27.1104 73.3494 25.919 70.4758L37.0039 65.8797ZM34.1539 63.3717L38.9038 52.3518C35.5917 50.9241 32.1503 50.4217 28.9099 50.4217V62.4217V74.4217C29.304 74.4217 29.524 74.4529 29.6018 74.467C29.6756 74.4803 29.5929 74.473 29.4039 74.3916L34.1539 63.3717ZM28.9099 62.4217V50.4217C24.2915 50.4217 18.895 51.4926 14.4245 55.3142L22.2219 64.4357L30.0193 73.5571C29.3877 74.097 28.8097 74.3319 28.532 74.4155C28.2928 74.4875 28.3686 74.4217 28.9099 74.4217V62.4217ZM22.2219 64.4357L14.4371 55.3035C9.93525 59.1411 7.90388 64.4001 7.90388 69.7557H19.9039H31.9039C31.9039 70.0406 31.85 70.7082 31.4845 71.547C31.106 72.4156 30.551 73.1039 30.0067 73.5678L22.2219 64.4357ZM19.9039 69.7557H7.90388C7.90388 75.2962 10.0981 80.6321 14.7688 84.427L22.3359 75.1137L29.903 65.8003C30.4381 66.235 31.0268 66.9183 31.4389 67.8264C31.839 68.7077 31.9039 69.427 31.9039 69.7557H19.9039ZM22.3359 75.1137L14.8395 84.4841C19.3917 88.1258 24.8123 89.0897 29.4039 89.0897V77.0897V65.0897C28.7006 65.0897 28.4689 65.0109 28.5688 65.0388C28.6989 65.0752 29.2098 65.2453 29.8322 65.7432L22.3359 75.1137ZM29.4039 77.0897V89.0897C32.7573 89.0897 36.6361 88.5711 40.2857 86.6787L34.7619 76.0257L29.2381 65.3726C29.7209 65.1222 30.0379 65.0577 30.059 65.0535C30.0732 65.0507 30.0287 65.0603 29.916 65.0703C29.8036 65.0803 29.635 65.0897 29.4039 65.0897V77.0897ZM34.7619 76.0257L40.2061 86.7196C43.4847 85.0505 46.964 82.1501 48.7235 77.4925L37.4979 73.2517L26.2722 69.0109C27.1704 66.6332 28.8257 65.5822 29.3177 65.3317L34.7619 76.0257ZM80.4462 56.4557H92.4462C92.4462 49.8282 87.0736 44.4557 80.4462 44.4557V56.4557ZM80.4462 83.0557V95.0557C87.0736 95.0557 92.4462 89.6831 92.4462 83.0557H80.4462ZM72.5422 83.0557H60.5422C60.5422 89.6831 65.9148 95.0557 72.5422 95.0557V83.0557ZM72.5422 62.9157H84.5422C84.5422 56.2882 79.1696 50.9157 72.5422 50.9157V62.9157ZM57.4942 62.9157V50.9157C50.8668 50.9157 45.4942 56.2882 45.4942 62.9157H57.4942ZM57.4942 83.0557V95.0557C64.1216 95.0557 69.4942 89.6831 69.4942 83.0557H57.4942ZM49.5902 83.0557H37.5902C37.5902 89.6831 42.9628 95.0557 49.5902 95.0557V83.0557ZM49.5902 56.4557V44.4557C42.9628 44.4557 37.5902 49.8282 37.5902 56.4557H49.5902ZM80.4462 56.4557H68.4462V83.0557H80.4462H92.4462V56.4557H80.4462ZM80.4462 83.0557V71.0557H72.5422V83.0557V95.0557H80.4462V83.0557ZM72.5422 83.0557H84.5422V62.9157H72.5422H60.5422V83.0557H72.5422ZM72.5422 62.9157V50.9157H57.4942V62.9157V74.9157H72.5422V62.9157ZM57.4942 62.9157H45.4942V83.0557H57.4942H69.4942V62.9157H57.4942ZM57.4942 83.0557V71.0557H49.5902V83.0557V95.0557H57.4942V83.0557ZM49.5902 83.0557H61.5902V56.4557H49.5902H37.5902V83.0557H49.5902ZM49.5902 56.4557V68.4557H80.4462V56.4557V44.4557H49.5902V56.4557ZM113.182 58.6977L106.173 68.4383C106.218 68.4705 106.263 68.5024 106.308 68.534L113.182 58.6977ZM113.334 71.9977L120.019 81.9628C120.048 81.9435 120.077 81.924 120.106 81.9044L113.334 71.9977ZM94.752 74.0117V62.0117C88.1246 62.0117 82.752 67.3842 82.752 74.0117H94.752ZM94.752 83.0557V95.0557C101.379 95.0557 106.752 89.6831 106.752 83.0557H94.752ZM86.848 83.0557H74.848C74.848 89.6831 80.2206 95.0557 86.848 95.0557V83.0557ZM86.848 56.4557V44.4557C80.2206 44.4557 74.848 49.8282 74.848 56.4557H86.848ZM94.752 62.9157V50.9157C88.1246 50.9157 82.752 56.2882 82.752 62.9157H94.752ZM94.752 67.9317H82.752C82.752 74.5591 88.1246 79.9317 94.752 79.9317V67.9317ZM105.278 56.4557V68.4557C105.945 68.4557 106.28 68.5343 106.373 68.5607C106.445 68.5811 106.342 68.5598 106.173 68.4383L113.182 58.6977L120.191 48.957C115.614 45.6644 110.357 44.4557 105.278 44.4557V56.4557ZM113.182 58.6977L106.308 68.534C105.702 68.11 105.082 67.4278 104.683 66.5759C104.316 65.7943 104.336 65.3017 104.336 65.4237H116.336H128.336C128.336 59.2771 125.966 52.9916 120.056 48.8613L113.182 58.6977ZM116.336 65.4237H104.336C104.336 65.6308 104.3 65.154 104.67 64.3435C105.083 63.4386 105.771 62.6316 106.562 62.0909L113.334 71.9977L120.106 81.9044C126.187 77.7478 128.336 71.3103 128.336 65.4237H116.336ZM113.334 71.9977L106.649 62.0325C106.957 61.8255 107.102 61.818 106.909 61.8665C106.697 61.9193 106.185 62.0117 105.278 62.0117V74.0117V86.0117C110.114 86.0117 115.398 85.0632 120.019 81.9628L113.334 71.9977ZM105.278 74.0117V62.0117H94.752V74.0117V86.0117H105.278V74.0117ZM94.752 74.0117H82.752V83.0557H94.752H106.752V74.0117H94.752ZM94.752 83.0557V71.0557H86.848V83.0557V95.0557H94.752V83.0557ZM86.848 83.0557H98.848V56.4557H86.848H74.848V83.0557H86.848ZM86.848 56.4557V68.4557H94.752V56.4557V44.4557H86.848V56.4557ZM94.752 56.4557V68.4557H105.278V56.4557V44.4557H94.752V56.4557ZM104.898 67.9317V79.9317C107.131 79.9317 110.956 79.6012 114.493 77.0907C118.787 74.044 120.432 69.4447 120.432 65.4237H108.432H96.432C96.432 64.437 96.6082 62.9977 97.3496 61.4193C98.1203 59.7783 99.2853 58.4541 100.604 57.5186C101.847 56.6364 102.992 56.2602 103.682 56.0972C104.367 55.9352 104.816 55.9317 104.898 55.9317V67.9317ZM108.432 65.4237H120.432C120.432 61.4026 118.787 56.8034 114.493 53.7566C110.956 51.2461 107.131 50.9157 104.898 50.9157V62.9157V74.9157C104.816 74.9157 104.367 74.9121 103.682 74.7501C102.992 74.5871 101.847 74.2109 100.604 73.3287C99.2853 72.3932 98.1203 71.069 97.3496 69.428C96.6082 67.8496 96.432 66.4103 96.432 65.4237H108.432ZM104.898 62.9157V50.9157H94.752V62.9157V74.9157H104.898V62.9157ZM94.752 62.9157H82.752V67.9317H94.752H106.752V62.9157H94.752ZM94.752 67.9317V79.9317H104.898V67.9317V55.9317H94.752V67.9317ZM142.237 83.0557L131.182 87.7233C133.058 92.1672 137.413 95.0557 142.237 95.0557V83.0557ZM140.071 77.9257L151.126 73.258C149.249 68.8141 144.894 65.9257 140.071 65.9257V77.9257ZM124.719 77.9257V65.9257C119.895 65.9257 115.54 68.8141 113.664 73.258L124.719 77.9257ZM122.553 83.0557V95.0557C127.376 95.0557 131.731 92.1672 133.608 87.7233L122.553 83.0557ZM114.763 83.0557L103.773 78.236C102.146 81.9464 102.501 86.2275 104.717 89.6193C106.933 93.0112 110.711 95.0557 114.763 95.0557V83.0557ZM126.429 56.4557V44.4557C121.665 44.4557 117.352 47.2734 115.439 51.636L126.429 56.4557ZM138.589 56.4557L149.572 51.6228C147.656 47.2673 143.347 44.4557 138.589 44.4557V56.4557ZM150.293 83.0557V95.0557C154.347 95.0557 158.127 93.0086 160.342 89.6133C162.558 86.218 162.909 81.9336 161.276 78.2228L150.293 83.0557ZM127.265 71.9977L116.208 67.3333C114.645 71.0387 115.042 75.2808 117.265 78.6319C119.489 81.9831 123.243 83.9977 127.265 83.9977V71.9977ZM137.563 71.9977V83.9977C141.59 83.9977 145.349 81.9775 147.571 78.6187C149.793 75.2599 150.182 71.0104 148.607 67.304L137.563 71.9977ZM132.395 59.8377L143.439 55.144C141.554 50.7086 137.198 47.8313 132.379 47.8377C127.559 47.8441 123.211 50.7329 121.338 55.1733L132.395 59.8377ZM142.237 83.0557L153.292 78.388L151.126 73.258L140.071 77.9257L129.016 82.5933L131.182 87.7233L142.237 83.0557ZM140.071 77.9257V65.9257H124.719V77.9257V89.9257H140.071V77.9257ZM124.719 77.9257L113.664 73.258L111.498 78.388L122.553 83.0557L133.608 87.7233L135.774 82.5933L124.719 77.9257ZM122.553 83.0557V71.0557H114.763V83.0557V95.0557H122.553V83.0557ZM114.763 83.0557L125.752 87.8754L137.418 61.2754L126.429 56.4557L115.439 51.636L103.773 78.236L114.763 83.0557ZM126.429 56.4557V68.4557H138.589V56.4557V44.4557H126.429V56.4557ZM138.589 56.4557L127.605 61.2885L139.309 87.8885L150.293 83.0557L161.276 78.2228L149.572 51.6228L138.589 56.4557ZM150.293 83.0557V71.0557H142.237V83.0557V95.0557H150.293V83.0557ZM127.265 71.9977V83.9977H137.563V71.9977V59.9977H127.265V71.9977ZM137.563 71.9977L148.607 67.304L143.439 55.144L132.395 59.8377L121.351 64.5314L126.519 76.6914L137.563 71.9977ZM132.395 59.8377L121.338 55.1733L116.208 67.3333L127.265 71.9977L138.321 76.6621L143.451 64.5021L132.395 59.8377ZM153.868 83.0557H141.868C141.868 89.6831 147.24 95.0557 153.868 95.0557V83.0557ZM153.868 56.4557V44.4557C147.24 44.4557 141.868 49.8282 141.868 56.4557H153.868ZM161.582 56.4557H173.582C173.582 49.8282 168.209 44.4557 161.582 44.4557V56.4557ZM161.582 76.5957H149.582C149.582 83.2231 154.954 88.5957 161.582 88.5957V76.5957ZM172.184 76.5957V88.5957C178.811 88.5957 184.184 83.2231 184.184 76.5957H172.184ZM172.184 56.4557V44.4557C165.556 44.4557 160.184 49.8282 160.184 56.4557H172.184ZM179.898 56.4557H191.898C191.898 49.8282 186.525 44.4557 179.898 44.4557V56.4557ZM179.898 76.5957H167.898C167.898 83.2231 173.27 88.5957 179.898 88.5957V76.5957ZM190.5 76.5957V88.5957C197.127 88.5957 202.5 83.2231 202.5 76.5957H190.5ZM190.5 56.4557V44.4557C183.872 44.4557 178.5 49.8282 178.5 56.4557H190.5ZM198.214 56.4557H210.214C210.214 49.8282 204.841 44.4557 198.214 44.4557V56.4557ZM198.214 83.0557V95.0557C204.841 95.0557 210.214 89.6831 210.214 83.0557H198.214ZM153.868 83.0557H165.868V56.4557H153.868H141.868V83.0557H153.868ZM153.868 56.4557V68.4557H161.582V56.4557V44.4557H153.868V56.4557ZM161.582 56.4557H149.582V76.5957H161.582H173.582V56.4557H161.582ZM161.582 76.5957V88.5957H172.184V76.5957V64.5957H161.582V76.5957ZM172.184 76.5957H184.184V56.4557H172.184H160.184V76.5957H172.184ZM172.184 56.4557V68.4557H179.898V56.4557V44.4557H172.184V56.4557ZM179.898 56.4557H167.898V76.5957H179.898H191.898V56.4557H179.898ZM179.898 76.5957V88.5957H190.5V76.5957V64.5957H179.898V76.5957ZM190.5 76.5957H202.5V56.4557H190.5H178.5V76.5957H190.5ZM190.5 56.4557V68.4557H198.214V56.4557V44.4557H190.5V56.4557ZM198.214 56.4557H186.214V83.0557H198.214H210.214V56.4557H198.214ZM198.214 83.0557V71.0557H153.868V83.0557V95.0557H198.214V83.0557ZM224.546 56.4557V44.4557C220.275 44.4557 216.325 46.7262 214.176 50.4174L224.546 56.4557ZM236.706 56.4557H248.706C248.706 49.8282 243.333 44.4557 236.706 44.4557V56.4557ZM236.706 83.0557V95.0557C243.333 95.0557 248.706 89.6831 248.706 83.0557H236.706ZM228.992 83.0557H216.992C216.992 89.6831 222.365 95.0557 228.992 95.0557V83.0557ZM228.992 62.0417H240.992C240.992 56.6186 237.355 51.8695 232.119 50.4563C226.884 49.0431 221.351 51.3169 218.622 56.0034L228.992 62.0417ZM216.756 83.0557V95.0557C221.027 95.0557 224.977 92.7852 227.126 89.094L216.756 83.0557ZM204.596 83.0557H192.596C192.596 89.6831 197.969 95.0557 204.596 95.0557V83.0557ZM204.596 56.4557V44.4557C197.969 44.4557 192.596 49.8282 192.596 56.4557H204.596ZM212.31 56.4557H224.31C224.31 49.8282 218.937 44.4557 212.31 44.4557V56.4557ZM212.31 77.4697H200.31C200.31 82.8927 203.947 87.6418 209.183 89.055C214.419 90.4683 219.951 88.1944 222.68 83.508L212.31 77.4697ZM224.546 56.4557V68.4557H236.706V56.4557V44.4557H224.546V56.4557ZM236.706 56.4557H224.706V83.0557H236.706H248.706V56.4557H236.706ZM236.706 83.0557V71.0557H228.992V83.0557V95.0557H236.706V83.0557ZM228.992 83.0557H240.992V62.0417H228.992H216.992V83.0557H228.992ZM228.992 62.0417L218.622 56.0034L206.386 77.0174L216.756 83.0557L227.126 89.094L239.362 68.08L228.992 62.0417ZM216.756 83.0557V71.0557H204.596V83.0557V95.0557H216.756V83.0557ZM204.596 83.0557H216.596V56.4557H204.596H192.596V83.0557H204.596ZM204.596 56.4557V68.4557H212.31V56.4557V44.4557H204.596V56.4557ZM212.31 56.4557H200.31V77.4697H212.31H224.31V56.4557H212.31ZM212.31 77.4697L222.68 83.508L234.916 62.494L224.546 56.4557L214.176 50.4174L201.94 71.4314L212.31 77.4697ZM265.194 69.4897L263.714 57.5814C257.627 58.3382 253.091 63.5629 253.196 69.6953C253.301 75.8277 258.014 80.8938 264.123 81.4417L265.194 69.4897ZM270.666 81.1177L277.175 91.1993L277.175 91.1993L270.666 81.1177ZM243.078 83.0557H231.078C231.078 89.6831 236.451 95.0557 243.078 95.0557V83.0557ZM243.078 56.4557V44.4557C236.451 44.4557 231.078 49.8282 231.078 56.4557H243.078ZM269.602 58.4317L262.826 68.3353C262.846 68.3491 262.866 68.3627 262.887 68.3763L269.602 58.4317ZM250.982 62.5357V50.5357C244.355 50.5357 238.982 55.9082 238.982 62.5357H250.982ZM250.982 66.7537H238.982C238.982 73.3811 244.355 78.7537 250.982 78.7537V66.7537ZM263.75 66.1837L257.195 56.1323L257.195 56.1323L263.75 66.1837ZM264.624 76.4817L259.853 65.471C259.807 65.4909 259.761 65.5111 259.716 65.5316L264.624 76.4817ZM264.662 73.0237L259.754 83.9738L259.754 83.9738L264.662 73.0237ZM250.982 72.5297V60.5297C244.355 60.5297 238.982 65.9022 238.982 72.5297H250.982ZM250.982 76.9757H238.982C238.982 83.6031 244.355 88.9757 250.982 88.9757V76.9757ZM265.194 69.4897L264.123 81.4417C264.919 81.5131 265.298 81.6151 265.37 81.6375C265.446 81.6608 265.018 81.5442 264.385 81.0725C263.694 80.5586 262.912 79.7317 262.35 78.5761C261.797 77.4405 261.668 76.4262 261.668 75.7977H273.668H285.668C285.668 70.3796 283.345 65.2668 278.715 61.8208C274.749 58.8684 270.079 57.8796 266.266 57.5376L265.194 69.4897ZM273.668 75.7977H261.668C261.668 75.0855 261.846 74.0221 262.467 72.9214C263.073 71.848 263.803 71.2653 264.158 71.036L270.666 81.1177L277.175 91.1993C282.367 87.8472 285.668 82.3964 285.668 75.7977H273.668ZM270.666 81.1177L264.158 71.036C264.662 70.7106 264.853 70.7417 264.389 70.8419C263.932 70.9406 263.074 71.0557 261.698 71.0557V83.0557V95.0557C266.601 95.0557 272.33 94.3271 277.175 91.1993L270.666 81.1177ZM261.698 83.0557V71.0557H243.078V83.0557V95.0557H261.698V83.0557ZM243.078 83.0557H255.078V56.4557H243.078H231.078V83.0557H243.078ZM243.078 56.4557V68.4557H261.698V56.4557V44.4557H243.078V56.4557ZM261.698 56.4557V68.4557C262.606 68.4557 263.096 68.5473 263.272 68.5914C263.431 68.631 263.214 68.601 262.826 68.3353L269.602 58.4317L276.379 48.528C271.765 45.371 266.457 44.4557 261.698 44.4557V56.4557ZM269.602 58.4317L262.887 68.3763C262.613 68.1916 261.938 67.6544 261.355 66.6239C260.745 65.5475 260.528 64.4475 260.528 63.5997H272.528H284.528C284.528 57.0121 281.161 51.7574 276.318 48.487L269.602 58.4317ZM272.528 63.5997H260.528C260.528 62.933 260.658 61.9214 261.18 60.7943C261.711 59.6468 262.463 58.7815 263.181 58.2049C264.419 57.2103 265.103 57.4086 263.714 57.5814L265.194 69.4897L266.675 81.3979C270.175 80.9627 274.526 79.8754 278.209 76.9174C282.453 73.509 284.528 68.6515 284.528 63.5997H272.528ZM250.982 62.5357H238.982V66.7537H250.982H262.982V62.5357H250.982ZM250.982 66.7537V78.7537H261.318V66.7537V54.7537H250.982V66.7537ZM261.318 66.7537V78.7537C263.608 78.7537 267.034 78.3689 270.306 76.235L263.75 66.1837L257.195 56.1323C259.302 54.7584 261.106 54.7537 261.318 54.7537V66.7537ZM263.75 66.1837L270.306 76.235C274.057 73.7887 276.624 69.6049 276.624 64.6257H264.624H252.624C252.624 63.1221 252.976 61.3569 253.94 59.6381C254.889 57.9462 256.138 56.8218 257.195 56.1323L263.75 66.1837ZM264.624 64.6257H276.624C276.624 60.1532 274.518 55.6382 270.21 52.9151C266.831 50.7785 263.298 50.5357 261.318 50.5357V62.5357V74.5357C261.274 74.5357 260.893 74.5355 260.29 74.4084C259.699 74.2837 258.615 73.9785 257.386 73.2013C256.075 72.3729 254.743 71.0917 253.803 69.3082C252.881 67.5593 252.624 65.8782 252.624 64.6257H264.624ZM261.318 62.5357V50.5357H250.982V62.5357V74.5357H261.318V62.5357ZM260.9 76.9757V88.9757C262.814 88.9757 266.296 88.8831 269.533 87.4318L264.624 76.4817L259.716 65.5316C260.319 65.261 260.801 65.123 261.068 65.0561C261.346 64.9866 261.524 64.9618 261.564 64.9564C261.626 64.9482 261.436 64.9757 260.9 64.9757V76.9757ZM264.624 76.4817L269.396 87.4923C271.449 86.6026 273.746 85.041 275.464 82.4636C277.194 79.8686 277.764 77.1033 277.764 74.7717H265.764H253.764C253.764 73.2507 254.145 71.1757 255.495 69.1508C256.833 67.1434 258.56 66.0314 259.853 65.471L264.624 76.4817ZM265.764 74.7717H277.764C277.764 72.5755 277.267 69.8892 275.64 67.308C273.994 64.6969 271.723 63.0384 269.571 62.0735L264.662 73.0237L259.754 83.9738C258.336 83.3383 256.617 82.1358 255.338 80.1073C254.078 78.1088 253.764 76.1319 253.764 74.7717H265.764ZM264.662 73.0237L269.571 62.0736C266.463 60.6804 263.254 60.5297 261.28 60.5297V72.5297V84.5297C261.639 84.5297 261.695 84.5511 261.532 84.5272C261.44 84.5138 261.241 84.4807 260.961 84.4063C260.684 84.3329 260.264 84.2023 259.754 83.9738L264.662 73.0237ZM261.28 72.5297V60.5297H250.982V72.5297V84.5297H261.28V72.5297ZM250.982 72.5297H238.982V76.9757H250.982H262.982V72.5297H250.982ZM250.982 76.9757V88.9757H260.9V76.9757V64.9757H250.982V76.9757ZM302.66 83.0557L291.605 87.7233C293.482 92.1672 297.837 95.0557 302.66 95.0557V83.0557ZM300.494 77.9257L311.549 73.258C309.673 68.8141 305.318 65.9257 300.494 65.9257V77.9257ZM285.142 77.9257V65.9257C280.319 65.9257 275.964 68.8141 274.087 73.258L285.142 77.9257ZM282.976 83.0557V95.0557C287.8 95.0557 292.155 92.1672 294.031 87.7233L282.976 83.0557ZM275.186 83.0557L264.197 78.236C262.57 81.9464 262.924 86.2275 265.141 89.6193C267.357 93.0112 271.135 95.0557 275.186 95.0557V83.0557ZM286.852 56.4557V44.4557C282.089 44.4557 277.776 47.2734 275.863 51.636L286.852 56.4557ZM299.012 56.4557L309.996 51.6228C308.08 47.2673 303.771 44.4557 299.012 44.4557V56.4557ZM310.716 83.0557V95.0557C314.771 95.0557 318.551 93.0086 320.766 89.6133C322.982 86.218 323.333 81.9336 321.7 78.2228L310.716 83.0557ZM287.688 71.9977L276.632 67.3333C275.069 71.0387 275.466 75.2808 277.689 78.6319C279.912 81.9831 283.667 83.9977 287.688 83.9977V71.9977ZM297.986 71.9977V83.9977C302.014 83.9977 305.772 81.9775 307.994 78.6187C310.217 75.2599 310.606 71.0104 309.03 67.304L297.986 71.9977ZM292.818 59.8377L303.862 55.144C301.977 50.7086 297.622 47.8313 292.802 47.8377C287.983 47.8441 283.635 50.7329 281.762 55.1733L292.818 59.8377ZM302.66 83.0557L313.715 78.388L311.549 73.258L300.494 77.9257L289.439 82.5933L291.605 87.7233L302.66 83.0557ZM300.494 77.9257V65.9257H285.142V77.9257V89.9257H300.494V77.9257ZM285.142 77.9257L274.087 73.258L271.921 78.388L282.976 83.0557L294.031 87.7233L296.197 82.5933L285.142 77.9257ZM282.976 83.0557V71.0557H275.186V83.0557V95.0557H282.976V83.0557ZM275.186 83.0557L286.176 87.8754L297.842 61.2754L286.852 56.4557L275.863 51.636L264.197 78.236L275.186 83.0557ZM286.852 56.4557V68.4557H299.012V56.4557V44.4557H286.852V56.4557ZM299.012 56.4557L288.029 61.2885L299.733 87.8885L310.716 83.0557L321.7 78.2228L309.996 51.6228L299.012 56.4557ZM310.716 83.0557V71.0557H302.66V83.0557V95.0557H310.716V83.0557ZM287.688 71.9977V83.9977H297.986V71.9977V59.9977H287.688V71.9977ZM297.986 71.9977L309.03 67.304L303.862 55.144L292.818 59.8377L281.774 64.5314L286.942 76.6914L297.986 71.9977ZM292.818 59.8377L281.762 55.1733L276.632 67.3333L287.688 71.9977L298.745 76.6621L303.875 64.5021L292.818 59.8377ZM356.813 59.6857L349.154 68.9237C349.183 68.9473 349.212 68.9708 349.24 68.9942L356.813 59.6857ZM356.813 79.8637L364.425 89.1405L364.434 89.1336L356.813 79.8637ZM332.873 80.6997L326.278 90.7247C326.299 90.7382 326.319 90.7516 326.34 90.765L332.873 80.6997ZM327.515 72.7577L339.279 70.3874C338.15 64.7863 333.229 60.7577 327.515 60.7577V72.7577ZM322.195 72.7577V60.7577C315.568 60.7577 310.195 66.1302 310.195 72.7577H322.195ZM322.195 83.0557V95.0557C328.823 95.0557 334.195 89.6831 334.195 83.0557H322.195ZM314.291 83.0557H302.291C302.291 89.6831 307.664 95.0557 314.291 95.0557V83.0557ZM314.291 56.4557V44.4557C307.664 44.4557 302.291 49.8282 302.291 56.4557H314.291ZM322.195 56.4557H334.195C334.195 49.8282 328.823 44.4557 322.195 44.4557V56.4557ZM322.195 66.2977H310.195C310.195 72.9251 315.568 78.2977 322.195 78.2977V66.2977ZM327.629 66.2977V78.2977C333.21 78.2977 338.053 74.451 339.317 69.0158L327.629 66.2977ZM333.063 58.6977L326.679 48.5369L326.679 48.5369L333.063 58.6977ZM337.509 75.0757L345.307 65.9542L345.307 65.9542L337.509 75.0757ZM351.037 75.0757L343.24 65.9542L343.24 65.9542L351.037 75.0757ZM351.037 64.4357L343.24 73.5571L343.24 73.5571L351.037 64.4357ZM337.509 64.4357L345.307 73.5571L345.307 73.5571L337.509 64.4357ZM344.273 55.9997V67.9997C347.982 67.9997 349.066 68.8502 349.154 68.9237L356.813 59.6857L364.472 50.4476C358.633 45.6065 351.357 43.9997 344.273 43.9997V55.9997ZM356.813 59.6857L349.24 68.9942C349.314 69.0544 349.318 69.0693 349.288 69.0316C349.258 68.9921 349.23 68.9447 349.214 68.9085C349.173 68.8174 349.297 69.0215 349.297 69.7557H361.297H373.297C373.297 62.3179 370.511 55.36 364.386 50.3771L356.813 59.6857ZM361.297 69.7557H349.297C349.297 70.4887 349.174 70.703 349.207 70.6277C349.22 70.5997 349.242 70.5614 349.265 70.5311C349.287 70.5027 349.276 70.526 349.193 70.5937L356.813 79.8637L364.434 89.1336C370.514 84.1356 373.297 77.1938 373.297 69.7557H361.297ZM356.813 79.8637L349.202 70.5868C349.11 70.6617 348.007 71.5117 344.273 71.5117V83.5117V95.5117C351.332 95.5117 358.588 93.9296 364.425 89.1405L356.813 79.8637ZM344.273 83.5117V71.5117C341.053 71.5117 339.756 70.8607 339.407 70.6343L332.873 80.6997L326.34 90.765C331.767 94.288 338.07 95.5117 344.273 95.5117V83.5117ZM332.873 80.6997L339.469 70.6747C339.343 70.5922 339.29 70.5415 339.282 70.5335C339.275 70.5271 339.292 70.5431 339.316 70.5779C339.339 70.6128 339.347 70.6334 339.343 70.6227C339.337 70.6098 339.309 70.5384 339.279 70.3874L327.515 72.7577L315.752 75.1279C317.067 81.6554 320.71 87.0614 326.278 90.7247L332.873 80.6997ZM327.515 72.7577V60.7577H322.195V72.7577V84.7577H327.515V72.7577ZM322.195 72.7577H310.195V83.0557H322.195H334.195V72.7577H322.195ZM322.195 83.0557V71.0557H314.291V83.0557V95.0557H322.195V83.0557ZM314.291 83.0557H326.291V56.4557H314.291H302.291V83.0557H314.291ZM314.291 56.4557V68.4557H322.195V56.4557V44.4557H314.291V56.4557ZM322.195 56.4557H310.195V66.2977H322.195H334.195V56.4557H322.195ZM322.195 66.2977V78.2977H327.629V66.2977V54.2977H322.195V66.2977ZM327.629 66.2977L339.317 69.0158C339.346 68.8926 339.369 68.8432 339.367 68.847C339.365 68.8526 339.349 68.8843 339.319 68.9261C339.29 68.9678 339.268 68.9884 339.271 68.9856C339.275 68.9812 339.326 68.9351 339.448 68.8585L333.063 58.6977L326.679 48.5369C321.159 52.0053 317.424 57.2018 315.941 63.5795L327.629 66.2977ZM333.063 58.6977L339.448 68.8585C339.821 68.6237 341.127 67.9997 344.273 67.9997V55.9997V43.9997C338.198 43.9997 332.031 45.1743 326.679 48.5369L333.063 58.6977ZM337.509 75.0757L329.712 84.1971C334.216 88.0472 339.666 89.0897 344.273 89.0897V77.0897V65.0897C343.688 65.0897 343.583 65.0196 343.803 65.0852C344.061 65.1621 344.652 65.3942 345.307 65.9542L337.509 75.0757ZM344.273 77.0897V89.0897C348.881 89.0897 354.331 88.0472 358.835 84.1971L351.037 75.0757L343.24 65.9542C343.895 65.3942 344.485 65.1621 344.744 65.0852C344.964 65.0196 344.859 65.0897 344.273 65.0897V77.0897ZM351.037 75.0757L358.835 84.1971C363.268 80.4073 365.393 75.2025 365.393 69.7557H353.393H341.393C341.393 69.4119 341.461 68.7187 341.832 67.8795C342.213 67.0198 342.753 66.3706 343.24 65.9542L351.037 75.0757ZM353.393 69.7557H365.393C365.393 64.3088 363.268 59.104 358.835 55.3142L351.037 64.4357L343.24 73.5571C342.753 73.1407 342.213 72.4915 341.832 71.6318C341.461 70.7927 341.393 70.0994 341.393 69.7557H353.393ZM351.037 64.4357L358.835 55.3142C354.331 51.4641 348.881 50.4217 344.273 50.4217V62.4217V74.4217C344.859 74.4217 344.964 74.4918 344.744 74.4262C344.485 74.3492 343.895 74.1171 343.24 73.5571L351.037 64.4357ZM344.273 62.4217V50.4217C339.666 50.4217 334.216 51.4641 329.712 55.3142L337.509 64.4357L345.307 73.5571C344.652 74.1171 344.061 74.3492 343.803 74.4262C343.583 74.4918 343.688 74.4217 344.273 74.4217V62.4217ZM337.509 64.4357L329.712 55.3142C325.279 59.104 323.153 64.3088 323.153 69.7557H335.153H347.153C347.153 70.0994 347.086 70.7927 346.715 71.6318C346.334 72.4915 345.794 73.1407 345.307 73.5571L337.509 64.4357ZM335.153 69.7557H323.153C323.153 75.2025 325.279 80.4073 329.712 84.1971L337.509 75.0757L345.307 65.9542C345.794 66.3706 346.334 67.0198 346.715 67.8795C347.086 68.7187 347.153 69.4119 347.153 69.7557H335.153ZM363.371 62.9157H351.371C351.371 69.5431 356.743 74.9157 363.371 74.9157V62.9157ZM363.371 56.4557V44.4557C356.743 44.4557 351.371 49.8282 351.371 56.4557H363.371ZM393.695 56.4557H405.695C405.695 49.8282 400.322 44.4557 393.695 44.4557V56.4557ZM393.695 62.9157V74.9157C400.322 74.9157 405.695 69.5431 405.695 62.9157H393.695ZM382.485 62.9157V50.9157C375.857 50.9157 370.485 56.2882 370.485 62.9157H382.485ZM382.485 83.0557V95.0557C389.112 95.0557 394.485 89.6831 394.485 83.0557H382.485ZM374.581 83.0557H362.581C362.581 89.6831 367.953 95.0557 374.581 95.0557V83.0557ZM374.581 62.9157H386.581C386.581 56.2882 381.208 50.9157 374.581 50.9157V62.9157ZM363.371 62.9157H375.371V56.4557H363.371H351.371V62.9157H363.371ZM363.371 56.4557V68.4557H393.695V56.4557V44.4557H363.371V56.4557ZM393.695 56.4557H381.695V62.9157H393.695H405.695V56.4557H393.695ZM393.695 62.9157V50.9157H382.485V62.9157V74.9157H393.695V62.9157ZM382.485 62.9157H370.485V83.0557H382.485H394.485V62.9157H382.485ZM382.485 83.0557V71.0557H374.581V83.0557V95.0557H382.485V83.0557ZM374.581 83.0557H386.581V62.9157H374.581H362.581V83.0557H374.581ZM374.581 62.9157V50.9157H363.371V62.9157V74.9157H374.581V62.9157Z" fill="#282828" mask="url(#path-1-outside-1_851_84)"></path></svg>