<svg xmlns="http://www.w3.org/2000/svg" width="472" height="60" viewBox="0 0 472 60" fill="none"><mask id="path-1-outside-1_655_300" maskUnits="userSpaceOnUse" x="-0.640137" y="-0.116211" width="473" height="60" fill="black"><rect fill="white" x="-0.640137" y="-0.116211" width="473" height="60"></rect><path d="M30.7341 30.1258C34.0274 30.1258 36.6874 30.8225 38.7141 32.2158C40.7661 33.5838 41.7921 35.6738 41.7921 38.4858C41.7921 41.3485 40.7788 43.4638 38.7521 44.8318C36.7254 46.1998 34.0528 46.8838 30.7341 46.8838H15.3061H12.0001V20.2838H19.9041H38.9041V26.3638H19.9041V30.1258H30.7341ZM30.1261 40.8038C32.6341 40.8038 33.8881 40.0185 33.8881 38.4478C33.8881 36.9025 32.6341 36.1298 30.1261 36.1298H19.9041V40.8038H30.1261ZM63.5438 29.3278C66.8625 29.3278 69.5352 30.0371 71.5618 31.4558C73.5885 32.8745 74.6018 35.1038 74.6018 38.1438C74.6018 41.1585 73.5885 43.3751 71.5618 44.7938C69.5605 46.1871 66.8878 46.8838 63.5438 46.8838H49.4838H46.1778V20.2838H54.0818V29.3278H63.5438ZM78.5158 20.2838H86.4198V46.8838H78.5158V20.2838ZM63.1638 40.4238C65.5198 40.4238 66.6978 39.6131 66.6978 37.9918C66.6978 36.3705 65.5198 35.5598 63.1638 35.5598H54.0818V40.4238H63.1638ZM116.765 37.0798L124.441 37.4598C123.909 40.7025 122.301 43.1598 119.615 44.8318C116.955 46.5038 113.307 47.3398 108.671 47.3398C103.149 47.3398 98.8672 46.1365 95.8272 43.7298C92.7872 41.2978 91.2672 37.9158 91.2672 33.5838C91.2672 29.2518 92.7492 25.8825 95.7132 23.4758C98.6772 21.0438 102.832 19.8278 108.177 19.8278C112.56 19.8278 116.119 20.6765 118.855 22.3738C121.591 24.0458 123.263 26.3258 123.871 29.2138L116.271 29.7078C115.841 28.6691 114.891 27.8331 113.421 27.1998C111.952 26.5665 110.204 26.2498 108.177 26.2498C105.289 26.2498 103.06 26.9211 101.489 28.2638C99.9439 29.5811 99.1712 31.3545 99.1712 33.5838C99.1712 35.8385 99.9819 37.6245 101.603 38.9418C103.25 40.2591 105.606 40.9178 108.671 40.9178C110.875 40.9178 112.661 40.5631 114.029 39.8538C115.423 39.1445 116.335 38.2198 116.765 37.0798ZM126.132 26.7438V20.2838H156.456V26.7438H145.246V46.8838H137.342V26.7438H126.132ZM178.979 20.2838C182.171 20.2838 184.806 21.0311 186.883 22.5258C188.986 23.9951 190.037 26.2371 190.037 29.2518C190.037 32.2665 189.036 34.4578 187.035 35.8258C185.034 37.1685 182.348 37.8398 178.979 37.8398H168.453V46.8838H160.549V20.2838H168.453H178.979ZM178.599 31.7598C180.955 31.7598 182.133 30.9238 182.133 29.2518C182.133 27.5798 180.955 26.7438 178.599 26.7438H168.453V31.7598H178.599ZM211.981 29.3278C215.3 29.3278 217.973 30.0371 219.999 31.4558C222.026 32.8745 223.039 35.1038 223.039 38.1438C223.039 41.1585 222.026 43.3751 219.999 44.7938C217.998 46.1871 215.325 46.8838 211.981 46.8838H197.921H194.615V20.2838H202.519V29.3278H211.981ZM226.953 20.2838H234.857V46.8838H226.953V20.2838ZM211.601 40.4238C213.957 40.4238 215.135 39.6131 215.135 37.9918C215.135 36.3705 213.957 35.5598 211.601 35.5598H202.519V40.4238H211.601ZM266.077 11.9998C265.899 16.1798 262.973 18.2698 257.299 18.2698C251.624 18.2698 248.698 16.1798 248.521 11.9998H253.537C253.714 13.4945 254.968 14.2418 257.299 14.2418C259.604 14.2418 260.845 13.4945 261.023 11.9998H266.077ZM261.175 20.2838H273.335V46.8838H265.621V25.8698L253.385 46.8838H241.225V20.2838H248.939V41.2978L261.175 20.2838ZM309.345 33.0898C315.906 33.6218 319.187 35.8385 319.187 39.7398C319.187 41.0825 318.807 42.2605 318.047 43.2738C317.287 44.2618 316.21 45.0471 314.817 45.6298C313.449 46.2125 311.878 46.6431 310.105 46.9218C308.357 47.2005 306.406 47.3398 304.253 47.3398C299.516 47.3398 295.842 46.6305 293.233 45.2118C290.649 43.7678 289.129 41.4625 288.673 38.2958L296.273 38.0298C296.856 40.1831 299.516 41.2598 304.253 41.2598C306.533 41.2598 308.268 41.0191 309.459 40.5378C310.675 40.0565 311.283 39.4485 311.283 38.7138C311.283 38.0045 310.688 37.4218 309.497 36.9658C308.306 36.4845 306.495 36.2438 304.063 36.2438H300.187V30.4678H303.455C305.684 30.4678 307.356 30.2651 308.471 29.8598C309.586 29.4291 310.143 28.8718 310.143 28.1878C310.143 27.5038 309.611 26.9591 308.547 26.5538C307.483 26.1231 306.039 25.9078 304.215 25.9078C300.086 25.9078 297.717 26.8705 297.109 28.7958L289.547 28.3778C290.003 25.5911 291.51 23.4758 294.069 22.0318C296.653 20.5625 300.035 19.8278 304.215 19.8278C306.824 19.8278 309.104 20.0305 311.055 20.4358C313.031 20.8158 314.69 21.5505 316.033 22.6398C317.376 23.7038 318.047 25.0971 318.047 26.8198C318.047 30.4425 315.146 32.5325 309.345 33.0898ZM348.195 46.8838L346.029 41.7538H330.677L328.511 46.8838H320.721L332.387 20.2838H344.547L356.251 46.8838H348.195ZM333.223 35.8258H343.521L338.353 23.6658L333.223 35.8258ZM391.746 46.8838H381.752L371.644 36.5858H367.73V46.8838H359.826V20.2838H367.73V30.5438H371.492L381.106 20.2838H390.568L377.762 33.0518L391.746 46.8838ZM420.039 46.8838L417.873 41.7538H402.521L400.355 46.8838H392.565L404.231 20.2838H416.391L428.095 46.8838H420.039ZM405.067 35.8258H415.365L410.197 23.6658L405.067 35.8258ZM449.693 33.0898C456.254 33.6218 459.535 35.8385 459.535 39.7398C459.535 41.0825 459.155 42.2605 458.395 43.2738C457.635 44.2618 456.558 45.0471 455.165 45.6298C453.797 46.2125 452.226 46.6431 450.453 46.9218C448.705 47.2005 446.754 47.3398 444.601 47.3398C439.863 47.3398 436.19 46.6305 433.581 45.2118C430.997 43.7678 429.477 41.4625 429.021 38.2958L436.621 38.0298C437.203 40.1831 439.863 41.2598 444.601 41.2598C446.881 41.2598 448.616 41.0191 449.807 40.5378C451.023 40.0565 451.631 39.4485 451.631 38.7138C451.631 38.0045 451.035 37.4218 449.845 36.9658C448.654 36.4845 446.843 36.2438 444.411 36.2438H440.535V30.4678H443.803C446.032 30.4678 447.704 30.2651 448.819 29.8598C449.933 29.4291 450.491 28.8718 450.491 28.1878C450.491 27.5038 449.959 26.9591 448.895 26.5538C447.831 26.1231 446.387 25.9078 444.563 25.9078C440.433 25.9078 438.065 26.8705 437.457 28.7958L429.895 28.3778C430.351 25.5911 431.858 23.4758 434.417 22.0318C437.001 20.5625 440.383 19.8278 444.563 19.8278C447.172 19.8278 449.452 20.0305 451.403 20.4358C453.379 20.8158 455.038 21.5505 456.381 22.6398C457.723 23.7038 458.395 25.0971 458.395 26.8198C458.395 30.4425 455.494 32.5325 449.693 33.0898Z"></path></mask><path d="M30.7341 30.1258C34.0274 30.1258 36.6874 30.8225 38.7141 32.2158C40.7661 33.5838 41.7921 35.6738 41.7921 38.4858C41.7921 41.3485 40.7788 43.4638 38.7521 44.8318C36.7254 46.1998 34.0528 46.8838 30.7341 46.8838H15.3061H12.0001V20.2838H19.9041H38.9041V26.3638H19.9041V30.1258H30.7341ZM30.1261 40.8038C32.6341 40.8038 33.8881 40.0185 33.8881 38.4478C33.8881 36.9025 32.6341 36.1298 30.1261 36.1298H19.9041V40.8038H30.1261ZM63.5438 29.3278C66.8625 29.3278 69.5352 30.0371 71.5618 31.4558C73.5885 32.8745 74.6018 35.1038 74.6018 38.1438C74.6018 41.1585 73.5885 43.3751 71.5618 44.7938C69.5605 46.1871 66.8878 46.8838 63.5438 46.8838H49.4838H46.1778V20.2838H54.0818V29.3278H63.5438ZM78.5158 20.2838H86.4198V46.8838H78.5158V20.2838ZM63.1638 40.4238C65.5198 40.4238 66.6978 39.6131 66.6978 37.9918C66.6978 36.3705 65.5198 35.5598 63.1638 35.5598H54.0818V40.4238H63.1638ZM116.765 37.0798L124.441 37.4598C123.909 40.7025 122.301 43.1598 119.615 44.8318C116.955 46.5038 113.307 47.3398 108.671 47.3398C103.149 47.3398 98.8672 46.1365 95.8272 43.7298C92.7872 41.2978 91.2672 37.9158 91.2672 33.5838C91.2672 29.2518 92.7492 25.8825 95.7132 23.4758C98.6772 21.0438 102.832 19.8278 108.177 19.8278C112.56 19.8278 116.119 20.6765 118.855 22.3738C121.591 24.0458 123.263 26.3258 123.871 29.2138L116.271 29.7078C115.841 28.6691 114.891 27.8331 113.421 27.1998C111.952 26.5665 110.204 26.2498 108.177 26.2498C105.289 26.2498 103.06 26.9211 101.489 28.2638C99.9439 29.5811 99.1712 31.3545 99.1712 33.5838C99.1712 35.8385 99.9819 37.6245 101.603 38.9418C103.25 40.2591 105.606 40.9178 108.671 40.9178C110.875 40.9178 112.661 40.5631 114.029 39.8538C115.423 39.1445 116.335 38.2198 116.765 37.0798ZM126.132 26.7438V20.2838H156.456V26.7438H145.246V46.8838H137.342V26.7438H126.132ZM178.979 20.2838C182.171 20.2838 184.806 21.0311 186.883 22.5258C188.986 23.9951 190.037 26.2371 190.037 29.2518C190.037 32.2665 189.036 34.4578 187.035 35.8258C185.034 37.1685 182.348 37.8398 178.979 37.8398H168.453V46.8838H160.549V20.2838H168.453H178.979ZM178.599 31.7598C180.955 31.7598 182.133 30.9238 182.133 29.2518C182.133 27.5798 180.955 26.7438 178.599 26.7438H168.453V31.7598H178.599ZM211.981 29.3278C215.3 29.3278 217.973 30.0371 219.999 31.4558C222.026 32.8745 223.039 35.1038 223.039 38.1438C223.039 41.1585 222.026 43.3751 219.999 44.7938C217.998 46.1871 215.325 46.8838 211.981 46.8838H197.921H194.615V20.2838H202.519V29.3278H211.981ZM226.953 20.2838H234.857V46.8838H226.953V20.2838ZM211.601 40.4238C213.957 40.4238 215.135 39.6131 215.135 37.9918C215.135 36.3705 213.957 35.5598 211.601 35.5598H202.519V40.4238H211.601ZM266.077 11.9998C265.899 16.1798 262.973 18.2698 257.299 18.2698C251.624 18.2698 248.698 16.1798 248.521 11.9998H253.537C253.714 13.4945 254.968 14.2418 257.299 14.2418C259.604 14.2418 260.845 13.4945 261.023 11.9998H266.077ZM261.175 20.2838H273.335V46.8838H265.621V25.8698L253.385 46.8838H241.225V20.2838H248.939V41.2978L261.175 20.2838ZM309.345 33.0898C315.906 33.6218 319.187 35.8385 319.187 39.7398C319.187 41.0825 318.807 42.2605 318.047 43.2738C317.287 44.2618 316.21 45.0471 314.817 45.6298C313.449 46.2125 311.878 46.6431 310.105 46.9218C308.357 47.2005 306.406 47.3398 304.253 47.3398C299.516 47.3398 295.842 46.6305 293.233 45.2118C290.649 43.7678 289.129 41.4625 288.673 38.2958L296.273 38.0298C296.856 40.1831 299.516 41.2598 304.253 41.2598C306.533 41.2598 308.268 41.0191 309.459 40.5378C310.675 40.0565 311.283 39.4485 311.283 38.7138C311.283 38.0045 310.688 37.4218 309.497 36.9658C308.306 36.4845 306.495 36.2438 304.063 36.2438H300.187V30.4678H303.455C305.684 30.4678 307.356 30.2651 308.471 29.8598C309.586 29.4291 310.143 28.8718 310.143 28.1878C310.143 27.5038 309.611 26.9591 308.547 26.5538C307.483 26.1231 306.039 25.9078 304.215 25.9078C300.086 25.9078 297.717 26.8705 297.109 28.7958L289.547 28.3778C290.003 25.5911 291.51 23.4758 294.069 22.0318C296.653 20.5625 300.035 19.8278 304.215 19.8278C306.824 19.8278 309.104 20.0305 311.055 20.4358C313.031 20.8158 314.69 21.5505 316.033 22.6398C317.376 23.7038 318.047 25.0971 318.047 26.8198C318.047 30.4425 315.146 32.5325 309.345 33.0898ZM348.195 46.8838L346.029 41.7538H330.677L328.511 46.8838H320.721L332.387 20.2838H344.547L356.251 46.8838H348.195ZM333.223 35.8258H343.521L338.353 23.6658L333.223 35.8258ZM391.746 46.8838H381.752L371.644 36.5858H367.73V46.8838H359.826V20.2838H367.73V30.5438H371.492L381.106 20.2838H390.568L377.762 33.0518L391.746 46.8838ZM420.039 46.8838L417.873 41.7538H402.521L400.355 46.8838H392.565L404.231 20.2838H416.391L428.095 46.8838H420.039ZM405.067 35.8258H415.365L410.197 23.6658L405.067 35.8258ZM449.693 33.0898C456.254 33.6218 459.535 35.8385 459.535 39.7398C459.535 41.0825 459.155 42.2605 458.395 43.2738C457.635 44.2618 456.558 45.0471 455.165 45.6298C453.797 46.2125 452.226 46.6431 450.453 46.9218C448.705 47.2005 446.754 47.3398 444.601 47.3398C439.863 47.3398 436.19 46.6305 433.581 45.2118C430.997 43.7678 429.477 41.4625 429.021 38.2958L436.621 38.0298C437.203 40.1831 439.863 41.2598 444.601 41.2598C446.881 41.2598 448.616 41.0191 449.807 40.5378C451.023 40.0565 451.631 39.4485 451.631 38.7138C451.631 38.0045 451.035 37.4218 449.845 36.9658C448.654 36.4845 446.843 36.2438 444.411 36.2438H440.535V30.4678H443.803C446.032 30.4678 447.704 30.2651 448.819 29.8598C449.933 29.4291 450.491 28.8718 450.491 28.1878C450.491 27.5038 449.959 26.9591 448.895 26.5538C447.831 26.1231 446.387 25.9078 444.563 25.9078C440.433 25.9078 438.065 26.8705 437.457 28.7958L429.895 28.3778C430.351 25.5911 431.858 23.4758 434.417 22.0318C437.001 20.5625 440.383 19.8278 444.563 19.8278C447.172 19.8278 449.452 20.0305 451.403 20.4358C453.379 20.8158 455.038 21.5505 456.381 22.6398C457.723 23.7038 458.395 25.0971 458.395 26.8198C458.395 30.4425 455.494 32.5325 449.693 33.0898Z" fill="white"></path><path d="M38.7141 32.2158L31.9158 42.1043C31.9628 42.1367 32.0102 42.1687 32.0577 42.2004L38.7141 32.2158ZM38.7521 44.8318L45.4658 54.778L38.7521 44.8318ZM12.0001 46.8838H0.000106812C0.000106812 53.5112 5.37269 58.8838 12.0001 58.8838V46.8838ZM12.0001 20.2838V8.28379C5.37269 8.28379 0.000106812 13.6564 0.000106812 20.2838L12.0001 20.2838ZM38.9041 20.2838H50.9041C50.9041 13.6564 45.5315 8.28379 38.9041 8.28379V20.2838ZM38.9041 26.3638V38.3638C45.5315 38.3638 50.9041 32.9912 50.9041 26.3638H38.9041ZM19.9041 26.3638V14.3638C13.2767 14.3638 7.90411 19.7364 7.90411 26.3638H19.9041ZM19.9041 30.1258H7.90411C7.90411 36.7532 13.2767 42.1258 19.9041 42.1258V30.1258ZM19.9041 36.1298V24.1298C13.2767 24.1298 7.90411 29.5024 7.90411 36.1298H19.9041ZM19.9041 40.8038H7.90411C7.90411 47.4312 13.2767 52.8038 19.9041 52.8038V40.8038ZM30.7341 30.1258V42.1258C32.4081 42.1258 32.4654 42.4822 31.9158 42.1043L38.7141 32.2158L45.5125 22.3273C40.9094 19.1627 35.6468 18.1258 30.7341 18.1258V30.1258ZM38.7141 32.2158L32.0577 42.2004C31.4298 41.7818 30.7268 41.0673 30.2506 40.0974C29.805 39.1896 29.7921 38.5374 29.7921 38.4858H41.7921H53.7921C53.7921 32.3183 51.2727 26.166 45.3705 22.2312L38.7141 32.2158ZM41.7921 38.4858H29.7921C29.7921 38.5111 29.7893 37.9127 30.2098 37.0349C30.665 36.0847 31.3616 35.3424 32.0384 34.8856L38.7521 44.8318L45.4658 54.778C51.4004 50.7721 53.7921 44.5497 53.7921 38.4858H41.7921ZM38.7521 44.8318L32.0384 34.8856C32.5885 34.5143 32.4937 34.8838 30.7341 34.8838V46.8838V58.8838C35.6118 58.8838 40.8624 57.8853 45.4658 54.778L38.7521 44.8318ZM30.7341 46.8838V34.8838H15.3061V46.8838V58.8838H30.7341V46.8838ZM15.3061 46.8838V34.8838H12.0001V46.8838V58.8838H15.3061V46.8838ZM12.0001 46.8838H24.0001V20.2838H12.0001H0.000106812V46.8838H12.0001ZM12.0001 20.2838V32.2838H19.9041V20.2838V8.28379H12.0001V20.2838ZM19.9041 20.2838V32.2838H38.9041V20.2838V8.28379H19.9041V20.2838ZM38.9041 20.2838H26.9041V26.3638H38.9041H50.9041V20.2838H38.9041ZM38.9041 26.3638V14.3638H19.9041V26.3638V38.3638H38.9041V26.3638ZM19.9041 26.3638H7.90411V30.1258H19.9041H31.9041V26.3638H19.9041ZM19.9041 30.1258V42.1258H30.7341V30.1258V18.1258H19.9041V30.1258ZM30.1261 40.8038V52.8038C32.2444 52.8038 35.8724 52.5421 39.3168 50.385C43.6994 47.6403 45.8881 43.06 45.8881 38.4478H33.8881H21.8881C21.8881 37.2223 22.1421 35.5649 23.06 33.8404C23.9947 32.0843 25.31 30.8389 26.5784 30.0446C28.7688 28.6728 30.5158 28.8038 30.1261 28.8038V40.8038ZM33.8881 38.4478H45.8881C45.8881 33.7588 43.6217 29.1912 39.2425 26.4929C35.8178 24.3827 32.2226 24.1298 30.1261 24.1298V36.1298V48.1298C30.5376 48.1298 28.8235 48.2632 26.6527 46.9256C25.3916 46.1486 24.0562 44.9138 23.0985 43.1435C22.1548 41.3991 21.8881 39.71 21.8881 38.4478H33.8881ZM30.1261 36.1298V24.1298H19.9041V36.1298V48.1298H30.1261V36.1298ZM19.9041 36.1298H7.90411V40.8038H19.9041H31.9041V36.1298H19.9041ZM19.9041 40.8038V52.8038H30.1261V40.8038V28.8038H19.9041V40.8038ZM71.5618 44.7938L78.4183 54.6421C78.4267 54.6363 78.435 54.6304 78.4434 54.6246L71.5618 44.7938ZM46.1778 46.8838H34.1778C34.1778 53.5112 39.5504 58.8838 46.1778 58.8838V46.8838ZM46.1778 20.2838V8.28379C39.5504 8.28379 34.1778 13.6564 34.1778 20.2838L46.1778 20.2838ZM54.0818 20.2838H66.0818C66.0818 13.6564 60.7093 8.28379 54.0818 8.28379V20.2838ZM54.0818 29.3278H42.0818C42.0818 35.9552 47.4544 41.3278 54.0818 41.3278V29.3278ZM78.5158 20.2838V8.28379C71.8884 8.28379 66.5158 13.6564 66.5158 20.2838L78.5158 20.2838ZM86.4198 20.2838H98.4198C98.4198 13.6564 93.0473 8.28379 86.4198 8.28379V20.2838ZM86.4198 46.8838V58.8838C93.0473 58.8838 98.4198 53.5112 98.4198 46.8838H86.4198ZM78.5158 46.8838H66.5158C66.5158 53.5112 71.8884 58.8838 78.5158 58.8838V46.8838ZM54.0818 35.5598V23.5598C47.4544 23.5598 42.0818 28.9324 42.0818 35.5598H54.0818ZM54.0818 40.4238H42.0818C42.0818 47.0512 47.4544 52.4238 54.0818 52.4238V40.4238ZM63.5438 29.3278V41.3278C65.227 41.3278 65.2558 41.6894 64.6803 41.2866L71.5618 31.4558L78.4434 21.625C73.8146 18.3848 68.498 17.3278 63.5438 17.3278V29.3278ZM71.5618 31.4558L64.6803 41.2866C63.9541 40.7782 63.3085 40.0178 62.9174 39.1574C62.5658 38.3837 62.6018 37.9344 62.6018 38.1438H74.6018H86.6018C86.6018 32.2004 84.4264 25.8131 78.4434 21.625L71.5618 31.4558ZM74.6018 38.1438H62.6018C62.6018 38.3269 62.5704 37.8608 62.9281 37.0782C63.3242 36.2118 63.9699 35.4603 64.6803 34.963L71.5618 44.7938L78.4434 54.6246C84.3978 50.4565 86.6018 44.1045 86.6018 38.1438H74.6018ZM71.5618 44.7938L64.7054 34.9455C65.0106 34.733 65.1752 34.7113 65.0295 34.7493C64.8631 34.7927 64.401 34.8838 63.5438 34.8838V46.8838V58.8838C68.4521 58.8838 73.7823 57.8697 78.4183 54.6421L71.5618 44.7938ZM63.5438 46.8838V34.8838H49.4838V46.8838V58.8838H63.5438V46.8838ZM49.4838 46.8838V34.8838H46.1778V46.8838V58.8838H49.4838V46.8838ZM46.1778 46.8838H58.1778V20.2838H46.1778H34.1778V46.8838H46.1778ZM46.1778 20.2838V32.2838H54.0818V20.2838V8.28379H46.1778V20.2838ZM54.0818 20.2838H42.0818V29.3278H54.0818H66.0818V20.2838H54.0818ZM54.0818 29.3278V41.3278H63.5438V29.3278V17.3278H54.0818V29.3278ZM78.5158 20.2838V32.2838H86.4198V20.2838V8.28379H78.5158V20.2838ZM86.4198 20.2838H74.4198V46.8838H86.4198H98.4198V20.2838H86.4198ZM86.4198 46.8838V34.8838H78.5158V46.8838V58.8838H86.4198V46.8838ZM78.5158 46.8838H90.5158V20.2838H78.5158H66.5158V46.8838H78.5158ZM63.1638 40.4238V52.4238C65.3459 52.4238 69.1083 52.1159 72.6172 49.7012C76.9351 46.7297 78.6978 42.1378 78.6978 37.9918H66.6978H54.6978C54.6978 36.943 54.8921 35.4454 55.6772 33.8246C56.4898 32.147 57.6965 30.8353 59.0115 29.9304C60.2483 29.0792 61.3724 28.7257 62.027 28.5756C62.6817 28.4254 63.1029 28.4238 63.1638 28.4238V40.4238ZM66.6978 37.9918H78.6978C78.6978 33.8458 76.9351 29.2539 72.6172 26.2824C69.1083 23.8677 65.3459 23.5598 63.1638 23.5598V35.5598V47.5598C63.1029 47.5598 62.6817 47.5582 62.027 47.408C61.3724 47.2579 60.2483 46.9043 59.0115 46.0532C57.6966 45.1483 56.4898 43.8365 55.6772 42.1589C54.8921 40.5381 54.6978 39.0406 54.6978 37.9918H66.6978ZM63.1638 35.5598V23.5598H54.0818V35.5598V47.5598H63.1638V35.5598ZM54.0818 35.5598H42.0818V40.4238H54.0818H66.0818V35.5598H54.0818ZM54.0818 40.4238V52.4238H63.1638V40.4238V28.4238H54.0818V40.4238ZM116.765 37.0798L117.359 25.0945C112.156 24.8369 107.381 27.9657 105.54 32.839L116.765 37.0798ZM124.441 37.4598L136.283 39.4026C136.836 36.0291 135.925 32.5798 133.777 29.9203C131.629 27.2607 128.449 25.6435 125.035 25.4745L124.441 37.4598ZM119.615 44.8318L113.273 34.645C113.258 34.654 113.244 34.6631 113.229 34.6722L119.615 44.8318ZM95.8272 43.7298L88.3309 53.1002C88.3468 53.113 88.3628 53.1257 88.3788 53.1383L95.8272 43.7298ZM95.7132 23.4758L103.277 32.7916C103.293 32.7787 103.309 32.7657 103.325 32.7527L95.7132 23.4758ZM118.855 22.3738L112.529 32.5709C112.552 32.5851 112.575 32.5992 112.598 32.6132L118.855 22.3738ZM123.871 29.2138L124.65 41.1885C128.122 40.9628 131.326 39.2405 133.43 36.4683C135.534 33.6962 136.331 30.1472 135.614 26.7417L123.871 29.2138ZM116.271 29.7078L105.186 34.304C107.154 39.0492 111.923 42.0157 117.05 41.6825L116.271 29.7078ZM113.421 27.1998L108.671 38.2197V38.2197L113.421 27.1998ZM101.489 28.2638L109.274 37.396C109.278 37.3924 109.282 37.3888 109.287 37.3852L101.489 28.2638ZM101.603 38.9418L94.0361 48.2552C94.0596 48.2743 94.0832 48.2933 94.1069 48.3122L101.603 38.9418ZM114.029 39.8538L108.585 29.1598C108.558 29.1734 108.532 29.187 108.505 29.2007L114.029 39.8538ZM116.765 37.0798L116.172 49.0651L123.848 49.4451L124.441 37.4598L125.035 25.4745L117.359 25.0945L116.765 37.0798ZM124.441 37.4598L112.6 35.517C112.572 35.6831 112.58 35.492 112.796 35.1622C112.895 35.011 113.005 34.8813 113.11 34.781C113.212 34.6827 113.277 34.642 113.273 34.645L119.615 44.8318L125.958 55.0186C131.706 51.4398 135.216 45.9062 136.283 39.4026L124.441 37.4598ZM119.615 44.8318L113.229 34.6722C113.187 34.6989 112.056 35.3398 108.671 35.3398V47.3398V59.3398C114.558 59.3398 120.724 58.3087 126.001 54.9914L119.615 44.8318ZM108.671 47.3398V35.3398C104.733 35.3398 103.459 34.4663 103.276 34.3212L95.8272 43.7298L88.3788 53.1383C94.2755 57.8066 101.564 59.3398 108.671 59.3398V47.3398ZM95.8272 43.7298L103.324 34.3594C103.247 34.2982 103.244 34.283 103.274 34.322C103.307 34.3629 103.336 34.4122 103.353 34.45C103.395 34.5446 103.267 34.3368 103.267 33.5838H91.2672H79.2672C79.2672 41.0939 82.0984 48.1142 88.3309 53.1002L95.8272 43.7298ZM91.2672 33.5838H103.267C103.267 32.7907 103.4 32.556 103.363 32.6393C103.348 32.6738 103.318 32.7283 103.277 32.7808C103.238 32.8319 103.226 32.8336 103.277 32.7916L95.7132 23.4758L88.1491 14.16C81.9789 19.17 79.2672 26.1856 79.2672 33.5838H91.2672ZM95.7132 23.4758L103.325 32.7527C103.434 32.6631 104.526 31.8278 108.177 31.8278V19.8278V7.82779C101.137 7.82779 93.9202 9.42448 88.1014 14.1989L95.7132 23.4758ZM108.177 19.8278V31.8278C111.104 31.8278 112.261 32.4048 112.529 32.5709L118.855 22.3738L125.181 12.1766C119.977 8.94808 114.015 7.82779 108.177 7.82779V19.8278ZM118.855 22.3738L112.598 32.6132C112.81 32.7429 112.688 32.7124 112.484 32.4342C112.389 32.3034 112.303 32.1562 112.237 32.0055C112.171 31.8562 112.14 31.7423 112.129 31.6859L123.871 29.2138L135.614 26.7417C134.262 20.3212 130.397 15.3639 125.113 12.1344L118.855 22.3738ZM123.871 29.2138L123.093 17.2391L115.493 17.7331L116.271 29.7078L117.05 41.6825L124.65 41.1885L123.871 29.2138ZM116.271 29.7078L127.356 25.1116C125.303 20.1607 121.29 17.524 118.171 16.1799L113.421 27.1998L108.671 38.2197C108.492 38.1422 106.378 37.1775 105.186 34.304L116.271 29.7078ZM113.421 27.1998L118.171 16.1799C114.859 14.7523 111.418 14.2498 108.177 14.2498V26.2498V38.2498C108.571 38.2498 108.791 38.281 108.869 38.2951C108.943 38.3085 108.86 38.3011 108.671 38.2197L113.421 27.1998ZM108.177 26.2498V14.2498C103.559 14.2498 98.1624 15.3208 93.6918 19.1423L101.489 28.2638L109.287 37.3852C108.655 37.9251 108.077 38.16 107.799 38.2436C107.56 38.3157 107.636 38.2498 108.177 38.2498V26.2498ZM101.489 28.2638L93.7044 19.1316C89.2026 22.9692 87.1712 28.2282 87.1712 33.5838H99.1712H111.171C111.171 33.8688 111.117 34.5363 110.752 35.3751C110.373 36.2437 109.818 36.932 109.274 37.396L101.489 28.2638ZM99.1712 33.5838H87.1712C87.1712 39.1243 89.3654 44.4603 94.0361 48.2552L101.603 38.9418L109.17 29.6284C109.705 30.0632 110.294 30.7465 110.706 31.6545C111.106 32.5359 111.171 33.2552 111.171 33.5838H99.1712ZM101.603 38.9418L94.1069 48.3122C98.659 51.9539 104.08 52.9178 108.671 52.9178V40.9178V28.9178C107.968 28.9178 107.736 28.839 107.836 28.8669C107.966 28.9033 108.477 29.0734 109.1 29.5714L101.603 38.9418ZM108.671 40.9178V52.9178C112.025 52.9178 115.903 52.3992 119.553 50.5068L114.029 39.8538L108.505 29.2007C108.988 28.9504 109.305 28.8858 109.326 28.8816C109.34 28.8788 109.296 28.8884 109.183 28.8984C109.071 28.9084 108.902 28.9178 108.671 28.9178V40.9178ZM114.029 39.8538L119.473 50.5477C122.752 48.8786 126.231 45.9782 127.991 41.3206L116.765 37.0798L105.54 32.839C106.438 30.4614 108.093 29.4103 108.585 29.1598L114.029 39.8538ZM126.132 26.7438H114.132C114.132 33.3712 119.505 38.7438 126.132 38.7438V26.7438ZM126.132 20.2838V8.28379C119.505 8.28379 114.132 13.6564 114.132 20.2838L126.132 20.2838ZM156.456 20.2838H168.456C168.456 13.6564 163.084 8.28379 156.456 8.28379V20.2838ZM156.456 26.7438V38.7438C163.084 38.7438 168.456 33.3712 168.456 26.7438H156.456ZM145.246 26.7438V14.7438C138.619 14.7438 133.246 20.1164 133.246 26.7438H145.246ZM145.246 46.8838V58.8838C151.874 58.8838 157.246 53.5112 157.246 46.8838H145.246ZM137.342 46.8838H125.342C125.342 53.5112 130.715 58.8838 137.342 58.8838V46.8838ZM137.342 26.7438H149.342C149.342 20.1164 143.97 14.7438 137.342 14.7438V26.7438ZM126.132 26.7438H138.132V20.2838H126.132H114.132V26.7438H126.132ZM126.132 20.2838V32.2838H156.456V20.2838V8.28379H126.132V20.2838ZM156.456 20.2838H144.456V26.7438H156.456H168.456V20.2838H156.456ZM156.456 26.7438V14.7438H145.246V26.7438V38.7438H156.456V26.7438ZM145.246 26.7438H133.246V46.8838H145.246H157.246V26.7438H145.246ZM145.246 46.8838V34.8838H137.342V46.8838V58.8838H145.246V46.8838ZM137.342 46.8838H149.342V26.7438H137.342H125.342V46.8838H137.342ZM137.342 26.7438V14.7438H126.132V26.7438V38.7438H137.342V26.7438ZM186.883 22.5258L179.874 32.2665C179.919 32.2987 179.964 32.3305 180.009 32.3621L186.883 22.5258ZM187.035 35.8258L193.72 45.7909C193.749 45.7716 193.778 45.7521 193.807 45.7325L187.035 35.8258ZM168.453 37.8398V25.8398C161.826 25.8398 156.453 31.2124 156.453 37.8398H168.453ZM168.453 46.8838V58.8838C175.08 58.8838 180.453 53.5112 180.453 46.8838H168.453ZM160.549 46.8838H148.549C148.549 53.5112 153.922 58.8838 160.549 58.8838V46.8838ZM160.549 20.2838V8.28379C153.922 8.28379 148.549 13.6564 148.549 20.2838L160.549 20.2838ZM168.453 26.7438V14.7438C161.826 14.7438 156.453 20.1164 156.453 26.7438H168.453ZM168.453 31.7598H156.453C156.453 38.3872 161.826 43.7598 168.453 43.7598V31.7598ZM178.979 20.2838V32.2838C179.646 32.2838 179.981 32.3624 180.074 32.3888C180.146 32.4092 180.043 32.388 179.874 32.2665L186.883 22.5258L193.891 12.7851C189.315 9.49254 184.057 8.28379 178.979 8.28379V20.2838ZM186.883 22.5258L180.009 32.3621C179.403 31.9382 178.783 31.2559 178.384 30.4041C178.017 29.6224 178.037 29.1298 178.037 29.2518H190.037H202.037C202.037 23.1052 199.667 16.8197 193.757 12.6894L186.883 22.5258ZM190.037 29.2518H178.037C178.037 29.4589 178.001 28.9821 178.371 28.1716C178.784 27.2668 179.472 26.4597 180.263 25.919L187.035 35.8258L193.807 45.7325C199.888 41.5759 202.037 35.1385 202.037 29.2518H190.037ZM187.035 35.8258L180.349 25.8606C180.658 25.6536 180.803 25.6461 180.61 25.6946C180.398 25.7474 179.886 25.8398 178.979 25.8398V37.8398V49.8398C183.815 49.8398 189.099 48.8913 193.72 45.7909L187.035 35.8258ZM178.979 37.8398V25.8398H168.453V37.8398V49.8398H178.979V37.8398ZM168.453 37.8398H156.453V46.8838H168.453H180.453V37.8398H168.453ZM168.453 46.8838V34.8838H160.549V46.8838V58.8838H168.453V46.8838ZM160.549 46.8838H172.549V20.2838H160.549H148.549V46.8838H160.549ZM160.549 20.2838V32.2838H168.453V20.2838V8.28379H160.549V20.2838ZM168.453 20.2838V32.2838H178.979V20.2838V8.28379H168.453V20.2838ZM178.599 31.7598V43.7598C180.832 43.7598 184.657 43.4293 188.194 40.9189C192.488 37.8721 194.133 33.2728 194.133 29.2518H182.133H170.133C170.133 28.2651 170.309 26.8259 171.051 25.2474C171.821 23.6065 172.986 22.2822 174.304 21.3467C175.548 20.4645 176.693 20.0884 177.383 19.9253C178.068 19.7633 178.517 19.7598 178.599 19.7598V31.7598ZM182.133 29.2518H194.133C194.133 25.2308 192.488 20.6315 188.194 17.5847C184.657 15.0743 180.832 14.7438 178.599 14.7438V26.7438V38.7438C178.517 38.7438 178.068 38.7403 177.383 38.5782C176.693 38.4152 175.548 38.0391 174.304 37.1569C172.986 36.2213 171.821 34.8971 171.051 33.2562C170.309 31.6777 170.133 30.2385 170.133 29.2518H182.133ZM178.599 26.7438V14.7438H168.453V26.7438V38.7438H178.599V26.7438ZM168.453 26.7438H156.453V31.7598H168.453H180.453V26.7438H168.453ZM168.453 31.7598V43.7598H178.599V31.7598V19.7598H168.453V31.7598ZM219.999 44.7938L226.856 54.6421C226.864 54.6363 226.873 54.6304 226.881 54.6246L219.999 44.7938ZM194.615 46.8838H182.615C182.615 53.5112 187.988 58.8838 194.615 58.8838V46.8838ZM194.615 20.2838V8.28379C187.988 8.28379 182.615 13.6564 182.615 20.2838L194.615 20.2838ZM202.519 20.2838H214.519C214.519 13.6564 209.147 8.28379 202.519 8.28379V20.2838ZM202.519 29.3278H190.519C190.519 35.9552 195.892 41.3278 202.519 41.3278V29.3278ZM226.953 20.2838V8.28379C220.326 8.28379 214.953 13.6564 214.953 20.2838L226.953 20.2838ZM234.857 20.2838H246.857C246.857 13.6564 241.485 8.28379 234.857 8.28379V20.2838ZM234.857 46.8838V58.8838C241.485 58.8838 246.857 53.5112 246.857 46.8838H234.857ZM226.953 46.8838H214.953C214.953 53.5112 220.326 58.8838 226.953 58.8838V46.8838ZM202.519 35.5598V23.5598C195.892 23.5598 190.519 28.9324 190.519 35.5598H202.519ZM202.519 40.4238H190.519C190.519 47.0512 195.892 52.4238 202.519 52.4238V40.4238ZM211.981 29.3278V41.3278C213.665 41.3278 213.693 41.6894 213.118 41.2866L219.999 31.4558L226.881 21.625C222.252 18.3848 216.935 17.3278 211.981 17.3278V29.3278ZM219.999 31.4558L213.118 41.2866C212.392 40.7782 211.746 40.0178 211.355 39.1574C211.003 38.3837 211.039 37.9344 211.039 38.1438H223.039H235.039C235.039 32.2004 232.864 25.8131 226.881 21.625L219.999 31.4558ZM223.039 38.1438H211.039C211.039 38.3269 211.008 37.8608 211.366 37.0782C211.762 36.2118 212.407 35.4603 213.118 34.963L219.999 44.7938L226.881 54.6246C232.835 50.4565 235.039 44.1045 235.039 38.1438H223.039ZM219.999 44.7938L213.143 34.9455C213.448 34.733 213.613 34.7113 213.467 34.7493C213.301 34.7927 212.838 34.8838 211.981 34.8838V46.8838V58.8838C216.89 58.8838 222.22 57.8697 226.856 54.6421L219.999 44.7938ZM211.981 46.8838V34.8838H197.921V46.8838V58.8838H211.981V46.8838ZM197.921 46.8838V34.8838H194.615V46.8838V58.8838H197.921V46.8838ZM194.615 46.8838H206.615V20.2838H194.615H182.615V46.8838H194.615ZM194.615 20.2838V32.2838H202.519V20.2838V8.28379H194.615V20.2838ZM202.519 20.2838H190.519V29.3278H202.519H214.519V20.2838H202.519ZM202.519 29.3278V41.3278H211.981V29.3278V17.3278H202.519V29.3278ZM226.953 20.2838V32.2838H234.857V20.2838V8.28379H226.953V20.2838ZM234.857 20.2838H222.857V46.8838H234.857H246.857V20.2838H234.857ZM234.857 46.8838V34.8838H226.953V46.8838V58.8838H234.857V46.8838ZM226.953 46.8838H238.953V20.2838H226.953H214.953V46.8838H226.953ZM211.601 40.4238V52.4238C213.783 52.4238 217.546 52.1159 221.055 49.7012C225.373 46.7297 227.135 42.1378 227.135 37.9918H215.135H203.135C203.135 36.943 203.33 35.4454 204.115 33.8246C204.927 32.147 206.134 30.8353 207.449 29.9304C208.686 29.0792 209.81 28.7257 210.464 28.5756C211.119 28.4254 211.54 28.4238 211.601 28.4238V40.4238ZM215.135 37.9918H227.135C227.135 33.8458 225.373 29.2539 221.055 26.2824C217.546 23.8677 213.783 23.5598 211.601 23.5598V35.5598V47.5598C211.54 47.5598 211.119 47.5582 210.464 47.408C209.81 47.2579 208.686 46.9043 207.449 46.0532C206.134 45.1483 204.927 43.8365 204.115 42.1589C203.33 40.5381 203.135 39.0406 203.135 37.9918H215.135ZM211.601 35.5598V23.5598H202.519V35.5598V47.5598H211.601V35.5598ZM202.519 35.5598H190.519V40.4238H202.519H214.519V35.5598H202.519ZM202.519 40.4238V52.4238H211.601V40.4238V28.4238H202.519V40.4238ZM266.077 11.9998L278.066 12.5084C278.205 9.24052 277.003 6.05763 274.74 3.69628C272.477 1.33494 269.348 -0.000212669 266.077 -0.000212669V11.9998ZM248.521 11.9998V-0.000212669C245.25 -0.000212669 242.121 1.33494 239.857 3.69628C237.594 6.05763 236.393 9.24052 236.531 12.5084L248.521 11.9998ZM253.537 11.9998L265.453 10.586C264.737 4.54779 259.617 -0.000212669 253.537 -0.000212669V11.9998ZM261.023 11.9998V-0.000212669C254.942 -0.000212669 249.823 4.5478 249.106 10.586L261.023 11.9998ZM261.175 20.2838V8.28379C256.903 8.28379 252.954 10.5543 250.805 14.2455L261.175 20.2838ZM273.335 20.2838H285.335C285.335 13.6564 279.962 8.28379 273.335 8.28379V20.2838ZM273.335 46.8838V58.8838C279.962 58.8838 285.335 53.5112 285.335 46.8838H273.335ZM265.621 46.8838H253.621C253.621 53.5112 258.993 58.8838 265.621 58.8838V46.8838ZM265.621 25.8698H277.621C277.621 20.4467 273.984 15.6977 268.748 14.2844C263.512 12.8712 257.979 15.145 255.251 19.8315L265.621 25.8698ZM253.385 46.8838V58.8838C257.656 58.8838 261.605 56.6133 263.755 52.9221L253.385 46.8838ZM241.225 46.8838H229.225C229.225 53.5112 234.597 58.8838 241.225 58.8838V46.8838ZM241.225 20.2838V8.28379C234.597 8.28379 229.225 13.6564 229.225 20.2838L241.225 20.2838ZM248.939 20.2838H260.939C260.939 13.6564 255.566 8.28379 248.939 8.28379V20.2838ZM248.939 41.2978H236.939C236.939 46.7208 240.576 51.4699 245.812 52.8832C251.047 54.2964 256.58 52.0225 259.309 47.3361L248.939 41.2978ZM266.077 11.9998L254.087 11.4912C254.1 11.1853 254.188 10.4017 254.674 9.41985C255.186 8.384 255.946 7.52885 256.774 6.93749C258.217 5.90715 258.974 6.26979 257.299 6.26979V18.2698V30.2698C261.298 30.2698 266.356 29.5874 270.724 26.4671C275.709 22.9066 277.849 17.6109 278.066 12.5084L266.077 11.9998ZM257.299 18.2698V6.26979C255.623 6.26979 256.381 5.90715 257.823 6.93749C258.651 7.52885 259.411 8.384 259.924 9.41985C260.41 10.4018 260.497 11.1853 260.51 11.4912L248.521 11.9998L236.531 12.5084C236.748 17.6109 238.889 22.9066 243.873 26.4671C248.242 29.5874 253.299 30.2698 257.299 30.2698V18.2698ZM248.521 11.9998V23.9998H253.537V11.9998V-0.000212669H248.521V11.9998ZM253.537 11.9998L241.62 13.4136C242.132 17.7269 244.524 21.64 248.467 23.9895C251.749 25.9453 255.139 26.2418 257.299 26.2418V14.2418V2.24179C257.328 2.24179 257.661 2.2415 258.202 2.35424C258.739 2.46636 259.676 2.73065 260.754 3.37304C261.886 4.04813 263.064 5.079 263.986 6.52337C264.901 7.9567 265.313 9.40187 265.453 10.586L253.537 11.9998ZM257.299 14.2418V26.2418C259.463 26.2418 262.862 25.9405 266.148 23.9619C270.086 21.5912 272.433 17.6761 272.939 13.4136L261.023 11.9998L249.106 10.586C249.245 9.42075 249.648 7.98999 250.55 6.56413C251.461 5.12474 252.63 4.08649 253.769 3.40064C254.854 2.74778 255.801 2.47603 256.354 2.35951C256.909 2.24258 257.256 2.24179 257.299 2.24179V14.2418ZM261.023 11.9998V23.9998H266.077V11.9998V-0.000212669H261.023V11.9998ZM261.175 20.2838V32.2838H273.335V20.2838V8.28379H261.175V20.2838ZM273.335 20.2838H261.335V46.8838H273.335H285.335V20.2838H273.335ZM273.335 46.8838V34.8838H265.621V46.8838V58.8838H273.335V46.8838ZM265.621 46.8838H277.621V25.8698H265.621H253.621V46.8838H265.621ZM265.621 25.8698L255.251 19.8315L243.015 40.8455L253.385 46.8838L263.755 52.9221L275.991 31.9081L265.621 25.8698ZM253.385 46.8838V34.8838H241.225V46.8838V58.8838H253.385V46.8838ZM241.225 46.8838H253.225V20.2838H241.225H229.225V46.8838H241.225ZM241.225 20.2838V32.2838H248.939V20.2838V8.28379H241.225V20.2838ZM248.939 20.2838H236.939V41.2978H248.939H260.939V20.2838H248.939ZM248.939 41.2978L259.309 47.3361L271.545 26.3221L261.175 20.2838L250.805 14.2455L238.569 35.2595L248.939 41.2978ZM309.345 33.0898L308.198 21.1448C302.009 21.7393 297.299 26.9621 297.345 33.179C297.392 39.396 302.178 44.5481 308.375 45.0505L309.345 33.0898ZM318.047 43.2738L327.559 50.5903C327.588 50.5517 327.618 50.5128 327.647 50.4738L318.047 43.2738ZM314.817 45.6298L310.187 34.5588C310.163 34.569 310.139 34.5792 310.115 34.5895L314.817 45.6298ZM310.105 46.9218L308.242 35.0673C308.233 35.0686 308.225 35.07 308.216 35.0714L310.105 46.9218ZM293.233 45.2118L287.379 55.6871C287.42 55.7098 287.46 55.7322 287.501 55.7543L293.233 45.2118ZM288.673 38.2958L288.253 26.3031C284.848 26.4223 281.653 27.984 279.467 30.5983C277.281 33.2126 276.31 36.6331 276.796 40.0061L288.673 38.2958ZM296.273 38.0298L307.857 34.8954C306.4 29.5123 301.427 25.8421 295.853 26.0371L296.273 38.0298ZM309.459 40.5378L305.042 29.3801C305.015 29.3908 304.989 29.4016 304.962 29.4125L309.459 40.5378ZM309.497 36.9658L305 48.0911C305.068 48.1187 305.136 48.1457 305.205 48.1721L309.497 36.9658ZM300.187 36.2438H288.187C288.187 42.8712 293.56 48.2438 300.187 48.2438V36.2438ZM300.187 30.4678V18.4678C293.56 18.4678 288.187 23.8404 288.187 30.4678H300.187ZM308.471 29.8598L312.572 41.1373C312.647 41.1101 312.721 41.0821 312.796 41.0534L308.471 29.8598ZM308.547 26.5538L304.045 37.6771C304.121 37.7081 304.198 37.7383 304.275 37.7676L308.547 26.5538ZM297.109 28.7958L296.447 40.7775C301.919 41.08 306.902 37.636 308.552 32.4094L297.109 28.7958ZM289.547 28.3778L277.705 26.4399C277.155 29.8009 278.059 33.2372 280.191 35.8924C282.324 38.5476 285.484 40.1715 288.885 40.3595L289.547 28.3778ZM294.069 22.0318L299.967 32.4824C299.978 32.476 299.989 32.4697 300.001 32.4633L294.069 22.0318ZM311.055 20.4358L308.614 32.1848C308.672 32.1969 308.73 32.2086 308.789 32.2199L311.055 20.4358ZM316.033 22.6398L308.473 31.9585C308.508 31.9875 308.544 32.0162 308.58 32.0447L316.033 22.6398ZM309.345 33.0898L308.375 45.0505C309.458 45.1383 310.106 45.274 310.423 45.3624C310.752 45.4543 310.516 45.4375 310.008 45.0944C309.444 44.7132 308.629 43.9797 307.996 42.8006C307.36 41.6145 307.187 40.4944 307.187 39.7398H319.187H331.187C331.187 33.7325 328.329 28.5082 323.445 25.2082C319.312 22.4155 314.445 21.4639 310.315 21.129L309.345 33.0898ZM319.187 39.7398H307.187C307.187 39.2661 307.256 38.6441 307.482 37.9463C307.709 37.2409 308.049 36.605 308.447 36.0738L318.047 43.2738L327.647 50.4738C330.062 47.2542 331.187 43.5128 331.187 39.7398H319.187ZM318.047 43.2738L308.536 35.9573C309.293 34.9731 310.061 34.6117 310.187 34.5588L314.817 45.6298L319.447 56.7007C322.36 55.4825 325.282 53.5504 327.559 50.5903L318.047 43.2738ZM314.817 45.6298L310.115 34.5895C309.821 34.7147 309.233 34.9115 308.242 35.0673L310.105 46.9218L311.968 58.7763C314.523 58.3747 317.077 57.7102 319.519 56.6701L314.817 45.6298ZM310.105 46.9218L308.216 35.0714C307.209 35.2319 305.904 35.3398 304.253 35.3398V47.3398V59.3398C306.909 59.3398 309.505 59.169 311.994 58.7721L310.105 46.9218ZM304.253 47.3398V35.3398C302.457 35.3398 301.14 35.2031 300.22 35.0255C299.294 34.8465 298.949 34.6607 298.965 34.6692L293.233 45.2118L287.501 55.7543C292.617 58.5358 298.584 59.3398 304.253 59.3398V47.3398ZM293.233 45.2118L299.087 34.7365C299.349 34.883 299.8 35.2276 300.173 35.7943C300.529 36.3331 300.567 36.6964 300.551 36.5854L288.673 38.2958L276.796 40.0061C277.735 46.5276 281.238 52.2554 287.379 55.6871L293.233 45.2118ZM288.673 38.2958L289.093 50.2884L296.693 50.0224L296.273 38.0298L295.853 26.0371L288.253 26.3031L288.673 38.2958ZM296.273 38.0298L284.69 41.1641C286.233 46.8686 290.485 50.0709 294.203 51.5756C297.596 52.9492 301.215 53.2598 304.253 53.2598V41.2598V29.2598C302.554 29.2598 302.474 29.0321 303.207 29.3289C303.662 29.513 304.591 29.9677 305.568 30.941C306.613 31.9822 307.438 33.3482 307.857 34.8954L296.273 38.0298ZM304.253 41.2598V53.2598C307.067 53.2598 310.631 53.0073 313.957 51.6631L309.459 40.5378L304.962 29.4125C305.273 29.2867 305.494 29.2265 305.589 29.2031C305.686 29.1791 305.702 29.1812 305.616 29.1931C305.429 29.219 304.996 29.2598 304.253 29.2598V41.2598ZM309.459 40.5378L313.876 51.6955C315.83 50.9218 323.283 47.4914 323.283 38.7138H311.283H299.283C299.283 35.3578 300.809 32.7683 302.342 31.2355C303.64 29.937 304.843 29.4592 305.042 29.3801L309.459 40.5378ZM311.283 38.7138H323.283C323.283 29.8238 315.64 26.4684 313.789 25.7595L309.497 36.9658L305.205 48.1721C305 48.0935 303.772 47.6219 302.443 46.3208C300.869 44.7803 299.283 42.148 299.283 38.7138H311.283ZM309.497 36.9658L313.995 25.8405C310.609 24.4717 306.908 24.2438 304.063 24.2438V36.2438V48.2438C304.912 48.2438 305.422 48.2875 305.665 48.3197C305.778 48.3348 305.776 48.3399 305.682 48.3172C305.592 48.2956 305.348 48.232 305 48.0911L309.497 36.9658ZM304.063 36.2438V24.2438H300.187V36.2438V48.2438H304.063V36.2438ZM300.187 36.2438H312.187V30.4678H300.187H288.187V36.2438H300.187ZM300.187 30.4678V42.4678H303.455V30.4678V18.4678H300.187V30.4678ZM303.455 30.4678V42.4678C306.077 42.4678 309.448 42.2734 312.572 41.1373L308.471 29.8598L304.37 18.5823C304.684 18.4682 304.898 18.4178 304.973 18.4016C305.051 18.3845 305.046 18.3898 304.937 18.403C304.705 18.4311 304.231 18.4678 303.455 18.4678V30.4678ZM308.471 29.8598L312.796 41.0534C314.772 40.29 322.143 36.9071 322.143 28.1878H310.143H298.143C298.143 24.8577 299.64 22.2338 301.24 20.6335C302.594 19.2796 303.872 18.7723 304.146 18.6662L308.471 29.8598ZM310.143 28.1878H322.143C322.143 19.6403 315.079 16.2009 312.819 15.3399L308.547 26.5538L304.275 37.7676C303.916 37.6308 302.559 37.084 301.16 35.6512C299.506 33.9583 298.143 31.346 298.143 28.1878H310.143ZM308.547 26.5538L313.049 15.4304C309.962 14.1809 306.779 13.9078 304.215 13.9078V25.9078V37.9078C304.437 37.9078 304.605 37.9144 304.723 37.9222C304.842 37.93 304.897 37.9381 304.896 37.938C304.895 37.9378 304.876 37.935 304.842 37.9282C304.807 37.9213 304.754 37.9098 304.685 37.8919C304.549 37.8568 304.328 37.7917 304.045 37.6771L308.547 26.5538ZM304.215 25.9078V13.9078C301.438 13.9078 298.055 14.1996 294.823 15.5128C291.285 16.9508 287.323 19.9368 285.666 25.1822L297.109 28.7958L308.552 32.4094C308.089 33.8771 307.266 35.1601 306.251 36.1449C305.292 37.0758 304.373 37.5379 303.86 37.7467C302.997 38.0973 302.863 37.9078 304.215 37.9078V25.9078ZM297.109 28.7958L297.771 16.8141L290.209 16.3961L289.547 28.3778L288.885 40.3595L296.447 40.7775L297.109 28.7958ZM289.547 28.3778L301.39 30.3157C301.347 30.5733 301.194 31.1007 300.792 31.6651C300.399 32.2167 300.018 32.4538 299.967 32.4824L294.069 22.0318L288.171 11.5812C282.591 14.7304 278.775 19.8959 277.705 26.4399L289.547 28.3778ZM294.069 22.0318L300.001 32.4633C300.189 32.356 301.314 31.8278 304.215 31.8278V19.8278V7.82779C298.756 7.82779 293.117 8.76891 288.137 11.6003L294.069 22.0318ZM304.215 19.8278V31.8278C306.241 31.8278 307.669 31.9884 308.614 32.1848L311.055 20.4358L313.496 8.68675C310.54 8.07247 307.408 7.82779 304.215 7.82779V19.8278ZM311.055 20.4358L308.789 32.2199C308.98 32.2567 309.009 32.2821 308.923 32.2444C308.831 32.2036 308.665 32.1145 308.473 31.9585L316.033 22.6398L323.594 13.321C320.482 10.7966 316.919 9.34356 313.321 8.65171L311.055 20.4358ZM316.033 22.6398L308.58 32.0447C307.984 31.5725 307.266 30.7986 306.733 29.6915C306.201 28.5865 306.047 27.5548 306.047 26.8198H318.047H330.047C330.047 21.4561 327.72 16.5898 323.486 13.2348L316.033 22.6398ZM318.047 26.8198H306.047C306.047 26.0866 306.205 24.9949 306.803 23.8165C307.405 22.6325 308.21 21.8338 308.857 21.3683C309.448 20.9425 309.812 20.8575 309.66 20.9039C309.514 20.9481 309.062 21.0617 308.198 21.1448L309.345 33.0898L310.493 45.0348C314.315 44.6676 318.945 43.6805 322.887 40.8403C327.516 37.5046 330.047 32.4282 330.047 26.8198H318.047ZM348.195 46.8838L337.14 51.5515C339.017 55.9954 343.372 58.8838 348.195 58.8838V46.8838ZM346.029 41.7538L357.084 37.0861C355.208 32.6422 350.853 29.7538 346.029 29.7538V41.7538ZM330.677 41.7538V29.7538C325.854 29.7538 321.499 32.6422 319.622 37.0861L330.677 41.7538ZM328.511 46.8838V58.8838C333.335 58.8838 337.69 55.9954 339.566 51.5515L328.511 46.8838ZM320.721 46.8838L309.732 42.0641C308.104 45.7745 308.459 50.0556 310.676 53.4475C312.892 56.8393 316.67 58.8838 320.721 58.8838V46.8838ZM332.387 20.2838V8.28379C327.624 8.28379 323.311 11.1015 321.398 15.4641L332.387 20.2838ZM344.547 20.2838L355.531 15.4509C353.615 11.0954 349.306 8.28379 344.547 8.28379V20.2838ZM356.251 46.8838V58.8838C360.305 58.8838 364.086 56.8367 366.301 53.4414C368.517 50.0462 368.868 45.7618 367.235 42.0509L356.251 46.8838ZM333.223 35.8258L322.167 31.1614C320.604 34.8668 321.001 39.1089 323.224 42.4601C325.447 45.8112 329.202 47.8258 333.223 47.8258V35.8258ZM343.521 35.8258V47.8258C347.549 47.8258 351.307 45.8056 353.529 42.4468C355.751 39.088 356.141 34.8385 354.565 31.1321L343.521 35.8258ZM338.353 23.6658L349.397 18.9721C347.512 14.5368 343.157 11.6594 338.337 11.6658C333.518 11.6722 329.17 14.5611 327.297 19.0014L338.353 23.6658ZM348.195 46.8838L359.25 42.2161L357.084 37.0861L346.029 41.7538L334.974 46.4215L337.14 51.5515L348.195 46.8838ZM346.029 41.7538V29.7538H330.677V41.7538V53.7538H346.029V41.7538ZM330.677 41.7538L319.622 37.0861L317.456 42.2161L328.511 46.8838L339.566 51.5515L341.732 46.4215L330.677 41.7538ZM328.511 46.8838V34.8838H320.721V46.8838V58.8838H328.511V46.8838ZM320.721 46.8838L331.711 51.7035L343.377 25.1035L332.387 20.2838L321.398 15.4641L309.732 42.0641L320.721 46.8838ZM332.387 20.2838V32.2838H344.547V20.2838V8.28379H332.387V20.2838ZM344.547 20.2838L333.564 25.1167L345.268 51.7167L356.251 46.8838L367.235 42.0509L355.531 15.4509L344.547 20.2838ZM356.251 46.8838V34.8838H348.195V46.8838V58.8838H356.251V46.8838ZM333.223 35.8258V47.8258H343.521V35.8258V23.8258H333.223V35.8258ZM343.521 35.8258L354.565 31.1321L349.397 18.9721L338.353 23.6658L327.309 28.3595L332.477 40.5195L343.521 35.8258ZM338.353 23.6658L327.297 19.0014L322.167 31.1614L333.223 35.8258L344.28 40.4902L349.41 28.3302L338.353 23.6658ZM391.746 46.8838V58.8838C396.612 58.8838 400.996 55.9459 402.845 51.4457C404.695 46.9455 403.644 41.7738 400.185 38.3523L391.746 46.8838ZM381.752 46.8838L373.188 55.2897C375.445 57.5886 378.531 58.8838 381.752 58.8838V46.8838ZM371.644 36.5858L380.208 28.1799C377.952 25.8809 374.866 24.5858 371.644 24.5858V36.5858ZM367.73 36.5858V24.5858C361.103 24.5858 355.73 29.9584 355.73 36.5858H367.73ZM367.73 46.8838V58.8838C374.358 58.8838 379.73 53.5112 379.73 46.8838H367.73ZM359.826 46.8838H347.826C347.826 53.5112 353.199 58.8838 359.826 58.8838V46.8838ZM359.826 20.2838V8.28379C353.199 8.28379 347.826 13.6564 347.826 20.2838L359.826 20.2838ZM367.73 20.2838H379.73C379.73 13.6564 374.358 8.28379 367.73 8.28379V20.2838ZM367.73 30.5438H355.73C355.73 37.1712 361.103 42.5438 367.73 42.5438V30.5438ZM371.492 30.5438V42.5438C374.81 42.5438 377.98 41.17 380.249 38.7489L371.492 30.5438ZM381.106 20.2838V8.28379C377.788 8.28379 374.618 9.65754 372.35 12.0787L381.106 20.2838ZM390.568 20.2838L399.041 28.7817C402.48 25.3525 403.514 20.1883 401.658 15.6998C399.803 11.2114 395.425 8.28379 390.568 8.28379V20.2838ZM377.762 33.0518L369.29 24.5539C367.026 26.8112 365.756 29.8786 365.762 33.0757C365.769 36.2727 367.051 39.335 369.323 41.5833L377.762 33.0518ZM391.746 46.8838V34.8838H381.752V46.8838V58.8838H391.746V46.8838ZM381.752 46.8838L390.316 38.4779L380.208 28.1799L371.644 36.5858L363.08 44.9917L373.188 55.2897L381.752 46.8838ZM371.644 36.5858V24.5858H367.73V36.5858V48.5858H371.644V36.5858ZM367.73 36.5858H355.73V46.8838H367.73H379.73V36.5858H367.73ZM367.73 46.8838V34.8838H359.826V46.8838V58.8838H367.73V46.8838ZM359.826 46.8838H371.826V20.2838H359.826H347.826V46.8838H359.826ZM359.826 20.2838V32.2838H367.73V20.2838V8.28379H359.826V20.2838ZM367.73 20.2838H355.73V30.5438H367.73H379.73V20.2838H367.73ZM367.73 30.5438V42.5438H371.492V30.5438V18.5438H367.73V30.5438ZM371.492 30.5438L380.249 38.7489L389.863 28.4889L381.106 20.2838L372.35 12.0787L362.736 22.3387L371.492 30.5438ZM381.106 20.2838V32.2838H390.568V20.2838V8.28379H381.106V20.2838ZM390.568 20.2838L382.096 11.7859L369.29 24.5539L377.762 33.0518L386.235 41.5497L399.041 28.7817L390.568 20.2838ZM377.762 33.0518L369.323 41.5833L383.307 55.4153L391.746 46.8838L400.185 38.3523L386.201 24.5203L377.762 33.0518ZM420.039 46.8838L408.984 51.5515C410.86 55.9954 415.215 58.8838 420.039 58.8838V46.8838ZM417.873 41.7538L428.928 37.0861C427.052 32.6422 422.697 29.7538 417.873 29.7538V41.7538ZM402.521 41.7538V29.7538C397.697 29.7538 393.342 32.6422 391.466 37.0861L402.521 41.7538ZM400.355 46.8838V58.8838C405.179 58.8838 409.534 55.9954 411.41 51.5515L400.355 46.8838ZM392.565 46.8838L381.576 42.0641C379.948 45.7745 380.303 50.0556 382.519 53.4475C384.735 56.8393 388.513 58.8838 392.565 58.8838V46.8838ZM404.231 20.2838V8.28379C399.467 8.28379 395.155 11.1015 393.241 15.4641L404.231 20.2838ZM416.391 20.2838L427.375 15.4509C425.458 11.0954 421.15 8.28379 416.391 8.28379V20.2838ZM428.095 46.8838V58.8838C432.149 58.8838 435.929 56.8367 438.145 53.4414C440.36 50.0462 440.712 45.7618 439.079 42.0509L428.095 46.8838ZM405.067 35.8258L394.011 31.1614C392.447 34.8668 392.844 39.1089 395.068 42.4601C397.291 45.8112 401.045 47.8258 405.067 47.8258V35.8258ZM415.365 35.8258V47.8258C419.392 47.8258 423.151 45.8056 425.373 42.4468C427.595 39.088 427.984 34.8385 426.409 31.1321L415.365 35.8258ZM410.197 23.6658L421.241 18.9721C419.356 14.5368 415 11.6594 410.181 11.6658C405.362 11.6722 401.014 14.5611 399.141 19.0014L410.197 23.6658ZM420.039 46.8838L431.094 42.2161L428.928 37.0861L417.873 41.7538L406.818 46.4215L408.984 51.5515L420.039 46.8838ZM417.873 41.7538V29.7538H402.521V41.7538V53.7538H417.873V41.7538ZM402.521 41.7538L391.466 37.0861L389.3 42.2161L400.355 46.8838L411.41 51.5515L413.576 46.4215L402.521 41.7538ZM400.355 46.8838V34.8838H392.565V46.8838V58.8838H400.355V46.8838ZM392.565 46.8838L403.555 51.7035L415.221 25.1035L404.231 20.2838L393.241 15.4641L381.576 42.0641L392.565 46.8838ZM404.231 20.2838V32.2838H416.391V20.2838V8.28379H404.231V20.2838ZM416.391 20.2838L405.407 25.1167L417.111 51.7167L428.095 46.8838L439.079 42.0509L427.375 15.4509L416.391 20.2838ZM428.095 46.8838V34.8838H420.039V46.8838V58.8838H428.095V46.8838ZM405.067 35.8258V47.8258H415.365V35.8258V23.8258H405.067V35.8258ZM415.365 35.8258L426.409 31.1321L421.241 18.9721L410.197 23.6658L399.153 28.3595L404.321 40.5195L415.365 35.8258ZM410.197 23.6658L399.141 19.0014L394.011 31.1614L405.067 35.8258L416.123 40.4902L421.253 28.3302L410.197 23.6658ZM449.693 33.0898L448.545 21.1448C442.357 21.7393 437.647 26.9621 437.693 33.179C437.739 39.396 442.526 44.5481 448.723 45.0505L449.693 33.0898ZM458.395 43.2738L467.906 50.5903C467.936 50.5517 467.965 50.5128 467.995 50.4738L458.395 43.2738ZM455.165 45.6298L450.535 34.5588C450.511 34.569 450.487 34.5792 450.462 34.5895L455.165 45.6298ZM450.453 46.9218L448.59 35.0673C448.581 35.0686 448.572 35.07 448.564 35.0714L450.453 46.9218ZM433.581 45.2118L427.727 55.6871C427.767 55.7098 427.808 55.7322 427.849 55.7543L433.581 45.2118ZM429.021 38.2958L428.601 26.3031C425.195 26.4223 422.001 27.984 419.815 30.5983C417.629 33.2126 416.658 36.6331 417.143 40.0061L429.021 38.2958ZM436.621 38.0298L448.204 34.8954C446.747 29.5123 441.774 25.8421 436.201 26.0371L436.621 38.0298ZM449.807 40.5378L445.39 29.3801C445.363 29.3908 445.336 29.4016 445.309 29.4125L449.807 40.5378ZM449.845 36.9658L445.347 48.0911C445.416 48.1187 445.484 48.1457 445.553 48.1721L449.845 36.9658ZM440.535 36.2438H428.535C428.535 42.8712 433.907 48.2438 440.535 48.2438V36.2438ZM440.535 30.4678V18.4678C433.907 18.4678 428.535 23.8404 428.535 30.4678H440.535ZM448.819 29.8598L452.92 41.1373C452.995 41.1101 453.069 41.0821 453.143 41.0534L448.819 29.8598ZM448.895 26.5538L444.392 37.6771C444.469 37.7081 444.546 37.7383 444.623 37.7676L448.895 26.5538ZM437.457 28.7958L436.794 40.7775C442.267 41.08 447.249 37.636 448.9 32.4094L437.457 28.7958ZM429.895 28.3778L418.052 26.4399C417.502 29.8009 418.406 33.2372 420.539 35.8924C422.672 38.5476 425.832 40.1715 429.232 40.3595L429.895 28.3778ZM434.417 22.0318L440.315 32.4824C440.326 32.476 440.337 32.4697 440.348 32.4633L434.417 22.0318ZM451.403 20.4358L448.961 32.1848C449.02 32.1969 449.078 32.2086 449.137 32.2199L451.403 20.4358ZM456.381 22.6398L448.82 31.9585C448.856 31.9875 448.892 32.0162 448.928 32.0447L456.381 22.6398ZM449.693 33.0898L448.723 45.0505C449.805 45.1383 450.454 45.274 450.771 45.3624C451.1 45.4543 450.864 45.4375 450.356 45.0944C449.792 44.7132 448.976 43.9797 448.344 42.8006C447.708 41.6145 447.535 40.4944 447.535 39.7398H459.535H471.535C471.535 33.7325 468.676 28.5082 463.792 25.2082C459.659 22.4155 454.793 21.4639 450.663 21.129L449.693 33.0898ZM459.535 39.7398H447.535C447.535 39.2661 447.604 38.6441 447.829 37.9463C448.057 37.2409 448.396 36.605 448.795 36.0738L458.395 43.2738L467.995 50.4738C470.409 47.2542 471.535 43.5128 471.535 39.7398H459.535ZM458.395 43.2738L448.883 35.9573C449.64 34.9731 450.409 34.6117 450.535 34.5588L455.165 45.6298L459.794 56.7007C462.708 55.4825 465.629 53.5504 467.906 50.5903L458.395 43.2738ZM455.165 45.6298L450.462 34.5895C450.168 34.7147 449.581 34.9115 448.59 35.0673L450.453 46.9218L452.316 58.7763C454.871 58.3747 457.425 57.7102 459.867 56.6701L455.165 45.6298ZM450.453 46.9218L448.564 35.0714C447.557 35.2319 446.252 35.3398 444.601 35.3398V47.3398V59.3398C447.256 59.3398 449.852 59.169 452.342 58.7721L450.453 46.9218ZM444.601 47.3398V35.3398C442.804 35.3398 441.488 35.2031 440.568 35.0255C439.641 34.8465 439.297 34.6607 439.313 34.6692L433.581 45.2118L427.849 55.7543C432.965 58.5358 438.932 59.3398 444.601 59.3398V47.3398ZM433.581 45.2118L439.435 34.7365C439.697 34.883 440.147 35.2276 440.521 35.7943C440.876 36.3331 440.914 36.6964 440.898 36.5854L429.021 38.2958L417.143 40.0061C418.082 46.5276 421.586 52.2554 427.727 55.6871L433.581 45.2118ZM429.021 38.2958L429.44 50.2884L437.04 50.0224L436.621 38.0298L436.201 26.0371L428.601 26.3031L429.021 38.2958ZM436.621 38.0298L425.037 41.1641C426.581 46.8686 430.833 50.0709 434.55 51.5756C437.944 52.9492 441.563 53.2598 444.601 53.2598V41.2598V29.2598C442.901 29.2598 442.822 29.0321 443.555 29.3289C444.01 29.513 444.939 29.9677 445.916 30.941C446.961 31.9822 447.785 33.3482 448.204 34.8954L436.621 38.0298ZM444.601 41.2598V53.2598C447.414 53.2598 450.979 53.0073 454.304 51.6631L449.807 40.5378L445.309 29.4125C445.62 29.2867 445.842 29.2265 445.937 29.2031C446.034 29.1791 446.049 29.1812 445.964 29.1931C445.776 29.219 445.344 29.2598 444.601 29.2598V41.2598ZM449.807 40.5378L454.223 51.6955C456.178 50.9218 463.631 47.4914 463.631 38.7138H451.631H439.631C439.631 35.3578 441.157 32.7683 442.689 31.2355C443.988 29.937 445.19 29.4592 445.39 29.3801L449.807 40.5378ZM451.631 38.7138H463.631C463.631 29.8238 455.988 26.4684 454.136 25.7595L449.845 36.9658L445.553 48.1721C445.348 48.0935 444.12 47.6219 442.791 46.3208C441.217 44.7803 439.631 42.148 439.631 38.7138H451.631ZM449.845 36.9658L454.342 25.8405C450.956 24.4717 447.256 24.2438 444.411 24.2438V36.2438V48.2438C445.259 48.2438 445.77 48.2875 446.013 48.3197C446.126 48.3348 446.124 48.3399 446.029 48.3172C445.939 48.2956 445.696 48.232 445.347 48.0911L449.845 36.9658ZM444.411 36.2438V24.2438H440.535V36.2438V48.2438H444.411V36.2438ZM440.535 36.2438H452.535V30.4678H440.535H428.535V36.2438H440.535ZM440.535 30.4678V42.4678H443.803V30.4678V18.4678H440.535V30.4678ZM443.803 30.4678V42.4678C446.424 42.4678 449.795 42.2734 452.92 41.1373L448.819 29.8598L444.718 18.5823C445.031 18.4682 445.246 18.4178 445.32 18.4016C445.399 18.3845 445.393 18.3898 445.285 18.403C445.052 18.4311 444.579 18.4678 443.803 18.4678V30.4678ZM448.819 29.8598L453.143 41.0534C455.119 40.29 462.491 36.9071 462.491 28.1878H450.491H438.491C438.491 24.8577 439.987 22.2338 441.587 20.6335C442.941 19.2796 444.219 18.7723 444.494 18.6662L448.819 29.8598ZM450.491 28.1878H462.491C462.491 19.6403 455.427 16.2009 453.167 15.3399L448.895 26.5538L444.623 37.7676C444.264 37.6308 442.907 37.084 441.507 35.6512C439.854 33.9583 438.491 31.346 438.491 28.1878H450.491ZM448.895 26.5538L453.397 15.4304C450.31 14.1809 447.126 13.9078 444.563 13.9078V25.9078V37.9078C444.785 37.9078 444.952 37.9144 445.07 37.9222C445.189 37.93 445.244 37.9381 445.244 37.938C445.242 37.9378 445.224 37.935 445.189 37.9282C445.155 37.9213 445.102 37.9098 445.032 37.8919C444.896 37.8568 444.675 37.7917 444.392 37.6771L448.895 26.5538ZM444.563 25.9078V13.9078C441.786 13.9078 438.402 14.1996 435.171 15.5128C431.633 16.9508 427.67 19.9368 426.014 25.1822L437.457 28.7958L448.9 32.4094C448.436 33.8771 447.614 35.1601 446.599 36.1449C445.639 37.0758 444.721 37.5379 444.207 37.7467C443.345 38.0973 443.21 37.9078 444.563 37.9078V25.9078ZM437.457 28.7958L438.119 16.8141L430.557 16.3961L429.895 28.3778L429.232 40.3595L436.794 40.7775L437.457 28.7958ZM429.895 28.3778L441.737 30.3157C441.695 30.5733 441.542 31.1007 441.14 31.6651C440.747 32.2167 440.365 32.4538 440.315 32.4824L434.417 22.0318L428.519 11.5812C422.939 14.7304 419.123 19.8959 418.052 26.4399L429.895 28.3778ZM434.417 22.0318L440.348 32.4633C440.537 32.356 441.662 31.8278 444.563 31.8278V19.8278V7.82779C439.103 7.82779 433.464 8.76891 428.485 11.6003L434.417 22.0318ZM444.563 19.8278V31.8278C446.588 31.8278 448.016 31.9884 448.961 32.1848L451.403 20.4358L453.844 8.68675C450.888 8.07247 447.756 7.82779 444.563 7.82779V19.8278ZM451.403 20.4358L449.137 32.2199C449.328 32.2567 449.356 32.2821 449.271 32.2444C449.179 32.2036 449.013 32.1145 448.82 31.9585L456.381 22.6398L463.941 13.321C460.83 10.7966 457.266 9.34356 453.669 8.65171L451.403 20.4358ZM456.381 22.6398L448.928 32.0447C448.332 31.5725 447.614 30.7986 447.081 29.6915C446.548 28.5865 446.395 27.5548 446.395 26.8198H458.395H470.395C470.395 21.4561 468.067 16.5898 463.834 13.2348L456.381 22.6398ZM458.395 26.8198H446.395C446.395 26.0866 446.553 24.9949 447.151 23.8165C447.752 22.6325 448.558 21.8338 449.204 21.3683C449.795 20.9425 450.16 20.8575 450.007 20.9039C449.862 20.9481 449.41 21.0617 448.545 21.1448L449.693 33.0898L450.84 45.0348C454.663 44.6676 459.292 43.6805 463.234 40.8403C467.864 37.5046 470.395 32.4282 470.395 26.8198H458.395Z" fill="#282828" mask="url(#path-1-outside-1_655_300)"></path></svg>