<svg xmlns="http://www.w3.org/2000/svg" width="377" height="96" viewBox="0 0 377 96" fill="none"><mask id="path-1-outside-1_959_86" maskUnits="userSpaceOnUse" x="-0.325195" y="-0.944336" width="377" height="97" fill="black"><rect fill="white" x="-0.325195" y="-0.944336" width="377" height="97"></rect><path d="M35.1796 12.4557H43.0836V39.0557H35.1796V28.7577H19.9036V39.0557H11.9996V12.4557H19.9036V22.2977H35.1796V12.4557ZM74.1421 39.0557L71.9761 33.9257H56.6241L54.4581 39.0557H46.6681L58.3341 12.4557H70.4941L82.1981 39.0557H74.1421ZM59.1701 27.9977H69.4681L64.3001 15.8377L59.1701 27.9977ZM85.7731 39.0557V12.4557H93.4871V32.5957H104.089V12.4557H111.803V32.5957H122.405V12.4557H130.119V39.0557H85.7731ZM171.649 29.2517L179.325 29.6317C178.793 32.8743 177.185 35.3317 174.499 37.0037C171.839 38.6757 168.191 39.5117 163.555 39.5117C158.033 39.5117 153.751 38.3083 150.711 35.9017C147.671 33.4697 146.151 30.0877 146.151 25.7557C146.151 21.4237 147.633 18.0543 150.597 15.6477C153.561 13.2157 157.716 11.9997 163.061 11.9997C167.444 11.9997 171.003 12.8483 173.739 14.5457C176.475 16.2177 178.147 18.4977 178.755 21.3857L171.155 21.8797C170.725 20.841 169.775 20.005 168.305 19.3717C166.836 18.7383 165.088 18.4217 163.061 18.4217C160.173 18.4217 157.944 19.093 156.373 20.4357C154.828 21.753 154.055 23.5263 154.055 25.7557C154.055 28.0103 154.866 29.7963 156.487 31.1137C158.134 32.431 160.49 33.0897 163.555 33.0897C165.759 33.0897 167.545 32.735 168.913 32.0257C170.307 31.3163 171.219 30.3917 171.649 29.2517ZM181.016 18.9157V12.4557H211.34V18.9157H200.13V39.0557H192.226V18.9157H181.016ZM235.383 12.4557H247.543V39.0557H239.829V18.0417L227.593 39.0557H215.433V12.4557H223.147V33.4697L235.383 12.4557ZM258.476 12.4557H284.962V39.0557H277.058V18.9157H265.62C265.569 19.625 265.506 20.6637 265.43 22.0317C265.303 24.2357 265.189 25.8697 265.088 26.9337C265.012 27.9723 264.847 29.3023 264.594 30.9237C264.366 32.545 264.036 33.7483 263.606 34.5337C263.2 35.2937 262.643 36.1043 261.934 36.9657C261.25 37.827 260.376 38.4223 259.312 38.7517C258.248 39.081 256.994 39.2457 255.55 39.2457C254.536 39.2457 253.168 39.1823 251.446 39.0557V32.6337C252.256 32.735 252.928 32.7857 253.46 32.7857C254.017 32.7857 254.498 32.7097 254.904 32.5577C255.334 32.3803 255.702 32.089 256.006 31.6837C256.335 31.2783 256.601 30.8477 256.804 30.3917C257.032 29.9357 257.222 29.315 257.374 28.5297C257.526 27.7443 257.64 26.997 257.716 26.2877C257.817 25.553 257.893 24.603 257.944 23.4377C258.02 22.2723 258.07 21.2083 258.096 20.2457C258.146 19.283 258.197 18.0543 258.248 16.5597C258.324 15.0397 258.4 13.6717 258.476 12.4557ZM309.447 21.4997C312.766 21.4997 315.438 22.209 317.465 23.6277C319.492 25.0463 320.505 27.2757 320.505 30.3157C320.505 33.3303 319.492 35.547 317.465 36.9657C315.464 38.359 312.791 39.0557 309.447 39.0557H294.665H291.359V12.4557H299.263V21.4997H309.447ZM309.067 32.5957C311.423 32.5957 312.601 31.785 312.601 30.1637C312.601 28.5423 311.423 27.7317 309.067 27.7317H299.263V32.5957H309.067ZM333.971 24.7677H364.485V30.6197H333.971V24.7677ZM22.2255 62.9157V56.4557H52.5495V62.9157H41.3395V83.0557H33.4355V62.9157H22.2255ZM78.7582 69.4897C84.4075 69.9963 87.2322 72.099 87.2322 75.7977C87.2322 78.0523 86.2315 79.8257 84.2302 81.1177C82.2289 82.4097 79.2395 83.0557 75.2622 83.0557H56.6422V56.4557H75.2622C78.6062 56.4557 81.2409 57.1143 83.1662 58.4317C85.1169 59.749 86.0922 61.4717 86.0922 63.5997C86.0922 66.9183 83.6475 68.8817 78.7582 69.4897ZM64.5462 62.5357V66.7537H74.8822C75.9209 66.7537 76.7315 66.5637 77.3142 66.1837C77.8969 65.8037 78.1882 65.2843 78.1882 64.6257C78.1882 63.2323 77.0862 62.5357 74.8822 62.5357H64.5462ZM74.4642 76.9757C76.2122 76.9757 77.4535 76.811 78.1882 76.4817C78.9482 76.1523 79.3282 75.5823 79.3282 74.7717C79.3282 73.9357 78.9609 73.353 78.2262 73.0237C77.4915 72.6943 76.3642 72.5297 74.8442 72.5297H64.5462V76.9757H74.4642ZM94.8646 79.8637C91.7486 77.4317 90.1906 74.0623 90.1906 69.7557C90.1906 65.449 91.7486 62.0797 94.8646 59.6477C97.9806 57.2157 102.313 55.9997 107.861 55.9997C113.409 55.9997 117.741 57.2157 120.857 59.6477C123.973 62.0797 125.531 65.449 125.531 69.7557C125.531 74.0623 123.973 77.4317 120.857 79.8637C117.741 82.2957 113.409 83.5117 107.861 83.5117C102.313 83.5117 97.9806 82.2957 94.8646 79.8637ZM100.641 64.4357C98.9432 65.753 98.0946 67.5263 98.0946 69.7557C98.0946 71.985 98.9432 73.771 100.641 75.1137C102.363 76.431 104.77 77.0897 107.861 77.0897C110.951 77.0897 113.345 76.431 115.043 75.1137C116.765 73.771 117.627 71.985 117.627 69.7557C117.627 67.5263 116.765 65.753 115.043 64.4357C113.345 63.093 110.951 62.4217 107.861 62.4217C104.77 62.4217 102.363 63.093 100.641 64.4357ZM155.231 48.1717C155.053 52.3517 152.127 54.4417 146.453 54.4417C140.778 54.4417 137.852 52.3517 137.675 48.1717H142.691C142.868 49.6663 144.122 50.4137 146.453 50.4137C148.758 50.4137 149.999 49.6663 150.177 48.1717H155.231ZM150.329 56.4557H162.489V83.0557H154.775V62.0417L142.539 83.0557H130.379V56.4557H138.093V77.4697L150.329 56.4557ZM204.009 73.2517L211.685 73.6317C211.153 76.8743 209.544 79.3317 206.859 81.0037C204.199 82.6757 200.551 83.5117 195.915 83.5117C190.392 83.5117 186.111 82.3083 183.071 79.9017C180.031 77.4697 178.511 74.0877 178.511 69.7557C178.511 65.4237 179.993 62.0543 182.957 59.6477C185.921 57.2157 190.076 55.9997 195.421 55.9997C199.804 55.9997 203.363 56.8483 206.099 58.5457C208.835 60.2177 210.507 62.4977 211.115 65.3857L203.515 65.8797C203.084 64.841 202.134 64.005 200.665 63.3717C199.196 62.7383 197.448 62.4217 195.421 62.4217C192.533 62.4217 190.304 63.093 188.733 64.4357C187.188 65.753 186.415 67.5263 186.415 69.7557C186.415 72.0103 187.226 73.7963 188.847 75.1137C190.494 76.431 192.85 77.0897 195.915 77.0897C198.119 77.0897 199.905 76.735 201.273 76.0257C202.666 75.3163 203.578 74.3917 204.009 73.2517ZM213.376 62.9157V56.4557H243.7V62.9157H232.49V83.0557H224.586V62.9157H213.376ZM267.743 56.4557H279.903V83.0557H272.189V62.0417L259.953 83.0557H247.793V56.4557H255.507V77.4697L267.743 56.4557ZM290.835 56.4557H317.321V83.0557H309.417V62.9157H297.979C297.928 63.625 297.865 64.6637 297.789 66.0317C297.662 68.2357 297.548 69.8697 297.447 70.9337C297.371 71.9723 297.206 73.3023 296.953 74.9237C296.725 76.545 296.396 77.7483 295.965 78.5337C295.56 79.2937 295.002 80.1043 294.293 80.9657C293.609 81.827 292.735 82.4223 291.671 82.7517C290.607 83.081 289.353 83.2457 287.909 83.2457C286.896 83.2457 285.528 83.1823 283.805 83.0557V76.6337C284.616 76.735 285.287 76.7857 285.819 76.7857C286.376 76.7857 286.858 76.7097 287.263 76.5577C287.694 76.3803 288.061 76.089 288.365 75.6837C288.694 75.2783 288.96 74.8477 289.163 74.3917C289.391 73.9357 289.581 73.315 289.733 72.5297C289.885 71.7443 289.999 70.997 290.075 70.2877C290.176 69.553 290.252 68.603 290.303 67.4377C290.379 66.2723 290.43 65.2083 290.455 64.2457C290.506 63.283 290.556 62.0543 290.607 60.5597C290.683 59.0397 290.759 57.6717 290.835 56.4557ZM341.806 65.4997C345.125 65.4997 347.798 66.209 349.824 67.6277C351.851 69.0463 352.864 71.2757 352.864 74.3157C352.864 77.3303 351.851 79.547 349.824 80.9657C347.823 82.359 345.15 83.0557 341.806 83.0557H327.024H323.718V56.4557H331.622V65.4997H341.806ZM341.426 76.5957C343.782 76.5957 344.96 75.785 344.96 74.1637C344.96 72.5423 343.782 71.7317 341.426 71.7317H331.622V76.5957H341.426Z"></path></mask><path d="M35.1796 12.4557H43.0836V39.0557H35.1796V28.7577H19.9036V39.0557H11.9996V12.4557H19.9036V22.2977H35.1796V12.4557ZM74.1421 39.0557L71.9761 33.9257H56.6241L54.4581 39.0557H46.6681L58.3341 12.4557H70.4941L82.1981 39.0557H74.1421ZM59.1701 27.9977H69.4681L64.3001 15.8377L59.1701 27.9977ZM85.7731 39.0557V12.4557H93.4871V32.5957H104.089V12.4557H111.803V32.5957H122.405V12.4557H130.119V39.0557H85.7731ZM171.649 29.2517L179.325 29.6317C178.793 32.8743 177.185 35.3317 174.499 37.0037C171.839 38.6757 168.191 39.5117 163.555 39.5117C158.033 39.5117 153.751 38.3083 150.711 35.9017C147.671 33.4697 146.151 30.0877 146.151 25.7557C146.151 21.4237 147.633 18.0543 150.597 15.6477C153.561 13.2157 157.716 11.9997 163.061 11.9997C167.444 11.9997 171.003 12.8483 173.739 14.5457C176.475 16.2177 178.147 18.4977 178.755 21.3857L171.155 21.8797C170.725 20.841 169.775 20.005 168.305 19.3717C166.836 18.7383 165.088 18.4217 163.061 18.4217C160.173 18.4217 157.944 19.093 156.373 20.4357C154.828 21.753 154.055 23.5263 154.055 25.7557C154.055 28.0103 154.866 29.7963 156.487 31.1137C158.134 32.431 160.49 33.0897 163.555 33.0897C165.759 33.0897 167.545 32.735 168.913 32.0257C170.307 31.3163 171.219 30.3917 171.649 29.2517ZM181.016 18.9157V12.4557H211.34V18.9157H200.13V39.0557H192.226V18.9157H181.016ZM235.383 12.4557H247.543V39.0557H239.829V18.0417L227.593 39.0557H215.433V12.4557H223.147V33.4697L235.383 12.4557ZM258.476 12.4557H284.962V39.0557H277.058V18.9157H265.62C265.569 19.625 265.506 20.6637 265.43 22.0317C265.303 24.2357 265.189 25.8697 265.088 26.9337C265.012 27.9723 264.847 29.3023 264.594 30.9237C264.366 32.545 264.036 33.7483 263.606 34.5337C263.2 35.2937 262.643 36.1043 261.934 36.9657C261.25 37.827 260.376 38.4223 259.312 38.7517C258.248 39.081 256.994 39.2457 255.55 39.2457C254.536 39.2457 253.168 39.1823 251.446 39.0557V32.6337C252.256 32.735 252.928 32.7857 253.46 32.7857C254.017 32.7857 254.498 32.7097 254.904 32.5577C255.334 32.3803 255.702 32.089 256.006 31.6837C256.335 31.2783 256.601 30.8477 256.804 30.3917C257.032 29.9357 257.222 29.315 257.374 28.5297C257.526 27.7443 257.64 26.997 257.716 26.2877C257.817 25.553 257.893 24.603 257.944 23.4377C258.02 22.2723 258.07 21.2083 258.096 20.2457C258.146 19.283 258.197 18.0543 258.248 16.5597C258.324 15.0397 258.4 13.6717 258.476 12.4557ZM309.447 21.4997C312.766 21.4997 315.438 22.209 317.465 23.6277C319.492 25.0463 320.505 27.2757 320.505 30.3157C320.505 33.3303 319.492 35.547 317.465 36.9657C315.464 38.359 312.791 39.0557 309.447 39.0557H294.665H291.359V12.4557H299.263V21.4997H309.447ZM309.067 32.5957C311.423 32.5957 312.601 31.785 312.601 30.1637C312.601 28.5423 311.423 27.7317 309.067 27.7317H299.263V32.5957H309.067ZM333.971 24.7677H364.485V30.6197H333.971V24.7677ZM22.2255 62.9157V56.4557H52.5495V62.9157H41.3395V83.0557H33.4355V62.9157H22.2255ZM78.7582 69.4897C84.4075 69.9963 87.2322 72.099 87.2322 75.7977C87.2322 78.0523 86.2315 79.8257 84.2302 81.1177C82.2289 82.4097 79.2395 83.0557 75.2622 83.0557H56.6422V56.4557H75.2622C78.6062 56.4557 81.2409 57.1143 83.1662 58.4317C85.1169 59.749 86.0922 61.4717 86.0922 63.5997C86.0922 66.9183 83.6475 68.8817 78.7582 69.4897ZM64.5462 62.5357V66.7537H74.8822C75.9209 66.7537 76.7315 66.5637 77.3142 66.1837C77.8969 65.8037 78.1882 65.2843 78.1882 64.6257C78.1882 63.2323 77.0862 62.5357 74.8822 62.5357H64.5462ZM74.4642 76.9757C76.2122 76.9757 77.4535 76.811 78.1882 76.4817C78.9482 76.1523 79.3282 75.5823 79.3282 74.7717C79.3282 73.9357 78.9609 73.353 78.2262 73.0237C77.4915 72.6943 76.3642 72.5297 74.8442 72.5297H64.5462V76.9757H74.4642ZM94.8646 79.8637C91.7486 77.4317 90.1906 74.0623 90.1906 69.7557C90.1906 65.449 91.7486 62.0797 94.8646 59.6477C97.9806 57.2157 102.313 55.9997 107.861 55.9997C113.409 55.9997 117.741 57.2157 120.857 59.6477C123.973 62.0797 125.531 65.449 125.531 69.7557C125.531 74.0623 123.973 77.4317 120.857 79.8637C117.741 82.2957 113.409 83.5117 107.861 83.5117C102.313 83.5117 97.9806 82.2957 94.8646 79.8637ZM100.641 64.4357C98.9432 65.753 98.0946 67.5263 98.0946 69.7557C98.0946 71.985 98.9432 73.771 100.641 75.1137C102.363 76.431 104.77 77.0897 107.861 77.0897C110.951 77.0897 113.345 76.431 115.043 75.1137C116.765 73.771 117.627 71.985 117.627 69.7557C117.627 67.5263 116.765 65.753 115.043 64.4357C113.345 63.093 110.951 62.4217 107.861 62.4217C104.77 62.4217 102.363 63.093 100.641 64.4357ZM155.231 48.1717C155.053 52.3517 152.127 54.4417 146.453 54.4417C140.778 54.4417 137.852 52.3517 137.675 48.1717H142.691C142.868 49.6663 144.122 50.4137 146.453 50.4137C148.758 50.4137 149.999 49.6663 150.177 48.1717H155.231ZM150.329 56.4557H162.489V83.0557H154.775V62.0417L142.539 83.0557H130.379V56.4557H138.093V77.4697L150.329 56.4557ZM204.009 73.2517L211.685 73.6317C211.153 76.8743 209.544 79.3317 206.859 81.0037C204.199 82.6757 200.551 83.5117 195.915 83.5117C190.392 83.5117 186.111 82.3083 183.071 79.9017C180.031 77.4697 178.511 74.0877 178.511 69.7557C178.511 65.4237 179.993 62.0543 182.957 59.6477C185.921 57.2157 190.076 55.9997 195.421 55.9997C199.804 55.9997 203.363 56.8483 206.099 58.5457C208.835 60.2177 210.507 62.4977 211.115 65.3857L203.515 65.8797C203.084 64.841 202.134 64.005 200.665 63.3717C199.196 62.7383 197.448 62.4217 195.421 62.4217C192.533 62.4217 190.304 63.093 188.733 64.4357C187.188 65.753 186.415 67.5263 186.415 69.7557C186.415 72.0103 187.226 73.7963 188.847 75.1137C190.494 76.431 192.85 77.0897 195.915 77.0897C198.119 77.0897 199.905 76.735 201.273 76.0257C202.666 75.3163 203.578 74.3917 204.009 73.2517ZM213.376 62.9157V56.4557H243.7V62.9157H232.49V83.0557H224.586V62.9157H213.376ZM267.743 56.4557H279.903V83.0557H272.189V62.0417L259.953 83.0557H247.793V56.4557H255.507V77.4697L267.743 56.4557ZM290.835 56.4557H317.321V83.0557H309.417V62.9157H297.979C297.928 63.625 297.865 64.6637 297.789 66.0317C297.662 68.2357 297.548 69.8697 297.447 70.9337C297.371 71.9723 297.206 73.3023 296.953 74.9237C296.725 76.545 296.396 77.7483 295.965 78.5337C295.56 79.2937 295.002 80.1043 294.293 80.9657C293.609 81.827 292.735 82.4223 291.671 82.7517C290.607 83.081 289.353 83.2457 287.909 83.2457C286.896 83.2457 285.528 83.1823 283.805 83.0557V76.6337C284.616 76.735 285.287 76.7857 285.819 76.7857C286.376 76.7857 286.858 76.7097 287.263 76.5577C287.694 76.3803 288.061 76.089 288.365 75.6837C288.694 75.2783 288.96 74.8477 289.163 74.3917C289.391 73.9357 289.581 73.315 289.733 72.5297C289.885 71.7443 289.999 70.997 290.075 70.2877C290.176 69.553 290.252 68.603 290.303 67.4377C290.379 66.2723 290.43 65.2083 290.455 64.2457C290.506 63.283 290.556 62.0543 290.607 60.5597C290.683 59.0397 290.759 57.6717 290.835 56.4557ZM341.806 65.4997C345.125 65.4997 347.798 66.209 349.824 67.6277C351.851 69.0463 352.864 71.2757 352.864 74.3157C352.864 77.3303 351.851 79.547 349.824 80.9657C347.823 82.359 345.15 83.0557 341.806 83.0557H327.024H323.718V56.4557H331.622V65.4997H341.806ZM341.426 76.5957C343.782 76.5957 344.96 75.785 344.96 74.1637C344.96 72.5423 343.782 71.7317 341.426 71.7317H331.622V76.5957H341.426Z" fill="white"></path><path d="M35.1796 12.4557V0.455662C28.5522 0.455662 23.1796 5.82825 23.1796 12.4557L35.1796 12.4557ZM43.0836 12.4557H55.0836C55.0836 5.82825 49.711 0.455662 43.0836 0.455662V12.4557ZM43.0836 39.0557V51.0557C49.711 51.0557 55.0836 45.6831 55.0836 39.0557H43.0836ZM35.1796 39.0557H23.1796C23.1796 45.6831 28.5522 51.0557 35.1796 51.0557V39.0557ZM35.1796 28.7577H47.1796C47.1796 22.1302 41.807 16.7577 35.1796 16.7577V28.7577ZM19.9036 28.7577V16.7577C13.2762 16.7577 7.90362 22.1302 7.90362 28.7577L19.9036 28.7577ZM19.9036 39.0557V51.0557C26.531 51.0557 31.9036 45.6831 31.9036 39.0557H19.9036ZM11.9996 39.0557H-0.000382572C-0.000382572 45.6831 5.3722 51.0557 11.9996 51.0557L11.9996 39.0557ZM11.9996 12.4557V0.455662C5.3722 0.455662 -0.000382572 5.82825 -0.000382572 12.4557L11.9996 12.4557ZM19.9036 12.4557H31.9036C31.9036 5.82825 26.531 0.455662 19.9036 0.455662L19.9036 12.4557ZM19.9036 22.2977H7.90362C7.90362 28.9251 13.2762 34.2977 19.9036 34.2977L19.9036 22.2977ZM35.1796 22.2977V34.2977C41.807 34.2977 47.1796 28.9251 47.1796 22.2977L35.1796 22.2977ZM35.1796 12.4557V24.4557H43.0836V12.4557V0.455662H35.1796V12.4557ZM43.0836 12.4557H31.0836V39.0557H43.0836H55.0836V12.4557H43.0836ZM43.0836 39.0557V27.0557H35.1796V39.0557V51.0557H43.0836V39.0557ZM35.1796 39.0557H47.1796V28.7577H35.1796H23.1796V39.0557H35.1796ZM35.1796 28.7577V16.7577H19.9036V28.7577V40.7577H35.1796V28.7577ZM19.9036 28.7577H7.90362V39.0557H19.9036H31.9036V28.7577H19.9036ZM19.9036 39.0557V27.0557H11.9996V39.0557V51.0557H19.9036V39.0557ZM11.9996 39.0557H23.9996V12.4557H11.9996H-0.000382572V39.0557H11.9996ZM11.9996 12.4557V24.4557H19.9036V12.4557V0.455662H11.9996V12.4557ZM19.9036 12.4557H7.90362V22.2977H19.9036H31.9036V12.4557H19.9036ZM19.9036 22.2977V34.2977H35.1796V22.2977V10.2977H19.9036V22.2977ZM35.1796 22.2977H47.1796V12.4557H35.1796H23.1796V22.2977H35.1796ZM74.1421 39.0557L63.0871 43.7233C64.9634 48.1672 69.3183 51.0557 74.1421 51.0557V39.0557ZM71.9761 33.9257L83.0311 29.258C81.1548 24.8141 76.7999 21.9257 71.9761 21.9257V33.9257ZM56.6241 33.9257V21.9257C51.8003 21.9257 47.4454 24.8141 45.5691 29.258L56.6241 33.9257ZM54.4581 39.0557V51.0557C59.2819 51.0557 63.6368 48.1672 65.5131 43.7233L54.4581 39.0557ZM46.6681 39.0557L35.6785 34.236C34.0512 37.9464 34.4062 42.2275 36.6223 45.6193C38.8384 49.0112 42.6165 51.0557 46.6681 51.0557V39.0557ZM58.3341 12.4557V0.455662C53.5704 0.455662 49.2578 3.27341 47.3445 7.63596L58.3341 12.4557ZM70.4941 12.4557L81.4779 7.6228C79.5615 3.26732 75.2525 0.455662 70.4941 0.455662V12.4557ZM82.1981 39.0557V51.0557C86.2523 51.0557 90.0323 49.0086 92.2478 45.6133C94.4633 42.218 94.8146 37.9336 93.1819 34.2228L82.1981 39.0557ZM59.1701 27.9977L48.1137 23.3333C46.5505 27.0387 46.9474 31.2808 49.1708 34.6319C51.3942 37.9831 55.1484 39.9977 59.1701 39.9977V27.9977ZM69.4681 27.9977V39.9977C73.4954 39.9977 77.2541 37.9775 79.4762 34.6187C81.6983 31.2599 82.0873 27.0104 80.5121 23.304L69.4681 27.9977ZM64.3001 15.8377L75.3441 11.144C73.459 6.70863 69.1035 3.83129 64.2842 3.83767C59.4649 3.84406 55.117 6.73293 53.2437 11.1733L64.3001 15.8377ZM74.1421 39.0557L85.1971 34.388L83.0311 29.258L71.9761 33.9257L60.9211 38.5933L63.0871 43.7233L74.1421 39.0557ZM71.9761 33.9257V21.9257H56.6241V33.9257V45.9257H71.9761V33.9257ZM56.6241 33.9257L45.5691 29.258L43.4031 34.388L54.4581 39.0557L65.5131 43.7233L67.6791 38.5933L56.6241 33.9257ZM54.4581 39.0557V27.0557H46.6681V39.0557V51.0557H54.4581V39.0557ZM46.6681 39.0557L57.6576 43.8754L69.3236 17.2754L58.3341 12.4557L47.3445 7.63596L35.6785 34.236L46.6681 39.0557ZM58.3341 12.4557V24.4557H70.4941V12.4557V0.455662H58.3341V12.4557ZM70.4941 12.4557L59.5103 17.2885L71.2143 43.8885L82.1981 39.0557L93.1819 34.2228L81.4779 7.6228L70.4941 12.4557ZM82.1981 39.0557V27.0557H74.1421V39.0557V51.0557H82.1981V39.0557ZM59.1701 27.9977V39.9977H69.4681V27.9977V15.9977H59.1701V27.9977ZM69.4681 27.9977L80.5121 23.304L75.3441 11.144L64.3001 15.8377L53.2561 20.5314L58.4241 32.6914L69.4681 27.9977ZM64.3001 15.8377L53.2437 11.1733L48.1137 23.3333L59.1701 27.9977L70.2265 32.6621L75.3565 20.5021L64.3001 15.8377ZM85.7731 39.0557H73.7731C73.7731 45.6831 79.1456 51.0557 85.7731 51.0557V39.0557ZM85.7731 12.4557V0.455662C79.1456 0.455662 73.7731 5.82825 73.7731 12.4557L85.7731 12.4557ZM93.4871 12.4557H105.487C105.487 5.82825 100.114 0.455662 93.4871 0.455662V12.4557ZM93.4871 32.5957H81.4871C81.4871 39.2231 86.8596 44.5957 93.4871 44.5957V32.5957ZM104.089 32.5957V44.5957C110.716 44.5957 116.089 39.2231 116.089 32.5957H104.089ZM104.089 12.4557V0.455662C97.4616 0.455662 92.0891 5.82825 92.0891 12.4557L104.089 12.4557ZM111.803 12.4557H123.803C123.803 5.82825 118.43 0.455662 111.803 0.455662V12.4557ZM111.803 32.5957H99.8031C99.8031 39.2231 105.176 44.5957 111.803 44.5957V32.5957ZM122.405 32.5957V44.5957C129.032 44.5957 134.405 39.2231 134.405 32.5957H122.405ZM122.405 12.4557V0.455662C115.778 0.455662 110.405 5.82825 110.405 12.4557L122.405 12.4557ZM130.119 12.4557H142.119C142.119 5.82825 136.746 0.455662 130.119 0.455662V12.4557ZM130.119 39.0557V51.0557C136.746 51.0557 142.119 45.6831 142.119 39.0557H130.119ZM85.7731 39.0557H97.7731V12.4557H85.7731H73.7731V39.0557H85.7731ZM85.7731 12.4557V24.4557H93.4871V12.4557V0.455662H85.7731V12.4557ZM93.4871 12.4557H81.4871V32.5957H93.4871H105.487V12.4557H93.4871ZM93.4871 32.5957V44.5957H104.089V32.5957V20.5957H93.4871V32.5957ZM104.089 32.5957H116.089V12.4557H104.089H92.0891V32.5957H104.089ZM104.089 12.4557V24.4557H111.803V12.4557V0.455662H104.089V12.4557ZM111.803 12.4557H99.8031V32.5957H111.803H123.803V12.4557H111.803ZM111.803 32.5957V44.5957H122.405V32.5957V20.5957H111.803V32.5957ZM122.405 32.5957H134.405V12.4557H122.405H110.405V32.5957H122.405ZM122.405 12.4557V24.4557H130.119V12.4557V0.455662H122.405V12.4557ZM130.119 12.4557H118.119V39.0557H130.119H142.119V12.4557H130.119ZM130.119 39.0557V27.0557H85.7731V39.0557V51.0557H130.119V39.0557ZM171.649 29.2517L172.243 17.2663C167.04 17.0088 162.265 20.1376 160.424 25.0109L171.649 29.2517ZM179.325 29.6317L191.167 31.5744C191.721 28.201 190.809 24.7517 188.661 22.0921C186.513 19.4326 183.333 17.8154 179.919 17.6463L179.325 29.6317ZM174.499 37.0037L168.157 26.8169C168.142 26.8259 168.128 26.835 168.113 26.844L174.499 37.0037ZM150.711 35.9017L143.215 45.2721C143.231 45.2848 143.247 45.2975 143.263 45.3102L150.711 35.9017ZM150.597 15.6477L158.162 24.9635C158.178 24.9505 158.193 24.9376 158.209 24.9245L150.597 15.6477ZM173.739 14.5457L167.413 24.7428C167.436 24.757 167.459 24.771 167.482 24.785L173.739 14.5457ZM178.755 21.3857L179.534 33.3604C183.007 33.1347 186.21 31.4124 188.314 28.6402C190.418 25.868 191.215 22.319 190.498 18.9135L178.755 21.3857ZM171.155 21.8797L160.071 26.4758C162.038 31.221 166.808 34.1876 171.934 33.8544L171.155 21.8797ZM168.305 19.3717L163.556 30.3916L163.556 30.3916L168.305 19.3717ZM156.373 20.4357L164.158 29.5678C164.162 29.5643 164.167 29.5607 164.171 29.5571L156.373 20.4357ZM156.487 31.1137L148.92 40.427C148.944 40.4461 148.967 40.4652 148.991 40.4841L156.487 31.1137ZM168.913 32.0257L163.469 21.3317C163.443 21.3452 163.416 21.3589 163.39 21.3726L168.913 32.0257ZM171.649 29.2517L171.056 41.237L178.732 41.617L179.325 29.6317L179.919 17.6463L172.243 17.2663L171.649 29.2517ZM179.325 29.6317L167.484 27.6889C167.457 27.855 167.464 27.6639 167.68 27.3341C167.779 27.1829 167.89 27.0532 167.994 26.9529C168.096 26.8546 168.162 26.8139 168.157 26.8169L174.499 37.0037L180.842 47.1904C186.59 43.6116 190.1 38.078 191.167 31.5744L179.325 29.6317ZM174.499 37.0037L168.113 26.844C168.071 26.8708 166.941 27.5117 163.555 27.5117V39.5117V51.5117C169.442 51.5117 175.608 50.4806 180.886 47.1633L174.499 37.0037ZM163.555 39.5117V27.5117C159.617 27.5117 158.343 26.6382 158.16 26.4931L150.711 35.9017L143.263 45.3102C149.16 49.9785 156.449 51.5117 163.555 51.5117V39.5117ZM150.711 35.9017L158.208 26.5312C158.131 26.47 158.128 26.4549 158.159 26.4939C158.191 26.5348 158.22 26.584 158.237 26.6219C158.279 26.7164 158.151 26.5087 158.151 25.7557H146.151H134.151C134.151 33.2658 136.983 40.2861 143.215 45.2721L150.711 35.9017ZM146.151 25.7557H158.151C158.151 24.9626 158.284 24.7279 158.247 24.8111C158.232 24.8457 158.202 24.9002 158.162 24.9527C158.122 25.0037 158.11 25.0055 158.162 24.9635L150.597 15.6477L143.033 6.33186C136.863 11.3419 134.151 18.3574 134.151 25.7557H146.151ZM150.597 15.6477L158.209 24.9245C158.318 24.835 159.411 23.9997 163.061 23.9997V11.9997V-0.000336409C156.022 -0.000336409 148.805 1.59636 142.986 6.37078L150.597 15.6477ZM163.061 11.9997V23.9997C165.989 23.9997 167.146 24.5767 167.413 24.7428L173.739 14.5457L180.065 4.34852C174.861 1.11996 168.9 -0.000336409 163.061 -0.000336409V11.9997ZM173.739 14.5457L167.482 24.785C167.694 24.9147 167.573 24.8842 167.369 24.606C167.273 24.4753 167.187 24.3281 167.121 24.1773C167.055 24.0281 167.025 23.9141 167.013 23.8578L178.755 21.3857L190.498 18.9135C189.146 12.4931 185.282 7.53578 179.997 4.30628L173.739 14.5457ZM178.755 21.3857L177.977 9.41093L170.377 9.90493L171.155 21.8797L171.934 33.8544L179.534 33.3604L178.755 21.3857ZM171.155 21.8797L182.24 17.2835C180.188 12.3326 176.174 9.69592 173.055 8.35177L168.305 19.3717L163.556 30.3916C163.376 30.3141 161.262 29.3494 160.071 26.4758L171.155 21.8797ZM168.305 19.3717L173.055 8.35178C169.743 6.92415 166.302 6.42166 163.061 6.42166V18.4217V30.4217C163.456 30.4217 163.676 30.4529 163.753 30.467C163.827 30.4803 163.744 30.473 163.556 30.3916L168.305 19.3717ZM163.061 18.4217V6.42166C158.443 6.42166 153.047 7.49264 148.576 11.3142L156.373 20.4357L164.171 29.5571C163.539 30.097 162.961 30.3319 162.684 30.4155C162.444 30.4875 162.52 30.4217 163.061 30.4217V18.4217ZM156.373 20.4357L148.589 11.3035C144.087 15.1411 142.055 20.4001 142.055 25.7557H154.055H166.055C166.055 26.0406 166.002 26.7082 165.636 27.547C165.258 28.4156 164.703 29.1039 164.158 29.5678L156.373 20.4357ZM154.055 25.7557H142.055C142.055 31.2962 144.25 36.6321 148.92 40.427L156.487 31.1137L164.055 21.8003C164.59 22.235 165.178 22.9183 165.591 23.8264C165.991 24.7077 166.055 25.427 166.055 25.7557H154.055ZM156.487 31.1137L148.991 40.4841C153.543 44.1258 158.964 45.0897 163.555 45.0897V33.0897V21.0897C162.852 21.0897 162.621 21.0109 162.72 21.0388C162.85 21.0752 163.361 21.2453 163.984 21.7432L156.487 31.1137ZM163.555 33.0897V45.0897C166.909 45.0897 170.788 44.5711 174.437 42.6787L168.913 32.0257L163.39 21.3726C163.873 21.1222 164.189 21.0577 164.211 21.0535C164.225 21.0507 164.18 21.0603 164.068 21.0703C163.955 21.0803 163.787 21.0897 163.555 21.0897V33.0897ZM168.913 32.0257L174.358 42.7196C177.636 41.0505 181.116 38.1501 182.875 33.4925L171.649 29.2517L160.424 25.0109C161.322 22.6332 162.977 21.5822 163.469 21.3317L168.913 32.0257ZM181.016 18.9157H169.016C169.016 25.5431 174.389 30.9157 181.016 30.9157V18.9157ZM181.016 12.4557V0.455662C174.389 0.455662 169.016 5.82825 169.016 12.4557L181.016 12.4557ZM211.34 12.4557H223.34C223.34 5.82825 217.968 0.455662 211.34 0.455662V12.4557ZM211.34 18.9157V30.9157C217.968 30.9157 223.34 25.5431 223.34 18.9157L211.34 18.9157ZM200.13 18.9157V6.91566C193.503 6.91566 188.13 12.2882 188.13 18.9157L200.13 18.9157ZM200.13 39.0557V51.0557C206.758 51.0557 212.13 45.6831 212.13 39.0557H200.13ZM192.226 39.0557H180.226C180.226 45.6831 185.599 51.0557 192.226 51.0557V39.0557ZM192.226 18.9157H204.226C204.226 12.2882 198.854 6.91566 192.226 6.91566V18.9157ZM181.016 18.9157H193.016V12.4557H181.016H169.016V18.9157H181.016ZM181.016 12.4557V24.4557H211.34V12.4557V0.455662H181.016V12.4557ZM211.34 12.4557H199.34V18.9157H211.34H223.34V12.4557H211.34ZM211.34 18.9157V6.91566H200.13V18.9157V30.9157H211.34V18.9157ZM200.13 18.9157H188.13V39.0557H200.13H212.13V18.9157H200.13ZM200.13 39.0557V27.0557H192.226V39.0557V51.0557H200.13V39.0557ZM192.226 39.0557H204.226V18.9157H192.226H180.226V39.0557H192.226ZM192.226 18.9157V6.91566H181.016V18.9157V30.9157H192.226V18.9157ZM235.383 12.4557V0.455662C231.112 0.455662 227.162 2.72615 225.013 6.41737L235.383 12.4557ZM247.543 12.4557H259.543C259.543 5.82825 254.171 0.455662 247.543 0.455662V12.4557ZM247.543 39.0557V51.0557C254.171 51.0557 259.543 45.6831 259.543 39.0557H247.543ZM239.829 39.0557H227.829C227.829 45.6831 233.202 51.0557 239.829 51.0557V39.0557ZM239.829 18.0417H251.829C251.829 12.6186 248.192 7.86954 242.956 6.4563C237.721 5.04306 232.188 7.31691 229.459 12.0034L239.829 18.0417ZM227.593 39.0557V51.0557C231.865 51.0557 235.814 48.7852 237.963 45.094L227.593 39.0557ZM215.433 39.0557H203.433C203.433 45.6831 208.806 51.0557 215.433 51.0557V39.0557ZM215.433 12.4557V0.455662C208.806 0.455662 203.433 5.82825 203.433 12.4557L215.433 12.4557ZM223.147 12.4557H235.147C235.147 5.82825 229.775 0.455662 223.147 0.455662V12.4557ZM223.147 33.4697H211.147C211.147 38.8927 214.784 43.6418 220.02 45.055C225.256 46.4683 230.788 44.1944 233.517 39.508L223.147 33.4697ZM235.383 12.4557V24.4557H247.543V12.4557V0.455662H235.383V12.4557ZM247.543 12.4557H235.543V39.0557H247.543H259.543V12.4557H247.543ZM247.543 39.0557V27.0557H239.829V39.0557V51.0557H247.543V39.0557ZM239.829 39.0557H251.829V18.0417H239.829H227.829V39.0557H239.829ZM239.829 18.0417L229.459 12.0034L217.223 33.0174L227.593 39.0557L237.963 45.094L250.199 24.08L239.829 18.0417ZM227.593 39.0557V27.0557H215.433V39.0557V51.0557H227.593V39.0557ZM215.433 39.0557H227.433V12.4557H215.433H203.433V39.0557H215.433ZM215.433 12.4557V24.4557H223.147V12.4557V0.455662H215.433V12.4557ZM223.147 12.4557H211.147V33.4697H223.147H235.147V12.4557H223.147ZM223.147 33.4697L233.517 39.508L245.753 18.494L235.383 12.4557L225.013 6.41737L212.777 27.4314L223.147 33.4697ZM258.476 12.4557V0.455662C252.139 0.455662 246.894 5.3827 246.499 11.7071L258.476 12.4557ZM284.962 12.4557H296.962C296.962 5.82825 291.589 0.455662 284.962 0.455662V12.4557ZM284.962 39.0557V51.0557C291.589 51.0557 296.962 45.6831 296.962 39.0557H284.962ZM277.058 39.0557H265.058C265.058 45.6831 270.43 51.0557 277.058 51.0557V39.0557ZM277.058 18.9157H289.058C289.058 12.2882 283.685 6.91566 277.058 6.91566V18.9157ZM265.62 18.9157V6.91566C259.324 6.91566 254.099 11.781 253.65 18.0607L265.62 18.9157ZM265.43 22.0317L277.41 22.7202C277.41 22.7126 277.411 22.7049 277.411 22.6973L265.43 22.0317ZM265.088 26.9337L253.142 25.796C253.133 25.8832 253.126 25.9705 253.12 26.058L265.088 26.9337ZM264.594 30.9237L252.737 29.0711C252.728 29.1316 252.719 29.192 252.711 29.2526L264.594 30.9237ZM263.606 34.5337L253.084 28.7637C253.061 28.8045 253.039 28.8455 253.017 28.8866L263.606 34.5337ZM261.934 36.9657L252.67 29.3372C252.625 29.3921 252.581 29.4474 252.536 29.5031L261.934 36.9657ZM259.312 38.7517L262.86 50.2151L259.312 38.7517ZM251.446 39.0557H239.446C239.446 45.3417 244.297 50.5624 250.566 51.0234L251.446 39.0557ZM251.446 32.6337L252.934 20.7263C249.519 20.2994 246.084 21.3596 243.504 23.6375C240.924 25.9154 239.446 29.1917 239.446 32.6337H251.446ZM254.904 32.5577L259.117 43.7936C259.236 43.7489 259.355 43.7023 259.473 43.6538L254.904 32.5577ZM256.006 31.6837L246.692 24.1166C246.594 24.2371 246.499 24.3594 246.406 24.4837L256.006 31.6837ZM256.804 30.3917L246.071 25.0251C245.989 25.1876 245.912 25.352 245.838 25.518L256.804 30.3917ZM257.374 28.5297L269.155 30.8099L269.155 30.8099L257.374 28.5297ZM257.716 26.2877L245.828 24.648C245.812 24.7682 245.797 24.8886 245.784 25.0093L257.716 26.2877ZM257.944 23.4377L245.969 22.6567C245.963 22.7432 245.959 22.8298 245.955 22.9164L257.944 23.4377ZM258.096 20.2457L246.112 19.615C246.107 19.7199 246.103 19.8249 246.1 19.93L258.096 20.2457ZM258.248 16.5597L246.263 15.9604C246.259 16.0246 246.257 16.0889 246.255 16.1531L258.248 16.5597ZM258.476 12.4557V24.4557H284.962V12.4557V0.455662H258.476V12.4557ZM284.962 12.4557H272.962V39.0557H284.962H296.962V12.4557H284.962ZM284.962 39.0557V27.0557H277.058V39.0557V51.0557H284.962V39.0557ZM277.058 39.0557H289.058V18.9157H277.058H265.058V39.0557H277.058ZM277.058 18.9157V6.91566H265.62V18.9157V30.9157H277.058V18.9157ZM265.62 18.9157L253.65 18.0607C253.593 18.8667 253.525 19.9812 253.448 21.366L265.43 22.0317L277.411 22.6973C277.486 21.3461 277.545 20.3833 277.589 19.7706L265.62 18.9157ZM265.43 22.0317L253.449 21.3431C253.324 23.5196 253.221 24.9673 253.142 25.796L265.088 26.9337L277.034 28.0714C277.157 26.772 277.282 24.9517 277.41 22.7202L265.43 22.0317ZM265.088 26.9337L253.12 26.058C253.077 26.6396 252.965 27.6126 252.737 29.0711L264.594 30.9237L276.45 32.7762C276.729 30.9921 276.946 29.305 277.056 27.8094L265.088 26.9337ZM264.594 30.9237L252.711 29.2526C252.68 29.4686 252.652 29.6284 252.631 29.7384C252.609 29.8496 252.597 29.8912 252.601 29.8744C252.605 29.8598 252.634 29.7555 252.7 29.5825C252.765 29.4126 252.885 29.1257 253.084 28.7637L263.606 34.5337L274.127 40.3037C275.613 37.5943 276.185 34.6659 276.477 32.5947L264.594 30.9237ZM263.606 34.5337L253.017 28.8866C253.053 28.819 253.054 28.8274 252.995 28.9133C252.937 28.9982 252.833 29.1393 252.67 29.3372L261.934 36.9657L271.197 44.5942C272.273 43.2877 273.323 41.8141 274.194 40.1807L263.606 34.5337ZM261.934 36.9657L252.536 29.5031C252.916 29.0252 253.408 28.5503 254.01 28.1404C254.61 27.7312 255.216 27.4576 255.763 27.2882L259.312 38.7517L262.86 50.2151C266.201 49.181 269.124 47.207 271.331 44.4283L261.934 36.9657ZM259.312 38.7517L255.763 27.2882C255.96 27.2274 256.053 27.2187 256.011 27.2243C255.968 27.2299 255.821 27.2457 255.55 27.2457V39.2457V51.2457C257.86 51.2457 260.364 50.9875 262.86 50.2151L259.312 38.7517ZM255.55 39.2457V27.2457C254.963 27.2457 253.928 27.2058 252.326 27.088L251.446 39.0557L250.566 51.0234C252.409 51.1589 254.109 51.2457 255.55 51.2457V39.2457ZM251.446 39.0557H263.446V32.6337H251.446H239.446V39.0557H251.446ZM251.446 32.6337L249.957 44.541C251.03 44.6751 252.241 44.7857 253.46 44.7857V32.7857V20.7857C253.562 20.7857 253.57 20.79 253.46 20.7817C253.356 20.7738 253.184 20.7576 252.934 20.7263L251.446 32.6337ZM253.46 32.7857V44.7857C255.062 44.7857 257.039 44.5728 259.117 43.7936L254.904 32.5577L250.69 21.3217C251.957 20.8466 252.972 20.7857 253.46 20.7857V32.7857ZM254.904 32.5577L259.473 43.6538C262.074 42.5826 264.123 40.86 265.606 38.8837L256.006 31.6837L246.406 24.4837C247.28 23.318 248.594 22.1781 250.335 21.4615L254.904 32.5577ZM256.006 31.6837L265.319 39.2508C266.284 38.0627 267.117 36.7321 267.769 35.2653L256.804 30.3917L245.838 25.518C246.084 24.9632 246.386 24.494 246.692 24.1166L256.006 31.6837ZM256.804 30.3917L267.537 35.7582C268.448 33.9361 268.899 32.1325 269.155 30.8099L257.374 28.5297L245.592 26.2494C245.579 26.3174 245.589 26.2464 245.643 26.0716C245.693 25.9077 245.819 25.5288 246.071 25.0251L256.804 30.3917ZM257.374 28.5297L269.155 30.8099C269.364 29.732 269.531 28.6487 269.647 27.5661L257.716 26.2877L245.784 25.0093C245.748 25.3453 245.688 25.7567 245.592 26.2494L257.374 28.5297ZM257.716 26.2877L269.603 27.9273C269.776 26.6746 269.873 25.313 269.932 23.9589L257.944 23.4377L245.955 22.9164C245.912 23.893 245.858 24.4314 245.828 24.648L257.716 26.2877ZM257.944 23.4377L269.918 24.2186C270.002 22.9296 270.061 21.7076 270.091 20.5613L258.096 20.2457L246.1 19.93C246.079 20.709 246.037 21.6151 245.969 22.6567L257.944 23.4377ZM258.096 20.2457L270.079 20.8764C270.135 19.8102 270.189 18.4998 270.241 16.9662L258.248 16.5597L246.255 16.1531C246.205 17.6088 246.157 18.7558 246.112 19.615L258.096 20.2457ZM258.248 16.5597L270.233 17.1589C270.307 15.6771 270.38 14.36 270.452 13.2042L258.476 12.4557L246.499 11.7071C246.419 12.9833 246.341 14.4023 246.263 15.9604L258.248 16.5597ZM317.465 36.9657L324.321 46.814C324.33 46.8081 324.338 46.8023 324.347 46.7964L317.465 36.9657ZM291.359 39.0557H279.359C279.359 45.6831 284.732 51.0557 291.359 51.0557V39.0557ZM291.359 12.4557V0.455662C284.732 0.455662 279.359 5.82825 279.359 12.4557L291.359 12.4557ZM299.263 12.4557H311.263C311.263 5.82825 305.89 0.455662 299.263 0.455662V12.4557ZM299.263 21.4997H287.263C287.263 28.1271 292.636 33.4997 299.263 33.4997V21.4997ZM299.263 27.7317V15.7317C292.636 15.7317 287.263 21.1042 287.263 27.7317L299.263 27.7317ZM299.263 32.5957H287.263C287.263 39.2231 292.636 44.5957 299.263 44.5957V32.5957ZM309.447 21.4997V33.4997C311.13 33.4997 311.159 33.8613 310.583 33.4584L317.465 23.6277L324.347 13.7969C319.718 10.5567 314.401 9.49966 309.447 9.49966V21.4997ZM317.465 23.6277L310.583 33.4584C309.857 32.9501 309.212 32.1897 308.821 31.3293C308.469 30.5556 308.505 30.1063 308.505 30.3157H320.505H332.505C332.505 24.3723 330.33 17.985 324.347 13.7969L317.465 23.6277ZM320.505 30.3157H308.505C308.505 30.4987 308.474 30.0327 308.831 29.25C309.227 28.3837 309.873 27.6321 310.583 27.1349L317.465 36.9657L324.347 46.7964C330.301 42.6283 332.505 36.2764 332.505 30.3157H320.505ZM317.465 36.9657L310.609 27.1173C310.914 26.9049 311.078 26.8832 310.933 26.9212C310.766 26.9645 310.304 27.0557 309.447 27.0557V39.0557V51.0557C314.355 51.0557 319.685 50.0415 324.321 46.814L317.465 36.9657ZM309.447 39.0557V27.0557H294.665V39.0557V51.0557H309.447V39.0557ZM294.665 39.0557V27.0557H291.359V39.0557V51.0557H294.665V39.0557ZM291.359 39.0557H303.359V12.4557H291.359H279.359V39.0557H291.359ZM291.359 12.4557V24.4557H299.263V12.4557V0.455662H291.359V12.4557ZM299.263 12.4557H287.263V21.4997H299.263H311.263V12.4557H299.263ZM299.263 21.4997V33.4997H309.447V21.4997V9.49966H299.263V21.4997ZM309.067 32.5957V44.5957C311.249 44.5957 315.011 44.2878 318.52 41.8731C322.838 38.9016 324.601 34.3096 324.601 30.1637H312.601H300.601C300.601 29.1149 300.795 27.6173 301.58 25.9965C302.393 24.3189 303.6 23.0072 304.915 22.1023C306.151 21.2511 307.276 20.8976 307.93 20.7474C308.585 20.5973 309.006 20.5957 309.067 20.5957V32.5957ZM312.601 30.1637H324.601C324.601 26.0177 322.838 21.4257 318.52 18.4543C315.011 16.0396 311.249 15.7317 309.067 15.7317V27.7317V39.7317C309.006 39.7317 308.585 39.7301 307.93 39.5799C307.276 39.4297 306.151 39.0762 304.915 38.2251C303.6 37.3202 302.393 36.0084 301.58 34.3308C300.795 32.71 300.601 31.2125 300.601 30.1637H312.601ZM309.067 27.7317V15.7317H299.263V27.7317V39.7317H309.067V27.7317ZM299.263 27.7317H287.263V32.5957H299.263H311.263V27.7317H299.263ZM299.263 32.5957V44.5957H309.067V32.5957V20.5957H299.263V32.5957ZM333.971 24.7677V12.7677C327.344 12.7677 321.971 18.1402 321.971 24.7677L333.971 24.7677ZM364.485 24.7677H376.485C376.485 18.1402 371.112 12.7677 364.485 12.7677V24.7677ZM364.485 30.6197V42.6197C371.112 42.6197 376.485 37.2471 376.485 30.6197L364.485 30.6197ZM333.971 30.6197H321.971C321.971 37.2471 327.344 42.6197 333.971 42.6197V30.6197ZM333.971 24.7677V36.7677H364.485V24.7677V12.7677H333.971V24.7677ZM364.485 24.7677H352.485V30.6197H364.485H376.485V24.7677H364.485ZM364.485 30.6197V18.6197H333.971V30.6197V42.6197H364.485V30.6197ZM333.971 30.6197H345.971V24.7677H333.971H321.971V30.6197H333.971ZM22.2255 62.9157H10.2255C10.2255 69.5431 15.5981 74.9157 22.2255 74.9157L22.2255 62.9157ZM22.2255 56.4557V44.4557C15.5981 44.4557 10.2255 49.8282 10.2255 56.4557H22.2255ZM52.5495 56.4557H64.5495C64.5495 49.8282 59.1769 44.4557 52.5495 44.4557V56.4557ZM52.5495 62.9157V74.9157C59.1769 74.9157 64.5495 69.5431 64.5495 62.9157H52.5495ZM41.3395 62.9157V50.9157C34.7121 50.9157 29.3395 56.2882 29.3395 62.9157H41.3395ZM41.3395 83.0557V95.0557C47.9669 95.0557 53.3395 89.6831 53.3395 83.0557H41.3395ZM33.4355 83.0557H21.4355C21.4355 89.6831 26.8081 95.0557 33.4355 95.0557V83.0557ZM33.4355 62.9157H45.4355C45.4355 56.2882 40.0629 50.9157 33.4355 50.9157V62.9157ZM22.2255 62.9157H34.2255V56.4557H22.2255H10.2255V62.9157H22.2255ZM22.2255 56.4557V68.4557H52.5495V56.4557V44.4557H22.2255V56.4557ZM52.5495 56.4557H40.5495V62.9157H52.5495H64.5495V56.4557H52.5495ZM52.5495 62.9157V50.9157H41.3395V62.9157V74.9157H52.5495V62.9157ZM41.3395 62.9157H29.3395V83.0557H41.3395H53.3395V62.9157H41.3395ZM41.3395 83.0557V71.0557H33.4355V83.0557V95.0557H41.3395V83.0557ZM33.4355 83.0557H45.4355V62.9157H33.4355H21.4355V83.0557H33.4355ZM33.4355 62.9157V50.9157H22.2255V62.9157V74.9157H33.4355V62.9157ZM78.7582 69.4897L77.2774 57.5814C71.191 58.3382 66.6549 63.5629 66.76 69.6953C66.865 75.8277 71.5775 80.8938 77.6863 81.4417L78.7582 69.4897ZM84.2302 81.1177L90.7386 91.1993L90.7386 91.1993L84.2302 81.1177ZM56.6422 83.0557H44.6422C44.6422 89.6831 50.0148 95.0557 56.6422 95.0557V83.0557ZM56.6422 56.4557V44.4557C50.0148 44.4557 44.6422 49.8282 44.6422 56.4557H56.6422ZM83.1662 58.4317L76.39 68.3353C76.4101 68.3491 76.4302 68.3627 76.4503 68.3763L83.1662 58.4317ZM64.5462 62.5357V50.5357C57.9188 50.5357 52.5462 55.9082 52.5462 62.5357H64.5462ZM64.5462 66.7537H52.5462C52.5462 73.3811 57.9188 78.7537 64.5462 78.7537V66.7537ZM77.3142 66.1837L70.759 56.1323L70.759 56.1323L77.3142 66.1837ZM78.1882 76.4817L73.4169 65.471C73.371 65.4909 73.3252 65.5111 73.2795 65.5316L78.1882 76.4817ZM78.2262 73.0237L73.3175 83.9738L73.3175 83.9738L78.2262 73.0237ZM64.5462 72.5297V60.5297C57.9188 60.5297 52.5462 65.9022 52.5462 72.5297H64.5462ZM64.5462 76.9757H52.5462C52.5462 83.6031 57.9188 88.9757 64.5462 88.9757V76.9757ZM78.7582 69.4897L77.6863 81.4417C78.483 81.5131 78.8614 81.6151 78.9341 81.6375C79.0098 81.6608 78.582 81.5442 77.9483 81.0725C77.2579 80.5586 76.4762 79.7317 75.9135 78.5761C75.3606 77.4405 75.2322 76.4262 75.2322 75.7977H87.2322H99.2322C99.2322 70.3796 96.9084 65.2668 92.2791 61.8208C88.3129 58.8684 83.6427 57.8796 79.8301 57.5376L78.7582 69.4897ZM87.2322 75.7977H75.2322C75.2322 75.0855 75.4097 74.0221 76.0308 72.9214C76.6364 71.848 77.3665 71.2653 77.7218 71.036L84.2302 81.1177L90.7386 91.1993C95.9312 87.8472 99.2322 82.3964 99.2322 75.7977H87.2322ZM84.2302 81.1177L77.7218 71.036C78.2257 70.7106 78.4164 70.7417 77.9525 70.8419C77.4958 70.9406 76.6379 71.0557 75.2622 71.0557V83.0557V95.0557C80.1645 95.0557 85.8937 94.3271 90.7386 91.1993L84.2302 81.1177ZM75.2622 83.0557V71.0557H56.6422V83.0557V95.0557H75.2622V83.0557ZM56.6422 83.0557H68.6422V56.4557H56.6422H44.6422V83.0557H56.6422ZM56.6422 56.4557V68.4557H75.2622V56.4557V44.4557H56.6422V56.4557ZM75.2622 56.4557V68.4557C76.1695 68.4557 76.6595 68.5473 76.8358 68.5914C76.9943 68.631 76.7782 68.601 76.39 68.3353L83.1662 58.4317L89.9424 48.528C85.3284 45.371 80.0211 44.4557 75.2622 44.4557V56.4557ZM83.1662 58.4317L76.4503 68.3763C76.1768 68.1916 75.5016 67.6544 74.9182 66.6239C74.3088 65.5475 74.0922 64.4475 74.0922 63.5997H86.0922H98.0922C98.0922 57.0121 94.7248 51.7574 89.8821 48.487L83.1662 58.4317ZM86.0922 63.5997H74.0922C74.0922 62.933 74.222 61.9214 74.7437 60.7943C75.2747 59.6468 76.0267 58.7815 76.7446 58.2049C77.9831 57.2103 78.6669 57.4086 77.2774 57.5814L78.7582 69.4897L80.239 81.3979C83.7388 80.9627 88.0896 79.8754 91.7728 76.9174C96.0168 73.509 98.0922 68.6515 98.0922 63.5997H86.0922ZM64.5462 62.5357H52.5462V66.7537H64.5462H76.5462V62.5357H64.5462ZM64.5462 66.7537V78.7537H74.8822V66.7537V54.7537H64.5462V66.7537ZM74.8822 66.7537V78.7537C77.1721 78.7537 80.5974 78.3689 83.8694 76.235L77.3142 66.1837L70.759 56.1323C72.8657 54.7584 74.6696 54.7537 74.8822 54.7537V66.7537ZM77.3142 66.1837L83.8694 76.235C87.6204 73.7887 90.1882 69.6049 90.1882 64.6257H78.1882H66.1882C66.1882 63.1221 66.5398 61.3569 67.504 59.6381C68.4531 57.9462 69.7018 56.8218 70.759 56.1323L77.3142 66.1837ZM78.1882 64.6257H90.1882C90.1882 60.1532 88.0815 55.6382 83.774 52.9151C80.3944 50.7785 76.8614 50.5357 74.8822 50.5357V62.5357V74.5357C74.838 74.5357 74.4571 74.5355 73.8542 74.4084C73.2625 74.2837 72.1788 73.9785 70.9494 73.2013C69.6391 72.3729 68.3071 71.0917 67.3667 69.3082C66.4446 67.5593 66.1882 65.8782 66.1882 64.6257H78.1882ZM74.8822 62.5357V50.5357H64.5462V62.5357V74.5357H74.8822V62.5357ZM74.4642 76.9757V88.9757C76.3782 88.9757 79.8594 88.8831 83.0969 87.4318L78.1882 76.4817L73.2795 65.5316C73.8831 65.261 74.3643 65.123 74.6318 65.0561C74.9097 64.9866 75.0873 64.9618 75.1282 64.9564C75.1898 64.9482 74.9999 64.9757 74.4642 64.9757V76.9757ZM78.1882 76.4817L82.9595 87.4923C85.0128 86.6026 87.3095 85.041 89.0278 82.4636C90.7578 79.8686 91.3282 77.1033 91.3282 74.7717H79.3282H67.3282C67.3282 73.2507 67.7086 71.1757 69.0586 69.1508C70.3969 67.1434 72.1236 66.0314 73.4169 65.471L78.1882 76.4817ZM79.3282 74.7717H91.3282C91.3282 72.5755 90.831 69.8892 89.2038 67.308C87.5576 64.6969 85.2871 63.0384 83.1349 62.0735L78.2262 73.0237L73.3175 83.9738C71.8999 83.3383 70.1804 82.1358 68.9016 80.1073C67.6417 78.1088 67.3282 76.1319 67.3282 74.7717H79.3282ZM78.2262 73.0237L83.1349 62.0736C80.027 60.6804 76.8176 60.5297 74.8442 60.5297V72.5297V84.5297C75.2026 84.5297 75.2592 84.5511 75.0953 84.5272C75.0038 84.5138 74.8047 84.4807 74.5244 84.4063C74.2478 84.3329 73.8274 84.2023 73.3175 83.9738L78.2262 73.0237ZM74.8442 72.5297V60.5297H64.5462V72.5297V84.5297H74.8442V72.5297ZM64.5462 72.5297H52.5462V76.9757H64.5462H76.5462V72.5297H64.5462ZM64.5462 76.9757V88.9757H74.4642V76.9757V64.9757H64.5462V76.9757ZM94.8646 79.8637L102.248 70.4039L102.248 70.4039L94.8646 79.8637ZM94.8646 59.6477L87.4813 50.1879L87.4813 50.1879L94.8646 59.6477ZM120.857 59.6477L128.24 50.1879L128.24 50.1879L120.857 59.6477ZM120.857 79.8637L113.473 70.4039L113.473 70.4039L120.857 79.8637ZM100.641 64.4357L107.998 73.9155C108.005 73.9105 108.011 73.9054 108.017 73.9004L100.641 64.4357ZM100.641 75.1137L93.1957 84.5251C93.2472 84.5658 93.299 84.6061 93.3512 84.646L100.641 75.1137ZM115.043 75.1137L122.4 84.5935C122.407 84.5885 122.413 84.5834 122.419 84.5784L115.043 75.1137ZM115.043 64.4357L107.598 73.8471C107.649 73.8878 107.701 73.9281 107.753 73.968L115.043 64.4357ZM94.8646 79.8637L102.248 70.4039C102.15 70.3278 102.137 70.3013 102.164 70.3353C102.194 70.3717 102.227 70.4245 102.251 70.4762C102.274 70.5254 102.262 70.5186 102.243 70.4229C102.222 70.3225 102.191 70.1092 102.191 69.7557H90.1906H78.1906C78.1906 77.3781 81.1645 84.3933 87.4813 89.3235L94.8646 79.8637ZM90.1906 69.7557H102.191C102.191 69.4021 102.222 69.1889 102.243 69.0884C102.262 68.9927 102.274 68.9859 102.251 69.0351C102.227 69.0868 102.194 69.1396 102.164 69.1761C102.137 69.21 102.15 69.1835 102.248 69.1075L94.8646 59.6477L87.4813 50.1879C81.1645 55.118 78.1906 62.1333 78.1906 69.7557H90.1906ZM94.8646 59.6477L102.248 69.1075C102.55 68.8716 103.93 67.9997 107.861 67.9997V55.9997V43.9997C100.695 43.9997 93.4112 45.5597 87.4813 50.1879L94.8646 59.6477ZM107.861 55.9997V67.9997C111.791 67.9997 113.171 68.8716 113.473 69.1075L120.857 59.6477L128.24 50.1879C122.31 45.5597 115.026 43.9997 107.861 43.9997V55.9997ZM120.857 59.6477L113.473 69.1075C113.571 69.1835 113.584 69.21 113.557 69.1761C113.528 69.1396 113.494 69.0868 113.47 69.0351C113.447 68.9859 113.459 68.9927 113.478 69.0884C113.499 69.1889 113.531 69.4021 113.531 69.7557H125.531H137.531C137.531 62.1333 134.557 55.118 128.24 50.1879L120.857 59.6477ZM125.531 69.7557H113.531C113.531 70.1092 113.499 70.3225 113.478 70.4229C113.459 70.5186 113.447 70.5254 113.47 70.4762C113.494 70.4245 113.528 70.3717 113.557 70.3353C113.584 70.3013 113.571 70.3278 113.473 70.4039L120.857 79.8637L128.24 89.3235C134.557 84.3933 137.531 77.3781 137.531 69.7557H125.531ZM120.857 79.8637L113.473 70.4039C113.171 70.6397 111.791 71.5117 107.861 71.5117V83.5117V95.5117C115.026 95.5117 122.31 93.9516 128.24 89.3235L120.857 79.8637ZM107.861 83.5117V71.5117C103.93 71.5117 102.55 70.6397 102.248 70.4039L94.8646 79.8637L87.4813 89.3235C93.4112 93.9516 100.695 95.5117 107.861 95.5117V83.5117ZM100.641 64.4357L93.2831 54.9558C88.5309 58.6441 86.0946 63.9813 86.0946 69.7557H98.0946H110.095C110.095 70.1928 110.003 70.9991 109.555 71.9339C109.101 72.8827 108.484 73.5382 107.998 73.9155L100.641 64.4357ZM98.0946 69.7557H86.0946C86.0946 75.525 88.5219 80.8279 93.1957 84.5251L100.641 75.1137L108.085 65.7023C108.541 66.0628 109.132 66.6957 109.57 67.6169C110.002 68.5272 110.095 69.3168 110.095 69.7557H98.0946ZM100.641 75.1137L93.3512 84.646C97.8922 88.1185 103.223 89.0897 107.861 89.0897V77.0897V65.0897C107.511 65.0897 107.261 65.0709 107.098 65.0514C106.936 65.0319 106.878 65.0139 106.905 65.0213C106.934 65.0292 107.055 65.0648 107.241 65.1537C107.429 65.2439 107.669 65.3815 107.93 65.5814L100.641 75.1137ZM107.861 77.0897V89.0897C112.482 89.0897 117.85 88.1246 122.4 84.5935L115.043 75.1137L107.685 65.6338C108.255 65.1912 108.706 65.0488 108.791 65.0256C108.827 65.0157 108.776 65.0327 108.617 65.0518C108.458 65.0708 108.21 65.0897 107.861 65.0897V77.0897ZM115.043 75.1137L122.419 84.5784C127.129 80.9074 129.627 75.5942 129.627 69.7557H117.627H105.627C105.627 69.2912 105.726 68.4792 106.172 67.5545C106.622 66.622 107.221 65.9954 107.666 65.6489L115.043 75.1137ZM117.627 69.7557H129.627C129.627 63.9113 127.12 58.5646 122.332 54.9034L115.043 64.4357L107.753 73.968C107.279 73.6052 106.653 72.9565 106.186 71.9965C105.725 71.0472 105.627 70.2184 105.627 69.7557H117.627ZM115.043 64.4357L122.487 55.0243C117.929 51.4187 112.526 50.4217 107.861 50.4217V62.4217V74.4217C108.564 74.4217 108.811 74.501 108.734 74.4795C108.627 74.4495 108.167 74.2971 107.598 73.8471L115.043 64.4357ZM107.861 62.4217V50.4217C103.18 50.4217 97.8136 51.4246 93.2636 54.9709L100.641 64.4357L108.017 73.9004C107.757 74.1031 107.516 74.2451 107.321 74.3401C107.129 74.4336 107 74.4731 106.962 74.4839C106.925 74.4942 106.973 74.4777 107.125 74.459C107.278 74.4404 107.519 74.4217 107.861 74.4217V62.4217ZM155.231 48.1717L167.22 48.6803C167.358 45.4124 166.157 42.2295 163.894 39.8682C161.63 37.5068 158.501 36.1717 155.231 36.1717V48.1717ZM137.675 48.1717V36.1717C134.404 36.1717 131.275 37.5068 129.011 39.8682C126.748 42.2295 125.547 45.4124 125.685 48.6803L137.675 48.1717ZM142.691 48.1717L154.607 46.7579C153.891 40.7197 148.771 36.1717 142.691 36.1717V48.1717ZM150.177 48.1717V36.1717C144.096 36.1717 138.976 40.7197 138.26 46.7579L150.177 48.1717ZM150.329 56.4557V44.4557C146.057 44.4557 142.108 46.7262 139.958 50.4174L150.329 56.4557ZM162.489 56.4557H174.489C174.489 49.8282 169.116 44.4557 162.489 44.4557V56.4557ZM162.489 83.0557V95.0557C169.116 95.0557 174.489 89.6831 174.489 83.0557H162.489ZM154.775 83.0557H142.775C142.775 89.6831 148.147 95.0557 154.775 95.0557V83.0557ZM154.775 62.0417H166.775C166.775 56.6186 163.137 51.8695 157.902 50.4563C152.666 49.0431 147.133 51.3169 144.404 56.0034L154.775 62.0417ZM142.539 83.0557V95.0557C146.81 95.0557 150.759 92.7852 152.909 89.094L142.539 83.0557ZM130.379 83.0557H118.379C118.379 89.6831 123.751 95.0557 130.379 95.0557V83.0557ZM130.379 56.4557V44.4557C123.751 44.4557 118.379 49.8282 118.379 56.4557H130.379ZM138.093 56.4557H150.093C150.093 49.8282 144.72 44.4557 138.093 44.4557V56.4557ZM138.093 77.4697H126.093C126.093 82.8927 129.73 87.6418 134.965 89.055C140.201 90.4683 145.734 88.1944 148.463 83.508L138.093 77.4697ZM155.231 48.1717L143.241 47.663C143.254 47.3572 143.341 46.5736 143.827 45.5917C144.34 44.5559 145.1 43.7007 145.928 43.1094C147.371 42.079 148.128 42.4417 146.453 42.4417V54.4417V66.4417C150.452 66.4417 155.509 65.7593 159.878 62.639C164.863 59.0784 167.003 53.7828 167.22 48.6803L155.231 48.1717ZM146.453 54.4417V42.4417C144.777 42.4417 145.534 42.079 146.977 43.1094C147.805 43.7007 148.565 44.5559 149.078 45.5917C149.564 46.5736 149.651 47.3572 149.664 47.663L137.675 48.1717L125.685 48.6803C125.902 53.7828 128.042 59.0784 133.027 62.639C137.396 65.7593 142.453 66.4417 146.453 66.4417V54.4417ZM137.675 48.1717V60.1717H142.691V48.1717V36.1717H137.675V48.1717ZM142.691 48.1717L130.774 49.5855C131.286 53.8987 133.678 57.8118 137.621 60.1614C140.902 62.1172 144.293 62.4137 146.453 62.4137V50.4137V38.4137C146.482 38.4137 146.815 38.4134 147.356 38.5261C147.893 38.6382 148.829 38.9025 149.907 39.5449C151.04 40.22 152.218 41.2509 153.14 42.6952C154.055 44.1286 154.466 45.5737 154.607 46.7579L142.691 48.1717ZM146.453 50.4137V62.4137C148.616 62.4137 152.016 62.1124 155.302 60.1338C159.24 57.7631 161.587 53.848 162.093 49.5855L150.177 48.1717L138.26 46.7579C138.398 45.5926 138.801 44.1619 139.704 42.736C140.614 41.2966 141.784 40.2584 142.923 39.5725C144.008 38.9197 144.955 38.6479 145.508 38.5314C146.063 38.4145 146.41 38.4137 146.453 38.4137V50.4137ZM150.177 48.1717V60.1717H155.231V48.1717V36.1717H150.177V48.1717ZM150.329 56.4557V68.4557H162.489V56.4557V44.4557H150.329V56.4557ZM162.489 56.4557H150.489V83.0557H162.489H174.489V56.4557H162.489ZM162.489 83.0557V71.0557H154.775V83.0557V95.0557H162.489V83.0557ZM154.775 83.0557H166.775V62.0417H154.775H142.775V83.0557H154.775ZM154.775 62.0417L144.404 56.0034L132.168 77.0174L142.539 83.0557L152.909 89.094L165.145 68.08L154.775 62.0417ZM142.539 83.0557V71.0557H130.379V83.0557V95.0557H142.539V83.0557ZM130.379 83.0557H142.379V56.4557H130.379H118.379V83.0557H130.379ZM130.379 56.4557V68.4557H138.093V56.4557V44.4557H130.379V56.4557ZM138.093 56.4557H126.093V77.4697H138.093H150.093V56.4557H138.093ZM138.093 77.4697L148.463 83.508L160.699 62.494L150.329 56.4557L139.958 50.4174L127.722 71.4314L138.093 77.4697ZM204.009 73.2517L204.602 61.2663C199.399 61.0088 194.624 64.1376 192.783 69.0109L204.009 73.2517ZM211.685 73.6317L223.527 75.5744C224.08 72.201 223.168 68.7517 221.021 66.0921C218.873 63.4326 215.693 61.8154 212.278 61.6463L211.685 73.6317ZM206.859 81.0037L200.516 70.8169C200.502 70.8259 200.487 70.835 200.473 70.844L206.859 81.0037ZM183.071 79.9017L175.575 89.2721C175.59 89.2848 175.606 89.2975 175.622 89.3102L183.071 79.9017ZM182.957 59.6477L190.521 68.9635C190.537 68.9505 190.553 68.9376 190.569 68.9245L182.957 59.6477ZM206.099 58.5457L199.773 68.7428C199.796 68.757 199.819 68.771 199.841 68.785L206.099 58.5457ZM211.115 65.3857L211.893 77.3604C215.366 77.1347 218.57 75.4124 220.674 72.6402C222.778 69.868 223.574 66.319 222.857 62.9135L211.115 65.3857ZM203.515 65.8797L192.43 70.4758C194.397 75.221 199.167 78.1876 204.293 77.8544L203.515 65.8797ZM200.665 63.3717L195.915 74.3916L195.915 74.3916L200.665 63.3717ZM188.733 64.4357L196.518 73.5678C196.522 73.5643 196.526 73.5607 196.53 73.5571L188.733 64.4357ZM188.847 75.1137L181.28 84.427C181.303 84.4461 181.327 84.4652 181.351 84.4841L188.847 75.1137ZM201.273 76.0257L195.829 65.3317C195.802 65.3452 195.776 65.3589 195.749 65.3726L201.273 76.0257ZM204.009 73.2517L203.416 85.237L211.092 85.617L211.685 73.6317L212.278 61.6463L204.602 61.2663L204.009 73.2517ZM211.685 73.6317L199.843 71.6889C199.816 71.855 199.823 71.6639 200.039 71.3341C200.138 71.1829 200.249 71.0532 200.353 70.9529C200.455 70.8546 200.521 70.8139 200.516 70.8169L206.859 81.0037L213.202 91.1904C218.949 87.6116 222.46 82.078 223.527 75.5744L211.685 73.6317ZM206.859 81.0037L200.473 70.844C200.43 70.8708 199.3 71.5117 195.915 71.5117V83.5117V95.5117C201.802 95.5117 207.967 94.4806 213.245 91.1633L206.859 81.0037ZM195.915 83.5117V71.5117C191.976 71.5117 190.703 70.6382 190.519 70.4931L183.071 79.9017L175.622 89.3102C181.519 93.9785 188.808 95.5117 195.915 95.5117V83.5117ZM183.071 79.9017L190.567 70.5312C190.491 70.47 190.488 70.4549 190.518 70.4939C190.55 70.5348 190.579 70.584 190.596 70.6219C190.639 70.7164 190.511 70.5087 190.511 69.7557H178.511H166.511C166.511 77.2658 169.342 84.2861 175.575 89.2721L183.071 79.9017ZM178.511 69.7557H190.511C190.511 68.9626 190.643 68.7279 190.607 68.8111C190.592 68.8457 190.561 68.9002 190.521 68.9527C190.482 69.0037 190.469 69.0055 190.521 68.9635L182.957 59.6477L175.393 50.3319C169.223 55.3419 166.511 62.3574 166.511 69.7557H178.511ZM182.957 59.6477L190.569 68.9245C190.678 68.835 191.77 67.9997 195.421 67.9997V55.9997V43.9997C188.381 43.9997 181.164 45.5964 175.345 50.3708L182.957 59.6477ZM195.421 55.9997V67.9997C198.348 67.9997 199.505 68.5767 199.773 68.7428L206.099 58.5457L212.425 48.3485C207.221 45.12 201.259 43.9997 195.421 43.9997V55.9997ZM206.099 58.5457L199.841 68.785C200.054 68.9147 199.932 68.8842 199.728 68.606C199.632 68.4753 199.547 68.3281 199.48 68.1773C199.414 68.0281 199.384 67.9141 199.372 67.8578L211.115 65.3857L222.857 62.9135C221.506 56.4931 217.641 51.5358 212.356 48.3063L206.099 58.5457ZM211.115 65.3857L210.337 53.4109L202.737 53.9049L203.515 65.8797L204.293 77.8544L211.893 77.3604L211.115 65.3857ZM203.515 65.8797L214.6 61.2835C212.547 56.3326 208.533 53.6959 205.415 52.3518L200.665 63.3717L195.915 74.3916C195.735 74.3141 193.621 73.3494 192.43 70.4758L203.515 65.8797ZM200.665 63.3717L205.415 52.3518C202.103 50.9241 198.661 50.4217 195.421 50.4217V62.4217V74.4217C195.815 74.4217 196.035 74.4529 196.113 74.467C196.187 74.4803 196.104 74.473 195.915 74.3916L200.665 63.3717ZM195.421 62.4217V50.4217C190.802 50.4217 185.406 51.4926 180.935 55.3142L188.733 64.4357L196.53 73.5571C195.899 74.097 195.321 74.3319 195.043 74.4155C194.804 74.4875 194.88 74.4217 195.421 74.4217V62.4217ZM188.733 64.4357L180.948 55.3035C176.446 59.1411 174.415 64.4001 174.415 69.7557H186.415H198.415C198.415 70.0406 198.361 70.7082 197.995 71.547C197.617 72.4156 197.062 73.1039 196.518 73.5678L188.733 64.4357ZM186.415 69.7557H174.415C174.415 75.2962 176.609 80.6321 181.28 84.427L188.847 75.1137L196.414 65.8003C196.949 66.235 197.538 66.9183 197.95 67.8264C198.35 68.7077 198.415 69.427 198.415 69.7557H186.415ZM188.847 75.1137L181.351 84.4841C185.903 88.1258 191.323 89.0897 195.915 89.0897V77.0897V65.0897C195.212 65.0897 194.98 65.0109 195.08 65.0388C195.21 65.0752 195.721 65.2453 196.343 65.7432L188.847 75.1137ZM195.915 77.0897V89.0897C199.268 89.0897 203.147 88.5711 206.797 86.6787L201.273 76.0257L195.749 65.3726C196.232 65.1222 196.549 65.0577 196.57 65.0535C196.584 65.0507 196.54 65.0603 196.427 65.0703C196.315 65.0803 196.146 65.0897 195.915 65.0897V77.0897ZM201.273 76.0257L206.717 86.7196C209.996 85.0505 213.475 82.1501 215.235 77.4925L204.009 73.2517L192.783 69.0109C193.681 66.6332 195.337 65.5822 195.829 65.3317L201.273 76.0257ZM213.376 62.9157H201.376C201.376 69.5431 206.748 74.9157 213.376 74.9157V62.9157ZM213.376 56.4557V44.4557C206.748 44.4557 201.376 49.8282 201.376 56.4557H213.376ZM243.7 56.4557H255.7C255.7 49.8282 250.327 44.4557 243.7 44.4557V56.4557ZM243.7 62.9157V74.9157C250.327 74.9157 255.7 69.5431 255.7 62.9157H243.7ZM232.49 62.9157V50.9157C225.862 50.9157 220.49 56.2882 220.49 62.9157H232.49ZM232.49 83.0557V95.0557C239.117 95.0557 244.49 89.6831 244.49 83.0557H232.49ZM224.586 83.0557H212.586C212.586 89.6831 217.958 95.0557 224.586 95.0557V83.0557ZM224.586 62.9157H236.586C236.586 56.2882 231.213 50.9157 224.586 50.9157V62.9157ZM213.376 62.9157H225.376V56.4557H213.376H201.376V62.9157H213.376ZM213.376 56.4557V68.4557H243.7V56.4557V44.4557H213.376V56.4557ZM243.7 56.4557H231.7V62.9157H243.7H255.7V56.4557H243.7ZM243.7 62.9157V50.9157H232.49V62.9157V74.9157H243.7V62.9157ZM232.49 62.9157H220.49V83.0557H232.49H244.49V62.9157H232.49ZM232.49 83.0557V71.0557H224.586V83.0557V95.0557H232.49V83.0557ZM224.586 83.0557H236.586V62.9157H224.586H212.586V83.0557H224.586ZM224.586 62.9157V50.9157H213.376V62.9157V74.9157H224.586V62.9157ZM267.743 56.4557V44.4557C263.471 44.4557 259.522 46.7262 257.372 50.4174L267.743 56.4557ZM279.903 56.4557H291.903C291.903 49.8282 286.53 44.4557 279.903 44.4557V56.4557ZM279.903 83.0557V95.0557C286.53 95.0557 291.903 89.6831 291.903 83.0557H279.903ZM272.189 83.0557H260.189C260.189 89.6831 265.561 95.0557 272.189 95.0557V83.0557ZM272.189 62.0417H284.189C284.189 56.6186 280.551 51.8695 275.316 50.4563C270.08 49.0431 264.547 51.3169 261.818 56.0034L272.189 62.0417ZM259.953 83.0557V95.0557C264.224 95.0557 268.173 92.7852 270.323 89.094L259.953 83.0557ZM247.793 83.0557H235.793C235.793 89.6831 241.165 95.0557 247.793 95.0557V83.0557ZM247.793 56.4557V44.4557C241.165 44.4557 235.793 49.8282 235.793 56.4557H247.793ZM255.507 56.4557H267.507C267.507 49.8282 262.134 44.4557 255.507 44.4557V56.4557ZM255.507 77.4697H243.507C243.507 82.8927 247.144 87.6418 252.379 89.055C257.615 90.4683 263.148 88.1944 265.877 83.508L255.507 77.4697ZM267.743 56.4557V68.4557H279.903V56.4557V44.4557H267.743V56.4557ZM279.903 56.4557H267.903V83.0557H279.903H291.903V56.4557H279.903ZM279.903 83.0557V71.0557H272.189V83.0557V95.0557H279.903V83.0557ZM272.189 83.0557H284.189V62.0417H272.189H260.189V83.0557H272.189ZM272.189 62.0417L261.818 56.0034L249.582 77.0174L259.953 83.0557L270.323 89.094L282.559 68.08L272.189 62.0417ZM259.953 83.0557V71.0557H247.793V83.0557V95.0557H259.953V83.0557ZM247.793 83.0557H259.793V56.4557H247.793H235.793V83.0557H247.793ZM247.793 56.4557V68.4557H255.507V56.4557V44.4557H247.793V56.4557ZM255.507 56.4557H243.507V77.4697H255.507H267.507V56.4557H255.507ZM255.507 77.4697L265.877 83.508L278.113 62.494L267.743 56.4557L257.372 50.4174L245.136 71.4314L255.507 77.4697ZM290.835 56.4557V44.4557C284.498 44.4557 279.254 49.3827 278.858 55.7071L290.835 56.4557ZM317.321 56.4557H329.321C329.321 49.8282 323.948 44.4557 317.321 44.4557V56.4557ZM317.321 83.0557V95.0557C323.948 95.0557 329.321 89.6831 329.321 83.0557H317.321ZM309.417 83.0557H297.417C297.417 89.6831 302.79 95.0557 309.417 95.0557V83.0557ZM309.417 62.9157H321.417C321.417 56.2882 316.044 50.9157 309.417 50.9157V62.9157ZM297.979 62.9157V50.9157C291.683 50.9157 286.458 55.781 286.01 62.0607L297.979 62.9157ZM297.789 66.0317L309.769 66.7202C309.77 66.7126 309.77 66.7049 309.771 66.6973L297.789 66.0317ZM297.447 70.9337L285.501 69.796C285.493 69.8832 285.485 69.9705 285.479 70.058L297.447 70.9337ZM296.953 74.9237L285.097 73.0711C285.087 73.1316 285.078 73.192 285.07 73.2526L296.953 74.9237ZM295.965 78.5337L285.443 72.7637C285.421 72.8045 285.399 72.8455 285.377 72.8866L295.965 78.5337ZM294.293 80.9657L285.03 73.3372C284.985 73.3921 284.94 73.4474 284.896 73.5031L294.293 80.9657ZM291.671 82.7517L295.219 94.2151L291.671 82.7517ZM283.805 83.0557H271.805C271.805 89.3417 276.656 94.5624 282.925 95.0234L283.805 83.0557ZM283.805 76.6337L285.293 64.7263C281.878 64.2994 278.444 65.3596 275.863 67.6375C273.283 69.9154 271.805 73.1917 271.805 76.6337H283.805ZM287.263 76.5577L291.476 87.7936C291.596 87.7489 291.714 87.7023 291.832 87.6538L287.263 76.5577ZM288.365 75.6837L279.052 68.1166C278.954 68.2371 278.858 68.3594 278.765 68.4837L288.365 75.6837ZM289.163 74.3917L278.43 69.0251C278.349 69.1876 278.271 69.352 278.197 69.518L289.163 74.3917ZM289.733 72.5297L301.514 74.8099L301.514 74.8099L289.733 72.5297ZM290.075 70.2877L278.188 68.648C278.171 68.7682 278.156 68.8886 278.143 69.0093L290.075 70.2877ZM290.303 67.4377L278.328 66.6567C278.323 66.7432 278.318 66.8298 278.314 66.9164L290.303 67.4377ZM290.455 64.2457L278.472 63.615C278.466 63.7199 278.462 63.8249 278.459 63.93L290.455 64.2457ZM290.607 60.5597L278.622 59.9604C278.619 60.0246 278.616 60.0889 278.614 60.1531L290.607 60.5597ZM290.835 56.4557V68.4557H317.321V56.4557V44.4557H290.835V56.4557ZM317.321 56.4557H305.321V83.0557H317.321H329.321V56.4557H317.321ZM317.321 83.0557V71.0557H309.417V83.0557V95.0557H317.321V83.0557ZM309.417 83.0557H321.417V62.9157H309.417H297.417V83.0557H309.417ZM309.417 62.9157V50.9157H297.979V62.9157V74.9157H309.417V62.9157ZM297.979 62.9157L286.01 62.0607C285.952 62.8667 285.884 63.9812 285.807 65.366L297.789 66.0317L309.771 66.6973C309.846 65.3461 309.905 64.3833 309.949 63.7706L297.979 62.9157ZM297.789 66.0317L285.809 65.3431C285.684 67.5196 285.58 68.9673 285.501 69.796L297.447 70.9337L309.393 72.0714C309.517 70.772 309.641 68.9517 309.769 66.7202L297.789 66.0317ZM297.447 70.9337L285.479 70.058C285.436 70.6396 285.325 71.6126 285.097 73.0711L296.953 74.9237L308.809 76.7762C309.088 74.9921 309.306 73.305 309.415 71.8094L297.447 70.9337ZM296.953 74.9237L285.07 73.2526C285.04 73.4686 285.012 73.6284 284.99 73.7384C284.968 73.8496 284.956 73.8912 284.961 73.8744C284.965 73.8598 284.994 73.7555 285.06 73.5825C285.125 73.4126 285.245 73.1257 285.443 72.7637L295.965 78.5337L306.487 84.3037C307.973 81.5943 308.545 78.6659 308.836 76.5947L296.953 74.9237ZM295.965 78.5337L285.377 72.8866C285.413 72.819 285.414 72.8274 285.355 72.9133C285.296 72.9982 285.193 73.1393 285.03 73.3372L294.293 80.9657L303.556 88.5942C304.632 87.2877 305.682 85.8141 306.553 84.1807L295.965 78.5337ZM294.293 80.9657L284.896 73.5031C285.275 73.0252 285.767 72.5503 286.369 72.1404C286.97 71.7312 287.576 71.4576 288.123 71.2882L291.671 82.7517L295.219 94.2151C298.56 93.181 301.484 91.207 303.69 88.4283L294.293 80.9657ZM291.671 82.7517L288.123 71.2882C288.319 71.2274 288.413 71.2187 288.37 71.2243C288.328 71.2299 288.18 71.2457 287.909 71.2457V83.2457V95.2457C290.22 95.2457 292.724 94.9875 295.219 94.2151L291.671 82.7517ZM287.909 83.2457V71.2457C287.322 71.2457 286.287 71.2058 284.685 71.088L283.805 83.0557L282.925 95.0234C284.768 95.1589 286.469 95.2457 287.909 95.2457V83.2457ZM283.805 83.0557H295.805V76.6337H283.805H271.805V83.0557H283.805ZM283.805 76.6337L282.317 88.541C283.39 88.6751 284.601 88.7857 285.819 88.7857V76.7857V64.7857C285.921 64.7857 285.929 64.79 285.82 64.7817C285.715 64.7738 285.544 64.7576 285.293 64.7263L283.805 76.6337ZM285.819 76.7857V88.7857C287.422 88.7857 289.399 88.5728 291.476 87.7936L287.263 76.5577L283.05 65.3217C284.317 64.8466 285.331 64.7857 285.819 64.7857V76.7857ZM287.263 76.5577L291.832 87.6538C294.434 86.5826 296.483 84.86 297.965 82.8837L288.365 75.6837L278.765 68.4837C279.639 67.318 280.954 66.1781 282.694 65.4615L287.263 76.5577ZM288.365 75.6837L297.678 83.2508C298.644 82.0627 299.477 80.7321 300.129 79.2653L289.163 74.3917L278.197 69.518C278.444 68.9632 278.745 68.494 279.052 68.1166L288.365 75.6837ZM289.163 74.3917L299.896 79.7582C300.807 77.9361 301.258 76.1325 301.514 74.8099L289.733 72.5297L277.952 70.2494C277.938 70.3174 277.949 70.2464 278.002 70.0716C278.052 69.9077 278.178 69.5288 278.43 69.0251L289.163 74.3917ZM289.733 72.5297L301.514 74.8099C301.723 73.732 301.891 72.6487 302.007 71.5661L290.075 70.2877L278.143 69.0093C278.107 69.3453 278.047 69.7567 277.952 70.2494L289.733 72.5297ZM290.075 70.2877L301.962 71.9273C302.135 70.6746 302.233 69.313 302.292 67.9589L290.303 67.4377L278.314 66.9164C278.272 67.893 278.217 68.4314 278.188 68.648L290.075 70.2877ZM290.303 67.4377L302.278 68.2186C302.362 66.9296 302.421 65.7076 302.451 64.5613L290.455 64.2457L278.459 63.93C278.439 64.709 278.396 65.6151 278.328 66.6567L290.303 67.4377ZM290.455 64.2457L302.438 64.8764C302.495 63.8102 302.548 62.4998 302.6 60.9662L290.607 60.5597L278.614 60.1531C278.565 61.6088 278.517 62.7558 278.472 63.615L290.455 64.2457ZM290.607 60.5597L302.592 61.1589C302.666 59.6771 302.739 58.36 302.812 57.2042L290.835 56.4557L278.858 55.7071C278.779 56.9833 278.7 58.4023 278.622 59.9604L290.607 60.5597ZM349.824 80.9657L356.681 90.814C356.689 90.8081 356.698 90.8023 356.706 90.7964L349.824 80.9657ZM323.718 83.0557H311.718C311.718 89.6831 317.091 95.0557 323.718 95.0557V83.0557ZM323.718 56.4557V44.4557C317.091 44.4557 311.718 49.8282 311.718 56.4557H323.718ZM331.622 56.4557H343.622C343.622 49.8282 338.25 44.4557 331.622 44.4557V56.4557ZM331.622 65.4997H319.622C319.622 72.1271 324.995 77.4997 331.622 77.4997V65.4997ZM331.622 71.7317V59.7317C324.995 59.7317 319.622 65.1042 319.622 71.7317H331.622ZM331.622 76.5957H319.622C319.622 83.2231 324.995 88.5957 331.622 88.5957V76.5957ZM341.806 65.4997V77.4997C343.49 77.4997 343.518 77.8613 342.943 77.4584L349.824 67.6277L356.706 57.7969C352.077 54.5567 346.761 53.4997 341.806 53.4997V65.4997ZM349.824 67.6277L342.943 77.4584C342.217 76.9501 341.571 76.1897 341.18 75.3293C340.828 74.5556 340.864 74.1063 340.864 74.3157H352.864H364.864C364.864 68.3723 362.689 61.985 356.706 57.7969L349.824 67.6277ZM352.864 74.3157H340.864C340.864 74.4987 340.833 74.0327 341.191 73.25C341.587 72.3837 342.232 71.6321 342.943 71.1349L349.824 80.9657L356.706 90.7964C362.66 86.6283 364.864 80.2764 364.864 74.3157H352.864ZM349.824 80.9657L342.968 71.1173C343.273 70.9049 343.438 70.8832 343.292 70.9212C343.126 70.9645 342.664 71.0557 341.806 71.0557V83.0557V95.0557C346.715 95.0557 352.045 94.0415 356.681 90.814L349.824 80.9657ZM341.806 83.0557V71.0557H327.024V83.0557V95.0557H341.806V83.0557ZM327.024 83.0557V71.0557H323.718V83.0557V95.0557H327.024V83.0557ZM323.718 83.0557H335.718V56.4557H323.718H311.718V83.0557H323.718ZM323.718 56.4557V68.4557H331.622V56.4557V44.4557H323.718V56.4557ZM331.622 56.4557H319.622V65.4997H331.622H343.622V56.4557H331.622ZM331.622 65.4997V77.4997H341.806V65.4997V53.4997H331.622V65.4997ZM341.426 76.5957V88.5957C343.608 88.5957 347.371 88.2878 350.88 85.8731C355.198 82.9016 356.96 78.3096 356.96 74.1637H344.96H332.96C332.96 73.1149 333.155 71.6173 333.94 69.9965C334.752 68.3189 335.959 67.0072 337.274 66.1023C338.511 65.2511 339.635 64.8976 340.289 64.7474C340.944 64.5973 341.365 64.5957 341.426 64.5957V76.5957ZM344.96 74.1637H356.96C356.96 70.0177 355.198 65.4257 350.88 62.4543C347.371 60.0396 343.608 59.7317 341.426 59.7317V71.7317V83.7317C341.365 83.7317 340.944 83.7301 340.289 83.5799C339.635 83.4297 338.511 83.0762 337.274 82.2251C335.959 81.3202 334.752 80.0084 333.94 78.3308C333.155 76.71 332.96 75.2125 332.96 74.1637H344.96ZM341.426 71.7317V59.7317H331.622V71.7317V83.7317H341.426V71.7317ZM331.622 71.7317H319.622V76.5957H331.622H343.622V71.7317H331.622ZM331.622 76.5957V88.5957H341.426V76.5957V64.5957H331.622V76.5957Z" fill="#282828" mask="url(#path-1-outside-1_959_86)"></path></svg>