<svg xmlns="http://www.w3.org/2000/svg" width="510" height="83" viewBox="0 0 510 83" fill="none"><mask id="path-1-outside-1_612_1629" maskUnits="userSpaceOnUse" x="-0.438477" y="-0.431999" width="510" height="83" fill="black"><rect fill="white" x="-0.438477" y="-0.431999" width="510" height="83"></rect><path d="M71.76 63.568H54.928L37.904 46.224H31.312V63.568H18V18.768H31.312V36.048H37.648L53.84 18.768H69.776L48.208 40.272L71.76 63.568ZM77.937 58.192C72.689 54.096 70.065 48.4213 70.065 41.168C70.065 33.9147 72.689 28.24 77.937 24.144C83.185 20.048 90.481 18 99.825 18C109.169 18 116.465 20.048 121.713 24.144C126.961 28.24 129.585 33.9147 129.585 41.168C129.585 48.4213 126.961 54.096 121.713 58.192C116.465 62.288 109.169 64.336 99.825 64.336C90.481 64.336 83.185 62.288 77.937 58.192ZM87.665 32.208C84.8064 34.4267 83.377 37.4133 83.377 41.168C83.377 44.9227 84.8064 47.9307 87.665 50.192C90.5664 52.4107 94.6197 53.52 99.825 53.52C105.03 53.52 109.062 52.4107 111.921 50.192C114.822 47.9307 116.273 44.9227 116.273 41.168C116.273 37.4133 114.822 34.4267 111.921 32.208C109.062 29.9467 105.03 28.816 99.825 28.816C94.6197 28.816 90.5664 29.9467 87.665 32.208ZM176.79 18.768H190.102V63.568H176.79V46.224H151.062V63.568H137.75V18.768H151.062V35.344H176.79V18.768ZM197.035 29.648V18.768H248.107V29.648H229.227V63.568H215.915V29.648H197.035ZM289.786 63.568L286.138 54.928H260.282L256.634 63.568H243.514L263.162 18.768H283.642L303.354 63.568H289.786ZM264.57 44.944H281.914L273.21 24.464L264.57 44.944ZM363.135 63.568H346.303L329.279 46.224H322.687V63.568H309.375V18.768H322.687V36.048H329.023L345.215 18.768H361.151L339.583 40.272L363.135 63.568ZM365.41 29.648V18.768H416.482V29.648H397.602V63.568H384.29V29.648H365.41ZM452.623 34C458.212 34 462.714 35.1947 466.127 37.584C469.54 39.9733 471.247 43.728 471.247 48.848C471.247 53.9253 469.54 57.6587 466.127 60.048C462.756 62.3947 458.255 63.568 452.623 63.568H428.943H423.375V18.768H436.687V34H452.623ZM477.839 18.768H491.151V63.568H477.839V18.768ZM451.983 52.688C455.951 52.688 457.935 51.3227 457.935 48.592C457.935 45.8613 455.951 44.496 451.983 44.496H436.687V52.688H451.983Z"></path></mask><path d="M71.76 63.568H54.928L37.904 46.224H31.312V63.568H18V18.768H31.312V36.048H37.648L53.84 18.768H69.776L48.208 40.272L71.76 63.568ZM77.937 58.192C72.689 54.096 70.065 48.4213 70.065 41.168C70.065 33.9147 72.689 28.24 77.937 24.144C83.185 20.048 90.481 18 99.825 18C109.169 18 116.465 20.048 121.713 24.144C126.961 28.24 129.585 33.9147 129.585 41.168C129.585 48.4213 126.961 54.096 121.713 58.192C116.465 62.288 109.169 64.336 99.825 64.336C90.481 64.336 83.185 62.288 77.937 58.192ZM87.665 32.208C84.8064 34.4267 83.377 37.4133 83.377 41.168C83.377 44.9227 84.8064 47.9307 87.665 50.192C90.5664 52.4107 94.6197 53.52 99.825 53.52C105.03 53.52 109.062 52.4107 111.921 50.192C114.822 47.9307 116.273 44.9227 116.273 41.168C116.273 37.4133 114.822 34.4267 111.921 32.208C109.062 29.9467 105.03 28.816 99.825 28.816C94.6197 28.816 90.5664 29.9467 87.665 32.208ZM176.79 18.768H190.102V63.568H176.79V46.224H151.062V63.568H137.75V18.768H151.062V35.344H176.79V18.768ZM197.035 29.648V18.768H248.107V29.648H229.227V63.568H215.915V29.648H197.035ZM289.786 63.568L286.138 54.928H260.282L256.634 63.568H243.514L263.162 18.768H283.642L303.354 63.568H289.786ZM264.57 44.944H281.914L273.21 24.464L264.57 44.944ZM363.135 63.568H346.303L329.279 46.224H322.687V63.568H309.375V18.768H322.687V36.048H329.023L345.215 18.768H361.151L339.583 40.272L363.135 63.568ZM365.41 29.648V18.768H416.482V29.648H397.602V63.568H384.29V29.648H365.41ZM452.623 34C458.212 34 462.714 35.1947 466.127 37.584C469.54 39.9733 471.247 43.728 471.247 48.848C471.247 53.9253 469.54 57.6587 466.127 60.048C462.756 62.3947 458.255 63.568 452.623 63.568H428.943H423.375V18.768H436.687V34H452.623ZM477.839 18.768H491.151V63.568H477.839V18.768ZM451.983 52.688C455.951 52.688 457.935 51.3227 457.935 48.592C457.935 45.8613 455.951 44.496 451.983 44.496H436.687V52.688H451.983Z" fill="white"></path><path d="M71.76 63.568V81.568C79.0583 81.568 85.6341 77.1611 88.4086 70.4108C91.1831 63.6606 89.607 55.9031 84.4182 50.7707L71.76 63.568ZM54.928 63.568L42.0822 76.1769C45.4669 79.6253 50.096 81.568 54.928 81.568V63.568ZM37.904 46.224L50.7499 33.6151C47.3651 30.1667 42.736 28.224 37.904 28.224V46.224ZM31.312 46.224V28.224C21.3709 28.224 13.312 36.2829 13.312 46.224H31.312ZM31.312 63.568V81.568C41.2531 81.568 49.312 73.5091 49.312 63.568H31.312ZM18 63.568H3.05176e-05C3.05176e-05 73.5091 8.0589 81.568 18 81.568V63.568ZM18 18.768V0.767998C8.0589 0.767998 3.05176e-05 8.82687 3.05176e-05 18.768H18ZM31.312 18.768H49.312C49.312 8.82687 41.2531 0.767998 31.312 0.767998V18.768ZM31.312 36.048H13.312C13.312 45.9891 21.3709 54.048 31.312 54.048V36.048ZM37.648 36.048V54.048C42.6249 54.048 47.3797 51.9874 50.7827 48.3557L37.648 36.048ZM53.84 18.768V0.767998C48.8631 0.767998 44.1083 2.82862 40.7053 6.46029L53.84 18.768ZM69.776 18.768L82.485 31.5148C87.6441 26.3711 89.1939 18.6248 86.411 11.8921C83.6281 5.15935 77.0612 0.767998 69.776 0.767998V18.768ZM48.208 40.272L35.499 27.5252C32.103 30.9111 30.1985 35.5122 30.2081 40.3078C30.2176 45.1034 32.1404 49.6969 35.5498 53.0693L48.208 40.272ZM71.76 63.568V45.568H54.928V63.568V81.568H71.76V63.568ZM54.928 63.568L67.7739 50.9591L50.7499 33.6151L37.904 46.224L25.0581 58.8329L42.0822 76.1769L54.928 63.568ZM37.904 46.224V28.224H31.312V46.224V64.224H37.904V46.224ZM31.312 46.224H13.312V63.568H31.312H49.312V46.224H31.312ZM31.312 63.568V45.568H18V63.568V81.568H31.312V63.568ZM18 63.568H36V18.768H18H3.05176e-05V63.568H18ZM18 18.768V36.768H31.312V18.768V0.767998H18V18.768ZM31.312 18.768H13.312V36.048H31.312H49.312V18.768H31.312ZM31.312 36.048V54.048H37.648V36.048V18.048H31.312V36.048ZM37.648 36.048L50.7827 48.3557L66.9747 31.0757L53.84 18.768L40.7053 6.46029L24.5133 23.7403L37.648 36.048ZM53.84 18.768V36.768H69.776V18.768V0.767998H53.84V18.768ZM69.776 18.768L57.067 6.02118L35.499 27.5252L48.208 40.272L60.917 53.0188L82.485 31.5148L69.776 18.768ZM48.208 40.272L35.5498 53.0693L59.1018 76.3653L71.76 63.568L84.4182 50.7707L60.8662 27.4747L48.208 40.272ZM77.937 58.192L89.0119 44.0023L77.937 58.192ZM77.937 24.144L66.8622 9.95431V9.95431L77.937 24.144ZM121.713 24.144L132.788 9.95431V9.95431L121.713 24.144ZM121.713 58.192L110.638 44.0023V44.0023L121.713 58.192ZM87.665 32.208L98.7013 46.4278C98.711 46.4202 98.7207 46.4127 98.7304 46.4051L87.665 32.208ZM87.665 50.192L76.4978 64.3091C76.575 64.3702 76.6527 64.4306 76.7309 64.4904L87.665 50.192ZM111.921 50.192L122.957 64.4118C122.967 64.4042 122.977 64.3967 122.986 64.3891L111.921 50.192ZM111.921 32.208L100.754 46.3251C100.831 46.3862 100.909 46.4466 100.987 46.5064L111.921 32.208ZM77.937 58.192L89.0119 44.0023C88.4947 43.5987 88.4037 43.3802 88.3709 43.3093C88.3159 43.1903 88.065 42.6014 88.065 41.168H70.065H52.065C52.065 53.3949 56.813 64.5384 66.8622 72.3817L77.937 58.192ZM70.065 41.168H88.065C88.065 39.7346 88.3159 39.1457 88.3709 39.0267C88.4037 38.9558 88.4947 38.7373 89.0119 38.3337L77.937 24.144L66.8622 9.95431C56.813 17.7976 52.065 28.9411 52.065 41.168H70.065ZM77.937 24.144L89.0119 38.3337C90.0391 37.5319 92.9076 36 99.825 36V18V0C88.0544 0 76.3309 2.56405 66.8622 9.95431L77.937 24.144ZM99.825 18V36C106.742 36 109.611 37.5319 110.638 38.3337L121.713 24.144L132.788 9.95431C123.319 2.56405 111.596 0 99.825 0V18ZM121.713 24.144L110.638 38.3337C111.155 38.7373 111.246 38.9558 111.279 39.0267C111.334 39.1457 111.585 39.7346 111.585 41.168H129.585H147.585C147.585 28.9411 142.837 17.7976 132.788 9.95431L121.713 24.144ZM129.585 41.168H111.585C111.585 42.6014 111.334 43.1903 111.279 43.3093C111.246 43.3802 111.155 43.5987 110.638 44.0023L121.713 58.192L132.788 72.3817C142.837 64.5384 147.585 53.3949 147.585 41.168H129.585ZM121.713 58.192L110.638 44.0023C109.611 44.8041 106.742 46.336 99.825 46.336V64.336V82.336C111.596 82.336 123.319 79.7719 132.788 72.3817L121.713 58.192ZM99.825 64.336V46.336C92.9076 46.336 90.0391 44.8041 89.0119 44.0023L77.937 58.192L66.8622 72.3817C76.3309 79.7719 88.0544 82.336 99.825 82.336V64.336ZM87.665 32.208L76.6288 17.9882C69.1879 23.7633 65.377 32.0958 65.377 41.168H83.377H101.377C101.377 41.6183 101.278 42.6434 100.685 43.8823C100.083 45.1422 99.2742 45.9831 98.7013 46.4278L87.665 32.208ZM83.377 41.168H65.377C65.377 50.2326 69.1744 58.516 76.4978 64.3091L87.665 50.192L98.8323 36.0749C99.3596 36.4921 100.128 37.2973 100.707 38.5146C101.278 39.7156 101.377 40.715 101.377 41.168H83.377ZM87.665 50.192L76.7309 64.4904C83.8598 69.9419 92.3001 71.52 99.825 71.52V53.52V35.52C98.4622 35.52 97.7943 35.3707 97.6326 35.3265C97.5113 35.2933 97.9495 35.3968 98.5991 35.8936L87.665 50.192ZM99.825 53.52V71.52C107.327 71.52 115.82 69.951 122.957 64.4118L111.921 50.192L100.885 35.9722C101.584 35.4296 102.072 35.3071 101.978 35.3329C101.843 35.3701 101.19 35.52 99.825 35.52V53.52ZM111.921 50.192L122.986 64.3891C130.369 58.6353 134.273 50.3365 134.273 41.168H116.273H98.273C98.273 40.6766 98.3824 39.6436 98.972 38.4209C99.5672 37.1867 100.348 36.3909 100.856 35.9949L111.921 50.192ZM116.273 41.168H134.273C134.273 31.9907 130.354 23.644 122.855 17.9096L111.921 32.208L100.987 46.5064C100.434 46.0837 99.614 45.253 98.9939 43.9763C98.3816 42.7157 98.273 41.6568 98.273 41.168H116.273ZM111.921 32.208L123.088 18.0909C115.939 12.4352 107.392 10.816 99.825 10.816V28.816V46.816C101.165 46.816 101.788 46.9659 101.893 46.9954C101.953 47.0124 101.451 46.8765 100.754 46.3251L111.921 32.208ZM99.825 28.816V10.816C92.2355 10.816 83.7419 12.4441 76.5996 18.0109L87.665 32.208L98.7304 46.4051C98.0821 46.9104 97.6291 47.0267 97.7174 47.0021C97.8492 46.9653 98.4873 46.816 99.825 46.816V28.816ZM176.79 18.768V0.767998C166.849 0.767998 158.79 8.82687 158.79 18.768H176.79ZM190.102 18.768H208.102C208.102 8.82687 200.043 0.767998 190.102 0.767998V18.768ZM190.102 63.568V81.568C200.043 81.568 208.102 73.5091 208.102 63.568H190.102ZM176.79 63.568H158.79C158.79 73.5091 166.849 81.568 176.79 81.568V63.568ZM176.79 46.224H194.79C194.79 36.2829 186.731 28.224 176.79 28.224V46.224ZM151.062 46.224V28.224C141.121 28.224 133.062 36.2829 133.062 46.224H151.062ZM151.062 63.568V81.568C161.003 81.568 169.062 73.5091 169.062 63.568H151.062ZM137.75 63.568H119.75C119.75 73.5091 127.809 81.568 137.75 81.568V63.568ZM137.75 18.768V0.767998C127.809 0.767998 119.75 8.82687 119.75 18.768H137.75ZM151.062 18.768H169.062C169.062 8.82687 161.003 0.767998 151.062 0.767998V18.768ZM151.062 35.344H133.062C133.062 45.2851 141.121 53.344 151.062 53.344V35.344ZM176.79 35.344V53.344C186.731 53.344 194.79 45.2851 194.79 35.344H176.79ZM176.79 18.768V36.768H190.102V18.768V0.767998H176.79V18.768ZM190.102 18.768H172.102V63.568H190.102H208.102V18.768H190.102ZM190.102 63.568V45.568H176.79V63.568V81.568H190.102V63.568ZM176.79 63.568H194.79V46.224H176.79H158.79V63.568H176.79ZM176.79 46.224V28.224H151.062V46.224V64.224H176.79V46.224ZM151.062 46.224H133.062V63.568H151.062H169.062V46.224H151.062ZM151.062 63.568V45.568H137.75V63.568V81.568H151.062V63.568ZM137.75 63.568H155.75V18.768H137.75H119.75V63.568H137.75ZM137.75 18.768V36.768H151.062V18.768V0.767998H137.75V18.768ZM151.062 18.768H133.062V35.344H151.062H169.062V18.768H151.062ZM151.062 35.344V53.344H176.79V35.344V17.344H151.062V35.344ZM176.79 35.344H194.79V18.768H176.79H158.79V35.344H176.79ZM197.035 29.648H179.035C179.035 39.5891 187.094 47.648 197.035 47.648V29.648ZM197.035 18.768V0.767998C187.094 0.767998 179.035 8.82687 179.035 18.768H197.035ZM248.107 18.768H266.107C266.107 8.82687 258.048 0.767998 248.107 0.767998V18.768ZM248.107 29.648V47.648C258.048 47.648 266.107 39.5891 266.107 29.648H248.107ZM229.227 29.648V11.648C219.286 11.648 211.227 19.7069 211.227 29.648H229.227ZM229.227 63.568V81.568C239.168 81.568 247.227 73.5091 247.227 63.568H229.227ZM215.915 63.568H197.915C197.915 73.5091 205.974 81.568 215.915 81.568V63.568ZM215.915 29.648H233.915C233.915 19.7069 225.856 11.648 215.915 11.648V29.648ZM197.035 29.648H215.035V18.768H197.035H179.035V29.648H197.035ZM197.035 18.768V36.768H248.107V18.768V0.767998H197.035V18.768ZM248.107 18.768H230.107V29.648H248.107H266.107V18.768H248.107ZM248.107 29.648V11.648H229.227V29.648V47.648H248.107V29.648ZM229.227 29.648H211.227V63.568H229.227H247.227V29.648H229.227ZM229.227 63.568V45.568H215.915V63.568V81.568H229.227V63.568ZM215.915 63.568H233.915V29.648H215.915H197.915V63.568H215.915ZM215.915 29.648V11.648H197.035V29.648V47.648H215.915V29.648ZM289.786 63.568L273.204 70.5695C276.018 77.2354 282.55 81.568 289.786 81.568V63.568ZM286.138 54.928L302.721 47.9265C299.906 41.2606 293.374 36.928 286.138 36.928V54.928ZM260.282 54.928V36.928C253.046 36.928 246.514 41.2606 243.7 47.9265L260.282 54.928ZM256.634 63.568V81.568C263.87 81.568 270.402 77.2354 273.216 70.5695L256.634 63.568ZM243.514 63.568L227.03 56.3384C224.589 61.9041 225.121 68.3258 228.445 73.4135C231.77 78.5012 237.437 81.568 243.514 81.568V63.568ZM263.162 18.768V0.767998C256.017 0.767998 249.548 4.99462 246.678 11.5384L263.162 18.768ZM283.642 18.768L300.118 11.5187C297.243 4.98549 290.78 0.767998 283.642 0.767998V18.768ZM303.354 63.568V81.568C309.435 81.568 315.105 78.4974 318.429 73.4045C321.752 68.3116 322.279 61.885 319.83 56.3187L303.354 63.568ZM264.57 44.944L247.985 37.9474C245.641 43.5055 246.236 49.8687 249.571 54.8954C252.906 59.9221 258.538 62.944 264.57 62.944V44.944ZM281.914 44.944V62.944C287.955 62.944 293.593 59.9137 296.926 54.8755C300.259 49.8373 300.843 43.4631 298.48 37.9035L281.914 44.944ZM273.21 24.464L289.776 17.4235C286.948 10.7705 280.415 6.45444 273.186 6.46402C265.957 6.47359 259.435 10.8069 256.625 17.4674L273.21 24.464ZM289.786 63.568L306.369 56.5665L302.721 47.9265L286.138 54.928L269.556 61.9295L273.204 70.5695L289.786 63.568ZM286.138 54.928V36.928H260.282V54.928V72.928H286.138V54.928ZM260.282 54.928L243.7 47.9265L240.052 56.5665L256.634 63.568L273.216 70.5695L276.865 61.9295L260.282 54.928ZM256.634 63.568V45.568H243.514V63.568V81.568H256.634V63.568ZM243.514 63.568L259.998 70.7976L279.646 25.9976L263.162 18.768L246.678 11.5384L227.03 56.3384L243.514 63.568ZM263.162 18.768V36.768H283.642V18.768V0.767998H263.162V18.768ZM283.642 18.768L267.166 26.0173L286.878 70.8173L303.354 63.568L319.83 56.3187L300.118 11.5187L283.642 18.768ZM303.354 63.568V45.568H289.786V63.568V81.568H303.354V63.568ZM264.57 44.944V62.944H281.914V44.944V26.944H264.57V44.944ZM281.914 44.944L298.48 37.9035L289.776 17.4235L273.21 24.464L256.644 31.5045L265.348 51.9845L281.914 44.944ZM273.21 24.464L256.625 17.4674L247.985 37.9474L264.57 44.944L281.155 51.9406L289.795 31.4606L273.21 24.464ZM363.135 63.568V81.568C370.433 81.568 377.009 77.1611 379.784 70.4108C382.558 63.6606 380.982 55.9031 375.793 50.7707L363.135 63.568ZM346.303 63.568L333.457 76.1769C336.842 79.6253 341.471 81.568 346.303 81.568V63.568ZM329.279 46.224L342.125 33.6151C338.74 30.1667 334.111 28.224 329.279 28.224V46.224ZM322.687 46.224V28.224C312.746 28.224 304.687 36.2829 304.687 46.224H322.687ZM322.687 63.568V81.568C332.628 81.568 340.687 73.5091 340.687 63.568H322.687ZM309.375 63.568H291.375C291.375 73.5091 299.434 81.568 309.375 81.568V63.568ZM309.375 18.768V0.767998C299.434 0.767998 291.375 8.82687 291.375 18.768H309.375ZM322.687 18.768H340.687C340.687 8.82687 332.628 0.767998 322.687 0.767998V18.768ZM322.687 36.048H304.687C304.687 45.9891 312.746 54.048 322.687 54.048V36.048ZM329.023 36.048V54.048C334 54.048 338.755 51.9874 342.158 48.3557L329.023 36.048ZM345.215 18.768V0.767998C340.238 0.767998 335.483 2.82862 332.08 6.46029L345.215 18.768ZM361.151 18.768L373.86 31.5148C379.019 26.3711 380.569 18.6248 377.786 11.8921C375.003 5.15935 368.436 0.767998 361.151 0.767998V18.768ZM339.583 40.272L326.874 27.5252C323.478 30.9111 321.574 35.5122 321.583 40.3078C321.593 45.1034 323.515 49.6969 326.925 53.0693L339.583 40.272ZM363.135 63.568V45.568H346.303V63.568V81.568H363.135V63.568ZM346.303 63.568L359.149 50.9591L342.125 33.6151L329.279 46.224L316.433 58.8329L333.457 76.1769L346.303 63.568ZM329.279 46.224V28.224H322.687V46.224V64.224H329.279V46.224ZM322.687 46.224H304.687V63.568H322.687H340.687V46.224H322.687ZM322.687 63.568V45.568H309.375V63.568V81.568H322.687V63.568ZM309.375 63.568H327.375V18.768H309.375H291.375V63.568H309.375ZM309.375 18.768V36.768H322.687V18.768V0.767998H309.375V18.768ZM322.687 18.768H304.687V36.048H322.687H340.687V18.768H322.687ZM322.687 36.048V54.048H329.023V36.048V18.048H322.687V36.048ZM329.023 36.048L342.158 48.3557L358.35 31.0757L345.215 18.768L332.08 6.46029L315.888 23.7403L329.023 36.048ZM345.215 18.768V36.768H361.151V18.768V0.767998H345.215V18.768ZM361.151 18.768L348.442 6.02118L326.874 27.5252L339.583 40.272L352.292 53.0188L373.86 31.5148L361.151 18.768ZM339.583 40.272L326.925 53.0693L350.477 76.3653L363.135 63.568L375.793 50.7707L352.241 27.4747L339.583 40.272ZM365.41 29.648H347.41C347.41 39.5891 355.469 47.648 365.41 47.648V29.648ZM365.41 18.768V0.767998C355.469 0.767998 347.41 8.82687 347.41 18.768H365.41ZM416.482 18.768H434.482C434.482 8.82687 426.423 0.767998 416.482 0.767998V18.768ZM416.482 29.648V47.648C426.423 47.648 434.482 39.5891 434.482 29.648H416.482ZM397.602 29.648V11.648C387.661 11.648 379.602 19.7069 379.602 29.648H397.602ZM397.602 63.568V81.568C407.543 81.568 415.602 73.5091 415.602 63.568H397.602ZM384.29 63.568H366.29C366.29 73.5091 374.349 81.568 384.29 81.568V63.568ZM384.29 29.648H402.29C402.29 19.7069 394.231 11.648 384.29 11.648V29.648ZM365.41 29.648H383.41V18.768H365.41H347.41V29.648H365.41ZM365.41 18.768V36.768H416.482V18.768V0.767998H365.41V18.768ZM416.482 18.768H398.482V29.648H416.482H434.482V18.768H416.482ZM416.482 29.648V11.648H397.602V29.648V47.648H416.482V29.648ZM397.602 29.648H379.602V63.568H397.602H415.602V29.648H397.602ZM397.602 63.568V45.568H384.29V63.568V81.568H397.602V63.568ZM384.29 63.568H402.29V29.648H384.29H366.29V63.568H384.29ZM384.29 29.648V11.648H365.41V29.648V47.648H384.29V29.648ZM466.127 60.048L476.412 74.8205C476.424 74.8117 476.437 74.803 476.449 74.7942L466.127 60.048ZM423.375 63.568H405.375C405.375 73.5091 413.434 81.568 423.375 81.568V63.568ZM423.375 18.768V0.767998C413.434 0.767998 405.375 8.82687 405.375 18.768H423.375ZM436.687 18.768H454.687C454.687 8.82687 446.628 0.767998 436.687 0.767998V18.768ZM436.687 34H418.687C418.687 43.9411 426.746 52 436.687 52V34ZM477.839 18.768V0.767998C467.898 0.767998 459.839 8.82687 459.839 18.768H477.839ZM491.151 18.768H509.151C509.151 8.82687 501.092 0.767998 491.151 0.767998V18.768ZM491.151 63.568V81.568C501.092 81.568 509.151 73.5091 509.151 63.568H491.151ZM477.839 63.568H459.839C459.839 73.5091 467.898 81.568 477.839 81.568V63.568ZM436.687 44.496V26.496C426.746 26.496 418.687 34.5549 418.687 44.496H436.687ZM436.687 52.688H418.687C418.687 62.6291 426.746 70.688 436.687 70.688V52.688ZM452.623 34V52C455.759 52 456.295 52.6731 455.805 52.3302L466.127 37.584L476.449 22.8378C469.133 17.7162 460.666 16 452.623 16V34ZM466.127 37.584L455.805 52.3302C455.407 52.0517 454.962 51.6626 454.539 51.1553C454.116 50.6472 453.799 50.1222 453.58 49.6404C453.146 48.6853 453.247 48.2539 453.247 48.848H471.247H489.247C489.247 39.3729 485.797 29.3813 476.449 22.8378L466.127 37.584ZM471.247 48.848H453.247C453.247 49.4003 453.153 48.9421 453.596 47.9723C454.097 46.877 454.926 45.917 455.805 45.3018L466.127 60.048L476.449 74.7942C485.754 68.2807 489.247 58.3444 489.247 48.848H471.247ZM466.127 60.048L455.842 45.2755C456.424 44.8709 455.909 45.568 452.623 45.568V63.568V81.568C460.601 81.568 469.089 79.9185 476.412 74.8205L466.127 60.048ZM452.623 63.568V45.568H428.943V63.568V81.568H452.623V63.568ZM428.943 63.568V45.568H423.375V63.568V81.568H428.943V63.568ZM423.375 63.568H441.375V18.768H423.375H405.375V63.568H423.375ZM423.375 18.768V36.768H436.687V18.768V0.767998H423.375V18.768ZM436.687 18.768H418.687V34H436.687H454.687V18.768H436.687ZM436.687 34V52H452.623V34V16H436.687V34ZM477.839 18.768V36.768H491.151V18.768V0.767998H477.839V18.768ZM491.151 18.768H473.151V63.568H491.151H509.151V18.768H491.151ZM491.151 63.568V45.568H477.839V63.568V81.568H491.151V63.568ZM477.839 63.568H495.839V18.768H477.839H459.839V63.568H477.839ZM451.983 52.688V70.688C455.473 70.688 461.279 70.1888 466.651 66.4921C473.237 61.9602 475.935 54.9603 475.935 48.592H457.935H439.935C439.935 47.0935 440.213 44.9125 441.363 42.5373C442.555 40.0769 444.325 38.1559 446.243 36.8359C448.044 35.5965 449.662 35.0942 450.562 34.8877C451.033 34.7798 451.394 34.7322 451.617 34.7104C451.841 34.6883 451.969 34.688 451.983 34.688V52.688ZM457.935 48.592H475.935C475.935 42.2237 473.237 35.2238 466.651 30.6919C461.279 26.9952 455.473 26.496 451.983 26.496V44.496V62.496C451.969 62.496 451.841 62.4957 451.617 62.4736C451.394 62.4518 451.033 62.4042 450.562 62.2963C449.662 62.0898 448.044 61.5875 446.243 60.3481C444.325 59.0281 442.555 57.1071 441.363 54.6467C440.213 52.2715 439.935 50.0905 439.935 48.592H457.935ZM451.983 44.496V26.496H436.687V44.496V62.496H451.983V44.496ZM436.687 44.496H418.687V52.688H436.687H454.687V44.496H436.687ZM436.687 52.688V70.688H451.983V52.688V34.688H436.687V52.688Z" fill="#282828" mask="url(#path-1-outside-1_612_1629)"></path></svg>