<svg xmlns="http://www.w3.org/2000/svg" width="617" height="52" viewBox="0 0 617 52" fill="none"><mask id="path-1-outside-1_272_460" maskUnits="userSpaceOnUse" x="-0.0541992" y="-0.943848" width="617" height="53" fill="black"><rect fill="white" x="-0.0541992" y="-0.943848" width="617" height="53"></rect><path d="M42.8561 12.4562V39.0562H34.9521V18.9162H19.9041V39.0562H12.0001V12.4562H42.8561ZM52.4119 35.8642C49.2959 33.4322 47.7379 30.0628 47.7379 25.7562C47.7379 21.4495 49.2959 18.0802 52.4119 15.6482C55.5279 13.2162 59.8599 12.0002 65.4079 12.0002C70.9559 12.0002 75.2879 13.2162 78.4039 15.6482C81.5199 18.0802 83.0779 21.4495 83.0779 25.7562C83.0779 30.0628 81.5199 33.4322 78.4039 35.8642C75.2879 38.2962 70.9559 39.5122 65.4079 39.5122C59.8599 39.5122 55.5279 38.2962 52.4119 35.8642ZM58.1879 20.4362C56.4906 21.7535 55.6419 23.5268 55.6419 25.7562C55.6419 27.9855 56.4906 29.7715 58.1879 31.1142C59.9106 32.4315 62.3173 33.0902 65.4079 33.0902C68.4986 33.0902 70.8926 32.4315 72.5899 31.1142C74.3126 29.7715 75.1739 27.9855 75.1739 25.7562C75.1739 23.5268 74.3126 21.7535 72.5899 20.4362C70.8926 19.0935 68.4986 18.4222 65.4079 18.4222C62.3173 18.4222 59.9106 19.0935 58.1879 20.4362ZM108.565 12.4562H116.469V39.0562H108.565V29.4422C105.019 29.9742 101.877 30.2402 99.1412 30.2402C95.1132 30.2402 92.0479 29.4928 89.9452 27.9982C87.8426 26.4782 86.7912 24.3122 86.7912 21.5002V12.4562H94.6952V20.0562C94.6952 21.5002 95.2272 22.4882 96.2912 23.0202C97.3552 23.5268 99.0779 23.7802 101.459 23.7802C103.891 23.7802 106.26 23.5395 108.565 23.0582V12.4562ZM122.846 39.0562V12.4562H149.94V18.6122H130.75V22.6402H145.722V28.4162H130.75V32.9002H150.662V39.0562H122.846ZM183.353 12.4562H197.185L197.147 39.0562H189.585V16.7502L181.719 39.0562H171.041L163.175 16.7502V39.0562H155.613V12.4562H169.445L176.475 34.4202L183.353 12.4562ZM226.435 12.4562H234.985L225.713 30.2402C224.547 32.4695 223.445 34.2048 222.407 35.4462C221.393 36.6622 220.152 37.6122 218.683 38.2962C217.213 38.9548 215.44 39.2842 213.363 39.2842C211.868 39.2842 210.145 39.1702 208.195 38.9422V32.7862C209.993 32.9382 211.425 33.0142 212.489 33.0142C214.794 33.0142 216.289 32.3682 216.973 31.0762H213.515L200.899 12.4562H209.715L219.405 27.9602L226.435 12.4562ZM264.462 22.4502C270.947 23.1088 274.19 25.7562 274.19 30.3922C274.19 32.0388 273.81 33.4702 273.05 34.6862C272.29 35.8768 271.226 36.8268 269.858 37.5362C268.49 38.2202 266.982 38.7268 265.336 39.0562C263.689 39.3602 261.865 39.5122 259.864 39.5122C255.988 39.5122 252.796 38.7902 250.288 37.3462C247.805 35.9022 246.361 33.7742 245.956 30.9622L253.404 30.5822C254.062 32.3555 256.216 33.2422 259.864 33.2422C261.916 33.2422 263.537 33.0015 264.728 32.5202C265.944 32.0388 266.552 31.3295 266.552 30.3922C266.552 29.5308 265.994 28.8342 264.88 28.3022C263.79 27.7702 262.156 27.5042 259.978 27.5042C258.407 27.5042 256.558 27.6815 254.43 28.0362V23.0202L262.296 18.7262H247.856V12.4562H273.126V18.0422L264.462 22.4502ZM293.753 12.4562C298.972 12.4562 303.089 13.6088 306.103 15.9142C309.118 18.2195 310.625 21.5002 310.625 25.7562C310.625 30.0122 309.118 33.2928 306.103 35.5982C303.089 37.9035 298.972 39.0562 293.753 39.0562H278.705V12.4562H293.753ZM292.917 32.5962C296.135 32.5962 298.567 32.0135 300.213 30.8482C301.885 29.6575 302.721 27.9602 302.721 25.7562C302.721 23.5522 301.885 21.8675 300.213 20.7022C298.567 19.5115 296.135 18.9162 292.917 18.9162H286.609V32.5962H292.917ZM350.628 29.2522L358.304 29.6322C357.772 32.8748 356.164 35.3322 353.478 37.0042C350.818 38.6762 347.17 39.5122 342.534 39.5122C337.012 39.5122 332.73 38.3088 329.69 35.9022C326.65 33.4702 325.13 30.0882 325.13 25.7562C325.13 21.4242 326.612 18.0548 329.576 15.6482C332.54 13.2162 336.695 12.0002 342.04 12.0002C346.423 12.0002 349.982 12.8488 352.718 14.5462C355.454 16.2182 357.126 18.4982 357.734 21.3862L350.134 21.8802C349.704 20.8415 348.754 20.0055 347.284 19.3722C345.815 18.7388 344.067 18.4222 342.04 18.4222C339.152 18.4222 336.923 19.0935 335.352 20.4362C333.807 21.7535 333.034 23.5268 333.034 25.7562C333.034 28.0108 333.845 29.7968 335.466 31.1142C337.113 32.4315 339.469 33.0902 342.534 33.0902C344.738 33.0902 346.524 32.7355 347.892 32.0262C349.286 31.3168 350.198 30.3922 350.628 29.2522ZM359.995 18.9162V12.4562H390.319V18.9162H379.109V39.0562H371.205V18.9162H359.995ZM414.362 12.4562H426.522V39.0562H418.808V18.0422L406.572 39.0562H394.412V12.4562H402.126V33.4702L414.362 12.4562ZM464.815 39.0562H454.821L444.713 28.7582H440.799V39.0562H432.895V12.4562H440.799V22.7162H444.561L454.175 12.4562H463.637L450.831 25.2242L464.815 39.0562ZM468.445 39.0562V12.4562H495.539V18.6122H476.349V22.6402H491.321V28.4162H476.349V32.9002H496.261V39.0562H468.445ZM519.643 12.4562C522.835 12.4562 525.47 13.2035 527.547 14.6982C529.65 16.1675 530.701 18.4095 530.701 21.4242C530.701 24.4388 529.7 26.6302 527.699 27.9982C525.698 29.3408 523.012 30.0122 519.643 30.0122H509.117V39.0562H501.213V12.4562H509.117H519.643ZM519.263 23.9322C521.619 23.9322 522.797 23.0962 522.797 21.4242C522.797 19.7522 521.619 18.9162 519.263 18.9162H509.117V23.9322H519.263ZM552.645 21.5002C555.964 21.5002 558.637 22.2095 560.663 23.6282C562.69 25.0468 563.703 27.2762 563.703 30.3162C563.703 33.3308 562.69 35.5475 560.663 36.9662C558.662 38.3595 555.989 39.0562 552.645 39.0562H538.585H535.279V12.4562H543.183V21.5002H552.645ZM567.617 12.4562H575.521V39.0562H567.617V12.4562ZM552.265 32.5962C554.621 32.5962 555.799 31.7855 555.799 30.1642C555.799 28.5428 554.621 27.7322 552.265 27.7322H543.183V32.5962H552.265ZM579.305 21.3482C579.659 18.2068 581.04 15.8635 583.447 14.3182C585.853 12.7728 588.931 12.0002 592.681 12.0002C596.177 12.0002 599.077 12.6335 601.383 13.9002C603.713 15.1668 604.879 17.0415 604.879 19.5242C604.879 21.0188 604.397 22.2855 603.435 23.3242C602.472 24.3628 600.977 25.3255 598.951 26.2122C597.456 26.8708 596.455 27.3775 595.949 27.7322C595.442 28.0868 595.189 28.4922 595.189 28.9482V29.1382H588.007V28.6442C588.007 27.2762 588.311 26.1742 588.919 25.3382C589.527 24.5022 590.692 23.7802 592.415 23.1722C593.276 22.8682 593.884 22.6528 594.239 22.5262C594.593 22.3742 595.075 22.1462 595.683 21.8422C596.316 21.5382 596.759 21.2468 597.013 20.9682C597.266 20.6895 597.393 20.3855 597.393 20.0562C597.393 19.4482 596.924 18.9542 595.987 18.5742C595.075 18.1942 593.973 18.0042 592.681 18.0042C590.983 18.0042 589.59 18.3335 588.501 18.9922C587.411 19.6508 586.727 20.5628 586.449 21.7282L579.305 21.3482ZM587.475 39.0562V31.7602H595.721V39.0562H587.475Z"></path></mask><path d="M42.8561 12.4562V39.0562H34.9521V18.9162H19.9041V39.0562H12.0001V12.4562H42.8561ZM52.4119 35.8642C49.2959 33.4322 47.7379 30.0628 47.7379 25.7562C47.7379 21.4495 49.2959 18.0802 52.4119 15.6482C55.5279 13.2162 59.8599 12.0002 65.4079 12.0002C70.9559 12.0002 75.2879 13.2162 78.4039 15.6482C81.5199 18.0802 83.0779 21.4495 83.0779 25.7562C83.0779 30.0628 81.5199 33.4322 78.4039 35.8642C75.2879 38.2962 70.9559 39.5122 65.4079 39.5122C59.8599 39.5122 55.5279 38.2962 52.4119 35.8642ZM58.1879 20.4362C56.4906 21.7535 55.6419 23.5268 55.6419 25.7562C55.6419 27.9855 56.4906 29.7715 58.1879 31.1142C59.9106 32.4315 62.3173 33.0902 65.4079 33.0902C68.4986 33.0902 70.8926 32.4315 72.5899 31.1142C74.3126 29.7715 75.1739 27.9855 75.1739 25.7562C75.1739 23.5268 74.3126 21.7535 72.5899 20.4362C70.8926 19.0935 68.4986 18.4222 65.4079 18.4222C62.3173 18.4222 59.9106 19.0935 58.1879 20.4362ZM108.565 12.4562H116.469V39.0562H108.565V29.4422C105.019 29.9742 101.877 30.2402 99.1412 30.2402C95.1132 30.2402 92.0479 29.4928 89.9452 27.9982C87.8426 26.4782 86.7912 24.3122 86.7912 21.5002V12.4562H94.6952V20.0562C94.6952 21.5002 95.2272 22.4882 96.2912 23.0202C97.3552 23.5268 99.0779 23.7802 101.459 23.7802C103.891 23.7802 106.26 23.5395 108.565 23.0582V12.4562ZM122.846 39.0562V12.4562H149.94V18.6122H130.75V22.6402H145.722V28.4162H130.75V32.9002H150.662V39.0562H122.846ZM183.353 12.4562H197.185L197.147 39.0562H189.585V16.7502L181.719 39.0562H171.041L163.175 16.7502V39.0562H155.613V12.4562H169.445L176.475 34.4202L183.353 12.4562ZM226.435 12.4562H234.985L225.713 30.2402C224.547 32.4695 223.445 34.2048 222.407 35.4462C221.393 36.6622 220.152 37.6122 218.683 38.2962C217.213 38.9548 215.44 39.2842 213.363 39.2842C211.868 39.2842 210.145 39.1702 208.195 38.9422V32.7862C209.993 32.9382 211.425 33.0142 212.489 33.0142C214.794 33.0142 216.289 32.3682 216.973 31.0762H213.515L200.899 12.4562H209.715L219.405 27.9602L226.435 12.4562ZM264.462 22.4502C270.947 23.1088 274.19 25.7562 274.19 30.3922C274.19 32.0388 273.81 33.4702 273.05 34.6862C272.29 35.8768 271.226 36.8268 269.858 37.5362C268.49 38.2202 266.982 38.7268 265.336 39.0562C263.689 39.3602 261.865 39.5122 259.864 39.5122C255.988 39.5122 252.796 38.7902 250.288 37.3462C247.805 35.9022 246.361 33.7742 245.956 30.9622L253.404 30.5822C254.062 32.3555 256.216 33.2422 259.864 33.2422C261.916 33.2422 263.537 33.0015 264.728 32.5202C265.944 32.0388 266.552 31.3295 266.552 30.3922C266.552 29.5308 265.994 28.8342 264.88 28.3022C263.79 27.7702 262.156 27.5042 259.978 27.5042C258.407 27.5042 256.558 27.6815 254.43 28.0362V23.0202L262.296 18.7262H247.856V12.4562H273.126V18.0422L264.462 22.4502ZM293.753 12.4562C298.972 12.4562 303.089 13.6088 306.103 15.9142C309.118 18.2195 310.625 21.5002 310.625 25.7562C310.625 30.0122 309.118 33.2928 306.103 35.5982C303.089 37.9035 298.972 39.0562 293.753 39.0562H278.705V12.4562H293.753ZM292.917 32.5962C296.135 32.5962 298.567 32.0135 300.213 30.8482C301.885 29.6575 302.721 27.9602 302.721 25.7562C302.721 23.5522 301.885 21.8675 300.213 20.7022C298.567 19.5115 296.135 18.9162 292.917 18.9162H286.609V32.5962H292.917ZM350.628 29.2522L358.304 29.6322C357.772 32.8748 356.164 35.3322 353.478 37.0042C350.818 38.6762 347.17 39.5122 342.534 39.5122C337.012 39.5122 332.73 38.3088 329.69 35.9022C326.65 33.4702 325.13 30.0882 325.13 25.7562C325.13 21.4242 326.612 18.0548 329.576 15.6482C332.54 13.2162 336.695 12.0002 342.04 12.0002C346.423 12.0002 349.982 12.8488 352.718 14.5462C355.454 16.2182 357.126 18.4982 357.734 21.3862L350.134 21.8802C349.704 20.8415 348.754 20.0055 347.284 19.3722C345.815 18.7388 344.067 18.4222 342.04 18.4222C339.152 18.4222 336.923 19.0935 335.352 20.4362C333.807 21.7535 333.034 23.5268 333.034 25.7562C333.034 28.0108 333.845 29.7968 335.466 31.1142C337.113 32.4315 339.469 33.0902 342.534 33.0902C344.738 33.0902 346.524 32.7355 347.892 32.0262C349.286 31.3168 350.198 30.3922 350.628 29.2522ZM359.995 18.9162V12.4562H390.319V18.9162H379.109V39.0562H371.205V18.9162H359.995ZM414.362 12.4562H426.522V39.0562H418.808V18.0422L406.572 39.0562H394.412V12.4562H402.126V33.4702L414.362 12.4562ZM464.815 39.0562H454.821L444.713 28.7582H440.799V39.0562H432.895V12.4562H440.799V22.7162H444.561L454.175 12.4562H463.637L450.831 25.2242L464.815 39.0562ZM468.445 39.0562V12.4562H495.539V18.6122H476.349V22.6402H491.321V28.4162H476.349V32.9002H496.261V39.0562H468.445ZM519.643 12.4562C522.835 12.4562 525.47 13.2035 527.547 14.6982C529.65 16.1675 530.701 18.4095 530.701 21.4242C530.701 24.4388 529.7 26.6302 527.699 27.9982C525.698 29.3408 523.012 30.0122 519.643 30.0122H509.117V39.0562H501.213V12.4562H509.117H519.643ZM519.263 23.9322C521.619 23.9322 522.797 23.0962 522.797 21.4242C522.797 19.7522 521.619 18.9162 519.263 18.9162H509.117V23.9322H519.263ZM552.645 21.5002C555.964 21.5002 558.637 22.2095 560.663 23.6282C562.69 25.0468 563.703 27.2762 563.703 30.3162C563.703 33.3308 562.69 35.5475 560.663 36.9662C558.662 38.3595 555.989 39.0562 552.645 39.0562H538.585H535.279V12.4562H543.183V21.5002H552.645ZM567.617 12.4562H575.521V39.0562H567.617V12.4562ZM552.265 32.5962C554.621 32.5962 555.799 31.7855 555.799 30.1642C555.799 28.5428 554.621 27.7322 552.265 27.7322H543.183V32.5962H552.265ZM579.305 21.3482C579.659 18.2068 581.04 15.8635 583.447 14.3182C585.853 12.7728 588.931 12.0002 592.681 12.0002C596.177 12.0002 599.077 12.6335 601.383 13.9002C603.713 15.1668 604.879 17.0415 604.879 19.5242C604.879 21.0188 604.397 22.2855 603.435 23.3242C602.472 24.3628 600.977 25.3255 598.951 26.2122C597.456 26.8708 596.455 27.3775 595.949 27.7322C595.442 28.0868 595.189 28.4922 595.189 28.9482V29.1382H588.007V28.6442C588.007 27.2762 588.311 26.1742 588.919 25.3382C589.527 24.5022 590.692 23.7802 592.415 23.1722C593.276 22.8682 593.884 22.6528 594.239 22.5262C594.593 22.3742 595.075 22.1462 595.683 21.8422C596.316 21.5382 596.759 21.2468 597.013 20.9682C597.266 20.6895 597.393 20.3855 597.393 20.0562C597.393 19.4482 596.924 18.9542 595.987 18.5742C595.075 18.1942 593.973 18.0042 592.681 18.0042C590.983 18.0042 589.59 18.3335 588.501 18.9922C587.411 19.6508 586.727 20.5628 586.449 21.7282L579.305 21.3482ZM587.475 39.0562V31.7602H595.721V39.0562H587.475Z" fill="white"></path><path d="M42.8561 12.4562H54.8561C54.8561 5.82873 49.4835 0.456151 42.8561 0.456151V12.4562ZM42.8561 39.0562V51.0562C49.4835 51.0562 54.8561 45.6836 54.8561 39.0562H42.8561ZM34.9521 39.0562H22.9521C22.9521 45.6836 28.3247 51.0562 34.9521 51.0562V39.0562ZM34.9521 18.9162H46.9521C46.9521 12.2887 41.5795 6.91615 34.9521 6.91615V18.9162ZM19.9041 18.9162V6.91615C13.2767 6.91615 7.90411 12.2887 7.90411 18.9162H19.9041ZM19.9041 39.0562V51.0562C26.5315 51.0562 31.9041 45.6836 31.9041 39.0562H19.9041ZM12.0001 39.0562H0.000105858C0.000105858 45.6836 5.37269 51.0562 12.0001 51.0562V39.0562ZM12.0001 12.4562V0.456151C5.37269 0.456151 0.000105858 5.82873 0.000105858 12.4562L12.0001 12.4562ZM42.8561 12.4562H30.8561V39.0562H42.8561H54.8561V12.4562H42.8561ZM42.8561 39.0562V27.0562H34.9521V39.0562V51.0562H42.8561V39.0562ZM34.9521 39.0562H46.9521V18.9162H34.9521H22.9521V39.0562H34.9521ZM34.9521 18.9162V6.91615H19.9041V18.9162V30.9162H34.9521V18.9162ZM19.9041 18.9162H7.90411V39.0562H19.9041H31.9041V18.9162H19.9041ZM19.9041 39.0562V27.0562H12.0001V39.0562V51.0562H19.9041V39.0562ZM12.0001 39.0562H24.0001V12.4562H12.0001H0.000105858V39.0562H12.0001ZM12.0001 12.4562V24.4562H42.8561V12.4562V0.456151H12.0001V12.4562ZM52.4119 35.8642L59.7952 26.4044V26.4044L52.4119 35.8642ZM52.4119 15.6482L45.0287 6.18836L45.0287 6.18836L52.4119 15.6482ZM78.4039 15.6482L85.7872 6.18836V6.18836L78.4039 15.6482ZM78.4039 35.8642L71.0207 26.4044V26.4044L78.4039 35.8642ZM58.1879 20.4362L65.5454 29.916C65.5519 29.911 65.5584 29.9059 65.5648 29.9009L58.1879 20.4362ZM58.1879 31.1142L50.7431 40.5255C50.7946 40.5663 50.8464 40.6066 50.8985 40.6464L58.1879 31.1142ZM72.5899 31.1142L79.9474 40.594C79.9539 40.589 79.9604 40.5839 79.9668 40.5789L72.5899 31.1142ZM72.5899 20.4362L65.1451 29.8475C65.1966 29.8883 65.2484 29.9286 65.3005 29.9684L72.5899 20.4362ZM52.4119 35.8642L59.7952 26.4044C59.6977 26.3283 59.6842 26.3018 59.7115 26.3358C59.7409 26.3722 59.7744 26.425 59.7983 26.4767C59.8211 26.5259 59.8097 26.5191 59.7902 26.4234C59.7699 26.323 59.7379 26.1097 59.7379 25.7562H47.7379H35.7379C35.7379 33.3786 38.7119 40.3938 45.0287 45.3239L52.4119 35.8642ZM47.7379 25.7562H59.7379C59.7379 25.4026 59.7699 25.1893 59.7902 25.0889C59.8097 24.9932 59.8211 24.9864 59.7983 25.0356C59.7744 25.0873 59.7409 25.1401 59.7115 25.1765C59.6842 25.2105 59.6977 25.184 59.7952 25.1079L52.4119 15.6482L45.0287 6.18836C38.7119 11.1185 35.7379 18.1337 35.7379 25.7562H47.7379ZM52.4119 15.6482L59.7952 25.1079C60.0973 24.8721 61.4776 24.0002 65.4079 24.0002V12.0002V0.000151873C58.2422 0.000151873 50.9585 1.56019 45.0287 6.18836L52.4119 15.6482ZM65.4079 12.0002V24.0002C69.3382 24.0002 70.7185 24.8721 71.0207 25.1079L78.4039 15.6482L85.7872 6.18836C79.8573 1.56019 72.5736 0.000151873 65.4079 0.000151873V12.0002ZM78.4039 15.6482L71.0207 25.1079C71.1181 25.184 71.1317 25.2105 71.1043 25.1765C71.0749 25.1401 71.0414 25.0873 71.0175 25.0356C70.9947 24.9864 71.0062 24.9932 71.0256 25.0889C71.046 25.1893 71.0779 25.4026 71.0779 25.7562H83.0779H95.0779C95.0779 18.1337 92.1039 11.1185 85.7872 6.18836L78.4039 15.6482ZM83.0779 25.7562H71.0779C71.0779 26.1097 71.046 26.323 71.0256 26.4234C71.0062 26.5191 70.9947 26.5259 71.0175 26.4767C71.0414 26.425 71.0749 26.3722 71.1043 26.3358C71.1317 26.3018 71.1181 26.3283 71.0207 26.4044L78.4039 35.8642L85.7872 45.3239C92.1039 40.3938 95.0779 33.3786 95.0779 25.7562H83.0779ZM78.4039 35.8642L71.0207 26.4044C70.7185 26.6402 69.3382 27.5122 65.4079 27.5122V39.5122V51.5122C72.5736 51.5122 79.8573 49.9521 85.7872 45.3239L78.4039 35.8642ZM65.4079 39.5122V27.5122C61.4776 27.5122 60.0973 26.6402 59.7952 26.4044L52.4119 35.8642L45.0287 45.3239C50.9585 49.9521 58.2422 51.5122 65.4079 51.5122V39.5122ZM58.1879 20.4362L50.8304 10.9563C46.0783 14.6445 43.6419 19.9818 43.6419 25.7562H55.6419H67.6419C67.6419 26.1933 67.5501 26.9996 67.1027 27.9344C66.6487 28.8832 66.0316 29.5386 65.5454 29.916L58.1879 20.4362ZM55.6419 25.7562H43.6419C43.6419 31.5255 46.0693 36.8284 50.7431 40.5255L58.1879 31.1142L65.6328 21.7028C66.0885 22.0633 66.6793 22.6962 67.117 23.6174C67.5496 24.5277 67.6419 25.3173 67.6419 25.7562H55.6419ZM58.1879 31.1142L50.8985 40.6464C55.4395 44.119 60.7709 45.0902 65.4079 45.0902V33.0902V21.0902C65.0583 21.0902 64.8083 21.0714 64.6457 21.0519C64.4834 21.0324 64.4255 21.0144 64.4526 21.0218C64.4814 21.0297 64.6023 21.0653 64.788 21.1542C64.9765 21.2444 65.2159 21.382 65.4773 21.5819L58.1879 31.1142ZM65.4079 33.0902V45.0902C70.0297 45.0902 75.3978 44.1251 79.9474 40.594L72.5899 31.1142L65.2324 21.6343C65.8027 21.1917 66.2536 21.0493 66.3381 21.0261C66.3742 21.0162 66.3231 21.0332 66.1645 21.0523C66.0057 21.0713 65.7577 21.0902 65.4079 21.0902V33.0902ZM72.5899 31.1142L79.9668 40.5789C84.6768 36.9079 87.1739 31.5947 87.1739 25.7562H75.1739H63.1739C63.1739 25.2917 63.2733 24.4797 63.7192 23.555C64.1689 22.6225 64.7685 21.9958 65.213 21.6494L72.5899 31.1142ZM75.1739 25.7562H87.1739C87.1739 19.9117 84.667 14.5651 79.8793 10.9039L72.5899 20.4362L65.3005 29.9684C64.8262 29.6057 64.2001 28.957 63.7338 27.997C63.2727 27.0477 63.1739 26.2189 63.1739 25.7562H75.1739ZM72.5899 20.4362L80.0348 11.0248C75.4767 7.41916 70.0731 6.42215 65.4079 6.42215V18.4222V30.4222C66.1117 30.4222 66.3582 30.5015 66.2813 30.4799C66.1746 30.45 65.714 30.2976 65.1451 29.8475L72.5899 20.4362ZM65.4079 18.4222V6.42215C60.7278 6.42215 55.361 7.42514 50.811 10.9714L58.1879 20.4362L65.5648 29.9009C65.3048 30.1036 65.0633 30.2456 64.8686 30.3406C64.6768 30.4341 64.5478 30.4736 64.5092 30.4844C64.4724 30.4946 64.5203 30.4782 64.6728 30.4595C64.8257 30.4409 65.0665 30.4222 65.4079 30.4222V18.4222ZM108.565 12.4562V0.456151C101.938 0.456151 96.5652 5.82873 96.5652 12.4562L108.565 12.4562ZM116.469 12.4562H128.469C128.469 5.82873 123.097 0.456151 116.469 0.456151V12.4562ZM116.469 39.0562V51.0562C123.097 51.0562 128.469 45.6836 128.469 39.0562H116.469ZM108.565 39.0562H96.5652C96.5652 45.6836 101.938 51.0562 108.565 51.0562V39.0562ZM108.565 29.4422H120.565C120.565 25.9488 119.043 22.6289 116.396 20.3493C113.749 18.0697 110.24 17.0567 106.785 17.5749L108.565 29.4422ZM89.9452 27.9982L82.9151 37.7232C82.9409 37.7419 82.9667 37.7604 82.9927 37.7789L89.9452 27.9982ZM86.7912 12.4562V0.456151C80.1638 0.456151 74.7912 5.82873 74.7912 12.4562L86.7912 12.4562ZM94.6952 12.4562H106.695C106.695 5.82873 101.323 0.456151 94.6952 0.456151V12.4562ZM96.2912 23.0202L90.9247 33.7533C90.9935 33.7877 91.0626 33.8214 91.132 33.8545L96.2912 23.0202ZM108.565 23.0582L111.018 34.8048C116.58 33.6435 120.565 28.7403 120.565 23.0582H108.565ZM108.565 12.4562V24.4562H116.469V12.4562V0.456151H108.565V12.4562ZM116.469 12.4562H104.469V39.0562H116.469H128.469V12.4562H116.469ZM116.469 39.0562V27.0562H108.565V39.0562V51.0562H116.469V39.0562ZM108.565 39.0562H120.565V29.4422H108.565H96.5652V39.0562H108.565ZM108.565 29.4422L106.785 17.5749C103.658 18.044 101.131 18.2402 99.1412 18.2402V30.2402V42.2402C102.623 42.2402 106.379 41.9043 110.345 41.3094L108.565 29.4422ZM99.1412 30.2402V18.2402C97.8354 18.2402 97.0512 18.1156 96.6636 18.0211C96.2879 17.9295 96.4678 17.9118 96.8978 18.2175L89.9452 27.9982L82.9927 37.7789C87.9771 41.322 93.922 42.2402 99.1412 42.2402V30.2402ZM89.9452 27.9982L96.9754 18.2731C97.4023 18.5817 97.969 19.1568 98.3752 19.9937C98.7649 20.7965 98.7912 21.3945 98.7912 21.5002H86.7912H74.7912C74.7912 27.7869 77.3979 33.7349 82.9151 37.7232L89.9452 27.9982ZM86.7912 21.5002H98.7912V12.4562H86.7912H74.7912V21.5002H86.7912ZM86.7912 12.4562V24.4562H94.6952V12.4562V0.456151H86.7912V12.4562ZM94.6952 12.4562H82.6952V20.0562H94.6952H106.695V12.4562H94.6952ZM94.6952 20.0562H82.6952C82.6952 22.2098 83.0893 24.8964 84.5286 27.5694C86.0391 30.3746 88.3221 32.452 90.9247 33.7533L96.2912 23.0202L101.658 12.287C103.196 13.0563 104.681 14.3737 105.66 16.191C106.567 17.8759 106.695 19.3465 106.695 20.0562H94.6952ZM96.2912 23.0202L91.132 33.8545C94.7449 35.5749 98.7522 35.7802 101.459 35.7802V23.7802V11.7802C101.073 11.7802 100.768 11.7698 100.536 11.7554C100.302 11.741 100.171 11.7243 100.127 11.7178C100.079 11.7108 100.172 11.7213 100.37 11.7755C100.473 11.8036 100.617 11.8467 100.794 11.9106C100.971 11.9744 101.193 12.0634 101.45 12.1858L96.2912 23.0202ZM101.459 23.7802V35.7802C104.688 35.7802 107.88 35.46 111.018 34.8048L108.565 23.0582L106.113 11.3115C104.64 11.619 103.094 11.7802 101.459 11.7802V23.7802ZM108.565 23.0582H120.565V12.4562H108.565H96.5652V23.0582H108.565ZM122.846 39.0562H110.846C110.846 45.6836 116.218 51.0562 122.846 51.0562V39.0562ZM122.846 12.4562V0.456151C116.218 0.456151 110.846 5.82873 110.846 12.4562L122.846 12.4562ZM149.94 12.4562H161.94C161.94 5.82873 156.567 0.456151 149.94 0.456151V12.4562ZM149.94 18.6122V30.6122C156.567 30.6122 161.94 25.2396 161.94 18.6122H149.94ZM130.75 18.6122V6.61215C124.122 6.61215 118.75 11.9847 118.75 18.6122H130.75ZM130.75 22.6402H118.75C118.75 29.2676 124.122 34.6402 130.75 34.6402V22.6402ZM145.722 22.6402H157.722C157.722 16.0127 152.349 10.6402 145.722 10.6402V22.6402ZM145.722 28.4162V40.4162C152.349 40.4162 157.722 35.0436 157.722 28.4162H145.722ZM130.75 28.4162V16.4162C124.122 16.4162 118.75 21.7887 118.75 28.4162H130.75ZM130.75 32.9002H118.75C118.75 39.5276 124.122 44.9002 130.75 44.9002V32.9002ZM150.662 32.9002H162.662C162.662 26.2727 157.289 20.9002 150.662 20.9002V32.9002ZM150.662 39.0562V51.0562C157.289 51.0562 162.662 45.6836 162.662 39.0562H150.662ZM122.846 39.0562H134.846V12.4562H122.846H110.846V39.0562H122.846ZM122.846 12.4562V24.4562H149.94V12.4562V0.456151H122.846V12.4562ZM149.94 12.4562H137.94V18.6122H149.94H161.94V12.4562H149.94ZM149.94 18.6122V6.61215H130.75V18.6122V30.6122H149.94V18.6122ZM130.75 18.6122H118.75V22.6402H130.75H142.75V18.6122H130.75ZM130.75 22.6402V34.6402H145.722V22.6402V10.6402H130.75V22.6402ZM145.722 22.6402H133.722V28.4162H145.722H157.722V22.6402H145.722ZM145.722 28.4162V16.4162H130.75V28.4162V40.4162H145.722V28.4162ZM130.75 28.4162H118.75V32.9002H130.75H142.75V28.4162H130.75ZM130.75 32.9002V44.9002H150.662V32.9002V20.9002H130.75V32.9002ZM150.662 32.9002H138.662V39.0562H150.662H162.662V32.9002H150.662ZM150.662 39.0562V27.0562H122.846V39.0562V51.0562H150.662V39.0562ZM183.353 12.4562V0.456151C178.107 0.456151 173.469 3.8638 171.902 8.87008L183.353 12.4562ZM197.185 12.4562L209.185 12.4733C209.19 9.28773 207.928 6.23108 205.677 3.97693C203.426 1.72279 200.371 0.456151 197.185 0.456151V12.4562ZM197.147 39.0562V51.0562C203.768 51.0562 209.138 45.694 209.147 39.0733L197.147 39.0562ZM189.585 39.0562H177.585C177.585 45.6836 182.958 51.0562 189.585 51.0562V39.0562ZM189.585 16.7502H201.585C201.585 10.9039 197.372 5.90843 191.61 4.92215C185.847 3.93587 180.213 7.24583 178.268 12.7593L189.585 16.7502ZM181.719 39.0562V51.0562C186.808 51.0562 191.344 47.8463 193.036 43.047L181.719 39.0562ZM171.041 39.0562L159.724 43.047C161.417 47.8463 165.952 51.0562 171.041 51.0562V39.0562ZM163.175 16.7502L174.492 12.7593C172.548 7.24583 166.913 3.93587 161.151 4.92215C155.388 5.90842 151.175 10.9039 151.175 16.7502H163.175ZM163.175 39.0562V51.0562C169.803 51.0562 175.175 45.6836 175.175 39.0562H163.175ZM155.613 39.0562H143.613C143.613 45.6836 148.986 51.0562 155.613 51.0562V39.0562ZM155.613 12.4562V0.456151C148.986 0.456151 143.613 5.82873 143.613 12.4562L155.613 12.4562ZM169.445 12.4562L180.874 8.79812C179.284 3.82833 174.664 0.456151 169.445 0.456151V12.4562ZM176.475 34.4202L165.047 38.0782C166.641 43.0612 171.281 46.4365 176.513 46.4201C181.745 46.4036 186.363 42.9992 187.927 38.0062L176.475 34.4202ZM183.353 12.4562V24.4562H197.185V12.4562V0.456151H183.353V12.4562ZM197.185 12.4562L185.185 12.439L185.147 39.039L197.147 39.0562L209.147 39.0733L209.185 12.4733L197.185 12.4562ZM197.147 39.0562V27.0562H189.585V39.0562V51.0562H197.147V39.0562ZM189.585 39.0562H201.585V16.7502H189.585H177.585V39.0562H189.585ZM189.585 16.7502L178.268 12.7593L170.402 35.0653L181.719 39.0562L193.036 43.047L200.902 20.741L189.585 16.7502ZM181.719 39.0562V27.0562H171.041V39.0562V51.0562H181.719V39.0562ZM171.041 39.0562L182.358 35.0653L174.492 12.7593L163.175 16.7502L151.858 20.741L159.724 43.047L171.041 39.0562ZM163.175 16.7502H151.175V39.0562H163.175H175.175V16.7502H163.175ZM163.175 39.0562V27.0562H155.613V39.0562V51.0562H163.175V39.0562ZM155.613 39.0562H167.613V12.4562H155.613H143.613V39.0562H155.613ZM155.613 12.4562V24.4562H169.445V12.4562V0.456151H155.613V12.4562ZM169.445 12.4562L158.017 16.1142L165.047 38.0782L176.475 34.4202L187.904 30.7621L180.874 8.79812L169.445 12.4562ZM176.475 34.4202L187.927 38.0062L194.805 16.0422L183.353 12.4562L171.902 8.87008L165.024 30.8341L176.475 34.4202ZM226.435 12.4562V0.456151C221.725 0.456151 217.451 3.21122 215.506 7.50061L226.435 12.4562ZM234.985 12.4562L245.625 18.0038C247.565 14.2839 247.421 9.82126 245.246 6.2341C243.07 2.64694 239.18 0.456151 234.985 0.456151V12.4562ZM225.713 30.2402L236.347 35.7992L236.353 35.7878L225.713 30.2402ZM222.407 35.4462L213.203 27.7455C213.198 27.7516 213.193 27.7578 213.188 27.7639L222.407 35.4462ZM218.683 38.2962L223.591 49.2463C223.643 49.2229 223.695 49.1992 223.747 49.1751L218.683 38.2962ZM208.195 38.9422H196.195C196.195 45.0306 200.754 50.1542 206.802 50.861L208.195 38.9422ZM208.195 32.7862L209.205 20.8288C205.859 20.546 202.547 21.6784 200.075 23.9508C197.602 26.2233 196.195 29.4279 196.195 32.7862H208.195ZM216.973 31.0762L227.578 36.6908C229.547 32.9713 229.424 28.492 227.253 24.8865C225.082 21.2809 221.181 19.0762 216.973 19.0762V31.0762ZM213.515 31.0762L203.58 37.8072C205.813 41.1025 209.534 43.0762 213.515 43.0762V31.0762ZM200.899 12.4562V0.456151C196.457 0.456151 192.379 2.9096 190.297 6.83356C188.216 10.7575 188.473 15.5101 190.964 19.1872L200.899 12.4562ZM209.715 12.4562L219.891 6.09616C217.698 2.58759 213.852 0.456151 209.715 0.456151V12.4562ZM219.405 27.9602L209.229 34.3201C211.573 38.0702 215.789 40.2273 220.201 39.9337C224.614 39.64 228.507 36.9433 230.334 32.9157L219.405 27.9602ZM226.435 12.4562V24.4562H234.985V12.4562V0.456151H226.435V12.4562ZM234.985 12.4562L224.344 6.90847L215.072 24.6925L225.713 30.2402L236.353 35.7878L245.625 18.0038L234.985 12.4562ZM225.713 30.2402L215.078 24.6811C214.118 26.5175 213.474 27.4223 213.203 27.7455L222.407 35.4462L231.61 43.1468C233.417 40.9874 234.977 38.4215 236.347 35.7992L225.713 30.2402ZM222.407 35.4462L213.188 27.7639C213.245 27.6952 213.326 27.6152 213.423 27.5411C213.519 27.4676 213.592 27.4292 213.618 27.4172L218.683 38.2962L223.747 49.1751C226.78 47.7631 229.452 45.7362 231.625 43.1284L222.407 35.4462ZM218.683 38.2962L213.774 27.346C214.005 27.2425 214.12 27.2276 214.06 27.2389C213.995 27.251 213.774 27.2842 213.363 27.2842V39.2842V51.2842C216.661 51.2842 220.199 50.7668 223.591 49.2463L218.683 38.2962ZM213.363 39.2842V27.2842C212.452 27.2842 211.21 27.2129 209.588 27.0233L208.195 38.9422L206.802 50.861C209.08 51.1274 211.284 51.2842 213.363 51.2842V39.2842ZM208.195 38.9422H220.195V32.7862H208.195H196.195V38.9422H208.195ZM208.195 32.7862L207.184 44.7435C209.123 44.9073 210.936 45.0142 212.489 45.0142V33.0142V21.0142C211.914 21.0142 210.864 20.969 209.205 20.8288L208.195 32.7862ZM212.489 33.0142V45.0142C216.466 45.0142 223.777 43.8705 227.578 36.6908L216.973 31.0762L206.367 25.4615C207.449 23.419 209.122 22.1437 210.578 21.5144C211.821 20.977 212.635 21.0142 212.489 21.0142V33.0142ZM216.973 31.0762V19.0762H213.515V31.0762V43.0762H216.973V31.0762ZM213.515 31.0762L223.449 24.3451L210.833 5.72508L200.899 12.4562L190.964 19.1872L203.58 37.8072L213.515 31.0762ZM200.899 12.4562V24.4562H209.715V12.4562V0.456151H200.899V12.4562ZM209.715 12.4562L199.539 18.8161L209.229 34.3201L219.405 27.9602L229.581 21.6002L219.891 6.09616L209.715 12.4562ZM219.405 27.9602L230.334 32.9157L237.364 17.4117L226.435 12.4562L215.506 7.50061L208.476 23.0046L219.405 27.9602ZM264.462 22.4502L259.02 11.7548C254.275 14.169 251.688 19.4208 252.666 24.6541C253.644 29.8874 257.953 33.8508 263.249 34.3887L264.462 22.4502ZM273.05 34.6862L283.165 41.1426C283.185 41.1105 283.206 41.0784 283.226 41.0461L273.05 34.6862ZM269.858 37.5362L275.224 48.2693C275.277 48.243 275.329 48.2163 275.382 48.1892L269.858 37.5362ZM265.336 39.0562L267.514 50.8567C267.573 50.846 267.631 50.8348 267.689 50.8231L265.336 39.0562ZM250.288 37.3462L244.254 47.7192C244.27 47.728 244.285 47.7368 244.3 47.7456L250.288 37.3462ZM245.956 30.9622L245.344 18.9777C241.974 19.1497 238.832 20.7329 236.688 23.3392C234.544 25.9455 233.597 29.334 234.078 32.6742L245.956 30.9622ZM253.404 30.5822L264.653 26.4039C262.828 21.4911 258.026 18.3307 252.792 18.5977L253.404 30.5822ZM264.728 32.5202L260.311 21.3625C260.284 21.3732 260.257 21.3839 260.23 21.3948L264.728 32.5202ZM264.88 28.3022L259.614 39.085C259.646 39.1008 259.678 39.1164 259.711 39.1319L264.88 28.3022ZM254.43 28.0362H242.43C242.43 31.5636 243.982 34.9123 246.673 37.1924C249.365 39.4724 252.923 40.4528 256.402 39.8729L254.43 28.0362ZM254.43 23.0202L248.68 12.4873C244.827 14.5908 242.43 18.6303 242.43 23.0202H254.43ZM262.296 18.7262L268.046 29.259C272.86 26.631 275.279 21.0735 273.923 15.7591C272.567 10.4448 267.78 6.72615 262.296 6.72615V18.7262ZM247.856 18.7262H235.856C235.856 25.3536 241.228 30.7262 247.856 30.7262V18.7262ZM247.856 12.4562V0.456151C241.228 0.456151 235.856 5.82873 235.856 12.4562L247.856 12.4562ZM273.126 12.4562H285.126C285.126 5.82873 279.753 0.456151 273.126 0.456151V12.4562ZM273.126 18.0422L278.567 28.7375C282.591 26.6901 285.126 22.5572 285.126 18.0422H273.126ZM264.462 22.4502L263.249 34.3887C264.197 34.485 264.692 34.6229 264.856 34.6788C265.014 34.7325 264.687 34.6487 264.169 34.2252C263.6 33.7609 263.016 33.06 262.619 32.1688C262.238 31.3126 262.19 30.643 262.19 30.3922H274.19H286.19C286.19 24.9099 284.083 19.5008 279.347 15.6341C275.152 12.2092 270.052 10.9562 265.674 10.5116L264.462 22.4502ZM274.19 30.3922H262.19C262.19 30.2906 262.202 30.0155 262.306 29.6215C262.414 29.2169 262.598 28.7676 262.874 28.3262L273.05 34.6862L283.226 41.0461C285.346 37.6532 286.19 33.9469 286.19 30.3922H274.19ZM273.05 34.6862L262.935 28.2297C263.151 27.8912 263.411 27.5888 263.69 27.3404C263.963 27.096 264.198 26.9535 264.334 26.8831L269.858 37.5362L275.382 48.1892C278.447 46.5998 281.168 44.2707 283.165 41.1426L273.05 34.6862ZM269.858 37.5362L264.491 26.803C264.165 26.966 263.684 27.1488 262.982 27.2892L265.336 39.0562L267.689 50.8231C270.28 50.3049 272.814 49.4743 275.224 48.2693L269.858 37.5362ZM265.336 39.0562L263.157 27.2556C262.352 27.4042 261.271 27.5122 259.864 27.5122V39.5122V51.5122C262.459 51.5122 265.026 51.3161 267.514 50.8567L265.336 39.0562ZM259.864 39.5122V27.5122C257.401 27.5122 256.446 27.0451 256.275 26.9467L250.288 37.3462L244.3 47.7456C249.145 50.5352 254.574 51.5122 259.864 51.5122V39.5122ZM250.288 37.3462L256.321 26.9731C256.451 27.049 256.872 27.3389 257.272 27.9291C257.675 28.5231 257.804 29.0458 257.833 29.2501L245.956 30.9622L234.078 32.6742C235.013 39.1602 238.644 44.4558 244.254 47.7192L250.288 37.3462ZM245.956 30.9622L246.567 42.9466L254.015 42.5666L253.404 30.5822L252.792 18.5977L245.344 18.9777L245.956 30.9622ZM253.404 30.5822L242.155 34.7604C243.91 39.4857 247.542 42.2724 250.944 43.6733C254.055 44.9544 257.262 45.2422 259.864 45.2422V33.2422V21.2422C258.817 21.2422 259.124 21.0865 260.082 21.481C260.635 21.7089 261.513 22.1665 262.424 23.0283C263.376 23.9288 264.162 25.0834 264.653 26.4039L253.404 30.5822ZM259.864 33.2422V45.2422C262.645 45.2422 266.008 44.9462 269.225 43.6455L264.728 32.5202L260.23 21.3948C260.484 21.2922 260.671 21.2383 260.77 21.213C260.869 21.1876 260.902 21.185 260.857 21.1917C260.812 21.1983 260.709 21.2115 260.537 21.2227C260.367 21.2339 260.144 21.2422 259.864 21.2422V33.2422ZM264.728 32.5202L269.144 43.6778C270.882 42.99 273.228 41.745 275.207 39.4366C277.382 36.8992 278.552 33.7149 278.552 30.3922H266.552H254.552C254.552 28.0067 255.418 25.6458 256.985 23.8177C258.355 22.2186 259.789 21.569 260.311 21.3625L264.728 32.5202ZM266.552 30.3922H278.552C278.552 22.9799 273.259 19.0048 270.048 17.4724L264.88 28.3022L259.711 39.1319C259.225 38.9002 257.964 38.2209 256.763 36.72C255.406 35.023 254.552 32.79 254.552 30.3922H266.552ZM264.88 28.3022L270.146 17.5193C266.585 15.7802 262.748 15.5042 259.978 15.5042V27.5042V39.5042C260.281 39.5042 260.511 39.5135 260.674 39.5249C260.839 39.5364 260.913 39.5484 260.909 39.5477C260.907 39.5475 260.791 39.5289 260.586 39.4688C260.383 39.4093 260.042 39.2943 259.614 39.085L264.88 28.3022ZM259.978 27.5042V15.5042C257.553 15.5042 255.014 15.7732 252.457 16.1994L254.43 28.0362L256.402 39.8729C258.101 39.5898 259.261 39.5042 259.978 39.5042V27.5042ZM254.43 28.0362H266.43V23.0202H254.43H242.43V28.0362H254.43ZM254.43 23.0202L260.18 33.553L268.046 29.259L262.296 18.7262L256.546 8.19335L248.68 12.4873L254.43 23.0202ZM262.296 18.7262V6.72615H247.856V18.7262V30.7262H262.296V18.7262ZM247.856 18.7262H259.856V12.4562H247.856H235.856V18.7262H247.856ZM247.856 12.4562V24.4562H273.126V12.4562V0.456151H247.856V12.4562ZM273.126 12.4562H261.126V18.0422H273.126H285.126V12.4562H273.126ZM273.126 18.0422L267.684 7.34681L259.02 11.7548L264.462 22.4502L269.903 33.1455L278.567 28.7375L273.126 18.0422ZM306.103 15.9142L313.393 6.38186V6.38186L306.103 15.9142ZM306.103 35.5982L313.393 45.1304V45.1304L306.103 35.5982ZM278.705 39.0562H266.705C266.705 45.6836 272.078 51.0562 278.705 51.0562V39.0562ZM278.705 12.4562V0.456151C272.078 0.456151 266.705 5.82873 266.705 12.4562L278.705 12.4562ZM300.213 30.8482L307.145 40.6434C307.155 40.6366 307.164 40.6298 307.174 40.6229L300.213 30.8482ZM300.213 20.7022L293.182 30.4264C293.238 30.467 293.295 30.5072 293.352 30.5469L300.213 20.7022ZM286.609 18.9162V6.91615C279.982 6.91615 274.609 12.2887 274.609 18.9162H286.609ZM286.609 32.5962H274.609C274.609 39.2236 279.982 44.5962 286.609 44.5962V32.5962ZM293.753 12.4562V24.4562C297.31 24.4562 298.552 25.2462 298.814 25.4464L306.103 15.9142L313.393 6.38186C307.625 1.9714 300.634 0.456151 293.753 0.456151V12.4562ZM306.103 15.9142L298.814 25.4464C298.854 25.4775 298.82 25.4574 298.755 25.3764C298.687 25.2932 298.629 25.1984 298.591 25.1137C298.553 25.0322 298.559 25.0158 298.576 25.1004C298.594 25.19 298.625 25.3991 298.625 25.7562H310.625H322.625C322.625 18.2816 319.766 11.2554 313.393 6.38186L306.103 15.9142ZM310.625 25.7562H298.625C298.625 26.1132 298.594 26.3223 298.576 26.4119C298.559 26.4965 298.553 26.4801 298.591 26.3987C298.629 26.3139 298.687 26.2191 298.755 26.1359C298.82 26.0549 298.854 26.0348 298.814 26.0659L306.103 35.5982L313.393 45.1304C319.766 40.2569 322.625 33.2307 322.625 25.7562H310.625ZM306.103 35.5982L298.814 26.0659C298.552 26.2661 297.31 27.0562 293.753 27.0562V39.0562V51.0562C300.634 51.0562 307.625 49.5409 313.393 45.1304L306.103 35.5982ZM293.753 39.0562V27.0562H278.705V39.0562V51.0562H293.753V39.0562ZM278.705 39.0562H290.705V12.4562H278.705H266.705V39.0562H278.705ZM278.705 12.4562V24.4562H293.753V12.4562V0.456151H278.705V12.4562ZM292.917 32.5962V44.5962C297.257 44.5962 302.589 43.8677 307.145 40.6434L300.213 30.8482L293.281 21.0529C293.964 20.5695 294.433 20.4715 294.358 20.4894C294.329 20.4964 294.2 20.5246 293.952 20.5502C293.704 20.5758 293.363 20.5962 292.917 20.5962V32.5962ZM300.213 30.8482L307.174 40.6229C312.272 36.9927 314.721 31.5058 314.721 25.7562H302.721H290.721C290.721 25.3219 290.811 24.4322 291.329 23.38C291.863 22.2968 292.61 21.5305 293.252 21.0734L300.213 30.8482ZM302.721 25.7562H314.721C314.721 20.0034 312.263 14.4732 307.075 10.8574L300.213 20.7022L293.352 30.5469C292.676 30.0757 291.897 29.2869 291.345 28.1739C290.81 27.096 290.721 26.1879 290.721 25.7562H302.721ZM300.213 20.7022L307.245 10.9779C302.671 7.67061 297.295 6.91615 292.917 6.91615V18.9162V30.9162C293.355 30.9162 293.687 30.9366 293.925 30.9617C294.164 30.9868 294.282 31.0139 294.301 31.0185C294.351 31.0308 293.868 30.9225 293.182 30.4264L300.213 20.7022ZM292.917 18.9162V6.91615H286.609V18.9162V30.9162H292.917V18.9162ZM286.609 18.9162H274.609V32.5962H286.609H298.609V18.9162H286.609ZM286.609 32.5962V44.5962H292.917V32.5962V20.5962H286.609V32.5962ZM350.629 29.2522L351.222 17.2668C346.019 17.0093 341.244 20.1381 339.403 25.0113L350.629 29.2522ZM358.305 29.6322L370.146 31.5749C370.7 28.2015 369.788 24.7522 367.64 22.0926C365.492 19.4331 362.312 17.8159 358.898 17.6468L358.305 29.6322ZM353.478 37.0042L347.136 26.8174C347.121 26.8264 347.107 26.8354 347.092 26.8445L353.478 37.0042ZM329.69 35.9022L322.194 45.2726C322.21 45.2853 322.226 45.298 322.242 45.3107L329.69 35.9022ZM329.577 15.6482L337.141 24.964C337.157 24.951 337.172 24.938 337.188 24.925L329.577 15.6482ZM352.719 14.5462L346.392 24.7433C346.415 24.7574 346.438 24.7715 346.461 24.7855L352.719 14.5462ZM357.734 21.3862L358.513 33.3609C361.986 33.1351 365.189 31.4129 367.293 28.6407C369.397 25.8685 370.194 22.3195 369.477 18.914L357.734 21.3862ZM350.134 21.8802L339.05 26.4763C341.017 31.2215 345.787 34.1881 350.913 33.8549L350.134 21.8802ZM347.284 19.3722L342.535 30.392V30.392L347.284 19.3722ZM335.353 20.4362L343.137 29.5683C343.142 29.5648 343.146 29.5612 343.15 29.5576L335.353 20.4362ZM335.466 31.1142L327.899 40.4275C327.923 40.4466 327.947 40.4656 327.97 40.4846L335.466 31.1142ZM347.892 32.0262L342.448 21.3322C342.422 21.3457 342.395 21.3594 342.369 21.3731L347.892 32.0262ZM350.629 29.2522L350.035 41.2375L357.711 41.6175L358.305 29.6322L358.898 17.6468L351.222 17.2668L350.629 29.2522ZM358.305 29.6322L346.463 27.6894C346.436 27.8555 346.443 27.6644 346.659 27.3346C346.758 27.1834 346.869 27.0537 346.973 26.9534C347.075 26.8551 347.141 26.8144 347.136 26.8174L353.478 37.0042L359.821 47.1909C365.569 43.6121 369.079 38.0785 370.146 31.5749L358.305 29.6322ZM353.478 37.0042L347.092 26.8445C347.05 26.8713 345.92 27.5122 342.534 27.5122V39.5122V51.5122C348.421 51.5122 354.587 50.481 359.865 47.1638L353.478 37.0042ZM342.534 39.5122V27.5122C338.596 27.5122 337.322 26.6387 337.139 26.4936L329.69 35.9022L322.242 45.3107C328.139 49.979 335.428 51.5122 342.534 51.5122V39.5122ZM329.69 35.9022L337.187 26.5317C337.11 26.4705 337.107 26.4554 337.138 26.4943C337.17 26.5353 337.199 26.5845 337.216 26.6224C337.258 26.7169 337.13 26.5092 337.13 25.7562H325.13H313.13C313.13 33.2663 315.962 40.2866 322.194 45.2726L329.69 35.9022ZM325.13 25.7562H337.13C337.13 24.963 337.263 24.7284 337.226 24.8116C337.211 24.8462 337.181 24.9007 337.141 24.9532C337.101 25.0042 337.089 25.0059 337.141 24.964L329.577 15.6482L322.012 6.33235C315.842 11.3424 313.13 18.3579 313.13 25.7562H325.13ZM329.577 15.6482L337.188 24.925C337.297 24.8355 338.39 24.0002 342.04 24.0002V12.0002V0.000151873C335.001 0.000151873 327.784 1.59685 321.965 6.37127L329.577 15.6482ZM342.04 12.0002V24.0002C344.968 24.0002 346.125 24.5772 346.392 24.7433L352.719 14.5462L359.044 4.34901C353.84 1.12044 347.879 0.000151873 342.04 0.000151873V12.0002ZM352.719 14.5462L346.461 24.7855C346.673 24.9152 346.552 24.8847 346.348 24.6065C346.252 24.4758 346.167 24.3286 346.1 24.1778C346.034 24.0285 346.004 23.9146 345.992 23.8583L357.734 21.3862L369.477 18.914C368.125 12.4936 364.261 7.53627 358.976 4.30677L352.719 14.5462ZM357.734 21.3862L356.956 9.41142L349.356 9.90542L350.134 21.8802L350.913 33.8549L358.513 33.3609L357.734 21.3862ZM350.134 21.8802L361.219 17.284C359.167 12.3331 355.153 9.69641 352.034 8.35226L347.284 19.3722L342.535 30.392C342.355 30.3146 340.241 29.3499 339.05 26.4763L350.134 21.8802ZM347.284 19.3722L352.034 8.35226C348.722 6.92463 345.281 6.42215 342.04 6.42215V18.4222V30.4222C342.435 30.4222 342.655 30.4534 342.732 30.4675C342.806 30.4808 342.723 30.4735 342.535 30.392L347.284 19.3722ZM342.04 18.4222V6.42215C337.422 6.42215 332.026 7.49313 327.555 11.3147L335.353 20.4362L343.15 29.5576C342.518 30.0975 341.94 30.3324 341.663 30.416C341.423 30.488 341.499 30.4222 342.04 30.4222V18.4222ZM335.353 20.4362L327.568 11.304C323.066 15.1416 321.034 20.4006 321.034 25.7562H333.034H345.034C345.034 26.0411 344.981 26.7087 344.615 27.5475C344.237 28.4161 343.682 29.1044 343.137 29.5683L335.353 20.4362ZM333.034 25.7562H321.034C321.034 31.2967 323.229 36.6326 327.899 40.4275L335.466 31.1142L343.034 21.8008C343.569 22.2355 344.157 22.9188 344.57 23.8269C344.97 24.7082 345.034 25.4275 345.034 25.7562H333.034ZM335.466 31.1142L327.97 40.4846C332.522 44.1263 337.943 45.0902 342.534 45.0902V33.0902V21.0902C341.831 21.0902 341.6 21.0114 341.699 21.0393C341.829 21.0757 342.34 21.2458 342.963 21.7437L335.466 31.1142ZM342.534 33.0902V45.0902C345.888 45.0902 349.767 44.5716 353.416 42.6792L347.892 32.0262L342.369 21.3731C342.852 21.1227 343.168 21.0582 343.19 21.054C343.204 21.0512 343.159 21.0608 343.047 21.0708C342.934 21.0808 342.766 21.0902 342.534 21.0902V33.0902ZM347.892 32.0262L353.337 42.7201C356.615 41.051 360.095 38.1506 361.854 33.493L350.629 29.2522L339.403 25.0113C340.301 22.6337 341.956 21.5827 342.448 21.3322L347.892 32.0262ZM359.995 18.9162H347.995C347.995 25.5436 353.368 30.9162 359.995 30.9162V18.9162ZM359.995 12.4562V0.456151C353.368 0.456151 347.995 5.82873 347.995 12.4562L359.995 12.4562ZM390.319 12.4562H402.319C402.319 5.82873 396.947 0.456151 390.319 0.456151V12.4562ZM390.319 18.9162V30.9162C396.947 30.9162 402.319 25.5436 402.319 18.9162H390.319ZM379.109 18.9162V6.91615C372.482 6.91615 367.109 12.2887 367.109 18.9162H379.109ZM379.109 39.0562V51.0562C385.737 51.0562 391.109 45.6836 391.109 39.0562H379.109ZM371.206 39.0562H359.206C359.206 45.6836 364.578 51.0562 371.206 51.0562V39.0562ZM371.206 18.9162H383.206C383.206 12.2887 377.833 6.91615 371.206 6.91615V18.9162ZM359.995 18.9162H371.995V12.4562H359.995H347.995V18.9162H359.995ZM359.995 12.4562V24.4562H390.319V12.4562V0.456151H359.995V12.4562ZM390.319 12.4562H378.319V18.9162H390.319H402.319V12.4562H390.319ZM390.319 18.9162V6.91615H379.109V18.9162V30.9162H390.319V18.9162ZM379.109 18.9162H367.109V39.0562H379.109H391.109V18.9162H379.109ZM379.109 39.0562V27.0562H371.206V39.0562V51.0562H379.109V39.0562ZM371.206 39.0562H383.206V18.9162H371.206H359.206V39.0562H371.206ZM371.206 18.9162V6.91615H359.995V18.9162V30.9162H371.206V18.9162ZM414.362 12.4562V0.456151C410.091 0.456151 406.141 2.72664 403.992 6.41786L414.362 12.4562ZM426.522 12.4562H438.522C438.522 5.82873 433.15 0.456151 426.522 0.456151V12.4562ZM426.522 39.0562V51.0562C433.15 51.0562 438.522 45.6836 438.522 39.0562H426.522ZM418.808 39.0562H406.808C406.808 45.6836 412.181 51.0562 418.808 51.0562V39.0562ZM418.808 18.0422H430.808C430.808 12.6191 427.171 7.87003 421.935 6.45679C416.7 5.04354 411.167 7.3174 408.438 12.0039L418.808 18.0422ZM406.572 39.0562V51.0562C410.844 51.0562 414.793 48.7857 416.942 45.0944L406.572 39.0562ZM394.412 39.0562H382.412C382.412 45.6836 387.785 51.0562 394.412 51.0562V39.0562ZM394.412 12.4562V0.456151C387.785 0.456151 382.412 5.82873 382.412 12.4562L394.412 12.4562ZM402.126 12.4562H414.126C414.126 5.82873 408.754 0.456151 402.126 0.456151V12.4562ZM402.126 33.4702H390.126C390.126 38.8932 393.763 43.6423 398.999 45.0555C404.235 46.4688 409.767 44.1949 412.496 39.5084L402.126 33.4702ZM414.362 12.4562V24.4562H426.522V12.4562V0.456151H414.362V12.4562ZM426.522 12.4562H414.522V39.0562H426.522H438.522V12.4562H426.522ZM426.522 39.0562V27.0562H418.808V39.0562V51.0562H426.522V39.0562ZM418.808 39.0562H430.808V18.0422H418.808H406.808V39.0562H418.808ZM418.808 18.0422L408.438 12.0039L396.202 33.0179L406.572 39.0562L416.942 45.0944L429.178 24.0804L418.808 18.0422ZM406.572 39.0562V27.0562H394.412V39.0562V51.0562H406.572V39.0562ZM394.412 39.0562H406.412V12.4562H394.412H382.412V39.0562H394.412ZM394.412 12.4562V24.4562H402.126V12.4562V0.456151H394.412V12.4562ZM402.126 12.4562H390.126V33.4702H402.126H414.126V12.4562H402.126ZM402.126 33.4702L412.496 39.5084L424.732 18.4944L414.362 12.4562L403.992 6.41786L391.756 27.4319L402.126 33.4702ZM464.815 39.0562V51.0562C469.68 51.0562 474.064 48.1182 475.914 43.618C477.763 39.1179 476.713 33.9462 473.253 30.5246L464.815 39.0562ZM454.821 39.0562L446.257 47.4621C448.513 49.761 451.599 51.0562 454.821 51.0562V39.0562ZM444.713 28.7582L453.277 20.3522C451.02 18.0533 447.934 16.7582 444.713 16.7582V28.7582ZM440.799 28.7582V16.7582C434.171 16.7582 428.799 22.1307 428.799 28.7582H440.799ZM440.799 39.0562V51.0562C447.426 51.0562 452.799 45.6836 452.799 39.0562H440.799ZM432.895 39.0562H420.895C420.895 45.6836 426.267 51.0562 432.895 51.0562V39.0562ZM432.895 12.4562V0.456151C426.267 0.456151 420.895 5.82873 420.895 12.4562L432.895 12.4562ZM440.799 12.4562H452.799C452.799 5.82873 447.426 0.456151 440.799 0.456151V12.4562ZM440.799 22.7162H428.799C428.799 29.3436 434.171 34.7162 440.799 34.7162V22.7162ZM444.561 22.7162V34.7162C447.879 34.7162 451.048 33.3424 453.317 30.9213L444.561 22.7162ZM454.175 12.4562V0.456151C450.857 0.456151 447.687 1.8299 445.418 4.25102L454.175 12.4562ZM463.637 12.4562L472.109 20.954C475.549 17.5249 476.582 12.3607 474.727 7.87219C472.871 3.38372 468.493 0.456151 463.637 0.456151V12.4562ZM450.831 25.2242L442.358 16.7263C440.094 18.9836 438.824 22.051 438.831 25.248C438.837 28.4451 440.119 31.5074 442.392 33.7557L450.831 25.2242ZM464.815 39.0562V27.0562H454.821V39.0562V51.0562H464.815V39.0562ZM454.821 39.0562L463.385 30.6502L453.277 20.3522L444.713 28.7582L436.149 37.1641L446.257 47.4621L454.821 39.0562ZM444.713 28.7582V16.7582H440.799V28.7582V40.7582H444.713V28.7582ZM440.799 28.7582H428.799V39.0562H440.799H452.799V28.7582H440.799ZM440.799 39.0562V27.0562H432.895V39.0562V51.0562H440.799V39.0562ZM432.895 39.0562H444.895V12.4562H432.895H420.895V39.0562H432.895ZM432.895 12.4562V24.4562H440.799V12.4562V0.456151H432.895V12.4562ZM440.799 12.4562H428.799V22.7162H440.799H452.799V12.4562H440.799ZM440.799 22.7162V34.7162H444.561V22.7162V10.7162H440.799V22.7162ZM444.561 22.7162L453.317 30.9213L462.931 20.6613L454.175 12.4562L445.418 4.25102L435.804 14.511L444.561 22.7162ZM454.175 12.4562V24.4562H463.637V12.4562V0.456151H454.175V12.4562ZM463.637 12.4562L455.164 3.95827L442.358 16.7263L450.831 25.2242L459.303 33.722L472.109 20.954L463.637 12.4562ZM450.831 25.2242L442.392 33.7557L456.376 47.5877L464.815 39.0562L473.253 30.5246L459.269 16.6926L450.831 25.2242ZM468.445 39.0562H456.445C456.445 45.6836 461.818 51.0562 468.445 51.0562V39.0562ZM468.445 12.4562V0.456151C461.818 0.456151 456.445 5.82873 456.445 12.4562L468.445 12.4562ZM495.539 12.4562H507.539C507.539 5.82873 502.167 0.456151 495.539 0.456151V12.4562ZM495.539 18.6122V30.6122C502.167 30.6122 507.539 25.2396 507.539 18.6122H495.539ZM476.349 18.6122V6.61215C469.722 6.61215 464.349 11.9847 464.349 18.6122H476.349ZM476.349 22.6402H464.349C464.349 29.2676 469.722 34.6402 476.349 34.6402V22.6402ZM491.321 22.6402H503.321C503.321 16.0127 497.949 10.6402 491.321 10.6402V22.6402ZM491.321 28.4162V40.4162C497.949 40.4162 503.321 35.0436 503.321 28.4162H491.321ZM476.349 28.4162V16.4162C469.722 16.4162 464.349 21.7887 464.349 28.4162H476.349ZM476.349 32.9002H464.349C464.349 39.5276 469.722 44.9002 476.349 44.9002V32.9002ZM496.261 32.9002H508.261C508.261 26.2727 502.889 20.9002 496.261 20.9002V32.9002ZM496.261 39.0562V51.0562C502.889 51.0562 508.261 45.6836 508.261 39.0562H496.261ZM468.445 39.0562H480.445V12.4562H468.445H456.445V39.0562H468.445ZM468.445 12.4562V24.4562H495.539V12.4562V0.456151H468.445V12.4562ZM495.539 12.4562H483.539V18.6122H495.539H507.539V12.4562H495.539ZM495.539 18.6122V6.61215H476.349V18.6122V30.6122H495.539V18.6122ZM476.349 18.6122H464.349V22.6402H476.349H488.349V18.6122H476.349ZM476.349 22.6402V34.6402H491.321V22.6402V10.6402H476.349V22.6402ZM491.321 22.6402H479.321V28.4162H491.321H503.321V22.6402H491.321ZM491.321 28.4162V16.4162H476.349V28.4162V40.4162H491.321V28.4162ZM476.349 28.4162H464.349V32.9002H476.349H488.349V28.4162H476.349ZM476.349 32.9002V44.9002H496.261V32.9002V20.9002H476.349V32.9002ZM496.261 32.9002H484.261V39.0562H496.261H508.261V32.9002H496.261ZM496.261 39.0562V27.0562H468.445V39.0562V51.0562H496.261V39.0562ZM527.547 14.6982L520.538 24.4388C520.583 24.471 520.628 24.5029 520.673 24.5345L527.547 14.6982ZM527.699 27.9982L534.384 37.9633C534.413 37.944 534.442 37.9245 534.471 37.9049L527.699 27.9982ZM509.117 30.0122V18.0122C502.49 18.0122 497.117 23.3847 497.117 30.0122H509.117ZM509.117 39.0562V51.0562C515.744 51.0562 521.117 45.6836 521.117 39.0562H509.117ZM501.213 39.0562H489.213C489.213 45.6836 494.586 51.0562 501.213 51.0562V39.0562ZM501.213 12.4562V0.456151C494.586 0.456151 489.213 5.82873 489.213 12.4562L501.213 12.4562ZM509.117 18.9162V6.91615C502.49 6.91615 497.117 12.2887 497.117 18.9162H509.117ZM509.117 23.9322H497.117C497.117 30.5596 502.49 35.9322 509.117 35.9322V23.9322ZM519.643 12.4562V24.4562C520.31 24.4562 520.645 24.5348 520.738 24.5612C520.81 24.5816 520.707 24.5603 520.538 24.4388L527.547 14.6982L534.556 4.95749C529.979 1.66491 524.721 0.456151 519.643 0.456151V12.4562ZM527.547 14.6982L520.673 24.5345C520.067 24.1105 519.447 23.4282 519.048 22.5764C518.681 21.7947 518.701 21.3022 518.701 21.4242H530.701H542.701C542.701 15.2776 540.331 8.9921 534.421 4.86181L527.547 14.6982ZM530.701 21.4242H518.701C518.701 21.6313 518.665 21.1545 519.035 20.344C519.448 19.4391 520.136 18.6321 520.927 18.0914L527.699 27.9982L534.471 37.9049C540.552 33.7483 542.701 27.3108 542.701 21.4242H530.701ZM527.699 27.9982L521.013 18.033C521.322 17.826 521.467 17.8185 521.274 17.8669C521.062 17.9198 520.55 18.0122 519.643 18.0122V30.0122V42.0122C524.479 42.0122 529.763 41.0637 534.384 37.9633L527.699 27.9982ZM519.643 30.0122V18.0122H509.117V30.0122V42.0122H519.643V30.0122ZM509.117 30.0122H497.117V39.0562H509.117H521.117V30.0122H509.117ZM509.117 39.0562V27.0562H501.213V39.0562V51.0562H509.117V39.0562ZM501.213 39.0562H513.213V12.4562H501.213H489.213V39.0562H501.213ZM501.213 12.4562V24.4562H509.117V12.4562V0.456151H501.213V12.4562ZM509.117 12.4562V24.4562H519.643V12.4562V0.456151H509.117V12.4562ZM519.263 23.9322V35.9322C521.496 35.9322 525.321 35.6017 528.858 33.0912C533.152 30.0445 534.797 25.4452 534.797 21.4242H522.797H510.797C510.797 20.4375 510.973 18.9982 511.715 17.4198C512.485 15.7788 513.65 14.4546 514.969 13.5191C516.212 12.6369 517.357 12.2607 518.047 12.0977C518.732 11.9357 519.181 11.9322 519.263 11.9322V23.9322ZM522.797 21.4242H534.797C534.797 17.4031 533.152 12.8038 528.858 9.75707C525.321 7.24664 521.496 6.91615 519.263 6.91615V18.9162V30.9162C519.181 30.9162 518.732 30.9126 518.047 30.7506C517.357 30.5876 516.212 30.2114 514.969 29.3292C513.65 28.3937 512.485 27.0695 511.715 25.4285C510.973 23.8501 510.797 22.4108 510.797 21.4242H522.797ZM519.263 18.9162V6.91615H509.117V18.9162V30.9162H519.263V18.9162ZM509.117 18.9162H497.117V23.9322H509.117H521.117V18.9162H509.117ZM509.117 23.9322V35.9322H519.263V23.9322V11.9322H509.117V23.9322ZM560.663 36.9662L567.52 46.8145C567.528 46.8086 567.537 46.8028 567.545 46.7969L560.663 36.9662ZM535.279 39.0562H523.279C523.279 45.6836 528.652 51.0562 535.279 51.0562V39.0562ZM535.279 12.4562V0.456151C528.652 0.456151 523.279 5.82873 523.279 12.4562L535.279 12.4562ZM543.183 12.4562H555.183C555.183 5.82873 549.811 0.456151 543.183 0.456151V12.4562ZM543.183 21.5002H531.183C531.183 28.1276 536.556 33.5002 543.183 33.5002V21.5002ZM567.617 12.4562V0.456151C560.99 0.456151 555.617 5.82873 555.617 12.4562L567.617 12.4562ZM575.521 12.4562H587.521C587.521 5.82873 582.149 0.456151 575.521 0.456151V12.4562ZM575.521 39.0562V51.0562C582.149 51.0562 587.521 45.6836 587.521 39.0562H575.521ZM567.617 39.0562H555.617C555.617 45.6836 560.99 51.0562 567.617 51.0562V39.0562ZM543.183 27.7322V15.7322C536.556 15.7322 531.183 21.1047 531.183 27.7322H543.183ZM543.183 32.5962H531.183C531.183 39.2236 536.556 44.5962 543.183 44.5962V32.5962ZM552.645 21.5002V33.5002C554.329 33.5002 554.357 33.8618 553.782 33.4589L560.663 23.6282L567.545 13.7974C562.916 10.5572 557.6 9.50015 552.645 9.50015V21.5002ZM560.663 23.6282L553.782 33.4589C553.056 32.9506 552.41 32.1902 552.019 31.3298C551.667 30.5561 551.703 30.1068 551.703 30.3162H563.703H575.703C575.703 24.3727 573.528 17.9855 567.545 13.7974L560.663 23.6282ZM563.703 30.3162H551.703C551.703 30.4992 551.672 30.0332 552.03 29.2505C552.426 28.3842 553.071 27.6326 553.782 27.1354L560.663 36.9662L567.545 46.7969C573.499 42.6288 575.703 36.2769 575.703 30.3162H563.703ZM560.663 36.9662L553.807 27.1178C554.112 26.9054 554.277 26.8837 554.131 26.9217C553.965 26.965 553.503 27.0562 552.645 27.0562V39.0562V51.0562C557.554 51.0562 562.884 50.042 567.52 46.8145L560.663 36.9662ZM552.645 39.0562V27.0562H538.585V39.0562V51.0562H552.645V39.0562ZM538.585 39.0562V27.0562H535.279V39.0562V51.0562H538.585V39.0562ZM535.279 39.0562H547.279V12.4562H535.279H523.279V39.0562H535.279ZM535.279 12.4562V24.4562H543.183V12.4562V0.456151H535.279V12.4562ZM543.183 12.4562H531.183V21.5002H543.183H555.183V12.4562H543.183ZM543.183 21.5002V33.5002H552.645V21.5002V9.50015H543.183V21.5002ZM567.617 12.4562V24.4562H575.521V12.4562V0.456151H567.617V12.4562ZM575.521 12.4562H563.521V39.0562H575.521H587.521V12.4562H575.521ZM575.521 39.0562V27.0562H567.617V39.0562V51.0562H575.521V39.0562ZM567.617 39.0562H579.617V12.4562H567.617H555.617V39.0562H567.617ZM552.265 32.5962V44.5962C554.448 44.5962 558.21 44.2883 561.719 41.8736C566.037 38.9021 567.799 34.3101 567.799 30.1642H555.799H543.799C543.799 29.1154 543.994 27.6178 544.779 25.997C545.591 24.3194 546.798 23.0077 548.113 22.1028C549.35 21.2516 550.474 20.8981 551.129 20.7479C551.783 20.5978 552.204 20.5962 552.265 20.5962V32.5962ZM555.799 30.1642H567.799C567.799 26.0182 566.037 21.4262 561.719 18.4548C558.21 16.04 554.448 15.7322 552.265 15.7322V27.7322V39.7322C552.204 39.7322 551.783 39.7306 551.129 39.5804C550.474 39.4302 549.35 39.0767 548.113 38.2256C546.798 37.3207 545.591 36.0089 544.779 34.3313C543.994 32.7105 543.799 31.2129 543.799 30.1642H555.799ZM552.265 27.7322V15.7322H543.183V27.7322V39.7322H552.265V27.7322ZM543.183 27.7322H531.183V32.5962H543.183H555.183V27.7322H543.183ZM543.183 32.5962V44.5962H552.265V32.5962V20.5962H543.183V32.5962ZM579.305 21.3482L567.381 20.0019C567.01 23.287 568.01 26.5797 570.147 29.1027C572.283 31.6258 575.366 33.1556 578.667 33.3312L579.305 21.3482ZM583.447 14.3182L576.963 4.22056V4.22056L583.447 14.3182ZM601.383 13.9002L595.604 24.4172C595.62 24.426 595.636 24.4349 595.653 24.4436L601.383 13.9002ZM603.435 23.3242L594.634 15.167V15.167L603.435 23.3242ZM598.951 26.2122L594.141 15.2183C594.131 15.2225 594.121 15.2268 594.112 15.2311L598.951 26.2122ZM595.189 29.1382V41.1382C601.816 41.1382 607.189 35.7656 607.189 29.1382H595.189ZM588.007 29.1382H576.007C576.007 35.7656 581.379 41.1382 588.007 41.1382V29.1382ZM588.919 25.3382L598.624 32.3962V32.3962L588.919 25.3382ZM592.415 23.1722L596.409 34.488L592.415 23.1722ZM594.239 22.5262L598.275 33.827C598.508 33.7438 598.738 33.6534 598.966 33.5559L594.239 22.5262ZM595.683 21.8422L590.49 11.0239C590.432 11.0518 590.374 11.0802 590.316 11.109L595.683 21.8422ZM597.013 20.9682L605.892 29.0402L605.892 29.0402L597.013 20.9682ZM595.987 18.5742L591.371 29.6511C591.407 29.6659 591.443 29.6805 591.478 29.695L595.987 18.5742ZM588.501 18.9922L594.71 29.2609L594.71 29.2609L588.501 18.9922ZM586.449 21.7282L585.811 33.7112C591.595 34.0188 596.773 30.1518 598.12 24.519L586.449 21.7282ZM587.475 39.0562H575.475C575.475 45.6836 580.847 51.0562 587.475 51.0562V39.0562ZM587.475 31.7602V19.7602C580.847 19.7602 575.475 25.1327 575.475 31.7602H587.475ZM595.721 31.7602H607.721C607.721 25.1327 602.348 19.7602 595.721 19.7602V31.7602ZM595.721 39.0562V51.0562C602.348 51.0562 607.721 45.6836 607.721 39.0562H595.721ZM579.305 21.3482L591.229 22.6944C591.248 22.5295 591.239 22.8281 590.945 23.3262C590.632 23.857 590.224 24.2271 589.93 24.4157L583.447 14.3182L576.963 4.22056C571.173 7.93812 568.092 13.7026 567.381 20.0019L579.305 21.3482ZM583.447 14.3182L589.93 24.4157C589.933 24.4138 589.968 24.3917 590.049 24.3574C590.132 24.3226 590.271 24.2715 590.482 24.2185C590.911 24.1107 591.619 24.0002 592.681 24.0002V12.0002V0.000151873C587.335 0.000151873 581.82 1.10165 576.963 4.22056L583.447 14.3182ZM592.681 12.0002V24.0002C594.797 24.0002 595.557 24.3913 595.604 24.4172L601.383 13.9002L607.161 3.38312C602.598 0.87569 597.556 0.000151873 592.681 0.000151873V12.0002ZM601.383 13.9002L595.653 24.4436C595.36 24.2844 594.53 23.7442 593.813 22.5914C593.071 21.3972 592.879 20.2349 592.879 19.5242H604.879H616.879C616.879 16.3307 616.104 12.9898 614.196 9.92094C612.314 6.89341 609.737 4.78257 607.113 3.35666L601.383 13.9002ZM604.879 19.5242H592.879C592.879 18.9648 592.973 18.1942 593.3 17.3325C593.632 16.4598 594.115 15.7267 594.634 15.167L603.435 23.3242L612.236 31.4813C615.377 28.0925 616.879 23.8597 616.879 19.5242H604.879ZM603.435 23.3242L594.634 15.167C594.815 14.9712 594.958 14.8467 595.035 14.7843C595.112 14.7219 595.138 14.7084 595.094 14.7366C595.051 14.7644 594.954 14.8236 594.792 14.9089C594.63 14.994 594.415 15.0983 594.141 15.2183L598.951 26.2122L603.761 37.206C606.54 35.9902 609.7 34.2173 612.236 31.4813L603.435 23.3242ZM598.951 26.2122L594.112 15.2311C592.697 15.8546 590.666 16.7819 589.067 17.9014L595.949 27.7322L602.83 37.5629C602.564 37.7491 602.389 37.8487 602.375 37.8566C602.346 37.8729 602.381 37.8523 602.5 37.792C602.744 37.6683 603.159 37.4712 603.79 37.1932L598.951 26.2122ZM595.949 27.7322L589.067 17.9014C586.6 19.6284 583.189 23.2675 583.189 28.9482H595.189H607.189C607.189 31.0802 606.56 33.0541 605.555 34.6621C604.616 36.1636 603.526 37.0759 602.83 37.5629L595.949 27.7322ZM595.189 28.9482H583.189V29.1382H595.189H607.189V28.9482H595.189ZM595.189 29.1382V17.1382H588.007V29.1382V41.1382H595.189V29.1382ZM588.007 29.1382H600.007V28.6442H588.007H576.007V29.1382H588.007ZM588.007 28.6442H600.007C600.007 28.9986 599.924 30.6087 598.624 32.3962L588.919 25.3382L579.214 18.2801C576.698 21.7396 576.007 25.5537 576.007 28.6442H588.007ZM588.919 25.3382L598.624 32.3962C597.768 33.5722 596.9 34.1655 596.569 34.3705C596.223 34.585 596.11 34.5935 596.409 34.488L592.415 23.1722L588.421 11.8563C585.952 12.7277 581.98 14.477 579.214 18.2801L588.919 25.3382ZM592.415 23.1722L596.409 34.488C597.27 34.1841 597.897 33.962 598.275 33.827L594.239 22.5262L590.203 11.2253C589.871 11.3436 589.282 11.5522 588.421 11.8563L592.415 23.1722ZM594.239 22.5262L598.966 33.5559C599.639 33.2673 600.363 32.9184 601.049 32.5753L595.683 21.8422L590.316 11.109C590.069 11.2328 589.875 11.327 589.729 11.3963C589.577 11.4683 589.511 11.4968 589.512 11.4964L594.239 22.5262ZM595.683 21.8422L600.876 32.6604C601.908 32.1648 604.05 31.0659 605.892 29.0402L597.013 20.9682L588.133 12.8961C588.898 12.0555 589.593 11.5689 589.9 11.3672C590.243 11.1421 590.468 11.0342 590.49 11.0239L595.683 21.8422ZM597.013 20.9682L605.892 29.0402C607.845 26.8922 609.393 23.7998 609.393 20.0562H597.393H585.393C585.393 16.9712 586.687 14.4868 588.133 12.8961L597.013 20.9682ZM597.393 20.0562H609.393C609.393 11.7637 602.636 8.32121 600.495 7.45328L595.987 18.5742L591.478 29.695C591.063 29.5268 589.71 28.9371 588.336 27.4888C586.73 25.7962 585.393 23.2032 585.393 20.0562H597.393ZM595.987 18.5742L600.602 7.49723C597.853 6.35174 595.093 6.00415 592.681 6.00415V18.0042V30.0042C592.852 30.0042 592.297 30.0366 591.371 29.6511L595.987 18.5742ZM592.681 18.0042V6.00415C589.503 6.00415 585.779 6.61451 582.292 8.72337L588.501 18.9922L594.71 29.2609C593.401 30.0525 592.464 30.0042 592.681 30.0042V18.0042ZM588.501 18.9922L582.292 8.72336C578.645 10.9282 575.854 14.4387 574.778 18.9373L586.449 21.7282L598.12 24.519C597.897 25.4492 597.463 26.4469 596.771 27.3702C596.088 28.2806 595.328 28.8869 594.71 29.2609L588.501 18.9922ZM586.449 21.7282L587.086 9.74509L579.942 9.36509L579.305 21.3482L578.667 33.3312L585.811 33.7112L586.449 21.7282ZM587.475 39.0562H599.475V31.7602H587.475H575.475V39.0562H587.475ZM587.475 31.7602V43.7602H595.721V31.7602V19.7602H587.475V31.7602ZM595.721 31.7602H583.721V39.0562H595.721H607.721V31.7602H595.721ZM595.721 39.0562V27.0562H587.475V39.0562V51.0562H595.721V39.0562Z" fill="#282828" mask="url(#path-1-outside-1_272_460)"></path></svg>